<svg width="1899" height="955" viewBox="0 0 1899 955" fill="none" xmlns="http://www.w3.org/2000/svg">
<path opacity="0.3" d="M787.031 899.503C788.136 899.503 789.031 898.608 789.031 897.503C789.031 896.399 788.136 895.503 787.031 895.503L787.031 899.503ZM438.591 896.089C437.81 896.87 437.81 898.137 438.591 898.918L451.319 911.646C452.1 912.427 453.366 912.427 454.147 911.646C454.928 910.864 454.928 909.598 454.147 908.817L442.833 897.503L454.147 886.19C454.928 885.409 454.928 884.142 454.147 883.361C453.366 882.58 452.1 882.58 451.319 883.361L438.591 896.089ZM787.031 895.503L440.005 895.503L440.005 899.503L787.031 899.503L787.031 895.503Z" fill="white"/>
<path d="M949.969 895.503C948.864 895.503 947.969 896.399 947.969 897.503C947.969 898.608 948.864 899.503 949.969 899.503L949.969 895.503ZM1298.41 898.918C1299.19 898.137 1299.19 896.87 1298.41 896.089L1285.68 883.361C1284.9 882.58 1283.63 882.58 1282.85 883.361C1282.07 884.142 1282.07 885.409 1282.85 886.19L1294.17 897.503L1282.85 908.817C1282.07 909.598 1282.07 910.865 1282.85 911.646C1283.63 912.427 1284.9 912.427 1285.68 911.646L1298.41 898.918ZM949.969 899.503L1297 899.503V895.503L949.969 895.503L949.969 899.503Z" fill="white"/>
<path opacity="0.3" d="M57.4838 87.9966V23.5566H71.8838L91.2338 64.9566H91.9538L91.2338 53.4366V23.5566H103.204V87.9966H90.0638L69.3638 44.2566H68.6438L69.3638 55.7766V87.9966H57.4838ZM137.009 89.4366C131.669 89.4366 127.109 88.0566 123.329 85.2966C119.609 82.4766 116.759 78.5466 114.779 73.5066C112.799 68.4066 111.809 62.4966 111.809 55.7766C111.809 48.9966 112.799 43.0866 114.779 38.0466C116.759 33.0066 119.609 29.1066 123.329 26.3466C127.109 23.5266 131.669 22.1166 137.009 22.1166C142.349 22.1166 146.879 23.5266 150.599 26.3466C154.379 29.1066 157.259 33.0066 159.239 38.0466C161.219 43.0866 162.209 48.9966 162.209 55.7766C162.209 62.4966 161.219 68.4066 159.239 73.5066C157.259 78.5466 154.379 82.4766 150.599 85.2966C146.879 88.0566 142.349 89.4366 137.009 89.4366ZM137.009 77.9166C141.089 77.9166 144.269 76.0566 146.549 72.3366C148.829 68.6166 149.969 63.0966 149.969 55.7766C149.969 48.4566 148.829 42.9366 146.549 39.2166C144.269 35.4966 141.089 33.6366 137.009 33.6366C132.929 33.6366 129.749 35.4966 127.469 39.2166C125.189 42.9366 124.049 48.4566 124.049 55.7766C124.049 63.0966 125.189 68.6166 127.469 72.3366C129.749 76.0566 132.929 77.9166 137.009 77.9166ZM171.083 87.9966V23.5566H195.383C201.923 23.5566 207.083 25.3566 210.863 28.9566C214.703 32.4966 216.623 37.4766 216.623 43.8966C216.623 48.3366 215.363 52.1466 212.843 55.3266C210.383 58.4466 207.203 60.6366 203.303 61.8966L203.213 62.5266L216.983 87.2766V87.9966H203.933L190.253 63.7866H183.143V87.9966H171.083ZM183.143 52.6266H195.293C198.053 52.6266 200.273 51.8766 201.953 50.3766C203.633 48.8166 204.473 46.5966 204.473 43.7166C204.473 40.8366 203.693 38.6466 202.133 37.1466C200.573 35.5866 198.323 34.8066 195.383 34.8066H183.143V52.6266ZM225.678 87.9966V23.5566H241.248L249.978 56.5866H250.698L259.338 23.5566H274.998V87.9966H263.748V57.8466L264.378 45.8766H263.658L255.018 78.9966H245.658L236.928 45.8766H236.208L236.838 57.8466V87.9966H225.678ZM280.363 87.9966L299.083 23.5566H314.923L333.643 87.9966H320.233L316.273 73.5066H297.733L293.773 87.9966H280.363ZM304.933 47.1366L300.793 62.3466H313.213L309.073 47.1366L307.363 39.5766H306.643L304.933 47.1366ZM342.968 87.9966V23.5566H355.028V76.4766H386.708V87.9966H342.968ZM399.453 87.9966V77.1966H414.303V34.3566H400.353V23.5566H440.313V34.3566H426.363V77.1966H441.213V87.9966H399.453ZM453.418 87.9966V75.7566L485.728 35.0766H455.218V23.5566H499.678V35.7966L467.728 76.4766H500.038V87.9966H453.418ZM507.023 87.9966L525.743 23.5566H541.583L560.303 87.9966H546.893L542.933 73.5066H524.393L520.433 87.9966H507.023ZM531.593 47.1366L527.453 62.3466H539.873L535.733 47.1366L534.023 39.5766H533.303L531.593 47.1366ZM584.297 87.9966V35.0766H565.757V23.5566H614.897V35.0766H596.357V87.9966H584.297ZM626.112 87.9966V77.1966H640.962V34.3566H627.012V23.5566H666.972V34.3566H653.022V77.1966H667.872V87.9966H626.112ZM703.657 89.4366C698.317 89.4366 693.757 88.0566 689.977 85.2966C686.257 82.4766 683.407 78.5466 681.427 73.5066C679.447 68.4066 678.457 62.4966 678.457 55.7766C678.457 48.9966 679.447 43.0866 681.427 38.0466C683.407 33.0066 686.257 29.1066 689.977 26.3466C693.757 23.5266 698.317 22.1166 703.657 22.1166C708.997 22.1166 713.527 23.5266 717.247 26.3466C721.027 29.1066 723.907 33.0066 725.887 38.0466C727.867 43.0866 728.857 48.9966 728.857 55.7766C728.857 62.4966 727.867 68.4066 725.887 73.5066C723.907 78.5466 721.027 82.4766 717.247 85.2966C713.527 88.0566 708.997 89.4366 703.657 89.4366ZM703.657 77.9166C707.737 77.9166 710.917 76.0566 713.197 72.3366C715.477 68.6166 716.617 63.0966 716.617 55.7766C716.617 48.4566 715.477 42.9366 713.197 39.2166C710.917 35.4966 707.737 33.6366 703.657 33.6366C699.577 33.6366 696.397 35.4966 694.117 39.2166C691.837 42.9366 690.697 48.4566 690.697 55.7766C690.697 63.0966 691.837 68.6166 694.117 72.3366C696.397 76.0566 699.577 77.9166 703.657 77.9166ZM737.462 87.9966V23.5566H751.862L771.212 64.9566H771.932L771.212 53.4366V23.5566H783.182V87.9966H770.042L749.342 44.2566H748.622L749.342 55.7766V87.9966H737.462Z" fill="white"/>
<path d="M955.98 87.9966V23.5566H998.28V35.0766H968.04V50.7366H995.49V62.2566H968.04V87.9966H955.98ZM1006.52 87.9966L1025.24 23.5566H1041.08L1059.8 87.9966H1046.39L1042.43 73.5066H1023.89L1019.93 87.9966H1006.52ZM1031.09 47.1366L1026.95 62.3466H1039.37L1035.23 47.1366L1033.52 39.5766H1032.8L1031.09 47.1366ZM1090.1 89.4366C1082.96 89.4366 1077.32 87.6066 1073.18 83.9466C1069.04 80.2266 1066.49 75.3666 1065.53 69.3666L1077.68 66.6666C1078.16 69.8466 1079.42 72.5166 1081.46 74.6766C1083.56 76.8366 1086.47 77.9166 1090.19 77.9166C1093.55 77.9166 1096.19 77.1966 1098.11 75.7566C1100.09 74.3166 1101.08 72.3966 1101.08 69.9966C1101.08 67.4766 1100.15 65.4966 1098.29 64.0566C1096.49 62.5566 1093.37 61.1466 1088.93 59.8266L1083.35 58.1166C1080.83 57.3366 1078.43 56.2266 1076.15 54.7866C1073.93 53.2866 1072.1 51.3366 1070.66 48.9366C1069.22 46.5366 1068.5 43.5666 1068.5 40.0266C1068.5 36.6666 1069.31 33.6366 1070.93 30.9366C1072.61 28.2366 1075.01 26.1066 1078.13 24.5466C1081.25 22.9266 1085.03 22.1166 1089.47 22.1166C1096.19 22.1166 1101.38 23.7066 1105.04 26.8866C1108.7 30.0066 1110.92 34.3566 1111.7 39.9366L1100.18 41.6466C1099.58 39.0066 1098.41 36.9666 1096.67 35.5266C1094.93 34.0266 1092.59 33.2766 1089.65 33.2766C1087.01 33.2766 1084.79 33.8766 1082.99 35.0766C1081.19 36.2766 1080.29 37.8666 1080.29 39.8466C1080.29 41.8866 1081.13 43.5966 1082.81 44.9766C1084.49 46.3566 1087.16 47.5866 1090.82 48.6666L1095.68 50.1066C1099.28 51.1866 1102.37 52.5366 1104.95 54.1566C1107.59 55.7166 1109.6 57.7566 1110.98 60.2766C1112.42 62.7966 1113.14 65.9466 1113.14 69.7266C1113.14 74.1066 1112.06 77.7666 1109.9 80.7066C1107.8 83.5866 1105.01 85.7766 1101.53 87.2766C1098.05 88.7166 1094.24 89.4366 1090.1 89.4366ZM1140.46 87.9966V35.0766H1121.92V23.5566H1171.06V35.0766H1152.52V87.9966H1140.46ZM1259.82 89.4366C1254.48 89.4366 1249.92 88.0566 1246.14 85.2966C1242.42 82.4766 1239.57 78.5466 1237.59 73.5066C1235.61 68.4066 1234.62 62.4966 1234.62 55.7766C1234.62 48.9966 1235.61 43.0866 1237.59 38.0466C1239.57 33.0066 1242.42 29.1066 1246.14 26.3466C1249.92 23.5266 1254.48 22.1166 1259.82 22.1166C1265.16 22.1166 1269.69 23.5266 1273.41 26.3466C1277.19 29.1066 1280.07 33.0066 1282.05 38.0466C1284.03 43.0866 1285.02 48.9966 1285.02 55.7766C1285.02 66.1566 1282.77 74.3466 1278.27 80.3466L1283.4 87.9966L1274.4 94.0266L1269.9 87.2766C1266.9 88.7166 1263.54 89.4366 1259.82 89.4366ZM1259.82 77.9166C1261.08 77.9166 1262.25 77.7366 1263.33 77.3766L1255.68 66.0366L1264.68 59.9166L1270.89 69.1866C1272.15 65.6466 1272.78 61.1766 1272.78 55.7766C1272.78 48.4566 1271.64 42.9366 1269.36 39.2166C1267.08 35.4966 1263.9 33.6366 1259.82 33.6366C1255.74 33.6366 1252.56 35.4966 1250.28 39.2166C1248 42.9366 1246.86 48.4566 1246.86 55.7766C1246.86 63.0966 1248 68.6166 1250.28 72.3366C1252.56 76.0566 1255.74 77.9166 1259.82 77.9166ZM1316.49 89.4366C1309.05 89.4366 1303.2 87.1566 1298.94 82.5966C1294.68 78.0366 1292.55 71.6766 1292.55 63.5166V23.5566H1304.52V64.3266C1304.52 68.6466 1305.6 72.0066 1307.76 74.4066C1309.92 76.7466 1312.83 77.9166 1316.49 77.9166C1320.15 77.9166 1323.06 76.7466 1325.22 74.4066C1327.38 72.0066 1328.46 68.6466 1328.46 64.3266V23.5566H1340.43V63.5166C1340.43 68.7366 1339.47 73.2966 1337.55 77.1966C1335.63 81.0366 1332.87 84.0366 1329.27 86.1966C1325.73 88.3566 1321.47 89.4366 1316.49 89.4366ZM1352.45 87.9966V23.5566H1395.47V35.0766H1364.51V48.7566H1392.68V60.2766H1364.51V76.4766H1395.47V87.9966H1352.45ZM1407.23 87.9966V23.5566H1431.53C1438.07 23.5566 1443.23 25.3566 1447.01 28.9566C1450.85 32.4966 1452.77 37.4766 1452.77 43.8966C1452.77 48.3366 1451.51 52.1466 1448.99 55.3266C1446.53 58.4466 1443.35 60.6366 1439.45 61.8966L1439.36 62.5266L1453.13 87.2766V87.9966H1440.08L1426.4 63.7866H1419.29V87.9966H1407.23ZM1419.29 52.6266H1431.44C1434.2 52.6266 1436.42 51.8766 1438.1 50.3766C1439.78 48.8166 1440.62 46.5966 1440.62 43.7166C1440.62 40.8366 1439.84 38.6466 1438.28 37.1466C1436.72 35.5866 1434.47 34.8066 1431.53 34.8066H1419.29V52.6266ZM1465.6 87.9966V77.1966H1480.45V34.3566H1466.5V23.5566H1506.46V34.3566H1492.51V77.1966H1507.36V87.9966H1465.6ZM1522.45 87.9966V23.5566H1565.47V35.0766H1534.51V48.7566H1562.68V60.2766H1534.51V76.4766H1565.47V87.9966H1522.45ZM1600.08 89.4366C1592.94 89.4366 1587.3 87.6066 1583.16 83.9466C1579.02 80.2266 1576.47 75.3666 1575.51 69.3666L1587.66 66.6666C1588.14 69.8466 1589.4 72.5166 1591.44 74.6766C1593.54 76.8366 1596.45 77.9166 1600.17 77.9166C1603.53 77.9166 1606.17 77.1966 1608.09 75.7566C1610.07 74.3166 1611.06 72.3966 1611.06 69.9966C1611.06 67.4766 1610.13 65.4966 1608.27 64.0566C1606.47 62.5566 1603.35 61.1466 1598.91 59.8266L1593.33 58.1166C1590.81 57.3366 1588.41 56.2266 1586.13 54.7866C1583.91 53.2866 1582.08 51.3366 1580.64 48.9366C1579.2 46.5366 1578.48 43.5666 1578.48 40.0266C1578.48 36.6666 1579.29 33.6366 1580.91 30.9366C1582.59 28.2366 1584.99 26.1066 1588.11 24.5466C1591.23 22.9266 1595.01 22.1166 1599.45 22.1166C1606.17 22.1166 1611.36 23.7066 1615.02 26.8866C1618.68 30.0066 1620.9 34.3566 1621.68 39.9366L1610.16 41.6466C1609.56 39.0066 1608.39 36.9666 1606.65 35.5266C1604.91 34.0266 1602.57 33.2766 1599.63 33.2766C1596.99 33.2766 1594.77 33.8766 1592.97 35.0766C1591.17 36.2766 1590.27 37.8666 1590.27 39.8466C1590.27 41.8866 1591.11 43.5966 1592.79 44.9766C1594.47 46.3566 1597.14 47.5866 1600.8 48.6666L1605.66 50.1066C1609.26 51.1866 1612.35 52.5366 1614.93 54.1566C1617.57 55.7166 1619.58 57.7566 1620.96 60.2766C1622.4 62.7966 1623.12 65.9466 1623.12 69.7266C1623.12 74.1066 1622.04 77.7666 1619.88 80.7066C1617.78 83.5866 1614.99 85.7766 1611.51 87.2766C1608.03 88.7166 1604.22 89.4366 1600.08 89.4366Z" fill="white"/>
<path d="M953.1 291.479V227.039H971.1C977.4 227.039 982.74 228.329 987.12 230.909C991.5 233.489 994.83 237.179 997.11 241.979C999.45 246.779 1000.62 252.539 1000.62 259.259C1000.62 265.919 999.45 271.679 997.11 276.539C994.83 281.339 991.5 285.029 987.12 287.609C982.74 290.189 977.4 291.479 971.1 291.479H953.1ZM965.16 279.959H970.74C976.2 279.959 980.52 278.249 983.7 274.829C986.88 271.349 988.47 266.159 988.47 259.259C988.47 252.359 986.88 247.199 983.7 243.779C980.52 240.299 976.2 238.559 970.74 238.559H965.16V279.959ZM1012.46 291.479V227.039H1055.48V238.559H1024.52V252.239H1052.69V263.759H1024.52V279.959H1055.48V291.479H1012.46ZM1066.97 291.479V227.039H1081.37L1100.72 268.439H1101.44L1100.72 256.919V227.039H1112.69V291.479H1099.55L1078.85 247.739H1078.13L1078.85 259.259V291.479H1066.97ZM1146.49 292.919C1141.15 292.919 1136.59 291.539 1132.81 288.779C1129.09 285.959 1126.24 282.029 1124.26 276.989C1122.28 271.889 1121.29 265.979 1121.29 259.259C1121.29 252.479 1122.28 246.569 1124.26 241.529C1126.24 236.489 1129.09 232.589 1132.81 229.829C1136.59 227.009 1141.15 225.599 1146.49 225.599C1151.83 225.599 1156.36 227.009 1160.08 229.829C1163.86 232.589 1166.74 236.489 1168.72 241.529C1170.7 246.569 1171.69 252.479 1171.69 259.259C1171.69 265.979 1170.7 271.889 1168.72 276.989C1166.74 282.029 1163.86 285.959 1160.08 288.779C1156.36 291.539 1151.83 292.919 1146.49 292.919ZM1146.49 281.399C1150.57 281.399 1153.75 279.539 1156.03 275.819C1158.31 272.099 1159.45 266.579 1159.45 259.259C1159.45 251.939 1158.31 246.419 1156.03 242.699C1153.75 238.979 1150.57 237.119 1146.49 237.119C1142.41 237.119 1139.23 238.979 1136.95 242.699C1134.67 246.419 1133.53 251.939 1133.53 259.259C1133.53 266.579 1134.67 272.099 1136.95 275.819C1139.23 279.539 1142.41 281.399 1146.49 281.399ZM1180.57 291.479V227.039H1204.87C1211.41 227.039 1216.57 228.839 1220.35 232.439C1224.19 235.979 1226.11 240.959 1226.11 247.379C1226.11 251.819 1224.85 255.629 1222.33 258.809C1219.87 261.929 1216.69 264.119 1212.79 265.379L1212.7 266.009L1226.47 290.759V291.479H1213.42L1199.74 267.269H1192.63V291.479H1180.57ZM1192.63 256.109H1204.78C1207.54 256.109 1209.76 255.359 1211.44 253.859C1213.12 252.299 1213.96 250.079 1213.96 247.199C1213.96 244.319 1213.18 242.129 1211.62 240.629C1210.06 239.069 1207.81 238.289 1204.87 238.289H1192.63V256.109ZM1235.16 291.479V227.039H1250.73L1259.46 260.069H1260.18L1268.82 227.039H1284.48V291.479H1273.23V261.329L1273.86 249.359H1273.14L1264.5 282.479H1255.14L1246.41 249.359H1245.69L1246.32 261.329V291.479H1235.16ZM1289.85 291.479L1308.57 227.039H1324.41L1343.13 291.479H1329.72L1325.76 276.989H1307.22L1303.26 291.479H1289.85ZM1314.42 250.619L1310.28 265.829H1322.7L1318.56 250.619L1316.85 243.059H1316.13L1314.42 250.619ZM1352.45 291.479V227.039H1364.51V279.959H1396.19V291.479H1352.45ZM1408.94 291.479V280.679H1423.79V237.839H1409.84V227.039H1449.8V237.839H1435.85V280.679H1450.7V291.479H1408.94ZM1462.9 291.479V279.239L1495.21 238.559H1464.7V227.039H1509.16V239.279L1477.21 279.959H1509.52V291.479H1462.9ZM1516.51 291.479L1535.23 227.039H1551.07L1569.79 291.479H1556.38L1552.42 276.989H1533.88L1529.92 291.479H1516.51ZM1541.08 250.619L1536.94 265.829H1549.36L1545.22 250.619L1543.51 243.059H1542.79L1541.08 250.619ZM1593.78 291.479V238.559H1575.24V227.039H1624.38V238.559H1605.84V291.479H1593.78ZM1635.6 291.479V280.679H1650.45V237.839H1636.5V227.039H1676.46V237.839H1662.51V280.679H1677.36V291.479H1635.6ZM1713.14 292.919C1707.8 292.919 1703.24 291.539 1699.46 288.779C1695.74 285.959 1692.89 282.029 1690.91 276.989C1688.93 271.889 1687.94 265.979 1687.94 259.259C1687.94 252.479 1688.93 246.569 1690.91 241.529C1692.89 236.489 1695.74 232.589 1699.46 229.829C1703.24 227.009 1707.8 225.599 1713.14 225.599C1718.48 225.599 1723.01 227.009 1726.73 229.829C1730.51 232.589 1733.39 236.489 1735.37 241.529C1737.35 246.569 1738.34 252.479 1738.34 259.259C1738.34 265.979 1737.35 271.889 1735.37 276.989C1733.39 282.029 1730.51 285.959 1726.73 288.779C1723.01 291.539 1718.48 292.919 1713.14 292.919ZM1713.14 281.399C1717.22 281.399 1720.4 279.539 1722.68 275.819C1724.96 272.099 1726.1 266.579 1726.1 259.259C1726.1 251.939 1724.96 246.419 1722.68 242.699C1720.4 238.979 1717.22 237.119 1713.14 237.119C1709.06 237.119 1705.88 238.979 1703.6 242.699C1701.32 246.419 1700.18 251.939 1700.18 259.259C1700.18 266.579 1701.32 272.099 1703.6 275.819C1705.88 279.539 1709.06 281.399 1713.14 281.399ZM1746.95 291.479V227.039H1761.35L1780.7 268.439H1781.42L1780.7 256.919V227.039H1792.67V291.479H1779.53L1758.83 247.739H1758.11L1758.83 259.259V291.479H1746.95Z" fill="white"/>
<path d="M953.91 494.96V430.52H978.21C984.75 430.52 989.91 432.32 993.69 435.92C997.53 439.46 999.45 444.44 999.45 450.86C999.45 455.3 998.19 459.11 995.67 462.29C993.21 465.41 990.03 467.6 986.13 468.86L986.04 469.49L999.81 494.24V494.96H986.76L973.08 470.75H965.97V494.96H953.91ZM965.97 459.59H978.12C980.88 459.59 983.1 458.84 984.78 457.34C986.46 455.78 987.3 453.56 987.3 450.68C987.3 447.8 986.52 445.61 984.96 444.11C983.4 442.55 981.15 441.77 978.21 441.77H965.97V459.59ZM1012.46 494.96V430.52H1055.48V442.04H1024.52V455.72H1052.69V467.24H1024.52V483.44H1055.48V494.96H1012.46ZM1063.19 494.96L1081.91 430.52H1097.75L1116.47 494.96H1103.06L1099.1 480.47H1080.56L1076.6 494.96H1063.19ZM1087.76 454.1L1083.62 469.31H1096.04L1091.9 454.1L1090.19 446.54H1089.47L1087.76 454.1ZM1125.79 494.96V430.52H1137.85V483.44H1169.53V494.96H1125.79ZM1197.13 494.96V442.04H1178.59V430.52H1227.73V442.04H1209.19V494.96H1197.13ZM1238.94 494.96V484.16H1253.79V441.32H1239.84V430.52H1279.8V441.32H1265.85V484.16H1280.7V494.96H1238.94ZM1291.83 494.96V430.52H1307.4L1316.13 463.55H1316.85L1325.49 430.52H1341.15V494.96H1329.9V464.81L1330.53 452.84H1329.81L1321.17 485.96H1311.81L1303.08 452.84H1302.36L1302.99 464.81V494.96H1291.83ZM1352.45 494.96V430.52H1395.47V442.04H1364.51V455.72H1392.68V467.24H1364.51V483.44H1395.47V494.96H1352.45Z" fill="#FFD557"/>
<path opacity="0.2" d="M113.695 291.479V227.039H137.995C144.535 227.039 149.695 228.839 153.475 232.439C157.315 235.979 159.235 240.959 159.235 247.379C159.235 251.819 157.975 255.629 155.455 258.809C152.995 261.929 149.815 264.119 145.915 265.379L145.825 266.009L159.595 290.759V291.479H146.545L132.865 267.269H125.755V291.479H113.695ZM125.755 256.109H137.905C140.665 256.109 142.885 255.359 144.565 253.859C146.245 252.299 147.085 250.079 147.085 247.199C147.085 244.319 146.305 242.129 144.745 240.629C143.185 239.069 140.935 238.289 137.995 238.289H125.755V256.109ZM172.07 291.479V280.679H186.92V237.839H172.97V227.039H212.93V237.839H198.98V280.679H213.83V291.479H172.07ZM247.545 292.919C243.045 292.919 239.085 291.539 235.665 288.779C232.245 285.959 229.575 282.029 227.655 276.989C225.795 271.949 224.865 266.039 224.865 259.259C224.865 252.479 225.855 246.569 227.835 241.529C229.875 236.489 232.725 232.589 236.385 229.829C240.105 227.009 244.455 225.599 249.435 225.599C256.215 225.599 261.525 227.249 265.365 230.549C269.205 233.789 271.605 238.379 272.565 244.319L261.315 247.469C260.595 244.169 259.275 241.619 257.355 239.819C255.435 238.019 252.885 237.119 249.705 237.119C246.165 237.119 243.165 239.009 240.705 242.789C238.245 246.569 237.015 252.059 237.015 259.259C237.015 266.459 238.125 271.949 240.345 275.729C242.565 279.509 245.655 281.399 249.615 281.399C253.155 281.399 255.975 280.139 258.075 277.619C260.175 275.039 261.525 271.529 262.125 267.089H248.535V256.829H274.005V291.479H262.845V284.189H262.125C260.805 287.069 258.945 289.259 256.545 290.759C254.205 292.199 251.205 292.919 247.545 292.919ZM285.4 291.479V280.679H300.25V237.839H286.3V227.039H326.26V237.839H312.31V280.679H327.16V291.479H285.4ZM339.545 291.479V227.039H357.545C363.845 227.039 369.185 228.329 373.565 230.909C377.945 233.489 381.275 237.179 383.555 241.979C385.895 246.779 387.065 252.539 387.065 259.259C387.065 265.919 385.895 271.679 383.555 276.539C381.275 281.339 377.945 285.029 373.565 287.609C369.185 290.189 363.845 291.479 357.545 291.479H339.545ZM351.605 279.959H357.185C362.645 279.959 366.965 278.249 370.145 274.829C373.325 271.349 374.915 266.159 374.915 259.259C374.915 252.359 373.325 247.199 370.145 243.779C366.965 240.299 362.645 238.559 357.185 238.559H351.605V279.959ZM451.614 291.479V227.039H467.184L475.914 260.069H476.634L485.274 227.039H500.934V291.479H489.684V261.329L490.314 249.359H489.594L480.954 282.479H471.594L462.864 249.359H462.144L462.774 261.329V291.479H451.614ZM532.939 292.919C527.599 292.919 523.039 291.539 519.259 288.779C515.539 285.959 512.689 282.029 510.709 276.989C508.729 271.889 507.739 265.979 507.739 259.259C507.739 252.479 508.729 246.569 510.709 241.529C512.689 236.489 515.539 232.589 519.259 229.829C523.039 227.009 527.599 225.599 532.939 225.599C538.279 225.599 542.809 227.009 546.529 229.829C550.309 232.589 553.189 236.489 555.169 241.529C557.149 246.569 558.139 252.479 558.139 259.259C558.139 265.979 557.149 271.889 555.169 276.989C553.189 282.029 550.309 285.959 546.529 288.779C542.809 291.539 538.279 292.919 532.939 292.919ZM532.939 281.399C537.019 281.399 540.199 279.539 542.479 275.819C544.759 272.099 545.899 266.579 545.899 259.259C545.899 251.939 544.759 246.419 542.479 242.699C540.199 238.979 537.019 237.119 532.939 237.119C528.859 237.119 525.679 238.979 523.399 242.699C521.119 246.419 519.979 251.939 519.979 259.259C519.979 266.579 521.119 272.099 523.399 275.819C525.679 279.539 528.859 281.399 532.939 281.399ZM566.204 291.479V227.039H584.204C590.504 227.039 595.844 228.329 600.224 230.909C604.604 233.489 607.934 237.179 610.214 241.979C612.554 246.779 613.724 252.539 613.724 259.259C613.724 265.919 612.554 271.679 610.214 276.539C607.934 281.339 604.604 285.029 600.224 287.609C595.844 290.189 590.504 291.479 584.204 291.479H566.204ZM578.264 279.959H583.844C589.304 279.959 593.624 278.249 596.804 274.829C599.984 271.349 601.574 266.159 601.574 259.259C601.574 252.359 599.984 247.199 596.804 243.779C593.624 240.299 589.304 238.559 583.844 238.559H578.264V279.959ZM625.569 291.479V227.039H668.589V238.559H637.629V252.239H665.799V263.759H637.629V279.959H668.589V291.479H625.569ZM682.234 291.479V227.039H694.294V279.959H725.974V291.479H682.234ZM759.868 292.919C752.728 292.919 747.088 291.089 742.948 287.429C738.808 283.709 736.258 278.849 735.298 272.849L747.448 270.149C747.928 273.329 749.188 275.999 751.228 278.159C753.328 280.319 756.238 281.399 759.958 281.399C763.318 281.399 765.958 280.679 767.878 279.239C769.858 277.799 770.848 275.879 770.848 273.479C770.848 270.959 769.918 268.979 768.058 267.539C766.258 266.039 763.138 264.629 758.698 263.309L753.118 261.599C750.598 260.819 748.198 259.709 745.918 258.269C743.698 256.769 741.868 254.819 740.428 252.419C738.988 250.019 738.268 247.049 738.268 243.509C738.268 240.149 739.078 237.119 740.698 234.419C742.378 231.719 744.778 229.589 747.898 228.029C751.018 226.409 754.798 225.599 759.238 225.599C765.958 225.599 771.148 227.189 774.808 230.369C778.468 233.489 780.688 237.839 781.468 243.419L769.948 245.129C769.348 242.489 768.178 240.449 766.438 239.009C764.698 237.509 762.358 236.759 759.418 236.759C756.778 236.759 754.558 237.359 752.758 238.559C750.958 239.759 750.058 241.349 750.058 243.329C750.058 245.369 750.898 247.079 752.578 248.459C754.258 249.839 756.928 251.069 760.588 252.149L765.448 253.589C769.048 254.669 772.138 256.019 774.718 257.639C777.358 259.199 779.368 261.239 780.748 263.759C782.188 266.279 782.908 269.429 782.908 273.209C782.908 277.589 781.828 281.249 779.668 284.189C777.568 287.069 774.778 289.259 771.298 290.759C767.818 292.199 764.008 292.919 759.868 292.919Z" fill="white"/>
<path opacity="0.1" d="M533.013 496.4C526.713 496.4 521.643 494.72 517.803 491.36C513.963 488 511.623 483.14 510.783 476.78L522.483 474.35C523.023 477.71 524.163 480.32 525.903 482.18C527.703 483.98 530.073 484.88 533.013 484.88C536.193 484.88 538.623 483.98 540.303 482.18C541.983 480.32 542.823 477.71 542.823 474.35V430.52H554.883V474.17C554.883 479.21 553.923 483.38 552.003 486.68C550.143 489.92 547.563 492.35 544.263 493.97C541.023 495.59 537.273 496.4 533.013 496.4ZM589.227 496.4C583.887 496.4 579.327 495.02 575.547 492.26C571.827 489.44 568.977 485.51 566.997 480.47C565.017 475.37 564.027 469.46 564.027 462.74C564.027 455.96 565.017 450.05 566.997 445.01C568.977 439.97 571.827 436.07 575.547 433.31C579.327 430.49 583.887 429.08 589.227 429.08C594.567 429.08 599.097 430.49 602.817 433.31C606.597 436.07 609.477 439.97 611.457 445.01C613.437 450.05 614.427 455.96 614.427 462.74C614.427 469.46 613.437 475.37 611.457 480.47C609.477 485.51 606.597 489.44 602.817 492.26C599.097 495.02 594.567 496.4 589.227 496.4ZM589.227 484.88C593.307 484.88 596.487 483.02 598.767 479.3C601.047 475.58 602.187 470.06 602.187 462.74C602.187 455.42 601.047 449.9 598.767 446.18C596.487 442.46 593.307 440.6 589.227 440.6C585.147 440.6 581.967 442.46 579.687 446.18C577.407 449.9 576.267 455.42 576.267 462.74C576.267 470.06 577.407 475.58 579.687 479.3C581.967 483.02 585.147 484.88 589.227 484.88ZM625.012 494.96V484.16H639.862V441.32H625.912V430.52H665.872V441.32H651.922V484.16H666.772V494.96H625.012ZM679.697 494.96V430.52H694.097L713.447 471.92H714.167L713.447 460.4V430.52H725.417V494.96H712.277L691.577 451.22H690.857L691.577 462.74V494.96H679.697ZM759.492 496.4C752.352 496.4 746.712 494.57 742.572 490.91C738.432 487.19 735.882 482.33 734.922 476.33L747.072 473.63C747.552 476.81 748.812 479.48 750.852 481.64C752.952 483.8 755.862 484.88 759.582 484.88C762.942 484.88 765.582 484.16 767.502 482.72C769.482 481.28 770.472 479.36 770.472 476.96C770.472 474.44 769.542 472.46 767.682 471.02C765.882 469.52 762.762 468.11 758.322 466.79L752.742 465.08C750.222 464.3 747.822 463.19 745.542 461.75C743.322 460.25 741.492 458.3 740.052 455.9C738.612 453.5 737.892 450.53 737.892 446.99C737.892 443.63 738.702 440.6 740.322 437.9C742.002 435.2 744.402 433.07 747.522 431.51C750.642 429.89 754.422 429.08 758.862 429.08C765.582 429.08 770.772 430.67 774.432 433.85C778.092 436.97 780.312 441.32 781.092 446.9L769.572 448.61C768.972 445.97 767.802 443.93 766.062 442.49C764.322 440.99 761.982 440.24 759.042 440.24C756.402 440.24 754.182 440.84 752.382 442.04C750.582 443.24 749.682 444.83 749.682 446.81C749.682 448.85 750.522 450.56 752.202 451.94C753.882 453.32 756.552 454.55 760.212 455.63L765.072 457.07C768.672 458.15 771.762 459.5 774.342 461.12C776.982 462.68 778.992 464.72 780.372 467.24C781.812 469.76 782.532 472.91 782.532 476.69C782.532 481.07 781.452 484.73 779.292 487.67C777.192 490.55 774.402 492.74 770.922 494.24C767.442 495.68 763.632 496.4 759.492 496.4Z" fill="white"/>
<path opacity="0.3" d="M1.01625 928.003L19.7363 863.563H35.5763L54.2963 928.003H40.8863L36.9263 913.513H18.3863L14.4263 928.003H1.01625ZM25.5863 887.143L21.4463 902.353H33.8663L29.7263 887.143L28.0163 879.583H27.2963L25.5863 887.143ZM61.9111 928.003L54.5311 863.563H66.2311L68.5711 898.483L68.9311 906.133H69.6511L70.1911 898.483L75.5911 872.563H87.6511L93.0511 898.483L93.5911 906.133H94.3111L94.6711 898.483L97.0111 863.563H108.711L101.331 928.003H88.9111L82.6111 896.953L81.9811 889.843H81.2611L80.6311 896.953L74.3311 928.003H61.9111ZM108.946 928.003L127.666 863.563H143.506L162.226 928.003H148.816L144.856 913.513H126.316L122.356 928.003H108.946ZM133.516 887.143L129.376 902.353H141.796L137.656 887.143L135.946 879.583H135.226L133.516 887.143ZM183.701 928.003V899.473L163.361 863.563H177.311L189.371 885.613H190.091L201.521 863.563H215.741L195.761 899.473V928.003H183.701Z" fill="white"/>
<path d="M1541.31 928.003V875.083H1522.77V863.563H1571.91V875.083H1553.37V928.003H1541.31ZM1601.31 929.443C1595.97 929.443 1591.41 928.063 1587.63 925.303C1583.91 922.483 1581.06 918.553 1579.08 913.513C1577.1 908.413 1576.11 902.503 1576.11 895.783C1576.11 889.003 1577.1 883.093 1579.08 878.053C1581.06 873.013 1583.91 869.113 1587.63 866.353C1591.41 863.533 1595.97 862.123 1601.31 862.123C1606.65 862.123 1611.18 863.533 1614.9 866.353C1618.68 869.113 1621.56 873.013 1623.54 878.053C1625.52 883.093 1626.51 889.003 1626.51 895.783C1626.51 902.503 1625.52 908.413 1623.54 913.513C1621.56 918.553 1618.68 922.483 1614.9 925.303C1611.18 928.063 1606.65 929.443 1601.31 929.443ZM1601.31 917.923C1605.39 917.923 1608.57 916.063 1610.85 912.343C1613.13 908.623 1614.27 903.103 1614.27 895.783C1614.27 888.463 1613.13 882.943 1610.85 879.223C1608.57 875.503 1605.39 873.643 1601.31 873.643C1597.23 873.643 1594.05 875.503 1591.77 879.223C1589.49 882.943 1588.35 888.463 1588.35 895.783C1588.35 903.103 1589.49 908.623 1591.77 912.343C1594.05 916.063 1597.23 917.923 1601.31 917.923ZM1635.56 928.003L1628.18 863.563H1639.88L1642.22 898.483L1642.58 906.133H1643.3L1643.84 898.483L1649.24 872.563H1661.3L1666.7 898.483L1667.24 906.133H1667.96L1668.32 898.483L1670.66 863.563H1682.36L1674.98 928.003H1662.56L1656.26 896.953L1655.63 889.843H1654.91L1654.28 896.953L1647.98 928.003H1635.56ZM1682.6 928.003L1701.32 863.563H1717.16L1735.88 928.003H1722.47L1718.51 913.513H1699.97L1696.01 928.003H1682.6ZM1707.17 887.143L1703.03 902.353H1715.45L1711.31 887.143L1709.6 879.583H1708.88L1707.17 887.143ZM1740.61 928.003V863.563H1764.91C1771.45 863.563 1776.61 865.363 1780.39 868.963C1784.23 872.503 1786.15 877.483 1786.15 883.903C1786.15 888.343 1784.89 892.153 1782.37 895.333C1779.91 898.453 1776.73 900.643 1772.83 901.903L1772.74 902.533L1786.51 927.283V928.003H1773.46L1759.78 903.793H1752.67V928.003H1740.61ZM1752.67 892.633H1764.82C1767.58 892.633 1769.8 891.883 1771.48 890.383C1773.16 888.823 1774 886.603 1774 883.723C1774 880.843 1773.22 878.653 1771.66 877.153C1770.1 875.593 1767.85 874.813 1764.91 874.813H1752.67V892.633ZM1793.77 928.003V863.563H1811.77C1818.07 863.563 1823.41 864.853 1827.79 867.433C1832.17 870.013 1835.5 873.703 1837.78 878.503C1840.12 883.303 1841.29 889.063 1841.29 895.783C1841.29 902.443 1840.12 908.203 1837.78 913.063C1835.5 917.863 1832.17 921.553 1827.79 924.133C1823.41 926.713 1818.07 928.003 1811.77 928.003H1793.77ZM1805.83 916.483H1811.41C1816.87 916.483 1821.19 914.773 1824.37 911.353C1827.55 907.873 1829.14 902.683 1829.14 895.783C1829.14 888.883 1827.55 883.723 1824.37 880.303C1821.19 876.823 1816.87 875.083 1811.41 875.083H1805.83V916.483ZM1871.4 929.443C1864.26 929.443 1858.62 927.613 1854.48 923.953C1850.34 920.233 1847.79 915.373 1846.83 909.373L1858.98 906.673C1859.46 909.853 1860.72 912.523 1862.76 914.683C1864.86 916.843 1867.77 917.923 1871.49 917.923C1874.85 917.923 1877.49 917.203 1879.41 915.763C1881.39 914.323 1882.38 912.403 1882.38 910.003C1882.38 907.483 1881.45 905.503 1879.59 904.063C1877.79 902.563 1874.67 901.153 1870.23 899.833L1864.65 898.123C1862.13 897.343 1859.73 896.233 1857.45 894.793C1855.23 893.293 1853.4 891.343 1851.96 888.943C1850.52 886.543 1849.8 883.573 1849.8 880.033C1849.8 876.673 1850.61 873.643 1852.23 870.943C1853.91 868.243 1856.31 866.113 1859.43 864.553C1862.55 862.933 1866.33 862.123 1870.77 862.123C1877.49 862.123 1882.68 863.713 1886.34 866.893C1890 870.013 1892.22 874.363 1893 879.943L1881.48 881.653C1880.88 879.013 1879.71 876.973 1877.97 875.533C1876.23 874.033 1873.89 873.283 1870.95 873.283C1868.31 873.283 1866.09 873.883 1864.29 875.083C1862.49 876.283 1861.59 877.873 1861.59 879.853C1861.59 881.893 1862.43 883.603 1864.11 884.983C1865.79 886.363 1868.46 887.593 1872.12 888.673L1876.98 890.113C1880.58 891.193 1883.67 892.543 1886.25 894.163C1888.89 895.723 1890.9 897.763 1892.28 900.283C1893.72 902.803 1894.44 905.953 1894.44 909.733C1894.44 914.113 1893.36 917.773 1891.2 920.713C1889.1 923.593 1886.31 925.783 1882.83 927.283C1879.35 928.723 1875.54 929.443 1871.4 929.443Z" fill="white"/>
</svg>
