<svg width="1220" height="991" fill="none" xmlns="http://www.w3.org/2000/svg"><path d="m627.942 406.281-2.784-16.32h3.2l1.664 11.072h.128l2.56-11.072h3.264l2.592 11.072h.128l1.632-11.072h3.136l-2.784 16.32h-3.712l-2.432-10.368-.192-1.312h-.128l-.192 1.312-2.4 10.368h-3.68Zm18.292 0v-22.912h3.392v6.304l-.192 2.496h.192c.426-.768 1.098-1.408 2.016-1.92a6.102 6.102 0 0 1 3.072-.8c2.069 0 3.594.586 4.576 1.76 1.002 1.173 1.504 2.72 1.504 4.64v10.432h-3.392v-10.016c0-1.174-.32-2.07-.96-2.688-.619-.64-1.483-.96-2.592-.96-.832 0-1.568.213-2.208.64-.619.426-1.11 1.013-1.472 1.76-.363.725-.544 1.536-.544 2.432v8.832h-3.392Zm26.707.512c-1.642 0-3.061-.363-4.256-1.088-1.173-.726-2.09-1.739-2.752-3.04-.64-1.302-.96-2.806-.96-4.512 0-1.728.331-3.243.992-4.544.683-1.323 1.622-2.347 2.816-3.072 1.216-.726 2.603-1.088 4.16-1.088 2.454 0 4.32.704 5.6 2.112 1.28 1.386 1.92 3.274 1.92 5.664 0 .576-.032 1.12-.096 1.632h-12.064c.107 1.578.587 2.784 1.44 3.616.875.832 1.984 1.248 3.328 1.248 1.088 0 1.952-.246 2.592-.736a4.3 4.3 0 0 0 1.376-1.888l2.976.8c-.448 1.472-1.269 2.656-2.464 3.552-1.173.896-2.709 1.344-4.608 1.344Zm0-14.464c-1.13 0-2.09.33-2.88.992-.789.661-1.322 1.653-1.6 2.976h8.64c-.064-1.195-.448-2.155-1.152-2.88-.704-.726-1.706-1.088-3.008-1.088Zm13.62 13.952v-16.32h3.232v2.752h.192c.469-1.024 1.152-1.824 2.048-2.4.917-.576 2.005-.864 3.264-.864.618 0 1.194.053 1.728.16.554.085 1.002.234 1.344.448v3.584a7.812 7.812 0 0 0-1.728-.672 7.681 7.681 0 0 0-2.048-.256c-1.451 0-2.582.501-3.392 1.504-.811.981-1.216 2.218-1.216 3.712v8.352h-3.424Zm24.755.512c-1.642 0-3.061-.363-4.256-1.088-1.173-.726-2.09-1.739-2.752-3.04-.64-1.302-.96-2.806-.96-4.512 0-1.728.331-3.243.992-4.544.683-1.323 1.622-2.347 2.816-3.072 1.216-.726 2.603-1.088 4.16-1.088 2.454 0 4.32.704 5.6 2.112 1.28 1.386 1.92 3.274 1.92 5.664 0 .576-.032 1.12-.096 1.632h-12.064c.107 1.578.587 2.784 1.44 3.616.875.832 1.984 1.248 3.328 1.248 1.088 0 1.952-.246 2.592-.736a4.3 4.3 0 0 0 1.376-1.888l2.976.8c-.448 1.472-1.269 2.656-2.464 3.552-1.173.896-2.709 1.344-4.608 1.344Zm0-14.464c-1.13 0-2.09.33-2.88.992-.789.661-1.322 1.653-1.6 2.976h8.64c-.064-1.195-.448-2.155-1.152-2.88-.704-.726-1.706-1.088-3.008-1.088Zm22.42 19.04c-1.238-1.024-2.432-2.262-3.584-3.712-1.131-1.43-2.059-3.104-2.784-5.024-.726-1.942-1.088-4.16-1.088-6.656 0-2.496.362-4.704 1.088-6.624.725-1.942 1.653-3.627 2.784-5.056 1.152-1.451 2.346-2.688 3.584-3.712l2.24 2.656a19.621 19.621 0 0 0-3.2 3.328 15.43 15.43 0 0 0-2.24 4.192c-.534 1.557-.8 3.296-.8 5.216 0 1.92.266 3.658.8 5.216a15.459 15.459 0 0 0 2.24 4.192 19.696 19.696 0 0 0 3.2 3.328l-2.24 2.656Zm14.195-18.464v-9.536h3.104v9.536h-3.104Zm20.98 13.888c-1.558 0-2.934-.352-4.128-1.056-1.195-.726-2.123-1.739-2.784-3.04-.662-1.302-.992-2.827-.992-4.576 0-1.75.341-3.275 1.024-4.576.682-1.302 1.621-2.304 2.816-3.008 1.216-.726 2.613-1.088 4.192-1.088 1.962 0 3.594.48 4.896 1.44 1.322.96 2.133 2.304 2.432 4.032l-3.328.544a3.473 3.473 0 0 0-1.408-2.08c-.704-.534-1.59-.8-2.656-.8-1.28 0-2.368.48-3.264 1.44-.875.96-1.312 2.325-1.312 4.096 0 1.77.437 3.136 1.312 4.096.874.938 1.962 1.408 3.264 1.408 1.088 0 1.962-.256 2.624-.768.661-.534 1.152-1.291 1.472-2.272l3.2.768c-.384 1.6-1.195 2.912-2.432 3.936-1.238 1.002-2.88 1.504-4.928 1.504Zm18.931 0c-1.664 0-3.114-.363-4.352-1.088a7.542 7.542 0 0 1-2.816-3.072c-.661-1.323-.992-2.827-.992-4.512 0-1.707.331-3.211.992-4.512.662-1.302 1.6-2.315 2.816-3.04 1.238-.747 2.688-1.12 4.352-1.12 1.664 0 3.104.373 4.32 1.12a7.245 7.245 0 0 1 2.848 3.04c.662 1.301.992 2.805.992 4.512 0 1.706-.33 3.21-.992 4.512a7.464 7.464 0 0 1-2.848 3.072c-1.216.725-2.656 1.088-4.32 1.088Zm0-3.168c1.387 0 2.528-.47 3.424-1.408.896-.96 1.344-2.326 1.344-4.096 0-1.771-.448-3.126-1.344-4.064-.896-.96-2.037-1.44-3.424-1.44-1.386 0-2.528.48-3.424 1.44-.896.938-1.344 2.293-1.344 4.064 0 1.77.448 3.136 1.344 4.096.896.938 2.038 1.408 3.424 1.408Zm19.252 3.168c-2.134 0-3.776-.47-4.928-1.408-1.152-.939-1.899-2.176-2.24-3.712l3.296-.608a3.56 3.56 0 0 0 1.216 1.952c.64.49 1.525.736 2.656.736.96 0 1.77-.171 2.432-.512.682-.363 1.024-.886 1.024-1.568 0-.662-.288-1.174-.864-1.536-.555-.363-1.376-.651-2.464-.864l-1.984-.352c-1.366-.235-2.486-.736-3.36-1.504-.875-.768-1.312-1.824-1.312-3.168 0-.939.277-1.76.832-2.464.554-.726 1.301-1.291 2.24-1.696.96-.427 2.048-.64 3.264-.64 1.792 0 3.253.362 4.384 1.088 1.152.725 1.877 1.866 2.176 3.424l-3.04.544c-.256-.811-.694-1.376-1.312-1.696-.619-.342-1.344-.512-2.176-.512-.854 0-1.579.181-2.176.544-.598.341-.896.778-.896 1.312 0 .576.234 1.034.704 1.376.49.32 1.194.565 2.112.736l2.368.416c1.6.277 2.816.789 3.648 1.536.832.725 1.248 1.845 1.248 3.36 0 1.045-.299 1.962-.896 2.752-.598.789-1.419 1.397-2.464 1.824-1.046.426-2.208.64-3.488.64Zm22.067-.032c-1.685 0-3.04-.491-4.064-1.472-1.024-1.003-1.536-2.432-1.536-4.288v-8.064h-3.744v-2.976h3.744v-4.48h3.424v4.48h5.984v2.976h-5.984v7.744c0 .917.235 1.632.704 2.144.47.49 1.174.736 2.112.736.811 0 1.6-.214 2.368-.64l.992 2.88a6.7 6.7 0 0 1-1.728.704c-.576.17-1.333.256-2.272.256Zm14.708-13.856v-9.536h3.104v9.536h-3.104Zm18.195 17.504 1.664-8.832h4.576l-3.168 8.832h-3.072Zm39.367-17.504v-9.536h3.104v9.536h-3.104Zm14.324 10.752v-3.456l9.12-5.28v-.192l-9.12-5.28v-3.456l12.8 7.52v2.624l-12.8 7.52Zm24.051-10.752v-9.536h3.104v9.536h-3.104Zm18.196 17.504 1.664-8.832h4.576l-3.168 8.832h-3.072Zm34.023-4.128v-3.2h5.44v-15.2l-4.992 3.648v-3.776l5.984-4.384h2.433v19.712h5.15v3.2h-14.015Zm26.065.192c-.72 0-1.35-.256-1.89-.768a2.634 2.634 0 0 1-.8-1.92c0-.726.27-1.355.8-1.888.54-.534 1.17-.8 1.89-.8.73 0 1.36.266 1.89.8.53.533.8 1.162.8 1.888 0 .746-.27 1.386-.8 1.92-.53.512-1.16.768-1.89.768Zm19.19.32c-1.81 0-3.36-.502-4.64-1.504-1.26-1.003-2.22-2.4-2.88-4.192-.64-1.814-.96-3.904-.96-6.272 0-2.368.32-4.448.96-6.24.66-1.792 1.62-3.19 2.88-4.192 1.28-1.024 2.83-1.536 4.64-1.536 1.81 0 3.35.512 4.61 1.536 1.28 1.002 2.24 2.4 2.88 4.192.66 1.792.99 3.872.99 6.24 0 2.368-.33 4.458-.99 6.272-.64 1.792-1.6 3.189-2.88 4.192-1.26 1.002-2.8 1.504-4.61 1.504Zm-5.02-11.968c0 1.792.18 3.317.54 4.576l7.39-12.128c-.79-.79-1.76-1.184-2.91-1.184-1.64 0-2.89.768-3.74 2.304-.86 1.514-1.28 3.658-1.28 6.432Zm5.02 8.736c1.62 0 2.86-.758 3.71-2.272.88-1.536 1.31-3.691 1.31-6.464 0-1.75-.17-3.264-.51-4.544l-7.42 12.128c.79.768 1.76 1.152 2.91 1.152Zm19.19 3.232c-1.82 0-3.36-.502-4.64-1.504-1.26-1.003-2.22-2.4-2.88-4.192-.64-1.814-.96-3.904-.96-6.272 0-2.368.32-4.448.96-6.24.66-1.792 1.62-3.19 2.88-4.192 1.28-1.024 2.82-1.536 4.64-1.536 1.81 0 3.35.512 4.61 1.536 1.28 1.002 2.24 2.4 2.88 4.192.66 1.792.99 3.872.99 6.24 0 2.368-.33 4.458-.99 6.272-.64 1.792-1.6 3.189-2.88 4.192-1.26 1.002-2.8 1.504-4.61 1.504Zm-5.03-11.968c0 1.792.18 3.317.55 4.576l7.39-12.128c-.79-.79-1.76-1.184-2.91-1.184-1.65 0-2.89.768-3.75 2.304-.85 1.514-1.28 3.658-1.28 6.432Zm5.03 8.736c1.62 0 2.86-.758 3.71-2.272.87-1.536 1.31-3.691 1.31-6.464 0-1.75-.17-3.264-.51-4.544l-7.42 12.128c.78.768 1.76 1.152 2.91 1.152Zm15.73 7.808-2.24-2.656a19.972 19.972 0 0 0 3.2-3.328c.94-1.238 1.67-2.635 2.21-4.192.55-1.558.83-3.296.83-5.216 0-1.92-.28-3.659-.83-5.216-.54-1.558-1.27-2.955-2.21-4.192a19.895 19.895 0 0 0-3.2-3.328l2.24-2.656c1.24 1.024 2.42 2.261 3.55 3.712 1.15 1.429 2.09 3.114 2.82 5.056.72 1.92 1.08 4.128 1.08 6.624 0 2.496-.36 4.714-1.08 6.656-.73 1.92-1.67 3.594-2.82 5.024-1.13 1.45-2.31 2.688-3.55 3.712ZM627.942 461.281l-2.784-16.32h3.2l1.664 11.072h.128l2.56-11.072h3.264l2.592 11.072h.128l1.632-11.072h3.136l-2.784 16.32h-3.712l-2.432-10.368-.192-1.312h-.128l-.192 1.312-2.4 10.368h-3.68Zm18.292 0v-22.912h3.392v6.304l-.192 2.496h.192c.426-.768 1.098-1.408 2.016-1.92a6.102 6.102 0 0 1 3.072-.8c2.069 0 3.594.586 4.576 1.76 1.002 1.173 1.504 2.72 1.504 4.64v10.432h-3.392v-10.016c0-1.174-.32-2.07-.96-2.688-.619-.64-1.483-.96-2.592-.96-.832 0-1.568.213-2.208.64-.619.426-1.11 1.013-1.472 1.76-.363.725-.544 1.536-.544 2.432v8.832h-3.392Zm26.707.512c-1.642 0-3.061-.363-4.256-1.088-1.173-.726-2.09-1.739-2.752-3.04-.64-1.302-.96-2.806-.96-4.512 0-1.728.331-3.243.992-4.544.683-1.323 1.622-2.347 2.816-3.072 1.216-.726 2.603-1.088 4.16-1.088 2.454 0 4.32.704 5.6 2.112 1.28 1.386 1.92 3.274 1.92 5.664 0 .576-.032 1.12-.096 1.632h-12.064c.107 1.578.587 2.784 1.44 3.616.875.832 1.984 1.248 3.328 1.248 1.088 0 1.952-.246 2.592-.736a4.3 4.3 0 0 0 1.376-1.888l2.976.8c-.448 1.472-1.269 2.656-2.464 3.552-1.173.896-2.709 1.344-4.608 1.344Zm0-14.464c-1.13 0-2.09.33-2.88.992-.789.661-1.322 1.653-1.6 2.976h8.64c-.064-1.195-.448-2.155-1.152-2.88-.704-.726-1.706-1.088-3.008-1.088Zm13.62 13.952v-16.32h3.232v2.752h.192c.469-1.024 1.152-1.824 2.048-2.4.917-.576 2.005-.864 3.264-.864.618 0 1.194.053 1.728.16.554.085 1.002.234 1.344.448v3.584a7.812 7.812 0 0 0-1.728-.672 7.681 7.681 0 0 0-2.048-.256c-1.451 0-2.582.501-3.392 1.504-.811.981-1.216 2.218-1.216 3.712v8.352h-3.424Zm24.755.512c-1.642 0-3.061-.363-4.256-1.088-1.173-.726-2.09-1.739-2.752-3.04-.64-1.302-.96-2.806-.96-4.512 0-1.728.331-3.243.992-4.544.683-1.323 1.622-2.347 2.816-3.072 1.216-.726 2.603-1.088 4.16-1.088 2.454 0 4.32.704 5.6 2.112 1.28 1.386 1.92 3.274 1.92 5.664 0 .576-.032 1.12-.096 1.632h-12.064c.107 1.578.587 2.784 1.44 3.616.875.832 1.984 1.248 3.328 1.248 1.088 0 1.952-.246 2.592-.736a4.3 4.3 0 0 0 1.376-1.888l2.976.8c-.448 1.472-1.269 2.656-2.464 3.552-1.173.896-2.709 1.344-4.608 1.344Zm0-14.464c-1.13 0-2.09.33-2.88.992-.789.661-1.322 1.653-1.6 2.976h8.64c-.064-1.195-.448-2.155-1.152-2.88-.704-.726-1.706-1.088-3.008-1.088Zm22.42 19.04c-1.238-1.024-2.432-2.262-3.584-3.712-1.131-1.43-2.059-3.104-2.784-5.024-.726-1.942-1.088-4.16-1.088-6.656 0-2.496.362-4.704 1.088-6.624.725-1.942 1.653-3.627 2.784-5.056 1.152-1.451 2.346-2.688 3.584-3.712l2.24 2.656a19.621 19.621 0 0 0-3.2 3.328 15.43 15.43 0 0 0-2.24 4.192c-.534 1.557-.8 3.296-.8 5.216 0 1.92.266 3.658.8 5.216a15.459 15.459 0 0 0 2.24 4.192 19.696 19.696 0 0 0 3.2 3.328l-2.24 2.656Zm14.195-18.464v-9.536h3.104v9.536h-3.104Zm20.98 13.888c-1.558 0-2.934-.352-4.128-1.056-1.195-.726-2.123-1.739-2.784-3.04-.662-1.302-.992-2.827-.992-4.576 0-1.75.341-3.275 1.024-4.576.682-1.302 1.621-2.304 2.816-3.008 1.216-.726 2.613-1.088 4.192-1.088 1.962 0 3.594.48 4.896 1.44 1.322.96 2.133 2.304 2.432 4.032l-3.328.544a3.473 3.473 0 0 0-1.408-2.08c-.704-.534-1.59-.8-2.656-.8-1.28 0-2.368.48-3.264 1.44-.875.96-1.312 2.325-1.312 4.096 0 1.77.437 3.136 1.312 4.096.874.938 1.962 1.408 3.264 1.408 1.088 0 1.962-.256 2.624-.768.661-.534 1.152-1.291 1.472-2.272l3.2.768c-.384 1.6-1.195 2.912-2.432 3.936-1.238 1.002-2.88 1.504-4.928 1.504Zm18.931 0c-1.664 0-3.114-.363-4.352-1.088a7.542 7.542 0 0 1-2.816-3.072c-.661-1.323-.992-2.827-.992-4.512 0-1.707.331-3.211.992-4.512.662-1.302 1.6-2.315 2.816-3.04 1.238-.747 2.688-1.12 4.352-1.12 1.664 0 3.104.373 4.32 1.12a7.245 7.245 0 0 1 2.848 3.04c.662 1.301.992 2.805.992 4.512 0 1.706-.33 3.21-.992 4.512a7.464 7.464 0 0 1-2.848 3.072c-1.216.725-2.656 1.088-4.32 1.088Zm0-3.168c1.387 0 2.528-.47 3.424-1.408.896-.96 1.344-2.326 1.344-4.096 0-1.771-.448-3.126-1.344-4.064-.896-.96-2.037-1.44-3.424-1.44-1.386 0-2.528.48-3.424 1.44-.896.938-1.344 2.293-1.344 4.064 0 1.77.448 3.136 1.344 4.096.896.938 2.038 1.408 3.424 1.408Zm19.252 3.168c-2.134 0-3.776-.47-4.928-1.408-1.152-.939-1.899-2.176-2.24-3.712l3.296-.608a3.56 3.56 0 0 0 1.216 1.952c.64.49 1.525.736 2.656.736.96 0 1.77-.171 2.432-.512.682-.363 1.024-.886 1.024-1.568 0-.662-.288-1.174-.864-1.536-.555-.363-1.376-.651-2.464-.864l-1.984-.352c-1.366-.235-2.486-.736-3.36-1.504-.875-.768-1.312-1.824-1.312-3.168 0-.939.277-1.76.832-2.464.554-.726 1.301-1.291 2.24-1.696.96-.427 2.048-.64 3.264-.64 1.792 0 3.253.362 4.384 1.088 1.152.725 1.877 1.866 2.176 3.424l-3.04.544c-.256-.811-.694-1.376-1.312-1.696-.619-.342-1.344-.512-2.176-.512-.854 0-1.579.181-2.176.544-.598.341-.896.778-.896 1.312 0 .576.234 1.034.704 1.376.49.32 1.194.565 2.112.736l2.368.416c1.6.277 2.816.789 3.648 1.536.832.725 1.248 1.845 1.248 3.36 0 1.045-.299 1.962-.896 2.752-.598.789-1.419 1.397-2.464 1.824-1.046.426-2.208.64-3.488.64Zm22.067-.032c-1.685 0-3.04-.491-4.064-1.472-1.024-1.003-1.536-2.432-1.536-4.288v-8.064h-3.744v-2.976h3.744v-4.48h3.424v4.48h5.984v2.976h-5.984v7.744c0 .917.235 1.632.704 2.144.47.49 1.174.736 2.112.736.811 0 1.6-.214 2.368-.64l.992 2.88a6.7 6.7 0 0 1-1.728.704c-.576.17-1.333.256-2.272.256Zm14.708-13.856v-9.536h3.104v9.536h-3.104Zm18.195 17.504 1.664-8.832h4.576l-3.168 8.832h-3.072Zm39.367-17.504v-9.536h3.104v9.536h-3.104Zm27.124 10.752-12.8-7.52v-2.624l12.8-7.52v3.456l-9.12 5.28v.192l9.12 5.28v3.456Zm11.251-10.752v-9.536h3.104v9.536h-3.104Zm18.196 17.504 1.664-8.832h4.576l-3.168 8.832h-3.072Zm34.023-4.128v-3.328c1.92-1.451 3.562-2.763 4.928-3.936 1.386-1.174 2.517-2.272 3.387-3.296.84-.96 1.46-1.91 1.86-2.848.41-.939.61-1.931.61-2.976 0-1.259-.34-2.208-1.03-2.848-.68-.64-1.62-.96-2.811-.96-1.131 0-2.048.341-2.752 1.024-.683.661-1.088 1.568-1.216 2.72l-3.264-.32c.085-1.216.416-2.326.992-3.328a6.567 6.567 0 0 1 2.464-2.432c1.066-.598 2.336-.896 3.808-.896 2.279 0 4.059.597 5.339 1.792 1.31 1.173 1.96 2.816 1.96 4.928 0 1.536-.32 2.965-.96 4.288a17.061 17.061 0 0 1-2.44 3.776c-.85.981-1.81 1.93-2.88 2.848a41.572 41.572 0 0 1-3.355 2.592l.064.096h10.081v3.104h-14.785Zm26.065.192c-.72 0-1.35-.256-1.89-.768a2.634 2.634 0 0 1-.8-1.92c0-.726.27-1.355.8-1.888.54-.534 1.17-.8 1.89-.8.73 0 1.36.266 1.89.8.53.533.8 1.162.8 1.888 0 .746-.27 1.386-.8 1.92-.53.512-1.16.768-1.89.768Zm12.31-.192v-3.328c1.92-1.451 3.56-2.763 4.93-3.936 1.38-1.174 2.52-2.272 3.39-3.296.83-.96 1.45-1.91 1.86-2.848.4-.939.6-1.931.6-2.976 0-1.259-.34-2.208-1.02-2.848-.68-.64-1.62-.96-2.82-.96-1.13 0-2.04.341-2.75 1.024-.68.661-1.09 1.568-1.21 2.72l-3.27-.32c.09-1.216.42-2.326.99-3.328a6.576 6.576 0 0 1 2.47-2.432c1.06-.598 2.33-.896 3.81-.896 2.28 0 4.06.597 5.34 1.792 1.3 1.173 1.95 2.816 1.95 4.928 0 1.536-.32 2.965-.96 4.288a17.378 17.378 0 0 1-2.43 3.776c-.85.981-1.81 1.93-2.88 2.848-1.05.896-2.17 1.76-3.36 2.592l.06.096h10.08v3.104h-14.78Zm26.07.512c-1.82 0-3.36-.502-4.64-1.504-1.26-1.003-2.22-2.4-2.88-4.192-.64-1.814-.96-3.904-.96-6.272 0-2.368.32-4.448.96-6.24.66-1.792 1.62-3.19 2.88-4.192 1.28-1.024 2.82-1.536 4.64-1.536 1.81 0 3.35.512 4.61 1.536 1.28 1.002 2.24 2.4 2.88 4.192.66 1.792.99 3.872.99 6.24 0 2.368-.33 4.458-.99 6.272-.64 1.792-1.6 3.189-2.88 4.192-1.26 1.002-2.8 1.504-4.61 1.504Zm-5.03-11.968c0 1.792.18 3.317.55 4.576l7.39-12.128c-.79-.79-1.76-1.184-2.91-1.184-1.65 0-2.89.768-3.75 2.304-.85 1.514-1.28 3.658-1.28 6.432Zm5.03 8.736c1.62 0 2.86-.758 3.71-2.272.87-1.536 1.31-3.691 1.31-6.464 0-1.75-.17-3.264-.51-4.544l-7.42 12.128c.78.768 1.76 1.152 2.91 1.152Zm15.73 7.808-2.24-2.656a19.972 19.972 0 0 0 3.2-3.328c.94-1.238 1.67-2.635 2.21-4.192.55-1.558.83-3.296.83-5.216 0-1.92-.28-3.659-.83-5.216-.54-1.558-1.27-2.955-2.21-4.192a19.895 19.895 0 0 0-3.2-3.328l2.24-2.656c1.24 1.024 2.42 2.261 3.55 3.712 1.15 1.429 2.09 3.114 2.82 5.056.72 1.92 1.08 4.128 1.08 6.624 0 2.496-.36 4.714-1.08 6.656-.73 1.92-1.67 3.594-2.82 5.024-1.13 1.45-2.31 2.688-3.55 3.712Z" fill="#BDBDBD"/><path fill="#F5F5F5" d="M1.992 166.921h503.273v810.388H1.992z"/><path fill="#F5F5F5" d="M1.992 168.921h575.574v821.07H1.992z"/><path stroke="#1F2023" stroke-width="3" d="M1.992 269.953h575.574M1.992 368.724h575.574M1.992 573.724h575.634M1.992 778.724h575.574"/><path fill="#9CC0FA" d="M1.941 166.921h575.625v101.448H1.941z"/><path d="M46.458 240.092c-1.6 0-3.018-.352-4.256-1.056-1.216-.725-2.176-1.739-2.88-3.04-.682-1.301-1.024-2.827-1.024-4.576 0-1.749.352-3.275 1.056-4.576.704-1.301 1.675-2.304 2.912-3.008 1.259-.725 2.71-1.088 4.352-1.088 1.942 0 3.595.469 4.96 1.408 1.387.917 2.251 2.315 2.592 4.192l-4.064.64c-.213-.811-.65-1.408-1.312-1.792-.64-.405-1.397-.608-2.272-.608-1.088 0-2.037.416-2.848 1.248-.81.811-1.216 2.005-1.216 3.584 0 1.557.395 2.752 1.184 3.584.811.811 1.771 1.216 2.88 1.216.96 0 1.728-.235 2.304-.704.598-.491 1.035-1.163 1.312-2.016l4 .928a7.647 7.647 0 0 1-2.528 4.064c-1.28 1.067-2.997 1.6-5.152 1.6Zm17.78 0a6.996 6.996 0 0 1-3.648-.992c-1.088-.661-1.963-1.632-2.624-2.912-.64-1.301-.96-2.891-.96-4.768 0-1.899.33-3.488.992-4.768.683-1.301 1.568-2.272 2.656-2.912a6.938 6.938 0 0 1 3.616-.992c1.216 0 2.23.224 3.04.672.81.448 1.418 1.024 1.824 1.728h.256v-1.888h3.904v16.32H69.39v-1.856h-.256c-.448.64-1.078 1.195-1.888 1.664-.81.469-1.813.704-3.008.704Zm1.024-3.904c1.173 0 2.154-.395 2.944-1.184.79-.789 1.184-1.984 1.184-3.584s-.395-2.795-1.184-3.584c-.79-.811-1.77-1.216-2.944-1.216-1.152 0-2.123.405-2.912 1.216-.79.789-1.184 1.984-1.184 3.584s.395 2.795 1.184 3.584c.79.789 1.76 1.184 2.912 1.184Zm22.067 3.904c-1.749 0-3.157-.544-4.224-1.632-1.045-1.109-1.568-2.667-1.568-4.672v-6.976h-3.616v-3.552h3.616v-4.48h4.16v4.48h5.888v3.552h-5.888v6.656c0 .875.214 1.547.64 2.016.427.469 1.035.704 1.824.704a4.17 4.17 0 0 0 1.184-.16c.384-.107.79-.288 1.216-.544l1.248 3.52c-.661.405-1.312.683-1.952.832-.618.171-1.461.256-2.528.256Zm16.596 0c-1.643 0-3.072-.352-4.288-1.056-1.195-.704-2.123-1.707-2.784-3.008-.661-1.301-.992-2.837-.992-4.608 0-1.771.352-3.307 1.056-4.608.704-1.301 1.664-2.304 2.88-3.008 1.216-.704 2.602-1.056 4.16-1.056 2.602 0 4.522.704 5.76 2.112 1.258 1.408 1.888 3.317 1.888 5.728 0 .277-.011.576-.032.896 0 .32-.022.619-.064.896H99.861c.149 1.323.608 2.325 1.376 3.008.789.683 1.738 1.024 2.848 1.024.917 0 1.664-.224 2.24-.672a3.952 3.952 0 0 0 1.28-1.696l3.616.992c-.512 1.536-1.376 2.763-2.592 3.68-1.195.917-2.763 1.376-4.704 1.376Zm.064-13.984c-.939 0-1.76.277-2.464.832-.683.555-1.163 1.387-1.44 2.496h7.552c-.086-1.003-.438-1.803-1.056-2.4-.619-.619-1.483-.928-2.592-.928Zm18.771 20.896c-2.261 0-4.021-.512-5.28-1.536-1.258-1.024-2.058-2.357-2.4-4l4.16-.832c.235.789.63 1.429 1.184 1.92.576.512 1.355.768 2.336.768 1.195 0 2.155-.427 2.88-1.28.747-.832 1.12-2.016 1.12-3.552v-1.152h-.256c-.576.725-1.237 1.259-1.984 1.6-.725.341-1.653.512-2.784.512a6.444 6.444 0 0 1-3.456-.992c-1.045-.683-1.888-1.643-2.528-2.88-.64-1.259-.96-2.752-.96-4.48 0-1.728.32-3.211.96-4.448.662-1.259 1.515-2.219 2.56-2.88 1.067-.683 2.208-1.024 3.424-1.024 2.176 0 3.766.715 4.768 2.144h.256v-1.632h3.968v15.104c0 2.645-.714 4.747-2.144 6.304-1.408 1.557-3.349 2.336-5.824 2.336Zm.096-11.36c1.067 0 1.984-.384 2.752-1.152.768-.789 1.152-1.92 1.152-3.392 0-1.493-.384-2.624-1.152-3.392-.768-.768-1.685-1.152-2.752-1.152-1.045 0-1.962.384-2.752 1.152-.768.768-1.152 1.899-1.152 3.392 0 1.493.384 2.624 1.152 3.392.768.768 1.686 1.152 2.752 1.152Zm19.252 4.448c-1.707 0-3.19-.363-4.448-1.088a7.68 7.68 0 0 1-2.88-3.072c-.683-1.323-1.024-2.827-1.024-4.512 0-1.707.341-3.211 1.024-4.512.682-1.301 1.642-2.315 2.88-3.04 1.258-.747 2.741-1.12 4.448-1.12 1.706 0 3.178.373 4.416 1.12a7.412 7.412 0 0 1 2.912 3.04c.682 1.301 1.024 2.805 1.024 4.512 0 1.685-.342 3.189-1.024 4.512a7.63 7.63 0 0 1-2.912 3.072c-1.238.725-2.71 1.088-4.416 1.088Zm0-3.904c1.237 0 2.24-.405 3.008-1.216.789-.811 1.184-1.995 1.184-3.552 0-1.579-.395-2.763-1.184-3.552-.768-.811-1.771-1.216-3.008-1.216-1.238 0-2.251.405-3.04 1.216-.768.789-1.152 1.973-1.152 3.552 0 1.557.384 2.741 1.152 3.552.789.811 1.802 1.216 3.04 1.216Zm13.683 3.392v-16.32h3.904v2.624h.256c.534-1.024 1.216-1.803 2.048-2.336.832-.533 1.867-.8 3.104-.8 1.152 0 2.112.192 2.88.576v4.288a7.58 7.58 0 0 0-1.76-.704 6.655 6.655 0 0 0-1.984-.288c-1.258 0-2.293.405-3.104 1.216-.789.811-1.184 1.963-1.184 3.456v8.288h-4.16Zm18.964 7.168a7.801 7.801 0 0 1-1.6-.16 6.63 6.63 0 0 1-1.28-.384v-4.032c.277.149.672.309 1.184.48a4.782 4.782 0 0 0 1.632.288c.682 0 1.248-.181 1.696-.544.469-.363.906-1.003 1.312-1.92l.704-1.536-6.56-15.68h4.64l4 10.272h.224l4.064-10.272h4.608l-8.064 18.912c-.427 1.003-.907 1.845-1.44 2.528a4.956 4.956 0 0 1-2.016 1.536c-.811.341-1.846.512-3.104.512Zm18.387-.256v-3.712h13.056v3.712h-13.056Zm26.004-6.4c-1.6 0-3.019-.352-4.256-1.056-1.216-.725-2.176-1.739-2.88-3.04-.683-1.301-1.024-2.827-1.024-4.576 0-1.749.352-3.275 1.056-4.576.704-1.301 1.674-2.304 2.912-3.008 1.258-.725 2.709-1.088 4.352-1.088 1.941 0 3.594.469 4.96 1.408 1.386.917 2.25 2.315 2.592 4.192l-4.064.64c-.214-.811-.651-1.408-1.312-1.792-.64-.405-1.398-.608-2.272-.608-1.088 0-2.038.416-2.848 1.248-.811.811-1.216 2.005-1.216 3.584 0 1.557.394 2.752 1.184 3.584.81.811 1.77 1.216 2.88 1.216.96 0 1.728-.235 2.304-.704.597-.491 1.034-1.163 1.312-2.016l4 .928a7.651 7.651 0 0 1-2.528 4.064c-1.28 1.067-2.998 1.6-5.152 1.6Zm18.899 0c-1.706 0-3.189-.363-4.448-1.088a7.695 7.695 0 0 1-2.88-3.072c-.682-1.323-1.024-2.827-1.024-4.512 0-1.707.342-3.211 1.024-4.512.683-1.301 1.643-2.315 2.88-3.04 1.259-.747 2.742-1.12 4.448-1.12 1.707 0 3.179.373 4.416 1.12a7.4 7.4 0 0 1 2.912 3.04c.683 1.301 1.024 2.805 1.024 4.512 0 1.685-.341 3.189-1.024 4.512a7.616 7.616 0 0 1-2.912 3.072c-1.237.725-2.709 1.088-4.416 1.088Zm0-3.904c1.238 0 2.24-.405 3.008-1.216.79-.811 1.184-1.995 1.184-3.552 0-1.579-.394-2.763-1.184-3.552-.768-.811-1.77-1.216-3.008-1.216-1.237 0-2.25.405-3.04 1.216-.768.789-1.152 1.973-1.152 3.552 0 1.557.384 2.741 1.152 3.552.79.811 1.803 1.216 3.04 1.216Zm19.188 3.904c-2.283 0-4.022-.491-5.216-1.472-1.174-1.003-1.888-2.272-2.144-3.808l3.968-.672c.17.661.512 1.205 1.024 1.632.512.427 1.301.64 2.368.64.874 0 1.578-.139 2.112-.416.554-.277.832-.693.832-1.248 0-.533-.278-.96-.832-1.28-.534-.32-1.302-.565-2.304-.736l-1.856-.32c-1.302-.235-2.39-.736-3.264-1.504-.875-.789-1.312-1.856-1.312-3.2 0-.981.277-1.835.832-2.56.554-.747 1.312-1.333 2.272-1.76.981-.427 2.09-.64 3.328-.64 2.026 0 3.594.405 4.704 1.216 1.13.789 1.834 1.931 2.112 3.424l-3.648.576c-.235-.683-.63-1.163-1.184-1.44-.534-.299-1.174-.448-1.92-.448-.79 0-1.419.149-1.888.448-.47.299-.704.651-.704 1.056 0 .427.181.779.544 1.056.384.277 1.002.501 1.856.672l2.304.416c1.685.299 2.954.811 3.808 1.536.874.725 1.312 1.867 1.312 3.424 0 1.109-.31 2.069-.928 2.88-.598.811-1.43 1.44-2.496 1.888-1.067.427-2.294.64-3.68.64Zm21.971 0c-1.749 0-3.157-.544-4.224-1.632-1.045-1.109-1.568-2.667-1.568-4.672v-6.976h-3.616v-3.552h3.616v-4.48h4.16v4.48h5.888v3.552h-5.888v6.656c0 .875.214 1.547.64 2.016.427.469 1.035.704 1.824.704.427 0 .822-.053 1.184-.16.384-.107.79-.288 1.216-.544l1.248 3.52c-.661.405-1.312.683-1.952.832-.618.171-1.461.256-2.528.256ZM365.27 239.58v-3.84h5.28v-15.232h-4.96v-3.84h14.208v3.84h-4.96v15.232h5.28v3.84H365.27Zm18.291 0v-22.912h6.4c2.24 0 4.139.459 5.696 1.376 1.558.917 2.742 2.229 3.552 3.936.832 1.707 1.248 3.755 1.248 6.144 0 2.368-.416 4.416-1.248 6.144-.81 1.707-1.994 3.019-3.552 3.936-1.557.917-3.456 1.376-5.696 1.376h-6.4Zm4.288-4.096h1.984c1.942 0 3.478-.608 4.608-1.824 1.131-1.237 1.696-3.083 1.696-5.536 0-2.453-.565-4.288-1.696-5.504-1.13-1.237-2.666-1.856-4.608-1.856h-1.984v14.72Z" fill="#000"/><path stroke="#1F2023" stroke-width="3" d="M1.992 472.724h575.574"/><path fill="#E9E9E9" d="M2.875 369.846h574.689v101.091H2.875z"/><path stroke="#1F2023" stroke-width="3" d="M1.992 677.724h575.574"/><path fill="#E9E9E9" d="M2.875 574.846h574.689v101.091H2.875z"/><path stroke="#1F2023" stroke-width="3" d="M1.992 883.724h575.574"/><path fill="#E9E9E9" d="M2.875 780.846h574.689v101.091H2.875z"/><path stroke="#000" d="m296.492 268.683.001-.316"/><path stroke="#1F2023" stroke-width="3" d="M326.332 163.577V986.74M579.066 166.921v823.163"/><path opacity=".8" d="M46.97 331.649v-12.768h-4.32v-3.552h4.32v-.512c0-2.218.618-3.946 1.855-5.184 1.26-1.237 2.955-1.856 5.088-1.856.94 0 1.782.107 2.528.32.747.192 1.376.459 1.888.8l-1.472 3.552c-.725-.533-1.642-.8-2.752-.8-.938 0-1.674.288-2.208.864-.512.555-.768 1.27-.768 2.144v.672h5.568v3.552H51.13v12.768h-4.16Zm22.259.512c-1.707 0-3.19-.362-4.448-1.088a7.678 7.678 0 0 1-2.88-3.072c-.683-1.322-1.024-2.826-1.024-4.512 0-1.706.341-3.21 1.024-4.512.683-1.301 1.643-2.314 2.88-3.04 1.259-.746 2.741-1.12 4.448-1.12 1.707 0 3.179.374 4.416 1.12a7.412 7.412 0 0 1 2.912 3.04c.683 1.302 1.024 2.806 1.024 4.512 0 1.686-.341 3.19-1.024 4.512a7.61 7.61 0 0 1-2.912 3.072c-1.237.726-2.71 1.088-4.416 1.088Zm0-3.904c1.237 0 2.24-.405 3.008-1.216.79-.81 1.184-1.994 1.184-3.552 0-1.578-.395-2.762-1.184-3.552-.768-.81-1.77-1.216-3.008-1.216-1.237 0-2.25.406-3.04 1.216-.768.79-1.152 1.974-1.152 3.552 0 1.558.384 2.742 1.152 3.552.79.811 1.803 1.216 3.04 1.216Zm19.187 3.904c-1.706 0-3.189-.362-4.448-1.088a7.678 7.678 0 0 1-2.88-3.072c-.682-1.322-1.024-2.826-1.024-4.512 0-1.706.342-3.21 1.024-4.512.683-1.301 1.643-2.314 2.88-3.04 1.26-.746 2.742-1.12 4.448-1.12 1.707 0 3.18.374 4.416 1.12a7.412 7.412 0 0 1 2.912 3.04c.683 1.302 1.024 2.806 1.024 4.512 0 1.686-.34 3.19-1.024 4.512a7.61 7.61 0 0 1-2.912 3.072c-1.237.726-2.709 1.088-4.416 1.088Zm0-3.904c1.238 0 2.24-.405 3.008-1.216.79-.81 1.184-1.994 1.184-3.552 0-1.578-.394-2.762-1.184-3.552-.768-.81-1.77-1.216-3.008-1.216-1.237 0-2.25.406-3.04 1.216-.768.79-1.152 1.974-1.152 3.552 0 1.558.384 2.742 1.152 3.552.79.811 1.803 1.216 3.04 1.216Zm18.068 3.904a6.985 6.985 0 0 1-3.648-.992c-1.088-.661-1.963-1.632-2.624-2.912-.64-1.301-.96-2.89-.96-4.768 0-1.898.33-3.488.992-4.768.683-1.301 1.568-2.272 2.656-2.912a6.938 6.938 0 0 1 3.616-.992c1.216 0 2.229.224 3.04.672.811.448 1.419 1.024 1.824 1.728h.256l-.256-2.432v-6.048h4.16v22.912h-3.904v-1.856h-.256c-.448.64-1.077 1.195-1.888 1.664-.811.47-1.813.704-3.008.704Zm1.024-3.904c1.173 0 2.155-.394 2.944-1.184.789-.789 1.184-1.984 1.184-3.584s-.395-2.794-1.184-3.584c-.789-.81-1.771-1.216-2.944-1.216-1.152 0-2.123.406-2.912 1.216-.789.79-1.184 1.984-1.184 3.584s.395 2.795 1.184 3.584c.789.79 1.76 1.184 2.912 1.184Zm12.755 10.304v-3.712h13.056v3.712h-13.056Zm18.356-6.912v-3.84h5.504v-13.76l-5.088 3.776v-4.608l6.112-4.48h3.168v19.072h5.152v3.84h-14.848Zm26.547.192a2.981 2.981 0 0 1-2.144-.864 2.98 2.98 0 0 1-.864-2.144c0-.832.288-1.536.864-2.112.598-.597 1.312-.896 2.144-.896.832 0 1.536.299 2.112.896a2.82 2.82 0 0 1 .896 2.112c0 .832-.298 1.547-.896 2.144-.576.576-1.28.864-2.112.864Zm19.188.32c-1.877 0-3.467-.501-4.768-1.504-1.301-1.002-2.293-2.4-2.976-4.192-.661-1.813-.992-3.904-.992-6.272 0-2.368.331-4.448.992-6.24.683-1.792 1.675-3.189 2.976-4.192 1.301-1.024 2.891-1.536 4.768-1.536 1.899 0 3.488.512 4.768 1.536 1.301 1.003 2.283 2.4 2.944 4.192.683 1.792 1.024 3.872 1.024 6.24 0 2.368-.341 4.459-1.024 6.272-.661 1.792-1.643 3.19-2.944 4.192-1.28 1.003-2.869 1.504-4.768 1.504Zm-4.544-11.968c0 1.408.117 2.646.352 3.712l6.592-10.912c-.683-.576-1.493-.864-2.432-.864-1.451 0-2.571.683-3.36 2.048-.768 1.366-1.152 3.371-1.152 6.016Zm4.512 8.064c1.451 0 2.571-.682 3.36-2.048.811-1.365 1.216-3.37 1.216-6.016 0-1.386-.117-2.602-.352-3.648l-6.56 10.88c.64.555 1.419.832 2.336.832Zm19.443 3.904c-1.344 0-2.592-.245-3.744-.736a6.729 6.729 0 0 1-2.848-2.272c-.725-1.024-1.162-2.314-1.312-3.872l4.192-.544c.107 1.024.47 1.878 1.088 2.56.64.662 1.515.992 2.624.992 1.152 0 2.059-.352 2.72-1.056.683-.704 1.024-1.674 1.024-2.912 0-1.237-.33-2.208-.992-2.912-.64-.704-1.546-1.056-2.72-1.056-.661 0-1.269.15-1.824.448a3.98 3.98 0 0 0-1.344 1.056l-4.064-1.76 1.376-11.36h12.672v3.648h-9.312l-.832 5.376.256.096c.427-.362.971-.661 1.632-.896a6.291 6.291 0 0 1 2.112-.352c1.408 0 2.656.31 3.744.928 1.088.598 1.942 1.472 2.56 2.624.619 1.152.928 2.539.928 4.16 0 1.579-.341 2.966-1.024 4.16a6.829 6.829 0 0 1-2.784 2.72c-1.194.64-2.57.96-4.128.96ZM46.97 434.149v-12.768h-4.32v-3.552h4.32v-.512c0-2.218.618-3.946 1.855-5.184 1.26-1.237 2.955-1.856 5.088-1.856.94 0 1.782.107 2.528.32.747.192 1.376.459 1.888.8l-1.472 3.552c-.725-.533-1.642-.8-2.752-.8-.938 0-1.674.288-2.208.864-.512.555-.768 1.27-.768 2.144v.672h5.568v3.552H51.13v12.768h-4.16Zm22.259.512c-1.707 0-3.19-.362-4.448-1.088a7.678 7.678 0 0 1-2.88-3.072c-.683-1.322-1.024-2.826-1.024-4.512 0-1.706.341-3.21 1.024-4.512.683-1.301 1.643-2.314 2.88-3.04 1.259-.746 2.741-1.12 4.448-1.12 1.707 0 3.179.374 4.416 1.12a7.412 7.412 0 0 1 2.912 3.04c.683 1.302 1.024 2.806 1.024 4.512 0 1.686-.341 3.19-1.024 4.512a7.61 7.61 0 0 1-2.912 3.072c-1.237.726-2.71 1.088-4.416 1.088Zm0-3.904c1.237 0 2.24-.405 3.008-1.216.79-.81 1.184-1.994 1.184-3.552 0-1.578-.395-2.762-1.184-3.552-.768-.81-1.77-1.216-3.008-1.216-1.237 0-2.25.406-3.04 1.216-.768.79-1.152 1.974-1.152 3.552 0 1.558.384 2.742 1.152 3.552.79.811 1.803 1.216 3.04 1.216Zm19.187 3.904c-1.706 0-3.189-.362-4.448-1.088a7.678 7.678 0 0 1-2.88-3.072c-.682-1.322-1.024-2.826-1.024-4.512 0-1.706.342-3.21 1.024-4.512.683-1.301 1.643-2.314 2.88-3.04 1.26-.746 2.742-1.12 4.448-1.12 1.707 0 3.18.374 4.416 1.12a7.412 7.412 0 0 1 2.912 3.04c.683 1.302 1.024 2.806 1.024 4.512 0 1.686-.34 3.19-1.024 4.512a7.61 7.61 0 0 1-2.912 3.072c-1.237.726-2.709 1.088-4.416 1.088Zm0-3.904c1.238 0 2.24-.405 3.008-1.216.79-.81 1.184-1.994 1.184-3.552 0-1.578-.394-2.762-1.184-3.552-.768-.81-1.77-1.216-3.008-1.216-1.237 0-2.25.406-3.04 1.216-.768.79-1.152 1.974-1.152 3.552 0 1.558.384 2.742 1.152 3.552.79.811 1.803 1.216 3.04 1.216Zm18.068 3.904a6.985 6.985 0 0 1-3.648-.992c-1.088-.661-1.963-1.632-2.624-2.912-.64-1.301-.96-2.89-.96-4.768 0-1.898.33-3.488.992-4.768.683-1.301 1.568-2.272 2.656-2.912a6.938 6.938 0 0 1 3.616-.992c1.216 0 2.229.224 3.04.672.811.448 1.419 1.024 1.824 1.728h.256l-.256-2.432v-6.048h4.16v22.912h-3.904v-1.856h-.256c-.448.64-1.077 1.195-1.888 1.664-.811.47-1.813.704-3.008.704Zm1.024-3.904c1.173 0 2.155-.394 2.944-1.184.789-.789 1.184-1.984 1.184-3.584s-.395-2.794-1.184-3.584c-.789-.81-1.771-1.216-2.944-1.216-1.152 0-2.123.406-2.912 1.216-.789.79-1.184 1.984-1.184 3.584s.395 2.795 1.184 3.584c.789.79 1.76 1.184 2.912 1.184Zm12.755 10.304v-3.712h13.056v3.712h-13.056Zm18.356-6.912v-3.84h5.504v-13.76l-5.088 3.776v-4.608l6.112-4.48h3.168v19.072h5.152v3.84h-14.848Zm26.547.192a2.981 2.981 0 0 1-2.144-.864 2.98 2.98 0 0 1-.864-2.144c0-.832.288-1.536.864-2.112.598-.597 1.312-.896 2.144-.896.832 0 1.536.299 2.112.896a2.82 2.82 0 0 1 .896 2.112c0 .832-.298 1.547-.896 2.144-.576.576-1.28.864-2.112.864Zm11.828-.192v-3.84h5.504v-13.76l-5.088 3.776v-4.608l6.112-4.48h3.168v19.072h5.152v3.84h-14.848Zm19.507 0v-3.84c2.091-1.6 3.808-2.976 5.152-4.128 1.344-1.152 2.39-2.208 3.136-3.168.704-.896 1.216-1.749 1.536-2.56a6.915 6.915 0 0 0 .512-2.656c0-1.002-.309-1.781-.928-2.336-.618-.554-1.429-.832-2.432-.832-.917 0-1.696.278-2.336.832-.618.555-1.013 1.366-1.184 2.432l-3.936-.352c.128-1.301.502-2.464 1.12-3.488a6.938 6.938 0 0 1 2.592-2.432c1.088-.597 2.358-.896 3.808-.896 2.326 0 4.16.608 5.504 1.824 1.344 1.216 2.016 2.902 2.016 5.056 0 1.451-.298 2.806-.896 4.064a17.415 17.415 0 0 1-2.176 3.552 20.894 20.894 0 0 1-2.624 2.72 49.02 49.02 0 0 1-3.072 2.4l.096.16h9.28v3.648h-15.168ZM46.97 537.149v-12.768h-4.32v-3.552h4.32v-.512c0-2.218.618-3.946 1.855-5.184 1.26-1.237 2.955-1.856 5.088-1.856.94 0 1.782.107 2.528.32.747.192 1.376.459 1.888.8l-1.472 3.552c-.725-.533-1.642-.8-2.752-.8-.938 0-1.674.288-2.208.864-.512.555-.768 1.27-.768 2.144v.672h5.568v3.552H51.13v12.768h-4.16Zm22.259.512c-1.707 0-3.19-.362-4.448-1.088a7.678 7.678 0 0 1-2.88-3.072c-.683-1.322-1.024-2.826-1.024-4.512 0-1.706.341-3.21 1.024-4.512.683-1.301 1.643-2.314 2.88-3.04 1.259-.746 2.741-1.12 4.448-1.12 1.707 0 3.179.374 4.416 1.12a7.412 7.412 0 0 1 2.912 3.04c.683 1.302 1.024 2.806 1.024 4.512 0 1.686-.341 3.19-1.024 4.512a7.61 7.61 0 0 1-2.912 3.072c-1.237.726-2.71 1.088-4.416 1.088Zm0-3.904c1.237 0 2.24-.405 3.008-1.216.79-.81 1.184-1.994 1.184-3.552 0-1.578-.395-2.762-1.184-3.552-.768-.81-1.77-1.216-3.008-1.216-1.237 0-2.25.406-3.04 1.216-.768.79-1.152 1.974-1.152 3.552 0 1.558.384 2.742 1.152 3.552.79.811 1.803 1.216 3.04 1.216Zm19.187 3.904c-1.706 0-3.189-.362-4.448-1.088a7.678 7.678 0 0 1-2.88-3.072c-.682-1.322-1.024-2.826-1.024-4.512 0-1.706.342-3.21 1.024-4.512.683-1.301 1.643-2.314 2.88-3.04 1.26-.746 2.742-1.12 4.448-1.12 1.707 0 3.18.374 4.416 1.12a7.412 7.412 0 0 1 2.912 3.04c.683 1.302 1.024 2.806 1.024 4.512 0 1.686-.34 3.19-1.024 4.512a7.61 7.61 0 0 1-2.912 3.072c-1.237.726-2.709 1.088-4.416 1.088Zm0-3.904c1.238 0 2.24-.405 3.008-1.216.79-.81 1.184-1.994 1.184-3.552 0-1.578-.394-2.762-1.184-3.552-.768-.81-1.77-1.216-3.008-1.216-1.237 0-2.25.406-3.04 1.216-.768.79-1.152 1.974-1.152 3.552 0 1.558.384 2.742 1.152 3.552.79.811 1.803 1.216 3.04 1.216Zm18.068 3.904a6.985 6.985 0 0 1-3.648-.992c-1.088-.661-1.963-1.632-2.624-2.912-.64-1.301-.96-2.89-.96-4.768 0-1.898.33-3.488.992-4.768.683-1.301 1.568-2.272 2.656-2.912a6.938 6.938 0 0 1 3.616-.992c1.216 0 2.229.224 3.04.672.811.448 1.419 1.024 1.824 1.728h.256l-.256-2.432v-6.048h4.16v22.912h-3.904v-1.856h-.256c-.448.64-1.077 1.195-1.888 1.664-.811.47-1.813.704-3.008.704Zm1.024-3.904c1.173 0 2.155-.394 2.944-1.184.789-.789 1.184-1.984 1.184-3.584s-.395-2.794-1.184-3.584c-.789-.81-1.771-1.216-2.944-1.216-1.152 0-2.123.406-2.912 1.216-.789.79-1.184 1.984-1.184 3.584s.395 2.795 1.184 3.584c.789.79 1.76 1.184 2.912 1.184Zm12.755 10.304v-3.712h13.056v3.712h-13.056Zm18.356-6.912v-3.84h5.504v-13.76l-5.088 3.776v-4.608l6.112-4.48h3.168v19.072h5.152v3.84h-14.848Zm26.547.192a2.981 2.981 0 0 1-2.144-.864 2.98 2.98 0 0 1-.864-2.144c0-.832.288-1.536.864-2.112.598-.597 1.312-.896 2.144-.896.832 0 1.536.299 2.112.896a2.82 2.82 0 0 1 .896 2.112c0 .832-.298 1.547-.896 2.144-.576.576-1.28.864-2.112.864Zm19.412.32c-1.344 0-2.592-.245-3.744-.736a6.729 6.729 0 0 1-2.848-2.272c-.725-1.024-1.163-2.314-1.312-3.872l4.192-.544c.107 1.024.469 1.878 1.088 2.56.64.662 1.515.992 2.624.992 1.152 0 2.059-.352 2.72-1.056.683-.704 1.024-1.674 1.024-2.912 0-1.237-.331-2.208-.992-2.912-.64-.704-1.547-1.056-2.72-1.056-.661 0-1.269.15-1.824.448-.555.278-1.003.63-1.344 1.056l-4.064-1.76 1.376-11.36h12.672v3.648h-9.312l-.832 5.376.256.096c.427-.362.971-.661 1.632-.896a6.283 6.283 0 0 1 2.112-.352c1.408 0 2.656.31 3.744.928 1.088.598 1.941 1.472 2.56 2.624.619 1.152.928 2.539.928 4.16 0 1.579-.341 2.966-1.024 4.16a6.829 6.829 0 0 1-2.784 2.72c-1.195.64-2.571.96-4.128.96Zm19.187 0c-1.344 0-2.592-.245-3.744-.736a6.729 6.729 0 0 1-2.848-2.272c-.725-1.024-1.162-2.314-1.312-3.872l4.192-.544c.107 1.024.47 1.878 1.088 2.56.64.662 1.515.992 2.624.992 1.152 0 2.059-.352 2.72-1.056.683-.704 1.024-1.674 1.024-2.912 0-1.237-.33-2.208-.992-2.912-.64-.704-1.546-1.056-2.72-1.056-.661 0-1.269.15-1.824.448a3.98 3.98 0 0 0-1.344 1.056l-4.064-1.76 1.376-11.36h12.672v3.648h-9.312l-.832 5.376.256.096c.427-.362.971-.661 1.632-.896a6.291 6.291 0 0 1 2.112-.352c1.408 0 2.656.31 3.744.928 1.088.598 1.942 1.472 2.56 2.624.619 1.152.928 2.539.928 4.16 0 1.579-.341 2.966-1.024 4.16a6.829 6.829 0 0 1-2.784 2.72c-1.194.64-2.57.96-4.128.96ZM46.97 639.149v-12.768h-4.32v-3.552h4.32v-.512c0-2.218.618-3.946 1.855-5.184 1.26-1.237 2.955-1.856 5.088-1.856.94 0 1.782.107 2.528.32.747.192 1.376.459 1.888.8l-1.472 3.552c-.725-.533-1.642-.8-2.752-.8-.938 0-1.674.288-2.208.864-.512.555-.768 1.27-.768 2.144v.672h5.568v3.552H51.13v12.768h-4.16Zm22.259.512c-1.707 0-3.19-.362-4.448-1.088a7.678 7.678 0 0 1-2.88-3.072c-.683-1.322-1.024-2.826-1.024-4.512 0-1.706.341-3.21 1.024-4.512.683-1.301 1.643-2.314 2.88-3.04 1.259-.746 2.741-1.12 4.448-1.12 1.707 0 3.179.374 4.416 1.12a7.412 7.412 0 0 1 2.912 3.04c.683 1.302 1.024 2.806 1.024 4.512 0 1.686-.341 3.19-1.024 4.512a7.61 7.61 0 0 1-2.912 3.072c-1.237.726-2.71 1.088-4.416 1.088Zm0-3.904c1.237 0 2.24-.405 3.008-1.216.79-.81 1.184-1.994 1.184-3.552 0-1.578-.395-2.762-1.184-3.552-.768-.81-1.77-1.216-3.008-1.216-1.237 0-2.25.406-3.04 1.216-.768.79-1.152 1.974-1.152 3.552 0 1.558.384 2.742 1.152 3.552.79.811 1.803 1.216 3.04 1.216Zm19.187 3.904c-1.706 0-3.189-.362-4.448-1.088a7.678 7.678 0 0 1-2.88-3.072c-.682-1.322-1.024-2.826-1.024-4.512 0-1.706.342-3.21 1.024-4.512.683-1.301 1.643-2.314 2.88-3.04 1.26-.746 2.742-1.12 4.448-1.12 1.707 0 3.18.374 4.416 1.12a7.412 7.412 0 0 1 2.912 3.04c.683 1.302 1.024 2.806 1.024 4.512 0 1.686-.34 3.19-1.024 4.512a7.61 7.61 0 0 1-2.912 3.072c-1.237.726-2.709 1.088-4.416 1.088Zm0-3.904c1.238 0 2.24-.405 3.008-1.216.79-.81 1.184-1.994 1.184-3.552 0-1.578-.394-2.762-1.184-3.552-.768-.81-1.77-1.216-3.008-1.216-1.237 0-2.25.406-3.04 1.216-.768.79-1.152 1.974-1.152 3.552 0 1.558.384 2.742 1.152 3.552.79.811 1.803 1.216 3.04 1.216Zm18.068 3.904a6.985 6.985 0 0 1-3.648-.992c-1.088-.661-1.963-1.632-2.624-2.912-.64-1.301-.96-2.89-.96-4.768 0-1.898.33-3.488.992-4.768.683-1.301 1.568-2.272 2.656-2.912a6.938 6.938 0 0 1 3.616-.992c1.216 0 2.229.224 3.04.672.811.448 1.419 1.024 1.824 1.728h.256l-.256-2.432v-6.048h4.16v22.912h-3.904v-1.856h-.256c-.448.64-1.077 1.195-1.888 1.664-.811.47-1.813.704-3.008.704Zm1.024-3.904c1.173 0 2.155-.394 2.944-1.184.789-.789 1.184-1.984 1.184-3.584s-.395-2.794-1.184-3.584c-.789-.81-1.771-1.216-2.944-1.216-1.152 0-2.123.406-2.912 1.216-.789.79-1.184 1.984-1.184 3.584s.395 2.795 1.184 3.584c.789.79 1.76 1.184 2.912 1.184Zm12.755 10.304v-3.712h13.056v3.712h-13.056Zm18.356-6.912v-3.84h5.504v-13.76l-5.088 3.776v-4.608l6.112-4.48h3.168v19.072h5.152v3.84h-14.848Zm26.547.192a2.981 2.981 0 0 1-2.144-.864 2.98 2.98 0 0 1-.864-2.144c0-.832.288-1.536.864-2.112.598-.597 1.312-.896 2.144-.896.832 0 1.536.299 2.112.896a2.82 2.82 0 0 1 .896 2.112c0 .832-.298 1.547-.896 2.144-.576.576-1.28.864-2.112.864Zm17.108.32-2.112-3.264a17.759 17.759 0 0 0 4.768-3.136 11.459 11.459 0 0 0 3.04-4.544l-.192-.16c-.405.598-1.024 1.067-1.856 1.408-.811.32-1.611.48-2.4.48-1.408 0-2.656-.298-3.744-.896a6.77 6.77 0 0 1-2.592-2.496c-.619-1.088-.928-2.357-.928-3.808 0-1.45.363-2.741 1.088-3.872a7.574 7.574 0 0 1 2.88-2.688 7.933 7.933 0 0 1 3.904-.992c1.323 0 2.517.235 3.584.704a6.918 6.918 0 0 1 2.688 1.984c.661.768 1.163 1.686 1.504 2.752.363 1.067.544 2.262.544 3.584 0 2.902-.725 5.558-2.176 7.968-.853 1.451-1.952 2.774-3.296 3.968-1.344 1.195-2.912 2.198-4.704 3.008Zm1.856-12.736c1.045 0 1.92-.32 2.624-.96.725-.661 1.088-1.568 1.088-2.72 0-1.152-.363-2.058-1.088-2.72-.704-.661-1.579-.992-2.624-.992-1.045 0-1.931.331-2.656.992-.704.662-1.056 1.568-1.056 2.72 0 1.152.352 2.059 1.056 2.72.725.64 1.611.96 2.656.96Zm19.635 12.736c-1.344 0-2.592-.245-3.744-.736a6.729 6.729 0 0 1-2.848-2.272c-.725-1.024-1.162-2.314-1.312-3.872l4.192-.544c.107 1.024.47 1.878 1.088 2.56.64.662 1.515.992 2.624.992 1.152 0 2.059-.352 2.72-1.056.683-.704 1.024-1.674 1.024-2.912 0-1.237-.33-2.208-.992-2.912-.64-.704-1.546-1.056-2.72-1.056-.661 0-1.269.15-1.824.448a3.98 3.98 0 0 0-1.344 1.056l-4.064-1.76 1.376-11.36h12.672v3.648h-9.312l-.832 5.376.256.096c.427-.362.971-.661 1.632-.896a6.291 6.291 0 0 1 2.112-.352c1.408 0 2.656.31 3.744.928 1.088.598 1.942 1.472 2.56 2.624.619 1.152.928 2.539.928 4.16 0 1.579-.341 2.966-1.024 4.16a6.829 6.829 0 0 1-2.784 2.72c-1.194.64-2.57.96-4.128.96ZM46.97 741.035v-12.768h-4.32v-3.552h4.32v-.512c0-2.219.618-3.947 1.855-5.184 1.26-1.238 2.955-1.856 5.088-1.856.94 0 1.782.106 2.528.32.747.192 1.376.458 1.888.8l-1.472 3.552c-.725-.534-1.642-.8-2.752-.8-.938 0-1.674.288-2.208.864-.512.554-.768 1.269-.768 2.144v.672h5.568v3.552H51.13v12.768h-4.16Zm22.259.512c-1.707 0-3.19-.363-4.448-1.088a7.69 7.69 0 0 1-2.88-3.072c-.683-1.323-1.024-2.827-1.024-4.512 0-1.707.341-3.211 1.024-4.512.683-1.302 1.643-2.315 2.88-3.04 1.259-.747 2.741-1.12 4.448-1.12 1.707 0 3.179.373 4.416 1.12a7.4 7.4 0 0 1 2.912 3.04c.683 1.301 1.024 2.805 1.024 4.512 0 1.685-.341 3.189-1.024 4.512a7.623 7.623 0 0 1-2.912 3.072c-1.237.725-2.71 1.088-4.416 1.088Zm0-3.904c1.237 0 2.24-.406 3.008-1.216.79-.811 1.184-1.995 1.184-3.552 0-1.579-.395-2.763-1.184-3.552-.768-.811-1.77-1.216-3.008-1.216-1.237 0-2.25.405-3.04 1.216-.768.789-1.152 1.973-1.152 3.552 0 1.557.384 2.741 1.152 3.552.79.81 1.803 1.216 3.04 1.216Zm19.187 3.904c-1.706 0-3.189-.363-4.448-1.088a7.69 7.69 0 0 1-2.88-3.072c-.682-1.323-1.024-2.827-1.024-4.512 0-1.707.342-3.211 1.024-4.512.683-1.302 1.643-2.315 2.88-3.04 1.26-.747 2.742-1.12 4.448-1.12 1.707 0 3.18.373 4.416 1.12a7.4 7.4 0 0 1 2.912 3.04c.683 1.301 1.024 2.805 1.024 4.512 0 1.685-.34 3.189-1.024 4.512a7.623 7.623 0 0 1-2.912 3.072c-1.237.725-2.709 1.088-4.416 1.088Zm0-3.904c1.238 0 2.24-.406 3.008-1.216.79-.811 1.184-1.995 1.184-3.552 0-1.579-.394-2.763-1.184-3.552-.768-.811-1.77-1.216-3.008-1.216-1.237 0-2.25.405-3.04 1.216-.768.789-1.152 1.973-1.152 3.552 0 1.557.384 2.741 1.152 3.552.79.81 1.803 1.216 3.04 1.216Zm18.068 3.904a6.994 6.994 0 0 1-3.648-.992c-1.088-.662-1.963-1.632-2.624-2.912-.64-1.302-.96-2.891-.96-4.768 0-1.899.33-3.488.992-4.768.683-1.302 1.568-2.272 2.656-2.912a6.929 6.929 0 0 1 3.616-.992c1.216 0 2.229.224 3.04.672.811.448 1.419 1.024 1.824 1.728h.256l-.256-2.432v-6.048h4.16v22.912h-3.904v-1.856h-.256c-.448.64-1.077 1.194-1.888 1.664-.811.469-1.813.704-3.008.704Zm1.024-3.904c1.173 0 2.155-.395 2.944-1.184.789-.79 1.184-1.984 1.184-3.584s-.395-2.795-1.184-3.584c-.789-.811-1.771-1.216-2.944-1.216-1.152 0-2.123.405-2.912 1.216-.789.789-1.184 1.984-1.184 3.584s.395 2.794 1.184 3.584c.789.789 1.76 1.184 2.912 1.184Zm12.755 10.304v-3.712h13.056v3.712h-13.056Zm18.676-6.912v-3.84c2.091-1.6 3.808-2.976 5.152-4.128 1.344-1.152 2.389-2.208 3.136-3.168.704-.896 1.216-1.75 1.536-2.56a6.938 6.938 0 0 0 .512-2.656c0-1.003-.309-1.782-.928-2.336-.619-.555-1.429-.832-2.432-.832-.917 0-1.696.277-2.336.832-.619.554-1.013 1.365-1.184 2.432l-3.936-.352c.128-1.302.501-2.464 1.12-3.488a6.93 6.93 0 0 1 2.592-2.432c1.088-.598 2.357-.896 3.808-.896 2.325 0 4.16.608 5.504 1.824 1.344 1.216 2.016 2.901 2.016 5.056 0 1.45-.299 2.805-.896 4.064a17.469 17.469 0 0 1-2.176 3.552 21.023 21.023 0 0 1-2.624 2.72 49.02 49.02 0 0 1-3.072 2.4l.096.16h9.28v3.648h-15.168Zm26.227.192a2.981 2.981 0 0 1-2.144-.864 2.981 2.981 0 0 1-.864-2.144c0-.832.288-1.536.864-2.112.598-.598 1.312-.896 2.144-.896a2.82 2.82 0 0 1 2.112.896 2.82 2.82 0 0 1 .896 2.112c0 .832-.298 1.546-.896 2.144-.576.576-1.28.864-2.112.864Zm12.148-.192v-3.84c2.091-1.6 3.808-2.976 5.152-4.128 1.344-1.152 2.389-2.208 3.136-3.168.704-.896 1.216-1.75 1.536-2.56a6.938 6.938 0 0 0 .512-2.656c0-1.003-.309-1.782-.928-2.336-.619-.555-1.429-.832-2.432-.832-.917 0-1.696.277-2.336.832-.619.554-1.013 1.365-1.184 2.432l-3.936-.352c.128-1.302.501-2.464 1.12-3.488a6.93 6.93 0 0 1 2.592-2.432c1.088-.598 2.357-.896 3.808-.896 2.325 0 4.16.608 5.504 1.824 1.344 1.216 2.016 2.901 2.016 5.056 0 1.45-.299 2.805-.896 4.064a17.469 17.469 0 0 1-2.176 3.552 21.023 21.023 0 0 1-2.624 2.72 49.02 49.02 0 0 1-3.072 2.4l.096.16h9.28v3.648h-15.168Zm18.867 0v-3.84h5.504v-13.76l-5.088 3.776v-4.608l6.112-4.48h3.168v19.072h5.152v3.84h-14.848ZM46.97 844.149v-12.768h-4.32v-3.552h4.32v-.512c0-2.218.618-3.946 1.855-5.184 1.26-1.237 2.955-1.856 5.088-1.856.94 0 1.782.107 2.528.32.747.192 1.376.459 1.888.8l-1.472 3.552c-.725-.533-1.642-.8-2.752-.8-.938 0-1.674.288-2.208.864-.512.555-.768 1.27-.768 2.144v.672h5.568v3.552H51.13v12.768h-4.16Zm22.259.512c-1.707 0-3.19-.362-4.448-1.088a7.678 7.678 0 0 1-2.88-3.072c-.683-1.322-1.024-2.826-1.024-4.512 0-1.706.341-3.21 1.024-4.512.683-1.301 1.643-2.314 2.88-3.04 1.259-.746 2.741-1.12 4.448-1.12 1.707 0 3.179.374 4.416 1.12a7.412 7.412 0 0 1 2.912 3.04c.683 1.302 1.024 2.806 1.024 4.512 0 1.686-.341 3.19-1.024 4.512a7.61 7.61 0 0 1-2.912 3.072c-1.237.726-2.71 1.088-4.416 1.088Zm0-3.904c1.237 0 2.24-.405 3.008-1.216.79-.81 1.184-1.994 1.184-3.552 0-1.578-.395-2.762-1.184-3.552-.768-.81-1.77-1.216-3.008-1.216-1.237 0-2.25.406-3.04 1.216-.768.79-1.152 1.974-1.152 3.552 0 1.558.384 2.742 1.152 3.552.79.811 1.803 1.216 3.04 1.216Zm19.187 3.904c-1.706 0-3.189-.362-4.448-1.088a7.678 7.678 0 0 1-2.88-3.072c-.682-1.322-1.024-2.826-1.024-4.512 0-1.706.342-3.21 1.024-4.512.683-1.301 1.643-2.314 2.88-3.04 1.26-.746 2.742-1.12 4.448-1.12 1.707 0 3.18.374 4.416 1.12a7.412 7.412 0 0 1 2.912 3.04c.683 1.302 1.024 2.806 1.024 4.512 0 1.686-.34 3.19-1.024 4.512a7.61 7.61 0 0 1-2.912 3.072c-1.237.726-2.709 1.088-4.416 1.088Zm0-3.904c1.238 0 2.24-.405 3.008-1.216.79-.81 1.184-1.994 1.184-3.552 0-1.578-.394-2.762-1.184-3.552-.768-.81-1.77-1.216-3.008-1.216-1.237 0-2.25.406-3.04 1.216-.768.79-1.152 1.974-1.152 3.552 0 1.558.384 2.742 1.152 3.552.79.811 1.803 1.216 3.04 1.216Zm18.068 3.904a6.985 6.985 0 0 1-3.648-.992c-1.088-.661-1.963-1.632-2.624-2.912-.64-1.301-.96-2.89-.96-4.768 0-1.898.33-3.488.992-4.768.683-1.301 1.568-2.272 2.656-2.912a6.938 6.938 0 0 1 3.616-.992c1.216 0 2.229.224 3.04.672.811.448 1.419 1.024 1.824 1.728h.256l-.256-2.432v-6.048h4.16v22.912h-3.904v-1.856h-.256c-.448.64-1.077 1.195-1.888 1.664-.811.47-1.813.704-3.008.704Zm1.024-3.904c1.173 0 2.155-.394 2.944-1.184.789-.789 1.184-1.984 1.184-3.584s-.395-2.794-1.184-3.584c-.789-.81-1.771-1.216-2.944-1.216-1.152 0-2.123.406-2.912 1.216-.789.79-1.184 1.984-1.184 3.584s.395 2.795 1.184 3.584c.789.79 1.76 1.184 2.912 1.184Zm12.755 10.304v-3.712h13.056v3.712h-13.056Zm18.676-6.912v-3.84c2.091-1.6 3.808-2.976 5.152-4.128 1.344-1.152 2.389-2.208 3.136-3.168.704-.896 1.216-1.749 1.536-2.56a6.934 6.934 0 0 0 .512-2.656c0-1.002-.309-1.781-.928-2.336-.619-.554-1.429-.832-2.432-.832-.917 0-1.696.278-2.336.832-.619.555-1.013 1.366-1.184 2.432l-3.936-.352c.128-1.301.501-2.464 1.12-3.488a6.938 6.938 0 0 1 2.592-2.432c1.088-.597 2.357-.896 3.808-.896 2.325 0 4.16.608 5.504 1.824 1.344 1.216 2.016 2.902 2.016 5.056a9.36 9.36 0 0 1-.896 4.064 17.415 17.415 0 0 1-2.176 3.552 20.96 20.96 0 0 1-2.624 2.72 49.02 49.02 0 0 1-3.072 2.4l.096.16h9.28v3.648h-15.168Zm26.227.192a2.981 2.981 0 0 1-2.144-.864 2.98 2.98 0 0 1-.864-2.144c0-.832.288-1.536.864-2.112.598-.597 1.312-.896 2.144-.896.832 0 1.536.299 2.112.896a2.82 2.82 0 0 1 .896 2.112c0 .832-.298 1.547-.896 2.144-.576.576-1.28.864-2.112.864Zm20.82-.192v-4.16h-10.272v-3.36l9.92-15.392h4.48v14.848h2.912v3.904h-2.912v4.16h-4.128Zm-5.728-8.064h5.728v-8.48h-.256l-5.472 8.48Zm23.571 8.576c-1.301 0-2.474-.234-3.52-.704a7.735 7.735 0 0 1-2.688-1.984c-.661-.768-1.173-1.685-1.536-2.752-.341-1.088-.512-2.282-.512-3.584 0-2.901.726-5.557 2.176-7.968a17.594 17.594 0 0 1 3.296-3.968c1.344-1.194 2.912-2.197 4.704-3.008l2.112 3.264a16.836 16.836 0 0 0-4.768 3.136 11.476 11.476 0 0 0-3.04 4.544l.192.16a4.45 4.45 0 0 1 1.824-1.408 5.95 5.95 0 0 1 2.368-.48c1.43 0 2.678.299 3.744.896a6.064 6.064 0 0 1 2.528 2.496c.619 1.067.928 2.336.928 3.808 0 1.451-.341 2.752-1.024 3.904a7.23 7.23 0 0 1-2.752 2.688c-1.173.64-2.517.96-4.032.96Zm0-3.84c1.024 0 1.888-.33 2.592-.992.704-.661 1.056-1.568 1.056-2.72 0-1.152-.352-2.048-1.056-2.688-.704-.661-1.568-.992-2.592-.992s-1.888.331-2.592.992c-.704.64-1.056 1.536-1.056 2.688 0 1.152.352 2.059 1.056 2.72.704.662 1.568.992 2.592.992ZM46.97 944.919v-12.768h-4.32v-3.552h4.32v-.512c0-2.218.618-3.946 1.855-5.184 1.26-1.237 2.955-1.856 5.088-1.856.94 0 1.782.107 2.528.32.747.192 1.376.459 1.888.8l-1.472 3.552c-.725-.533-1.642-.8-2.752-.8-.938 0-1.674.288-2.208.864-.512.555-.768 1.27-.768 2.144v.672h5.568v3.552H51.13v12.768h-4.16Zm22.259.512c-1.707 0-3.19-.362-4.448-1.088a7.678 7.678 0 0 1-2.88-3.072c-.683-1.322-1.024-2.826-1.024-4.512 0-1.706.341-3.21 1.024-4.512.683-1.301 1.643-2.314 2.88-3.04 1.259-.746 2.741-1.12 4.448-1.12 1.707 0 3.179.374 4.416 1.12a7.412 7.412 0 0 1 2.912 3.04c.683 1.302 1.024 2.806 1.024 4.512 0 1.686-.341 3.19-1.024 4.512a7.61 7.61 0 0 1-2.912 3.072c-1.237.726-2.71 1.088-4.416 1.088Zm0-3.904c1.237 0 2.24-.405 3.008-1.216.79-.81 1.184-1.994 1.184-3.552 0-1.578-.395-2.762-1.184-3.552-.768-.81-1.77-1.216-3.008-1.216-1.237 0-2.25.406-3.04 1.216-.768.79-1.152 1.974-1.152 3.552 0 1.558.384 2.742 1.152 3.552.79.811 1.803 1.216 3.04 1.216Zm19.187 3.904c-1.706 0-3.189-.362-4.448-1.088a7.678 7.678 0 0 1-2.88-3.072c-.682-1.322-1.024-2.826-1.024-4.512 0-1.706.342-3.21 1.024-4.512.683-1.301 1.643-2.314 2.88-3.04 1.26-.746 2.742-1.12 4.448-1.12 1.707 0 3.18.374 4.416 1.12a7.412 7.412 0 0 1 2.912 3.04c.683 1.302 1.024 2.806 1.024 4.512 0 1.686-.34 3.19-1.024 4.512a7.61 7.61 0 0 1-2.912 3.072c-1.237.726-2.709 1.088-4.416 1.088Zm0-3.904c1.238 0 2.24-.405 3.008-1.216.79-.81 1.184-1.994 1.184-3.552 0-1.578-.394-2.762-1.184-3.552-.768-.81-1.77-1.216-3.008-1.216-1.237 0-2.25.406-3.04 1.216-.768.79-1.152 1.974-1.152 3.552 0 1.558.384 2.742 1.152 3.552.79.811 1.803 1.216 3.04 1.216Zm18.068 3.904a6.985 6.985 0 0 1-3.648-.992c-1.088-.661-1.963-1.632-2.624-2.912-.64-1.301-.96-2.89-.96-4.768 0-1.898.33-3.488.992-4.768.683-1.301 1.568-2.272 2.656-2.912a6.938 6.938 0 0 1 3.616-.992c1.216 0 2.229.224 3.04.672.811.448 1.419 1.024 1.824 1.728h.256l-.256-2.432v-6.048h4.16v22.912h-3.904v-1.856h-.256c-.448.64-1.077 1.195-1.888 1.664-.811.47-1.813.704-3.008.704Zm1.024-3.904c1.173 0 2.155-.394 2.944-1.184.789-.789 1.184-1.984 1.184-3.584s-.395-2.794-1.184-3.584c-.789-.81-1.771-1.216-2.944-1.216-1.152 0-2.123.406-2.912 1.216-.789.79-1.184 1.984-1.184 3.584s.395 2.795 1.184 3.584c.789.79 1.76 1.184 2.912 1.184Zm12.755 10.304v-3.712h13.056v3.712h-13.056Zm18.676-6.912v-3.84c2.091-1.6 3.808-2.976 5.152-4.128 1.344-1.152 2.389-2.208 3.136-3.168.704-.896 1.216-1.749 1.536-2.56a6.934 6.934 0 0 0 .512-2.656c0-1.002-.309-1.781-.928-2.336-.619-.554-1.429-.832-2.432-.832-.917 0-1.696.278-2.336.832-.619.555-1.013 1.366-1.184 2.432l-3.936-.352c.128-1.301.501-2.464 1.12-3.488a6.938 6.938 0 0 1 2.592-2.432c1.088-.597 2.357-.896 3.808-.896 2.325 0 4.16.608 5.504 1.824 1.344 1.216 2.016 2.902 2.016 5.056a9.36 9.36 0 0 1-.896 4.064 17.415 17.415 0 0 1-2.176 3.552 20.96 20.96 0 0 1-2.624 2.72 49.02 49.02 0 0 1-3.072 2.4l.096.16h9.28v3.648h-15.168Zm26.227.192a2.981 2.981 0 0 1-2.144-.864 2.98 2.98 0 0 1-.864-2.144c0-.832.288-1.536.864-2.112.598-.597 1.312-.896 2.144-.896.832 0 1.536.299 2.112.896a2.82 2.82 0 0 1 .896 2.112c0 .832-.298 1.547-.896 2.144-.576.576-1.28.864-2.112.864Zm19.412.32c-1.344 0-2.592-.245-3.744-.736a6.729 6.729 0 0 1-2.848-2.272c-.725-1.024-1.163-2.314-1.312-3.872l4.192-.544c.107 1.024.469 1.878 1.088 2.56.64.662 1.515.992 2.624.992 1.152 0 2.059-.352 2.72-1.056.683-.704 1.024-1.674 1.024-2.912 0-1.237-.331-2.208-.992-2.912-.64-.704-1.547-1.056-2.72-1.056-.661 0-1.269.15-1.824.448-.555.278-1.003.63-1.344 1.056l-4.064-1.76 1.376-11.36h12.672v3.648h-9.312l-.832 5.376.256.096c.427-.362.971-.661 1.632-.896a6.283 6.283 0 0 1 2.112-.352c1.408 0 2.656.31 3.744.928 1.088.598 1.941 1.472 2.56 2.624.619 1.152.928 2.539.928 4.16 0 1.579-.341 2.966-1.024 4.16a6.829 6.829 0 0 1-2.784 2.72c-1.195.64-2.571.96-4.128.96Zm19.251 0c-1.301 0-2.474-.234-3.52-.704a7.735 7.735 0 0 1-2.688-1.984c-.661-.768-1.173-1.685-1.536-2.752-.341-1.088-.512-2.282-.512-3.584 0-2.901.726-5.557 2.176-7.968a17.594 17.594 0 0 1 3.296-3.968c1.344-1.194 2.912-2.197 4.704-3.008l2.112 3.264a16.836 16.836 0 0 0-4.768 3.136 11.476 11.476 0 0 0-3.04 4.544l.192.16a4.45 4.45 0 0 1 1.824-1.408 5.95 5.95 0 0 1 2.368-.48c1.43 0 2.678.299 3.744.896a6.064 6.064 0 0 1 2.528 2.496c.619 1.067.928 2.336.928 3.808 0 1.451-.341 2.752-1.024 3.904a7.23 7.23 0 0 1-2.752 2.688c-1.173.64-2.517.96-4.032.96Zm0-3.84c1.024 0 1.888-.33 2.592-.992.704-.661 1.056-1.568 1.056-2.72 0-1.152-.352-2.048-1.056-2.688-.704-.661-1.568-.992-2.592-.992s-1.888.331-2.592.992c-.704.64-1.056 1.536-1.056 2.688 0 1.152.352 2.059 1.056 2.72.704.662 1.568.992 2.592.992ZM372.694 312.704c-.854 0-1.579-.288-2.176-.864-.576-.597-.864-1.322-.864-2.176 0-.853.288-1.568.864-2.144a2.962 2.962 0 0 1 2.176-.896c.853 0 1.568.299 2.144.896.597.576.896 1.291.896 2.144 0 .854-.299 1.579-.896 2.176-.576.576-1.291.864-2.144.864Zm-7.616 18.88v-3.776h5.504v-8.768h-4.544v-3.776h8.736v12.544h5.536v3.776h-15.232Zm22.995 0c0-2.709.299-5.216.896-7.52.619-2.325 1.44-4.426 2.464-6.304 1.024-1.877 2.144-3.52 3.36-4.928l-.16-.256h-10.624v-3.904h15.616v4.096a18.215 18.215 0 0 0-4.192 5.536 25.81 25.81 0 0 0-2.144 6.528 36.758 36.758 0 0 0-.64 6.752h-4.576Zm20.916.512-2.112-3.264a17.759 17.759 0 0 0 4.768-3.136 11.47 11.47 0 0 0 3.04-4.544l-.192-.16c-.406.598-1.024 1.067-1.856 1.408-.811.32-1.611.48-2.4.48-1.408 0-2.656-.298-3.744-.896a6.77 6.77 0 0 1-2.592-2.496c-.619-1.088-.928-2.357-.928-3.808 0-1.45.362-2.741 1.088-3.872a7.574 7.574 0 0 1 2.88-2.688 7.93 7.93 0 0 1 3.904-.992c1.322 0 2.517.235 3.584.704a6.933 6.933 0 0 1 2.688 1.984c.661.768 1.162 1.686 1.504 2.752.362 1.067.544 2.262.544 3.584 0 2.902-.726 5.558-2.176 7.968-.854 1.451-1.952 2.774-3.296 3.968-1.344 1.195-2.912 2.198-4.704 3.008Zm1.856-12.736c1.045 0 1.92-.32 2.624-.96.725-.661 1.088-1.568 1.088-2.72 0-1.152-.363-2.058-1.088-2.72-.704-.661-1.579-.992-2.624-.992-1.046 0-1.931.331-2.656.992-.704.662-1.056 1.568-1.056 2.72 0 1.152.352 2.059 1.056 2.72.725.64 1.61.96 2.656.96Zm18.291 12.736a6.99 6.99 0 0 1-3.648-.992c-1.088-.661-1.962-1.632-2.624-2.912-.64-1.301-.96-2.89-.96-4.768 0-1.898.331-3.488.992-4.768.683-1.301 1.568-2.272 2.656-2.912a6.941 6.941 0 0 1 3.616-.992c1.216 0 2.23.224 3.04.672.811.448 1.419 1.024 1.824 1.728h.256v-1.888h3.904v16.32h-3.904v-1.856h-.256c-.448.64-1.077 1.195-1.888 1.664-.81.47-1.813.704-3.008.704Zm1.024-3.904c1.174 0 2.155-.394 2.944-1.184.79-.789 1.184-1.984 1.184-3.584s-.394-2.794-1.184-3.584c-.789-.81-1.77-1.216-2.944-1.216-1.152 0-2.122.406-2.912 1.216-.789.79-1.184 1.984-1.184 3.584s.395 2.795 1.184 3.584c.79.79 1.76 1.184 2.912 1.184Zm19.124 3.904c-2.091 0-3.862-.565-5.312-1.696-1.451-1.152-2.315-2.826-2.592-5.024l4.128-.832c.17 1.11.576 1.974 1.216 2.592.661.619 1.514.928 2.56.928 1.13 0 2.026-.298 2.688-.896.661-.597.992-1.418.992-2.464 0-1.088-.363-1.909-1.088-2.464-.704-.576-1.686-.864-2.944-.864h-1.824v-3.648h1.696c1.002 0 1.845-.234 2.528-.704.682-.469 1.024-1.216 1.024-2.24 0-.874-.288-1.568-.864-2.08-.576-.512-1.344-.768-2.304-.768-.896 0-1.643.267-2.24.8a3.5 3.5 0 0 0-1.088 1.92l-4.032-.448a7.482 7.482 0 0 1 1.216-3.04c.618-.917 1.45-1.642 2.496-2.176 1.045-.554 2.282-.832 3.712-.832 1.429 0 2.677.267 3.744.8 1.088.534 1.93 1.27 2.528 2.208.618.918.928 1.974.928 3.168 0 1.259-.299 2.262-.896 3.008a9.369 9.369 0 0 1-1.984 1.824v.256a6.251 6.251 0 0 1 2.592 2.048c.682.918 1.024 2.134 1.024 3.648 0 1.28-.32 2.454-.96 3.52-.64 1.046-1.558 1.888-2.752 2.528-1.174.619-2.571.928-4.192.928Zm21.651-19.392c-.853 0-1.578-.288-2.176-.864-.576-.597-.864-1.322-.864-2.176 0-.853.288-1.568.864-2.144a2.965 2.965 0 0 1 2.176-.896c.854 0 1.568.299 2.144.896.598.576.896 1.291.896 2.144 0 .854-.298 1.579-.896 2.176-.576.576-1.29.864-2.144.864Zm-4.224 26.112c-1.194 0-2.218-.117-3.072-.352a9.252 9.252 0 0 1-2.304-.896l1.632-3.712c.448.299.96.555 1.536.768a4.782 4.782 0 0 0 1.824.352c.811 0 1.43-.234 1.856-.704.427-.469.64-1.12.64-1.952v-13.28h-6.016v-3.776h10.208v16.832c0 2.07-.565 3.702-1.696 4.896-1.13 1.216-2.666 1.824-4.608 1.824ZM371.574 434.596a6.985 6.985 0 0 1-3.648-.992c-1.088-.661-1.963-1.632-2.624-2.912-.64-1.301-.96-2.89-.96-4.768 0-1.898.33-3.488.992-4.768.682-1.301 1.568-2.272 2.656-2.912a6.936 6.936 0 0 1 3.616-.992c1.216 0 2.229.224 3.04.672.81.448 1.418 1.024 1.824 1.728h.256v-1.888h3.904v16.32h-3.904v-1.856h-.256c-.448.64-1.078 1.195-1.888 1.664-.811.47-1.814.704-3.008.704Zm1.024-3.904c1.173 0 2.154-.394 2.944-1.184.789-.789 1.184-1.984 1.184-3.584s-.395-2.794-1.184-3.584c-.79-.81-1.771-1.216-2.944-1.216-1.152 0-2.123.406-2.912 1.216-.79.79-1.184 1.984-1.184 3.584s.394 2.795 1.184 3.584c.789.79 1.76 1.184 2.912 1.184Zm19.123 3.904c-2.09 0-3.861-.565-5.312-1.696-1.45-1.152-2.314-2.826-2.592-5.024l4.128-.832c.171 1.11.576 1.974 1.216 2.592.662.619 1.515.928 2.56.928 1.131 0 2.027-.298 2.688-.896.662-.597.992-1.418.992-2.464 0-1.088-.362-1.909-1.088-2.464-.704-.576-1.685-.864-2.944-.864h-1.824v-3.648h1.696c1.003 0 1.846-.234 2.528-.704.683-.469 1.024-1.216 1.024-2.24 0-.874-.288-1.568-.864-2.08-.576-.512-1.344-.768-2.304-.768-.896 0-1.642.267-2.24.8a3.505 3.505 0 0 0-1.088 1.92l-4.032-.448a7.496 7.496 0 0 1 1.216-3.04c.619-.917 1.451-1.642 2.496-2.176 1.046-.554 2.283-.832 3.712-.832 1.43 0 2.678.267 3.744.8 1.088.534 1.931 1.27 2.528 2.208.619.918.928 1.974.928 3.168 0 1.259-.298 2.262-.896 3.008a9.32 9.32 0 0 1-1.984 1.824v.256a6.239 6.239 0 0 1 2.592 2.048c.683.918 1.024 2.134 1.024 3.648 0 1.28-.32 2.454-.96 3.52-.64 1.046-1.557 1.888-2.752 2.528-1.173.619-2.57.928-4.192.928Zm19.188 0c-2.091 0-3.862-.565-5.312-1.696-1.451-1.152-2.315-2.826-2.592-5.024l4.128-.832c.17 1.11.576 1.974 1.216 2.592.661.619 1.514.928 2.56.928 1.13 0 2.026-.298 2.688-.896.661-.597.992-1.418.992-2.464 0-1.088-.363-1.909-1.088-2.464-.704-.576-1.686-.864-2.944-.864h-1.824v-3.648h1.696c1.002 0 1.845-.234 2.528-.704.682-.469 1.024-1.216 1.024-2.24 0-.874-.288-1.568-.864-2.08-.576-.512-1.344-.768-2.304-.768-.896 0-1.643.267-2.24.8a3.5 3.5 0 0 0-1.088 1.92l-4.032-.448a7.482 7.482 0 0 1 1.216-3.04c.618-.917 1.45-1.642 2.496-2.176 1.045-.554 2.282-.832 3.712-.832 1.429 0 2.677.267 3.744.8 1.088.534 1.93 1.27 2.528 2.208.618.918.928 1.974.928 3.168 0 1.259-.299 2.262-.896 3.008a9.369 9.369 0 0 1-1.984 1.824v.256a6.251 6.251 0 0 1 2.592 2.048c.682.918 1.024 2.134 1.024 3.648 0 1.28-.32 2.454-.96 3.52-.64 1.046-1.558 1.888-2.752 2.528-1.174.619-2.571.928-4.192.928Zm19.571 0c-1.344 0-2.592-.245-3.744-.736a6.729 6.729 0 0 1-2.848-2.272c-.725-1.024-1.162-2.314-1.312-3.872l4.192-.544c.107 1.024.47 1.878 1.088 2.56.64.662 1.515.992 2.624.992 1.152 0 2.059-.352 2.72-1.056.683-.704 1.024-1.674 1.024-2.912 0-1.237-.33-2.208-.992-2.912-.64-.704-1.546-1.056-2.72-1.056-.661 0-1.269.15-1.824.448a3.98 3.98 0 0 0-1.344 1.056l-4.064-1.76 1.376-11.36h12.672v3.648h-9.312l-.832 5.376.256.096c.427-.362.971-.661 1.632-.896a6.291 6.291 0 0 1 2.112-.352c1.408 0 2.656.31 3.744.928 1.088.598 1.942 1.472 2.56 2.624.619 1.152.928 2.539.928 4.16 0 1.579-.341 2.966-1.024 4.16a6.829 6.829 0 0 1-2.784 2.72c-1.194.64-2.57.96-4.128.96Zm11.54-.512v-22.912h4.16v12.352h.224l5.664-5.76h5.12v.256l-6.176 6.208 5.92 9.6v.256h-4.608l-4.32-6.88-1.824 1.856v5.024h-4.16Zm28.915-18.88c-.853 0-1.578-.288-2.176-.864-.576-.597-.864-1.322-.864-2.176 0-.853.288-1.568.864-2.144a2.965 2.965 0 0 1 2.176-.896c.854 0 1.568.299 2.144.896.598.576.896 1.291.896 2.144 0 .854-.298 1.579-.896 2.176-.576.576-1.29.864-2.144.864Zm-4.224 26.112c-1.194 0-2.218-.117-3.072-.352a9.252 9.252 0 0 1-2.304-.896l1.632-3.712c.448.299.96.555 1.536.768a4.782 4.782 0 0 0 1.824.352c.811 0 1.43-.234 1.856-.704.427-.469.64-1.12.64-1.952v-13.28h-6.016v-3.776h10.208v16.832c0 2.07-.565 3.702-1.696 4.896-1.13 1.216-2.666 1.824-4.608 1.824ZM373.686 537.596c-1.216 0-2.219-.224-3.008-.672-.79-.469-1.408-1.034-1.856-1.696h-.256v1.856h-3.904v-22.912h4.16v6.048l-.256 2.432h.256c.362-.618.96-1.173 1.792-1.664.832-.49 1.856-.736 3.072-.736 1.365 0 2.592.342 3.68 1.024 1.109.662 1.984 1.643 2.624 2.944.64 1.28.96 2.848.96 4.704 0 1.856-.32 3.435-.96 4.736-.64 1.28-1.515 2.262-2.624 2.944-1.088.662-2.315.992-3.68.992Zm-1.024-3.904c1.152 0 2.122-.405 2.912-1.216.81-.832 1.216-2.016 1.216-3.552s-.395-2.72-1.184-3.552c-.79-.832-1.771-1.248-2.944-1.248-1.152 0-2.123.416-2.912 1.248-.79.832-1.184 2.016-1.184 3.552s.394 2.72 1.184 3.552c.789.811 1.76 1.216 2.912 1.216Zm19.059 10.816c-2.261 0-4.021-.512-5.28-1.536-1.258-1.024-2.058-2.357-2.4-4l4.16-.832c.235.79.63 1.43 1.184 1.92.576.512 1.355.768 2.336.768 1.195 0 2.155-.426 2.88-1.28.747-.832 1.12-2.016 1.12-3.552v-1.152h-.256c-.576.726-1.237 1.259-1.984 1.6-.725.342-1.653.512-2.784.512a6.435 6.435 0 0 1-3.456-.992c-1.045-.682-1.888-1.642-2.528-2.88-.64-1.258-.96-2.752-.96-4.48 0-1.728.32-3.21.96-4.448.662-1.258 1.515-2.218 2.56-2.88 1.067-.682 2.208-1.024 3.424-1.024 2.176 0 3.766.715 4.768 2.144h.256v-1.632h3.968v15.104c0 2.646-.714 4.747-2.144 6.304-1.408 1.558-3.349 2.336-5.824 2.336Zm.096-11.36c1.067 0 1.984-.384 2.752-1.152.768-.789 1.152-1.92 1.152-3.392 0-1.493-.384-2.624-1.152-3.392-.768-.768-1.685-1.152-2.752-1.152-1.045 0-1.962.384-2.752 1.152-.768.768-1.152 1.899-1.152 3.392 0 1.494.384 2.624 1.152 3.392.768.768 1.686 1.152 2.752 1.152Zm20.884 3.936v-4.16h-10.272v-3.36l9.92-15.392h4.48v14.848h2.912v3.904h-2.912v4.16h-4.128Zm-5.728-8.064h5.728v-8.48h-.256l-5.472 8.48Zm23.123 8.576c-2.09 0-3.861-.565-5.312-1.696-1.45-1.152-2.314-2.826-2.592-5.024l4.128-.832c.171 1.11.576 1.974 1.216 2.592.662.619 1.515.928 2.56.928 1.131 0 2.027-.298 2.688-.896.662-.597.992-1.418.992-2.464 0-1.088-.362-1.909-1.088-2.464-.704-.576-1.685-.864-2.944-.864h-1.824v-3.648h1.696c1.003 0 1.846-.234 2.528-.704.683-.469 1.024-1.216 1.024-2.24 0-.874-.288-1.568-.864-2.08-.576-.512-1.344-.768-2.304-.768-.896 0-1.642.267-2.24.8a3.505 3.505 0 0 0-1.088 1.92l-4.032-.448a7.496 7.496 0 0 1 1.216-3.04c.619-.917 1.451-1.642 2.496-2.176 1.046-.554 2.283-.832 3.712-.832 1.43 0 2.678.267 3.744.8 1.088.534 1.931 1.27 2.528 2.208.619.918.928 1.974.928 3.168 0 1.259-.298 2.262-.896 3.008a9.32 9.32 0 0 1-1.984 1.824v.256a6.239 6.239 0 0 1 2.592 2.048c.683.918 1.024 2.134 1.024 3.648 0 1.28-.32 2.454-.96 3.52-.64 1.046-1.557 1.888-2.752 2.528-1.173.619-2.57.928-4.192.928Zm19.636 0c-1.302 0-2.475-.234-3.52-.704a7.717 7.717 0 0 1-2.688-1.984c-.662-.768-1.174-1.685-1.536-2.752-.342-1.088-.512-2.282-.512-3.584 0-2.901.725-5.557 2.176-7.968a17.54 17.54 0 0 1 3.296-3.968c1.344-1.194 2.912-2.197 4.704-3.008l2.112 3.264a16.822 16.822 0 0 0-4.768 3.136 11.466 11.466 0 0 0-3.04 4.544l.192.16a4.437 4.437 0 0 1 1.824-1.408 5.946 5.946 0 0 1 2.368-.48c1.429 0 2.677.299 3.744.896a6.07 6.07 0 0 1 2.528 2.496c.618 1.067.928 2.336.928 3.808 0 1.451-.342 2.752-1.024 3.904a7.245 7.245 0 0 1-2.752 2.688c-1.174.64-2.518.96-4.032.96Zm0-3.84c1.024 0 1.888-.33 2.592-.992.704-.661 1.056-1.568 1.056-2.72 0-1.152-.352-2.048-1.056-2.688-.704-.661-1.568-.992-2.592-.992s-1.888.331-2.592.992c-.704.64-1.056 1.536-1.056 2.688 0 1.152.352 2.059 1.056 2.72.704.662 1.568.992 2.592.992Zm17.779 3.84a6.99 6.99 0 0 1-3.648-.992c-1.088-.661-1.962-1.632-2.624-2.912-.64-1.301-.96-2.89-.96-4.768 0-1.898.331-3.488.992-4.768.683-1.301 1.568-2.272 2.656-2.912a6.941 6.941 0 0 1 3.616-.992c1.216 0 2.23.224 3.04.672.811.448 1.419 1.024 1.824 1.728h.256v-1.888h3.904v16.32h-3.904v-1.856h-.256c-.448.64-1.077 1.195-1.888 1.664-.81.47-1.813.704-3.008.704Zm1.024-3.904c1.174 0 2.155-.394 2.944-1.184.79-.789 1.184-1.984 1.184-3.584s-.394-2.794-1.184-3.584c-.789-.81-1.77-1.216-2.944-1.216-1.152 0-2.122.406-2.912 1.216-.789.79-1.184 1.984-1.184 3.584s.395 2.795 1.184 3.584c.79.79 1.76 1.184 2.912 1.184ZM375.478 639.596c-1.75 0-3.158-.544-4.224-1.632-1.046-1.109-1.568-2.666-1.568-4.672v-6.976h-3.616v-3.552h3.616v-4.48h4.16v4.48h5.888v3.552h-5.888v6.656c0 .875.213 1.547.64 2.016.426.47 1.034.704 1.824.704.426 0 .821-.053 1.184-.16a4.962 4.962 0 0 0 1.216-.544l1.248 3.52c-.662.406-1.312.683-1.952.832-.619.171-1.462.256-2.528.256Zm16.243 0c-2.09 0-3.861-.565-5.312-1.696-1.45-1.152-2.314-2.826-2.592-5.024l4.128-.832c.171 1.11.576 1.974 1.216 2.592.662.619 1.515.928 2.56.928 1.131 0 2.027-.298 2.688-.896.662-.597.992-1.418.992-2.464 0-1.088-.362-1.909-1.088-2.464-.704-.576-1.685-.864-2.944-.864h-1.824v-3.648h1.696c1.003 0 1.846-.234 2.528-.704.683-.469 1.024-1.216 1.024-2.24 0-.874-.288-1.568-.864-2.08-.576-.512-1.344-.768-2.304-.768-.896 0-1.642.267-2.24.8a3.505 3.505 0 0 0-1.088 1.92l-4.032-.448a7.496 7.496 0 0 1 1.216-3.04c.619-.917 1.451-1.642 2.496-2.176 1.046-.554 2.283-.832 3.712-.832 1.43 0 2.678.267 3.744.8 1.088.534 1.931 1.27 2.528 2.208.619.918.928 1.974.928 3.168 0 1.259-.298 2.262-.896 3.008a9.32 9.32 0 0 1-1.984 1.824v.256a6.239 6.239 0 0 1 2.592 2.048c.683.918 1.024 2.134 1.024 3.648 0 1.28-.32 2.454-.96 3.52-.64 1.046-1.557 1.888-2.752 2.528-1.173.619-2.57.928-4.192.928Zm19.572 0c-1.344 0-2.592-.245-3.744-.736a6.723 6.723 0 0 1-2.848-2.272c-.726-1.024-1.163-2.314-1.312-3.872l4.192-.544c.106 1.024.469 1.878 1.088 2.56.64.662 1.514.992 2.624.992 1.152 0 2.058-.352 2.72-1.056.682-.704 1.024-1.674 1.024-2.912 0-1.237-.331-2.208-.992-2.912-.64-.704-1.547-1.056-2.72-1.056-.662 0-1.27.15-1.824.448-.555.278-1.003.63-1.344 1.056l-4.064-1.76 1.376-11.36h12.672v3.648h-9.312l-.832 5.376.256.096c.426-.362.97-.661 1.632-.896a6.283 6.283 0 0 1 2.112-.352c1.408 0 2.656.31 3.744.928 1.088.598 1.941 1.472 2.56 2.624.618 1.152.928 2.539.928 4.16 0 1.579-.342 2.966-1.024 4.16a6.84 6.84 0 0 1-2.784 2.72c-1.195.64-2.571.96-4.128.96Zm21.747 0c-1.749 0-3.157-.544-4.224-1.632-1.045-1.109-1.568-2.666-1.568-4.672v-6.976h-3.616v-3.552h3.616v-4.48h4.16v4.48h5.888v3.552h-5.888v6.656c0 .875.214 1.547.64 2.016.427.47 1.035.704 1.824.704.427 0 .822-.053 1.184-.16.384-.106.79-.288 1.216-.544l1.248 3.52c-.661.406-1.312.683-1.952.832-.618.171-1.461.256-2.528.256Zm18.036-.512v-4.16h-10.272v-3.36l9.92-15.392h4.48v14.848h2.912v3.904h-2.912v4.16h-4.128Zm-5.728-8.064h5.728v-8.48h-.256l-5.472 8.48Zm17.779 8.064v-16.32h3.904v2.624h.256c.534-1.024 1.216-1.802 2.048-2.336.832-.533 1.867-.8 3.104-.8 1.152 0 2.112.192 2.88.576v4.288a7.624 7.624 0 0 0-1.76-.704 6.655 6.655 0 0 0-1.984-.288c-1.258 0-2.293.406-3.104 1.216-.789.811-1.184 1.963-1.184 3.456v8.288h-4.16ZM367.19 740.97v-16.32h3.904v2.624h.256c.533-1.024 1.216-1.803 2.048-2.336.832-.534 1.866-.8 3.104-.8 1.152 0 2.112.192 2.88.576v4.288a7.553 7.553 0 0 0-1.76-.704 6.66 6.66 0 0 0-1.984-.288c-1.259 0-2.294.405-3.104 1.216-.79.81-1.184 1.962-1.184 3.456v8.288h-4.16Zm24.531.512c-2.09 0-3.861-.566-5.312-1.696-1.45-1.152-2.314-2.827-2.592-5.024l4.128-.832c.171 1.109.576 1.973 1.216 2.592.662.618 1.515.928 2.56.928 1.131 0 2.027-.299 2.688-.896.662-.598.992-1.419.992-2.464 0-1.088-.362-1.91-1.088-2.464-.704-.576-1.685-.864-2.944-.864h-1.824v-3.648h1.696c1.003 0 1.846-.235 2.528-.704.683-.47 1.024-1.216 1.024-2.24 0-.875-.288-1.568-.864-2.08-.576-.512-1.344-.768-2.304-.768-.896 0-1.642.266-2.24.8a3.499 3.499 0 0 0-1.088 1.92l-4.032-.448a7.49 7.49 0 0 1 1.216-3.04c.619-.918 1.451-1.643 2.496-2.176 1.046-.555 2.283-.832 3.712-.832 1.43 0 2.678.266 3.744.8 1.088.533 1.931 1.269 2.528 2.208.619.917.928 1.973.928 3.168 0 1.258-.298 2.261-.896 3.008a9.373 9.373 0 0 1-1.984 1.824v.256a6.23 6.23 0 0 1 2.592 2.048c.683.917 1.024 2.133 1.024 3.648 0 1.28-.32 2.453-.96 3.52-.64 1.045-1.557 1.888-2.752 2.528-1.173.618-2.57.928-4.192.928Zm19.572 0c-1.344 0-2.592-.246-3.744-.736a6.73 6.73 0 0 1-2.848-2.272c-.726-1.024-1.163-2.315-1.312-3.872l4.192-.544c.106 1.024.469 1.877 1.088 2.56.64.661 1.514.992 2.624.992 1.152 0 2.058-.352 2.72-1.056.682-.704 1.024-1.675 1.024-2.912 0-1.238-.331-2.208-.992-2.912-.64-.704-1.547-1.056-2.72-1.056-.662 0-1.27.149-1.824.448-.555.277-1.003.629-1.344 1.056l-4.064-1.76 1.376-11.36h12.672v3.648h-9.312l-.832 5.376.256.096c.426-.363.97-.662 1.632-.896a6.258 6.258 0 0 1 2.112-.352c1.408 0 2.656.309 3.744.928 1.088.597 1.941 1.472 2.56 2.624.618 1.152.928 2.538.928 4.16 0 1.578-.342 2.965-1.024 4.16a6.847 6.847 0 0 1-2.784 2.72c-1.195.64-2.571.96-4.128.96Zm22.739 6.4v-6.368l.256-2.432h-.256c-.405.661-1.034 1.226-1.888 1.696-.832.469-1.845.704-3.04.704-1.344 0-2.56-.331-3.648-.992-1.088-.662-1.952-1.632-2.592-2.912-.64-1.302-.96-2.891-.96-4.768 0-1.899.32-3.488.96-4.768.64-1.302 1.504-2.272 2.592-2.912 1.11-.662 2.347-.992 3.712-.992 1.195 0 2.198.245 3.008.736.811.469 1.43 1.013 1.856 1.632h.256v-1.856h3.904v23.232h-4.16Zm-3.872-10.304c1.174 0 2.155-.384 2.944-1.152.79-.79 1.184-1.995 1.184-3.616 0-1.622-.394-2.827-1.184-3.616-.789-.79-1.77-1.184-2.944-1.184-1.152 0-2.122.394-2.912 1.184-.789.789-1.184 1.994-1.184 3.616 0 1.621.395 2.826 1.184 3.616.79.768 1.76 1.152 2.912 1.152Zm22.068 3.904c-1.75 0-3.158-.544-4.224-1.632-1.046-1.11-1.568-2.667-1.568-4.672v-6.976h-3.616v-3.552h3.616v-4.48h4.16v4.48h5.888v3.552h-5.888v6.656c0 .874.213 1.546.64 2.016.426.469 1.034.704 1.824.704a4.21 4.21 0 0 0 1.184-.16 5 5 0 0 0 1.216-.544l1.248 3.52c-.662.405-1.312.682-1.952.832-.619.17-1.462.256-2.528.256Zm16.243 6.912c-2.261 0-4.021-.512-5.28-1.536-1.258-1.024-2.058-2.358-2.4-4l4.16-.832c.235.789.63 1.429 1.184 1.92.576.512 1.355.768 2.336.768 1.195 0 2.155-.427 2.88-1.28.747-.832 1.12-2.016 1.12-3.552v-1.152h-.256c-.576.725-1.237 1.258-1.984 1.6-.725.341-1.653.512-2.784.512a6.444 6.444 0 0 1-3.456-.992c-1.045-.683-1.888-1.643-2.528-2.88-.64-1.259-.96-2.752-.96-4.48 0-1.728.32-3.211.96-4.448.662-1.259 1.515-2.219 2.56-2.88 1.067-.683 2.208-1.024 3.424-1.024 2.176 0 3.766.714 4.768 2.144h.256v-1.632h3.968v15.104c0 2.645-.714 4.746-2.144 6.304-1.408 1.557-3.349 2.336-5.824 2.336Zm.096-11.36c1.067 0 1.984-.384 2.752-1.152.768-.79 1.152-1.92 1.152-3.392 0-1.494-.384-2.624-1.152-3.392-.768-.768-1.685-1.152-2.752-1.152-1.045 0-1.962.384-2.752 1.152-.768.768-1.152 1.898-1.152 3.392 0 1.493.384 2.624 1.152 3.392.768.768 1.686 1.152 2.752 1.152ZM372.534 851.508c-2.262 0-4.022-.512-5.28-1.536-1.259-1.024-2.059-2.357-2.4-4l4.16-.832c.234.79.629 1.43 1.184 1.92.576.512 1.354.768 2.336.768 1.194 0 2.154-.426 2.88-1.28.746-.832 1.12-2.016 1.12-3.552v-1.152h-.256c-.576.726-1.238 1.259-1.984 1.6-.726.342-1.654.512-2.784.512a6.43 6.43 0 0 1-3.456-.992c-1.046-.682-1.888-1.642-2.528-2.88-.64-1.258-.96-2.752-.96-4.48 0-1.728.32-3.21.96-4.448.661-1.258 1.514-2.218 2.56-2.88 1.066-.682 2.208-1.024 3.424-1.024 2.176 0 3.765.715 4.768 2.144h.256v-1.632h3.968v15.104c0 2.646-.715 4.747-2.144 6.304-1.408 1.558-3.35 2.336-5.824 2.336Zm.096-11.36c1.066 0 1.984-.384 2.752-1.152.768-.789 1.152-1.92 1.152-3.392 0-1.493-.384-2.624-1.152-3.392-.768-.768-1.686-1.152-2.752-1.152-1.046 0-1.963.384-2.752 1.152-.768.768-1.152 1.899-1.152 3.392 0 1.494.384 2.624 1.152 3.392.768.768 1.685 1.152 2.752 1.152Zm20.883 3.936v-4.16h-10.272v-3.36l9.92-15.392h4.48v14.848h2.912v3.904h-2.912v4.16h-4.128Zm-5.728-8.064h5.728v-8.48h-.256l-5.472 8.48Zm23.508 8.576c-1.344 0-2.592-.245-3.744-.736a6.723 6.723 0 0 1-2.848-2.272c-.726-1.024-1.163-2.314-1.312-3.872l4.192-.544c.106 1.024.469 1.878 1.088 2.56.64.662 1.514.992 2.624.992 1.152 0 2.058-.352 2.72-1.056.682-.704 1.024-1.674 1.024-2.912 0-1.237-.331-2.208-.992-2.912-.64-.704-1.547-1.056-2.72-1.056-.662 0-1.27.15-1.824.448-.555.278-1.003.63-1.344 1.056l-4.064-1.76 1.376-11.36h12.672v3.648h-9.312l-.832 5.376.256.096c.426-.362.97-.661 1.632-.896a6.283 6.283 0 0 1 2.112-.352c1.408 0 2.656.31 3.744.928 1.088.598 1.941 1.472 2.56 2.624.618 1.152.928 2.539.928 4.16 0 1.579-.342 2.966-1.024 4.16a6.84 6.84 0 0 1-2.784 2.72c-1.195.64-2.571.96-4.128.96Zm18.803 0c-2.09 0-3.861-.565-5.312-1.696-1.45-1.152-2.314-2.826-2.592-5.024l4.128-.832c.171 1.11.576 1.974 1.216 2.592.662.619 1.515.928 2.56.928 1.131 0 2.027-.298 2.688-.896.662-.597.992-1.418.992-2.464 0-1.088-.362-1.909-1.088-2.464-.704-.576-1.685-.864-2.944-.864h-1.824v-3.648h1.696c1.003 0 1.846-.234 2.528-.704.683-.469 1.024-1.216 1.024-2.24 0-.874-.288-1.568-.864-2.08-.576-.512-1.344-.768-2.304-.768-.896 0-1.642.267-2.24.8a3.505 3.505 0 0 0-1.088 1.92l-4.032-.448a7.496 7.496 0 0 1 1.216-3.04c.619-.917 1.451-1.642 2.496-2.176 1.046-.554 2.283-.832 3.712-.832 1.43 0 2.678.267 3.744.8 1.088.534 1.931 1.27 2.528 2.208.619.918.928 1.974.928 3.168 0 1.259-.298 2.262-.896 3.008a9.32 9.32 0 0 1-1.984 1.824v.256a6.239 6.239 0 0 1 2.592 2.048c.683.918 1.024 2.134 1.024 3.648 0 1.28-.32 2.454-.96 3.52-.64 1.046-1.557 1.888-2.752 2.528-1.173.619-2.57.928-4.192.928Zm23.124 6.4v-6.368l.256-2.432h-.256c-.406.662-1.035 1.227-1.888 1.696-.832.47-1.846.704-3.04.704-1.344 0-2.56-.33-3.648-.992-1.088-.661-1.952-1.632-2.592-2.912-.64-1.301-.96-2.89-.96-4.768 0-1.898.32-3.488.96-4.768.64-1.301 1.504-2.272 2.592-2.912 1.109-.661 2.346-.992 3.712-.992 1.194 0 2.197.246 3.008.736.81.47 1.429 1.014 1.856 1.632h.256v-1.856h3.904v23.232h-4.16Zm-3.872-10.304c1.173 0 2.154-.384 2.944-1.152.789-.789 1.184-1.994 1.184-3.616 0-1.621-.395-2.826-1.184-3.616-.79-.789-1.771-1.184-2.944-1.184-1.152 0-2.123.395-2.912 1.184-.79.79-1.184 1.995-1.184 3.616 0 1.622.394 2.827 1.184 3.616.789.768 1.76 1.152 2.912 1.152Zm22.067 3.904c-1.749 0-3.157-.544-4.224-1.632-1.045-1.109-1.568-2.666-1.568-4.672v-6.976h-3.616v-3.552h3.616v-4.48h4.16v4.48h5.888v3.552h-5.888v6.656c0 .875.214 1.547.64 2.016.427.47 1.035.704 1.824.704.427 0 .822-.053 1.184-.16.384-.106.79-.288 1.216-.544l1.248 3.52c-.661.406-1.312.683-1.952.832-.618.171-1.461.256-2.528.256ZM373.686 945.366c-1.216 0-2.219-.224-3.008-.672-.79-.469-1.408-1.034-1.856-1.696h-.256v1.856h-3.904v-22.912h4.16v6.048l-.256 2.432h.256c.362-.618.96-1.173 1.792-1.664.832-.49 1.856-.736 3.072-.736 1.365 0 2.592.342 3.68 1.024 1.109.662 1.984 1.643 2.624 2.944.64 1.28.96 2.848.96 4.704 0 1.856-.32 3.435-.96 4.736-.64 1.28-1.515 2.262-2.624 2.944-1.088.662-2.315.992-3.68.992Zm-1.024-3.904c1.152 0 2.122-.405 2.912-1.216.81-.832 1.216-2.016 1.216-3.552s-.395-2.72-1.184-3.552c-.79-.832-1.771-1.248-2.944-1.248-1.152 0-2.123.416-2.912 1.248-.79.832-1.184 2.016-1.184 3.552s.394 2.72 1.184 3.552c.789.811 1.76 1.216 2.912 1.216Zm20.851 3.392v-4.16h-10.272v-3.36l9.92-15.392h4.48v14.848h2.912v3.904h-2.912v4.16h-4.128Zm-5.728-8.064h5.728v-8.48h-.256l-5.472 8.48Zm23.572 8.576c-1.302 0-2.475-.234-3.52-.704a7.717 7.717 0 0 1-2.688-1.984c-.662-.768-1.174-1.685-1.536-2.752-.342-1.088-.512-2.282-.512-3.584 0-2.901.725-5.557 2.176-7.968a17.54 17.54 0 0 1 3.296-3.968c1.344-1.194 2.912-2.197 4.704-3.008l2.112 3.264a16.822 16.822 0 0 0-4.768 3.136 11.466 11.466 0 0 0-3.04 4.544l.192.16a4.437 4.437 0 0 1 1.824-1.408 5.946 5.946 0 0 1 2.368-.48c1.429 0 2.677.299 3.744.896a6.07 6.07 0 0 1 2.528 2.496c.618 1.067.928 2.336.928 3.808 0 1.451-.342 2.752-1.024 3.904a7.245 7.245 0 0 1-2.752 2.688c-1.174.64-2.518.96-4.032.96Zm0-3.84c1.024 0 1.888-.33 2.592-.992.704-.661 1.056-1.568 1.056-2.72 0-1.152-.352-2.048-1.056-2.688-.704-.661-1.568-.992-2.592-.992s-1.888.331-2.592.992c-.704.64-1.056 1.536-1.056 2.688 0 1.152.352 2.059 1.056 2.72.704.662 1.568.992 2.592.992Zm15.091 3.328c0-2.709.299-5.216.896-7.52.619-2.325 1.44-4.426 2.464-6.304 1.024-1.877 2.144-3.52 3.36-4.928l-.16-.256h-10.624v-3.904H438v4.096a18.215 18.215 0 0 0-4.192 5.536 25.81 25.81 0 0 0-2.144 6.528 36.758 36.758 0 0 0-.64 6.752h-4.576Zm21.172.512c-1.878 0-3.307-.576-4.288-1.728-.96-1.152-1.44-2.73-1.44-4.736v-10.368h4.16v9.792c0 1.003.245 1.782.736 2.336.49.534 1.184.8 2.08.8 1.109 0 1.984-.405 2.624-1.216.64-.81.96-1.834.96-3.072v-8.64h4.16v16.32h-3.904v-1.984h-.256c-.47.768-1.131 1.376-1.984 1.824-.854.448-1.803.672-2.848.672Zm19.891 0a6.99 6.99 0 0 1-3.648-.992c-1.088-.661-1.962-1.632-2.624-2.912-.64-1.301-.96-2.89-.96-4.768 0-1.898.331-3.488.992-4.768.683-1.301 1.568-2.272 2.656-2.912a6.941 6.941 0 0 1 3.616-.992c1.216 0 2.23.224 3.04.672.811.448 1.419 1.024 1.824 1.728h.256v-1.888h3.904v16.32h-3.904v-1.856h-.256c-.448.64-1.077 1.195-1.888 1.664-.81.47-1.813.704-3.008.704Zm1.024-3.904c1.174 0 2.155-.394 2.944-1.184.79-.789 1.184-1.984 1.184-3.584s-.394-2.794-1.184-3.584c-.789-.81-1.77-1.216-2.944-1.216-1.152 0-2.122.406-2.912 1.216-.789.79-1.184 1.984-1.184 3.584s.395 2.795 1.184 3.584c.79.79 1.76 1.184 2.912 1.184Z" fill="#000"/><path d="M21.205 63.829c-5.376 0-9.6-2.048-12.672-6.144-3.072-4.096-4.608-10.027-4.608-17.792 0-5.206.704-9.579 2.112-13.12 1.451-3.542 3.478-6.23 6.08-8.064 2.603-1.835 5.675-2.752 9.216-2.752 4.48 0 8.214 1.301 11.2 3.904 3.03 2.56 4.758 6.293 5.184 11.2l-6.784 1.152c-.34-2.944-1.3-5.27-2.88-6.976-1.578-1.75-3.818-2.624-6.72-2.624-2.986 0-5.46 1.386-7.424 4.16-1.962 2.73-2.944 7.104-2.944 13.12 0 6.016.982 10.41 2.944 13.184 1.963 2.73 4.438 4.096 7.424 4.096 2.731 0 4.928-.854 6.592-2.56 1.707-1.75 2.774-4.139 3.2-7.168l6.656.832c-.597 4.821-2.304 8.618-5.12 11.392-2.816 2.773-6.634 4.16-11.456 4.16Zm38.311 0c-3.328 0-6.229-.726-8.704-2.176-2.432-1.494-4.309-3.542-5.632-6.144-1.322-2.646-1.984-5.654-1.984-9.024 0-3.414.662-6.422 1.984-9.024 1.323-2.603 3.2-4.63 5.632-6.08 2.475-1.494 5.376-2.24 8.704-2.24 3.328 0 6.208.746 8.64 2.24 2.475 1.45 4.374 3.477 5.696 6.08 1.323 2.602 1.984 5.61 1.984 9.024 0 3.413-.66 6.421-1.984 9.024-1.322 2.602-3.22 4.65-5.696 6.144-2.432 1.45-5.312 2.176-8.64 2.176Zm0-6.336c2.774 0 5.056-.939 6.848-2.816 1.792-1.92 2.688-4.651 2.688-8.192 0-3.542-.896-6.251-2.688-8.128-1.792-1.92-4.074-2.88-6.848-2.88-2.773 0-5.056.96-6.848 2.88-1.792 1.877-2.688 4.586-2.688 8.128 0 3.541.896 6.272 2.688 8.192 1.792 1.877 4.075 2.816 6.848 2.816Zm21.48 5.312v-32.64h6.143v2.816h.384c.512-1.152 1.323-2.07 2.432-2.752 1.152-.726 2.454-1.088 3.904-1.088 1.75 0 3.072.384 3.968 1.152.94.725 1.622 1.6 2.048 2.624.512-.982 1.387-1.856 2.624-2.624 1.238-.768 2.71-1.152 4.416-1.152 2.475 0 4.395.789 5.76 2.368 1.408 1.536 2.112 3.84 2.112 6.912v24.384h-6.464V38.933c0-1.152-.298-2.07-.896-2.752-.554-.683-1.344-1.024-2.368-1.024-1.237 0-2.197.426-2.88 1.28-.64.81-.96 1.898-.96 3.264v23.104h-6.528V38.997c0-1.152-.277-2.07-.832-2.752-.512-.726-1.344-1.088-2.496-1.088-1.109 0-2.026.426-2.752 1.28-.725.853-1.088 1.962-1.088 3.328v23.04h-6.528Zm40.038 13.824V30.165h6.4v4.224h.384c.854-1.408 2.134-2.624 3.84-3.648 1.75-1.067 3.819-1.6 6.208-1.6 2.816 0 5.312.704 7.488 2.112 2.219 1.365 3.947 3.349 5.184 5.952 1.238 2.56 1.856 5.653 1.856 9.28 0 3.584-.618 6.677-1.856 9.28-1.237 2.602-2.965 4.608-5.184 6.016-2.176 1.365-4.672 2.048-7.488 2.048-2.474 0-4.565-.512-6.272-1.536-1.706-1.024-2.965-2.219-3.776-3.584h-.384l.384 4.672v13.248h-6.784Zm15.488-19.136c2.603 0 4.758-.918 6.464-2.752 1.75-1.878 2.624-4.63 2.624-8.256 0-3.627-.874-6.358-2.624-8.192-1.706-1.878-3.861-2.816-6.464-2.816-2.602 0-4.778.938-6.528 2.816-1.706 1.834-2.56 4.565-2.56 8.192 0 3.626.854 6.378 2.56 8.256 1.75 1.834 3.926 2.752 6.528 2.752Zm38.119 6.336c-3.328 0-6.229-.726-8.704-2.176-2.432-1.494-4.309-3.542-5.632-6.144-1.322-2.646-1.984-5.654-1.984-9.024 0-3.414.662-6.422 1.984-9.024 1.323-2.603 3.2-4.63 5.632-6.08 2.475-1.494 5.376-2.24 8.704-2.24 3.328 0 6.208.746 8.64 2.24 2.475 1.45 4.374 3.477 5.696 6.08 1.323 2.602 1.984 5.61 1.984 9.024 0 3.413-.661 6.421-1.984 9.024-1.322 2.602-3.221 4.65-5.696 6.144-2.432 1.45-5.312 2.176-8.64 2.176Zm0-6.336c2.774 0 5.056-.939 6.848-2.816 1.792-1.92 2.688-4.651 2.688-8.192 0-3.542-.896-6.251-2.688-8.128-1.792-1.92-4.074-2.88-6.848-2.88-2.773 0-5.056.96-6.848 2.88-1.792 1.877-2.688 4.586-2.688 8.128 0 3.541.896 6.272 2.688 8.192 1.792 1.877 4.075 2.816 6.848 2.816Zm38.503 6.336c-4.266 0-7.552-.939-9.856-2.816-2.304-1.878-3.797-4.352-4.48-7.424l6.592-1.216c.384 1.578 1.195 2.88 2.432 3.904 1.28.981 3.051 1.472 5.312 1.472 1.92 0 3.542-.342 4.864-1.024 1.366-.726 2.048-1.771 2.048-3.136 0-1.323-.576-2.347-1.728-3.072-1.109-.726-2.752-1.302-4.928-1.728l-3.968-.704c-2.73-.47-4.97-1.472-6.72-3.008-1.749-1.536-2.624-3.648-2.624-6.336 0-1.878.555-3.52 1.664-4.928 1.11-1.451 2.603-2.582 4.48-3.392 1.92-.854 4.096-1.28 6.528-1.28 3.584 0 6.507.725 8.768 2.176 2.304 1.45 3.755 3.733 4.352 6.848l-6.08 1.088c-.512-1.622-1.386-2.752-2.624-3.392-1.237-.683-2.688-1.024-4.352-1.024-1.706 0-3.157.362-4.352 1.088-1.194.682-1.792 1.557-1.792 2.624 0 1.152.47 2.069 1.408 2.752.982.64 2.39 1.13 4.224 1.472l4.736.832c3.2.554 5.632 1.578 7.296 3.072 1.664 1.45 2.496 3.69 2.496 6.72 0 2.09-.597 3.925-1.792 5.504-1.194 1.578-2.837 2.794-4.928 3.648-2.09.853-4.416 1.28-6.976 1.28Zm38.247-39.808c-1.493 0-2.752-.512-3.776-1.536s-1.536-2.283-1.536-3.776c0-1.451.512-2.688 1.536-3.712s2.283-1.536 3.776-1.536c1.494 0 2.752.512 3.776 1.536s1.536 2.261 1.536 3.712c0 1.493-.512 2.752-1.536 3.776s-2.282 1.536-3.776 1.536Zm-14.656 38.784v-6.208h11.2V36.373h-9.28v-6.208h16.128v26.432h11.264v6.208h-29.312Zm58.919.96c-3.37 0-6.08-.982-8.128-2.944-2.048-2.006-3.072-4.864-3.072-8.576V36.117h-7.488v-5.952h7.488v-8.96h6.848v8.96h11.968v5.952h-11.968v15.488c0 1.834.47 3.264 1.408 4.288.939.981 2.347 1.472 4.224 1.472 1.622 0 3.2-.427 4.736-1.28l1.984 5.76a13.384 13.384 0 0 1-3.456 1.408c-1.152.341-2.666.512-4.544.512Zm32.935.064c-3.285 0-6.122-.726-8.512-2.176-2.346-1.451-4.181-3.478-5.504-6.08-1.28-2.603-1.92-5.611-1.92-9.024 0-3.456.662-6.486 1.984-9.088 1.366-2.646 3.243-4.694 5.632-6.144 2.432-1.451 5.206-2.176 8.32-2.176 4.907 0 8.64 1.408 11.2 4.224 2.56 2.773 3.84 6.549 3.84 11.328 0 1.152-.064 2.24-.192 3.264h-24.128c.214 3.157 1.174 5.568 2.88 7.232 1.75 1.664 3.968 2.496 6.656 2.496 2.176 0 3.904-.491 5.184-1.472 1.28-1.024 2.198-2.283 2.752-3.776l5.952 1.6c-.896 2.944-2.538 5.312-4.928 7.104-2.346 1.792-5.418 2.688-9.216 2.688Zm0-28.928c-2.261 0-4.181.661-5.76 1.984-1.578 1.322-2.645 3.306-3.2 5.952h17.28c-.128-2.39-.896-4.31-2.304-5.76-1.408-1.451-3.413-2.176-6.016-2.176Zm62.03 27.904v-6.4h10.816V23.38h-10.304v-6.4h27.52v6.4h-10.24v33.024h10.752v6.4h-28.544Zm38.887 0v-32.64h6.464v4.096h.384c.854-1.536 2.155-2.774 3.904-3.712 1.792-.939 3.755-1.408 5.888-1.408 3.67 0 6.507 1.109 8.512 3.328 2.006 2.218 3.008 5.269 3.008 9.152v21.184h-6.784V42.517c0-2.39-.618-4.16-1.856-5.312-1.237-1.152-2.837-1.728-4.8-1.728-2.389 0-4.309.874-5.76 2.624-1.408 1.749-2.112 3.84-2.112 6.272v18.432h-6.848Zm50.663 1.024c-2.816 0-5.312-.683-7.488-2.048-2.176-1.408-3.904-3.414-5.184-6.016-1.237-2.603-1.856-5.696-1.856-9.28 0-3.627.64-6.72 1.92-9.28 1.28-2.603 3.03-4.587 5.248-5.952 2.219-1.408 4.715-2.112 7.488-2.112 2.475 0 4.544.49 6.208 1.472 1.664.938 2.902 2.154 3.712 3.648h.384l-.384-4.672V16.98h6.784v45.824h-6.4v-4.096h-.384c-.896 1.322-2.176 2.517-3.84 3.584-1.621 1.024-3.69 1.536-6.208 1.536Zm1.344-6.336c2.603 0 4.758-.939 6.464-2.816 1.75-1.878 2.624-4.608 2.624-8.192 0-3.584-.874-6.315-2.624-8.192-1.706-1.878-3.861-2.816-6.464-2.816-2.602 0-4.778.938-6.528 2.816-1.706 1.877-2.56 4.608-2.56 8.192 0 3.584.854 6.314 2.56 8.192 1.75 1.877 3.926 2.816 6.528 2.816Zm38.951 6.336c-3.285 0-6.122-.726-8.512-2.176-2.346-1.451-4.181-3.478-5.504-6.08-1.28-2.603-1.92-5.611-1.92-9.024 0-3.456.662-6.486 1.984-9.088 1.366-2.646 3.243-4.694 5.632-6.144 2.432-1.451 5.206-2.176 8.32-2.176 4.907 0 8.64 1.408 11.2 4.224 2.56 2.773 3.84 6.549 3.84 11.328 0 1.152-.064 2.24-.192 3.264h-24.128c.214 3.157 1.174 5.568 2.88 7.232 1.75 1.664 3.968 2.496 6.656 2.496 2.176 0 3.904-.491 5.184-1.472 1.28-1.024 2.198-2.283 2.752-3.776l5.952 1.6c-.896 2.944-2.538 5.312-4.928 7.104-2.346 1.792-5.418 2.688-9.216 2.688Zm0-28.928c-2.261 0-4.181.661-5.76 1.984-1.578 1.322-2.645 3.306-3.2 5.952h17.28c-.128-2.39-.896-4.31-2.304-5.76-1.408-1.451-3.413-2.176-6.016-2.176Zm22.055 27.904 11.776-16.576-11.712-16.064h8l7.744 10.816h.192l7.424-10.816h8.256l-11.904 16.064 11.904 16.576h-7.936l-7.872-11.2h-.128l-7.872 11.2h-7.872Z" fill="#fff"/><path d="M15.185 123.509c-3.696 0-6.6-1.408-8.712-4.224-2.112-2.816-3.168-6.894-3.168-12.232 0-3.579.484-6.586 1.452-9.02.998-2.435 2.391-4.283 4.18-5.544 1.79-1.262 3.902-1.892 6.336-1.892 3.08 0 5.647.894 7.7 2.684 2.083 1.76 3.271 4.326 3.564 7.7l-4.664.792c-.234-2.024-.894-3.623-1.98-4.796-1.085-1.203-2.625-1.804-4.62-1.804-2.053 0-3.754.953-5.104 2.86-1.349 1.877-2.024 4.884-2.024 9.02 0 4.136.675 7.157 2.024 9.064 1.35 1.877 3.051 2.816 5.104 2.816 1.878 0 3.388-.587 4.532-1.76 1.174-1.203 1.907-2.846 2.2-4.928l4.576.572c-.41 3.314-1.584 5.925-3.52 7.832-1.936 1.906-4.56 2.86-7.876 2.86Zm25.327 0c-1.936 0-3.652-.47-5.148-1.408-1.496-.968-2.684-2.347-3.564-4.136-.85-1.79-1.276-3.916-1.276-6.38 0-2.494.44-4.62 1.32-6.38.88-1.79 2.083-3.154 3.608-4.092 1.526-.968 3.242-1.452 5.148-1.452 1.702 0 3.124.337 4.268 1.012 1.144.645 1.995 1.481 2.552 2.508h.264v-2.816h4.4v22.44h-4.4v-2.816h-.264c-.616.909-1.496 1.73-2.64 2.464-1.114.704-2.537 1.056-4.268 1.056Zm.924-4.356c1.79 0 3.27-.646 4.444-1.936 1.203-1.291 1.804-3.168 1.804-5.632 0-2.464-.601-4.342-1.804-5.632-1.173-1.291-2.654-1.936-4.444-1.936s-3.285.645-4.488 1.936c-1.173 1.29-1.76 3.168-1.76 5.632 0 2.464.587 4.341 1.76 5.632 1.203 1.29 2.699 1.936 4.488 1.936Zm30.519 4.312c-2.317 0-4.18-.675-5.588-2.024-1.408-1.379-2.112-3.344-2.112-5.896v-11.088h-5.148v-4.092h5.148v-6.16h4.708v6.16h8.228v4.092h-8.228v10.648c0 1.261.323 2.244.968 2.948.645.674 1.613 1.012 2.904 1.012 1.115 0 2.2-.294 3.256-.88l1.364 3.96a9.229 9.229 0 0 1-2.376.968c-.792.234-1.833.352-3.124.352Zm22.643.044c-2.259 0-4.21-.499-5.852-1.496-1.614-.998-2.875-2.391-3.784-4.18-.88-1.79-1.32-3.858-1.32-6.204 0-2.376.455-4.459 1.364-6.248.939-1.819 2.23-3.227 3.872-4.224 1.672-.998 3.579-1.496 5.72-1.496 3.373 0 5.94.968 7.7 2.904 1.76 1.906 2.64 4.502 2.64 7.788 0 .792-.044 1.54-.132 2.244H88.218c.147 2.17.806 3.828 1.98 4.972 1.203 1.144 2.728 1.716 4.576 1.716 1.496 0 2.684-.338 3.564-1.012a5.916 5.916 0 0 0 1.892-2.596l4.092 1.1c-.616 2.024-1.745 3.652-3.388 4.884-1.614 1.232-3.725 1.848-6.336 1.848Zm0-19.888c-1.555 0-2.875.454-3.96 1.364-1.086.909-1.819 2.273-2.2 4.092h11.88c-.088-1.643-.616-2.963-1.584-3.96-.968-.998-2.347-1.496-4.136-1.496Zm25.811 29.392c-2.875 0-5.163-.704-6.864-2.112-1.702-1.379-2.758-3.095-3.168-5.148l4.576-1.012c.352 1.173.968 2.141 1.848 2.904.909.792 2.112 1.188 3.608 1.188 2.024 0 3.578-.646 4.664-1.936 1.085-1.262 1.628-3.007 1.628-5.236v-2.464h-.264c-.763 1.114-1.716 1.965-2.86 2.552-1.115.586-2.508.88-4.18.88-1.76 0-3.374-.455-4.84-1.364-1.438-.91-2.596-2.215-3.476-3.916-.88-1.702-1.32-3.77-1.32-6.204 0-2.435.44-4.503 1.32-6.204.88-1.702 2.053-3.007 3.52-3.916 1.496-.91 3.138-1.364 4.928-1.364 1.496 0 2.845.293 4.048.88 1.202.586 2.156 1.408 2.86 2.464h.264v-2.64h4.444v21.208c0 3.696-.983 6.526-2.948 8.492-1.966 1.965-4.562 2.948-7.788 2.948Zm.132-14.696c1.672 0 3.109-.587 4.312-1.76 1.232-1.203 1.848-3.007 1.848-5.412 0-2.406-.616-4.195-1.848-5.368-1.203-1.203-2.64-1.804-4.312-1.804a6.088 6.088 0 0 0-3.036.792c-.939.528-1.687 1.334-2.244 2.42-.558 1.056-.836 2.376-.836 3.96 0 2.405.601 4.209 1.804 5.412 1.232 1.173 2.669 1.76 4.312 1.76Zm26.514 5.192c-2.288 0-4.282-.499-5.984-1.496-1.672-1.027-2.962-2.435-3.872-4.224-.909-1.819-1.364-3.887-1.364-6.204 0-2.347.455-4.415 1.364-6.204.91-1.79 2.2-3.183 3.872-4.18 1.702-1.027 3.696-1.54 5.984-1.54s4.268.513 5.94 1.54c1.702.997 3.007 2.39 3.916 4.18.91 1.789 1.364 3.857 1.364 6.204 0 2.346-.454 4.414-1.364 6.204a10.264 10.264 0 0 1-3.916 4.224c-1.672.997-3.652 1.496-5.94 1.496Zm0-4.356c1.907 0 3.476-.646 4.708-1.936 1.232-1.32 1.848-3.198 1.848-5.632 0-2.435-.616-4.298-1.848-5.588-1.232-1.32-2.801-1.98-4.708-1.98-1.906 0-3.476.66-4.708 1.98-1.232 1.29-1.848 3.153-1.848 5.588 0 2.434.616 4.312 1.848 5.632 1.232 1.29 2.802 1.936 4.708 1.936Zm19.035 3.652v-22.44h4.444v3.784h.264c.646-1.408 1.584-2.508 2.816-3.3 1.262-.792 2.758-1.188 4.488-1.188.851 0 1.643.073 2.376.22.763.117 1.379.322 1.848.616v4.928a10.766 10.766 0 0 0-2.376-.924c-.85-.235-1.789-.352-2.816-.352-1.994 0-3.549.689-4.664 2.068-1.114 1.349-1.672 3.05-1.672 5.104v11.484h-4.708Zm26.383 9.856c-.851 0-1.599-.074-2.244-.22a9.851 9.851 0 0 1-1.672-.44v-4.488c.352.176.865.366 1.54.572a7.538 7.538 0 0 0 2.2.308c.968 0 1.76-.279 2.376-.836.616-.558 1.203-1.496 1.76-2.816l1.012-2.42-9.02-21.956h5.192l6.16 15.84h.22l6.468-15.84h5.148l-11.176 26.268c-.557 1.32-1.173 2.42-1.848 3.3-.645.909-1.452 1.584-2.42 2.024-.968.469-2.2.704-3.696.704Zm24.975-.352v-4.092h17.512v4.092h-17.512Zm35.183-8.8c-3.696 0-6.6-1.408-8.712-4.224-2.112-2.816-3.168-6.894-3.168-12.232 0-3.579.484-6.586 1.452-9.02.997-2.435 2.39-4.283 4.18-5.544 1.789-1.262 3.901-1.892 6.336-1.892 3.08 0 5.646.894 7.7 2.684 2.082 1.76 3.27 4.326 3.564 7.7l-4.664.792c-.235-2.024-.895-3.623-1.98-4.796-1.086-1.203-2.626-1.804-4.62-1.804-2.054 0-3.755.953-5.104 2.86-1.35 1.877-2.024 4.884-2.024 9.02 0 4.136.674 7.157 2.024 9.064 1.349 1.877 3.05 2.816 5.104 2.816 1.877 0 3.388-.587 4.532-1.76 1.173-1.203 1.906-2.846 2.2-4.928l4.576.572c-.411 3.314-1.584 5.925-3.52 7.832-1.936 1.906-4.562 2.86-7.876 2.86Zm26.339 0c-2.288 0-4.283-.499-5.984-1.496-1.672-1.027-2.963-2.435-3.872-4.224-.91-1.819-1.364-3.887-1.364-6.204 0-2.347.454-4.415 1.364-6.204.909-1.79 2.2-3.183 3.872-4.18 1.701-1.027 3.696-1.54 5.984-1.54s4.268.513 5.94 1.54c1.701.997 3.006 2.39 3.916 4.18.909 1.789 1.364 3.857 1.364 6.204 0 2.346-.455 4.414-1.364 6.204a10.277 10.277 0 0 1-3.916 4.224c-1.672.997-3.652 1.496-5.94 1.496Zm0-4.356c1.906 0 3.476-.646 4.708-1.936 1.232-1.32 1.848-3.198 1.848-5.632 0-2.435-.616-4.298-1.848-5.588-1.232-1.32-2.802-1.98-4.708-1.98-1.907 0-3.476.66-4.708 1.98-1.232 1.29-1.848 3.153-1.848 5.588 0 2.434.616 4.312 1.848 5.632 1.232 1.29 2.801 1.936 4.708 1.936Zm26.47 4.356c-2.933 0-5.192-.646-6.776-1.936-1.584-1.291-2.61-2.992-3.08-5.104l4.532-.836a4.9 4.9 0 0 0 1.672 2.684c.88.674 2.098 1.012 3.652 1.012 1.32 0 2.435-.235 3.344-.704.939-.499 1.408-1.218 1.408-2.156 0-.91-.396-1.614-1.188-2.112-.762-.499-1.892-.895-3.388-1.188l-2.728-.484c-1.877-.323-3.417-1.012-4.62-2.068-1.202-1.056-1.804-2.508-1.804-4.356 0-1.291.382-2.42 1.144-3.388.763-.998 1.79-1.775 3.08-2.332 1.32-.587 2.816-.88 4.488-.88 2.464 0 4.474.498 6.028 1.496 1.584.997 2.582 2.566 2.992 4.708l-4.18.748c-.352-1.115-.953-1.892-1.804-2.332-.85-.47-1.848-.704-2.992-.704-1.173 0-2.17.249-2.992.748-.821.469-1.232 1.07-1.232 1.804 0 .792.323 1.422.968 1.892.675.44 1.643.777 2.904 1.012l3.256.572c2.2.381 3.872 1.085 5.016 2.112 1.144.997 1.716 2.537 1.716 4.62 0 1.437-.41 2.698-1.232 3.784-.821 1.085-1.95 1.921-3.388 2.508-1.437.586-3.036.88-4.796.88Zm30.343-.044c-2.317 0-4.18-.675-5.588-2.024-1.408-1.379-2.112-3.344-2.112-5.896v-11.088h-5.148v-4.092h5.148v-6.16h4.708v6.16h8.228v4.092h-8.228v10.648c0 1.261.323 2.244.968 2.948.645.674 1.613 1.012 2.904 1.012 1.115 0 2.2-.294 3.256-.88l1.364 3.96a9.24 9.24 0 0 1-2.376.968c-.792.234-1.833.352-3.124.352Z" fill="#BDBDBD"/><path opacity=".4" fill="#FFD557" d="M.039 271.453h577.525v404.483H.039z"/><path d="m627.942 351.584-2.784-16.32h3.2l1.664 11.072h.128l2.56-11.072h3.264l2.592 11.072h.128l1.632-11.072h3.136l-2.784 16.32h-3.712l-2.432-10.368-.192-1.312h-.128l-.192 1.312-2.4 10.368h-3.68Zm18.292 0v-22.912h3.392v6.304l-.192 2.496h.192c.426-.768 1.098-1.408 2.016-1.92a6.112 6.112 0 0 1 3.072-.8c2.069 0 3.594.587 4.576 1.76 1.002 1.174 1.504 2.72 1.504 4.64v10.432h-3.392v-10.016c0-1.173-.32-2.069-.96-2.688-.619-.64-1.483-.96-2.592-.96-.832 0-1.568.214-2.208.64-.619.427-1.11 1.014-1.472 1.76-.363.726-.544 1.536-.544 2.432v8.832h-3.392Zm26.707.512c-1.642 0-3.061-.362-4.256-1.088-1.173-.725-2.09-1.738-2.752-3.04-.64-1.301-.96-2.805-.96-4.512 0-1.728.331-3.242.992-4.544.683-1.322 1.622-2.346 2.816-3.072 1.216-.725 2.603-1.088 4.16-1.088 2.454 0 4.32.704 5.6 2.112 1.28 1.387 1.92 3.275 1.92 5.664 0 .576-.032 1.12-.096 1.632h-12.064c.107 1.579.587 2.784 1.44 3.616.875.832 1.984 1.248 3.328 1.248 1.088 0 1.952-.245 2.592-.736a4.294 4.294 0 0 0 1.376-1.888l2.976.8c-.448 1.472-1.269 2.656-2.464 3.552-1.173.896-2.709 1.344-4.608 1.344Zm0-14.464c-1.13 0-2.09.331-2.88.992-.789.662-1.322 1.654-1.6 2.976h8.64c-.064-1.194-.448-2.154-1.152-2.88-.704-.725-1.706-1.088-3.008-1.088Zm13.62 13.952v-16.32h3.232v2.752h.192c.469-1.024 1.152-1.824 2.048-2.4.917-.576 2.005-.864 3.264-.864.618 0 1.194.054 1.728.16.554.086 1.002.235 1.344.448v3.584a7.911 7.911 0 0 0-1.728-.672 7.722 7.722 0 0 0-2.048-.256c-1.451 0-2.582.502-3.392 1.504-.811.982-1.216 2.219-1.216 3.712v8.352h-3.424Zm24.755.512c-1.642 0-3.061-.362-4.256-1.088-1.173-.725-2.09-1.738-2.752-3.04-.64-1.301-.96-2.805-.96-4.512 0-1.728.331-3.242.992-4.544.683-1.322 1.622-2.346 2.816-3.072 1.216-.725 2.603-1.088 4.16-1.088 2.454 0 4.32.704 5.6 2.112 1.28 1.387 1.92 3.275 1.92 5.664 0 .576-.032 1.12-.096 1.632h-12.064c.107 1.579.587 2.784 1.44 3.616.875.832 1.984 1.248 3.328 1.248 1.088 0 1.952-.245 2.592-.736a4.294 4.294 0 0 0 1.376-1.888l2.976.8c-.448 1.472-1.269 2.656-2.464 3.552-1.173.896-2.709 1.344-4.608 1.344Zm0-14.464c-1.13 0-2.09.331-2.88.992-.789.662-1.322 1.654-1.6 2.976h8.64c-.064-1.194-.448-2.154-1.152-2.88-.704-.725-1.706-1.088-3.008-1.088Zm22.42 19.04c-1.238-1.024-2.432-2.261-3.584-3.712-1.131-1.429-2.059-3.104-2.784-5.024-.726-1.941-1.088-4.16-1.088-6.656 0-2.496.362-4.704 1.088-6.624.725-1.941 1.653-3.626 2.784-5.056 1.152-1.45 2.346-2.688 3.584-3.712l2.24 2.656a19.696 19.696 0 0 0-3.2 3.328 15.459 15.459 0 0 0-2.24 4.192c-.534 1.558-.8 3.296-.8 5.216 0 1.92.266 3.659.8 5.216a15.43 15.43 0 0 0 2.24 4.192 19.621 19.621 0 0 0 3.2 3.328l-2.24 2.656Zm14.195-18.464v-9.536h3.104v9.536h-3.104Zm20.98 13.888c-1.558 0-2.934-.352-4.128-1.056-1.195-.725-2.123-1.738-2.784-3.04-.662-1.301-.992-2.826-.992-4.576 0-1.749.341-3.274 1.024-4.576.682-1.301 1.621-2.304 2.816-3.008 1.216-.725 2.613-1.088 4.192-1.088 1.962 0 3.594.48 4.896 1.44 1.322.96 2.133 2.304 2.432 4.032l-3.328.544a3.476 3.476 0 0 0-1.408-2.08c-.704-.533-1.59-.8-2.656-.8-1.28 0-2.368.48-3.264 1.44-.875.96-1.312 2.326-1.312 4.096 0 1.771.437 3.136 1.312 4.096.874.939 1.962 1.408 3.264 1.408 1.088 0 1.962-.256 2.624-.768.661-.533 1.152-1.29 1.472-2.272l3.2.768c-.384 1.6-1.195 2.912-2.432 3.936-1.238 1.003-2.88 1.504-4.928 1.504Zm18.195 0c-1.408 0-2.656-.341-3.744-1.024-1.088-.704-1.952-1.706-2.592-3.008-.618-1.301-.928-2.848-.928-4.64 0-1.813.32-3.36.96-4.64.64-1.301 1.515-2.293 2.624-2.976 1.11-.704 2.358-1.056 3.744-1.056 1.238 0 2.272.246 3.104.736.832.47 1.451 1.078 1.856 1.824h.192v-2.048h3.2v16.32h-3.2v-2.048h-.192c-.448.662-1.088 1.259-1.92 1.792-.81.512-1.845.768-3.104.768Zm.672-3.168c1.302 0 2.379-.469 3.232-1.408.875-.938 1.312-2.304 1.312-4.096 0-1.792-.437-3.157-1.312-4.096-.853-.938-1.93-1.408-3.232-1.408-1.301 0-2.389.47-3.264 1.408-.853.939-1.28 2.304-1.28 4.096 0 1.792.427 3.158 1.28 4.096.875.939 1.963 1.408 3.264 1.408Zm22.196 3.136c-1.686 0-3.04-.49-4.064-1.472-1.024-1.002-1.536-2.432-1.536-4.288v-8.064h-3.744v-2.976h3.744v-4.48h3.424v4.48h5.984v2.976h-5.984v7.744c0 .918.234 1.632.704 2.144.469.491 1.173.736 2.112.736.81 0 1.6-.213 2.368-.64l.992 2.88a6.694 6.694 0 0 1-1.728.704c-.576.171-1.334.256-2.272.256Zm16.467.032c-1.642 0-3.061-.362-4.256-1.088-1.173-.725-2.09-1.738-2.752-3.04-.64-1.301-.96-2.805-.96-4.512 0-1.728.331-3.242.992-4.544.683-1.322 1.622-2.346 2.816-3.072 1.216-.725 2.603-1.088 4.16-1.088 2.454 0 4.32.704 5.6 2.112 1.28 1.387 1.92 3.275 1.92 5.664 0 .576-.032 1.12-.096 1.632h-12.064c.107 1.579.587 2.784 1.44 3.616.875.832 1.984 1.248 3.328 1.248 1.088 0 1.952-.245 2.592-.736a4.294 4.294 0 0 0 1.376-1.888l2.976.8c-.448 1.472-1.269 2.656-2.464 3.552-1.173.896-2.709 1.344-4.608 1.344Zm0-14.464c-1.13 0-2.09.331-2.88.992-.789.662-1.322 1.654-1.6 2.976h8.64c-.064-1.194-.448-2.154-1.152-2.88-.704-.725-1.706-1.088-3.008-1.088Zm18.772 21.376c-2.091 0-3.755-.512-4.992-1.536-1.238-1.002-2.006-2.25-2.304-3.744l3.328-.736c.256.854.704 1.558 1.344 2.112.661.576 1.536.864 2.624.864 1.472 0 2.602-.469 3.392-1.408.789-.917 1.184-2.186 1.184-3.808v-1.792h-.192a5.58 5.58 0 0 1-2.08 1.856c-.811.427-1.824.64-3.04.64-1.28 0-2.454-.33-3.52-.992-1.046-.661-1.888-1.61-2.528-2.848-.64-1.237-.96-2.741-.96-4.512 0-1.77.32-3.274.96-4.512.64-1.237 1.493-2.186 2.56-2.848a6.77 6.77 0 0 1 3.584-.992c1.088 0 2.069.214 2.944.64.874.427 1.568 1.024 2.08 1.792h.192v-1.92h3.232v15.424c0 2.688-.715 4.747-2.144 6.176-1.43 1.43-3.318 2.144-5.664 2.144Zm.096-10.688c1.216 0 2.261-.426 3.136-1.28.896-.874 1.344-2.186 1.344-3.936 0-1.749-.448-3.05-1.344-3.904-.875-.874-1.92-1.312-3.136-1.312-.79 0-1.526.192-2.208.576-.683.384-1.227.971-1.632 1.76-.406.768-.608 1.728-.608 2.88 0 1.75.437 3.062 1.312 3.936.896.854 1.941 1.28 3.136 1.28Zm19.283 3.776c-1.664 0-3.114-.362-4.352-1.088-1.216-.746-2.154-1.77-2.816-3.072-.661-1.322-.992-2.826-.992-4.512 0-1.706.331-3.21.992-4.512.662-1.301 1.6-2.314 2.816-3.04 1.238-.746 2.688-1.12 4.352-1.12 1.664 0 3.104.374 4.32 1.12a7.257 7.257 0 0 1 2.848 3.04c.662 1.302.992 2.806.992 4.512 0 1.707-.33 3.211-.992 4.512a7.452 7.452 0 0 1-2.848 3.072c-1.216.726-2.656 1.088-4.32 1.088Zm0-3.168c1.387 0 2.528-.469 3.424-1.408.896-.96 1.344-2.325 1.344-4.096 0-1.77-.448-3.125-1.344-4.064-.896-.96-2.037-1.44-3.424-1.44-1.386 0-2.528.48-3.424 1.44-.896.939-1.344 2.294-1.344 4.064 0 1.771.448 3.136 1.344 4.096.896.939 2.038 1.408 3.424 1.408Zm13.844 2.656v-16.32h3.232v2.752h.192c.469-1.024 1.152-1.824 2.048-2.4.917-.576 2.005-.864 3.264-.864.618 0 1.194.054 1.728.16.554.086 1.002.235 1.344.448v3.584a7.911 7.911 0 0 0-1.728-.672 7.722 7.722 0 0 0-2.048-.256c-1.451 0-2.582.502-3.392 1.504-.811.982-1.216 2.219-1.216 3.712v8.352h-3.424Zm19.187 7.168a7.406 7.406 0 0 1-1.632-.16 7.113 7.113 0 0 1-1.216-.32v-3.264c.256.128.63.267 1.12.416.491.15 1.024.224 1.6.224.704 0 1.28-.202 1.728-.608.448-.405.875-1.088 1.28-2.048l.736-1.76-6.56-15.968h3.776l4.48 11.52h.16l4.704-11.52h3.744l-8.128 19.104c-.405.96-.853 1.76-1.344 2.4a4.325 4.325 0 0 1-1.76 1.472c-.704.342-1.6.512-2.688.512Zm22.996-20.544v-9.536h3.104v9.536h-3.104Zm18.195 17.504 1.664-8.832h4.576l-3.168 8.832h-3.072Zm39.367-17.504v-9.536h3.104v9.536h-3.104Zm13.62 1.248v-2.976h14.209v2.976h-14.209Zm0 6.816v-2.976h14.209v2.976h-14.209Zm19.189-6.816v-2.976h14.21v2.976h-14.21Zm0 6.816v-2.976h14.21v2.976h-14.21Zm24.75-8.064v-9.536h3.11v9.536h-3.11Zm18.2 17.504 1.66-8.832h4.58l-3.17 8.832h-3.07Zm39.37-17.504v-9.536h3.1v9.536h-3.1Zm17.94 13.376V338.24h-4.32v-2.976h4.32v-1.024c0-2.069.58-3.669 1.76-4.8 1.19-1.152 2.74-1.728 4.64-1.728.98 0 1.83.118 2.56.352.74.214 1.36.502 1.85.864l-1.31 2.88a4.977 4.977 0 0 0-2.94-.928c-1.01 0-1.79.288-2.34.864-.55.576-.83 1.419-.83 2.528v.992h5.69v2.976h-5.69v13.344h-3.39Zm21.97.512c-1.67 0-3.12-.362-4.35-1.088a7.499 7.499 0 0 1-2.82-3.072c-.66-1.322-.99-2.826-.99-4.512 0-1.706.33-3.21.99-4.512.66-1.301 1.6-2.314 2.82-3.04 1.23-.746 2.68-1.12 4.35-1.12 1.66 0 3.1.374 4.32 1.12 1.23.726 2.18 1.739 2.85 3.04.66 1.302.99 2.806.99 4.512 0 1.707-.33 3.211-.99 4.512a7.57 7.57 0 0 1-2.85 3.072c-1.22.726-2.66 1.088-4.32 1.088Zm0-3.168c1.38 0 2.53-.469 3.42-1.408.9-.96 1.35-2.325 1.35-4.096 0-1.77-.45-3.125-1.35-4.064-.89-.96-2.04-1.44-3.42-1.44-1.39 0-2.53.48-3.43 1.44-.89.939-1.34 2.294-1.34 4.064 0 1.771.45 3.136 1.34 4.096.9.939 2.04 1.408 3.43 1.408Zm19.18 3.168c-1.66 0-3.11-.362-4.35-1.088a7.543 7.543 0 0 1-2.81-3.072c-.66-1.322-1-2.826-1-4.512 0-1.706.34-3.21 1-4.512.66-1.301 1.6-2.314 2.81-3.04 1.24-.746 2.69-1.12 4.35-1.12 1.67 0 3.11.374 4.32 1.12a7.243 7.243 0 0 1 2.85 3.04c.66 1.302.99 2.806.99 4.512 0 1.707-.33 3.211-.99 4.512a7.437 7.437 0 0 1-2.85 3.072c-1.21.726-2.65 1.088-4.32 1.088Zm0-3.168c1.39 0 2.53-.469 3.43-1.408.89-.96 1.34-2.325 1.34-4.096 0-1.77-.45-3.125-1.34-4.064-.9-.96-2.04-1.44-3.43-1.44-1.38 0-2.52.48-3.42 1.44-.9.939-1.34 2.294-1.34 4.064 0 1.771.44 3.136 1.34 4.096.9.939 2.04 1.408 3.42 1.408Zm18.46 3.168c-1.41 0-2.66-.341-3.75-1.024-1.09-.704-1.95-1.706-2.59-3.008-.62-1.301-.93-2.848-.93-4.64 0-1.813.32-3.36.96-4.64.64-1.301 1.52-2.293 2.63-2.976 1.11-.704 2.35-1.056 3.74-1.056 1.24 0 2.27.246 3.1.736.84.47 1.45 1.078 1.86 1.824h.19l-.19-2.336v-6.304h3.39v22.912h-3.2v-2.048h-.19c-.45.662-1.09 1.259-1.92 1.792-.81.512-1.85.768-3.1.768Zm.67-3.168c1.3 0 2.38-.469 3.23-1.408.87-.938 1.31-2.304 1.31-4.096 0-1.792-.44-3.157-1.31-4.096-.85-.938-1.93-1.408-3.23-1.408s-2.39.47-3.27 1.408c-.85.939-1.28 2.304-1.28 4.096 0 1.792.43 3.158 1.28 4.096.88.939 1.97 1.408 3.27 1.408Zm17.71-10.72v-9.536h3.11v9.536h-3.11Zm17.27 18.464-2.24-2.656c1.2-.981 2.26-2.09 3.2-3.328a14.702 14.702 0 0 0 2.21-4.192c.55-1.557.83-3.296.83-5.216 0-1.92-.28-3.658-.83-5.216a14.729 14.729 0 0 0-2.21-4.192 19.58 19.58 0 0 0-3.2-3.328l2.24-2.656c1.24 1.024 2.42 2.262 3.55 3.712 1.16 1.43 2.09 3.115 2.82 5.056.72 1.92 1.09 4.128 1.09 6.624 0 2.496-.37 4.715-1.09 6.656-.73 1.92-1.66 3.595-2.82 5.024-1.13 1.451-2.31 2.688-3.55 3.712Z" fill="#BDBDBD"/></svg>