<svg width="1500" height="1337" fill="none" xmlns="http://www.w3.org/2000/svg"><path d="m5.678 77.413 28.24-57.28h8.56l-28.24 57.28h-8.56Zm66.929 1.28c-4.107 0-7.653-.907-10.64-2.72-2.934-1.813-5.227-4.347-6.88-7.6-1.6-3.253-2.4-7.013-2.4-11.28 0-4.32.827-8.107 2.48-11.36 1.706-3.307 4.053-5.867 7.04-7.68 3.04-1.813 6.506-2.72 10.4-2.72 6.133 0 10.8 1.76 14 5.28 3.2 3.467 4.8 8.187 4.8 14.16 0 1.44-.08 2.8-.24 4.08h-30.16c.267 3.947 1.467 6.96 3.6 9.04 2.186 2.08 4.96 3.12 8.32 3.12 2.72 0 4.88-.613 6.48-1.84 1.6-1.28 2.746-2.853 3.44-4.72l7.44 2c-1.12 3.68-3.174 6.64-6.16 8.88-2.933 2.24-6.773 3.36-11.52 3.36Zm0-36.16c-2.827 0-5.227.827-7.2 2.48-1.973 1.653-3.307 4.133-4 7.44h21.6c-.16-2.987-1.12-5.387-2.88-7.2-1.76-1.813-4.267-2.72-7.52-2.72Zm27.569 34.88 14.72-20.72-14.64-20.08h10l9.68 13.52h.24l9.28-13.52h10.32l-14.88 20.08 14.88 20.72h-9.92l-9.84-14h-.16l-9.84 14h-9.84Zm48.768 17.28v-58.08h8v5.28h.48c1.067-1.76 2.667-3.28 4.8-4.56 2.187-1.333 4.774-2 7.76-2 3.52 0 6.64.88 9.36 2.64 2.774 1.707 4.934 4.187 6.48 7.44 1.547 3.2 2.32 7.067 2.32 11.6 0 4.48-.773 8.347-2.32 11.6-1.546 3.253-3.706 5.76-6.48 7.52-2.72 1.707-5.84 2.56-9.36 2.56-3.093 0-5.706-.64-7.84-1.92-2.133-1.28-3.706-2.773-4.72-4.48h-.48l.48 5.84v16.56h-8.48Zm19.36-23.92c3.254 0 5.947-1.147 8.08-3.44 2.187-2.347 3.28-5.787 3.28-10.32s-1.093-7.947-3.28-10.24c-2.133-2.347-4.826-3.52-8.08-3.52-3.253 0-5.973 1.173-8.16 3.52-2.133 2.293-3.2 5.707-3.2 10.24s1.067 7.973 3.2 10.32c2.187 2.293 4.907 3.44 8.16 3.44Zm48.209 7.92c-4.107 0-7.653-.907-10.64-2.72-2.933-1.813-5.227-4.347-6.88-7.6-1.6-3.253-2.4-7.013-2.4-11.28 0-4.32.827-8.107 2.48-11.36 1.707-3.307 4.053-5.867 7.04-7.68 3.04-1.813 6.507-2.72 10.4-2.72 6.133 0 10.8 1.76 14 5.28 3.2 3.467 4.8 8.187 4.8 14.16 0 1.44-.08 2.8-.24 4.08h-30.16c.267 3.947 1.467 6.96 3.6 9.04 2.187 2.08 4.96 3.12 8.32 3.12 2.72 0 4.88-.613 6.48-1.84 1.6-1.28 2.747-2.853 3.44-4.72l7.44 2c-1.12 3.68-3.173 6.64-6.16 8.88-2.933 2.24-6.773 3.36-11.52 3.36Zm0-36.16c-2.827 0-5.227.827-7.2 2.48-1.973 1.653-3.307 4.133-4 7.44h21.6c-.16-2.987-1.12-5.387-2.88-7.2-1.76-1.813-4.267-2.72-7.52-2.72Zm30.209 34.88v-40.8h8.08v5.12h.48c1.067-1.92 2.693-3.467 4.88-4.64 2.24-1.173 4.693-1.76 7.36-1.76 4.587 0 8.133 1.387 10.64 4.16 2.507 2.773 3.76 6.587 3.76 11.44v26.48h-8.48v-25.36c0-2.987-.773-5.2-2.32-6.64-1.547-1.44-3.547-2.16-6-2.16-2.987 0-5.387 1.093-7.2 3.28-1.76 2.187-2.64 4.8-2.64 7.84v23.04h-8.56Zm65.329 1.28c-5.334 0-9.44-1.173-12.32-3.52-2.88-2.347-4.747-5.44-5.6-9.28l8.24-1.52c.48 1.973 1.493 3.6 3.04 4.88 1.6 1.227 3.813 1.84 6.64 1.84 2.4 0 4.426-.427 6.08-1.28 1.706-.907 2.56-2.213 2.56-3.92 0-1.653-.72-2.933-2.16-3.84-1.387-.907-3.44-1.627-6.16-2.16l-4.96-.88c-3.414-.587-6.214-1.84-8.4-3.76-2.187-1.92-3.28-4.56-3.28-7.92 0-2.347.693-4.4 2.08-6.16 1.386-1.813 3.253-3.227 5.6-4.24 2.4-1.067 5.12-1.6 8.16-1.6 4.48 0 8.133.907 10.96 2.72 2.88 1.813 4.693 4.667 5.44 8.56l-7.6 1.36c-.64-2.027-1.734-3.44-3.28-4.24-1.547-.853-3.36-1.28-5.44-1.28-2.134 0-3.947.453-5.44 1.36-1.494.853-2.24 1.947-2.24 3.28 0 1.44.586 2.587 1.76 3.44 1.226.8 2.986 1.413 5.28 1.84l5.92 1.04c4 .693 7.04 1.973 9.12 3.84 2.08 1.813 3.12 4.613 3.12 8.4 0 2.613-.747 4.907-2.24 6.88-1.494 1.973-3.547 3.493-6.16 4.56-2.614 1.067-5.52 1.6-8.72 1.6Zm48.368 0c-4.106 0-7.653-.907-10.64-2.72-2.933-1.813-5.226-4.347-6.88-7.6-1.6-3.253-2.4-7.013-2.4-11.28 0-4.32.827-8.107 2.48-11.36 1.707-3.307 4.054-5.867 7.04-7.68 3.04-1.813 6.507-2.72 10.4-2.72 6.134 0 10.8 1.76 14 5.28 3.2 3.467 4.8 8.187 4.8 14.16 0 1.44-.08 2.8-.24 4.08h-30.16c.267 3.947 1.467 6.96 3.6 9.04 2.187 2.08 4.96 3.12 8.32 3.12 2.72 0 4.88-.613 6.48-1.84 1.6-1.28 2.747-2.853 3.44-4.72l7.44 2c-1.12 3.68-3.173 6.64-6.16 8.88-2.933 2.24-6.773 3.36-11.52 3.36Zm0-36.16c-2.826 0-5.226.827-7.2 2.48-1.973 1.653-3.306 4.133-4 7.44h21.6c-.16-2.987-1.12-5.387-2.88-7.2-1.76-1.813-4.266-2.72-7.52-2.72Zm47.569 36.16c-5.333 0-9.44-1.173-12.32-3.52-2.88-2.347-4.747-5.44-5.6-9.28l8.24-1.52c.48 1.973 1.493 3.6 3.04 4.88 1.6 1.227 3.813 1.84 6.64 1.84 2.4 0 4.427-.427 6.08-1.28 1.707-.907 2.56-2.213 2.56-3.92 0-1.653-.72-2.933-2.16-3.84-1.387-.907-3.44-1.627-6.16-2.16l-4.96-.88c-3.413-.587-6.213-1.84-8.4-3.76-2.187-1.92-3.28-4.56-3.28-7.92 0-2.347.693-4.4 2.08-6.16 1.387-1.813 3.253-3.227 5.6-4.24 2.4-1.067 5.12-1.6 8.16-1.6 4.48 0 8.133.907 10.96 2.72 2.88 1.813 4.693 4.667 5.44 8.56l-7.6 1.36c-.64-2.027-1.733-3.44-3.28-4.24-1.547-.853-3.36-1.28-5.44-1.28-2.133 0-3.947.453-5.44 1.36-1.493.853-2.24 1.947-2.24 3.28 0 1.44.587 2.587 1.76 3.44 1.227.8 2.987 1.413 5.28 1.84l5.92 1.04c4 .693 7.04 1.973 9.12 3.84 2.08 1.813 3.12 4.613 3.12 8.4 0 2.613-.747 4.907-2.24 6.88-1.493 1.973-3.547 3.493-6.16 4.56-2.613 1.067-5.52 1.6-8.72 1.6Z" fill="#F0F0F0"/><path d="M79.615 190.496 99.383 150.4h5.992l-19.768 40.096h-5.992Zm50.658-33.992c-1.306 0-2.408-.448-3.304-1.344-.858-.896-1.288-1.979-1.288-3.248 0-1.27.43-2.352 1.288-3.248.896-.896 1.998-1.344 3.304-1.344 1.27 0 2.352.448 3.248 1.344.896.896 1.344 1.978 1.344 3.248 0 1.269-.448 2.352-1.344 3.248-.896.896-1.978 1.344-3.248 1.344Zm-7.224 46.648c-2.016 0-3.733-.187-5.152-.56-1.381-.336-2.594-.803-3.64-1.4l2.24-5.264c.747.448 1.643.84 2.688 1.176a9.597 9.597 0 0 0 3.248.56c1.755 0 2.987-.542 3.696-1.624.747-1.046 1.12-2.352 1.12-3.92v-24.808h-10.584v-5.376h16.576v30.016c0 3.584-.933 6.346-2.8 8.288-1.829 1.941-4.293 2.912-7.392 2.912Zm23.835-12.656V150.4h5.936v11.032l-.336 4.368h.336c.746-1.344 1.922-2.464 3.528-3.36 1.642-.934 3.434-1.4 5.376-1.4 3.621 0 6.29 1.026 8.008 3.08 1.754 2.053 2.632 4.76 2.632 8.12v18.256h-5.936v-17.528c0-2.054-.56-3.622-1.68-4.704-1.083-1.12-2.595-1.68-4.536-1.68-1.456 0-2.744.373-3.864 1.12-1.083.746-1.942 1.773-2.576 3.08-.635 1.269-.952 2.688-.952 4.256v15.456h-5.936Zm51.498.84c-2.95 0-5.32-.859-7.112-2.576-1.792-1.755-2.688-4.256-2.688-7.504v-14.112h-6.552v-5.208h6.552v-7.84h5.992v7.84h10.472v5.208h-10.472v13.552c0 1.605.41 2.856 1.232 3.752.821.858 2.053 1.288 3.696 1.288 1.418 0 2.8-.374 4.144-1.12l1.736 5.04c-.971.56-1.979.97-3.024 1.232-1.008.298-2.334.448-3.976.448Zm16.386-.84v-5.824c3.36-2.539 6.234-4.835 8.624-6.888 2.426-2.054 4.405-3.976 5.936-5.768 1.456-1.68 2.538-3.342 3.248-4.984a13.006 13.006 0 0 0 1.064-5.208c0-2.203-.598-3.864-1.792-4.984-1.195-1.12-2.838-1.68-4.928-1.68-1.979 0-3.584.597-4.816 1.792-1.195 1.157-1.904 2.744-2.128 4.76l-5.712-.56c.149-2.128.728-4.07 1.736-5.824 1.045-1.792 2.482-3.211 4.312-4.256 1.866-1.046 4.088-1.568 6.664-1.568 3.994 0 7.112 1.045 9.352 3.136 2.277 2.053 3.416 4.928 3.416 8.624 0 2.688-.56 5.189-1.68 7.504-1.083 2.314-2.502 4.517-4.256 6.608a49.23 49.23 0 0 1-5.04 4.984 74.311 74.311 0 0 1-5.88 4.536l.112.168h17.64v5.432h-25.872Zm49.034 0v-8.064H245.77v-4.704l17.584-27.328h6.384v26.376h5.208v5.656h-5.208v8.064h-5.936Zm-11.256-13.72h11.256v-16.912h-.336l-10.92 16.912Zm32.066 26.264c-1.083 0-2.035-.094-2.856-.28-.821-.15-1.531-.336-2.128-.56v-5.712c.448.224 1.101.466 1.96.728a9.59 9.59 0 0 0 2.8.392c1.232 0 2.24-.355 3.024-1.064.784-.71 1.531-1.904 2.24-3.584l1.288-3.08-11.48-27.944h6.608l7.84 20.16h.28l8.232-20.16h6.552l-14.224 33.432c-.709 1.68-1.493 3.08-2.352 4.2-.821 1.157-1.848 2.016-3.08 2.576-1.232.597-2.8.896-4.704.896Zm30.162-12.544V150.4h5.936v11.032l-.336 4.368h.336c.747-1.344 1.923-2.464 3.528-3.36 1.643-.934 3.435-1.4 5.376-1.4 3.622 0 6.291 1.026 8.008 3.08 1.755 2.053 2.632 4.76 2.632 8.12v18.256h-5.936v-17.528c0-2.054-.56-3.622-1.68-4.704-1.082-1.12-2.594-1.68-4.536-1.68-1.456 0-2.744.373-3.864 1.12-1.082.746-1.941 1.773-2.576 3.08-.634 1.269-.952 2.688-.952 4.256v15.456h-5.936Zm46.01 12.992c-3.658 0-6.57-.896-8.736-2.688-2.165-1.755-3.509-3.939-4.032-6.552l5.824-1.288c.448 1.493 1.232 2.725 2.352 3.696 1.158 1.008 2.688 1.512 4.592 1.512 2.576 0 4.555-.822 5.936-2.464 1.382-1.606 2.072-3.827 2.072-6.664v-3.136h-.336c-.97 1.418-2.184 2.501-3.64 3.248-1.418.746-3.192 1.12-5.32 1.12-2.24 0-4.293-.579-6.16-1.736-1.829-1.158-3.304-2.819-4.424-4.984-1.12-2.166-1.68-4.798-1.68-7.896 0-3.099.56-5.731 1.68-7.896 1.12-2.166 2.614-3.827 4.48-4.984 1.904-1.158 3.995-1.736 6.272-1.736 1.904 0 3.622.373 5.152 1.12 1.531.746 2.744 1.792 3.64 3.136h.336v-3.36h5.656v26.992c0 4.704-1.25 8.306-3.752 10.808-2.501 2.501-5.805 3.752-9.912 3.752Zm.168-18.704c2.128 0 3.958-.747 5.488-2.24 1.568-1.531 2.352-3.827 2.352-6.888 0-3.062-.784-5.339-2.352-6.832-1.53-1.531-3.36-2.296-5.488-2.296a7.755 7.755 0 0 0-3.864 1.008c-1.194.672-2.146 1.698-2.856 3.08-.709 1.344-1.064 3.024-1.064 5.04 0 3.061.766 5.357 2.296 6.888 1.568 1.493 3.398 2.24 5.488 2.24Zm37.946-28.28c-1.306 0-2.408-.448-3.304-1.344-.858-.896-1.288-1.979-1.288-3.248 0-1.27.43-2.352 1.288-3.248.896-.896 1.998-1.344 3.304-1.344 1.27 0 2.352.448 3.248 1.344.896.896 1.344 1.978 1.344 3.248 0 1.269-.448 2.352-1.344 3.248-.896.896-1.978 1.344-3.248 1.344Zm-7.224 46.648c-2.016 0-3.733-.187-5.152-.56-1.381-.336-2.594-.803-3.64-1.4l2.24-5.264c.747.448 1.643.84 2.688 1.176a9.597 9.597 0 0 0 3.248.56c1.755 0 2.987-.542 3.696-1.624.747-1.046 1.12-2.352 1.12-3.92v-24.808H385.29v-5.376h16.576v30.016c0 3.584-.933 6.346-2.8 8.288-1.829 1.941-4.293 2.912-7.392 2.912Zm35.315-11.76c-2.464 0-4.648-.598-6.552-1.792-1.904-1.232-3.416-2.987-4.536-5.264-1.083-2.278-1.624-4.984-1.624-8.12 0-3.174.56-5.88 1.68-8.12 1.12-2.278 2.65-4.014 4.592-5.208 1.941-1.232 4.125-1.848 6.552-1.848 2.165 0 3.976.429 5.432 1.288 1.456.821 2.538 1.885 3.248 3.192h.336v-3.584h5.6v28.56h-5.6v-3.584h-.336c-.784 1.157-1.904 2.202-3.36 3.136-1.419.896-3.23 1.344-5.432 1.344Zm1.176-5.544c2.277 0 4.162-.822 5.656-2.464 1.53-1.643 2.296-4.032 2.296-7.168s-.766-5.526-2.296-7.168c-1.494-1.643-3.379-2.464-5.656-2.464-2.278 0-4.182.821-5.712 2.464-1.494 1.642-2.24 4.032-2.24 7.168s.746 5.525 2.24 7.168c1.53 1.642 3.434 2.464 5.712 2.464Zm33.802 5.544c-3.734 0-6.608-.822-8.624-2.464-2.016-1.643-3.323-3.808-3.92-6.496l5.768-1.064a6.23 6.23 0 0 0 2.128 3.416c1.12.858 2.669 1.288 4.648 1.288 1.68 0 3.098-.299 4.256-.896 1.194-.635 1.792-1.55 1.792-2.744 0-1.158-.504-2.054-1.512-2.688-.971-.635-2.408-1.139-4.312-1.512l-3.472-.616c-2.39-.411-4.35-1.288-5.88-2.632-1.531-1.344-2.296-3.192-2.296-5.544 0-1.643.485-3.08 1.456-4.312.97-1.27 2.277-2.259 3.92-2.968 1.68-.747 3.584-1.12 5.712-1.12 3.136 0 5.693.634 7.672 1.904 2.016 1.269 3.285 3.266 3.808 5.992l-5.32.952c-.448-1.419-1.214-2.408-2.296-2.968-1.083-.598-2.352-.896-3.808-.896-1.494 0-2.763.317-3.808.952-1.046.597-1.568 1.362-1.568 2.296 0 1.008.41 1.81 1.232 2.408.858.56 2.09.989 3.696 1.288l4.144.728c2.8.485 4.928 1.381 6.384 2.688 1.456 1.269 2.184 3.229 2.184 5.88 0 1.829-.523 3.434-1.568 4.816-1.046 1.381-2.483 2.445-4.312 3.192-1.83.746-3.864 1.12-6.104 1.12Zm33.13 0c-2.278 0-4.368-.448-6.272-1.344a12.833 12.833 0 0 1-4.76-3.808c-1.232-1.68-1.979-3.696-2.24-6.048l5.88-1.344c.298 2.053 1.101 3.696 2.408 4.928 1.306 1.232 2.968 1.848 4.984 1.848 2.165 0 3.92-.616 5.264-1.848 1.344-1.27 2.016-2.912 2.016-4.928 0-2.128-.691-3.771-2.072-4.928-1.344-1.158-3.192-1.736-5.544-1.736h-3.136v-5.432h2.912c1.866 0 3.453-.504 4.76-1.512 1.344-1.046 2.016-2.52 2.016-4.424 0-1.718-.579-3.099-1.736-4.144-1.12-1.083-2.651-1.624-4.592-1.624-1.755 0-3.211.504-4.368 1.512-1.158.97-1.886 2.258-2.184 3.864l-5.712-.728c.261-1.942.933-3.678 2.016-5.208a12.162 12.162 0 0 1 4.256-3.64c1.754-.896 3.77-1.344 6.048-1.344 2.426 0 4.554.466 6.384 1.4 1.866.933 3.304 2.202 4.312 3.808 1.008 1.605 1.512 3.397 1.512 5.376 0 1.605-.262 2.968-.784 4.088-.523 1.12-1.195 2.053-2.016 2.8a14.615 14.615 0 0 1-2.464 1.904v.336c1.904.784 3.453 1.978 4.648 3.584 1.194 1.605 1.792 3.733 1.792 6.384 0 2.314-.56 4.386-1.68 6.216-1.12 1.829-2.688 3.285-4.704 4.368-2.016 1.082-4.331 1.624-6.944 1.624Zm24.562-.896v-28.56h5.656v4.816h.336c.821-1.792 2.016-3.192 3.584-4.2 1.605-1.008 3.509-1.512 5.712-1.512 1.083 0 2.091.093 3.024.28.971.149 1.755.41 2.352.784v6.272a13.72 13.72 0 0 0-3.024-1.176c-1.083-.299-2.277-.448-3.584-.448-2.539 0-4.517.877-5.936 2.632-1.419 1.717-2.128 3.882-2.128 6.496v14.616h-5.992Zm41.642.896c-2.464 0-4.648-.598-6.552-1.792-1.904-1.232-3.416-2.987-4.536-5.264-1.083-2.278-1.624-4.984-1.624-8.12 0-3.174.56-5.88 1.68-8.12 1.12-2.278 2.651-4.014 4.592-5.208 1.941-1.232 4.125-1.848 6.552-1.848 2.165 0 3.976.429 5.432 1.288 1.456.821 2.539 1.885 3.248 3.192h.336v-3.584h5.6v28.56h-5.6v-3.584h-.336c-.784 1.157-1.904 2.202-3.36 3.136-1.419.896-3.229 1.344-5.432 1.344Zm1.176-5.544c2.277 0 4.163-.822 5.656-2.464 1.531-1.643 2.296-4.032 2.296-7.168s-.765-5.526-2.296-7.168c-1.493-1.643-3.379-2.464-5.656-2.464-2.277 0-4.181.821-5.712 2.464-1.493 1.642-2.24 4.032-2.24 7.168s.747 5.525 2.24 7.168c1.531 1.642 3.435 2.464 5.712 2.464ZM79.615 789.504l19.768-40.096h5.992l-19.768 40.096h-5.992Zm43.994.896c-3.248 0-5.749-.97-7.504-2.912-1.754-1.978-2.632-4.648-2.632-8.008v-18.536h5.992v17.752c0 2.091.542 3.64 1.624 4.648 1.083 1.008 2.483 1.512 4.2 1.512 2.091 0 3.752-.746 4.984-2.24 1.27-1.53 1.904-3.378 1.904-5.544v-16.128h5.936v28.56h-5.6v-3.64h-.336c-.746 1.344-1.904 2.446-3.472 3.304-1.53.822-3.229 1.232-5.096 1.232Zm31.171-.896v-23.352h-7.56v-5.208h7.56v-1.792c0-3.621 1.026-6.421 3.08-8.4 2.09-2.016 4.797-3.024 8.12-3.024 1.717 0 3.21.206 4.48.616 1.306.374 2.389.878 3.248 1.512l-2.296 5.04c-1.531-1.082-3.248-1.624-5.152-1.624-1.755 0-3.118.504-4.088 1.512-.971 1.008-1.456 2.483-1.456 4.424v1.736h9.968v5.208h-9.968v23.352h-5.936Zm24.562 0v-40.096h6.104v16.688h15.624v-16.688h6.048v40.096h-6.048V771.92h-15.624v17.584h-6.104Zm46.626.896c-2.763 0-5.227-.784-7.392-2.352-2.128-1.605-3.808-3.957-5.04-7.056-1.232-3.136-1.848-6.981-1.848-11.536 0-4.554.672-8.381 2.016-11.48 1.344-3.136 3.154-5.488 5.432-7.056 2.277-1.605 4.834-2.408 7.672-2.408 3.994 0 7.168 1.027 9.52 3.08 2.389 2.054 3.92 4.854 4.592 8.4l-5.712 1.568c-.523-2.202-1.475-3.957-2.856-5.264-1.382-1.306-3.192-1.96-5.432-1.96-1.643 0-3.155.523-4.536 1.568-1.344 1.008-2.446 2.632-3.304 4.872-.822 2.203-1.232 5.096-1.232 8.68 0 5.227.84 9.054 2.52 11.48 1.68 2.427 3.77 3.64 6.272 3.64 1.978 0 3.602-.485 4.872-1.456 1.269-.97 2.24-2.24 2.912-3.808.709-1.605 1.157-3.36 1.344-5.264h-8.96v-5.376h14.896v20.832h-5.6v-5.152h-.336c-.896 1.904-2.147 3.398-3.752 4.48-1.568 1.046-3.584 1.568-6.048 1.568Zm20.922-.896v-40.096h14.336c3.957 0 7.093 1.083 9.408 3.248 2.352 2.128 3.528 5.134 3.528 9.016 0 2.95-.859 5.414-2.576 7.392a12.655 12.655 0 0 1-6.328 3.92l-.112.28 9.296 15.904v.336h-6.608l-9.296-15.736h-5.544v15.736h-6.104Zm6.104-21.392h8.344c1.979 0 3.584-.541 4.816-1.624 1.232-1.12 1.848-2.744 1.848-4.872 0-2.128-.597-3.733-1.792-4.816-1.195-1.082-2.819-1.624-4.872-1.624h-8.344v12.936Zm40.634 22.288c-2.277 0-4.368-.448-6.272-1.344a12.823 12.823 0 0 1-4.76-3.808c-1.232-1.68-1.979-3.696-2.24-6.048l5.88-1.344c.299 2.054 1.101 3.696 2.408 4.928 1.307 1.232 2.968 1.848 4.984 1.848 2.165 0 3.92-.616 5.264-1.848 1.344-1.269 2.016-2.912 2.016-4.928 0-2.128-.691-3.77-2.072-4.928-1.344-1.157-3.192-1.736-5.544-1.736h-3.136v-5.432h2.912c1.867 0 3.453-.504 4.76-1.512 1.344-1.045 2.016-2.52 2.016-4.424 0-1.717-.579-3.098-1.736-4.144-1.12-1.082-2.651-1.624-4.592-1.624-1.755 0-3.211.504-4.368 1.512-1.157.971-1.885 2.259-2.184 3.864l-5.712-.728c.261-1.941.933-3.677 2.016-5.208a12.181 12.181 0 0 1 4.256-3.64c1.755-.896 3.771-1.344 6.048-1.344 2.427 0 4.555.467 6.384 1.4 1.867.934 3.304 2.203 4.312 3.808 1.008 1.606 1.512 3.398 1.512 5.376 0 1.606-.261 2.968-.784 4.088s-1.195 2.054-2.016 2.8a14.473 14.473 0 0 1-2.464 1.904v.336c1.904.784 3.453 1.979 4.648 3.584 1.195 1.606 1.792 3.734 1.792 6.384 0 2.315-.56 4.387-1.68 6.216-1.12 1.83-2.688 3.286-4.704 4.368-2.016 1.083-4.331 1.624-6.944 1.624Zm34.25 0c-2.314 0-4.461-.448-6.44-1.344a11.882 11.882 0 0 1-4.76-3.92c-1.232-1.754-1.96-3.901-2.184-6.44l5.88-.784c.299 2.016 1.064 3.678 2.296 4.984 1.27 1.27 3.006 1.904 5.208 1.904 2.315 0 4.144-.728 5.488-2.184 1.382-1.493 2.072-3.472 2.072-5.936 0-2.426-.672-4.368-2.016-5.824-1.344-1.493-3.173-2.24-5.488-2.24a7.954 7.954 0 0 0-3.696.896c-1.12.56-2.034 1.307-2.744 2.24l-5.88-2.576 2.408-19.768h21.56v5.432h-16.688l-1.512 10.752.336.112c.784-.709 1.792-1.288 3.024-1.736 1.232-.485 2.614-.728 4.144-.728 2.427 0 4.592.542 6.496 1.624 1.904 1.083 3.398 2.632 4.48 4.648 1.083 2.016 1.624 4.406 1.624 7.168 0 2.651-.578 5.022-1.736 7.112a12.823 12.823 0 0 1-4.816 4.872c-2.016 1.158-4.368 1.736-7.056 1.736Zm37.442-34.888c-1.306 0-2.408-.448-3.304-1.344-.858-.896-1.288-1.978-1.288-3.248 0-1.269.43-2.352 1.288-3.248.896-.896 1.998-1.344 3.304-1.344 1.27 0 2.352.448 3.248 1.344.896.896 1.344 1.979 1.344 3.248 0 1.27-.448 2.352-1.344 3.248-.896.896-1.978 1.344-3.248 1.344Zm-7.224 46.648c-2.016 0-3.733-.186-5.152-.56-1.381-.336-2.594-.802-3.64-1.4l2.24-5.264c.747.448 1.643.84 2.688 1.176a9.572 9.572 0 0 0 3.248.56c1.755 0 2.987-.541 3.696-1.624.747-1.045 1.12-2.352 1.12-3.92V766.32h-10.584v-5.376h16.576v30.016c0 3.584-.933 6.347-2.8 8.288-1.829 1.942-4.293 2.912-7.392 2.912Zm35.314-11.76c-2.464 0-4.648-.597-6.552-1.792-1.904-1.232-3.416-2.986-4.536-5.264-1.082-2.277-1.624-4.984-1.624-8.12 0-3.173.56-5.88 1.68-8.12 1.12-2.277 2.651-4.013 4.592-5.208 1.942-1.232 4.126-1.848 6.552-1.848 2.166 0 3.976.43 5.432 1.288 1.456.822 2.539 1.886 3.248 3.192h.336v-3.584h5.6v28.56h-5.6v-3.584h-.336c-.784 1.158-1.904 2.203-3.36 3.136-1.418.896-3.229 1.344-5.432 1.344Zm1.176-5.544c2.278 0 4.163-.821 5.656-2.464 1.531-1.642 2.296-4.032 2.296-7.168s-.765-5.525-2.296-7.168c-1.493-1.642-3.378-2.464-5.656-2.464-2.277 0-4.181.822-5.712 2.464-1.493 1.643-2.24 4.032-2.24 7.168s.747 5.526 2.24 7.168c1.531 1.643 3.435 2.464 5.712 2.464Zm33.355 17.64c-3.659 0-6.571-.896-8.736-2.688-2.166-1.754-3.51-3.938-4.032-6.552l5.824-1.288c.448 1.494 1.232 2.726 2.352 3.696 1.157 1.008 2.688 1.512 4.592 1.512 2.576 0 4.554-.821 5.936-2.464 1.381-1.605 2.072-3.826 2.072-6.664v-3.136h-.336c-.971 1.419-2.184 2.502-3.64 3.248-1.419.747-3.192 1.12-5.32 1.12-2.24 0-4.294-.578-6.16-1.736-1.83-1.157-3.304-2.818-4.424-4.984-1.12-2.165-1.68-4.797-1.68-7.896 0-3.098.56-5.73 1.68-7.896 1.12-2.165 2.613-3.826 4.48-4.984 1.904-1.157 3.994-1.736 6.272-1.736 1.904 0 3.621.374 5.152 1.12 1.53.747 2.744 1.792 3.64 3.136h.336v-3.36h5.656v26.992c0 4.704-1.251 8.307-3.752 10.808-2.502 2.502-5.806 3.752-9.912 3.752Zm.168-18.704c2.128 0 3.957-.746 5.488-2.24 1.568-1.53 2.352-3.826 2.352-6.888 0-3.061-.784-5.338-2.352-6.832-1.531-1.53-3.36-2.296-5.488-2.296a7.75 7.75 0 0 0-3.864 1.008c-1.195.672-2.147 1.699-2.856 3.08-.71 1.344-1.064 3.024-1.064 5.04 0 3.062.765 5.358 2.296 6.888 1.568 1.494 3.397 2.24 5.488 2.24Zm37.162 5.712v-8.064h-18.032v-4.704l17.584-27.328h6.384v26.376h5.208v5.656h-5.208v8.064h-5.936Zm-11.256-13.72h11.256v-16.912h-.336l-10.92 16.912Zm41.082 14.616c-2.278 0-4.368-.448-6.272-1.344a12.823 12.823 0 0 1-4.76-3.808c-1.232-1.68-1.979-3.696-2.24-6.048l5.88-1.344c.298 2.054 1.101 3.696 2.408 4.928 1.306 1.232 2.968 1.848 4.984 1.848 2.165 0 3.92-.616 5.264-1.848 1.344-1.269 2.016-2.912 2.016-4.928 0-2.128-.691-3.77-2.072-4.928-1.344-1.157-3.192-1.736-5.544-1.736h-3.136v-5.432h2.912c1.866 0 3.453-.504 4.76-1.512 1.344-1.045 2.016-2.52 2.016-4.424 0-1.717-.579-3.098-1.736-4.144-1.12-1.082-2.651-1.624-4.592-1.624-1.755 0-3.211.504-4.368 1.512-1.158.971-1.886 2.259-2.184 3.864l-5.712-.728c.261-1.941.933-3.677 2.016-5.208a12.173 12.173 0 0 1 4.256-3.64c1.754-.896 3.77-1.344 6.048-1.344 2.426 0 4.554.467 6.384 1.4 1.866.934 3.304 2.203 4.312 3.808 1.008 1.606 1.512 3.398 1.512 5.376 0 1.606-.262 2.968-.784 4.088-.523 1.12-1.195 2.054-2.016 2.8a14.512 14.512 0 0 1-2.464 1.904v.336c1.904.784 3.453 1.979 4.648 3.584 1.194 1.606 1.792 3.734 1.792 6.384 0 2.315-.56 4.387-1.68 6.216-1.12 1.83-2.688 3.286-4.704 4.368-2.016 1.083-4.331 1.624-6.944 1.624Zm38.114-34.888c-1.307 0-2.408-.448-3.304-1.344-.859-.896-1.288-1.978-1.288-3.248 0-1.269.429-2.352 1.288-3.248.896-.896 1.997-1.344 3.304-1.344 1.269 0 2.352.448 3.248 1.344.896.896 1.344 1.979 1.344 3.248 0 1.27-.448 2.352-1.344 3.248-.896.896-1.979 1.344-3.248 1.344Zm-7.224 46.648c-2.016 0-3.733-.186-5.152-.56-1.381-.336-2.595-.802-3.64-1.4l2.24-5.264c.747.448 1.643.84 2.688 1.176a9.568 9.568 0 0 0 3.248.56c1.755 0 2.987-.541 3.696-1.624.747-1.045 1.12-2.352 1.12-3.92V766.32h-10.584v-5.376h16.576v30.016c0 3.584-.933 6.347-2.8 8.288-1.829 1.942-4.293 2.912-7.392 2.912Zm24.562-12.656v-5.824c3.36-2.538 6.235-4.834 8.624-6.888 2.427-2.053 4.405-3.976 5.936-5.768 1.456-1.68 2.539-3.341 3.248-4.984a12.999 12.999 0 0 0 1.064-5.208c0-2.202-.597-3.864-1.792-4.984s-2.837-1.68-4.928-1.68c-1.979 0-3.584.598-4.816 1.792-1.195 1.158-1.904 2.744-2.128 4.76l-5.712-.56c.149-2.128.728-4.069 1.736-5.824 1.045-1.792 2.483-3.21 4.312-4.256 1.867-1.045 4.088-1.568 6.664-1.568 3.995 0 7.112 1.046 9.352 3.136 2.277 2.054 3.416 4.928 3.416 8.624 0 2.688-.56 5.19-1.68 7.504-1.083 2.315-2.501 4.518-4.256 6.608a48.825 48.825 0 0 1-5.04 4.984 73.946 73.946 0 0 1-5.88 4.536l.112.168h17.64v5.432h-25.872Zm45.954.896c-2.314 0-4.461-.448-6.44-1.344a11.882 11.882 0 0 1-4.76-3.92c-1.232-1.754-1.96-3.901-2.184-6.44l5.88-.784c.299 2.016 1.064 3.678 2.296 4.984 1.27 1.27 3.006 1.904 5.208 1.904 2.315 0 4.144-.728 5.488-2.184 1.382-1.493 2.072-3.472 2.072-5.936 0-2.426-.672-4.368-2.016-5.824-1.344-1.493-3.173-2.24-5.488-2.24a7.954 7.954 0 0 0-3.696.896c-1.12.56-2.034 1.307-2.744 2.24l-5.88-2.576 2.408-19.768h21.56v5.432h-16.688l-1.512 10.752.336.112c.784-.709 1.792-1.288 3.024-1.736 1.232-.485 2.614-.728 4.144-.728 2.427 0 4.592.542 6.496 1.624 1.904 1.083 3.398 2.632 4.48 4.648 1.083 2.016 1.624 4.406 1.624 7.168 0 2.651-.578 5.022-1.736 7.112a12.823 12.823 0 0 1-4.816 4.872c-2.016 1.158-4.368 1.736-7.056 1.736Z" fill="#FFEAAC"/><path d="M204.396 308.523c-3.061 0-5.432-.859-7.112-2.576-1.68-1.718-2.52-4.07-2.52-7.056v-9.016c0-1.68-.448-2.838-1.344-3.472-.896-.672-1.923-1.008-3.08-1.008h-1.344v-5.04h1.344c1.157 0 2.184-.318 3.08-.952.896-.672 1.344-1.848 1.344-3.528v-9.016c0-2.987.84-5.339 2.52-7.056 1.68-1.718 4.051-2.576 7.112-2.576h4.592v4.984h-4.2c-1.195 0-2.203.41-3.024 1.232-.821.821-1.232 1.997-1.232 3.528v9.296c0 3.509-1.475 5.656-4.424 6.44v.336c1.493.41 2.595 1.138 3.304 2.184.747 1.008 1.12 2.426 1.12 4.256v9.296c0 1.53.411 2.706 1.232 3.528.821.821 1.829 1.232 3.024 1.232h4.2v4.984h-4.592Zm196.373 63.392c-1.27 0-2.371-.448-3.304-1.344-.934-.934-1.4-2.054-1.4-3.36 0-1.27.466-2.371 1.4-3.304.933-.934 2.034-1.4 3.304-1.4 1.269 0 2.37.466 3.304 1.4.933.933 1.4 2.034 1.4 3.304 0 1.306-.467 2.426-1.4 3.36-.934.896-2.035 1.344-3.304 1.344Zm0-20.832c-1.27 0-2.371-.448-3.304-1.344-.934-.934-1.4-2.054-1.4-3.36 0-1.27.466-2.371 1.4-3.304.933-.934 2.034-1.4 3.304-1.4 1.269 0 2.37.466 3.304 1.4.933.933 1.4 2.034 1.4 3.304 0 1.306-.467 2.426-1.4 3.36-.934.896-2.035 1.344-3.304 1.344Zm55.116 20.496v-5.6h9.52v-26.6l-8.736 6.384v-6.608l10.472-7.672h4.256v34.496h9.016v5.6h-24.528Zm33.578 0v-5.824c3.36-2.539 6.235-4.835 8.624-6.888 2.427-2.054 4.405-3.976 5.936-5.768 1.456-1.68 2.539-3.342 3.248-4.984a13.006 13.006 0 0 0 1.064-5.208c0-2.203-.597-3.864-1.792-4.984s-2.837-1.68-4.928-1.68c-1.979 0-3.584.597-4.816 1.792-1.195 1.157-1.904 2.744-2.128 4.76l-5.712-.56c.149-2.128.728-4.07 1.736-5.824 1.045-1.792 2.483-3.211 4.312-4.256 1.867-1.046 4.088-1.568 6.664-1.568 3.995 0 7.112 1.045 9.352 3.136 2.277 2.053 3.416 4.928 3.416 8.624 0 2.688-.56 5.189-1.68 7.504-1.083 2.314-2.501 4.517-4.256 6.608a49.027 49.027 0 0 1-5.04 4.984 73.946 73.946 0 0 1-5.88 4.536l.112.168h17.64v5.432h-25.872Zm49.034 0v-8.064h-18.032v-4.704l17.584-27.328h6.384v26.376h5.208v5.656h-5.208v8.064h-5.936Zm-11.256-13.72h11.256v-16.912h-.336l-10.92 16.912Zm41.418 14.056c-1.269 0-2.37-.448-3.304-1.344-.933-.934-1.4-2.054-1.4-3.36 0-1.27.467-2.371 1.4-3.304.934-.934 2.035-1.4 3.304-1.4 1.27 0 2.371.466 3.304 1.4.934.933 1.4 2.034 1.4 3.304 0 1.306-.466 2.426-1.4 3.36-.933.896-2.034 1.344-3.304 1.344Zm21.539-.336v-5.6h9.52v-26.6l-8.736 6.384v-6.608l10.472-7.672h4.256v34.496h9.016v5.6h-24.528Zm33.578 0v-5.824c3.36-2.539 6.234-4.835 8.624-6.888 2.426-2.054 4.405-3.976 5.936-5.768 1.456-1.68 2.538-3.342 3.248-4.984a13.006 13.006 0 0 0 1.064-5.208c0-2.203-.598-3.864-1.792-4.984-1.195-1.12-2.838-1.68-4.928-1.68-1.979 0-3.584.597-4.816 1.792-1.195 1.157-1.904 2.744-2.128 4.76l-5.712-.56c.149-2.128.728-4.07 1.736-5.824 1.045-1.792 2.482-3.211 4.312-4.256 1.866-1.046 4.088-1.568 6.664-1.568 3.994 0 7.112 1.045 9.352 3.136 2.277 2.053 3.416 4.928 3.416 8.624 0 2.688-.56 5.189-1.68 7.504-1.083 2.314-2.502 4.517-4.256 6.608a49.23 49.23 0 0 1-5.04 4.984 74.311 74.311 0 0 1-5.88 4.536l.112.168h17.64v5.432h-25.872Zm41.194 7.224 2.912-15.456h8.008l-5.544 15.456h-5.376Zm-297.779 63.112c-1.27 0-2.371-.448-3.304-1.344-.934-.934-1.4-2.054-1.4-3.36 0-1.27.466-2.371 1.4-3.304.933-.934 2.034-1.4 3.304-1.4 1.269 0 2.37.466 3.304 1.4.933.933 1.4 2.034 1.4 3.304 0 1.306-.467 2.426-1.4 3.36-.934.896-2.035 1.344-3.304 1.344Zm0-20.832c-1.27 0-2.371-.448-3.304-1.344-.934-.934-1.4-2.054-1.4-3.36 0-1.27.466-2.371 1.4-3.304.933-.934 2.034-1.4 3.304-1.4 1.269 0 2.37.466 3.304 1.4.933.933 1.4 2.034 1.4 3.304 0 1.306-.467 2.426-1.4 3.36-.934.896-2.035 1.344-3.304 1.344Zm58.532-2.912v-16.688h5.432v16.688h-5.432Zm11.816 0v-16.688h5.432v16.688h-5.432Zm29.098 24.304c-2.464 0-4.648-.598-6.552-1.792-1.904-1.232-3.416-2.987-4.536-5.264-1.083-2.278-1.624-4.984-1.624-8.12 0-3.174.56-5.88 1.68-8.12 1.12-2.278 2.651-4.014 4.592-5.208 1.941-1.232 4.125-1.848 6.552-1.848 2.165 0 3.976.429 5.432 1.288 1.456.821 2.539 1.885 3.248 3.192h.336l-.336-4.088v-11.032h5.936v40.096h-5.6v-3.584h-.336c-.784 1.157-1.904 2.202-3.36 3.136-1.419.896-3.229 1.344-5.432 1.344Zm1.176-5.544c2.277 0 4.163-.822 5.656-2.464 1.531-1.643 2.296-4.032 2.296-7.168s-.765-5.526-2.296-7.168c-1.493-1.643-3.379-2.464-5.656-2.464-2.277 0-4.181.821-5.712 2.464-1.493 1.642-2.24 4.032-2.24 7.168s.747 5.525 2.24 7.168c1.531 1.642 3.435 2.464 5.712 2.464Zm32.402 5.544c-2.464 0-4.648-.598-6.552-1.792-1.904-1.232-3.416-2.987-4.536-5.264-1.083-2.278-1.624-4.984-1.624-8.12 0-3.174.56-5.88 1.68-8.12 1.12-2.278 2.651-4.014 4.592-5.208 1.941-1.232 4.125-1.848 6.552-1.848 2.165 0 3.976.429 5.432 1.288 1.456.821 2.539 1.885 3.248 3.192h.336v-3.584h5.6v28.56h-5.6v-3.584h-.336c-.784 1.157-1.904 2.202-3.36 3.136-1.419.896-3.229 1.344-5.432 1.344Zm1.176-5.544c2.277 0 4.163-.822 5.656-2.464 1.531-1.643 2.296-4.032 2.296-7.168s-.765-5.526-2.296-7.168c-1.493-1.643-3.379-2.464-5.656-2.464-2.277 0-4.181.821-5.712 2.464-1.493 1.642-2.24 4.032-2.24 7.168s.747 5.525 2.24 7.168c1.531 1.642 3.435 2.464 5.712 2.464Zm30.61 4.648-11.984-28.56h6.552l8.4 20.888h.28l8.4-20.888h6.44l-12.096 28.56h-5.992Zm36.658-33.936c-1.306 0-2.408-.448-3.304-1.344-.896-.896-1.344-1.998-1.344-3.304 0-1.27.448-2.352 1.344-3.248.896-.896 1.998-1.344 3.304-1.344 1.307 0 2.408.448 3.304 1.344.896.896 1.344 1.978 1.344 3.248 0 1.306-.448 2.408-1.344 3.304-.896.896-1.997 1.344-3.304 1.344Zm-12.824 33.936v-5.432h9.8v-17.696h-8.12v-5.432h14.112v23.128h9.856v5.432h-25.648Zm45.115.896c-2.464 0-4.648-.598-6.552-1.792-1.904-1.232-3.416-2.987-4.536-5.264-1.083-2.278-1.624-4.984-1.624-8.12 0-3.174.56-5.88 1.68-8.12 1.12-2.278 2.65-4.014 4.592-5.208 1.941-1.232 4.125-1.848 6.552-1.848 2.165 0 3.976.429 5.432 1.288 1.456.821 2.538 1.885 3.248 3.192h.336l-.336-4.088v-11.032h5.936v40.096h-5.6v-3.584h-.336c-.784 1.157-1.904 2.202-3.36 3.136-1.419.896-3.23 1.344-5.432 1.344Zm1.176-5.544c2.277 0 4.162-.822 5.656-2.464 1.53-1.643 2.296-4.032 2.296-7.168s-.766-5.526-2.296-7.168c-1.494-1.643-3.379-2.464-5.656-2.464-2.278 0-4.182.821-5.712 2.464-1.494 1.642-2.24 4.032-2.24 7.168s.746 5.525 2.24 7.168c1.53 1.642 3.434 2.464 5.712 2.464Zm22.546 16.744v-5.208h22.288v5.208h-22.288Zm32.682-12.096v-5.6h9.52v-26.6l-8.736 6.384v-6.608l10.472-7.672h4.256v34.496h9.016v5.6h-24.528Zm33.578 0v-5.824c3.36-2.539 6.235-4.835 8.624-6.888 2.427-2.054 4.405-3.976 5.936-5.768 1.456-1.68 2.539-3.342 3.248-4.984a13.006 13.006 0 0 0 1.064-5.208c0-2.203-.597-3.864-1.792-4.984s-2.837-1.68-4.928-1.68c-1.979 0-3.584.597-4.816 1.792-1.195 1.157-1.904 2.744-2.128 4.76l-5.712-.56c.149-2.128.728-4.07 1.736-5.824 1.045-1.792 2.483-3.211 4.312-4.256 1.867-1.046 4.088-1.568 6.664-1.568 3.995 0 7.112 1.045 9.352 3.136 2.277 2.053 3.416 4.928 3.416 8.624 0 2.688-.56 5.189-1.68 7.504-1.083 2.314-2.501 4.517-4.256 6.608a49.027 49.027 0 0 1-5.04 4.984 73.946 73.946 0 0 1-5.88 4.536l.112.168h17.64v5.432h-25.872Zm45.282.896c-2.277 0-4.368-.448-6.272-1.344a12.833 12.833 0 0 1-4.76-3.808c-1.232-1.68-1.979-3.696-2.24-6.048l5.88-1.344c.299 2.053 1.101 3.696 2.408 4.928 1.307 1.232 2.968 1.848 4.984 1.848 2.165 0 3.92-.616 5.264-1.848 1.344-1.27 2.016-2.912 2.016-4.928 0-2.128-.691-3.771-2.072-4.928-1.344-1.158-3.192-1.736-5.544-1.736h-3.136v-5.432h2.912c1.867 0 3.453-.504 4.76-1.512 1.344-1.046 2.016-2.52 2.016-4.424 0-1.718-.579-3.099-1.736-4.144-1.12-1.083-2.651-1.624-4.592-1.624-1.755 0-3.211.504-4.368 1.512-1.157.97-1.885 2.258-2.184 3.864l-5.712-.728c.261-1.942.933-3.678 2.016-5.208a12.171 12.171 0 0 1 4.256-3.64c1.755-.896 3.771-1.344 6.048-1.344 2.427 0 4.555.466 6.384 1.4 1.867.933 3.304 2.202 4.312 3.808 1.008 1.605 1.512 3.397 1.512 5.376 0 1.605-.261 2.968-.784 4.088s-1.195 2.053-2.016 2.8a14.575 14.575 0 0 1-2.464 1.904v.336c1.904.784 3.453 1.978 4.648 3.584 1.195 1.605 1.792 3.733 1.792 6.384 0 2.314-.56 4.386-1.68 6.216-1.12 1.829-2.688 3.285-4.704 4.368-2.016 1.082-4.331 1.624-6.944 1.624Zm25.29-24.304v-16.688h5.432v16.688h-5.432Zm11.816 0v-16.688h5.432v16.688h-5.432Zm25.962 30.632 2.912-15.456h8.008l-5.544 15.456h-5.376Zm-264.201 63.112c-1.269 0-2.37-.448-3.304-1.344-.933-.934-1.4-2.054-1.4-3.36 0-1.27.467-2.371 1.4-3.304.934-.934 2.035-1.4 3.304-1.4 1.27 0 2.371.466 3.304 1.4.934.933 1.4 2.034 1.4 3.304 0 1.306-.466 2.426-1.4 3.36-.933.896-2.034 1.344-3.304 1.344Zm0-20.832c-1.269 0-2.37-.448-3.304-1.344-.933-.934-1.4-2.054-1.4-3.36 0-1.27.467-2.371 1.4-3.304.934-.934 2.035-1.4 3.304-1.4 1.27 0 2.371.466 3.304 1.4.934.933 1.4 2.034 1.4 3.304 0 1.306-.466 2.426-1.4 3.36-.933.896-2.034 1.344-3.304 1.344Zm58.533-2.912v-16.688h5.432v16.688h-5.432Zm11.816 0v-16.688h5.432v16.688h-5.432Zm25.514 23.408v-23.352h-7.56v-5.208h7.56v-1.792c0-3.622 1.026-6.422 3.08-8.4 2.09-2.016 4.797-3.024 8.12-3.024 1.717 0 3.21.205 4.48.616 1.306.373 2.389.877 3.248 1.512l-2.296 5.04c-1.531-1.083-3.248-1.624-5.152-1.624-1.755 0-3.118.504-4.088 1.512-.971 1.008-1.456 2.482-1.456 4.424v1.736h9.968v5.208h-9.968v23.352h-5.936Zm38.45.896c-2.912 0-5.451-.635-7.616-1.904-2.128-1.307-3.771-3.099-4.928-5.376-1.158-2.315-1.736-4.947-1.736-7.896 0-2.987.578-5.619 1.736-7.896 1.157-2.278 2.8-4.051 4.928-5.32 2.165-1.307 4.704-1.96 7.616-1.96s5.432.653 7.56 1.96c2.165 1.269 3.826 3.042 4.984 5.32 1.157 2.277 1.736 4.909 1.736 7.896 0 2.986-.579 5.618-1.736 7.896-1.158 2.277-2.819 4.069-4.984 5.376-2.128 1.269-4.648 1.904-7.56 1.904Zm0-5.544c2.426 0 4.424-.822 5.992-2.464 1.568-1.68 2.352-4.07 2.352-7.168 0-3.099-.784-5.47-2.352-7.112-1.568-1.68-3.566-2.52-5.992-2.52-2.427 0-4.424.84-5.992 2.52-1.568 1.642-2.352 4.013-2.352 7.112 0 3.098.784 5.488 2.352 7.168 1.568 1.642 3.565 2.464 5.992 2.464Zm33.578 5.544c-2.912 0-5.451-.635-7.616-1.904-2.128-1.307-3.771-3.099-4.928-5.376-1.157-2.315-1.736-4.947-1.736-7.896 0-2.987.579-5.619 1.736-7.896 1.157-2.278 2.8-4.051 4.928-5.32 2.165-1.307 4.704-1.96 7.616-1.96s5.432.653 7.56 1.96c2.165 1.269 3.827 3.042 4.984 5.32 1.157 2.277 1.736 4.909 1.736 7.896 0 2.986-.579 5.618-1.736 7.896-1.157 2.277-2.819 4.069-4.984 5.376-2.128 1.269-4.648 1.904-7.56 1.904Zm0-5.544c2.427 0 4.424-.822 5.992-2.464 1.568-1.68 2.352-4.07 2.352-7.168 0-3.099-.784-5.47-2.352-7.112-1.568-1.68-3.565-2.52-5.992-2.52s-4.424.84-5.992 2.52c-1.568 1.642-2.352 4.013-2.352 7.112 0 3.098.784 5.488 2.352 7.168 1.568 1.642 3.565 2.464 5.992 2.464Zm32.29 5.544c-2.464 0-4.648-.598-6.552-1.792-1.904-1.232-3.416-2.987-4.536-5.264-1.083-2.278-1.624-4.984-1.624-8.12 0-3.174.56-5.88 1.68-8.12 1.12-2.278 2.651-4.014 4.592-5.208 1.941-1.232 4.125-1.848 6.552-1.848 2.165 0 3.976.429 5.432 1.288 1.456.821 2.539 1.885 3.248 3.192h.336l-.336-4.088v-11.032h5.936v40.096h-5.6v-3.584h-.336c-.784 1.157-1.904 2.202-3.36 3.136-1.419.896-3.229 1.344-5.432 1.344Zm1.176-5.544c2.277 0 4.163-.822 5.656-2.464 1.531-1.643 2.296-4.032 2.296-7.168s-.765-5.526-2.296-7.168c-1.493-1.643-3.379-2.464-5.656-2.464-2.277 0-4.181.821-5.712 2.464-1.493 1.642-2.24 4.032-2.24 7.168s.747 5.525 2.24 7.168c1.531 1.642 3.435 2.464 5.712 2.464Zm25.066-18.76v-16.688h5.432v16.688h-5.432Zm11.816 0v-16.688h5.432v16.688h-5.432Zm25.962 30.632 2.912-15.456h8.008l-5.544 15.456h-5.376Zm-398.513 63.112c-1.27 0-2.371-.448-3.304-1.344-.934-.934-1.4-2.054-1.4-3.36 0-1.27.466-2.371 1.4-3.304.933-.934 2.034-1.4 3.304-1.4 1.269 0 2.37.466 3.304 1.4.933.933 1.4 2.034 1.4 3.304 0 1.306-.467 2.426-1.4 3.36-.934.896-2.035 1.344-3.304 1.344Zm0-20.832c-1.27 0-2.371-.448-3.304-1.344-.934-.934-1.4-2.054-1.4-3.36 0-1.27.466-2.371 1.4-3.304.933-.934 2.034-1.4 3.304-1.4 1.269 0 2.37.466 3.304 1.4.933.933 1.4 2.034 1.4 3.304 0 1.306-.467 2.426-1.4 3.36-.934.896-2.035 1.344-3.304 1.344Zm72.252 27.44c-3.061 0-5.432-.859-7.112-2.576-1.68-1.718-2.52-4.07-2.52-7.056v-9.016c0-1.68-.448-2.838-1.344-3.472-.896-.672-1.923-1.008-3.08-1.008h-1.344v-5.04h1.344c1.157 0 2.184-.318 3.08-.952.896-.672 1.344-1.848 1.344-3.528v-9.016c0-2.987.84-5.339 2.52-7.056 1.68-1.718 4.051-2.576 7.112-2.576h4.592v4.984h-4.2c-1.195 0-2.203.41-3.024 1.232-.821.821-1.232 1.997-1.232 3.528v9.296c0 3.509-1.475 5.656-4.424 6.44v.336c1.493.41 2.595 1.138 3.304 2.184.747 1.008 1.12 2.426 1.12 4.256v9.296c0 1.53.411 2.706 1.232 3.528.821.821 1.829 1.232 3.024 1.232h4.2v4.984h-4.592Zm52.372 0v-4.984h4.2c1.195 0 2.203-.411 3.024-1.232.822-.822 1.232-1.998 1.232-3.528v-9.296c0-1.83.355-3.248 1.064-4.256.747-1.046 1.867-1.774 3.36-2.184v-.336c-2.949-.784-4.424-2.931-4.424-6.44v-9.296c0-1.531-.41-2.707-1.232-3.528-.821-.822-1.829-1.232-3.024-1.232h-4.2v-4.984h4.592c3.062 0 5.432.858 7.112 2.576 1.68 1.717 2.52 4.069 2.52 7.056v9.016c0 1.68.448 2.856 1.344 3.528.896.634 1.923.952 3.08.952h1.344v5.04h-1.344c-1.157 0-2.184.336-3.08 1.008-.896.634-1.344 1.792-1.344 3.472v9.016c0 2.986-.84 5.338-2.52 7.056-1.68 1.717-4.05 2.576-7.112 2.576h-4.592Zm-335.781 70v-4.984h4.2c1.195 0 2.203-.411 3.024-1.232.821-.822 1.232-1.998 1.232-3.528v-9.296c0-1.83.355-3.248 1.064-4.256.747-1.046 1.867-1.774 3.36-2.184v-.336c-2.949-.784-4.424-2.931-4.424-6.44v-9.296c0-1.531-.411-2.707-1.232-3.528-.821-.822-1.829-1.232-3.024-1.232h-4.2v-4.984h4.592c3.061 0 5.432.858 7.112 2.576 1.68 1.717 2.52 4.069 2.52 7.056v9.016c0 1.68.448 2.856 1.344 3.528.896.634 1.923.952 3.08.952h1.344v5.04h-1.344c-1.157 0-2.184.336-3.08 1.008-.896.634-1.344 1.792-1.344 3.472v9.016c0 2.986-.84 5.338-2.52 7.056-1.68 1.717-4.051 2.576-7.112 2.576h-4.592Z" fill="#F5F5F5"/><path d="M266.904 372.475c-2.725 0-5.133-.616-7.224-1.848-2.09-1.27-3.714-3.043-4.872-5.32-1.157-2.278-1.736-4.947-1.736-8.008 0-3.062.598-5.731 1.792-8.008 1.195-2.278 2.838-4.032 4.928-5.264 2.128-1.27 4.574-1.904 7.336-1.904 3.435 0 6.291.84 8.568 2.52 2.315 1.68 3.734 4.032 4.256 7.056l-5.824.952c-.373-1.531-1.194-2.744-2.464-3.64-1.232-.934-2.781-1.4-4.648-1.4-2.24 0-4.144.84-5.712 2.52-1.53 1.68-2.296 4.069-2.296 7.168 0 3.098.766 5.488 2.296 7.168 1.531 1.642 3.435 2.464 5.712 2.464 1.904 0 3.435-.448 4.592-1.344 1.158-.934 2.016-2.259 2.576-3.976l5.6 1.344c-.672 2.8-2.09 5.096-4.256 6.888-2.165 1.754-5.04 2.632-8.624 2.632Zm33.13 0c-2.912 0-5.45-.635-7.616-1.904-2.128-1.307-3.77-3.099-4.928-5.376-1.157-2.315-1.736-4.947-1.736-7.896 0-2.987.579-5.619 1.736-7.896 1.158-2.278 2.8-4.051 4.928-5.32 2.166-1.307 4.704-1.96 7.616-1.96s5.432.653 7.56 1.96c2.166 1.269 3.827 3.042 4.984 5.32 1.158 2.277 1.736 4.909 1.736 7.896 0 2.986-.578 5.618-1.736 7.896-1.157 2.277-2.818 4.069-4.984 5.376-2.128 1.269-4.648 1.904-7.56 1.904Zm0-5.544c2.427 0 4.424-.822 5.992-2.464 1.568-1.68 2.352-4.07 2.352-7.168 0-3.099-.784-5.47-2.352-7.112-1.568-1.68-3.565-2.52-5.992-2.52-2.426 0-4.424.84-5.992 2.52-1.568 1.642-2.352 4.013-2.352 7.112 0 3.098.784 5.488 2.352 7.168 1.568 1.642 3.566 2.464 5.992 2.464Zm33.691 5.544c-3.734 0-6.608-.822-8.624-2.464-2.016-1.643-3.323-3.808-3.92-6.496l5.768-1.064a6.23 6.23 0 0 0 2.128 3.416c1.12.858 2.669 1.288 4.648 1.288 1.68 0 3.098-.299 4.256-.896 1.194-.635 1.792-1.55 1.792-2.744 0-1.158-.504-2.054-1.512-2.688-.971-.635-2.408-1.139-4.312-1.512l-3.472-.616c-2.39-.411-4.35-1.288-5.88-2.632-1.531-1.344-2.296-3.192-2.296-5.544 0-1.643.485-3.08 1.456-4.312.97-1.27 2.277-2.259 3.92-2.968 1.68-.747 3.584-1.12 5.712-1.12 3.136 0 5.693.634 7.672 1.904 2.016 1.269 3.285 3.266 3.808 5.992l-5.32.952c-.448-1.419-1.214-2.408-2.296-2.968-1.083-.598-2.352-.896-3.808-.896-1.494 0-2.763.317-3.808.952-1.046.597-1.568 1.362-1.568 2.296 0 1.008.41 1.81 1.232 2.408.858.56 2.09.989 3.696 1.288l4.144.728c2.8.485 4.928 1.381 6.384 2.688 1.456 1.269 2.184 3.229 2.184 5.88 0 1.829-.523 3.434-1.568 4.816-1.046 1.381-2.483 2.445-4.312 3.192-1.83.746-3.864 1.12-6.104 1.12Zm38.618-.056c-2.95 0-5.32-.859-7.112-2.576-1.792-1.755-2.688-4.256-2.688-7.504v-14.112h-6.552v-5.208h6.552v-7.84h5.992v7.84h10.472v5.208h-10.472v13.552c0 1.605.41 2.856 1.232 3.752.821.858 2.053 1.288 3.696 1.288 1.418 0 2.8-.374 4.144-1.12l1.736 5.04c-.971.56-1.979.97-3.024 1.232-1.008.298-2.334.448-3.976.448ZM266.904 512.475c-2.725 0-5.133-.616-7.224-1.848-2.09-1.27-3.714-3.043-4.872-5.32-1.157-2.278-1.736-4.947-1.736-8.008 0-3.062.598-5.731 1.792-8.008 1.195-2.278 2.838-4.032 4.928-5.264 2.128-1.27 4.574-1.904 7.336-1.904 3.435 0 6.291.84 8.568 2.52 2.315 1.68 3.734 4.032 4.256 7.056l-5.824.952c-.373-1.531-1.194-2.744-2.464-3.64-1.232-.934-2.781-1.4-4.648-1.4-2.24 0-4.144.84-5.712 2.52-1.53 1.68-2.296 4.069-2.296 7.168 0 3.098.766 5.488 2.296 7.168 1.531 1.642 3.435 2.464 5.712 2.464 1.904 0 3.435-.448 4.592-1.344 1.158-.934 2.016-2.259 2.576-3.976l5.6 1.344c-.672 2.8-2.09 5.096-4.256 6.888-2.165 1.754-5.04 2.632-8.624 2.632Zm31.842 0c-2.464 0-4.648-.598-6.552-1.792-1.904-1.232-3.416-2.987-4.536-5.264-1.082-2.278-1.624-4.984-1.624-8.12 0-3.174.56-5.88 1.68-8.12 1.12-2.278 2.651-4.014 4.592-5.208 1.942-1.232 4.126-1.848 6.552-1.848 2.166 0 3.976.429 5.432 1.288 1.456.821 2.539 1.885 3.248 3.192h.336v-3.584h5.6v28.56h-5.6v-3.584h-.336c-.784 1.157-1.904 2.202-3.36 3.136-1.418.896-3.229 1.344-5.432 1.344Zm1.176-5.544c2.278 0 4.163-.822 5.656-2.464 1.531-1.643 2.296-4.032 2.296-7.168s-.765-5.526-2.296-7.168c-1.493-1.643-3.378-2.464-5.656-2.464-2.277 0-4.181.821-5.712 2.464-1.493 1.642-2.24 4.032-2.24 7.168s.747 5.525 2.24 7.168c1.531 1.642 3.435 2.464 5.712 2.464Zm38.843 5.488c-2.95 0-5.32-.859-7.112-2.576-1.792-1.755-2.688-4.256-2.688-7.504v-14.112h-6.552v-5.208h6.552v-7.84h5.992v7.84h10.472v5.208h-10.472v13.552c0 1.605.41 2.856 1.232 3.752.821.858 2.053 1.288 3.696 1.288 1.418 0 2.8-.374 4.144-1.12l1.736 5.04c-.971.56-1.979.97-3.024 1.232-1.008.298-2.334.448-3.976.448Zm28.818.056c-2.875 0-5.358-.635-7.448-1.904-2.054-1.27-3.659-3.043-4.816-5.32-1.12-2.278-1.68-4.91-1.68-7.896 0-3.024.578-5.675 1.736-7.952 1.194-2.315 2.837-4.107 4.928-5.376 2.128-1.27 4.554-1.904 7.28-1.904 4.293 0 7.56 1.232 9.8 3.696 2.24 2.426 3.36 5.73 3.36 9.912 0 1.008-.056 1.96-.168 2.856h-21.112c.186 2.762 1.026 4.872 2.52 6.328 1.53 1.456 3.472 2.184 5.824 2.184 1.904 0 3.416-.43 4.536-1.288a7.532 7.532 0 0 0 2.408-3.304l5.208 1.4c-.784 2.576-2.222 4.648-4.312 6.216-2.054 1.568-4.742 2.352-8.064 2.352Zm0-25.312c-1.979 0-3.659.578-5.04 1.736-1.382 1.157-2.315 2.893-2.8 5.208h15.12c-.112-2.091-.784-3.771-2.016-5.04-1.232-1.27-2.987-1.904-5.264-1.904Zm32.85 37.408c-3.659 0-6.571-.896-8.736-2.688-2.166-1.755-3.51-3.939-4.032-6.552l5.824-1.288c.448 1.493 1.232 2.725 2.352 3.696 1.157 1.008 2.688 1.512 4.592 1.512 2.576 0 4.554-.822 5.936-2.464 1.381-1.606 2.072-3.827 2.072-6.664v-3.136h-.336c-.971 1.418-2.184 2.501-3.64 3.248-1.419.746-3.192 1.12-5.32 1.12-2.24 0-4.294-.579-6.16-1.736-1.83-1.158-3.304-2.819-4.424-4.984-1.12-2.166-1.68-4.798-1.68-7.896 0-3.099.56-5.731 1.68-7.896 1.12-2.166 2.613-3.827 4.48-4.984 1.904-1.158 3.994-1.736 6.272-1.736 1.904 0 3.621.373 5.152 1.12 1.53.746 2.744 1.792 3.64 3.136h.336v-3.36h5.656v26.992c0 4.704-1.251 8.306-3.752 10.808-2.502 2.501-5.806 3.752-9.912 3.752Zm.168-18.704c2.128 0 3.957-.747 5.488-2.24 1.568-1.531 2.352-3.827 2.352-6.888 0-3.062-.784-5.339-2.352-6.832-1.531-1.531-3.36-2.296-5.488-2.296a7.75 7.75 0 0 0-3.864 1.008c-1.195.672-2.147 1.698-2.856 3.08-.71 1.344-1.064 3.024-1.064 5.04 0 3.061.765 5.357 2.296 6.888 1.568 1.493 3.397 2.24 5.488 2.24Zm33.746 6.608c-2.912 0-5.451-.635-7.616-1.904-2.128-1.307-3.771-3.099-4.928-5.376-1.157-2.315-1.736-4.947-1.736-7.896 0-2.987.579-5.619 1.736-7.896 1.157-2.278 2.8-4.051 4.928-5.32 2.165-1.307 4.704-1.96 7.616-1.96s5.432.653 7.56 1.96c2.165 1.269 3.827 3.042 4.984 5.32 1.157 2.277 1.736 4.909 1.736 7.896 0 2.986-.579 5.618-1.736 7.896-1.157 2.277-2.819 4.069-4.984 5.376-2.128 1.269-4.648 1.904-7.56 1.904Zm0-5.544c2.427 0 4.424-.822 5.992-2.464 1.568-1.68 2.352-4.07 2.352-7.168 0-3.099-.784-5.47-2.352-7.112-1.568-1.68-3.565-2.52-5.992-2.52s-4.424.84-5.992 2.52c-1.568 1.642-2.352 4.013-2.352 7.112 0 3.098.784 5.488 2.352 7.168 1.568 1.642 3.565 2.464 5.992 2.464Zm24.226 4.648v-28.56h5.656v4.816h.336c.821-1.792 2.016-3.192 3.584-4.2 1.605-1.008 3.509-1.512 5.712-1.512 1.083 0 2.091.093 3.024.28.971.149 1.755.41 2.352.784v6.272a13.72 13.72 0 0 0-3.024-1.176c-1.083-.299-2.277-.448-3.584-.448-2.539 0-4.517.877-5.936 2.632-1.419 1.717-2.128 3.882-2.128 6.496v14.616h-5.992Zm33.578 12.544c-1.083 0-2.035-.094-2.856-.28-.821-.15-1.531-.336-2.128-.56v-5.712c.448.224 1.101.466 1.96.728a9.59 9.59 0 0 0 2.8.392c1.232 0 2.24-.355 3.024-1.064.784-.71 1.531-1.904 2.24-3.584l1.288-3.08-11.48-27.944h6.608l7.84 20.16h.28l8.232-20.16h6.552l-14.224 33.432c-.709 1.68-1.493 3.08-2.352 4.2-.821 1.157-1.848 2.016-3.08 2.576-1.232.597-2.8.896-4.704.896Zm-226.983 58.352c-2.464 0-4.648-.598-6.552-1.792-1.904-1.232-3.416-2.987-4.536-5.264-1.082-2.278-1.624-4.984-1.624-8.12 0-3.174.56-5.88 1.68-8.12 1.12-2.278 2.651-4.014 4.592-5.208 1.942-1.232 4.126-1.848 6.552-1.848 2.166 0 3.976.429 5.432 1.288 1.456.821 2.539 1.885 3.248 3.192h.336l-.336-4.088v-11.032h5.936v40.096h-5.6v-3.584h-.336c-.784 1.157-1.904 2.202-3.36 3.136-1.418.896-3.229 1.344-5.432 1.344Zm1.176-5.544c2.278 0 4.163-.822 5.656-2.464 1.531-1.643 2.296-4.032 2.296-7.168s-.765-5.526-2.296-7.168c-1.493-1.643-3.378-2.464-5.656-2.464-2.277 0-4.181.821-5.712 2.464-1.493 1.642-2.24 4.032-2.24 7.168s.747 5.525 2.24 7.168c1.531 1.642 3.435 2.464 5.712 2.464Zm32.402 5.544c-2.464 0-4.648-.598-6.552-1.792-1.904-1.232-3.416-2.987-4.536-5.264-1.082-2.278-1.624-4.984-1.624-8.12 0-3.174.56-5.88 1.68-8.12 1.12-2.278 2.651-4.014 4.592-5.208 1.942-1.232 4.126-1.848 6.552-1.848 2.166 0 3.976.429 5.432 1.288 1.456.821 2.539 1.885 3.248 3.192h.336v-3.584h5.6v28.56h-5.6v-3.584h-.336c-.784 1.157-1.904 2.202-3.36 3.136-1.418.896-3.229 1.344-5.432 1.344Zm1.176-5.544c2.278 0 4.163-.822 5.656-2.464 1.531-1.643 2.296-4.032 2.296-7.168s-.765-5.526-2.296-7.168c-1.493-1.643-3.378-2.464-5.656-2.464-2.277 0-4.181.821-5.712 2.464-1.493 1.642-2.24 4.032-2.24 7.168s.747 5.525 2.24 7.168c1.531 1.642 3.435 2.464 5.712 2.464Zm38.843 5.488c-2.95 0-5.32-.859-7.112-2.576-1.792-1.755-2.688-4.256-2.688-7.504v-14.112h-6.552v-5.208h6.552v-7.84h5.992v7.84h10.472v5.208h-10.472v13.552c0 1.605.41 2.856 1.232 3.752.821.858 2.053 1.288 3.696 1.288 1.418 0 2.8-.374 4.144-1.12l1.736 5.04c-.971.56-1.979.97-3.024 1.232-1.008.298-2.334.448-3.976.448Zm28.818.056c-2.875 0-5.358-.635-7.448-1.904-2.054-1.27-3.659-3.043-4.816-5.32-1.12-2.278-1.68-4.91-1.68-7.896 0-3.024.578-5.675 1.736-7.952 1.194-2.315 2.837-4.107 4.928-5.376 2.128-1.27 4.554-1.904 7.28-1.904 4.293 0 7.56 1.232 9.8 3.696 2.24 2.426 3.36 5.73 3.36 9.912 0 1.008-.056 1.96-.168 2.856h-21.112c.186 2.762 1.026 4.872 2.52 6.328 1.53 1.456 3.472 2.184 5.824 2.184 1.904 0 3.416-.43 4.536-1.288a7.532 7.532 0 0 0 2.408-3.304l5.208 1.4c-.784 2.576-2.222 4.648-4.312 6.216-2.054 1.568-4.742 2.352-8.064 2.352Zm0-25.312c-1.979 0-3.659.578-5.04 1.736-1.382 1.157-2.315 2.893-2.8 5.208h15.12c-.112-2.091-.784-3.771-2.016-5.04-1.232-1.27-2.987-1.904-5.264-1.904Z" fill="#FE6F6F"/><path d="M263.992 442.475c-3.248 0-5.749-.971-7.504-2.912-1.754-1.979-2.632-4.648-2.632-8.008v-18.536h5.992v17.752c0 2.09.542 3.64 1.624 4.648 1.083 1.008 2.483 1.512 4.2 1.512 2.091 0 3.752-.747 4.984-2.24 1.27-1.531 1.904-3.379 1.904-5.544v-16.128h5.936v28.56h-5.6v-3.64h-.336c-.746 1.344-1.904 2.445-3.472 3.304-1.53.821-3.229 1.232-5.096 1.232Zm36.042-34.832c-1.306 0-2.408-.448-3.304-1.344-.896-.896-1.344-1.998-1.344-3.304 0-1.27.448-2.352 1.344-3.248.896-.896 1.998-1.344 3.304-1.344 1.307 0 2.408.448 3.304 1.344.896.896 1.344 1.978 1.344 3.248 0 1.306-.448 2.408-1.344 3.304-.896.896-1.997 1.344-3.304 1.344Zm-12.824 33.936v-5.432h9.8v-17.696h-8.12v-5.432h14.112v23.128h9.856v5.432H287.21Zm45.115.896c-2.464 0-4.648-.598-6.552-1.792-1.904-1.232-3.416-2.987-4.536-5.264-1.083-2.278-1.624-4.984-1.624-8.12 0-3.174.56-5.88 1.68-8.12 1.12-2.278 2.65-4.014 4.592-5.208 1.941-1.232 4.125-1.848 6.552-1.848 2.165 0 3.976.429 5.432 1.288 1.456.821 2.538 1.885 3.248 3.192h.336l-.336-4.088v-11.032h5.936v40.096h-5.6v-3.584h-.336c-.784 1.157-1.904 2.202-3.36 3.136-1.419.896-3.23 1.344-5.432 1.344Zm1.176-5.544c2.277 0 4.162-.822 5.656-2.464 1.53-1.643 2.296-4.032 2.296-7.168s-.766-5.526-2.296-7.168c-1.494-1.643-3.379-2.464-5.656-2.464-2.278 0-4.182.821-5.712 2.464-1.494 1.642-2.24 4.032-2.24 7.168s.746 5.525 2.24 7.168c1.53 1.642 3.434 2.464 5.712 2.464Z" fill="#FF6584"/><path d="M204.396 907.531c-3.061 0-5.432-.858-7.112-2.576-1.68-1.717-2.52-4.069-2.52-7.056v-9.016c0-1.68-.448-2.837-1.344-3.472-.896-.672-1.923-1.008-3.08-1.008h-1.344v-5.04h1.344c1.157 0 2.184-.317 3.08-.952.896-.672 1.344-1.848 1.344-3.528v-9.016c0-2.986.84-5.338 2.52-7.056 1.68-1.717 4.051-2.576 7.112-2.576h4.592v4.984h-4.2c-1.195 0-2.203.411-3.024 1.232-.821.822-1.232 1.998-1.232 3.528v9.296c0 3.51-1.475 5.656-4.424 6.44v.336c1.493.411 2.595 1.139 3.304 2.184.747 1.008 1.12 2.427 1.12 4.256v9.296c0 1.531.411 2.707 1.232 3.528.821.822 1.829 1.232 3.024 1.232h4.2v4.984h-4.592Zm196.373 63.392c-1.27 0-2.371-.448-3.304-1.344-.934-.933-1.4-2.053-1.4-3.36 0-1.269.466-2.37 1.4-3.304.933-.933 2.034-1.4 3.304-1.4 1.269 0 2.37.467 3.304 1.4.933.934 1.4 2.035 1.4 3.304 0 1.307-.467 2.427-1.4 3.36-.934.896-2.035 1.344-3.304 1.344Zm0-20.832c-1.27 0-2.371-.448-3.304-1.344-.934-.933-1.4-2.053-1.4-3.36 0-1.269.466-2.37 1.4-3.304.933-.933 2.034-1.4 3.304-1.4 1.269 0 2.37.467 3.304 1.4.933.934 1.4 2.035 1.4 3.304 0 1.307-.467 2.427-1.4 3.36-.934.896-2.035 1.344-3.304 1.344Zm55.116 20.496v-5.6h9.52v-26.6l-8.736 6.384v-6.608l10.472-7.672h4.256v34.496h9.016v5.6h-24.528Zm33.578 0v-5.824c3.36-2.538 6.235-4.834 8.624-6.888 2.427-2.053 4.405-3.976 5.936-5.768 1.456-1.68 2.539-3.341 3.248-4.984a12.999 12.999 0 0 0 1.064-5.208c0-2.202-.597-3.864-1.792-4.984s-2.837-1.68-4.928-1.68c-1.979 0-3.584.598-4.816 1.792-1.195 1.158-1.904 2.744-2.128 4.76l-5.712-.56c.149-2.128.728-4.069 1.736-5.824 1.045-1.792 2.483-3.21 4.312-4.256 1.867-1.045 4.088-1.568 6.664-1.568 3.995 0 7.112 1.046 9.352 3.136 2.277 2.054 3.416 4.928 3.416 8.624 0 2.688-.56 5.19-1.68 7.504-1.083 2.315-2.501 4.518-4.256 6.608a48.825 48.825 0 0 1-5.04 4.984 73.946 73.946 0 0 1-5.88 4.536l.112.168h17.64v5.432h-25.872Zm49.034 0v-8.064h-18.032v-4.704l17.584-27.328h6.384v26.376h5.208v5.656h-5.208v8.064h-5.936Zm-11.256-13.72h11.256v-16.912h-.336l-10.92 16.912Zm41.418 14.056c-1.269 0-2.37-.448-3.304-1.344-.933-.933-1.4-2.053-1.4-3.36 0-1.269.467-2.37 1.4-3.304.934-.933 2.035-1.4 3.304-1.4 1.27 0 2.371.467 3.304 1.4.934.934 1.4 2.035 1.4 3.304 0 1.307-.466 2.427-1.4 3.36-.933.896-2.034 1.344-3.304 1.344Zm21.539-.336v-5.6h9.52v-26.6l-8.736 6.384v-6.608l10.472-7.672h4.256v34.496h9.016v5.6h-24.528Zm33.578 0v-5.824c3.36-2.538 6.234-4.834 8.624-6.888 2.426-2.053 4.405-3.976 5.936-5.768 1.456-1.68 2.538-3.341 3.248-4.984a12.999 12.999 0 0 0 1.064-5.208c0-2.202-.598-3.864-1.792-4.984-1.195-1.12-2.838-1.68-4.928-1.68-1.979 0-3.584.598-4.816 1.792-1.195 1.158-1.904 2.744-2.128 4.76l-5.712-.56c.149-2.128.728-4.069 1.736-5.824 1.045-1.792 2.482-3.21 4.312-4.256 1.866-1.045 4.088-1.568 6.664-1.568 3.994 0 7.112 1.046 9.352 3.136 2.277 2.054 3.416 4.928 3.416 8.624 0 2.688-.56 5.19-1.68 7.504-1.083 2.315-2.502 4.518-4.256 6.608a49.026 49.026 0 0 1-5.04 4.984 74.311 74.311 0 0 1-5.88 4.536l.112.168h17.64v5.432h-25.872Zm41.194 7.224 2.912-15.456h8.008l-5.544 15.456h-5.376Zm-297.779 63.109c-1.27 0-2.371-.44-3.304-1.34-.934-.93-1.4-2.05-1.4-3.36 0-1.27.466-2.37 1.4-3.3.933-.94 2.034-1.4 3.304-1.4 1.269 0 2.37.46 3.304 1.4.933.93 1.4 2.03 1.4 3.3 0 1.31-.467 2.43-1.4 3.36-.934.9-2.035 1.34-3.304 1.34Zm0-20.83c-1.27 0-2.371-.45-3.304-1.34-.934-.94-1.4-2.06-1.4-3.36 0-1.27.466-2.37 1.4-3.31.933-.93 2.034-1.4 3.304-1.4 1.269 0 2.37.47 3.304 1.4.933.94 1.4 2.04 1.4 3.31 0 1.3-.467 2.42-1.4 3.36-.934.89-2.035 1.34-3.304 1.34Zm58.532-2.91v-16.69h5.432v16.69h-5.432Zm11.816 0v-16.69h5.432v16.69h-5.432Zm29.098 24.3c-2.464 0-4.648-.59-6.552-1.79-1.904-1.23-3.416-2.99-4.536-5.26-1.083-2.28-1.624-4.99-1.624-8.12 0-3.18.56-5.88 1.68-8.12 1.12-2.28 2.651-4.02 4.592-5.21 1.941-1.23 4.125-1.85 6.552-1.85 2.165 0 3.976.43 5.432 1.29 1.456.82 2.539 1.88 3.248 3.19h.336l-.336-4.09v-11.03h5.936v40.1h-5.6V1037h-.336c-.784 1.16-1.904 2.21-3.36 3.14-1.419.9-3.229 1.34-5.432 1.34Zm1.176-5.54c2.277 0 4.163-.82 5.656-2.46 1.531-1.65 2.296-4.04 2.296-7.17 0-3.14-.765-5.53-2.296-7.17-1.493-1.64-3.379-2.46-5.656-2.46-2.277 0-4.181.82-5.712 2.46-1.493 1.64-2.24 4.03-2.24 7.17 0 3.13.747 5.52 2.24 7.17 1.531 1.64 3.435 2.46 5.712 2.46Zm32.402 5.54c-2.464 0-4.648-.59-6.552-1.79-1.904-1.23-3.416-2.99-4.536-5.26-1.083-2.28-1.624-4.99-1.624-8.12 0-3.18.56-5.88 1.68-8.12 1.12-2.28 2.651-4.02 4.592-5.21 1.941-1.23 4.125-1.85 6.552-1.85 2.165 0 3.976.43 5.432 1.29 1.456.82 2.539 1.88 3.248 3.19h.336v-3.58h5.6v28.56h-5.6V1037h-.336c-.784 1.16-1.904 2.21-3.36 3.14-1.419.9-3.229 1.34-5.432 1.34Zm1.176-5.54c2.277 0 4.163-.82 5.656-2.46 1.531-1.65 2.296-4.04 2.296-7.17 0-3.14-.765-5.53-2.296-7.17-1.493-1.64-3.379-2.46-5.656-2.46-2.277 0-4.181.82-5.712 2.46-1.493 1.64-2.24 4.03-2.24 7.17 0 3.13.747 5.52 2.24 7.17 1.531 1.64 3.435 2.46 5.712 2.46Zm30.61 4.65-11.984-28.56h6.552l8.4 20.89h.28l8.4-20.89h6.44l-12.096 28.56h-5.992Zm36.658-33.94c-1.306 0-2.408-.45-3.304-1.34-.896-.9-1.344-2-1.344-3.31 0-1.27.448-2.349 1.344-3.245.896-.896 1.998-1.344 3.304-1.344 1.307 0 2.408.448 3.304 1.344.896.896 1.344 1.975 1.344 3.245 0 1.31-.448 2.41-1.344 3.31-.896.89-1.997 1.34-3.304 1.34Zm-12.824 33.94v-5.43h9.8v-17.7h-8.12v-5.43h14.112v23.13h9.856v5.43h-25.648Zm45.115.89c-2.464 0-4.648-.59-6.552-1.79-1.904-1.23-3.416-2.99-4.536-5.26-1.083-2.28-1.624-4.99-1.624-8.12 0-3.18.56-5.88 1.68-8.12 1.12-2.28 2.65-4.02 4.592-5.21 1.941-1.23 4.125-1.85 6.552-1.85 2.165 0 3.976.43 5.432 1.29 1.456.82 2.538 1.88 3.248 3.19h.336l-.336-4.09v-11.03h5.936v40.1h-5.6V1037h-.336c-.784 1.16-1.904 2.21-3.36 3.14-1.419.9-3.23 1.34-5.432 1.34Zm1.176-5.54c2.277 0 4.162-.82 5.656-2.46 1.53-1.65 2.296-4.04 2.296-7.17 0-3.14-.766-5.53-2.296-7.17-1.494-1.64-3.379-2.46-5.656-2.46-2.278 0-4.182.82-5.712 2.46-1.494 1.64-2.24 4.03-2.24 7.17 0 3.13.746 5.52 2.24 7.17 1.53 1.64 3.434 2.46 5.712 2.46Zm22.546 16.74v-5.2h22.288v5.2h-22.288Zm32.682-12.09v-5.6h9.52v-26.6l-8.736 6.38v-6.61l10.472-7.67h4.256v34.5h9.016v5.6h-24.528Zm33.578 0v-5.83c3.36-2.54 6.235-4.83 8.624-6.88 2.427-2.06 4.405-3.98 5.936-5.77 1.456-1.68 2.539-3.34 3.248-4.99a12.989 12.989 0 0 0 1.064-5.2c0-2.21-.597-3.87-1.792-4.99s-2.837-1.68-4.928-1.68c-1.979 0-3.584.6-4.816 1.79-1.195 1.16-1.904 2.75-2.128 4.76l-5.712-.56c.149-2.12.728-4.07 1.736-5.82 1.045-1.79 2.483-3.21 4.312-4.26 1.867-1.04 4.088-1.565 6.664-1.565 3.995 0 7.112 1.045 9.352 3.135 2.277 2.05 3.416 4.93 3.416 8.63 0 2.68-.56 5.18-1.68 7.5-1.083 2.31-2.501 4.52-4.256 6.61a49.101 49.101 0 0 1-5.04 4.98 74.45 74.45 0 0 1-5.88 4.54l.112.17h17.64v5.43h-25.872Zm45.282.89c-2.277 0-4.368-.44-6.272-1.34a12.898 12.898 0 0 1-4.76-3.81c-1.232-1.68-1.979-3.69-2.24-6.05l5.88-1.34c.299 2.05 1.101 3.7 2.408 4.93 1.307 1.23 2.968 1.85 4.984 1.85 2.165 0 3.92-.62 5.264-1.85 1.344-1.27 2.016-2.91 2.016-4.93 0-2.13-.691-3.77-2.072-4.93-1.344-1.16-3.192-1.73-5.544-1.73h-3.136v-5.44h2.912c1.867 0 3.453-.5 4.76-1.51 1.344-1.04 2.016-2.52 2.016-4.42 0-1.72-.579-3.1-1.736-4.15-1.12-1.08-2.651-1.62-4.592-1.62-1.755 0-3.211.5-4.368 1.51-1.157.97-1.885 2.26-2.184 3.87l-5.712-.73c.261-1.94.933-3.68 2.016-5.21 1.12-1.53 2.539-2.74 4.256-3.64 1.755-.9 3.771-1.345 6.048-1.345 2.427 0 4.555.465 6.384 1.405 1.867.93 3.304 2.2 4.312 3.8 1.008 1.61 1.512 3.4 1.512 5.38 0 1.6-.261 2.97-.784 4.09-.523 1.12-1.195 2.05-2.016 2.8-.784.74-1.605 1.38-2.464 1.9v.34c1.904.78 3.453 1.98 4.648 3.58 1.195 1.61 1.792 3.73 1.792 6.39 0 2.31-.56 4.38-1.68 6.21-1.12 1.83-2.688 3.29-4.704 4.37-2.016 1.08-4.331 1.62-6.944 1.62Zm25.29-24.3v-16.69h5.432v16.69h-5.432Zm11.816 0v-16.69h5.432v16.69h-5.432Zm25.962 30.63 2.912-15.45h8.008l-5.544 15.45h-5.376Zm-264.201 63.11c-1.269 0-2.37-.44-3.304-1.34-.933-.93-1.4-2.05-1.4-3.36 0-1.27.467-2.37 1.4-3.3.934-.94 2.035-1.4 3.304-1.4 1.27 0 2.371.46 3.304 1.4.934.93 1.4 2.03 1.4 3.3 0 1.31-.466 2.43-1.4 3.36-.933.9-2.034 1.34-3.304 1.34Zm0-20.83c-1.269 0-2.37-.45-3.304-1.34-.933-.94-1.4-2.06-1.4-3.36 0-1.27.467-2.37 1.4-3.31.934-.93 2.035-1.4 3.304-1.4 1.27 0 2.371.47 3.304 1.4.934.94 1.4 2.04 1.4 3.31 0 1.3-.466 2.42-1.4 3.36-.933.89-2.034 1.34-3.304 1.34Zm58.533-2.91v-16.69h5.432v16.69h-5.432Zm11.816 0v-16.69h5.432v16.69h-5.432Zm17.618 23.41v-40.1h5.936v11.03l-.336 4.37h.336c.746-1.34 1.922-2.46 3.528-3.36 1.642-.93 3.434-1.4 5.376-1.4 3.621 0 6.29 1.03 8.008 3.08 1.754 2.05 2.632 4.76 2.632 8.12v18.26h-5.936v-17.53c0-2.05-.56-3.62-1.68-4.7-1.083-1.12-2.595-1.68-4.536-1.68-1.456 0-2.744.37-3.864 1.12-1.083.74-1.942 1.77-2.576 3.08-.635 1.26-.952 2.68-.952 4.25v15.46h-5.936Zm46.346.89c-2.912 0-5.451-.63-7.616-1.9-2.128-1.31-3.771-3.1-4.928-5.38-1.158-2.31-1.736-4.94-1.736-7.89 0-2.99.578-5.62 1.736-7.9 1.157-2.28 2.8-4.05 4.928-5.32 2.165-1.31 4.704-1.96 7.616-1.96s5.432.65 7.56 1.96c2.165 1.27 3.826 3.04 4.984 5.32 1.157 2.28 1.736 4.91 1.736 7.9 0 2.98-.579 5.62-1.736 7.89-1.158 2.28-2.819 4.07-4.984 5.38-2.128 1.27-4.648 1.9-7.56 1.9Zm0-5.54c2.426 0 4.424-.82 5.992-2.46 1.568-1.68 2.352-4.07 2.352-7.17 0-3.1-.784-5.47-2.352-7.11-1.568-1.68-3.566-2.52-5.992-2.52-2.427 0-4.424.84-5.992 2.52-1.568 1.64-2.352 4.01-2.352 7.11 0 3.1.784 5.49 2.352 7.17 1.568 1.64 3.565 2.46 5.992 2.46Zm38.73 5.49c-2.949 0-5.32-.86-7.112-2.58-1.792-1.75-2.688-4.25-2.688-7.5v-14.11h-6.552v-5.21h6.552v-7.84h5.992v7.84h10.472v5.21h-10.472v13.55c0 1.6.411 2.85 1.232 3.75.821.86 2.053 1.29 3.696 1.29 1.419 0 2.8-.38 4.144-1.12l1.736 5.04c-.971.56-1.979.97-3.024 1.23-1.008.3-2.333.45-3.976.45Zm28.818.05c-2.875 0-5.357-.63-7.448-1.9-2.053-1.27-3.659-3.04-4.816-5.32-1.12-2.28-1.68-4.91-1.68-7.9 0-3.02.579-5.67 1.736-7.95 1.195-2.31 2.837-4.11 4.928-5.37 2.128-1.27 4.555-1.91 7.28-1.91 4.293 0 7.56 1.23 9.8 3.7 2.24 2.42 3.36 5.73 3.36 9.91 0 1.01-.056 1.96-.168 2.86h-21.112c.187 2.76 1.027 4.87 2.52 6.32 1.531 1.46 3.472 2.19 5.824 2.19 1.904 0 3.416-.43 4.536-1.29 1.12-.9 1.923-2 2.408-3.3l5.208 1.4c-.784 2.57-2.221 4.64-4.312 6.21-2.053 1.57-4.741 2.35-8.064 2.35Zm0-25.31c-1.979 0-3.659.58-5.04 1.74-1.381 1.15-2.315 2.89-2.8 5.21h15.12c-.112-2.1-.784-3.78-2.016-5.04-1.232-1.27-2.987-1.91-5.264-1.91Zm20.362 24.42v-5.43h9.8v-29.24h-8.12v-5.43h14.112v34.67h9.856v5.43h-25.648Zm37.778-23.41v-16.69h5.432v16.69h-5.432Zm11.816 0v-16.69h5.432v16.69h-5.432Zm25.962 30.63 2.912-15.45h8.008l-5.544 15.45h-5.376Zm-432.091 63.11c-1.27 0-2.371-.44-3.304-1.34-.934-.93-1.4-2.05-1.4-3.36 0-1.27.466-2.37 1.4-3.3.933-.94 2.034-1.4 3.304-1.4 1.269 0 2.37.46 3.304 1.4.933.93 1.4 2.03 1.4 3.3 0 1.31-.467 2.43-1.4 3.36-.934.9-2.035 1.34-3.304 1.34Zm0-20.83c-1.27 0-2.371-.45-3.304-1.34-.934-.94-1.4-2.06-1.4-3.36 0-1.27.466-2.37 1.4-3.31.933-.93 2.034-1.4 3.304-1.4 1.269 0 2.37.47 3.304 1.4.933.94 1.4 2.04 1.4 3.31 0 1.3-.467 2.42-1.4 3.36-.934.89-2.035 1.34-3.304 1.34Zm72.252 27.44c-3.061 0-5.432-.86-7.112-2.57-1.68-1.72-2.52-4.07-2.52-7.06v-9.02c0-1.68-.448-2.83-1.344-3.47-.896-.67-1.923-1.01-3.08-1.01h-1.344v-5.04h1.344c1.157 0 2.184-.31 3.08-.95.896-.67 1.344-1.85 1.344-3.53v-9.01c0-2.99.84-5.34 2.52-7.06 1.68-1.72 4.051-2.57 7.112-2.57h4.592v4.98h-4.2c-1.195 0-2.203.41-3.024 1.23-.821.82-1.232 2-1.232 3.53v9.3c0 3.5-1.475 5.65-4.424 6.44v.33c1.493.41 2.595 1.14 3.304 2.19.747 1 1.12 2.42 1.12 4.25v9.3c0 1.53.411 2.7 1.232 3.53.821.82 1.829 1.23 3.024 1.23h4.2v4.98h-4.592Zm52.372 0v-4.98h4.2c1.195 0 2.203-.41 3.024-1.23.822-.83 1.232-2 1.232-3.53v-9.3c0-1.83.355-3.25 1.064-4.25.747-1.05 1.867-1.78 3.36-2.19v-.33c-2.949-.79-4.424-2.94-4.424-6.44v-9.3c0-1.53-.41-2.71-1.232-3.53-.821-.82-1.829-1.23-3.024-1.23h-4.2v-4.98h4.592c3.062 0 5.432.85 7.112 2.57 1.68 1.72 2.52 4.07 2.52 7.06v9.01c0 1.68.448 2.86 1.344 3.53.896.64 1.923.95 3.08.95h1.344v5.04h-1.344c-1.157 0-2.184.34-3.08 1.01-.896.64-1.344 1.79-1.344 3.47v9.02c0 2.99-.84 5.34-2.52 7.06-1.68 1.71-4.05 2.57-7.112 2.57h-4.592Zm38.842.28 2.912-15.45h8.008l-5.544 15.45h-5.376Zm-29.154 63.11c-1.269 0-2.37-.44-3.304-1.34-.933-.93-1.4-2.05-1.4-3.36 0-1.27.467-2.37 1.4-3.3.934-.94 2.035-1.4 3.304-1.4 1.27 0 2.371.46 3.304 1.4.934.93 1.4 2.03 1.4 3.3 0 1.31-.466 2.43-1.4 3.36-.933.9-2.034 1.34-3.304 1.34Zm0-20.83c-1.269 0-2.37-.45-3.304-1.34-.933-.94-1.4-2.06-1.4-3.36 0-1.27.467-2.37 1.4-3.31.934-.93 2.035-1.4 3.304-1.4 1.27 0 2.371.47 3.304 1.4.934.94 1.4 2.04 1.4 3.31 0 1.3-.466 2.42-1.4 3.36-.933.89-2.034 1.34-3.304 1.34Zm72.309 21.34c-2.95 0-5.32-.86-7.112-2.58-1.792-1.75-2.688-4.25-2.688-7.5v-14.11h-6.552v-5.21h6.552v-7.84h5.992v7.84h10.472v5.21h-10.472v13.55c0 1.6.41 2.85 1.232 3.75.821.86 2.053 1.29 3.696 1.29 1.418 0 2.8-.38 4.144-1.12l1.736 5.04c-.971.56-1.979.97-3.024 1.23-1.008.3-2.334.45-3.976.45Zm19.074-.84v-28.56h5.656v4.81h.336c.821-1.79 2.016-3.19 3.584-4.2 1.605-1 3.509-1.51 5.712-1.51 1.082 0 2.09.09 3.024.28.97.15 1.754.41 2.352.79v6.27c-.896-.49-1.904-.88-3.024-1.18-1.083-.3-2.278-.45-3.584-.45-2.539 0-4.518.88-5.936 2.64-1.419 1.71-2.128 3.88-2.128 6.49v14.62h-5.992Zm40.466.89c-3.248 0-5.75-.97-7.504-2.91-1.755-1.98-2.632-4.65-2.632-8.01v-18.53h5.992v17.75c0 2.09.541 3.64 1.624 4.65 1.082 1.01 2.482 1.51 4.2 1.51 2.09 0 3.752-.75 4.984-2.24 1.269-1.53 1.904-3.38 1.904-5.54v-16.13h5.936v28.56h-5.6v-3.64h-.336c-.747 1.34-1.904 2.44-3.472 3.3-1.531.82-3.23 1.23-5.096 1.23Zm36.434 0c-2.875 0-5.357-.63-7.448-1.9-2.053-1.27-3.659-3.04-4.816-5.32-1.12-2.28-1.68-4.91-1.68-7.9 0-3.02.579-5.67 1.736-7.95 1.195-2.31 2.837-4.11 4.928-5.37 2.128-1.27 4.555-1.91 7.28-1.91 4.293 0 7.56 1.23 9.8 3.7 2.24 2.42 3.36 5.73 3.36 9.91 0 1.01-.056 1.96-.168 2.86h-21.112c.187 2.76 1.027 4.87 2.52 6.32 1.531 1.46 3.472 2.19 5.824 2.19 1.904 0 3.416-.43 4.536-1.29 1.12-.9 1.923-2 2.408-3.3l5.208 1.4c-.784 2.57-2.221 4.64-4.312 6.21-2.053 1.57-4.741 2.35-8.064 2.35Zm0-25.31c-1.979 0-3.659.58-5.04 1.74-1.381 1.15-2.315 2.89-2.8 5.21h15.12c-.112-2.1-.784-3.78-2.016-5.04-1.232-1.27-2.987-1.91-5.264-1.91Zm-513.752 101.36v-4.98h4.2c1.195 0 2.203-.41 3.024-1.23.821-.83 1.232-2 1.232-3.53v-9.3c0-1.83.355-3.25 1.064-4.25.747-1.05 1.867-1.78 3.36-2.19v-.33c-2.949-.79-4.424-2.94-4.424-6.44v-9.3c0-1.53-.411-2.71-1.232-3.53-.821-.82-1.829-1.23-3.024-1.23h-4.2v-4.98h4.592c3.061 0 5.432.85 7.112 2.57 1.68 1.72 2.52 4.07 2.52 7.06v9.01c0 1.68.448 2.86 1.344 3.53.896.64 1.923.95 3.08.95h1.344v5.04h-1.344c-1.157 0-2.184.34-3.08 1.01-.896.64-1.344 1.79-1.344 3.47v9.02c0 2.99-.84 5.34-2.52 7.06-1.68 1.71-4.051 2.57-7.112 2.57h-4.592Z" fill="#F5F5F5"/><path d="M266.904 971.483c-2.725 0-5.133-.616-7.224-1.848-2.09-1.269-3.714-3.042-4.872-5.32-1.157-2.277-1.736-4.946-1.736-8.008 0-3.061.598-5.73 1.792-8.008 1.195-2.277 2.838-4.032 4.928-5.264 2.128-1.269 4.574-1.904 7.336-1.904 3.435 0 6.291.84 8.568 2.52 2.315 1.68 3.734 4.032 4.256 7.056l-5.824.952c-.373-1.53-1.194-2.744-2.464-3.64-1.232-.933-2.781-1.4-4.648-1.4-2.24 0-4.144.84-5.712 2.52-1.53 1.68-2.296 4.07-2.296 7.168 0 3.099.766 5.488 2.296 7.168 1.531 1.643 3.435 2.464 5.712 2.464 1.904 0 3.435-.448 4.592-1.344 1.158-.933 2.016-2.258 2.576-3.976l5.6 1.344c-.672 2.8-2.09 5.096-4.256 6.888-2.165 1.755-5.04 2.632-8.624 2.632Zm33.13 0c-2.912 0-5.45-.634-7.616-1.904-2.128-1.306-3.77-3.098-4.928-5.376-1.157-2.314-1.736-4.946-1.736-7.896 0-2.986.579-5.618 1.736-7.896 1.158-2.277 2.8-4.05 4.928-5.32 2.166-1.306 4.704-1.96 7.616-1.96s5.432.654 7.56 1.96c2.166 1.27 3.827 3.043 4.984 5.32 1.158 2.278 1.736 4.91 1.736 7.896 0 2.987-.578 5.619-1.736 7.896-1.157 2.278-2.818 4.07-4.984 5.376-2.128 1.27-4.648 1.904-7.56 1.904Zm0-5.544c2.427 0 4.424-.821 5.992-2.464 1.568-1.68 2.352-4.069 2.352-7.168 0-3.098-.784-5.469-2.352-7.112-1.568-1.68-3.565-2.52-5.992-2.52-2.426 0-4.424.84-5.992 2.52-1.568 1.643-2.352 4.014-2.352 7.112 0 3.099.784 5.488 2.352 7.168 1.568 1.643 3.566 2.464 5.992 2.464Zm33.691 5.544c-3.734 0-6.608-.821-8.624-2.464-2.016-1.642-3.323-3.808-3.92-6.496l5.768-1.064a6.227 6.227 0 0 0 2.128 3.416c1.12.859 2.669 1.288 4.648 1.288 1.68 0 3.098-.298 4.256-.896 1.194-.634 1.792-1.549 1.792-2.744 0-1.157-.504-2.053-1.512-2.688-.971-.634-2.408-1.138-4.312-1.512l-3.472-.616c-2.39-.41-4.35-1.288-5.88-2.632-1.531-1.344-2.296-3.192-2.296-5.544 0-1.642.485-3.08 1.456-4.312.97-1.269 2.277-2.258 3.92-2.968 1.68-.746 3.584-1.12 5.712-1.12 3.136 0 5.693.635 7.672 1.904 2.016 1.27 3.285 3.267 3.808 5.992l-5.32.952c-.448-1.418-1.214-2.408-2.296-2.968-1.083-.597-2.352-.896-3.808-.896-1.494 0-2.763.318-3.808.952-1.046.598-1.568 1.363-1.568 2.296 0 1.008.41 1.811 1.232 2.408.858.56 2.09.99 3.696 1.288l4.144.728c2.8.486 4.928 1.382 6.384 2.688 1.456 1.27 2.184 3.23 2.184 5.88 0 1.83-.523 3.435-1.568 4.816-1.046 1.382-2.483 2.446-4.312 3.192-1.83.747-3.864 1.12-6.104 1.12Zm38.618-.056c-2.95 0-5.32-.858-7.112-2.576-1.792-1.754-2.688-4.256-2.688-7.504v-14.112h-6.552v-5.208h6.552v-7.84h5.992v7.84h10.472v5.208h-10.472v13.552c0 1.606.41 2.856 1.232 3.752.821.859 2.053 1.288 3.696 1.288 1.418 0 2.8-.373 4.144-1.12l1.736 5.04c-.971.56-1.979.971-3.024 1.232-1.008.299-2.334.448-3.976.448Zm-108.351 70.053c-3.248 0-5.749-.97-7.504-2.91-1.754-1.98-2.632-4.65-2.632-8.01v-18.53h5.992v17.75c0 2.09.542 3.64 1.624 4.65 1.083 1.01 2.483 1.51 4.2 1.51 2.091 0 3.752-.75 4.984-2.24 1.27-1.53 1.904-3.38 1.904-5.54v-16.13h5.936v28.56h-5.6v-3.64h-.336c-.746 1.34-1.904 2.44-3.472 3.3-1.53.82-3.229 1.23-5.096 1.23Zm36.042-34.83c-1.306 0-2.408-.45-3.304-1.34-.896-.9-1.344-2-1.344-3.31 0-1.27.448-2.349 1.344-3.245.896-.896 1.998-1.344 3.304-1.344 1.307 0 2.408.448 3.304 1.344.896.896 1.344 1.975 1.344 3.245 0 1.31-.448 2.41-1.344 3.31-.896.89-1.997 1.34-3.304 1.34Zm-12.824 33.94v-5.43h9.8v-17.7h-8.12v-5.43h14.112v23.13h9.856v5.43H287.21Zm45.115.89c-2.464 0-4.648-.59-6.552-1.79-1.904-1.23-3.416-2.99-4.536-5.26-1.083-2.28-1.624-4.99-1.624-8.12 0-3.18.56-5.88 1.68-8.12 1.12-2.28 2.65-4.02 4.592-5.21 1.941-1.23 4.125-1.85 6.552-1.85 2.165 0 3.976.43 5.432 1.29 1.456.82 2.538 1.88 3.248 3.19h.336l-.336-4.09v-11.03h5.936v40.1h-5.6V1037h-.336c-.784 1.16-1.904 2.21-3.36 3.14-1.419.9-3.23 1.34-5.432 1.34Zm1.176-5.54c2.277 0 4.162-.82 5.656-2.46 1.53-1.65 2.296-4.04 2.296-7.17 0-3.14-.766-5.53-2.296-7.17-1.494-1.64-3.379-2.46-5.656-2.46-2.278 0-4.182.82-5.712 2.46-1.494 1.64-2.24 4.03-2.24 7.17 0 3.13.746 5.52 2.24 7.17 1.53 1.64 3.434 2.46 5.712 2.46Zm-66.597 75.54c-2.725 0-5.133-.61-7.224-1.84-2.09-1.27-3.714-3.05-4.872-5.32-1.157-2.28-1.736-4.95-1.736-8.01 0-3.06.598-5.73 1.792-8.01 1.195-2.28 2.838-4.03 4.928-5.26 2.128-1.27 4.574-1.91 7.336-1.91 3.435 0 6.291.84 8.568 2.52 2.315 1.68 3.734 4.03 4.256 7.06l-5.824.95c-.373-1.53-1.194-2.74-2.464-3.64-1.232-.93-2.781-1.4-4.648-1.4-2.24 0-4.144.84-5.712 2.52-1.53 1.68-2.296 4.07-2.296 7.17 0 3.1.766 5.49 2.296 7.17 1.531 1.64 3.435 2.46 5.712 2.46 1.904 0 3.435-.45 4.592-1.34 1.158-.94 2.016-2.26 2.576-3.98l5.6 1.34c-.672 2.8-2.09 5.1-4.256 6.89-2.165 1.76-5.04 2.63-8.624 2.63Zm31.842 0c-2.464 0-4.648-.59-6.552-1.79-1.904-1.23-3.416-2.99-4.536-5.26-1.082-2.28-1.624-4.99-1.624-8.12 0-3.18.56-5.88 1.68-8.12 1.12-2.28 2.651-4.02 4.592-5.21 1.942-1.23 4.126-1.85 6.552-1.85 2.166 0 3.976.43 5.432 1.29 1.456.82 2.539 1.88 3.248 3.19h.336v-3.58h5.6v28.56h-5.6V1107h-.336c-.784 1.16-1.904 2.21-3.36 3.14-1.418.9-3.229 1.34-5.432 1.34Zm1.176-5.54c2.278 0 4.163-.82 5.656-2.46 1.531-1.65 2.296-4.04 2.296-7.17 0-3.14-.765-5.53-2.296-7.17-1.493-1.64-3.378-2.46-5.656-2.46-2.277 0-4.181.82-5.712 2.46-1.493 1.64-2.24 4.03-2.24 7.17 0 3.13.747 5.52 2.24 7.17 1.531 1.64 3.435 2.46 5.712 2.46Zm38.843 5.49c-2.95 0-5.32-.86-7.112-2.58-1.792-1.75-2.688-4.25-2.688-7.5v-14.11h-6.552v-5.21h6.552v-7.84h5.992v7.84h10.472v5.21h-10.472v13.55c0 1.6.41 2.85 1.232 3.75.821.86 2.053 1.29 3.696 1.29 1.418 0 2.8-.38 4.144-1.12l1.736 5.04c-.971.56-1.979.97-3.024 1.23-1.008.3-2.334.45-3.976.45Zm28.818.05c-2.875 0-5.358-.63-7.448-1.9-2.054-1.27-3.659-3.04-4.816-5.32-1.12-2.28-1.68-4.91-1.68-7.9 0-3.02.578-5.67 1.736-7.95 1.194-2.31 2.837-4.11 4.928-5.37 2.128-1.27 4.554-1.91 7.28-1.91 4.293 0 7.56 1.23 9.8 3.7 2.24 2.42 3.36 5.73 3.36 9.91 0 1.01-.056 1.96-.168 2.86h-21.112c.186 2.76 1.026 4.87 2.52 6.32 1.53 1.46 3.472 2.19 5.824 2.19 1.904 0 3.416-.43 4.536-1.29 1.12-.9 1.922-2 2.408-3.3l5.208 1.4c-.784 2.57-2.222 4.64-4.312 6.21-2.054 1.57-4.742 2.35-8.064 2.35Zm0-25.31c-1.979 0-3.659.58-5.04 1.74-1.382 1.15-2.315 2.89-2.8 5.21h15.12c-.112-2.1-.784-3.78-2.016-5.04-1.232-1.27-2.987-1.91-5.264-1.91Zm32.85 37.41c-3.659 0-6.571-.9-8.736-2.69-2.166-1.75-3.51-3.94-4.032-6.55l5.824-1.29c.448 1.49 1.232 2.73 2.352 3.7 1.157 1.01 2.688 1.51 4.592 1.51 2.576 0 4.554-.82 5.936-2.46 1.381-1.61 2.072-3.83 2.072-6.67V1106h-.336c-.971 1.41-2.184 2.5-3.64 3.24-1.419.75-3.192 1.12-5.32 1.12-2.24 0-4.294-.58-6.16-1.73-1.83-1.16-3.304-2.82-4.424-4.99-1.12-2.16-1.68-4.79-1.68-7.89 0-3.1.56-5.73 1.68-7.9 1.12-2.16 2.613-3.83 4.48-4.98 1.904-1.16 3.994-1.74 6.272-1.74 1.904 0 3.621.37 5.152 1.12 1.53.75 2.744 1.79 3.64 3.14h.336v-3.36h5.656v26.99c0 4.7-1.251 8.31-3.752 10.81-2.502 2.5-5.806 3.75-9.912 3.75Zm.168-18.7c2.128 0 3.957-.75 5.488-2.24 1.568-1.54 2.352-3.83 2.352-6.89 0-3.06-.784-5.34-2.352-6.83-1.531-1.54-3.36-2.3-5.488-2.3-1.382 0-2.67.34-3.864 1.01-1.195.67-2.147 1.7-2.856 3.08-.71 1.34-1.064 3.02-1.064 5.04 0 3.06.765 5.35 2.296 6.89 1.568 1.49 3.397 2.24 5.488 2.24Zm33.746 6.6c-2.912 0-5.451-.63-7.616-1.9-2.128-1.31-3.771-3.1-4.928-5.38-1.157-2.31-1.736-4.94-1.736-7.89 0-2.99.579-5.62 1.736-7.9 1.157-2.28 2.8-4.05 4.928-5.32 2.165-1.31 4.704-1.96 7.616-1.96s5.432.65 7.56 1.96c2.165 1.27 3.827 3.04 4.984 5.32 1.157 2.28 1.736 4.91 1.736 7.9 0 2.98-.579 5.62-1.736 7.89-1.157 2.28-2.819 4.07-4.984 5.38-2.128 1.27-4.648 1.9-7.56 1.9Zm0-5.54c2.427 0 4.424-.82 5.992-2.46 1.568-1.68 2.352-4.07 2.352-7.17 0-3.1-.784-5.47-2.352-7.11-1.568-1.68-3.565-2.52-5.992-2.52s-4.424.84-5.992 2.52c-1.568 1.64-2.352 4.01-2.352 7.11 0 3.1.784 5.49 2.352 7.17 1.568 1.64 3.565 2.46 5.992 2.46Zm24.226 4.65v-28.56h5.656v4.81h.336c.821-1.79 2.016-3.19 3.584-4.2 1.605-1 3.509-1.51 5.712-1.51 1.083 0 2.091.09 3.024.28.971.15 1.755.41 2.352.79v6.27c-.896-.49-1.904-.88-3.024-1.18-1.083-.3-2.277-.45-3.584-.45-2.539 0-4.517.88-5.936 2.64-1.419 1.71-2.128 3.88-2.128 6.49v14.62h-5.992Zm33.578 12.54c-1.083 0-2.035-.09-2.856-.28-.821-.15-1.531-.33-2.128-.56v-5.71c.448.22 1.101.47 1.96.73s1.792.39 2.8.39c1.232 0 2.24-.36 3.024-1.06.784-.71 1.531-1.91 2.24-3.59l1.288-3.08-11.48-27.94h6.608l7.84 20.16h.28l8.232-20.16h6.552l-14.224 33.43c-.709 1.68-1.493 3.08-2.352 4.2-.821 1.16-1.848 2.02-3.08 2.58-1.232.59-2.8.89-4.704.89Zm-226.983 58.35c-2.464 0-4.648-.59-6.552-1.79-1.904-1.23-3.416-2.99-4.536-5.26-1.082-2.28-1.624-4.99-1.624-8.12 0-3.18.56-5.88 1.68-8.12 1.12-2.28 2.651-4.02 4.592-5.21 1.942-1.23 4.126-1.85 6.552-1.85 2.166 0 3.976.43 5.432 1.29 1.456.82 2.539 1.88 3.248 3.19h.336l-.336-4.09v-11.03h5.936v40.1h-5.6V1177h-.336c-.784 1.16-1.904 2.21-3.36 3.14-1.418.9-3.229 1.34-5.432 1.34Zm1.176-5.54c2.278 0 4.163-.82 5.656-2.46 1.531-1.65 2.296-4.04 2.296-7.17 0-3.14-.765-5.53-2.296-7.17-1.493-1.64-3.378-2.46-5.656-2.46-2.277 0-4.181.82-5.712 2.46-1.493 1.64-2.24 4.03-2.24 7.17 0 3.13.747 5.52 2.24 7.17 1.531 1.64 3.435 2.46 5.712 2.46Zm32.402 5.54c-2.464 0-4.648-.59-6.552-1.79-1.904-1.23-3.416-2.99-4.536-5.26-1.082-2.28-1.624-4.99-1.624-8.12 0-3.18.56-5.88 1.68-8.12 1.12-2.28 2.651-4.02 4.592-5.21 1.942-1.23 4.126-1.85 6.552-1.85 2.166 0 3.976.43 5.432 1.29 1.456.82 2.539 1.88 3.248 3.19h.336v-3.58h5.6v28.56h-5.6V1177h-.336c-.784 1.16-1.904 2.21-3.36 3.14-1.418.9-3.229 1.34-5.432 1.34Zm1.176-5.54c2.278 0 4.163-.82 5.656-2.46 1.531-1.65 2.296-4.04 2.296-7.17 0-3.14-.765-5.53-2.296-7.17-1.493-1.64-3.378-2.46-5.656-2.46-2.277 0-4.181.82-5.712 2.46-1.493 1.64-2.24 4.03-2.24 7.17 0 3.13.747 5.52 2.24 7.17 1.531 1.64 3.435 2.46 5.712 2.46Zm38.843 5.49c-2.95 0-5.32-.86-7.112-2.58-1.792-1.75-2.688-4.25-2.688-7.5v-14.11h-6.552v-5.21h6.552v-7.84h5.992v7.84h10.472v5.21h-10.472v13.55c0 1.6.41 2.85 1.232 3.75.821.86 2.053 1.29 3.696 1.29 1.418 0 2.8-.38 4.144-1.12l1.736 5.04c-.971.56-1.979.97-3.024 1.23-1.008.3-2.334.45-3.976.45Zm28.818.05c-2.875 0-5.358-.63-7.448-1.9-2.054-1.27-3.659-3.04-4.816-5.32-1.12-2.28-1.68-4.91-1.68-7.9 0-3.02.578-5.67 1.736-7.95 1.194-2.31 2.837-4.11 4.928-5.37 2.128-1.27 4.554-1.91 7.28-1.91 4.293 0 7.56 1.23 9.8 3.7 2.24 2.42 3.36 5.73 3.36 9.91 0 1.01-.056 1.96-.168 2.86h-21.112c.186 2.76 1.026 4.87 2.52 6.32 1.53 1.46 3.472 2.19 5.824 2.19 1.904 0 3.416-.43 4.536-1.29 1.12-.9 1.922-2 2.408-3.3l5.208 1.4c-.784 2.57-2.222 4.64-4.312 6.21-2.054 1.57-4.742 2.35-8.064 2.35Zm0-25.31c-1.979 0-3.659.58-5.04 1.74-1.382 1.15-2.315 2.89-2.8 5.21h15.12c-.112-2.1-.784-3.78-2.016-5.04-1.232-1.27-2.987-1.91-5.264-1.91Zm-102.415 95.31c-2.464 0-4.648-.59-6.552-1.79-1.904-1.23-3.416-2.99-4.536-5.26-1.082-2.28-1.624-4.99-1.624-8.12 0-3.18.56-5.88 1.68-8.12 1.12-2.28 2.651-4.02 4.592-5.21 1.942-1.23 4.126-1.85 6.552-1.85 2.166 0 3.976.43 5.432 1.29 1.456.82 2.539 1.88 3.248 3.19h.336v-3.58h5.6v28.56h-5.6V1247h-.336c-.784 1.16-1.904 2.21-3.36 3.14-1.418.9-3.229 1.34-5.432 1.34Zm1.176-5.54c2.278 0 4.163-.82 5.656-2.46 1.531-1.65 2.296-4.04 2.296-7.17 0-3.14-.765-5.53-2.296-7.17-1.493-1.64-3.378-2.46-5.656-2.46-2.277 0-4.181.82-5.712 2.46-1.493 1.64-2.24 4.03-2.24 7.17 0 3.13.747 5.52 2.24 7.17 1.531 1.64 3.435 2.46 5.712 2.46Zm20.362 16.74v-40.65h5.6v3.69h.336c.747-1.23 1.867-2.29 3.36-3.19 1.531-.93 3.342-1.4 5.432-1.4 2.464 0 4.648.62 6.552 1.85 1.942 1.19 3.454 2.93 4.536 5.21 1.083 2.24 1.624 4.94 1.624 8.12 0 3.13-.541 5.84-1.624 8.12-1.082 2.27-2.594 4.03-4.536 5.26-1.904 1.2-4.088 1.79-6.552 1.79-2.165 0-3.994-.44-5.488-1.34-1.493-.9-2.594-1.94-3.304-3.14h-.336l.336 4.09v11.59h-5.936Zm13.552-16.74c2.278 0 4.163-.8 5.656-2.41 1.531-1.64 2.296-4.05 2.296-7.22 0-3.18-.765-5.57-2.296-7.17-1.493-1.64-3.378-2.46-5.656-2.46-2.277 0-4.181.82-5.712 2.46-1.493 1.6-2.24 3.99-2.24 7.17 0 3.17.747 5.58 2.24 7.22 1.531 1.61 3.435 2.41 5.712 2.41Zm20.027 16.74v-40.65h5.6v3.69h.336c.746-1.23 1.866-2.29 3.36-3.19 1.53-.93 3.341-1.4 5.432-1.4 2.464 0 4.648.62 6.552 1.85 1.941 1.19 3.453 2.93 4.536 5.21 1.082 2.24 1.624 4.94 1.624 8.12 0 3.13-.542 5.84-1.624 8.12-1.083 2.27-2.595 4.03-4.536 5.26-1.904 1.2-4.088 1.79-6.552 1.79-2.166 0-3.995-.44-5.488-1.34-1.494-.9-2.595-1.94-3.304-3.14h-.336l.336 4.09v11.59h-5.936Zm13.552-16.74c2.277 0 4.162-.8 5.656-2.41 1.53-1.64 2.296-4.05 2.296-7.22 0-3.18-.766-5.57-2.296-7.17-1.494-1.64-3.379-2.46-5.656-2.46-2.278 0-4.182.82-5.712 2.46-1.494 1.6-2.24 3.99-2.24 7.17 0 3.17.746 5.58 2.24 7.22 1.53 1.61 3.434 2.41 5.712 2.41Zm24.002 4.65v-28.56h5.656v4.81h.336c.821-1.79 2.016-3.19 3.584-4.2 1.605-1 3.509-1.51 5.712-1.51 1.082 0 2.09.09 3.024.28.97.15 1.754.41 2.352.79v6.27c-.896-.49-1.904-.88-3.024-1.18-1.083-.3-2.278-.45-3.584-.45-2.539 0-4.518.88-5.936 2.64-1.419 1.71-2.128 3.88-2.128 6.49v14.62h-5.992Zm42.93.89c-2.912 0-5.451-.63-7.616-1.9-2.128-1.31-3.771-3.1-4.928-5.38-1.158-2.31-1.736-4.94-1.736-7.89 0-2.99.578-5.62 1.736-7.9 1.157-2.28 2.8-4.05 4.928-5.32 2.165-1.31 4.704-1.96 7.616-1.96s5.432.65 7.56 1.96c2.165 1.27 3.826 3.04 4.984 5.32 1.157 2.28 1.736 4.91 1.736 7.9 0 2.98-.579 5.62-1.736 7.89-1.158 2.28-2.819 4.07-4.984 5.38-2.128 1.27-4.648 1.9-7.56 1.9Zm0-5.54c2.426 0 4.424-.82 5.992-2.46 1.568-1.68 2.352-4.07 2.352-7.17 0-3.1-.784-5.47-2.352-7.11-1.568-1.68-3.566-2.52-5.992-2.52-2.427 0-4.424.84-5.992 2.52-1.568 1.64-2.352 4.01-2.352 7.11 0 3.1.784 5.49 2.352 7.17 1.568 1.64 3.565 2.46 5.992 2.46Zm30.498 4.65-11.984-28.56h6.552l8.4 20.89h.28l8.4-20.89h6.44l-12.096 28.56h-5.992Zm37.05.89c-2.875 0-5.357-.63-7.448-1.9-2.053-1.27-3.659-3.04-4.816-5.32-1.12-2.28-1.68-4.91-1.68-7.9 0-3.02.579-5.67 1.736-7.95 1.195-2.31 2.837-4.11 4.928-5.37 2.128-1.27 4.555-1.91 7.28-1.91 4.293 0 7.56 1.23 9.8 3.7 2.24 2.42 3.36 5.73 3.36 9.91 0 1.01-.056 1.96-.168 2.86h-21.112c.187 2.76 1.027 4.87 2.52 6.32 1.531 1.46 3.472 2.19 5.824 2.19 1.904 0 3.416-.43 4.536-1.29 1.12-.9 1.923-2 2.408-3.3l5.208 1.4c-.784 2.57-2.221 4.64-4.312 6.21-2.053 1.57-4.741 2.35-8.064 2.35Zm0-25.31c-1.979 0-3.659.58-5.04 1.74-1.381 1.15-2.315 2.89-2.8 5.21h15.12c-.112-2.1-.784-3.78-2.016-5.04-1.232-1.27-2.987-1.91-5.264-1.91Zm31.898 25.31c-2.464 0-4.648-.59-6.552-1.79-1.904-1.23-3.416-2.99-4.536-5.26-1.083-2.28-1.624-4.99-1.624-8.12 0-3.18.56-5.88 1.68-8.12 1.12-2.28 2.651-4.02 4.592-5.21 1.941-1.23 4.125-1.85 6.552-1.85 2.165 0 3.976.43 5.432 1.29 1.456.82 2.539 1.88 3.248 3.19h.336l-.336-4.09v-11.03h5.936v40.1h-5.6V1247h-.336c-.784 1.16-1.904 2.21-3.36 3.14-1.419.9-3.229 1.34-5.432 1.34Zm1.176-5.54c2.277 0 4.163-.82 5.656-2.46 1.531-1.65 2.296-4.04 2.296-7.17 0-3.14-.765-5.53-2.296-7.17-1.493-1.64-3.379-2.46-5.656-2.46-2.277 0-4.181.82-5.712 2.46-1.493 1.64-2.24 4.03-2.24 7.17 0 3.13.747 5.52 2.24 7.17 1.531 1.64 3.435 2.46 5.712 2.46Z" fill="#FE6F6F"/><path d="M999.481 655.5v-31.504h8.269c4.52 0 8.01 1.393 10.48 4.18 2.49 2.787 3.74 6.644 3.74 11.572 0 4.928-1.25 8.785-3.74 11.572-2.47 2.787-5.96 4.18-10.48 4.18h-8.269Zm4.799-4.576h3.39c2.93 0 5.23-.909 6.9-2.728 1.7-1.819 2.56-4.635 2.56-8.448 0-3.813-.86-6.629-2.56-8.448-1.67-1.819-3.97-2.728-6.9-2.728h-3.39v22.352Zm32.58-22.088c-1.02 0-1.89-.352-2.59-1.056-.71-.704-1.06-1.569-1.06-2.596 0-.997.35-1.848 1.06-2.552.7-.704 1.57-1.056 2.59-1.056 1.03 0 1.9.352 2.6 1.056.7.704 1.06 1.555 1.06 2.552 0 1.027-.36 1.892-1.06 2.596-.7.704-1.57 1.056-2.6 1.056Zm-10.07 26.664v-4.268h7.7v-13.904h-6.38v-4.268h11.09v18.172h7.74v4.268h-20.15Zm32.63 0v-18.348h-5.94v-4.092h5.94v-1.408c0-2.845.81-5.045 2.42-6.6 1.64-1.584 3.77-2.376 6.38-2.376 1.35 0 2.52.161 3.52.484 1.03.293 1.88.689 2.55 1.188l-1.8 3.96a6.877 6.877 0 0 0-4.05-1.276c-1.38 0-2.45.396-3.21 1.188-.77.792-1.15 1.951-1.15 3.476v1.364h7.83v4.092h-7.83V655.5h-4.66Zm26.38 0v-18.348h-5.94v-4.092h5.94v-1.408c0-2.845.81-5.045 2.42-6.6 1.64-1.584 3.77-2.376 6.38-2.376 1.35 0 2.52.161 3.52.484 1.03.293 1.88.689 2.55 1.188l-1.8 3.96c-1.2-.851-2.55-1.276-4.05-1.276-1.38 0-2.45.396-3.21 1.188-.76.792-1.14 1.951-1.14 3.476v1.364h7.83v4.092h-7.83V655.5h-4.67Zm30.52.704c-2.26 0-4.21-.499-5.85-1.496-1.61-.997-2.88-2.391-3.79-4.18-.88-1.789-1.32-3.857-1.32-6.204 0-2.376.46-4.459 1.37-6.248.94-1.819 2.23-3.227 3.87-4.224 1.67-.997 3.58-1.496 5.72-1.496 3.37 0 5.94.968 7.7 2.904 1.76 1.907 2.64 4.503 2.64 7.788 0 .792-.04 1.54-.13 2.244h-16.59c.15 2.171.81 3.828 1.98 4.972 1.2 1.144 2.73 1.716 4.58 1.716 1.49 0 2.68-.337 3.56-1.012a5.894 5.894 0 0 0 1.89-2.596l4.09 1.1c-.61 2.024-1.74 3.652-3.38 4.884-1.62 1.232-3.73 1.848-6.34 1.848Zm0-19.888c-1.55 0-2.87.455-3.96 1.364-1.08.909-1.82 2.273-2.2 4.092h11.88c-.09-1.643-.62-2.963-1.58-3.96-.97-.997-2.35-1.496-4.14-1.496Zm18.73 19.184v-22.44h4.44v3.784h.27c.64-1.408 1.58-2.508 2.81-3.3 1.26-.792 2.76-1.188 4.49-1.188.85 0 1.64.073 2.38.22.76.117 1.37.323 1.84.616v4.928c-.7-.381-1.49-.689-2.37-.924-.85-.235-1.79-.352-2.82-.352-1.99 0-3.55.689-4.66 2.068-1.12 1.349-1.67 3.051-1.67 5.104V655.5h-4.71Zm34.04.704c-2.26 0-4.21-.499-5.86-1.496-1.61-.997-2.87-2.391-3.78-4.18-.88-1.789-1.32-3.857-1.32-6.204 0-2.376.45-4.459 1.36-6.248.94-1.819 2.23-3.227 3.88-4.224 1.67-.997 3.57-1.496 5.72-1.496 3.37 0 5.94.968 7.7 2.904 1.76 1.907 2.64 4.503 2.64 7.788 0 .792-.05 1.54-.14 2.244h-16.58c.14 2.171.8 3.828 1.98 4.972 1.2 1.144 2.72 1.716 4.57 1.716 1.5 0 2.69-.337 3.57-1.012a5.894 5.894 0 0 0 1.89-2.596l4.09 1.1c-.62 2.024-1.75 3.652-3.39 4.884-1.61 1.232-3.72 1.848-6.33 1.848Zm0-19.888c-1.56 0-2.88.455-3.96 1.364-1.09.909-1.82 2.273-2.2 4.092h11.88c-.09-1.643-.62-2.963-1.59-3.96-.97-.997-2.34-1.496-4.13-1.496Zm16.61 19.184v-22.44h4.44v2.816h.27c.59-1.056 1.48-1.907 2.68-2.552 1.23-.645 2.58-.968 4.05-.968 2.52 0 4.47.763 5.85 2.288s2.07 3.623 2.07 6.292V655.5h-4.66v-13.948c0-1.643-.43-2.86-1.28-3.652-.85-.792-1.95-1.188-3.3-1.188-1.64 0-2.96.601-3.96 1.804-.97 1.203-1.45 2.64-1.45 4.312V655.5h-4.71Zm39.89.66c-2.32 0-4.18-.675-5.59-2.024-1.4-1.379-2.11-3.344-2.11-5.896v-11.088h-5.15v-4.092h5.15v-6.16h4.71v6.16h8.23v4.092h-8.23V647.8c0 1.261.32 2.244.97 2.948.64.675 1.61 1.012 2.9 1.012 1.12 0 2.2-.293 3.26-.88l1.36 3.96c-.76.44-1.55.763-2.37.968-.8.235-1.84.352-3.13.352Zm41.94-19.052v-13.112h4.27v13.112h-4.27Zm9.29 0v-13.112h4.27v13.112h-4.27Zm23.96 19.096c-2.93 0-5.19-.645-6.78-1.936-1.58-1.291-2.61-2.992-3.08-5.104l4.54-.836c.26 1.085.82 1.98 1.67 2.684.88.675 2.1 1.012 3.65 1.012 1.32 0 2.43-.235 3.34-.704.94-.499 1.41-1.217 1.41-2.156 0-.909-.39-1.613-1.19-2.112-.76-.499-1.89-.895-3.38-1.188l-2.73-.484c-1.88-.323-3.42-1.012-4.62-2.068-1.2-1.056-1.81-2.508-1.81-4.356 0-1.291.39-2.42 1.15-3.388.76-.997 1.79-1.775 3.08-2.332 1.32-.587 2.81-.88 4.49-.88 2.46 0 4.47.499 6.02 1.496 1.59.997 2.59 2.567 3 4.708l-4.18.748c-.36-1.115-.96-1.892-1.81-2.332-.85-.469-1.85-.704-2.99-.704-1.17 0-2.17.249-2.99.748-.82.469-1.23 1.071-1.23 1.804 0 .792.32 1.423.96 1.892.68.44 1.65.777 2.91 1.012l3.25.572c2.2.381 3.88 1.085 5.02 2.112 1.14.997 1.72 2.537 1.72 4.62 0 1.437-.41 2.699-1.24 3.784-.82 1.085-1.95 1.921-3.38 2.508-1.44.587-3.04.88-4.8.88Zm26.65 0c-2.14 0-4.04-.484-5.68-1.452-1.64-.997-2.92-2.391-3.83-4.18-.91-1.789-1.36-3.887-1.36-6.292s.47-4.503 1.41-6.292c.94-1.789 2.23-3.168 3.87-4.136 1.67-.997 3.59-1.496 5.76-1.496 2.7 0 4.95.66 6.74 1.98 1.81 1.32 2.93 3.168 3.34 5.544l-4.58.748a4.779 4.779 0 0 0-1.93-2.86c-.97-.733-2.19-1.1-3.65-1.1-1.76 0-3.26.66-4.49 1.98-1.21 1.32-1.81 3.197-1.81 5.632 0 2.435.6 4.312 1.81 5.632 1.2 1.291 2.7 1.936 4.49 1.936 1.49 0 2.69-.352 3.6-1.056.91-.733 1.59-1.775 2.03-3.124l4.4 1.056c-.53 2.2-1.65 4.004-3.35 5.412-1.7 1.379-3.96 2.068-6.77 2.068Zm16-.704v-31.504h4.66v8.668l-.26 3.432h.26c.59-1.056 1.51-1.936 2.77-2.64 1.29-.733 2.7-1.1 4.23-1.1 2.84 0 4.94.807 6.29 2.42 1.38 1.613 2.07 3.74 2.07 6.38V655.5h-4.67v-13.772c0-1.613-.44-2.845-1.32-3.696-.85-.88-2.04-1.32-3.56-1.32-1.15 0-2.16.293-3.04.88-.85.587-1.52 1.393-2.02 2.42-.5.997-.75 2.112-.75 3.344V655.5h-4.66Zm36.72.704c-2.26 0-4.21-.499-5.85-1.496-1.62-.997-2.88-2.391-3.79-4.18-.88-1.789-1.32-3.857-1.32-6.204 0-2.376.46-4.459 1.37-6.248.94-1.819 2.23-3.227 3.87-4.224 1.67-.997 3.58-1.496 5.72-1.496 3.37 0 5.94.968 7.7 2.904 1.76 1.907 2.64 4.503 2.64 7.788 0 .792-.05 1.54-.13 2.244h-16.59c.15 2.171.81 3.828 1.98 4.972 1.2 1.144 2.73 1.716 4.57 1.716 1.5 0 2.69-.337 3.57-1.012a5.894 5.894 0 0 0 1.89-2.596l4.09 1.1c-.61 2.024-1.74 3.652-3.39 4.884-1.61 1.232-3.72 1.848-6.33 1.848Zm0-19.888c-1.56 0-2.88.455-3.96 1.364-1.09.909-1.82 2.273-2.2 4.092h11.88c-.09-1.643-.62-2.963-1.59-3.96-.96-.997-2.34-1.496-4.13-1.496Zm14.46 19.184v-22.44h4.22v1.936h.27c.35-.792.9-1.423 1.67-1.892.79-.499 1.68-.748 2.68-.748 1.2 0 2.11.264 2.73.792.64.499 1.11 1.1 1.41 1.804.35-.675.95-1.276 1.8-1.804.85-.528 1.86-.792 3.04-.792 1.7 0 3.02.543 3.96 1.628.97 1.056 1.45 2.64 1.45 4.752V655.5h-4.44v-16.412c0-.792-.21-1.423-.62-1.892-.38-.469-.92-.704-1.63-.704-.85 0-1.51.293-1.98.88-.44.557-.66 1.305-.66 2.244V655.5h-4.49v-16.368c0-.792-.19-1.423-.57-1.892-.35-.499-.92-.748-1.71-.748-.77 0-1.4.293-1.9.88s-.74 1.349-.74 2.288v15.84h-4.49Zm36.98.704c-1.93 0-3.65-.469-5.14-1.408-1.5-.968-2.69-2.347-3.57-4.136-.85-1.789-1.27-3.916-1.27-6.38 0-2.493.44-4.62 1.32-6.38.88-1.789 2.08-3.153 3.6-4.092 1.53-.968 3.25-1.452 5.15-1.452 1.7 0 3.13.337 4.27 1.012 1.14.645 1.99 1.481 2.55 2.508h.27v-2.816h4.4v22.44h-4.4v-2.816h-.27c-.61.909-1.49 1.731-2.64 2.464-1.11.704-2.54 1.056-4.27 1.056Zm.93-4.356c1.79 0 3.27-.645 4.44-1.936 1.2-1.291 1.81-3.168 1.81-5.632 0-2.464-.61-4.341-1.81-5.632-1.17-1.291-2.65-1.936-4.44-1.936-1.79 0-3.29.645-4.49 1.936-1.17 1.291-1.76 3.168-1.76 5.632 0 2.464.59 4.341 1.76 5.632 1.2 1.291 2.7 1.936 4.49 1.936Zm26.56 4.356c-2.94 0-5.19-.645-6.78-1.936-1.58-1.291-2.61-2.992-3.08-5.104l4.53-.836c.27 1.085.82 1.98 1.68 2.684.88.675 2.09 1.012 3.65 1.012 1.32 0 2.43-.235 3.34-.704.94-.499 1.41-1.217 1.41-2.156 0-.909-.4-1.613-1.19-2.112-.76-.499-1.89-.895-3.39-1.188l-2.72-.484c-1.88-.323-3.42-1.012-4.62-2.068-1.21-1.056-1.81-2.508-1.81-4.356 0-1.291.38-2.42 1.15-3.388.76-.997 1.78-1.775 3.08-2.332 1.32-.587 2.81-.88 4.48-.88 2.47 0 4.48.499 6.03 1.496 1.59.997 2.58 2.567 2.99 4.708l-4.18.748c-.35-1.115-.95-1.892-1.8-2.332-.85-.469-1.85-.704-2.99-.704-1.18 0-2.17.249-2.99.748-.83.469-1.24 1.071-1.24 1.804 0 .792.33 1.423.97 1.892.68.44 1.64.777 2.91 1.012l3.25.572c2.2.381 3.87 1.085 5.02 2.112 1.14.997 1.71 2.537 1.71 4.62 0 1.437-.41 2.699-1.23 3.784-.82 1.085-1.95 1.921-3.39 2.508-1.43.587-3.03.88-4.79.88Zm19.52-19.096v-13.112h4.26v13.112h-4.26Zm9.28 0v-13.112h4.27v13.112h-4.27Zm-476.61 74.096c-1.67 0-3.09-.352-4.26-1.056-1.15-.704-2.03-1.525-2.64-2.464h-.27v2.816h-4.399v-31.504h4.669v8.712l-.27 3.168h.27c.55-.88 1.42-1.687 2.59-2.42 1.2-.733 2.64-1.1 4.31-1.1 1.94 0 3.66.484 5.15 1.452 1.53.968 2.71 2.347 3.57 4.136.85 1.76 1.27 3.872 1.27 6.336 0 2.464-.42 4.591-1.27 6.38-.86 1.76-2.04 3.124-3.57 4.092-1.49.968-3.21 1.452-5.15 1.452Zm-.92-4.356c1.79 0 3.27-.645 4.44-1.936 1.21-1.32 1.81-3.197 1.81-5.632 0-2.435-.6-4.297-1.81-5.588-1.17-1.32-2.65-1.98-4.44-1.98-1.79 0-3.29.66-4.49 1.98-1.17 1.291-1.76 3.153-1.76 5.588s.59 4.312 1.76 5.632c1.2 1.291 2.7 1.936 4.49 1.936Zm26.82 4.356c-2.26 0-4.21-.499-5.85-1.496-1.61-.997-2.87-2.391-3.78-4.18-.88-1.789-1.32-3.857-1.32-6.204 0-2.376.45-4.459 1.36-6.248.94-1.819 2.23-3.227 3.87-4.224 1.67-.997 3.58-1.496 5.72-1.496 3.38 0 5.94.968 7.7 2.904 1.76 1.907 2.64 4.503 2.64 7.788 0 .792-.04 1.54-.13 2.244h-16.59c.15 2.171.81 3.828 1.98 4.972 1.2 1.144 2.73 1.716 4.58 1.716 1.49 0 2.68-.337 3.56-1.012a5.894 5.894 0 0 0 1.89-2.596l4.1 1.1c-.62 2.024-1.75 3.652-3.39 4.884-1.62 1.232-3.73 1.848-6.34 1.848Zm0-19.888c-1.55 0-2.87.455-3.96 1.364-1.08.909-1.82 2.273-2.2 4.092h11.88c-.09-1.643-.61-2.963-1.58-3.96-.97-.997-2.35-1.496-4.14-1.496Zm30.12 19.844c-2.31 0-4.18-.675-5.58-2.024-1.41-1.379-2.12-3.344-2.12-5.896v-11.088h-5.14v-4.092h5.14v-6.16h4.71v6.16h8.23v4.092h-8.23V702.8c0 1.261.33 2.244.97 2.948.65.675 1.61 1.012 2.9 1.012 1.12 0 2.2-.293 3.26-.88l1.36 3.96c-.76.44-1.55.763-2.37.968-.79.235-1.83.352-3.13.352Zm13.54-.66-3.83-22.44h4.4l2.29 15.224h.18l3.52-15.224h4.48l3.57 15.224h.17l2.25-15.224h4.31l-3.83 22.44h-5.1l-3.35-14.256-.26-1.804h-.18l-.26 1.804-3.3 14.256h-5.06Zm35.49.704c-2.26 0-4.21-.499-5.85-1.496-1.61-.997-2.88-2.391-3.79-4.18-.88-1.789-1.32-3.857-1.32-6.204 0-2.376.46-4.459 1.37-6.248.94-1.819 2.23-3.227 3.87-4.224 1.67-.997 3.58-1.496 5.72-1.496 3.37 0 5.94.968 7.7 2.904 1.76 1.907 2.64 4.503 2.64 7.788 0 .792-.04 1.54-.13 2.244h-16.59c.15 2.171.81 3.828 1.98 4.972 1.2 1.144 2.73 1.716 4.58 1.716 1.49 0 2.68-.337 3.56-1.012a5.894 5.894 0 0 0 1.89-2.596l4.09 1.1c-.61 2.024-1.74 3.652-3.38 4.884-1.62 1.232-3.73 1.848-6.34 1.848Zm0-19.888c-1.55 0-2.87.455-3.96 1.364-1.08.909-1.82 2.273-2.2 4.092h11.88c-.09-1.643-.62-2.963-1.58-3.96-.97-.997-2.35-1.496-4.14-1.496Zm26.38 19.888c-2.26 0-4.21-.499-5.85-1.496-1.61-.997-2.87-2.391-3.78-4.18-.88-1.789-1.32-3.857-1.32-6.204 0-2.376.45-4.459 1.36-6.248.94-1.819 2.23-3.227 3.87-4.224 1.68-.997 3.58-1.496 5.72-1.496 3.38 0 5.94.968 7.7 2.904 1.76 1.907 2.64 4.503 2.64 7.788 0 .792-.04 1.54-.13 2.244h-16.59c.15 2.171.81 3.828 1.98 4.972 1.21 1.144 2.73 1.716 4.58 1.716 1.5 0 2.68-.337 3.56-1.012a5.995 5.995 0 0 0 1.9-2.596l4.09 1.1c-.62 2.024-1.75 3.652-3.39 4.884-1.61 1.232-3.73 1.848-6.34 1.848Zm0-19.888c-1.55 0-2.87.455-3.96 1.364-1.08.909-1.82 2.273-2.2 4.092h11.88c-.08-1.643-.61-2.963-1.58-3.96-.97-.997-2.35-1.496-4.14-1.496Zm16.62 19.184v-22.44h4.44v2.816h.27c.58-1.056 1.48-1.907 2.68-2.552 1.23-.645 2.58-.968 4.05-.968 2.52 0 4.47.763 5.85 2.288s2.07 3.623 2.07 6.292V710.5h-4.67v-13.948c0-1.643-.42-2.86-1.27-3.652-.85-.792-1.95-1.188-3.3-1.188-1.64 0-2.96.601-3.96 1.804-.97 1.203-1.45 2.64-1.45 4.312V710.5h-4.71Zm61.21.704c-1.93 0-3.65-.469-5.15-1.408-1.49-.968-2.68-2.347-3.56-4.136-.85-1.789-1.28-3.916-1.28-6.38 0-2.493.44-4.62 1.32-6.38.88-1.789 2.09-3.153 3.61-4.092 1.53-.968 3.24-1.452 5.15-1.452 1.7 0 3.12.337 4.27 1.012 1.14.645 1.99 1.481 2.55 2.508h.26l-.26-3.212v-8.668h4.66V710.5h-4.4v-2.816h-.26c-.62.909-1.5 1.731-2.64 2.464-1.11.704-2.54 1.056-4.27 1.056Zm.93-4.356c1.79 0 3.27-.645 4.44-1.936 1.2-1.291 1.8-3.168 1.8-5.632 0-2.464-.6-4.341-1.8-5.632-1.17-1.291-2.65-1.936-4.44-1.936-1.79 0-3.29.645-4.49 1.936-1.18 1.291-1.76 3.168-1.76 5.632 0 2.464.58 4.341 1.76 5.632 1.2 1.291 2.7 1.936 4.49 1.936Zm26.47 4.356c-2.29 0-4.29-.499-5.99-1.496-1.67-1.027-2.96-2.435-3.87-4.224-.91-1.819-1.36-3.887-1.36-6.204 0-2.347.45-4.415 1.36-6.204.91-1.789 2.2-3.183 3.87-4.18 1.7-1.027 3.7-1.54 5.99-1.54 2.28 0 4.26.513 5.94 1.54 1.7.997 3 2.391 3.91 4.18.91 1.789 1.37 3.857 1.37 6.204 0 2.347-.46 4.415-1.37 6.204-.91 1.789-2.21 3.197-3.91 4.224-1.68.997-3.66 1.496-5.94 1.496Zm0-4.356c1.9 0 3.47-.645 4.7-1.936 1.24-1.32 1.85-3.197 1.85-5.632 0-2.435-.61-4.297-1.85-5.588-1.23-1.32-2.8-1.98-4.7-1.98-1.91 0-3.48.66-4.71 1.98-1.23 1.291-1.85 3.153-1.85 5.588s.62 4.312 1.85 5.632c1.23 1.291 2.8 1.936 4.71 1.936Zm26.73 4.356c-2.14 0-4.03-.484-5.67-1.452-1.65-.997-2.92-2.391-3.83-4.18-.91-1.789-1.37-3.887-1.37-6.292s.47-4.503 1.41-6.292c.94-1.789 2.23-3.168 3.87-4.136 1.68-.997 3.6-1.496 5.77-1.496 2.7 0 4.94.66 6.73 1.98 1.82 1.32 2.93 3.168 3.34 5.544l-4.57.748c-.3-1.203-.94-2.156-1.94-2.86-.97-.733-2.18-1.1-3.65-1.1-1.76 0-3.26.66-4.49 1.98-1.2 1.32-1.8 3.197-1.8 5.632 0 2.435.6 4.312 1.8 5.632 1.2 1.291 2.7 1.936 4.49 1.936 1.5 0 2.7-.352 3.61-1.056.91-.733 1.58-1.775 2.02-3.124l4.4 1.056c-.53 2.2-1.64 4.004-3.34 5.412-1.7 1.379-3.96 2.068-6.78 2.068Zm24.1 0c-2.56 0-4.52-.763-5.9-2.288-1.38-1.555-2.07-3.652-2.07-6.292V688.06h4.71v13.948c0 1.643.43 2.86 1.28 3.652.85.792 1.95 1.188 3.3 1.188 1.64 0 2.94-.587 3.91-1.76 1-1.203 1.5-2.655 1.5-4.356V688.06h4.66v22.44h-4.4v-2.86h-.26c-.59 1.056-1.5 1.921-2.73 2.596-1.2.645-2.54.968-4 .968Zm16.7-.704v-22.44h4.22v1.936h.27c.35-.792.91-1.423 1.67-1.892.79-.499 1.69-.748 2.68-.748 1.21 0 2.12.264 2.73.792.65.499 1.12 1.1 1.41 1.804.35-.675.95-1.276 1.8-1.804.85-.528 1.87-.792 3.04-.792 1.7 0 3.02.543 3.96 1.628.97 1.056 1.45 2.64 1.45 4.752V710.5h-4.44v-16.412c0-.792-.21-1.423-.62-1.892-.38-.469-.92-.704-1.63-.704-.85 0-1.51.293-1.98.88-.44.557-.66 1.305-.66 2.244V710.5h-4.48v-16.368c0-.792-.2-1.423-.58-1.892-.35-.499-.92-.748-1.71-.748-.77 0-1.4.293-1.89.88-.5.587-.75 1.349-.75 2.288v15.84h-4.49Zm38.31.704c-2.26 0-4.21-.499-5.86-1.496-1.61-.997-2.87-2.391-3.78-4.18-.88-1.789-1.32-3.857-1.32-6.204 0-2.376.45-4.459 1.36-6.248.94-1.819 2.23-3.227 3.88-4.224 1.67-.997 3.57-1.496 5.72-1.496 3.37 0 5.94.968 7.7 2.904 1.76 1.907 2.64 4.503 2.64 7.788 0 .792-.05 1.54-.14 2.244h-16.58c.14 2.171.8 3.828 1.98 4.972 1.2 1.144 2.72 1.716 4.57 1.716 1.5 0 2.69-.337 3.57-1.012a5.894 5.894 0 0 0 1.89-2.596l4.09 1.1c-.62 2.024-1.75 3.652-3.39 4.884-1.61 1.232-3.72 1.848-6.33 1.848Zm0-19.888c-1.56 0-2.88.455-3.96 1.364-1.09.909-1.82 2.273-2.2 4.092h11.88c-.09-1.643-.62-2.963-1.59-3.96-.97-.997-2.34-1.496-4.13-1.496Zm16.61 19.184v-22.44h4.44v2.816h.27c.59-1.056 1.48-1.907 2.68-2.552 1.23-.645 2.58-.968 4.05-.968 2.52 0 4.47.763 5.85 2.288s2.07 3.623 2.07 6.292V710.5h-4.66v-13.948c0-1.643-.43-2.86-1.28-3.652-.85-.792-1.95-1.188-3.3-1.188-1.64 0-2.96.601-3.96 1.804-.97 1.203-1.45 2.64-1.45 4.312V710.5h-4.71Zm39.89.66c-2.32 0-4.18-.675-5.59-2.024-1.4-1.379-2.11-3.344-2.11-5.896v-11.088h-5.15v-4.092h5.15v-6.16h4.71v6.16h8.23v4.092h-8.23V702.8c0 1.261.32 2.244.97 2.948.64.675 1.61 1.012 2.9 1.012 1.12 0 2.2-.293 3.26-.88l1.36 3.96c-.76.44-1.55.763-2.37.968-.8.235-1.84.352-3.13.352Zm22.42.044c-2.93 0-5.19-.645-6.77-1.936-1.59-1.291-2.61-2.992-3.08-5.104l4.53-.836c.26 1.085.82 1.98 1.67 2.684.88.675 2.1 1.012 3.65 1.012 1.32 0 2.44-.235 3.35-.704.94-.499 1.41-1.217 1.41-2.156 0-.909-.4-1.613-1.19-2.112-.76-.499-1.89-.895-3.39-1.188l-2.73-.484c-1.88-.323-3.42-1.012-4.62-2.068-1.2-1.056-1.8-2.508-1.8-4.356 0-1.291.38-2.42 1.14-3.388.76-.997 1.79-1.775 3.08-2.332 1.32-.587 2.82-.88 4.49-.88 2.46 0 4.47.499 6.03 1.496 1.58.997 2.58 2.567 2.99 4.708l-4.18.748c-.35-1.115-.95-1.892-1.8-2.332-.85-.469-1.85-.704-3-.704-1.17 0-2.17.249-2.99.748-.82.469-1.23 1.071-1.23 1.804 0 .792.32 1.423.97 1.892.67.44 1.64.777 2.9 1.012l3.26.572c2.2.381 3.87 1.085 5.01 2.112 1.15.997 1.72 2.537 1.72 4.62 0 1.437-.41 2.699-1.23 3.784-.82 1.085-1.95 1.921-3.39 2.508-1.44.587-3.04.88-4.8.88Z" fill="#D3D3D3"/></svg>