<svg width="1683" height="1130" fill="none" xmlns="http://www.w3.org/2000/svg"><path d="m187.127 414.31 19.768-40.096h5.992l-19.768 40.096h-5.992Zm46.85.896c-2.875 0-5.357-.635-7.448-1.904-2.053-1.269-3.659-3.043-4.816-5.32-1.12-2.277-1.68-4.909-1.68-7.896 0-3.024.579-5.675 1.736-7.952 1.195-2.315 2.837-4.107 4.928-5.376 2.128-1.269 4.555-1.904 7.28-1.904 4.293 0 7.56 1.232 9.8 3.696 2.24 2.427 3.36 5.731 3.36 9.912 0 1.008-.056 1.96-.168 2.856h-21.112c.187 2.763 1.027 4.872 2.52 6.328 1.531 1.456 3.472 2.184 5.824 2.184 1.904 0 3.416-.429 4.536-1.288 1.12-.896 1.923-1.997 2.408-3.304l5.208 1.4c-.784 2.576-2.221 4.648-4.312 6.216-2.053 1.568-4.741 2.352-8.064 2.352Zm0-25.312c-1.979 0-3.659.579-5.04 1.736-1.381 1.157-2.315 2.893-2.8 5.208h15.12c-.112-2.091-.784-3.771-2.016-5.04-1.232-1.269-2.987-1.904-5.264-1.904Zm19.298 24.416 10.304-14.504-10.248-14.056h7l6.776 9.464h.168l6.496-9.464h7.224l-10.416 14.056 10.416 14.504h-6.944l-6.888-9.8h-.112l-6.888 9.8h-6.888Zm34.138 12.096V385.75h5.6v3.696h.336c.747-1.232 1.867-2.296 3.36-3.192 1.531-.933 3.342-1.4 5.432-1.4 2.464 0 4.648.616 6.552 1.848 1.942 1.195 3.454 2.931 4.536 5.208 1.083 2.24 1.624 4.947 1.624 8.12 0 3.136-.541 5.843-1.624 8.12-1.082 2.277-2.594 4.032-4.536 5.264-1.904 1.195-4.088 1.792-6.552 1.792-2.165 0-3.994-.448-5.488-1.344-1.493-.896-2.594-1.941-3.304-3.136h-.336l.336 4.088v11.592h-5.936Zm13.552-16.744c2.278 0 4.163-.803 5.656-2.408 1.531-1.643 2.296-4.051 2.296-7.224s-.765-5.563-2.296-7.168c-1.493-1.643-3.378-2.464-5.656-2.464-2.277 0-4.181.821-5.712 2.464-1.493 1.605-2.24 3.995-2.24 7.168s.747 5.581 2.24 7.224c1.531 1.605 3.435 2.408 5.712 2.408Zm33.747 5.544c-2.875 0-5.358-.635-7.448-1.904-2.054-1.269-3.659-3.043-4.816-5.32-1.12-2.277-1.68-4.909-1.68-7.896 0-3.024.578-5.675 1.736-7.952 1.194-2.315 2.837-4.107 4.928-5.376 2.128-1.269 4.554-1.904 7.28-1.904 4.293 0 7.56 1.232 9.8 3.696 2.24 2.427 3.36 5.731 3.36 9.912 0 1.008-.056 1.96-.168 2.856h-21.112c.186 2.763 1.026 4.872 2.52 6.328 1.53 1.456 3.472 2.184 5.824 2.184 1.904 0 3.416-.429 4.536-1.288 1.12-.896 1.922-1.997 2.408-3.304l5.208 1.4c-.784 2.576-2.222 4.648-4.312 6.216-2.054 1.568-4.742 2.352-8.064 2.352Zm0-25.312c-1.979 0-3.659.579-5.04 1.736-1.382 1.157-2.315 2.893-2.8 5.208h15.12c-.112-2.091-.784-3.771-2.016-5.04-1.232-1.269-2.987-1.904-5.264-1.904Zm21.146 24.416v-28.56h5.656v3.584h.336c.746-1.344 1.885-2.427 3.416-3.248 1.568-.821 3.285-1.232 5.152-1.232 3.21 0 5.693.971 7.448 2.912 1.754 1.941 2.632 4.611 2.632 8.008v18.536h-5.936v-17.752c0-2.091-.542-3.64-1.624-4.648-1.083-1.008-2.483-1.512-4.2-1.512-2.091 0-3.771.765-5.04 2.296-1.232 1.531-1.848 3.36-1.848 5.488v16.128h-5.992Zm45.73.896c-3.734 0-6.608-.821-8.624-2.464-2.016-1.643-3.323-3.808-3.92-6.496l5.768-1.064a6.23 6.23 0 0 0 2.128 3.416c1.12.859 2.669 1.288 4.648 1.288 1.68 0 3.098-.299 4.256-.896 1.194-.635 1.792-1.549 1.792-2.744 0-1.157-.504-2.053-1.512-2.688-.971-.635-2.408-1.139-4.312-1.512l-3.472-.616c-2.39-.411-4.35-1.288-5.88-2.632-1.531-1.344-2.296-3.192-2.296-5.544 0-1.643.485-3.08 1.456-4.312.97-1.269 2.277-2.259 3.92-2.968 1.68-.747 3.584-1.12 5.712-1.12 3.136 0 5.693.635 7.672 1.904 2.016 1.269 3.285 3.267 3.808 5.992l-5.32.952c-.448-1.419-1.214-2.408-2.296-2.968-1.083-.597-2.352-.896-3.808-.896-1.494 0-2.763.317-3.808.952-1.046.597-1.568 1.363-1.568 2.296 0 1.008.41 1.811 1.232 2.408.858.56 2.09.989 3.696 1.288l4.144.728c2.8.485 4.928 1.381 6.384 2.688 1.456 1.269 2.184 3.229 2.184 5.88 0 1.829-.523 3.435-1.568 4.816-1.046 1.381-2.483 2.445-4.312 3.192-1.83.747-3.864 1.12-6.104 1.12Zm33.858 0c-2.875 0-5.357-.635-7.448-1.904-2.053-1.269-3.659-3.043-4.816-5.32-1.12-2.277-1.68-4.909-1.68-7.896 0-3.024.579-5.675 1.736-7.952 1.195-2.315 2.837-4.107 4.928-5.376 2.128-1.269 4.555-1.904 7.28-1.904 4.293 0 7.56 1.232 9.8 3.696 2.24 2.427 3.36 5.731 3.36 9.912 0 1.008-.056 1.96-.168 2.856h-21.112c.187 2.763 1.027 4.872 2.52 6.328 1.531 1.456 3.472 2.184 5.824 2.184 1.904 0 3.416-.429 4.536-1.288 1.12-.896 1.923-1.997 2.408-3.304l5.208 1.4c-.784 2.576-2.221 4.648-4.312 6.216-2.053 1.568-4.741 2.352-8.064 2.352Zm0-25.312c-1.979 0-3.659.579-5.04 1.736-1.381 1.157-2.315 2.893-2.8 5.208h15.12c-.112-2.091-.784-3.771-2.016-5.04-1.232-1.269-2.987-1.904-5.264-1.904Zm33.298 25.312c-3.733 0-6.608-.821-8.624-2.464-2.016-1.643-3.323-3.808-3.92-6.496l5.768-1.064a6.23 6.23 0 0 0 2.128 3.416c1.12.859 2.669 1.288 4.648 1.288 1.68 0 3.099-.299 4.256-.896 1.195-.635 1.792-1.549 1.792-2.744 0-1.157-.504-2.053-1.512-2.688-.971-.635-2.408-1.139-4.312-1.512l-3.472-.616c-2.389-.411-4.349-1.288-5.88-2.632-1.531-1.344-2.296-3.192-2.296-5.544 0-1.643.485-3.08 1.456-4.312.971-1.269 2.277-2.259 3.92-2.968 1.68-.747 3.584-1.12 5.712-1.12 3.136 0 5.693.635 7.672 1.904 2.016 1.269 3.285 3.267 3.808 5.992l-5.32.952c-.448-1.419-1.213-2.408-2.296-2.968-1.083-.597-2.352-.896-3.808-.896-1.493 0-2.763.317-3.808.952-1.045.597-1.568 1.363-1.568 2.296 0 1.008.411 1.811 1.232 2.408.859.56 2.091.989 3.696 1.288l4.144.728c2.8.485 4.928 1.381 6.384 2.688 1.456 1.269 2.184 3.229 2.184 5.88 0 1.829-.523 3.435-1.568 4.816-1.045 1.381-2.483 2.445-4.312 3.192-1.829.747-3.864 1.12-6.104 1.12Z" fill="#F0F0F0"/><path d="m80.322 190.769 19.768-40.096h5.992l-19.768 40.096h-5.992Zm45.17.896c-2.464 0-4.648-.598-6.552-1.792-1.904-1.232-3.416-2.987-4.536-5.264-1.082-2.278-1.624-4.984-1.624-8.12 0-3.174.56-5.88 1.68-8.12 1.12-2.278 2.651-4.014 4.592-5.208 1.942-1.232 4.126-1.848 6.552-1.848 2.166 0 3.976.429 5.432 1.288 1.456.821 2.539 1.885 3.248 3.192h.336l-.336-4.088v-11.032h5.936v40.096h-5.6v-3.584h-.336c-.784 1.157-1.904 2.202-3.36 3.136-1.418.896-3.229 1.344-5.432 1.344Zm1.176-5.544c2.278 0 4.163-.822 5.656-2.464 1.531-1.643 2.296-4.032 2.296-7.168s-.765-5.526-2.296-7.168c-1.493-1.643-3.378-2.464-5.656-2.464-2.277 0-4.181.821-5.712 2.464-1.493 1.642-2.24 4.032-2.24 7.168s.747 5.525 2.24 7.168c1.531 1.642 3.435 2.464 5.712 2.464Zm32.403 5.544c-2.464 0-4.648-.598-6.552-1.792-1.904-1.232-3.416-2.987-4.536-5.264-1.083-2.278-1.624-4.984-1.624-8.12 0-3.174.56-5.88 1.68-8.12 1.12-2.278 2.65-4.014 4.592-5.208 1.941-1.232 4.125-1.848 6.552-1.848 2.165 0 3.976.429 5.432 1.288 1.456.821 2.538 1.885 3.248 3.192h.336v-3.584h5.6v28.56h-5.6v-3.584h-.336c-.784 1.157-1.904 2.202-3.36 3.136-1.419.896-3.23 1.344-5.432 1.344Zm1.176-5.544c2.277 0 4.162-.822 5.656-2.464 1.53-1.643 2.296-4.032 2.296-7.168s-.766-5.526-2.296-7.168c-1.494-1.643-3.379-2.464-5.656-2.464-2.278 0-4.182.821-5.712 2.464-1.494 1.642-2.24 4.032-2.24 7.168s.746 5.525 2.24 7.168c1.53 1.642 3.434 2.464 5.712 2.464Zm30.61 4.648-11.984-28.56h6.552l8.4 20.888h.28l8.4-20.888h6.44l-12.096 28.56h-5.992Zm36.658-33.936c-1.307 0-2.408-.448-3.304-1.344-.896-.896-1.344-1.998-1.344-3.304 0-1.27.448-2.352 1.344-3.248.896-.896 1.997-1.344 3.304-1.344 1.307 0 2.408.448 3.304 1.344.896.896 1.344 1.978 1.344 3.248 0 1.306-.448 2.408-1.344 3.304-.896.896-1.997 1.344-3.304 1.344Zm-12.824 33.936v-5.432h9.8v-17.696h-8.12v-5.432h14.112v23.128h9.856v5.432h-25.648Zm45.114.896c-2.464 0-4.648-.598-6.552-1.792-1.904-1.232-3.416-2.987-4.536-5.264-1.083-2.278-1.624-4.984-1.624-8.12 0-3.174.56-5.88 1.68-8.12 1.12-2.278 2.651-4.014 4.592-5.208 1.941-1.232 4.125-1.848 6.552-1.848 2.165 0 3.976.429 5.432 1.288 1.456.821 2.539 1.885 3.248 3.192h.336l-.336-4.088v-11.032h5.936v40.096h-5.6v-3.584h-.336c-.784 1.157-1.904 2.202-3.36 3.136-1.419.896-3.229 1.344-5.432 1.344Zm1.176-5.544c2.277 0 4.163-.822 5.656-2.464 1.531-1.643 2.296-4.032 2.296-7.168s-.765-5.526-2.296-7.168c-1.493-1.643-3.379-2.464-5.656-2.464-2.277 0-4.181.821-5.712 2.464-1.493 1.642-2.24 4.032-2.24 7.168s.747 5.525 2.24 7.168c1.531 1.642 3.435 2.464 5.712 2.464Zm22.546 16.744v-5.208h22.288v5.208h-22.288Zm32.682-12.096v-5.6h9.52v-26.6l-8.736 6.384v-6.608l10.472-7.672h4.256v34.496h9.016v5.6h-24.528Zm33.578 0v-5.824c3.36-2.539 6.235-4.835 8.624-6.888 2.427-2.054 4.406-3.976 5.936-5.768 1.456-1.68 2.539-3.342 3.248-4.984a12.989 12.989 0 0 0 1.064-5.208c0-2.203-.597-3.864-1.792-4.984-1.194-1.12-2.837-1.68-4.928-1.68-1.978 0-3.584.597-4.816 1.792-1.194 1.157-1.904 2.744-2.128 4.76l-5.712-.56c.15-2.128.728-4.07 1.736-5.824a11.514 11.514 0 0 1 4.312-4.256c1.867-1.046 4.088-1.568 6.664-1.568 3.995 0 7.112 1.045 9.352 3.136 2.278 2.053 3.416 4.928 3.416 8.624 0 2.688-.56 5.189-1.68 7.504-1.082 2.314-2.501 4.517-4.256 6.608a49.027 49.027 0 0 1-5.04 4.984 73.946 73.946 0 0 1-5.88 4.536l.112.168h17.64v5.432h-25.872Zm45.282.896c-2.277 0-4.368-.448-6.272-1.344a12.84 12.84 0 0 1-4.76-3.808c-1.232-1.68-1.978-3.696-2.24-6.048l5.88-1.344c.299 2.053 1.102 3.696 2.408 4.928 1.307 1.232 2.968 1.848 4.984 1.848 2.166 0 3.92-.616 5.264-1.848 1.344-1.27 2.016-2.912 2.016-4.928 0-2.128-.69-3.771-2.072-4.928-1.344-1.158-3.192-1.736-5.544-1.736h-3.136v-5.432h2.912c1.867 0 3.454-.504 4.76-1.512 1.344-1.046 2.016-2.52 2.016-4.424 0-1.718-.578-3.099-1.736-4.144-1.12-1.083-2.65-1.624-4.592-1.624-1.754 0-3.21.504-4.368 1.512-1.157.97-1.885 2.258-2.184 3.864l-5.712-.728c.262-1.942.934-3.678 2.016-5.208a12.171 12.171 0 0 1 4.256-3.64c1.755-.896 3.771-1.344 6.048-1.344 2.427 0 4.555.466 6.384 1.4 1.867.933 3.304 2.202 4.312 3.808 1.008 1.605 1.512 3.397 1.512 5.376 0 1.605-.261 2.968-.784 4.088-.522 1.12-1.194 2.053-2.016 2.8a14.575 14.575 0 0 1-2.464 1.904v.336c1.904.784 3.454 1.978 4.648 3.584 1.195 1.605 1.792 3.733 1.792 6.384 0 2.314-.56 4.386-1.68 6.216-1.12 1.829-2.688 3.285-4.704 4.368-2.016 1.082-4.33 1.624-6.944 1.624Z" fill="#FFEAAC"/><path d="M205.103 308.796c-3.061 0-5.432-.859-7.112-2.576-1.68-1.718-2.52-4.07-2.52-7.056v-9.016c0-1.68-.448-2.838-1.344-3.472-.896-.672-1.923-1.008-3.08-1.008h-1.344v-5.04h1.344c1.157 0 2.184-.318 3.08-.952.896-.672 1.344-1.848 1.344-3.528v-9.016c0-2.987.84-5.339 2.52-7.056 1.68-1.718 4.051-2.576 7.112-2.576h4.592v4.984h-4.2c-1.195 0-2.203.41-3.024 1.232-.821.821-1.232 1.997-1.232 3.528v9.296c0 3.509-1.475 5.656-4.424 6.44v.336c1.493.41 2.595 1.138 3.304 2.184.747 1.008 1.12 2.426 1.12 4.256v9.296c0 1.53.411 2.706 1.232 3.528.821.821 1.829 1.232 3.024 1.232h4.2v4.984h-4.592Zm62.06-6.608c-1.269 0-2.37-.448-3.304-1.344-.933-.934-1.4-2.054-1.4-3.36 0-1.27.467-2.371 1.4-3.304.934-.934 2.035-1.4 3.304-1.4 1.27 0 2.371.466 3.304 1.4.934.933 1.4 2.034 1.4 3.304 0 1.306-.466 2.426-1.4 3.36-.933.896-2.034 1.344-3.304 1.344Zm33.578 0c-1.269 0-2.37-.448-3.304-1.344-.933-.934-1.4-2.054-1.4-3.36 0-1.27.467-2.371 1.4-3.304.934-.934 2.035-1.4 3.304-1.4 1.27 0 2.371.466 3.304 1.4.934.933 1.4 2.034 1.4 3.304 0 1.306-.466 2.426-1.4 3.36-.933.896-2.034 1.344-3.304 1.344Zm33.579 0c-1.27 0-2.371-.448-3.304-1.344-.934-.934-1.4-2.054-1.4-3.36 0-1.27.466-2.371 1.4-3.304.933-.934 2.034-1.4 3.304-1.4 1.269 0 2.37.466 3.304 1.4.933.933 1.4 2.034 1.4 3.304 0 1.306-.467 2.426-1.4 3.36-.934.896-2.035 1.344-3.304 1.344Zm57.468 6.608v-4.984h4.2c1.194 0 2.202-.411 3.024-1.232.821-.822 1.232-1.998 1.232-3.528v-9.296c0-1.83.354-3.248 1.064-4.256.746-1.046 1.866-1.774 3.36-2.184v-.336c-2.95-.784-4.424-2.931-4.424-6.44v-9.296c0-1.531-.411-2.707-1.232-3.528-.822-.822-1.83-1.232-3.024-1.232h-4.2V257.5h4.592c3.061 0 5.432.858 7.112 2.576 1.68 1.717 2.52 4.069 2.52 7.056v9.016c0 1.68.448 2.856 1.344 3.528.896.634 1.922.952 3.08.952h1.344v5.04h-1.344c-1.158 0-2.184.336-3.08 1.008-.896.634-1.344 1.792-1.344 3.472v9.016c0 2.986-.84 5.338-2.52 7.056-1.68 1.717-4.051 2.576-7.112 2.576h-4.592Z" fill="#F5F5F5"/><path d="m187.127 763.935 19.768-40.096h5.992l-19.768 40.096h-5.992Zm46.85.896c-2.875 0-5.357-.635-7.448-1.904-2.053-1.27-3.659-3.043-4.816-5.32-1.12-2.278-1.68-4.91-1.68-7.896 0-3.024.579-5.675 1.736-7.952 1.195-2.315 2.837-4.107 4.928-5.376 2.128-1.27 4.555-1.904 7.28-1.904 4.293 0 7.56 1.232 9.8 3.696 2.24 2.426 3.36 5.73 3.36 9.912 0 1.008-.056 1.96-.168 2.856h-21.112c.187 2.762 1.027 4.872 2.52 6.328 1.531 1.456 3.472 2.184 5.824 2.184 1.904 0 3.416-.43 4.536-1.288 1.12-.896 1.923-1.998 2.408-3.304l5.208 1.4c-.784 2.576-2.221 4.648-4.312 6.216-2.053 1.568-4.741 2.352-8.064 2.352Zm0-25.312c-1.979 0-3.659.578-5.04 1.736-1.381 1.157-2.315 2.893-2.8 5.208h15.12c-.112-2.091-.784-3.771-2.016-5.04-1.232-1.27-2.987-1.904-5.264-1.904Zm19.298 24.416 10.304-14.504-10.248-14.056h7l6.776 9.464h.168l6.496-9.464h7.224l-10.416 14.056 10.416 14.504h-6.944l-6.888-9.8h-.112l-6.888 9.8h-6.888Zm34.138 12.096v-40.656h5.6v3.696h.336c.747-1.232 1.867-2.296 3.36-3.192 1.531-.934 3.342-1.4 5.432-1.4 2.464 0 4.648.616 6.552 1.848 1.942 1.194 3.454 2.93 4.536 5.208 1.083 2.24 1.624 4.946 1.624 8.12 0 3.136-.541 5.842-1.624 8.12-1.082 2.277-2.594 4.032-4.536 5.264-1.904 1.194-4.088 1.792-6.552 1.792-2.165 0-3.994-.448-5.488-1.344-1.493-.896-2.594-1.942-3.304-3.136h-.336l.336 4.088v11.592h-5.936Zm13.552-16.744c2.278 0 4.163-.803 5.656-2.408 1.531-1.643 2.296-4.051 2.296-7.224 0-3.174-.765-5.563-2.296-7.168-1.493-1.643-3.378-2.464-5.656-2.464-2.277 0-4.181.821-5.712 2.464-1.493 1.605-2.24 3.994-2.24 7.168 0 3.173.747 5.581 2.24 7.224 1.531 1.605 3.435 2.408 5.712 2.408Zm33.747 5.544c-2.875 0-5.358-.635-7.448-1.904-2.054-1.27-3.659-3.043-4.816-5.32-1.12-2.278-1.68-4.91-1.68-7.896 0-3.024.578-5.675 1.736-7.952 1.194-2.315 2.837-4.107 4.928-5.376 2.128-1.27 4.554-1.904 7.28-1.904 4.293 0 7.56 1.232 9.8 3.696 2.24 2.426 3.36 5.73 3.36 9.912 0 1.008-.056 1.96-.168 2.856h-21.112c.186 2.762 1.026 4.872 2.52 6.328 1.53 1.456 3.472 2.184 5.824 2.184 1.904 0 3.416-.43 4.536-1.288a7.532 7.532 0 0 0 2.408-3.304l5.208 1.4c-.784 2.576-2.222 4.648-4.312 6.216-2.054 1.568-4.742 2.352-8.064 2.352Zm0-25.312c-1.979 0-3.659.578-5.04 1.736-1.382 1.157-2.315 2.893-2.8 5.208h15.12c-.112-2.091-.784-3.771-2.016-5.04-1.232-1.27-2.987-1.904-5.264-1.904Zm21.146 24.416v-28.56h5.656v3.584h.336c.746-1.344 1.885-2.427 3.416-3.248 1.568-.822 3.285-1.232 5.152-1.232 3.21 0 5.693.97 7.448 2.912 1.754 1.941 2.632 4.61 2.632 8.008v18.536h-5.936v-17.752c0-2.091-.542-3.64-1.624-4.648-1.083-1.008-2.483-1.512-4.2-1.512-2.091 0-3.771.765-5.04 2.296-1.232 1.53-1.848 3.36-1.848 5.488v16.128h-5.992Zm45.73.896c-3.734 0-6.608-.822-8.624-2.464-2.016-1.643-3.323-3.808-3.92-6.496l5.768-1.064a6.23 6.23 0 0 0 2.128 3.416c1.12.858 2.669 1.288 4.648 1.288 1.68 0 3.098-.299 4.256-.896 1.194-.635 1.792-1.55 1.792-2.744 0-1.158-.504-2.054-1.512-2.688-.971-.635-2.408-1.139-4.312-1.512l-3.472-.616c-2.39-.411-4.35-1.288-5.88-2.632-1.531-1.344-2.296-3.192-2.296-5.544 0-1.643.485-3.08 1.456-4.312.97-1.27 2.277-2.259 3.92-2.968 1.68-.747 3.584-1.12 5.712-1.12 3.136 0 5.693.634 7.672 1.904 2.016 1.269 3.285 3.266 3.808 5.992l-5.32.952c-.448-1.419-1.214-2.408-2.296-2.968-1.083-.598-2.352-.896-3.808-.896-1.494 0-2.763.317-3.808.952-1.046.597-1.568 1.362-1.568 2.296 0 1.008.41 1.81 1.232 2.408.858.56 2.09.989 3.696 1.288l4.144.728c2.8.485 4.928 1.381 6.384 2.688 1.456 1.269 2.184 3.229 2.184 5.88 0 1.829-.523 3.434-1.568 4.816-1.046 1.381-2.483 2.445-4.312 3.192-1.83.746-3.864 1.12-6.104 1.12Zm33.858 0c-2.875 0-5.357-.635-7.448-1.904-2.053-1.27-3.659-3.043-4.816-5.32-1.12-2.278-1.68-4.91-1.68-7.896 0-3.024.579-5.675 1.736-7.952 1.195-2.315 2.837-4.107 4.928-5.376 2.128-1.27 4.555-1.904 7.28-1.904 4.293 0 7.56 1.232 9.8 3.696 2.24 2.426 3.36 5.73 3.36 9.912 0 1.008-.056 1.96-.168 2.856h-21.112c.187 2.762 1.027 4.872 2.52 6.328 1.531 1.456 3.472 2.184 5.824 2.184 1.904 0 3.416-.43 4.536-1.288 1.12-.896 1.923-1.998 2.408-3.304l5.208 1.4c-.784 2.576-2.221 4.648-4.312 6.216-2.053 1.568-4.741 2.352-8.064 2.352Zm0-25.312c-1.979 0-3.659.578-5.04 1.736-1.381 1.157-2.315 2.893-2.8 5.208h15.12c-.112-2.091-.784-3.771-2.016-5.04-1.232-1.27-2.987-1.904-5.264-1.904Zm33.298 25.312c-3.733 0-6.608-.822-8.624-2.464-2.016-1.643-3.323-3.808-3.92-6.496l5.768-1.064a6.23 6.23 0 0 0 2.128 3.416c1.12.858 2.669 1.288 4.648 1.288 1.68 0 3.099-.299 4.256-.896 1.195-.635 1.792-1.55 1.792-2.744 0-1.158-.504-2.054-1.512-2.688-.971-.635-2.408-1.139-4.312-1.512l-3.472-.616c-2.389-.411-4.349-1.288-5.88-2.632-1.531-1.344-2.296-3.192-2.296-5.544 0-1.643.485-3.08 1.456-4.312.971-1.27 2.277-2.259 3.92-2.968 1.68-.747 3.584-1.12 5.712-1.12 3.136 0 5.693.634 7.672 1.904 2.016 1.269 3.285 3.266 3.808 5.992l-5.32.952c-.448-1.419-1.213-2.408-2.296-2.968-1.083-.598-2.352-.896-3.808-.896-1.493 0-2.763.317-3.808.952-1.045.597-1.568 1.362-1.568 2.296 0 1.008.411 1.81 1.232 2.408.859.56 2.091.989 3.696 1.288l4.144.728c2.8.485 4.928 1.381 6.384 2.688 1.456 1.269 2.184 3.229 2.184 5.88 0 1.829-.523 3.434-1.568 4.816-1.045 1.381-2.483 2.445-4.312 3.192-1.829.746-3.864 1.12-6.104 1.12Z" fill="#F0F0F0"/><path d="m80.322 540.393 19.768-40.096h5.992l-19.768 40.096h-5.992Zm45.17.896c-2.464 0-4.648-.597-6.552-1.792-1.904-1.232-3.416-2.987-4.536-5.264-1.082-2.277-1.624-4.984-1.624-8.12 0-3.173.56-5.88 1.68-8.12 1.12-2.277 2.651-4.013 4.592-5.208 1.942-1.232 4.126-1.848 6.552-1.848 2.166 0 3.976.429 5.432 1.288 1.456.821 2.539 1.885 3.248 3.192h.336l-.336-4.088v-11.032h5.936v40.096h-5.6v-3.584h-.336c-.784 1.157-1.904 2.203-3.36 3.136-1.418.896-3.229 1.344-5.432 1.344Zm1.176-5.544c2.278 0 4.163-.821 5.656-2.464 1.531-1.643 2.296-4.032 2.296-7.168s-.765-5.525-2.296-7.168c-1.493-1.643-3.378-2.464-5.656-2.464-2.277 0-4.181.821-5.712 2.464-1.493 1.643-2.24 4.032-2.24 7.168s.747 5.525 2.24 7.168c1.531 1.643 3.435 2.464 5.712 2.464Zm32.403 5.544c-2.464 0-4.648-.597-6.552-1.792-1.904-1.232-3.416-2.987-4.536-5.264-1.083-2.277-1.624-4.984-1.624-8.12 0-3.173.56-5.88 1.68-8.12 1.12-2.277 2.65-4.013 4.592-5.208 1.941-1.232 4.125-1.848 6.552-1.848 2.165 0 3.976.429 5.432 1.288 1.456.821 2.538 1.885 3.248 3.192h.336v-3.584h5.6v28.56h-5.6v-3.584h-.336c-.784 1.157-1.904 2.203-3.36 3.136-1.419.896-3.23 1.344-5.432 1.344Zm1.176-5.544c2.277 0 4.162-.821 5.656-2.464 1.53-1.643 2.296-4.032 2.296-7.168s-.766-5.525-2.296-7.168c-1.494-1.643-3.379-2.464-5.656-2.464-2.278 0-4.182.821-5.712 2.464-1.494 1.643-2.24 4.032-2.24 7.168s.746 5.525 2.24 7.168c1.53 1.643 3.434 2.464 5.712 2.464Zm24.338 4.648v-28.56h5.656v4.816h.336c.821-1.792 2.016-3.192 3.584-4.2 1.605-1.008 3.509-1.512 5.712-1.512 1.082 0 2.09.093 3.024.28.97.149 1.754.411 2.352.784v6.272a13.82 13.82 0 0 0-3.024-1.176c-1.083-.299-2.278-.448-3.584-.448-2.539 0-4.518.877-5.936 2.632-1.419 1.717-2.128 3.883-2.128 6.496v14.616h-5.992Zm30.106 0v-5.432h9.8v-29.232h-8.12v-5.432h14.112v34.664h9.856v5.432h-25.648Zm45.114.896c-2.464 0-4.648-.597-6.552-1.792-1.904-1.232-3.416-2.987-4.536-5.264-1.083-2.277-1.624-4.984-1.624-8.12 0-3.173.56-5.88 1.68-8.12 1.12-2.277 2.651-4.013 4.592-5.208 1.941-1.232 4.125-1.848 6.552-1.848 2.165 0 3.976.429 5.432 1.288 1.456.821 2.539 1.885 3.248 3.192h.336v-3.584h5.6v28.56h-5.6v-3.584h-.336c-.784 1.157-1.904 2.203-3.36 3.136-1.419.896-3.229 1.344-5.432 1.344Zm1.176-5.544c2.277 0 4.163-.821 5.656-2.464 1.531-1.643 2.296-4.032 2.296-7.168s-.765-5.525-2.296-7.168c-1.493-1.643-3.379-2.464-5.656-2.464-2.277 0-4.181.821-5.712 2.464-1.493 1.643-2.24 4.032-2.24 7.168s.747 5.525 2.24 7.168c1.531 1.643 3.435 2.464 5.712 2.464Zm22.546 16.744v-5.208h22.288v5.208h-22.288Zm41.698-11.368-3.248-4.648a31.524 31.524 0 0 0 5.824-3.976 27.512 27.512 0 0 0 4.816-5.208c1.344-1.941 2.334-3.976 2.968-6.104l-.28-.224c-.746 1.157-1.904 2.109-3.472 2.856a11.45 11.45 0 0 1-4.872 1.064c-2.352 0-4.461-.523-6.328-1.568a11.983 11.983 0 0 1-4.424-4.424c-1.082-1.867-1.624-4.032-1.624-6.496 0-2.389.598-4.573 1.792-6.552a13.538 13.538 0 0 1 4.928-4.704c2.054-1.157 4.294-1.736 6.72-1.736 2.315 0 4.387.467 6.216 1.4 1.867.896 3.416 2.128 4.648 3.696 1.008 1.307 1.755 2.837 2.24 4.592.523 1.717.784 3.789.784 6.216 0 2.315-.298 4.555-.896 6.72a25.577 25.577 0 0 1-2.52 6.216c-1.418 2.576-3.266 4.965-5.544 7.168-2.24 2.165-4.816 4.069-7.728 5.712Zm2.8-21.448c2.128 0 3.902-.653 5.32-1.96 1.419-1.307 2.128-3.099 2.128-5.376 0-2.24-.709-4.013-2.128-5.32-1.418-1.344-3.192-2.016-5.32-2.016s-3.901.672-5.32 2.016c-1.381 1.307-2.072 3.08-2.072 5.32 0 2.277.691 4.069 2.072 5.376 1.419 1.307 3.192 1.96 5.32 1.96Zm30.778 21.448-3.248-4.648a31.524 31.524 0 0 0 5.824-3.976 27.512 27.512 0 0 0 4.816-5.208c1.344-1.941 2.334-3.976 2.968-6.104l-.28-.224c-.746 1.157-1.904 2.109-3.472 2.856a11.45 11.45 0 0 1-4.872 1.064c-2.352 0-4.461-.523-6.328-1.568a11.983 11.983 0 0 1-4.424-4.424c-1.082-1.867-1.624-4.032-1.624-6.496 0-2.389.598-4.573 1.792-6.552a13.538 13.538 0 0 1 4.928-4.704c2.054-1.157 4.294-1.736 6.72-1.736 2.315 0 4.387.467 6.216 1.4 1.867.896 3.416 2.128 4.648 3.696 1.008 1.307 1.755 2.837 2.24 4.592.523 1.717.784 3.789.784 6.216 0 2.315-.298 4.555-.896 6.72a25.577 25.577 0 0 1-2.52 6.216c-1.418 2.576-3.266 4.965-5.544 7.168-2.24 2.165-4.816 4.069-7.728 5.712Zm2.8-21.448c2.128 0 3.902-.653 5.32-1.96 1.419-1.307 2.128-3.099 2.128-5.376 0-2.24-.709-4.013-2.128-5.32-1.418-1.344-3.192-2.016-5.32-2.016s-3.901.672-5.32 2.016c-1.381 1.307-2.072 3.08-2.072 5.32 0 2.277.691 4.069 2.072 5.376 1.419 1.307 3.192 1.96 5.32 1.96Zm30.778 21.448-3.248-4.648a31.524 31.524 0 0 0 5.824-3.976 27.512 27.512 0 0 0 4.816-5.208c1.344-1.941 2.334-3.976 2.968-6.104l-.28-.224c-.746 1.157-1.904 2.109-3.472 2.856a11.45 11.45 0 0 1-4.872 1.064c-2.352 0-4.461-.523-6.328-1.568a11.983 11.983 0 0 1-4.424-4.424c-1.082-1.867-1.624-4.032-1.624-6.496 0-2.389.598-4.573 1.792-6.552a13.538 13.538 0 0 1 4.928-4.704c2.054-1.157 4.294-1.736 6.72-1.736 2.315 0 4.387.467 6.216 1.4 1.867.896 3.416 2.128 4.648 3.696 1.008 1.307 1.755 2.837 2.24 4.592.523 1.717.784 3.789.784 6.216 0 2.315-.298 4.555-.896 6.72a25.577 25.577 0 0 1-2.52 6.216c-1.418 2.576-3.266 4.965-5.544 7.168-2.24 2.165-4.816 4.069-7.728 5.712Zm2.8-21.448c2.128 0 3.902-.653 5.32-1.96 1.419-1.307 2.128-3.099 2.128-5.376 0-2.24-.709-4.013-2.128-5.32-1.418-1.344-3.192-2.016-5.32-2.016s-3.901.672-5.32 2.016c-1.381 1.307-2.072 3.08-2.072 5.32 0 2.277.691 4.069 2.072 5.376 1.419 1.307 3.192 1.96 5.32 1.96Z" fill="#FFEAAC"/><path d="M205.103 658.42c-3.061 0-5.432-.859-7.112-2.576-1.68-1.717-2.52-4.069-2.52-7.056v-9.016c0-1.68-.448-2.837-1.344-3.472-.896-.672-1.923-1.008-3.08-1.008h-1.344v-5.04h1.344c1.157 0 2.184-.317 3.08-.952.896-.672 1.344-1.848 1.344-3.528v-9.016c0-2.987.84-5.339 2.52-7.056 1.68-1.717 4.051-2.576 7.112-2.576h4.592v4.984h-4.2c-1.195 0-2.203.411-3.024 1.232-.821.821-1.232 1.997-1.232 3.528v9.296c0 3.509-1.475 5.656-4.424 6.44v.336c1.493.411 2.595 1.139 3.304 2.184.747 1.008 1.12 2.427 1.12 4.256v9.296c0 1.531.411 2.707 1.232 3.528.821.821 1.829 1.232 3.024 1.232h4.2v4.984h-4.592Zm62.06-6.608c-1.269 0-2.37-.448-3.304-1.344-.933-.933-1.4-2.053-1.4-3.36 0-1.269.467-2.371 1.4-3.304.934-.933 2.035-1.4 3.304-1.4 1.27 0 2.371.467 3.304 1.4.934.933 1.4 2.035 1.4 3.304 0 1.307-.466 2.427-1.4 3.36-.933.896-2.034 1.344-3.304 1.344Zm33.578 0c-1.269 0-2.37-.448-3.304-1.344-.933-.933-1.4-2.053-1.4-3.36 0-1.269.467-2.371 1.4-3.304.934-.933 2.035-1.4 3.304-1.4 1.27 0 2.371.467 3.304 1.4.934.933 1.4 2.035 1.4 3.304 0 1.307-.466 2.427-1.4 3.36-.933.896-2.034 1.344-3.304 1.344Zm33.579 0c-1.27 0-2.371-.448-3.304-1.344-.934-.933-1.4-2.053-1.4-3.36 0-1.269.466-2.371 1.4-3.304.933-.933 2.034-1.4 3.304-1.4 1.269 0 2.37.467 3.304 1.4.933.933 1.4 2.035 1.4 3.304 0 1.307-.467 2.427-1.4 3.36-.934.896-2.035 1.344-3.304 1.344Zm57.468 6.608v-4.984h4.2c1.194 0 2.202-.411 3.024-1.232.821-.821 1.232-1.997 1.232-3.528v-9.296c0-1.829.354-3.248 1.064-4.256.746-1.045 1.866-1.773 3.36-2.184v-.336c-2.95-.784-4.424-2.931-4.424-6.44v-9.296c0-1.531-.411-2.707-1.232-3.528-.822-.821-1.83-1.232-3.024-1.232h-4.2v-4.984h4.592c3.061 0 5.432.859 7.112 2.576 1.68 1.717 2.52 4.069 2.52 7.056v9.016c0 1.68.448 2.856 1.344 3.528.896.635 1.922.952 3.08.952h1.344v5.04h-1.344c-1.158 0-2.184.336-3.08 1.008-.896.635-1.344 1.792-1.344 3.472v9.016c0 2.987-.84 5.339-2.52 7.056-1.68 1.717-4.051 2.576-7.112 2.576h-4.592Z" fill="#F5F5F5"/><path d="m187.127 1113.56 19.768-40.1h5.992l-19.768 40.1h-5.992Zm46.85.9c-2.875 0-5.357-.64-7.448-1.91-2.053-1.27-3.659-3.04-4.816-5.32-1.12-2.28-1.68-4.91-1.68-7.89 0-3.03.579-5.68 1.736-7.96 1.195-2.31 2.837-4.1 4.928-5.37 2.128-1.27 4.555-1.91 7.28-1.91 4.293 0 7.56 1.24 9.8 3.7 2.24 2.43 3.36 5.73 3.36 9.91 0 1.01-.056 1.96-.168 2.86h-21.112c.187 2.76 1.027 4.87 2.52 6.33 1.531 1.45 3.472 2.18 5.824 2.18 1.904 0 3.416-.43 4.536-1.29 1.12-.89 1.923-2 2.408-3.3l5.208 1.4c-.784 2.57-2.221 4.65-4.312 6.21-2.053 1.57-4.741 2.36-8.064 2.36Zm0-25.32c-1.979 0-3.659.58-5.04 1.74-1.381 1.16-2.315 2.89-2.8 5.21h15.12c-.112-2.09-.784-3.77-2.016-5.04s-2.987-1.91-5.264-1.91Zm19.298 24.42 10.304-14.5-10.248-14.06h7l6.776 9.46h.168l6.496-9.46h7.224l-10.416 14.06 10.416 14.5h-6.944l-6.888-9.8h-.112l-6.888 9.8h-6.888Zm34.138 12.1V1085h5.6v3.7h.336c.747-1.24 1.867-2.3 3.36-3.2 1.531-.93 3.342-1.4 5.432-1.4 2.464 0 4.648.62 6.552 1.85 1.942 1.2 3.454 2.93 4.536 5.21 1.083 2.24 1.624 4.95 1.624 8.12 0 3.14-.541 5.84-1.624 8.12-1.082 2.28-2.594 4.03-4.536 5.26-1.904 1.2-4.088 1.8-6.552 1.8-2.165 0-3.994-.45-5.488-1.35-1.493-.89-2.594-1.94-3.304-3.13h-.336l.336 4.08v11.6h-5.936Zm13.552-16.75c2.278 0 4.163-.8 5.656-2.41 1.531-1.64 2.296-4.05 2.296-7.22s-.765-5.56-2.296-7.17c-1.493-1.64-3.378-2.46-5.656-2.46-2.277 0-4.181.82-5.712 2.46-1.493 1.61-2.24 4-2.24 7.17s.747 5.58 2.24 7.22c1.531 1.61 3.435 2.41 5.712 2.41Zm33.747 5.55c-2.875 0-5.358-.64-7.448-1.91-2.054-1.27-3.659-3.04-4.816-5.32-1.12-2.28-1.68-4.91-1.68-7.89 0-3.03.578-5.68 1.736-7.96 1.194-2.31 2.837-4.1 4.928-5.37 2.128-1.27 4.554-1.91 7.28-1.91 4.293 0 7.56 1.24 9.8 3.7 2.24 2.43 3.36 5.73 3.36 9.91 0 1.01-.056 1.96-.168 2.86h-21.112c.186 2.76 1.026 4.87 2.52 6.33 1.53 1.45 3.472 2.18 5.824 2.18 1.904 0 3.416-.43 4.536-1.29a7.52 7.52 0 0 0 2.408-3.3l5.208 1.4c-.784 2.57-2.222 4.65-4.312 6.21-2.054 1.57-4.742 2.36-8.064 2.36Zm0-25.32c-1.979 0-3.659.58-5.04 1.74-1.382 1.16-2.315 2.89-2.8 5.21h15.12c-.112-2.09-.784-3.77-2.016-5.04s-2.987-1.91-5.264-1.91Zm21.146 24.42V1085h5.656v3.58h.336c.746-1.34 1.885-2.42 3.416-3.24 1.568-.83 3.285-1.24 5.152-1.24 3.21 0 5.693.97 7.448 2.92 1.754 1.94 2.632 4.61 2.632 8v18.54h-5.936v-17.75c0-2.09-.542-3.64-1.624-4.65-1.083-1.01-2.483-1.51-4.2-1.51-2.091 0-3.771.76-5.04 2.29-1.232 1.53-1.848 3.36-1.848 5.49v16.13h-5.992Zm45.73.9c-3.734 0-6.608-.83-8.624-2.47-2.016-1.64-3.323-3.81-3.92-6.49l5.768-1.07a6.258 6.258 0 0 0 2.128 3.42c1.12.86 2.669 1.29 4.648 1.29 1.68 0 3.098-.3 4.256-.9 1.194-.64 1.792-1.55 1.792-2.74 0-1.16-.504-2.06-1.512-2.69-.971-.64-2.408-1.14-4.312-1.51l-3.472-.62c-2.39-.41-4.35-1.29-5.88-2.63-1.531-1.35-2.296-3.19-2.296-5.55 0-1.64.485-3.08 1.456-4.31.97-1.27 2.277-2.26 3.92-2.97 1.68-.74 3.584-1.12 5.712-1.12 3.136 0 5.693.64 7.672 1.91 2.016 1.27 3.285 3.26 3.808 5.99l-5.32.95c-.448-1.42-1.214-2.41-2.296-2.97-1.083-.59-2.352-.89-3.808-.89-1.494 0-2.763.31-3.808.95-1.046.6-1.568 1.36-1.568 2.3 0 1 .41 1.81 1.232 2.4.858.56 2.09.99 3.696 1.29l4.144.73c2.8.48 4.928 1.38 6.384 2.69 1.456 1.27 2.184 3.23 2.184 5.88 0 1.83-.523 3.43-1.568 4.81-1.046 1.38-2.483 2.45-4.312 3.2-1.83.74-3.864 1.12-6.104 1.12Zm33.858 0c-2.875 0-5.357-.64-7.448-1.91-2.053-1.27-3.659-3.04-4.816-5.32-1.12-2.28-1.68-4.91-1.68-7.89 0-3.03.579-5.68 1.736-7.96 1.195-2.31 2.837-4.1 4.928-5.37 2.128-1.27 4.555-1.91 7.28-1.91 4.293 0 7.56 1.24 9.8 3.7 2.24 2.43 3.36 5.73 3.36 9.91 0 1.01-.056 1.96-.168 2.86h-21.112c.187 2.76 1.027 4.87 2.52 6.33 1.531 1.45 3.472 2.18 5.824 2.18 1.904 0 3.416-.43 4.536-1.29 1.12-.89 1.923-2 2.408-3.3l5.208 1.4c-.784 2.57-2.221 4.65-4.312 6.21-2.053 1.57-4.741 2.36-8.064 2.36Zm0-25.32c-1.979 0-3.659.58-5.04 1.74-1.381 1.16-2.315 2.89-2.8 5.21h15.12c-.112-2.09-.784-3.77-2.016-5.04s-2.987-1.91-5.264-1.91Zm33.298 25.32c-3.733 0-6.608-.83-8.624-2.47-2.016-1.64-3.323-3.81-3.92-6.49l5.768-1.07a6.258 6.258 0 0 0 2.128 3.42c1.12.86 2.669 1.29 4.648 1.29 1.68 0 3.099-.3 4.256-.9 1.195-.64 1.792-1.55 1.792-2.74 0-1.16-.504-2.06-1.512-2.69-.971-.64-2.408-1.14-4.312-1.51l-3.472-.62c-2.389-.41-4.349-1.29-5.88-2.63-1.531-1.35-2.296-3.19-2.296-5.55 0-1.64.485-3.08 1.456-4.31.971-1.27 2.277-2.26 3.92-2.97 1.68-.74 3.584-1.12 5.712-1.12 3.136 0 5.693.64 7.672 1.91 2.016 1.27 3.285 3.26 3.808 5.99l-5.32.95c-.448-1.42-1.213-2.41-2.296-2.97-1.083-.59-2.352-.89-3.808-.89-1.493 0-2.763.31-3.808.95-1.045.6-1.568 1.36-1.568 2.3 0 1 .411 1.81 1.232 2.4.859.56 2.091.99 3.696 1.29l4.144.73c2.8.48 4.928 1.38 6.384 2.69 1.456 1.27 2.184 3.23 2.184 5.88 0 1.83-.523 3.43-1.568 4.81-1.045 1.38-2.483 2.45-4.312 3.2-1.829.74-3.864 1.12-6.104 1.12Z" fill="#F0F0F0"/><path d="m80.322 890.018 19.768-40.096h5.992l-19.768 40.096h-5.992Zm50.658-33.992c-1.306 0-2.408-.448-3.304-1.344-.858-.896-1.288-1.979-1.288-3.248 0-1.27.43-2.352 1.288-3.248.896-.896 1.998-1.344 3.304-1.344 1.27 0 2.352.448 3.248 1.344.896.896 1.344 1.978 1.344 3.248 0 1.269-.448 2.352-1.344 3.248-.896.896-1.978 1.344-3.248 1.344Zm-7.224 46.648c-2.016 0-3.733-.187-5.152-.56-1.381-.336-2.594-.803-3.64-1.4l2.24-5.264c.747.448 1.643.84 2.688 1.176a9.597 9.597 0 0 0 3.248.56c1.755 0 2.987-.542 3.696-1.624.747-1.046 1.12-2.352 1.12-3.92v-24.808h-10.584v-5.376h16.576v30.016c0 3.584-.933 6.346-2.8 8.288-1.829 1.941-4.293 2.912-7.392 2.912Zm34.139-11.76c-3.248 0-5.75-.971-7.504-2.912-1.755-1.979-2.632-4.648-2.632-8.008v-18.536h5.992v17.752c0 2.09.541 3.64 1.624 4.648 1.082 1.008 2.482 1.512 4.2 1.512 2.09 0 3.752-.747 4.984-2.24 1.269-1.531 1.904-3.379 1.904-5.544v-16.128h5.936v28.56h-5.6v-3.64h-.336c-.747 1.344-1.904 2.445-3.472 3.304-1.531.821-3.23 1.232-5.096 1.232Zm34.754 0c-2.464 0-4.648-.598-6.552-1.792-1.904-1.232-3.416-2.987-4.536-5.264-1.083-2.278-1.624-4.984-1.624-8.12 0-3.174.56-5.88 1.68-8.12 1.12-2.278 2.65-4.014 4.592-5.208 1.941-1.232 4.125-1.848 6.552-1.848 2.165 0 3.976.429 5.432 1.288 1.456.821 2.538 1.885 3.248 3.192h.336v-3.584h5.6v28.56h-5.6v-3.584h-.336c-.784 1.157-1.904 2.202-3.36 3.136-1.419.896-3.23 1.344-5.432 1.344Zm1.176-5.544c2.277 0 4.162-.822 5.656-2.464 1.53-1.643 2.296-4.032 2.296-7.168s-.766-5.526-2.296-7.168c-1.494-1.643-3.379-2.464-5.656-2.464-2.278 0-4.182.821-5.712 2.464-1.494 1.642-2.24 4.032-2.24 7.168s.746 5.525 2.24 7.168c1.53 1.642 3.434 2.464 5.712 2.464Zm21.65 4.648v-28.56h5.656v3.584h.336c.747-1.344 1.885-2.427 3.416-3.248 1.568-.822 3.285-1.232 5.152-1.232 3.211 0 5.693.97 7.448 2.912 1.755 1.941 2.632 4.61 2.632 8.008v18.536h-5.936v-17.752c0-2.091-.541-3.64-1.624-4.648-1.083-1.008-2.483-1.512-4.2-1.512-2.091 0-3.771.765-5.04 2.296-1.232 1.53-1.848 3.36-1.848 5.488v16.128h-5.992Zm34.474 12.096v-5.208h22.288v5.208h-22.288Zm32.682-12.096v-5.824c3.36-2.539 6.235-4.835 8.624-6.888 2.427-2.054 4.405-3.976 5.936-5.768 1.456-1.68 2.539-3.342 3.248-4.984a13.006 13.006 0 0 0 1.064-5.208c0-2.203-.597-3.864-1.792-4.984s-2.837-1.68-4.928-1.68c-1.979 0-3.584.597-4.816 1.792-1.195 1.157-1.904 2.744-2.128 4.76l-5.712-.56c.149-2.128.728-4.07 1.736-5.824 1.045-1.792 2.483-3.211 4.312-4.256 1.867-1.046 4.088-1.568 6.664-1.568 3.995 0 7.112 1.045 9.352 3.136 2.277 2.053 3.416 4.928 3.416 8.624 0 2.688-.56 5.189-1.68 7.504-1.083 2.314-2.501 4.517-4.256 6.608a49.027 49.027 0 0 1-5.04 4.984 73.946 73.946 0 0 1-5.88 4.536l.112.168h17.64v5.432h-25.872Zm33.578 0v-5.6h9.52v-26.6l-8.736 6.384v-6.608l10.472-7.672h4.256v34.496h9.016v5.6h-24.528Zm39.962 0c0-6.608 1.027-12.862 3.08-18.76 2.091-5.899 5.04-11.051 8.848-15.456l-.112-.224h-19.6v-5.656h26.712v5.992c-2.501 2.352-4.573 4.928-6.216 7.728a38.451 38.451 0 0 0-3.808 8.624 54.675 54.675 0 0 0-1.904 9.016 78.12 78.12 0 0 0-.504 8.736h-6.496Z" fill="#FFEAAC"/><path d="M205.103 1008.04c-3.061 0-5.432-.85-7.112-2.57-1.68-1.72-2.52-4.07-2.52-7.057v-9.016c0-1.68-.448-2.838-1.344-3.472-.896-.672-1.923-1.008-3.08-1.008h-1.344v-5.04h1.344c1.157 0 2.184-.318 3.08-.952.896-.672 1.344-1.848 1.344-3.528v-9.016c0-2.987.84-5.339 2.52-7.056 1.68-1.718 4.051-2.576 7.112-2.576h4.592v4.984h-4.2c-1.195 0-2.203.41-3.024 1.232-.821.821-1.232 1.997-1.232 3.528v9.296c0 3.509-1.475 5.656-4.424 6.44v.336c1.493.41 2.595 1.138 3.304 2.184.747 1.008 1.12 2.426 1.12 4.256v9.296c0 1.53.411 2.709 1.232 3.529.821.82 1.829 1.23 3.024 1.23h4.2v4.98h-4.592Zm62.06-6.6c-1.269 0-2.37-.45-3.304-1.35-.933-.931-1.4-2.051-1.4-3.357 0-1.27.467-2.371 1.4-3.304.934-.934 2.035-1.4 3.304-1.4 1.27 0 2.371.466 3.304 1.4.934.933 1.4 2.034 1.4 3.304 0 1.306-.466 2.426-1.4 3.357-.933.9-2.034 1.35-3.304 1.35Zm33.578 0c-1.269 0-2.37-.45-3.304-1.35-.933-.931-1.4-2.051-1.4-3.357 0-1.27.467-2.371 1.4-3.304.934-.934 2.035-1.4 3.304-1.4 1.27 0 2.371.466 3.304 1.4.934.933 1.4 2.034 1.4 3.304 0 1.306-.466 2.426-1.4 3.357-.933.9-2.034 1.35-3.304 1.35Zm33.579 0c-1.27 0-2.371-.45-3.304-1.35-.934-.931-1.4-2.051-1.4-3.357 0-1.27.466-2.371 1.4-3.304.933-.934 2.034-1.4 3.304-1.4 1.269 0 2.37.466 3.304 1.4.933.933 1.4 2.034 1.4 3.304 0 1.306-.467 2.426-1.4 3.357-.934.9-2.035 1.35-3.304 1.35Zm57.468 6.6v-4.98h4.2c1.194 0 2.202-.41 3.024-1.23.821-.82 1.232-1.999 1.232-3.529v-9.296c0-1.83.354-3.248 1.064-4.256.746-1.046 1.866-1.774 3.36-2.184v-.336c-2.95-.784-4.424-2.931-4.424-6.44v-9.296c0-1.531-.411-2.707-1.232-3.528-.822-.822-1.83-1.232-3.024-1.232h-4.2v-4.984h4.592c3.061 0 5.432.858 7.112 2.576 1.68 1.717 2.52 4.069 2.52 7.056v9.016c0 1.68.448 2.856 1.344 3.528.896.634 1.922.952 3.08.952h1.344v5.04h-1.344c-1.158 0-2.184.336-3.08 1.008-.896.634-1.344 1.792-1.344 3.472v9.016c0 2.987-.84 5.337-2.52 7.057-1.68 1.72-4.051 2.57-7.112 2.57h-4.592Z" fill="#F5F5F5"/><path d="m6.385 77.686 28.24-57.28h8.56l-28.24 57.28h-8.56Zm62.849 1.28c-4.64 0-8.213-1.387-10.72-4.16-2.507-2.827-3.76-6.64-3.76-11.44v-26.48h8.56v25.36c0 2.987.773 5.2 2.32 6.64 1.547 1.44 3.547 2.16 6 2.16 2.987 0 5.36-1.067 7.12-3.2 1.813-2.187 2.72-4.827 2.72-7.92v-23.04h8.48v40.8h-8v-5.2h-.48c-1.067 1.92-2.72 3.493-4.96 4.72-2.187 1.173-4.613 1.76-7.28 1.76Zm51.649 0c-5.334 0-9.44-1.173-12.32-3.52-2.88-2.347-4.747-5.44-5.6-9.28l8.24-1.52c.48 1.973 1.493 3.6 3.04 4.88 1.6 1.227 3.813 1.84 6.64 1.84 2.4 0 4.426-.427 6.08-1.28 1.706-.907 2.56-2.213 2.56-3.92 0-1.653-.72-2.933-2.16-3.84-1.387-.907-3.44-1.627-6.16-2.16l-4.96-.88c-3.414-.587-6.214-1.84-8.4-3.76-2.187-1.92-3.28-4.56-3.28-7.92 0-2.347.693-4.4 2.08-6.16 1.386-1.813 3.253-3.227 5.6-4.24 2.4-1.067 5.12-1.6 8.16-1.6 4.48 0 8.133.907 10.96 2.72 2.88 1.813 4.693 4.667 5.44 8.56l-7.6 1.36c-.64-2.027-1.734-3.44-3.28-4.24-1.547-.853-3.36-1.28-5.44-1.28-2.134 0-3.947.453-5.44 1.36-1.494.853-2.24 1.947-2.24 3.28 0 1.44.586 2.587 1.76 3.44 1.226.8 2.986 1.413 5.28 1.84l5.92 1.04c4 .693 7.04 1.973 9.12 3.84 2.08 1.813 3.12 4.613 3.12 8.4 0 2.613-.747 4.907-2.24 6.88-1.494 1.973-3.547 3.493-6.16 4.56-2.614 1.067-5.52 1.6-8.72 1.6Zm48.368 0c-4.106 0-7.653-.907-10.64-2.72-2.933-1.813-5.226-4.347-6.88-7.6-1.6-3.253-2.4-7.013-2.4-11.28 0-4.32.827-8.107 2.48-11.36 1.707-3.307 4.054-5.867 7.04-7.68 3.04-1.813 6.507-2.72 10.4-2.72 6.134 0 10.8 1.76 14 5.28 3.2 3.467 4.8 8.187 4.8 14.16 0 1.44-.08 2.8-.24 4.08h-30.16c.267 3.947 1.467 6.96 3.6 9.04 2.187 2.08 4.96 3.12 8.32 3.12 2.72 0 4.88-.613 6.48-1.84 1.6-1.28 2.747-2.853 3.44-4.72l7.44 2c-1.12 3.68-3.173 6.64-6.16 8.88-2.933 2.24-6.773 3.36-11.52 3.36Zm0-36.16c-2.826 0-5.226.827-7.2 2.48-1.973 1.653-3.306 4.133-4 7.44h21.6c-.16-2.987-1.12-5.387-2.88-7.2-1.76-1.813-4.266-2.72-7.52-2.72Zm34.049 34.88v-40.8h8.08v6.88h.48c1.173-2.56 2.88-4.56 5.12-6 2.293-1.44 5.013-2.16 8.16-2.16 1.547 0 2.987.133 4.32.4 1.387.213 2.507.587 3.36 1.12v8.96c-1.28-.693-2.72-1.253-4.32-1.68-1.547-.427-3.253-.64-5.12-.64-3.627 0-6.453 1.253-8.48 3.76-2.027 2.453-3.04 5.547-3.04 9.28v20.88h-8.56Zm61.489 1.28c-5.333 0-9.44-1.173-12.32-3.52-2.88-2.347-4.747-5.44-5.6-9.28l8.24-1.52c.48 1.973 1.493 3.6 3.04 4.88 1.6 1.227 3.813 1.84 6.64 1.84 2.4 0 4.427-.427 6.08-1.28 1.707-.907 2.56-2.213 2.56-3.92 0-1.653-.72-2.933-2.16-3.84-1.387-.907-3.44-1.627-6.16-2.16l-4.96-.88c-3.413-.587-6.213-1.84-8.4-3.76-2.187-1.92-3.28-4.56-3.28-7.92 0-2.347.693-4.4 2.08-6.16 1.387-1.813 3.253-3.227 5.6-4.24 2.4-1.067 5.12-1.6 8.16-1.6 4.48 0 8.133.907 10.96 2.72 2.88 1.813 4.693 4.667 5.44 8.56l-7.6 1.36c-.64-2.027-1.733-3.44-3.28-4.24-1.547-.853-3.36-1.28-5.44-1.28-2.133 0-3.947.453-5.44 1.36-1.493.853-2.24 1.947-2.24 3.28 0 1.44.587 2.587 1.76 3.44 1.227.8 2.987 1.413 5.28 1.84l5.92 1.04c4 .693 7.04 1.973 9.12 3.84 2.08 1.813 3.12 4.613 3.12 8.4 0 2.613-.747 4.907-2.24 6.88-1.493 1.973-3.547 3.493-6.16 4.56-2.613 1.067-5.52 1.6-8.72 1.6Z" fill="#F0F0F0"/><path d="m16.163 119.817.001 998.913" stroke="#7E7E7E" stroke-width="4" stroke-dasharray="25 25"/><path d="M1189.4 511.124a3.002 3.002 0 0 0 2.83-3.165l-1.52-26.957a3.006 3.006 0 0 0-3.17-2.826 2.993 2.993 0 0 0-2.82 3.164l1.35 23.962-23.96 1.352a3.001 3.001 0 0 0 .33 5.991l26.96-1.521Zm-332.348-39.735-.85-2.877-.131.038-.127.051 1.108 2.788Zm-352.708-64.722c0 8.837 7.163 16 16 16 8.836 0 16-7.163 16-16s-7.164-16-16-16c-8.837 0-16 7.163-16 16Zm0 337.672c0 8.837 7.163 16 16 16 8.836 0 16-7.163 16-16s-7.164-16-16-16c-8.837 0-16 7.163-16 16Zm0 357.451c0 8.83 7.163 16 16 16 8.836 0 16-7.17 16-16 0-8.84-7.164-16-16-16-8.837 0-16 7.16-16 16Zm686.886-595.899c-63.41-56.635-108.63-77.725-157.67-78.509-24.41-.39-49.585 4.253-78.177 11.783-28.541 7.518-60.804 18.007-99.181 29.347l1.7 5.754c38.61-11.409 70.571-21.808 99.009-29.298 28.388-7.478 52.949-11.964 76.549-11.587 46.97.751 90.85 20.78 153.77 76.985l4-4.475Zm-335.286-37.29c-45.088 17.909-118.169 35.558-185.132 31.877-66.991-3.683-126.848-28.575-147.606-94.709l-5.725 1.796c21.868 69.672 84.986 95.165 153.002 98.904 68.045 3.741 142.006-14.152 187.676-32.292l-2.215-5.576Zm-1.627 1.555c-22.344 49.58-65.938 122.695-123.991 180.765-58.102 58.119-130.171 100.676-209.599 90.443l-.767 5.95c82.151 10.584 155.981-33.506 214.61-92.151 58.678-58.696 102.649-132.464 125.217-182.542l-5.47-2.465Zm-.25.926c-10.665 103.968-40.275 262.75-94.377 394.705-27.054 65.986-60.154 125.069-99.919 167.243-39.731 42.14-85.93 67.22-139.345 65.76l-.164 6c55.626 1.51 103.366-24.68 143.874-67.64 40.474-42.93 73.914-102.765 101.106-169.087 54.39-132.659 84.092-292.05 94.794-396.368l-5.969-.613Z" fill="#4C8DF6"/><circle cx="855.041" cy="476.07" r="15.584" fill="#1F2023" stroke="#4C8DF6" stroke-width="10"/><path d="M950.133 608.912c-2.294 0-4.267-.626-5.92-1.88-1.627-1.253-2.867-3-3.72-5.24-.854-2.24-1.28-4.853-1.28-7.84 0-2.986.426-5.6 1.28-7.84.853-2.24 2.093-3.986 3.72-5.24 1.653-1.253 3.626-1.88 5.92-1.88 2.293 0 4.253.627 5.88 1.88 1.653 1.254 2.906 3 3.76 5.24.853 2.24 1.28 4.854 1.28 7.84 0 4.587-.974 8.214-2.92 10.88l2.32 3.48-3.32 2.2-1.96-2.92c-1.467.88-3.147 1.32-5.04 1.32Zm0-4.16c1.013 0 1.906-.226 2.68-.68l-3.48-5.2 3.32-2.24 2.84 4.24c.746-1.786 1.12-4.093 1.12-6.92 0-3.52-.574-6.2-1.72-8.04-1.12-1.84-2.707-2.76-4.76-2.76-2.054 0-3.654.92-4.8 2.76-1.12 1.84-1.68 4.52-1.68 8.04 0 3.52.56 6.2 1.68 8.04 1.146 1.84 2.746 2.76 4.8 2.76Zm22.224 4.16c-2.32 0-4.106-.693-5.36-2.08-1.253-1.413-1.88-3.32-1.88-5.72v-13.24h4.28v12.68c0 1.494.387 2.6 1.16 3.32.774.72 1.774 1.08 3 1.08 1.494 0 2.68-.533 3.56-1.6.907-1.093 1.36-2.413 1.36-3.96v-11.52h4.24v20.4h-4v-2.6h-.24c-.533.96-1.36 1.747-2.48 2.36-1.093.587-2.306.88-3.64.88Zm26.025 0c-2.054 0-3.827-.453-5.32-1.36-1.467-.906-2.614-2.173-3.44-3.8-.8-1.626-1.2-3.506-1.2-5.64 0-2.16.413-4.053 1.24-5.68.853-1.653 2.026-2.933 3.52-3.84 1.52-.906 3.253-1.36 5.2-1.36 3.068 0 5.398.88 6.998 2.64 1.6 1.734 2.4 4.094 2.4 7.08 0 .72-.04 1.4-.12 2.04h-15.078c.133 1.974.733 3.48 1.8 4.52 1.093 1.04 2.48 1.56 4.16 1.56 1.36 0 2.438-.306 3.238-.92.8-.64 1.37-1.426 1.72-2.36l3.72 1c-.56 1.84-1.59 3.32-3.08 4.44-1.47 1.12-3.39 1.68-5.758 1.68Zm0-18.08c-1.414 0-2.614.414-3.6 1.24-.987.827-1.654 2.067-2 3.72h10.798c-.08-1.493-.56-2.693-1.44-3.6-.88-.906-2.13-1.36-3.758-1.36Zm17.028 17.44v-20.4h4.04v3.44h.24c.58-1.28 1.44-2.28 2.56-3 1.14-.72 2.5-1.08 4.08-1.08.77 0 1.49.067 2.16.2.69.107 1.25.294 1.68.56v4.48a9.914 9.914 0 0 0-2.16-.84 9.679 9.679 0 0 0-2.56-.32c-1.82 0-3.23.627-4.24 1.88-1.02 1.227-1.52 2.774-1.52 4.64v10.44h-4.28Zm23.98 8.96c-.77 0-1.45-.066-2.04-.2a8.838 8.838 0 0 1-1.52-.4v-4.08c.32.16.79.334 1.4.52.61.187 1.28.28 2 .28.88 0 1.6-.253 2.16-.76.56-.506 1.09-1.36 1.6-2.56l.92-2.2-8.2-19.96h4.72l5.6 14.4h.2l5.88-14.4h4.68l-10.16 23.88c-.51 1.2-1.07 2.2-1.68 3-.59.827-1.32 1.44-2.2 1.84-.88.427-2 .64-3.36.64Zm53.73-8.32c-1.76 0-3.32-.426-4.68-1.28-1.36-.88-2.44-2.133-3.24-3.76-.77-1.626-1.16-3.56-1.16-5.8 0-2.266.4-4.2 1.2-5.8.8-1.626 1.89-2.866 3.28-3.72 1.39-.88 2.95-1.32 4.68-1.32 1.55 0 2.84.307 3.88.92 1.04.587 1.81 1.347 2.32 2.28h.24v-2.56h4v20.4h-4v-2.56h-.24c-.56.827-1.36 1.574-2.4 2.24-1.01.64-2.31.96-3.88.96Zm.84-3.96c1.63 0 2.97-.586 4.04-1.76 1.09-1.173 1.64-2.88 1.64-5.12s-.55-3.946-1.64-5.12c-1.07-1.173-2.41-1.76-4.04-1.76s-2.99.587-4.08 1.76c-1.07 1.174-1.6 2.88-1.6 5.12s.53 3.947 1.6 5.12c1.09 1.174 2.45 1.76 4.08 1.76Zm24.38 3.96c-1.94 0-3.66-.44-5.16-1.32-1.49-.906-2.65-2.173-3.48-3.8-.82-1.626-1.24-3.533-1.24-5.72 0-2.186.43-4.093 1.28-5.72.86-1.626 2.03-2.88 3.52-3.76 1.52-.906 3.27-1.36 5.24-1.36 2.46 0 4.5.6 6.12 1.8 1.66 1.2 2.67 2.88 3.04 5.04l-4.16.68a4.296 4.296 0 0 0-1.76-2.6c-.88-.666-1.98-1-3.32-1-1.6 0-2.96.6-4.08 1.8-1.09 1.2-1.64 2.907-1.64 5.12 0 2.214.55 3.92 1.64 5.12 1.1 1.174 2.46 1.76 4.08 1.76 1.36 0 2.46-.32 3.28-.96.83-.666 1.44-1.613 1.84-2.84l4 .96c-.48 2-1.49 3.64-3.04 4.92-1.54 1.254-3.6 1.88-6.16 1.88Zm16.99-.64v-20.4h4.04v3.44h.24c.58-1.28 1.44-2.28 2.56-3 1.14-.72 2.5-1.08 4.08-1.08.77 0 1.49.067 2.16.2.69.107 1.25.294 1.68.56v4.48a9.914 9.914 0 0 0-2.16-.84 9.679 9.679 0 0 0-2.56-.32c-1.82 0-3.23.627-4.24 1.88-1.02 1.227-1.52 2.774-1.52 4.64v10.44h-4.28Zm30.66.64c-2.08 0-3.89-.453-5.44-1.36-1.52-.933-2.69-2.213-3.52-3.84-.82-1.653-1.24-3.533-1.24-5.64 0-2.133.42-4.013 1.24-5.64.83-1.626 2-2.893 3.52-3.8 1.55-.933 3.36-1.4 5.44-1.4 2.08 0 3.88.467 5.4 1.4a9.015 9.015 0 0 1 3.56 3.8c.83 1.627 1.24 3.507 1.24 5.64 0 2.134-.41 4.014-1.24 5.64a9.264 9.264 0 0 1-3.56 3.84c-1.52.907-3.32 1.36-5.4 1.36Zm0-3.96c1.74 0 3.16-.586 4.28-1.76 1.12-1.2 1.68-2.906 1.68-5.12 0-2.213-.56-3.906-1.68-5.08-1.12-1.2-2.54-1.8-4.28-1.8-1.73 0-3.16.6-4.28 1.8-1.12 1.174-1.68 2.867-1.68 5.08 0 2.214.56 3.92 1.68 5.12 1.12 1.174 2.55 1.76 4.28 1.76Zm24.07 3.96c-2.67 0-4.72-.586-6.16-1.76-1.44-1.173-2.38-2.72-2.8-4.64l4.12-.76c.24.987.74 1.8 1.52 2.44.8.614 1.9.92 3.32.92 1.2 0 2.21-.213 3.04-.64.85-.453 1.28-1.106 1.28-1.96 0-.826-.36-1.466-1.08-1.92-.7-.453-1.72-.813-3.08-1.08l-2.48-.44c-1.71-.293-3.11-.92-4.2-1.88-1.1-.96-1.64-2.28-1.64-3.96 0-1.173.34-2.2 1.04-3.08.69-.906 1.62-1.613 2.8-2.12 1.2-.533 2.56-.8 4.08-.8 2.24 0 4.06.454 5.48 1.36 1.44.907 2.34 2.334 2.72 4.28l-3.8.68c-.32-1.013-.87-1.72-1.64-2.12-.78-.426-1.68-.64-2.72-.64-1.07 0-1.98.227-2.72.68-.75.427-1.12.974-1.12 1.64 0 .72.29 1.294.88 1.72.61.4 1.49.707 2.64.92l2.96.52c2 .347 3.52.987 4.56 1.92 1.04.907 1.56 2.307 1.56 4.2 0 1.307-.38 2.454-1.12 3.44-.75.987-1.78 1.747-3.08 2.28-1.31.534-2.76.8-4.36.8Zm23.98 0c-2.67 0-4.72-.586-6.16-1.76-1.44-1.173-2.37-2.72-2.8-4.64l4.12-.76c.24.987.75 1.8 1.52 2.44.8.614 1.91.92 3.32.92 1.2 0 2.21-.213 3.04-.64.85-.453 1.28-1.106 1.28-1.96 0-.826-.36-1.466-1.08-1.92-.69-.453-1.72-.813-3.08-1.08l-2.48-.44c-1.71-.293-3.11-.92-4.2-1.88-1.09-.96-1.64-2.28-1.64-3.96 0-1.173.35-2.2 1.04-3.08.69-.906 1.63-1.613 2.8-2.12 1.2-.533 2.56-.8 4.08-.8 2.24 0 4.07.454 5.48 1.36 1.44.907 2.35 2.334 2.72 4.28l-3.8.68c-.32-1.013-.87-1.72-1.64-2.12-.77-.426-1.68-.64-2.72-.64-1.07 0-1.97.227-2.72.68-.75.427-1.12.974-1.12 1.64 0 .72.29 1.294.88 1.72.61.4 1.49.707 2.64.92l2.96.52c2 .347 3.52.987 4.56 1.92 1.04.907 1.56 2.307 1.56 4.2 0 1.307-.37 2.454-1.12 3.44-.75.987-1.77 1.747-3.08 2.28-1.31.534-2.76.8-4.36.8Zm46.97 0c-1.76 0-3.32-.426-4.68-1.28-1.36-.88-2.44-2.133-3.24-3.76-.77-1.626-1.16-3.56-1.16-5.8 0-2.266.4-4.2 1.2-5.8.8-1.626 1.89-2.866 3.28-3.72 1.39-.88 2.95-1.32 4.68-1.32 1.55 0 2.84.307 3.88.92 1.04.587 1.81 1.347 2.32 2.28h.24v-2.56h4v20.4h-4v-2.56h-.24c-.56.827-1.36 1.574-2.4 2.24-1.01.64-2.31.96-3.88.96Zm.84-3.96c1.63 0 2.97-.586 4.04-1.76 1.09-1.173 1.64-2.88 1.64-5.12s-.55-3.946-1.64-5.12c-1.07-1.173-2.41-1.76-4.04-1.76s-2.99.587-4.08 1.76c-1.07 1.174-1.6 2.88-1.6 5.12s.53 3.947 1.6 5.12c1.09 1.174 2.45 1.76 4.08 1.76Zm14.9 3.32v-3.88h7v-20.88h-5.8v-3.88h10.08v24.76h7.04v3.88h-18.32Zm23.99 0v-3.88h7v-20.88h-5.8v-3.88h10.08v24.76h7.04v3.88h-18.32Zm57.21.64c-2.67 0-4.72-.586-6.16-1.76-1.44-1.173-2.38-2.72-2.8-4.64l4.12-.76c.24.987.74 1.8 1.52 2.44.8.614 1.9.92 3.32.92 1.2 0 2.21-.213 3.04-.64.85-.453 1.28-1.106 1.28-1.96 0-.826-.36-1.466-1.08-1.92-.7-.453-1.72-.813-3.08-1.08l-2.48-.44c-1.71-.293-3.11-.92-4.2-1.88-1.1-.96-1.64-2.28-1.64-3.96 0-1.173.34-2.2 1.04-3.08.69-.906 1.62-1.613 2.8-2.12 1.2-.533 2.56-.8 4.08-.8 2.24 0 4.06.454 5.48 1.36 1.44.907 2.34 2.334 2.72 4.28l-3.8.68c-.32-1.013-.87-1.72-1.64-2.12-.78-.426-1.68-.64-2.72-.64-1.07 0-1.98.227-2.72.68-.75.427-1.12.974-1.12 1.64 0 .72.29 1.294.88 1.72.61.4 1.49.707 2.64.92l2.96.52c2 .347 3.52.987 4.56 1.92 1.04.907 1.56 2.307 1.56 4.2 0 1.307-.38 2.454-1.12 3.44-.75.987-1.78 1.747-3.08 2.28-1.31.534-2.76.8-4.36.8Zm22.14 0c-2.32 0-4.11-.693-5.36-2.08-1.25-1.413-1.88-3.32-1.88-5.72v-13.24h4.28v12.68c0 1.494.39 2.6 1.16 3.32.77.72 1.77 1.08 3 1.08 1.49 0 2.68-.533 3.56-1.6.91-1.093 1.36-2.413 1.36-3.96v-11.52h4.24v20.4h-4v-2.6h-.24c-.53.96-1.36 1.747-2.48 2.36-1.09.587-2.31.88-3.64.88Zm26.47 0c-1.52 0-2.82-.32-3.88-.96-1.04-.64-1.84-1.386-2.4-2.24h-.24v2.56h-4v-28.64h4.24v7.92l-.24 2.88h.24c.5-.8 1.29-1.533 2.36-2.2 1.09-.666 2.4-1 3.92-1 1.76 0 3.32.44 4.68 1.32 1.38.88 2.46 2.134 3.24 3.76.77 1.6 1.16 3.52 1.16 5.76 0 2.24-.39 4.174-1.16 5.8-.78 1.6-1.86 2.84-3.24 3.72-1.36.88-2.92 1.32-4.68 1.32Zm-.84-3.96c1.62 0 2.97-.586 4.04-1.76 1.09-1.2 1.64-2.906 1.64-5.12 0-2.213-.55-3.906-1.64-5.08-1.07-1.2-2.42-1.8-4.04-1.8-1.63 0-2.99.6-4.08 1.8-1.07 1.174-1.6 2.867-1.6 5.08 0 2.214.53 3.92 1.6 5.12 1.09 1.174 2.45 1.76 4.08 1.76Zm24.42 3.96c-1.95 0-3.67-.44-5.16-1.32-1.49-.906-2.65-2.173-3.48-3.8-.83-1.626-1.24-3.533-1.24-5.72 0-2.186.43-4.093 1.28-5.72.85-1.626 2.03-2.88 3.52-3.76 1.52-.906 3.27-1.36 5.24-1.36 2.45 0 4.49.6 6.12 1.8 1.65 1.2 2.67 2.88 3.04 5.04l-4.16.68c-.27-1.093-.85-1.96-1.76-2.6-.88-.666-1.99-1-3.32-1-1.6 0-2.96.6-4.08 1.8-1.09 1.2-1.64 2.907-1.64 5.12 0 2.214.55 3.92 1.64 5.12 1.09 1.174 2.45 1.76 4.08 1.76 1.36 0 2.45-.32 3.28-.96.83-.666 1.44-1.613 1.84-2.84l4 .96c-.48 2-1.49 3.64-3.04 4.92-1.55 1.254-3.6 1.88-6.16 1.88Zm23.66 0c-2.08 0-3.89-.453-5.44-1.36-1.52-.933-2.69-2.213-3.52-3.84-.82-1.653-1.24-3.533-1.24-5.64 0-2.133.42-4.013 1.24-5.64.83-1.626 2-2.893 3.52-3.8 1.55-.933 3.36-1.4 5.44-1.4 2.08 0 3.88.467 5.4 1.4a9.015 9.015 0 0 1 3.56 3.8c.83 1.627 1.24 3.507 1.24 5.64 0 2.134-.41 4.014-1.24 5.64a9.264 9.264 0 0 1-3.56 3.84c-1.52.907-3.32 1.36-5.4 1.36Zm0-3.96c1.74 0 3.16-.586 4.28-1.76 1.12-1.2 1.68-2.906 1.68-5.12 0-2.213-.56-3.906-1.68-5.08-1.12-1.2-2.54-1.8-4.28-1.8-1.73 0-3.16.6-4.28 1.8-1.12 1.174-1.68 2.867-1.68 5.08 0 2.214.56 3.92 1.68 5.12 1.12 1.174 2.55 1.76 4.28 1.76Zm14.83 3.32v-3.88h7v-20.88h-5.8v-3.88h10.08v24.76h7.04v3.88h-18.32Zm23.98 0v-3.88h7v-20.88h-5.8v-3.88h10.08v24.76h7.04v3.88h-18.32Zm33.43.64c-2.06 0-3.83-.453-5.32-1.36-1.47-.906-2.62-2.173-3.44-3.8-.8-1.626-1.2-3.506-1.2-5.64 0-2.16.41-4.053 1.24-5.68.85-1.653 2.02-2.933 3.52-3.84 1.52-.906 3.25-1.36 5.2-1.36 3.06 0 5.4.88 7 2.64 1.6 1.734 2.4 4.094 2.4 7.08 0 .72-.04 1.4-.12 2.04h-15.08c.13 1.974.73 3.48 1.8 4.52 1.09 1.04 2.48 1.56 4.16 1.56 1.36 0 2.44-.306 3.24-.92.8-.64 1.37-1.426 1.72-2.36l3.72 1c-.56 1.84-1.59 3.32-3.08 4.44-1.47 1.12-3.39 1.68-5.76 1.68Zm0-18.08c-1.42 0-2.62.414-3.6 1.24-.99.827-1.66 2.067-2 3.72h10.8c-.08-1.493-.56-2.693-1.44-3.6-.88-.906-2.14-1.36-3.76-1.36Zm24.02 18.08c-1.94 0-3.66-.44-5.16-1.32-1.49-.906-2.65-2.173-3.48-3.8-.82-1.626-1.24-3.533-1.24-5.72 0-2.186.43-4.093 1.28-5.72.86-1.626 2.03-2.88 3.52-3.76 1.52-.906 3.27-1.36 5.24-1.36 2.46 0 4.5.6 6.12 1.8 1.66 1.2 2.67 2.88 3.04 5.04l-4.16.68a4.296 4.296 0 0 0-1.76-2.6c-.88-.666-1.98-1-3.32-1-1.6 0-2.96.6-4.08 1.8-1.09 1.2-1.64 2.907-1.64 5.12 0 2.214.55 3.92 1.64 5.12 1.1 1.174 2.46 1.76 4.08 1.76 1.36 0 2.46-.32 3.28-.96.83-.666 1.44-1.613 1.84-2.84l4 .96c-.48 2-1.49 3.64-3.04 4.92-1.54 1.254-3.6 1.88-6.16 1.88Zm27.35-.04c-2.11 0-3.8-.613-5.08-1.84-1.28-1.253-1.92-3.04-1.92-5.36v-10.08h-4.68v-3.72h4.68v-5.6h4.28v5.6h7.48v3.72h-7.48v9.68c0 1.147.29 2.04.88 2.68.58.614 1.46.92 2.64.92 1.01 0 2-.266 2.96-.8l1.24 3.6c-.7.4-1.42.694-2.16.88-.72.214-1.67.32-2.84.32Zm20.3-24.84c-.93 0-1.72-.32-2.36-.96-.64-.64-.96-1.426-.96-2.36 0-.906.32-1.68.96-2.32.64-.64 1.43-.96 2.36-.96.93 0 1.72.32 2.36.96.64.64.96 1.414.96 2.32 0 .934-.32 1.72-.96 2.36-.64.64-1.43.96-2.36.96Zm-9.16 24.24v-3.88h7v-12.64h-5.8v-3.88h10.08v16.52h7.04v3.88h-18.32Zm33.15.64c-2.08 0-3.9-.453-5.44-1.36a9.368 9.368 0 0 1-3.52-3.84c-.83-1.653-1.24-3.533-1.24-5.64 0-2.133.41-4.013 1.24-5.64.82-1.626 2-2.893 3.52-3.8 1.54-.933 3.36-1.4 5.44-1.4 2.08 0 3.88.467 5.4 1.4 1.54.907 2.73 2.174 3.56 3.8.82 1.627 1.24 3.507 1.24 5.64 0 2.134-.42 4.014-1.24 5.64a9.395 9.395 0 0 1-3.56 3.84c-1.52.907-3.32 1.36-5.4 1.36Zm0-3.96c1.73 0 3.16-.586 4.28-1.76 1.12-1.2 1.68-2.906 1.68-5.12 0-2.213-.56-3.906-1.68-5.08-1.12-1.2-2.55-1.8-4.28-1.8-1.74 0-3.16.6-4.28 1.8-1.12 1.174-1.68 2.867-1.68 5.08 0 2.214.56 3.92 1.68 5.12 1.12 1.174 2.54 1.76 4.28 1.76Zm15.38 3.32v-20.4h4.04v2.56h.24c.53-.96 1.35-1.733 2.44-2.32 1.12-.586 2.35-.88 3.68-.88 2.29 0 4.07.694 5.32 2.08 1.25 1.387 1.88 3.294 1.88 5.72v13.24h-4.24v-12.68c0-1.493-.39-2.6-1.16-3.32-.77-.72-1.77-1.08-3-1.08-1.49 0-2.69.547-3.6 1.64-.88 1.094-1.32 2.4-1.32 3.92v11.52h-4.28Zm32.66.64c-2.66 0-4.72-.586-6.16-1.76-1.44-1.173-2.37-2.72-2.8-4.64l4.12-.76c.24.987.75 1.8 1.52 2.44.8.614 1.91.92 3.32.92 1.2 0 2.22-.213 3.04-.64.86-.453 1.28-1.106 1.28-1.96 0-.826-.36-1.466-1.08-1.92-.69-.453-1.72-.813-3.08-1.08l-2.48-.44c-1.7-.293-3.1-.92-4.2-1.88-1.09-.96-1.64-2.28-1.64-3.96 0-1.173.35-2.2 1.04-3.08.7-.906 1.63-1.613 2.8-2.12 1.2-.533 2.56-.8 4.08-.8 2.24 0 4.07.454 5.48 1.36 1.44.907 2.35 2.334 2.72 4.28l-3.8.68c-.32-1.013-.86-1.72-1.64-2.12-.77-.426-1.68-.64-2.72-.64-1.06 0-1.97.227-2.72.68-.74.427-1.12.974-1.12 1.64 0 .72.3 1.294.88 1.72.62.4 1.5.707 2.64.92l2.96.52c2 .347 3.52.987 4.56 1.92 1.04.907 1.56 2.307 1.56 4.2 0 1.307-.37 2.454-1.12 3.44-.74.987-1.77 1.747-3.08 2.28-1.3.534-2.76.8-4.36.8Zm-728.207 49.36v-20.4h4.04v2.56h.24c.533-.96 1.346-1.733 2.44-2.32 1.12-.586 2.346-.88 3.68-.88 2.293 0 4.066.694 5.32 2.08 1.253 1.387 1.88 3.294 1.88 5.72v13.24h-4.24v-12.68c0-1.493-.387-2.6-1.16-3.32-.774-.72-1.774-1.08-3-1.08-1.494 0-2.694.547-3.6 1.64-.88 1.094-1.32 2.4-1.32 3.92v11.52h-4.28Zm31.664.64c-1.76 0-3.32-.426-4.68-1.28-1.36-.88-2.44-2.133-3.24-3.76-.773-1.626-1.16-3.56-1.16-5.8 0-2.266.4-4.2 1.2-5.8.8-1.626 1.894-2.866 3.28-3.72 1.387-.88 2.947-1.32 4.68-1.32 1.547 0 2.84.307 3.88.92 1.04.587 1.814 1.347 2.32 2.28h.24v-2.56h4v20.4h-4v-2.56h-.24c-.56.827-1.36 1.574-2.4 2.24-1.013.64-2.306.96-3.88.96Zm.84-3.96c1.627 0 2.974-.586 4.04-1.76 1.094-1.173 1.64-2.88 1.64-5.12s-.546-3.946-1.64-5.12c-1.066-1.173-2.413-1.76-4.04-1.76-1.626 0-2.986.587-4.08 1.76-1.066 1.174-1.6 2.88-1.6 5.12s.534 3.947 1.6 5.12c1.094 1.174 2.454 1.76 4.08 1.76Zm13.505 3.32v-20.4h3.84v1.76h.24c.32-.72.826-1.293 1.52-1.72.72-.453 1.533-.68 2.44-.68 1.093 0 1.92.24 2.48.72a4.01 4.01 0 0 1 1.28 1.64c.32-.613.868-1.16 1.638-1.64.77-.48 1.69-.72 2.76-.72 1.55 0 2.75.494 3.6 1.48.88.96 1.32 2.4 1.32 4.32v15.24h-4.04v-14.92c0-.72-.19-1.293-.56-1.72-.35-.426-.84-.64-1.48-.64-.77 0-1.37.267-1.8.8-.4.507-.6 1.187-.6 2.04v14.44h-4.078v-14.88c0-.72-.174-1.293-.52-1.72-.32-.453-.84-.68-1.56-.68-.694 0-1.267.267-1.72.8-.454.534-.68 1.227-.68 2.08v14.4h-4.08Zm34.828.64c-2.06 0-3.83-.453-5.32-1.36-1.47-.906-2.62-2.173-3.44-3.8-.8-1.626-1.2-3.506-1.2-5.64 0-2.16.41-4.053 1.24-5.68.85-1.653 2.02-2.933 3.52-3.84 1.52-.906 3.25-1.36 5.2-1.36 3.06 0 5.4.88 7 2.64 1.6 1.734 2.4 4.094 2.4 7.08 0 .72-.04 1.4-.12 2.04h-15.08c.13 1.974.73 3.48 1.8 4.52 1.09 1.04 2.48 1.56 4.16 1.56 1.36 0 2.44-.306 3.24-.92.8-.64 1.37-1.426 1.72-2.36l3.72 1c-.56 1.84-1.59 3.32-3.08 4.44-1.47 1.12-3.39 1.68-5.76 1.68Zm0-18.08c-1.42 0-2.62.414-3.6 1.24-.99.827-1.66 2.067-2 3.72h10.8c-.08-1.493-.56-2.693-1.44-3.6-.88-.906-2.14-1.36-3.76-1.36Zm22.78 18.08c-1.76 0-3.32-.426-4.68-1.28-1.36-.88-2.44-2.133-3.24-3.76-.77-1.626-1.16-3.56-1.16-5.8 0-2.266.4-4.2 1.2-5.8.8-1.626 1.89-2.866 3.28-3.72 1.39-.88 2.95-1.32 4.68-1.32 1.55 0 2.84.307 3.88.92 1.04.587 1.81 1.347 2.32 2.28h.24l-.24-2.92v-7.88h4.24v28.64h-4v-2.56h-.24c-.56.827-1.36 1.574-2.4 2.24-1.01.64-2.31.96-3.88.96Zm.84-3.96c1.63 0 2.97-.586 4.04-1.76 1.09-1.173 1.64-2.88 1.64-5.12s-.55-3.946-1.64-5.12c-1.07-1.173-2.41-1.76-4.04-1.76s-2.99.587-4.08 1.76c-1.07 1.174-1.6 2.88-1.6 5.12s.53 3.947 1.6 5.12c1.09 1.174 2.45 1.76 4.08 1.76Zm41.89-13.4v-11.92h3.88v11.92h-3.88Zm8.44 0v-11.92h3.88v11.92h-3.88Zm21.98 17.36c-2.05 0-3.82-.453-5.32-1.36-1.46-.906-2.61-2.173-3.44-3.8-.8-1.626-1.2-3.506-1.2-5.64 0-2.16.42-4.053 1.24-5.68.86-1.653 2.03-2.933 3.52-3.84 1.52-.906 3.26-1.36 5.2-1.36 3.07 0 5.4.88 7 2.64 1.6 1.734 2.4 4.094 2.4 7.08 0 .72-.04 1.4-.12 2.04h-15.08c.14 1.974.74 3.48 1.8 4.52 1.1 1.04 2.48 1.56 4.16 1.56 1.36 0 2.44-.306 3.24-.92.8-.64 1.38-1.426 1.72-2.36l3.72 1c-.56 1.84-1.58 3.32-3.08 4.44-1.46 1.12-3.38 1.68-5.76 1.68Zm0-18.08c-1.41 0-2.61.414-3.6 1.24-.98.827-1.65 2.067-2 3.72h10.8c-.08-1.493-.56-2.693-1.44-3.6-.88-.906-2.13-1.36-3.76-1.36Zm13.79 17.44 7.36-10.36-7.32-10.04h5l4.84 6.76h.12l4.64-6.76h5.16l-7.44 10.04 7.44 10.36h-4.96l-4.92-7h-.08l-4.92 7h-4.92Zm24.38 8.64v-29.04h4v2.64h.24c.54-.88 1.34-1.64 2.4-2.28 1.1-.666 2.39-1 3.88-1 1.76 0 3.32.44 4.68 1.32 1.39.854 2.47 2.094 3.24 3.72.78 1.6 1.16 3.534 1.16 5.8 0 2.24-.38 4.174-1.16 5.8-.77 1.627-1.85 2.88-3.24 3.76-1.36.854-2.92 1.28-4.68 1.28-1.54 0-2.85-.32-3.92-.96-1.06-.64-1.85-1.386-2.36-2.24h-.24l.24 2.92v8.28h-4.24Zm9.68-11.96c1.63 0 2.98-.573 4.04-1.72 1.1-1.173 1.64-2.893 1.64-5.16 0-2.266-.54-3.973-1.64-5.12-1.06-1.173-2.41-1.76-4.04-1.76-1.62 0-2.98.587-4.08 1.76-1.06 1.147-1.6 2.854-1.6 5.12 0 2.267.54 3.987 1.6 5.16 1.1 1.147 2.46 1.72 4.08 1.72Zm24.11 3.96c-2.06 0-3.83-.453-5.32-1.36-1.47-.906-2.62-2.173-3.44-3.8-.8-1.626-1.2-3.506-1.2-5.64 0-2.16.41-4.053 1.24-5.68.85-1.653 2.02-2.933 3.52-3.84 1.52-.906 3.25-1.36 5.2-1.36 3.06 0 5.4.88 7 2.64 1.6 1.734 2.4 4.094 2.4 7.08 0 .72-.04 1.4-.12 2.04h-15.08c.13 1.974.73 3.48 1.8 4.52 1.09 1.04 2.48 1.56 4.16 1.56 1.36 0 2.44-.306 3.24-.92.8-.64 1.37-1.426 1.72-2.36l3.72 1c-.56 1.84-1.59 3.32-3.08 4.44-1.47 1.12-3.39 1.68-5.76 1.68Zm0-18.08c-1.42 0-2.62.414-3.6 1.24-.99.827-1.66 2.067-2 3.72h10.8c-.08-1.493-.56-2.693-1.44-3.6-.88-.906-2.14-1.36-3.76-1.36Zm15.1 17.44v-20.4h4.04v2.56h.24c.53-.96 1.35-1.733 2.44-2.32 1.12-.586 2.35-.88 3.68-.88 2.29 0 4.07.694 5.32 2.08 1.25 1.387 1.88 3.294 1.88 5.72v13.24h-4.24v-12.68c0-1.493-.39-2.6-1.16-3.32-.77-.72-1.77-1.08-3-1.08-1.49 0-2.69.547-3.6 1.64-.88 1.094-1.32 2.4-1.32 3.92v11.52h-4.28Zm32.67.64c-2.67 0-4.72-.586-6.16-1.76-1.44-1.173-2.38-2.72-2.8-4.64l4.12-.76c.24.987.74 1.8 1.52 2.44.8.614 1.9.92 3.32.92 1.2 0 2.21-.213 3.04-.64.85-.453 1.28-1.106 1.28-1.96 0-.826-.36-1.466-1.08-1.92-.7-.453-1.72-.813-3.08-1.08l-2.48-.44c-1.71-.293-3.11-.92-4.2-1.88-1.1-.96-1.64-2.28-1.64-3.96 0-1.173.34-2.2 1.04-3.08.69-.906 1.62-1.613 2.8-2.12 1.2-.533 2.56-.8 4.08-.8 2.24 0 4.06.454 5.48 1.36 1.44.907 2.34 2.334 2.72 4.28l-3.8.68c-.32-1.013-.87-1.72-1.64-2.12-.78-.426-1.68-.64-2.72-.64-1.07 0-1.98.227-2.72.68-.75.427-1.12.974-1.12 1.64 0 .72.29 1.294.88 1.72.61.4 1.49.707 2.64.92l2.96.52c2 .347 3.52.987 4.56 1.92 1.04.907 1.56 2.307 1.56 4.2 0 1.307-.38 2.454-1.12 3.44-.75.987-1.78 1.747-3.08 2.28-1.31.534-2.76.8-4.36.8Zm24.18 0c-2.05 0-3.83-.453-5.32-1.36-1.47-.906-2.61-2.173-3.44-3.8-.8-1.626-1.2-3.506-1.2-5.64 0-2.16.41-4.053 1.24-5.68.85-1.653 2.03-2.933 3.52-3.84 1.52-.906 3.25-1.36 5.2-1.36 3.07 0 5.4.88 7 2.64 1.6 1.734 2.4 4.094 2.4 7.08 0 .72-.04 1.4-.12 2.04h-15.08c.13 1.974.73 3.48 1.8 4.52 1.09 1.04 2.48 1.56 4.16 1.56 1.36 0 2.44-.306 3.24-.92.8-.64 1.37-1.426 1.72-2.36l3.72 1c-.56 1.84-1.59 3.32-3.08 4.44-1.47 1.12-3.39 1.68-5.76 1.68Zm0-18.08c-1.41 0-2.61.414-3.6 1.24-.99.827-1.65 2.067-2 3.72h10.8c-.08-1.493-.56-2.693-1.44-3.6-.88-.906-2.13-1.36-3.76-1.36Zm23.78 18.08c-2.66 0-4.72-.586-6.16-1.76-1.44-1.173-2.37-2.72-2.8-4.64l4.12-.76c.24.987.75 1.8 1.52 2.44.8.614 1.91.92 3.32.92 1.2 0 2.22-.213 3.04-.64.86-.453 1.28-1.106 1.28-1.96 0-.826-.36-1.466-1.08-1.92-.69-.453-1.72-.813-3.08-1.08l-2.48-.44c-1.7-.293-3.1-.92-4.2-1.88-1.09-.96-1.64-2.28-1.64-3.96 0-1.173.35-2.2 1.04-3.08.7-.906 1.63-1.613 2.8-2.12 1.2-.533 2.56-.8 4.08-.8 2.24 0 4.07.454 5.48 1.36 1.44.907 2.35 2.334 2.72 4.28l-3.8.68c-.32-1.013-.86-1.72-1.64-2.12-.77-.426-1.68-.64-2.72-.64-1.06 0-1.97.227-2.72.68-.74.427-1.12.974-1.12 1.64 0 .72.3 1.294.88 1.72.62.4 1.5.707 2.64.92l2.96.52c2 .347 3.52.987 4.56 1.92 1.04.907 1.56 2.307 1.56 4.2 0 1.307-.37 2.454-1.12 3.44-.74.987-1.77 1.747-3.08 2.28-1.3.534-2.76.8-4.36.8Zm17.75-17.36v-11.92h3.88v11.92h-3.88Zm8.44 0v-11.92h3.88v11.92h-3.88Z" fill="#BDBDBD"/></svg>