<svg width="1014" height="931" fill="none" xmlns="http://www.w3.org/2000/svg"><path fill="#F5F5F5" d="M.316 107.555h503.273v810.388H.316z"/><path fill="#F5F5F5" d="M.316 109.555h503.273v821.07H.316z"/><path stroke="#1F2023" stroke-width="3" d="M.316 210.587h503M.316 309.358h503M.316 514.358h503M.316 719.358h503"/><path fill="#9CC0FA" d="M.266 107.555H503.59v101.448H.266z"/><path d="M48.27 180.791c-1.856 0-3.435-.48-4.736-1.44-1.302-.981-2.304-2.368-3.008-4.16-.683-1.792-1.024-3.914-1.024-6.368 0-2.474.352-4.597 1.056-6.368.704-1.792 1.717-3.168 3.04-4.128 1.322-.981 2.912-1.472 4.768-1.472 1.45 0 2.773.288 3.968.864a7.346 7.346 0 0 1 2.976 2.56c.789 1.131 1.258 2.55 1.408 4.256l-4.256.736c-.171-1.344-.598-2.4-1.28-3.168-.662-.789-1.6-1.184-2.816-1.184-1.302 0-2.39.683-3.264 2.048-.854 1.366-1.28 3.318-1.28 5.856 0 2.539.426 4.491 1.28 5.856.853 1.344 1.941 2.016 3.264 2.016 1.088 0 1.994-.384 2.72-1.152.746-.768 1.226-1.824 1.44-3.168l4.288.544c-.214 1.536-.672 2.902-1.376 4.096a7.496 7.496 0 0 1-2.816 2.784c-1.195.662-2.646.992-4.352.992Zm19.283 0c-1.898 0-3.52-.49-4.864-1.472-1.322-1.002-2.336-2.4-3.04-4.192-.704-1.813-1.056-3.914-1.056-6.304 0-2.41.352-4.512 1.056-6.304.704-1.792 1.718-3.178 3.04-4.16 1.344-1.002 2.965-1.504 4.864-1.504s3.51.502 4.832 1.504c1.344.982 2.368 2.368 3.072 4.16.704 1.792 1.056 3.894 1.056 6.304 0 2.39-.352 4.491-1.056 6.304-.704 1.792-1.728 3.19-3.072 4.192-1.323.982-2.933 1.472-4.832 1.472Zm0-4.096c1.45 0 2.582-.661 3.392-1.984.81-1.322 1.216-3.285 1.216-5.888 0-2.602-.405-4.565-1.216-5.888-.81-1.322-1.941-1.984-3.392-1.984-1.45 0-2.581.662-3.392 1.984-.81 1.323-1.216 3.286-1.216 5.888 0 2.603.405 4.566 1.216 5.888.81 1.323 1.942 1.984 3.392 1.984Zm19.284 4.096c-2.539 0-4.544-.65-6.016-1.952-1.472-1.322-2.379-3.05-2.72-5.184l4.32-.96c.17 1.131.618 2.08 1.344 2.848.746.768 1.781 1.152 3.104 1.152 1.194 0 2.133-.256 2.816-.768.704-.512 1.056-1.194 1.056-2.048 0-.896-.331-1.6-.992-2.112-.64-.533-1.75-1.034-3.328-1.504l-1.984-.608a10.692 10.692 0 0 1-2.56-1.184 6.507 6.507 0 0 1-1.952-2.08c-.512-.853-.768-1.909-.768-3.168 0-1.194.288-2.272.864-3.232.597-.96 1.45-1.717 2.56-2.272 1.109-.576 2.453-.864 4.032-.864 2.389 0 4.234.566 5.536 1.696 1.301 1.11 2.09 2.656 2.368 4.64l-4.096.608c-.214-.938-.63-1.664-1.248-2.176-.619-.533-1.451-.8-2.496-.8-.939 0-1.728.214-2.368.64-.64.427-.96.992-.96 1.696 0 .726.298 1.334.896 1.824.597.491 1.546.928 2.848 1.312l1.728.512c1.28.384 2.378.864 3.296 1.44.938.555 1.653 1.28 2.144 2.176.512.896.768 2.016.768 3.36 0 1.558-.384 2.859-1.152 3.904-.747 1.024-1.739 1.803-2.976 2.336-1.238.512-2.592.768-4.064.768Zm16.947-.512v-18.816h-6.592v-4.096h17.472v4.096h-6.592v18.816h-4.288ZM294.356 180.279v-3.84h5.28v-15.232h-4.96v-3.84h14.208v3.84h-4.96v15.232h5.28v3.84h-14.848Zm18.291 0v-22.912h6.4c2.24 0 4.139.459 5.696 1.376 1.558.918 2.742 2.23 3.552 3.936.832 1.707 1.248 3.755 1.248 6.144 0 2.368-.416 4.416-1.248 6.144-.81 1.707-1.994 3.019-3.552 3.936-1.557.918-3.456 1.376-5.696 1.376h-6.4Zm4.288-4.096h1.984c1.942 0 3.478-.608 4.608-1.824 1.131-1.237 1.696-3.082 1.696-5.536 0-2.453-.565-4.288-1.696-5.504-1.13-1.237-2.666-1.856-4.608-1.856h-1.984v14.72Z" fill="#000"/><path stroke="#1F2023" stroke-width="3" d="M.316 413.358H503.59"/><path fill="#E9E9E9" d="M1.09 310.48h502.5v101.091H1.09z"/><path stroke="#1F2023" stroke-width="3" d="M.316 618.358H503.59"/><path fill="#E9E9E9" d="M1.09 515.48h502.5v101.091H1.09z"/><path stroke="#1F2023" stroke-width="3" d="M.316 824.358H503.59"/><path fill="#E9E9E9" d="M1.09 721.48h502.5v101.091H1.09z"/><path stroke="#000" d="m294.82 209.318.001-.316"/><path stroke="#1F2023" stroke-width="3" d="M255.418 104.276v823.163M505.09 107.555v823.163"/><path opacity=".8" d="M48.366 272.796c-1.878 0-3.467-.502-4.768-1.504-1.302-1.003-2.294-2.4-2.976-4.192-.662-1.814-.992-3.904-.992-6.272 0-2.368.33-4.448.992-6.24.682-1.792 1.674-3.19 2.976-4.192 1.301-1.024 2.89-1.536 4.768-1.536 1.898 0 3.488.512 4.768 1.536 1.301 1.002 2.282 2.4 2.944 4.192.682 1.792 1.024 3.872 1.024 6.24 0 2.368-.342 4.458-1.024 6.272-.662 1.792-1.643 3.189-2.944 4.192-1.28 1.002-2.87 1.504-4.768 1.504Zm-4.544-11.968c0 1.408.117 2.645.352 3.712l6.592-10.912c-.683-.576-1.494-.864-2.432-.864-1.451 0-2.571.682-3.36 2.048-.768 1.365-1.152 3.37-1.152 6.016Zm4.512 8.064c1.45 0 2.57-.683 3.36-2.048.81-1.366 1.216-3.371 1.216-6.016 0-1.387-.118-2.603-.352-3.648l-6.56 10.88c.64.554 1.418.832 2.336.832Zm19.22 3.584a2.98 2.98 0 0 1-2.145-.864 2.981 2.981 0 0 1-.864-2.144c0-.832.288-1.536.864-2.112.597-.598 1.312-.896 2.144-.896a2.82 2.82 0 0 1 2.112.896c.597.576.896 1.28.896 2.112 0 .832-.299 1.546-.896 2.144-.576.576-1.28.864-2.112.864Zm19.41.32c-1.343 0-2.591-.246-3.743-.736a6.735 6.735 0 0 1-2.848-2.272c-.726-1.024-1.163-2.315-1.312-3.872l4.192-.544c.106 1.024.469 1.877 1.088 2.56.64.661 1.514.992 2.624.992 1.152 0 2.058-.352 2.72-1.056.682-.704 1.024-1.675 1.024-2.912 0-1.238-.331-2.208-.992-2.912-.64-.704-1.547-1.056-2.72-1.056-.662 0-1.27.149-1.824.448-.555.277-1.003.629-1.344 1.056l-4.064-1.76 1.376-11.36h12.672v3.648H84.5l-.832 5.376.256.096c.426-.363.97-.662 1.632-.896a6.261 6.261 0 0 1 2.112-.352c1.408 0 2.656.309 3.744.928 1.088.597 1.941 1.472 2.56 2.624.618 1.152.928 2.538.928 4.16 0 1.578-.342 2.965-1.024 4.16a6.839 6.839 0 0 1-2.784 2.72c-1.195.64-2.571.96-4.128.96Zm20.596-.512v-4.16H97.288v-3.36l9.92-15.392h4.48v14.848h2.912v3.904h-2.912v4.16h-4.128Zm-5.728-8.064h5.728v-8.48h-.256l-5.472 8.48ZM48.366 375.296c-1.878 0-3.467-.502-4.768-1.504-1.302-1.003-2.294-2.4-2.976-4.192-.662-1.814-.992-3.904-.992-6.272 0-2.368.33-4.448.992-6.24.682-1.792 1.674-3.19 2.976-4.192 1.301-1.024 2.89-1.536 4.768-1.536 1.898 0 3.488.512 4.768 1.536 1.301 1.002 2.282 2.4 2.944 4.192.682 1.792 1.024 3.872 1.024 6.24 0 2.368-.342 4.458-1.024 6.272-.662 1.792-1.643 3.189-2.944 4.192-1.28 1.002-2.87 1.504-4.768 1.504Zm-4.544-11.968c0 1.408.117 2.645.352 3.712l6.592-10.912c-.683-.576-1.494-.864-2.432-.864-1.451 0-2.571.682-3.36 2.048-.768 1.365-1.152 3.37-1.152 6.016Zm4.512 8.064c1.45 0 2.57-.683 3.36-2.048.81-1.366 1.216-3.371 1.216-6.016 0-1.387-.118-2.603-.352-3.648l-6.56 10.88c.64.554 1.418.832 2.336.832Zm19.22 3.584a2.98 2.98 0 0 1-2.145-.864 2.981 2.981 0 0 1-.864-2.144c0-.832.288-1.536.864-2.112.597-.598 1.312-.896 2.144-.896a2.82 2.82 0 0 1 2.112.896c.597.576.896 1.28.896 2.112 0 .832-.299 1.546-.896 2.144-.576.576-1.28.864-2.112.864Zm19.187.32c-1.6 0-2.976-.31-4.128-.928-1.152-.619-2.038-1.451-2.656-2.496a6.785 6.785 0 0 1-.896-3.424c0-1.408.33-2.582.992-3.52.661-.96 1.461-1.675 2.4-2.144v-.256c-.747-.491-1.398-1.142-1.952-1.952-.534-.811-.8-1.771-.8-2.88 0-1.174.288-2.23.864-3.168.597-.96 1.418-1.728 2.464-2.304 1.066-.576 2.304-.864 3.712-.864 1.408 0 2.634.288 3.68.864 1.066.576 1.888 1.344 2.464 2.304.597.938.896 1.994.896 3.168 0 1.109-.278 2.069-.832 2.88-.534.81-1.174 1.461-1.92 1.952v.256c.938.469 1.738 1.184 2.4 2.144.661.938.992 2.112.992 3.52 0 1.237-.31 2.378-.928 3.424-.619 1.045-1.504 1.877-2.656 2.496-1.131.618-2.496.928-4.096.928Zm0-14.368c.917 0 1.642-.288 2.176-.864.533-.576.8-1.259.8-2.048 0-.811-.267-1.504-.8-2.08-.534-.576-1.259-.864-2.176-.864-.918 0-1.643.288-2.176.864-.534.576-.8 1.269-.8 2.08 0 .789.266 1.472.8 2.048.533.576 1.258.864 2.176.864Zm0 10.496c1.066 0 1.909-.32 2.528-.96.64-.64.96-1.451.96-2.432 0-.982-.32-1.792-.96-2.432-.619-.64-1.462-.96-2.528-.96-1.046 0-1.888.32-2.528.96-.64.64-.96 1.45-.96 2.432 0 .981.32 1.792.96 2.432.64.64 1.482.96 2.528.96Zm12.147 3.36v-3.84c2.091-1.6 3.808-2.976 5.152-4.128 1.344-1.152 2.389-2.208 3.136-3.168.704-.896 1.216-1.75 1.536-2.56a6.938 6.938 0 0 0 .512-2.656c0-1.003-.309-1.782-.928-2.336-.619-.555-1.429-.832-2.432-.832-.917 0-1.696.277-2.336.832-.619.554-1.013 1.365-1.184 2.432l-3.936-.352c.128-1.302.501-2.464 1.12-3.488a6.93 6.93 0 0 1 2.592-2.432c1.088-.598 2.357-.896 3.808-.896 2.325 0 4.16.608 5.504 1.824 1.344 1.216 2.016 2.901 2.016 5.056 0 1.45-.299 2.805-.896 4.064a17.469 17.469 0 0 1-2.176 3.552 21.023 21.023 0 0 1-2.624 2.72 49.02 49.02 0 0 1-3.072 2.4l.096.16h9.28v3.648H98.888ZM48.366 478.296c-1.878 0-3.467-.502-4.768-1.504-1.302-1.003-2.294-2.4-2.976-4.192-.662-1.814-.992-3.904-.992-6.272 0-2.368.33-4.448.992-6.24.682-1.792 1.674-3.19 2.976-4.192 1.301-1.024 2.89-1.536 4.768-1.536 1.898 0 3.488.512 4.768 1.536 1.301 1.002 2.282 2.4 2.944 4.192.682 1.792 1.024 3.872 1.024 6.24 0 2.368-.342 4.458-1.024 6.272-.662 1.792-1.643 3.189-2.944 4.192-1.28 1.002-2.87 1.504-4.768 1.504Zm-4.544-11.968c0 1.408.117 2.645.352 3.712l6.592-10.912c-.683-.576-1.494-.864-2.432-.864-1.451 0-2.571.682-3.36 2.048-.768 1.365-1.152 3.37-1.152 6.016Zm4.512 8.064c1.45 0 2.57-.683 3.36-2.048.81-1.366 1.216-3.371 1.216-6.016 0-1.387-.118-2.603-.352-3.648l-6.56 10.88c.64.554 1.418.832 2.336.832Zm19.22 3.584a2.98 2.98 0 0 1-2.145-.864 2.981 2.981 0 0 1-.864-2.144c0-.832.288-1.536.864-2.112.597-.598 1.312-.896 2.144-.896a2.82 2.82 0 0 1 2.112.896c.597.576.896 1.28.896 2.112 0 .832-.299 1.546-.896 2.144-.576.576-1.28.864-2.112.864Zm17.107.32-2.112-3.264a17.777 17.777 0 0 0 4.768-3.136 11.469 11.469 0 0 0 3.04-4.544l-.192-.16c-.406.597-1.024 1.066-1.856 1.408-.811.32-1.611.48-2.4.48-1.408 0-2.656-.299-3.744-.896a6.784 6.784 0 0 1-2.592-2.496c-.619-1.088-.928-2.358-.928-3.808 0-1.451.362-2.742 1.088-3.872a7.58 7.58 0 0 1 2.88-2.688 7.921 7.921 0 0 1 3.904-.992c1.322 0 2.517.234 3.584.704a6.913 6.913 0 0 1 2.688 1.984c.661.768 1.162 1.685 1.504 2.752.362 1.066.544 2.261.544 3.584 0 2.901-.726 5.557-2.176 7.968-.854 1.45-1.952 2.773-3.296 3.968-1.344 1.194-2.912 2.197-4.704 3.008Zm1.856-12.736c1.045 0 1.92-.32 2.624-.96.725-.662 1.088-1.568 1.088-2.72 0-1.152-.363-2.059-1.088-2.72-.704-.662-1.579-.992-2.624-.992-1.046 0-1.931.33-2.656.992-.704.661-1.056 1.568-1.056 2.72 0 1.152.352 2.058 1.056 2.72.725.64 1.61.96 2.656.96Zm15.603 12.224c0-2.71.299-5.216.896-7.52.619-2.326 1.44-4.427 2.464-6.304 1.024-1.878 2.144-3.52 3.36-4.928l-.16-.256H98.056v-3.904h15.616v4.096a18.187 18.187 0 0 0-4.192 5.536 25.745 25.745 0 0 0-2.144 6.528 36.655 36.655 0 0 0-.64 6.752h-4.576ZM41.006 579.784v-3.84h5.504v-13.76l-5.088 3.776v-4.608l6.112-4.48h3.168v19.072h5.152v3.84H41.006Zm26.547.192a2.98 2.98 0 0 1-2.144-.864 2.981 2.981 0 0 1-.864-2.144c0-.832.288-1.536.864-2.112.597-.598 1.312-.896 2.144-.896a2.82 2.82 0 0 1 2.112.896c.597.576.896 1.28.896 2.112 0 .832-.299 1.546-.896 2.144-.576.576-1.28.864-2.112.864Zm19.188.32c-1.878 0-3.467-.502-4.768-1.504-1.302-1.003-2.294-2.4-2.976-4.192-.662-1.814-.992-3.904-.992-6.272 0-2.368.33-4.448.992-6.24.682-1.792 1.674-3.19 2.976-4.192 1.301-1.024 2.89-1.536 4.768-1.536 1.898 0 3.488.512 4.768 1.536 1.301 1.002 2.282 2.4 2.944 4.192.682 1.792 1.024 3.872 1.024 6.24 0 2.368-.342 4.458-1.024 6.272-.662 1.792-1.643 3.189-2.944 4.192-1.28 1.002-2.87 1.504-4.768 1.504Zm-4.544-11.968c0 1.408.117 2.645.352 3.712l6.592-10.912c-.683-.576-1.494-.864-2.432-.864-1.451 0-2.571.682-3.36 2.048-.768 1.365-1.152 3.37-1.152 6.016Zm4.512 8.064c1.45 0 2.57-.683 3.36-2.048.81-1.366 1.216-3.371 1.216-6.016 0-1.387-.118-2.603-.352-3.648l-6.56 10.88c.64.554 1.418.832 2.336.832Zm19.443 3.904c-1.344 0-2.592-.246-3.744-.736a6.736 6.736 0 0 1-2.848-2.272c-.725-1.024-1.163-2.315-1.312-3.872l4.192-.544c.107 1.024.469 1.877 1.088 2.56.64.661 1.515.992 2.624.992 1.152 0 2.059-.352 2.72-1.056.683-.704 1.024-1.675 1.024-2.912 0-1.238-.331-2.208-.992-2.912-.64-.704-1.547-1.056-2.72-1.056-.661 0-1.269.149-1.824.448-.555.277-1.003.629-1.344 1.056l-4.064-1.76 1.376-11.36H113v3.648h-9.312l-.832 5.376.256.096c.427-.363.971-.662 1.632-.896a6.258 6.258 0 0 1 2.112-.352c1.408 0 2.656.309 3.744.928 1.088.597 1.941 1.472 2.56 2.624.619 1.152.928 2.538.928 4.16 0 1.578-.341 2.965-1.024 4.16a6.835 6.835 0 0 1-2.784 2.72c-1.195.64-2.571.96-4.128.96ZM41.006 681.669v-3.84h5.504v-13.76l-5.088 3.776v-4.608l6.112-4.48h3.168v19.072h5.152v3.84H41.006Zm26.547.192a2.98 2.98 0 0 1-2.144-.864 2.98 2.98 0 0 1-.864-2.144c0-.832.288-1.536.864-2.112.597-.597 1.312-.896 2.144-.896.832 0 1.536.299 2.112.896.597.576.896 1.28.896 2.112 0 .832-.299 1.547-.896 2.144-.576.576-1.28.864-2.112.864Zm11.828-.192v-3.84h5.504v-13.76l-5.088 3.776v-4.608l6.112-4.48h3.168v19.072h5.152v3.84H79.38Zm19.507 0v-3.84c2.091-1.6 3.808-2.976 5.152-4.128 1.344-1.152 2.389-2.208 3.136-3.168.704-.896 1.216-1.749 1.536-2.56a6.934 6.934 0 0 0 .512-2.656c0-1.003-.309-1.781-.928-2.336-.619-.555-1.429-.832-2.432-.832-.917 0-1.696.277-2.336.832-.619.555-1.013 1.365-1.184 2.432l-3.936-.352c.128-1.301.501-2.464 1.12-3.488a6.93 6.93 0 0 1 2.592-2.432c1.088-.597 2.357-.896 3.808-.896 2.325 0 4.16.608 5.504 1.824 1.344 1.216 2.016 2.901 2.016 5.056a9.363 9.363 0 0 1-.896 4.064 17.415 17.415 0 0 1-2.176 3.552 20.96 20.96 0 0 1-2.624 2.72 49.02 49.02 0 0 1-3.072 2.4l.096.16h9.28v3.648H98.888ZM41.006 784.784v-3.84h5.504v-13.76l-5.088 3.776v-4.608l6.112-4.48h3.168v19.072h5.152v3.84H41.006Zm26.547.192a2.98 2.98 0 0 1-2.144-.864 2.981 2.981 0 0 1-.864-2.144c0-.832.288-1.536.864-2.112.597-.598 1.312-.896 2.144-.896a2.82 2.82 0 0 1 2.112.896c.597.576.896 1.28.896 2.112 0 .832-.299 1.546-.896 2.144-.576.576-1.28.864-2.112.864Zm12.148-.192v-3.84c2.09-1.6 3.808-2.976 5.152-4.128 1.344-1.152 2.389-2.208 3.136-3.168.704-.896 1.216-1.75 1.536-2.56a6.93 6.93 0 0 0 .512-2.656c0-1.003-.31-1.782-.928-2.336-.619-.555-1.43-.832-2.432-.832-.918 0-1.696.277-2.336.832-.619.554-1.014 1.365-1.184 2.432l-3.936-.352c.128-1.302.501-2.464 1.12-3.488a6.93 6.93 0 0 1 2.592-2.432c1.088-.598 2.357-.896 3.808-.896 2.325 0 4.16.608 5.504 1.824 1.344 1.216 2.016 2.901 2.016 5.056a9.36 9.36 0 0 1-.896 4.064 17.482 17.482 0 0 1-2.176 3.552 20.997 20.997 0 0 1-2.624 2.72 49.195 49.195 0 0 1-3.072 2.4l.096.16h9.28v3.648H79.7Zm27.859 0v-4.16H97.288v-3.36l9.92-15.392h4.48v14.848h2.912v3.904h-2.912v4.16h-4.128Zm-5.728-8.064h5.728v-8.48h-.256l-5.472 8.48ZM41.006 885.554v-3.84h5.504v-13.76l-5.088 3.776v-4.608l6.112-4.48h3.168v19.072h5.152v3.84H41.006Zm26.547.192a2.98 2.98 0 0 1-2.144-.864 2.981 2.981 0 0 1-.864-2.144c0-.832.288-1.536.864-2.112.597-.598 1.312-.896 2.144-.896a2.82 2.82 0 0 1 2.112.896c.597.576.896 1.28.896 2.112 0 .832-.299 1.546-.896 2.144-.576.576-1.28.864-2.112.864Zm19.476.32c-1.302 0-2.475-.235-3.52-.704a7.755 7.755 0 0 1-2.688-1.984c-.662-.768-1.174-1.686-1.536-2.752-.342-1.088-.512-2.283-.512-3.584 0-2.902.725-5.558 2.176-7.968a17.526 17.526 0 0 1 3.296-3.968c1.344-1.195 2.912-2.198 4.704-3.008l2.112 3.264a16.789 16.789 0 0 0-4.768 3.136 11.463 11.463 0 0 0-3.04 4.544l.192.16a4.434 4.434 0 0 1 1.824-1.408 5.948 5.948 0 0 1 2.368-.48c1.429 0 2.677.298 3.744.896a6.066 6.066 0 0 1 2.528 2.496c.618 1.066.928 2.336.928 3.808 0 1.45-.342 2.752-1.024 3.904a7.252 7.252 0 0 1-2.752 2.688c-1.174.64-2.518.96-4.032.96Zm0-3.84c1.024 0 1.888-.331 2.592-.992.704-.662 1.056-1.568 1.056-2.72 0-1.152-.352-2.048-1.056-2.688-.704-.662-1.568-.992-2.592-.992s-1.888.33-2.592.992c-.704.64-1.056 1.536-1.056 2.688 0 1.152.352 2.058 1.056 2.72.704.661 1.568.992 2.592.992Zm11.86 3.328v-3.84c2.09-1.6 3.807-2.976 5.151-4.128 1.344-1.152 2.389-2.208 3.136-3.168.704-.896 1.216-1.75 1.536-2.56a6.938 6.938 0 0 0 .512-2.656c0-1.003-.309-1.782-.928-2.336-.619-.555-1.429-.832-2.432-.832-.917 0-1.696.277-2.336.832-.619.554-1.013 1.365-1.184 2.432l-3.936-.352c.128-1.302.501-2.464 1.12-3.488a6.93 6.93 0 0 1 2.592-2.432c1.088-.598 2.357-.896 3.808-.896 2.325 0 4.16.608 5.504 1.824 1.344 1.216 2.016 2.901 2.016 5.056 0 1.45-.299 2.805-.896 4.064a17.469 17.469 0 0 1-2.176 3.552 21.023 21.023 0 0 1-2.624 2.72 49.02 49.02 0 0 1-3.072 2.4l.096.16h9.28v3.648H98.888ZM304.084 253.404c-.854 0-1.579-.288-2.176-.864-.576-.598-.864-1.323-.864-2.176 0-.854.288-1.568.864-2.144.597-.598 1.322-.896 2.176-.896.853 0 1.568.298 2.144.896.597.576.896 1.29.896 2.144 0 .853-.299 1.578-.896 2.176-.576.576-1.291.864-2.144.864Zm-4.224 26.112c-1.195 0-2.219-.118-3.072-.352a9.26 9.26 0 0 1-2.304-.896l1.632-3.712c.448.298.96.554 1.536.768a4.8 4.8 0 0 0 1.824.352c.81 0 1.429-.235 1.856-.704.426-.47.64-1.12.64-1.952v-13.28h-6.016v-3.776h10.208v16.832c0 2.069-.566 3.701-1.696 4.896-1.131 1.216-2.667 1.824-4.608 1.824Zm22.739-7.232v-4.16h-10.272v-3.36l9.92-15.392h4.48v14.848h2.912v3.904h-2.912v4.16h-4.128Zm-5.728-8.064h5.728v-8.48h-.256l-5.472 8.48Zm22.164 8.576a6.994 6.994 0 0 1-3.648-.992c-1.088-.662-1.963-1.632-2.624-2.912-.64-1.302-.96-2.891-.96-4.768 0-1.899.33-3.488.992-4.768.682-1.302 1.568-2.272 2.656-2.912a6.926 6.926 0 0 1 3.616-.992c1.216 0 2.229.224 3.04.672.81.448 1.418 1.024 1.824 1.728h.256v-1.888h3.904v16.32h-3.904v-1.856h-.256c-.448.64-1.078 1.194-1.888 1.664-.811.469-1.814.704-3.008.704Zm1.024-3.904c1.173 0 2.154-.395 2.944-1.184.789-.79 1.184-1.984 1.184-3.584s-.395-2.795-1.184-3.584c-.79-.811-1.771-1.216-2.944-1.216-1.152 0-2.123.405-2.912 1.216-.79.789-1.184 1.984-1.184 3.584s.394 2.794 1.184 3.584c.789.789 1.76 1.184 2.912 1.184Zm19.123 3.904c-2.09 0-3.861-.566-5.312-1.696-1.45-1.152-2.314-2.827-2.592-5.024l4.128-.832c.171 1.109.576 1.973 1.216 2.592.662.618 1.515.928 2.56.928 1.131 0 2.027-.299 2.688-.896.662-.598.992-1.419.992-2.464 0-1.088-.362-1.91-1.088-2.464-.704-.576-1.685-.864-2.944-.864h-1.824v-3.648h1.696c1.003 0 1.846-.235 2.528-.704.683-.47 1.024-1.216 1.024-2.24 0-.875-.288-1.568-.864-2.08-.576-.512-1.344-.768-2.304-.768-.896 0-1.642.266-2.24.8a3.499 3.499 0 0 0-1.088 1.92l-4.032-.448a7.49 7.49 0 0 1 1.216-3.04c.619-.918 1.451-1.643 2.496-2.176 1.046-.555 2.283-.832 3.712-.832 1.43 0 2.678.266 3.744.8 1.088.533 1.931 1.269 2.528 2.208.619.917.928 1.973.928 3.168 0 1.258-.298 2.261-.896 3.008a9.373 9.373 0 0 1-1.984 1.824v.256a6.23 6.23 0 0 1 2.592 2.048c.683.917 1.024 2.133 1.024 3.648 0 1.28-.32 2.453-.96 3.52-.64 1.045-1.557 1.888-2.752 2.528-1.173.618-2.57.928-4.192.928Zm19.572 0c-1.344 0-2.592-.246-3.744-.736a6.73 6.73 0 0 1-2.848-2.272c-.726-1.024-1.163-2.315-1.312-3.872l4.192-.544c.106 1.024.469 1.877 1.088 2.56.64.661 1.514.992 2.624.992 1.152 0 2.058-.352 2.72-1.056.682-.704 1.024-1.675 1.024-2.912 0-1.238-.331-2.208-.992-2.912-.64-.704-1.547-1.056-2.72-1.056-.662 0-1.27.149-1.824.448-.555.277-1.003.629-1.344 1.056l-4.064-1.76 1.376-11.36h12.672v3.648h-9.312l-.832 5.376.256.096c.426-.363.97-.662 1.632-.896a6.258 6.258 0 0 1 2.112-.352c1.408 0 2.656.309 3.744.928 1.088.597 1.941 1.472 2.56 2.624.618 1.152.928 2.538.928 4.16 0 1.578-.342 2.965-1.024 4.16a6.847 6.847 0 0 1-2.784 2.72c-1.195.64-2.571.96-4.128.96Zm15.891-.512v-12.768h-4.32v-3.552h4.32v-.512c0-2.219.619-3.947 1.856-5.184 1.259-1.238 2.955-1.856 5.088-1.856.939 0 1.782.106 2.528.32.747.192 1.376.458 1.888.8l-1.472 3.552c-.725-.534-1.642-.8-2.752-.8-.938 0-1.674.288-2.208.864-.512.554-.768 1.269-.768 2.144v.672h5.568v3.552h-5.568v12.768h-4.16ZM302.772 375.296c-1.216 0-2.219-.224-3.008-.672-.79-.47-1.408-1.035-1.856-1.696h-.256v1.856h-3.904v-22.912h4.16v6.048l-.256 2.432h.256c.362-.619.96-1.174 1.792-1.664.832-.491 1.856-.736 3.072-.736 1.365 0 2.592.341 3.68 1.024 1.109.661 1.984 1.642 2.624 2.944.64 1.28.96 2.848.96 4.704 0 1.856-.32 3.434-.96 4.736-.64 1.28-1.515 2.261-2.624 2.944-1.088.661-2.315.992-3.68.992Zm-1.024-3.904c1.152 0 2.122-.406 2.912-1.216.81-.832 1.216-2.016 1.216-3.552s-.395-2.72-1.184-3.552c-.79-.832-1.771-1.248-2.944-1.248-1.152 0-2.123.416-2.912 1.248-.79.832-1.184 2.016-1.184 3.552s.394 2.72 1.184 3.552c.789.81 1.76 1.216 2.912 1.216Zm19.219 3.904c-1.6 0-2.976-.31-4.128-.928-1.152-.619-2.037-1.451-2.656-2.496a6.788 6.788 0 0 1-.896-3.424c0-1.408.331-2.582.992-3.52.662-.96 1.462-1.675 2.4-2.144v-.256c-.746-.491-1.397-1.142-1.952-1.952-.533-.811-.8-1.771-.8-2.88 0-1.174.288-2.23.864-3.168.598-.96 1.419-1.728 2.464-2.304 1.067-.576 2.304-.864 3.712-.864 1.408 0 2.635.288 3.68.864 1.067.576 1.888 1.344 2.464 2.304.598.938.896 1.994.896 3.168 0 1.109-.277 2.069-.832 2.88-.533.81-1.173 1.461-1.92 1.952v.256c.939.469 1.739 1.184 2.4 2.144.662.938.992 2.112.992 3.52a6.6 6.6 0 0 1-.928 3.424c-.618 1.045-1.504 1.877-2.656 2.496-1.13.618-2.496.928-4.096.928Zm0-14.368c.918 0 1.643-.288 2.176-.864a2.91 2.91 0 0 0 .8-2.048c0-.811-.266-1.504-.8-2.08-.533-.576-1.258-.864-2.176-.864-.917 0-1.642.288-2.176.864-.533.576-.8 1.269-.8 2.08 0 .789.267 1.472.8 2.048.534.576 1.259.864 2.176.864Zm0 10.496c1.067 0 1.91-.32 2.528-.96.64-.64.96-1.451.96-2.432 0-.982-.32-1.792-.96-2.432-.618-.64-1.461-.96-2.528-.96-1.045 0-1.888.32-2.528.96-.64.64-.96 1.45-.96 2.432 0 .981.32 1.792.96 2.432.64.64 1.483.96 2.528.96Zm19.028 3.872c-2.091 0-3.862-.566-5.312-1.696-1.451-1.152-2.315-2.827-2.592-5.024l4.128-.832c.17 1.109.576 1.973 1.216 2.592.661.618 1.514.928 2.56.928 1.13 0 2.026-.299 2.688-.896.661-.598.992-1.419.992-2.464 0-1.088-.363-1.91-1.088-2.464-.704-.576-1.686-.864-2.944-.864h-1.824v-3.648h1.696c1.002 0 1.845-.235 2.528-.704.682-.47 1.024-1.216 1.024-2.24 0-.875-.288-1.568-.864-2.08-.576-.512-1.344-.768-2.304-.768-.896 0-1.643.266-2.24.8a3.493 3.493 0 0 0-1.088 1.92l-4.032-.448a7.476 7.476 0 0 1 1.216-3.04c.618-.918 1.45-1.643 2.496-2.176 1.045-.555 2.282-.832 3.712-.832 1.429 0 2.677.266 3.744.8 1.088.533 1.93 1.269 2.528 2.208.618.917.928 1.973.928 3.168 0 1.258-.299 2.261-.896 3.008a9.422 9.422 0 0 1-1.984 1.824v.256a6.243 6.243 0 0 1 2.592 2.048c.682.917 1.024 2.133 1.024 3.648 0 1.28-.32 2.453-.96 3.52-.64 1.045-1.558 1.888-2.752 2.528-1.174.618-2.571.928-4.192.928Zm18.227 0a7 7 0 0 1-3.648-.992c-1.088-.662-1.962-1.632-2.624-2.912-.64-1.302-.96-2.891-.96-4.768 0-1.899.331-3.488.992-4.768.683-1.302 1.568-2.272 2.656-2.912a6.932 6.932 0 0 1 3.616-.992c1.216 0 2.23.224 3.04.672.811.448 1.419 1.024 1.824 1.728h.256v-1.888h3.904v16.32h-3.904v-1.856h-.256c-.448.64-1.077 1.194-1.888 1.664-.81.469-1.813.704-3.008.704Zm1.024-3.904c1.174 0 2.155-.395 2.944-1.184.79-.79 1.184-1.984 1.184-3.584s-.394-2.795-1.184-3.584c-.789-.811-1.77-1.216-2.944-1.216-1.152 0-2.122.405-2.912 1.216-.789.789-1.184 1.984-1.184 3.584s.395 2.794 1.184 3.584c.79.789 1.76 1.184 2.912 1.184Zm16.212 3.392v-12.768h-4.32v-3.552h4.32v-.512c0-2.219.618-3.947 1.856-5.184 1.258-1.238 2.954-1.856 5.088-1.856.938 0 1.781.106 2.528.32.746.192 1.376.458 1.888.8l-1.472 3.552c-.726-.534-1.643-.8-2.752-.8-.939 0-1.675.288-2.208.864-.512.554-.768 1.269-.768 2.144v.672h5.568v3.552h-5.568v12.768h-4.16Zm21.139.512a7 7 0 0 1-3.648-.992c-1.088-.662-1.962-1.632-2.624-2.912-.64-1.302-.96-2.891-.96-4.768 0-1.899.331-3.488.992-4.768.683-1.302 1.568-2.272 2.656-2.912a6.932 6.932 0 0 1 3.616-.992c1.216 0 2.23.224 3.04.672.811.448 1.419 1.024 1.824 1.728h.256l-.256-2.432v-6.048h4.16v22.912h-3.904v-1.856h-.256c-.448.64-1.077 1.194-1.888 1.664-.81.469-1.813.704-3.008.704Zm1.024-3.904c1.174 0 2.155-.395 2.944-1.184.79-.79 1.184-1.984 1.184-3.584s-.394-2.795-1.184-3.584c-.789-.811-1.77-1.216-2.944-1.216-1.152 0-2.122.405-2.912 1.216-.789.789-1.184 1.984-1.184 3.584s.395 2.794 1.184 3.584c.79.789 1.76 1.184 2.912 1.184ZM299.956 478.296c-1.878 0-3.307-.576-4.288-1.728-.96-1.152-1.44-2.731-1.44-4.736v-10.368h4.16v9.792c0 1.002.245 1.781.736 2.336.49.533 1.184.8 2.08.8 1.109 0 1.984-.406 2.624-1.216.64-.811.96-1.835.96-3.072v-8.64h4.16v16.32h-3.904V475.8h-.256c-.47.768-1.131 1.376-1.984 1.824-.854.448-1.803.672-2.848.672Zm22.643-.512v-4.16h-10.272v-3.36l9.92-15.392h4.48v14.848h2.912v3.904h-2.912v4.16h-4.128Zm-5.728-8.064h5.728v-8.48h-.256l-5.472 8.48Zm19.476 8.064c0-2.71.298-5.216.896-7.52.618-2.326 1.44-4.427 2.464-6.304 1.024-1.878 2.144-3.52 3.36-4.928l-.16-.256h-10.624v-3.904h15.616v4.096a18.187 18.187 0 0 0-4.192 5.536 25.705 25.705 0 0 0-2.144 6.528 36.655 36.655 0 0 0-.64 6.752h-4.576Zm21.875.512a7 7 0 0 1-3.648-.992c-1.088-.662-1.962-1.632-2.624-2.912-.64-1.302-.96-2.891-.96-4.768 0-1.899.331-3.488.992-4.768.683-1.302 1.568-2.272 2.656-2.912a6.932 6.932 0 0 1 3.616-.992c1.216 0 2.23.224 3.04.672.811.448 1.419 1.024 1.824 1.728h.256v-1.888h3.904v16.32h-3.904v-1.856h-.256c-.448.64-1.077 1.194-1.888 1.664-.81.469-1.813.704-3.008.704Zm1.024-3.904c1.174 0 2.155-.395 2.944-1.184.79-.79 1.184-1.984 1.184-3.584s-.394-2.795-1.184-3.584c-.789-.811-1.77-1.216-2.944-1.216-1.152 0-2.122.405-2.912 1.216-.789.789-1.184 1.984-1.184 3.584s.395 2.794 1.184 3.584c.79.789 1.76 1.184 2.912 1.184Zm16.212 3.392v-12.768h-4.32v-3.552h4.32v-.512c0-2.219.618-3.947 1.856-5.184 1.258-1.238 2.954-1.856 5.088-1.856.938 0 1.781.106 2.528.32.746.192 1.376.458 1.888.8l-1.472 3.552c-.726-.534-1.643-.8-2.752-.8-.939 0-1.675.288-2.208.864-.512.554-.768 1.269-.768 2.144v.672h5.568v3.552h-5.568v12.768h-4.16Zm24.563-18.88c-.853 0-1.578-.288-2.176-.864-.576-.598-.864-1.323-.864-2.176 0-.854.288-1.568.864-2.144a2.962 2.962 0 0 1 2.176-.896c.854 0 1.568.298 2.144.896.598.576.896 1.29.896 2.144 0 .853-.298 1.578-.896 2.176-.576.576-1.29.864-2.144.864Zm-4.224 26.112c-1.194 0-2.218-.118-3.072-.352a9.29 9.29 0 0 1-2.304-.896l1.632-3.712c.448.298.96.554 1.536.768a4.8 4.8 0 0 0 1.824.352c.811 0 1.43-.235 1.856-.704.427-.47.64-1.12.64-1.952v-13.28h-6.016v-3.776h10.208v16.832c0 2.069-.565 3.701-1.696 4.896-1.13 1.216-2.666 1.824-4.608 1.824ZM301.78 560.904c-.854 0-1.579-.288-2.176-.864-.576-.598-.864-1.323-.864-2.176 0-.854.288-1.568.864-2.144.597-.598 1.322-.896 2.176-.896.853 0 1.568.298 2.144.896.597.576.896 1.29.896 2.144 0 .853-.299 1.578-.896 2.176-.576.576-1.291.864-2.144.864Zm-7.616 18.88v-3.776h5.504v-8.768h-4.544v-3.776h8.736v12.544h5.536v3.776h-15.232Zm22.995 0c0-2.71.299-5.216.896-7.52.619-2.326 1.44-4.427 2.464-6.304 1.024-1.878 2.144-3.52 3.36-4.928l-.16-.256h-10.624v-3.904h15.616v4.096a18.203 18.203 0 0 0-4.192 5.536 25.784 25.784 0 0 0-2.144 6.528 36.742 36.742 0 0 0-.64 6.752h-4.576Zm20.916.512-2.112-3.264a17.783 17.783 0 0 0 4.768-3.136 11.476 11.476 0 0 0 3.04-4.544l-.192-.16c-.406.597-1.024 1.066-1.856 1.408-.811.32-1.611.48-2.4.48-1.408 0-2.656-.299-3.744-.896a6.784 6.784 0 0 1-2.592-2.496c-.619-1.088-.928-2.358-.928-3.808 0-1.451.362-2.742 1.088-3.872a7.574 7.574 0 0 1 2.88-2.688 7.92 7.92 0 0 1 3.904-.992c1.322 0 2.517.234 3.584.704a6.923 6.923 0 0 1 2.688 1.984c.661.768 1.162 1.685 1.504 2.752.362 1.066.544 2.261.544 3.584 0 2.901-.726 5.557-2.176 7.968-.854 1.45-1.952 2.773-3.296 3.968-1.344 1.194-2.912 2.197-4.704 3.008Zm1.856-12.736c1.045 0 1.92-.32 2.624-.96.725-.662 1.088-1.568 1.088-2.72 0-1.152-.363-2.059-1.088-2.72-.704-.662-1.579-.992-2.624-.992-1.046 0-1.931.33-2.656.992-.704.661-1.056 1.568-1.056 2.72 0 1.152.352 2.058 1.056 2.72.725.64 1.61.96 2.656.96Zm18.291 12.736a7 7 0 0 1-3.648-.992c-1.088-.662-1.962-1.632-2.624-2.912-.64-1.302-.96-2.891-.96-4.768 0-1.899.331-3.488.992-4.768.683-1.302 1.568-2.272 2.656-2.912a6.932 6.932 0 0 1 3.616-.992c1.216 0 2.23.224 3.04.672.811.448 1.419 1.024 1.824 1.728h.256v-1.888h3.904v16.32h-3.904v-1.856h-.256c-.448.64-1.077 1.194-1.888 1.664-.81.469-1.813.704-3.008.704Zm1.024-3.904c1.174 0 2.155-.395 2.944-1.184.79-.79 1.184-1.984 1.184-3.584s-.394-2.795-1.184-3.584c-.789-.811-1.77-1.216-2.944-1.216-1.152 0-2.122.405-2.912 1.216-.789.789-1.184 1.984-1.184 3.584s.395 2.794 1.184 3.584c.79.789 1.76 1.184 2.912 1.184Zm19.124 3.904c-2.091 0-3.862-.566-5.312-1.696-1.451-1.152-2.315-2.827-2.592-5.024l4.128-.832c.17 1.109.576 1.973 1.216 2.592.661.618 1.514.928 2.56.928 1.13 0 2.026-.299 2.688-.896.661-.598.992-1.419.992-2.464 0-1.088-.363-1.91-1.088-2.464-.704-.576-1.686-.864-2.944-.864h-1.824v-3.648h1.696c1.002 0 1.845-.235 2.528-.704.682-.47 1.024-1.216 1.024-2.24 0-.875-.288-1.568-.864-2.08-.576-.512-1.344-.768-2.304-.768-.896 0-1.643.266-2.24.8a3.493 3.493 0 0 0-1.088 1.92l-4.032-.448a7.476 7.476 0 0 1 1.216-3.04c.618-.918 1.45-1.643 2.496-2.176 1.045-.555 2.282-.832 3.712-.832 1.429 0 2.677.266 3.744.8 1.088.533 1.93 1.269 2.528 2.208.618.917.928 1.973.928 3.168 0 1.258-.299 2.261-.896 3.008a9.422 9.422 0 0 1-1.984 1.824v.256a6.243 6.243 0 0 1 2.592 2.048c.682.917 1.024 2.133 1.024 3.648 0 1.28-.32 2.453-.96 3.52-.64 1.045-1.558 1.888-2.752 2.528-1.174.618-2.571.928-4.192.928Zm21.651-19.392c-.853 0-1.578-.288-2.176-.864-.576-.598-.864-1.323-.864-2.176 0-.854.288-1.568.864-2.144a2.962 2.962 0 0 1 2.176-.896c.854 0 1.568.298 2.144.896.598.576.896 1.29.896 2.144 0 .853-.298 1.578-.896 2.176-.576.576-1.29.864-2.144.864Zm-4.224 26.112c-1.194 0-2.218-.118-3.072-.352a9.29 9.29 0 0 1-2.304-.896l1.632-3.712c.448.298.96.554 1.536.768a4.8 4.8 0 0 0 1.824.352c.811 0 1.43-.235 1.856-.704.427-.47.64-1.12.64-1.952v-13.28h-6.016v-3.776h10.208v16.832c0 2.069-.565 3.701-1.696 4.896-1.13 1.216-2.666 1.824-4.608 1.824ZM300.66 682.181a6.994 6.994 0 0 1-3.648-.992c-1.088-.661-1.963-1.632-2.624-2.912-.64-1.301-.96-2.891-.96-4.768 0-1.899.33-3.488.992-4.768.682-1.301 1.568-2.272 2.656-2.912a6.936 6.936 0 0 1 3.616-.992c1.216 0 2.229.224 3.04.672.81.448 1.418 1.024 1.824 1.728h.256v-1.888h3.904v16.32h-3.904v-1.856h-.256c-.448.64-1.078 1.195-1.888 1.664-.811.469-1.814.704-3.008.704Zm1.024-3.904c1.173 0 2.154-.395 2.944-1.184.789-.789 1.184-1.984 1.184-3.584s-.395-2.795-1.184-3.584c-.79-.811-1.771-1.216-2.944-1.216-1.152 0-2.123.405-2.912 1.216-.79.789-1.184 1.984-1.184 3.584s.394 2.795 1.184 3.584c.789.789 1.76 1.184 2.912 1.184Zm19.123 3.904c-2.09 0-3.861-.565-5.312-1.696-1.45-1.152-2.314-2.827-2.592-5.024l4.128-.832c.171 1.109.576 1.973 1.216 2.592.662.619 1.515.928 2.56.928 1.131 0 2.027-.299 2.688-.896.662-.597.992-1.419.992-2.464 0-1.088-.362-1.909-1.088-2.464-.704-.576-1.685-.864-2.944-.864h-1.824v-3.648h1.696c1.003 0 1.846-.235 2.528-.704.683-.469 1.024-1.216 1.024-2.24 0-.875-.288-1.568-.864-2.08-.576-.512-1.344-.768-2.304-.768-.896 0-1.642.267-2.24.8a3.499 3.499 0 0 0-1.088 1.92l-4.032-.448a7.49 7.49 0 0 1 1.216-3.04c.619-.917 1.451-1.643 2.496-2.176 1.046-.555 2.283-.832 3.712-.832 1.43 0 2.678.267 3.744.8 1.088.533 1.931 1.269 2.528 2.208.619.917.928 1.973.928 3.168 0 1.259-.298 2.261-.896 3.008a9.373 9.373 0 0 1-1.984 1.824v.256a6.239 6.239 0 0 1 2.592 2.048c.683.917 1.024 2.133 1.024 3.648 0 1.28-.32 2.453-.96 3.52-.64 1.045-1.557 1.888-2.752 2.528-1.173.619-2.57.928-4.192.928Zm19.188 0c-2.091 0-3.862-.565-5.312-1.696-1.451-1.152-2.315-2.827-2.592-5.024l4.128-.832c.17 1.109.576 1.973 1.216 2.592.661.619 1.514.928 2.56.928 1.13 0 2.026-.299 2.688-.896.661-.597.992-1.419.992-2.464 0-1.088-.363-1.909-1.088-2.464-.704-.576-1.686-.864-2.944-.864h-1.824v-3.648h1.696c1.002 0 1.845-.235 2.528-.704.682-.469 1.024-1.216 1.024-2.24 0-.875-.288-1.568-.864-2.08-.576-.512-1.344-.768-2.304-.768-.896 0-1.643.267-2.24.8a3.493 3.493 0 0 0-1.088 1.92l-4.032-.448a7.476 7.476 0 0 1 1.216-3.04c.618-.917 1.45-1.643 2.496-2.176 1.045-.555 2.282-.832 3.712-.832 1.429 0 2.677.267 3.744.8 1.088.533 1.93 1.269 2.528 2.208.618.917.928 1.973.928 3.168 0 1.259-.299 2.261-.896 3.008a9.422 9.422 0 0 1-1.984 1.824v.256a6.251 6.251 0 0 1 2.592 2.048c.682.917 1.024 2.133 1.024 3.648 0 1.28-.32 2.453-.96 3.52-.64 1.045-1.558 1.888-2.752 2.528-1.174.619-2.571.928-4.192.928Zm19.571 0c-1.344 0-2.592-.245-3.744-.736a6.737 6.737 0 0 1-2.848-2.272c-.725-1.024-1.162-2.315-1.312-3.872l4.192-.544c.107 1.024.47 1.877 1.088 2.56.64.661 1.515.992 2.624.992 1.152 0 2.059-.352 2.72-1.056.683-.704 1.024-1.675 1.024-2.912 0-1.237-.33-2.208-.992-2.912-.64-.704-1.546-1.056-2.72-1.056-.661 0-1.269.149-1.824.448a3.955 3.955 0 0 0-1.344 1.056l-4.064-1.76 1.376-11.36h12.672v3.648h-9.312l-.832 5.376.256.096c.427-.363.971-.661 1.632-.896a6.266 6.266 0 0 1 2.112-.352c1.408 0 2.656.309 3.744.928 1.088.597 1.942 1.472 2.56 2.624.619 1.152.928 2.539.928 4.16 0 1.579-.341 2.965-1.024 4.16a6.835 6.835 0 0 1-2.784 2.72c-1.194.64-2.57.96-4.128.96Zm11.54-.512v-22.912h4.16v12.352h.224l5.664-5.76h5.12v.256l-6.176 6.208 5.92 9.6v.256h-4.608l-4.32-6.88-1.824 1.856v5.024h-4.16Zm28.915-18.88c-.853 0-1.578-.288-2.176-.864-.576-.597-.864-1.323-.864-2.176 0-.853.288-1.568.864-2.144a2.965 2.965 0 0 1 2.176-.896c.854 0 1.568.299 2.144.896.598.576.896 1.291.896 2.144 0 .853-.298 1.579-.896 2.176-.576.576-1.29.864-2.144.864Zm-4.224 26.112c-1.194 0-2.218-.117-3.072-.352a9.252 9.252 0 0 1-2.304-.896l1.632-3.712c.448.299.96.555 1.536.768a4.782 4.782 0 0 0 1.824.352c.811 0 1.43-.235 1.856-.704.427-.469.64-1.12.64-1.952v-13.28h-6.016v-3.776h10.208v16.832c0 2.069-.565 3.701-1.696 4.896-1.13 1.216-2.666 1.824-4.608 1.824ZM294.228 784.784v-22.912h4.16v6.048l-.256 2.72h.256c.426-.811 1.098-1.462 2.016-1.952a6.207 6.207 0 0 1 2.976-.736c2.048 0 3.573.586 4.576 1.76 1.002 1.152 1.504 2.72 1.504 4.704v10.368h-4.16v-9.792c0-1.024-.267-1.803-.8-2.336-.534-.555-1.291-.832-2.272-.832-1.152 0-2.08.426-2.784 1.28-.704.832-1.056 1.909-1.056 3.232v8.448h-4.16Zm26.739.512c-1.6 0-2.976-.31-4.128-.928-1.152-.619-2.037-1.451-2.656-2.496a6.788 6.788 0 0 1-.896-3.424c0-1.408.331-2.582.992-3.52.662-.96 1.462-1.675 2.4-2.144v-.256c-.746-.491-1.397-1.142-1.952-1.952-.533-.811-.8-1.771-.8-2.88 0-1.174.288-2.23.864-3.168.598-.96 1.419-1.728 2.464-2.304 1.067-.576 2.304-.864 3.712-.864 1.408 0 2.635.288 3.68.864 1.067.576 1.888 1.344 2.464 2.304.598.938.896 1.994.896 3.168 0 1.109-.277 2.069-.832 2.88-.533.81-1.173 1.461-1.92 1.952v.256c.939.469 1.739 1.184 2.4 2.144.662.938.992 2.112.992 3.52a6.6 6.6 0 0 1-.928 3.424c-.618 1.045-1.504 1.877-2.656 2.496-1.13.618-2.496.928-4.096.928Zm0-14.368c.918 0 1.643-.288 2.176-.864a2.91 2.91 0 0 0 .8-2.048c0-.811-.266-1.504-.8-2.08-.533-.576-1.258-.864-2.176-.864-.917 0-1.642.288-2.176.864-.533.576-.8 1.269-.8 2.08 0 .789.267 1.472.8 2.048.534.576 1.259.864 2.176.864Zm0 10.496c1.067 0 1.91-.32 2.528-.96.64-.64.96-1.451.96-2.432 0-.982-.32-1.792-.96-2.432-.618-.64-1.461-.96-2.528-.96-1.045 0-1.888.32-2.528.96-.64.64-.96 1.45-.96 2.432 0 .981.32 1.792.96 2.432.64.64 1.483.96 2.528.96Zm20.82 3.36v-4.16h-10.272v-3.36l9.92-15.392h4.48v14.848h2.912v3.904h-2.912v4.16h-4.128Zm-5.728-8.064h5.728v-8.48h-.256l-5.472 8.48Zm15.859 8.064v-22.912h4.16v12.352h.224l5.664-5.76h5.12v.256l-6.176 6.208 5.92 9.6v.256h-4.608l-4.32-6.88-1.824 1.856v5.024h-4.16Zm25.492.512a6.994 6.994 0 0 1-3.648-.992c-1.088-.662-1.963-1.632-2.624-2.912-.64-1.302-.96-2.891-.96-4.768 0-1.899.33-3.488.992-4.768.682-1.302 1.568-2.272 2.656-2.912a6.926 6.926 0 0 1 3.616-.992c1.216 0 2.229.224 3.04.672.81.448 1.418 1.024 1.824 1.728h.256v-1.888h3.904v16.32h-3.904v-1.856h-.256c-.448.64-1.078 1.194-1.888 1.664-.811.469-1.814.704-3.008.704Zm1.024-3.904c1.173 0 2.154-.395 2.944-1.184.789-.79 1.184-1.984 1.184-3.584s-.395-2.795-1.184-3.584c-.79-.811-1.771-1.216-2.944-1.216-1.152 0-2.123.405-2.912 1.216-.79.789-1.184 1.984-1.184 3.584s.394 2.794 1.184 3.584c.789.789 1.76 1.184 2.912 1.184Zm18.163 3.904a7 7 0 0 1-3.648-.992c-1.088-.662-1.962-1.632-2.624-2.912-.64-1.302-.96-2.891-.96-4.768 0-1.899.331-3.488.992-4.768.683-1.302 1.568-2.272 2.656-2.912a6.932 6.932 0 0 1 3.616-.992c1.216 0 2.23.224 3.04.672.811.448 1.419 1.024 1.824 1.728h.256l-.256-2.432v-6.048h4.16v22.912h-3.904v-1.856h-.256c-.448.64-1.077 1.194-1.888 1.664-.81.469-1.813.704-3.008.704Zm1.024-3.904c1.174 0 2.155-.395 2.944-1.184.79-.79 1.184-1.984 1.184-3.584s-.394-2.795-1.184-3.584c-.789-.811-1.77-1.216-2.944-1.216-1.152 0-2.122.405-2.912 1.216-.789.789-1.184 1.984-1.184 3.584s.395 2.794 1.184 3.584c.79.789 1.76 1.184 2.912 1.184ZM299.668 885.554l-6.848-16.32h4.704l4.128 10.528h.256l4.128-10.528h4.64l-6.912 16.32h-4.096Zm22.931 0v-4.16h-10.272v-3.36l9.92-15.392h4.48v14.848h2.912v3.904h-2.912v4.16h-4.128Zm-5.728-8.064h5.728v-8.48h-.256l-5.472 8.48Zm27.06 14.976v-6.368l.256-2.432h-.256c-.406.661-1.035 1.226-1.888 1.696-.832.469-1.846.704-3.04.704-1.344 0-2.56-.331-3.648-.992-1.088-.662-1.952-1.632-2.592-2.912-.64-1.302-.96-2.891-.96-4.768 0-1.899.32-3.488.96-4.768.64-1.302 1.504-2.272 2.592-2.912 1.109-.662 2.346-.992 3.712-.992 1.194 0 2.197.245 3.008.736.81.469 1.429 1.013 1.856 1.632h.256v-1.856h3.904v23.232h-4.16Zm-3.872-10.304c1.173 0 2.154-.384 2.944-1.152.789-.79 1.184-1.995 1.184-3.616 0-1.622-.395-2.827-1.184-3.616-.79-.79-1.771-1.184-2.944-1.184-1.152 0-2.123.394-2.912 1.184-.79.789-1.184 1.994-1.184 3.616 0 1.621.394 2.826 1.184 3.616.789.768 1.76 1.152 2.912 1.152Zm17.459 3.904c-1.877 0-3.306-.576-4.288-1.728-.96-1.152-1.44-2.731-1.44-4.736v-10.368h4.16v9.792c0 1.002.246 1.781.736 2.336.491.533 1.184.8 2.08.8 1.11 0 1.984-.406 2.624-1.216.64-.811.96-1.835.96-3.072v-8.64h4.16v16.32h-3.904v-1.984h-.256c-.469.768-1.13 1.376-1.984 1.824-.853.448-1.802.672-2.848.672Zm23.316-19.392c-.854 0-1.579-.288-2.176-.864-.576-.598-.864-1.323-.864-2.176 0-.854.288-1.568.864-2.144.597-.598 1.322-.896 2.176-.896.853 0 1.568.298 2.144.896.597.576.896 1.29.896 2.144 0 .853-.299 1.578-.896 2.176-.576.576-1.291.864-2.144.864Zm-4.224 26.112c-1.195 0-2.219-.118-3.072-.352a9.26 9.26 0 0 1-2.304-.896l1.632-3.712c.448.298.96.554 1.536.768a4.8 4.8 0 0 0 1.824.352c.81 0 1.429-.235 1.856-.704.426-.47.64-1.12.64-1.952v-13.28h-6.016v-3.776h10.208v16.832c0 2.069-.566 3.701-1.696 4.896-1.131 1.216-2.667 1.824-4.608 1.824Zm19.987-6.72a7 7 0 0 1-3.648-.992c-1.088-.662-1.962-1.632-2.624-2.912-.64-1.302-.96-2.891-.96-4.768 0-1.899.331-3.488.992-4.768.683-1.302 1.568-2.272 2.656-2.912a6.932 6.932 0 0 1 3.616-.992c1.216 0 2.23.224 3.04.672.811.448 1.419 1.024 1.824 1.728h.256v-1.888h3.904v16.32h-3.904v-1.856h-.256c-.448.64-1.077 1.194-1.888 1.664-.81.469-1.813.704-3.008.704Zm1.024-3.904c1.174 0 2.155-.395 2.944-1.184.79-.79 1.184-1.984 1.184-3.584s-.394-2.795-1.184-3.584c-.789-.811-1.77-1.216-2.944-1.216-1.152 0-2.122.405-2.912 1.216-.789.789-1.184 1.984-1.184 3.584s.395 2.794 1.184 3.584c.79.789 1.76 1.184 2.912 1.184Z" fill="#000"/><path opacity=".4" fill="#FFD557" d="M1.41 511.818h502.18V721.48H1.41z"/><path d="M20.354 63.773c-5.376 0-9.6-2.048-12.672-6.144-3.072-4.096-4.608-10.026-4.608-17.791 0-5.206.704-9.58 2.112-13.12 1.45-3.542 3.477-6.23 6.08-8.064 2.602-1.835 5.675-2.752 9.216-2.752 4.48 0 8.213 1.3 11.2 3.903 3.03 2.56 4.757 6.294 5.184 11.2l-6.784 1.152c-.341-2.943-1.302-5.269-2.88-6.975-1.579-1.75-3.819-2.624-6.72-2.624-2.987 0-5.461 1.386-7.424 4.16-1.963 2.73-2.944 7.104-2.944 13.12 0 6.015.981 10.41 2.944 13.184 1.963 2.73 4.437 4.096 7.424 4.096 2.73 0 4.928-.854 6.592-2.56 1.706-1.75 2.773-4.14 3.2-7.169l6.656.832c-.597 4.822-2.304 8.62-5.12 11.393-2.816 2.773-6.635 4.16-11.456 4.16Zm38.31 0c-3.327 0-6.229-.725-8.703-2.176-2.432-1.493-4.31-3.54-5.632-6.144-1.323-2.645-1.984-5.653-1.984-9.024 0-3.413.661-6.42 1.984-9.023 1.322-2.603 3.2-4.63 5.632-6.08 2.474-1.494 5.376-2.24 8.704-2.24 3.328 0 6.208.746 8.64 2.24 2.474 1.45 4.373 3.477 5.696 6.08 1.322 2.602 1.984 5.61 1.984 9.023 0 3.414-.662 6.422-1.984 9.024-1.323 2.603-3.222 4.651-5.696 6.144-2.432 1.451-5.312 2.176-8.64 2.176Zm0-6.336c2.774 0 5.057-.938 6.849-2.816 1.792-1.92 2.688-4.65 2.688-8.192 0-3.54-.896-6.25-2.688-8.128-1.792-1.92-4.075-2.88-6.848-2.88-2.773 0-5.056.96-6.848 2.88-1.792 1.878-2.688 4.587-2.688 8.128 0 3.542.896 6.273 2.688 8.192 1.792 1.878 4.075 2.816 6.848 2.816Zm38.504 6.337c-4.267 0-7.552-.94-9.856-2.816-2.304-1.878-3.797-4.352-4.48-7.425l6.592-1.215c.384 1.578 1.194 2.88 2.432 3.904 1.28.98 3.05 1.471 5.312 1.471 1.92 0 3.541-.34 4.864-1.023 1.365-.726 2.048-1.771 2.048-3.137 0-1.322-.576-2.346-1.728-3.072-1.109-.725-2.752-1.3-4.928-1.727l-3.968-.705c-2.73-.469-4.97-1.472-6.72-3.008-1.75-1.535-2.624-3.648-2.624-6.336 0-1.877.555-3.52 1.664-4.928 1.11-1.45 2.603-2.58 4.48-3.391 1.92-.854 4.096-1.28 6.528-1.28 3.584 0 6.507.725 8.768 2.176 2.304 1.45 3.755 3.733 4.352 6.847l-6.08 1.088c-.512-1.62-1.387-2.752-2.624-3.392-1.237-.682-2.688-1.023-4.352-1.023-1.707 0-3.157.362-4.352 1.088-1.195.682-1.792 1.557-1.792 2.623 0 1.152.47 2.07 1.408 2.752.981.64 2.39 1.131 4.224 1.473l4.736.831c3.2.555 5.632 1.58 7.296 3.072 1.664 1.451 2.496 3.691 2.496 6.72 0 2.091-.597 3.926-1.792 5.505-1.195 1.578-2.837 2.794-4.928 3.648-2.091.853-4.416 1.28-6.976 1.28Zm44.135-.065c-3.371 0-6.08-.98-8.128-2.944-2.048-2.005-3.072-4.864-3.072-8.575V36.062h-7.488V30.11h7.488v-8.96h6.848v8.96h11.968v5.952h-11.968V51.55c0 1.834.469 3.264 1.408 4.288.939.98 2.347 1.471 4.224 1.471 1.621 0 3.2-.426 4.736-1.28l1.984 5.76a13.384 13.384 0 0 1-3.456 1.408c-1.152.342-2.667.512-4.544.512Zm56.59-.96v-6.4h10.816V23.326h-10.304v-6.4h27.52v6.4h-10.24v33.023h10.752v6.4h-28.544Zm38.887 0V30.11h6.464v4.096h.384c.853-1.535 2.155-2.773 3.904-3.711 1.792-.94 3.755-1.409 5.888-1.409 3.669 0 6.507 1.11 8.512 3.328 2.005 2.22 3.008 5.27 3.008 9.153v21.183h-6.784V42.462c0-2.389-.619-4.16-1.856-5.311-1.237-1.152-2.837-1.728-4.8-1.728-2.389 0-4.309.874-5.76 2.623-1.408 1.75-2.112 3.84-2.112 6.273v18.431h-6.848Zm50.663 1.024c-2.816 0-5.312-.682-7.488-2.048-2.176-1.407-3.904-3.413-5.184-6.016-1.237-2.602-1.856-5.696-1.856-9.28 0-3.626.64-6.72 1.92-9.28 1.28-2.602 3.029-4.586 5.248-5.951 2.219-1.409 4.715-2.113 7.488-2.113 2.475 0 4.544.491 6.208 1.473 1.664.938 2.901 2.154 3.712 3.648h.384l-.384-4.673V16.925h6.784V62.75h-6.4v-4.096h-.384c-.896 1.322-2.176 2.517-3.84 3.583-1.621 1.024-3.691 1.536-6.208 1.536Zm1.344-6.336c2.603 0 4.757-.938 6.464-2.816 1.749-1.877 2.624-4.608 2.624-8.192 0-3.584-.875-6.314-2.624-8.192-1.707-1.877-3.861-2.816-6.464-2.816s-4.779.94-6.528 2.816c-1.707 1.878-2.56 4.608-2.56 8.192 0 3.584.853 6.315 2.56 8.192 1.749 1.878 3.925 2.816 6.528 2.816Zm38.951 6.337c-3.285 0-6.123-.726-8.512-2.177-2.347-1.45-4.181-3.477-5.504-6.08-1.28-2.602-1.92-5.61-1.92-9.024 0-3.456.661-6.485 1.984-9.087 1.365-2.646 3.243-4.694 5.632-6.144 2.432-1.451 5.205-2.177 8.32-2.177 4.907 0 8.64 1.409 11.2 4.224 2.56 2.774 3.84 6.55 3.84 11.329 0 1.151-.064 2.24-.192 3.264h-24.128c.213 3.157 1.173 5.567 2.88 7.231 1.749 1.664 3.968 2.496 6.656 2.496 2.176 0 3.904-.49 5.184-1.471 1.28-1.025 2.197-2.283 2.752-3.776l5.952 1.6c-.896 2.944-2.539 5.312-4.928 7.104-2.347 1.791-5.419 2.688-9.216 2.688Zm0-28.928c-2.261 0-4.181.66-5.76 1.984-1.579 1.322-2.645 3.306-3.2 5.952h17.28c-.128-2.39-.896-4.31-2.304-5.76-1.408-1.451-3.413-2.176-6.016-2.176Zm22.055 27.904 11.776-16.577-11.712-16.064h8l7.744 10.816h.192l7.424-10.815h8.256l-11.904 16.063 11.904 16.576h-7.936l-7.872-11.2h-.128l-7.872 11.2h-7.872Z" fill="#fff"/><path d="m555.251 597.025-2.784-16.32h3.2l1.664 11.072h.128l2.56-11.072h3.264l2.592 11.072h.128l1.632-11.072h3.136l-2.784 16.32h-3.712l-2.432-10.368-.192-1.312h-.128l-.192 1.312-2.4 10.368h-3.68Zm18.291 0v-22.912h3.392v6.304l-.192 2.496h.192c.427-.768 1.099-1.408 2.016-1.92a6.117 6.117 0 0 1 3.072-.8c2.07 0 3.595.587 4.576 1.76 1.003 1.174 1.504 2.72 1.504 4.64v10.432h-3.392v-10.016c0-1.173-.32-2.069-.96-2.688-.618-.64-1.482-.96-2.592-.96-.832 0-1.568.214-2.208.64-.618.427-1.109 1.014-1.472 1.76-.362.726-.544 1.536-.544 2.432v8.832h-3.392Zm26.708.512c-1.643 0-3.062-.362-4.256-1.088-1.174-.725-2.091-1.738-2.752-3.04-.64-1.301-.96-2.805-.96-4.512 0-1.728.33-3.242.992-4.544.682-1.322 1.621-2.346 2.816-3.072 1.216-.725 2.602-1.088 4.16-1.088 2.453 0 4.32.704 5.6 2.112 1.28 1.387 1.92 3.275 1.92 5.664 0 .576-.032 1.12-.096 1.632H595.61c.106 1.579.586 2.784 1.44 3.616.874.832 1.984 1.248 3.328 1.248 1.088 0 1.952-.245 2.592-.736a4.302 4.302 0 0 0 1.376-1.888l2.976.8c-.448 1.472-1.27 2.656-2.464 3.552-1.174.896-2.71 1.344-4.608 1.344Zm0-14.464c-1.131 0-2.091.331-2.88.992-.79.662-1.323 1.654-1.6 2.976h8.64c-.064-1.194-.448-2.154-1.152-2.88-.704-.725-1.707-1.088-3.008-1.088Zm13.619 13.952v-16.32h3.232v2.752h.192c.47-1.024 1.152-1.824 2.048-2.4.918-.576 2.006-.864 3.264-.864.619 0 1.195.054 1.728.16.555.086 1.003.235 1.344.448v3.584a7.911 7.911 0 0 0-1.728-.672 7.711 7.711 0 0 0-2.048-.256c-1.45 0-2.581.502-3.392 1.504-.81.982-1.216 2.219-1.216 3.712v8.352h-3.424Zm24.756.512c-1.643 0-3.062-.362-4.256-1.088-1.174-.725-2.091-1.738-2.752-3.04-.64-1.301-.96-2.805-.96-4.512 0-1.728.33-3.242.992-4.544.682-1.322 1.621-2.346 2.816-3.072 1.216-.725 2.602-1.088 4.16-1.088 2.453 0 4.32.704 5.6 2.112 1.28 1.387 1.92 3.275 1.92 5.664 0 .576-.032 1.12-.096 1.632h-12.064c.106 1.579.586 2.784 1.44 3.616.874.832 1.984 1.248 3.328 1.248 1.088 0 1.952-.245 2.592-.736a4.302 4.302 0 0 0 1.376-1.888l2.976.8c-.448 1.472-1.27 2.656-2.464 3.552-1.174.896-2.71 1.344-4.608 1.344Zm0-14.464c-1.131 0-2.091.331-2.88.992-.79.662-1.323 1.654-1.6 2.976h8.64c-.064-1.194-.448-2.154-1.152-2.88-.704-.725-1.707-1.088-3.008-1.088Zm22.419 19.04c-1.237-1.024-2.432-2.261-3.584-3.712-1.13-1.429-2.058-3.104-2.784-5.024-.725-1.941-1.088-4.16-1.088-6.656 0-2.496.363-4.704 1.088-6.624.726-1.941 1.654-3.626 2.784-5.056 1.152-1.45 2.347-2.688 3.584-3.712l2.24 2.656a19.774 19.774 0 0 0-3.2 3.328 15.514 15.514 0 0 0-2.24 4.192c-.533 1.558-.8 3.296-.8 5.216 0 1.92.267 3.659.8 5.216a15.484 15.484 0 0 0 2.24 4.192 19.699 19.699 0 0 0 3.2 3.328l-2.24 2.656Zm14.196-18.464v-9.536h3.104v9.536h-3.104Zm20.979 13.888c-1.557 0-2.933-.352-4.128-1.056-1.194-.725-2.122-1.738-2.784-3.04-.661-1.301-.992-2.826-.992-4.576 0-1.749.342-3.274 1.024-4.576.683-1.301 1.622-2.304 2.816-3.008 1.216-.725 2.614-1.088 4.192-1.088 1.963 0 3.595.48 4.896 1.44 1.323.96 2.134 2.304 2.432 4.032l-3.328.544a3.468 3.468 0 0 0-1.408-2.08c-.704-.533-1.589-.8-2.656-.8-1.28 0-2.368.48-3.264 1.44-.874.96-1.312 2.326-1.312 4.096 0 1.771.438 3.136 1.312 4.096.875.939 1.963 1.408 3.264 1.408 1.088 0 1.963-.256 2.624-.768.662-.533 1.152-1.29 1.472-2.272l3.2.768c-.384 1.6-1.194 2.912-2.432 3.936-1.237 1.003-2.88 1.504-4.928 1.504Zm18.932 0c-1.664 0-3.115-.362-4.352-1.088a7.523 7.523 0 0 1-2.816-3.072c-.662-1.322-.992-2.826-.992-4.512 0-1.706.33-3.21.992-4.512.661-1.301 1.6-2.314 2.816-3.04 1.237-.746 2.688-1.12 4.352-1.12 1.664 0 3.104.374 4.32 1.12a7.27 7.27 0 0 1 2.848 3.04c.661 1.302.992 2.806.992 4.512 0 1.707-.331 3.211-.992 4.512a7.465 7.465 0 0 1-2.848 3.072c-1.216.726-2.656 1.088-4.32 1.088Zm0-3.168c1.386 0 2.528-.469 3.424-1.408.896-.96 1.344-2.325 1.344-4.096 0-1.77-.448-3.125-1.344-4.064-.896-.96-2.038-1.44-3.424-1.44-1.387 0-2.528.48-3.424 1.44-.896.939-1.344 2.294-1.344 4.064 0 1.771.448 3.136 1.344 4.096.896.939 2.037 1.408 3.424 1.408Zm19.251 3.168c-2.133 0-3.776-.469-4.928-1.408-1.152-.938-1.898-2.176-2.24-3.712l3.296-.608c.192.79.598 1.44 1.216 1.952.64.491 1.526.736 2.656.736.96 0 1.771-.17 2.432-.512.683-.362 1.024-.885 1.024-1.568 0-.661-.288-1.173-.864-1.536-.554-.362-1.376-.65-2.464-.864l-1.984-.352c-1.365-.234-2.485-.736-3.36-1.504-.874-.768-1.312-1.824-1.312-3.168 0-.938.278-1.76.832-2.464.555-.725 1.302-1.29 2.24-1.696.96-.426 2.048-.64 3.264-.64 1.792 0 3.254.363 4.384 1.088 1.152.726 1.878 1.867 2.176 3.424l-3.04.544c-.256-.81-.693-1.376-1.312-1.696-.618-.341-1.344-.512-2.176-.512-.853 0-1.578.182-2.176.544-.597.342-.896.779-.896 1.312 0 .576.235 1.035.704 1.376.491.32 1.195.566 2.112.736l2.368.416c1.6.278 2.816.79 3.648 1.536.832.726 1.248 1.846 1.248 3.36 0 1.046-.298 1.963-.896 2.752-.597.79-1.418 1.398-2.464 1.824-1.045.427-2.208.64-3.488.64Zm22.068-.032c-1.686 0-3.04-.49-4.064-1.472-1.024-1.002-1.536-2.432-1.536-4.288v-8.064h-3.744v-2.976h3.744v-4.48h3.424v4.48h5.984v2.976h-5.984v7.744c0 .918.234 1.632.704 2.144.469.491 1.173.736 2.112.736.81 0 1.6-.213 2.368-.64l.992 2.88a6.694 6.694 0 0 1-1.728.704c-.576.171-1.334.256-2.272.256Zm14.707-13.856v-9.536h3.104v9.536h-3.104Zm18.196 17.504 1.664-8.832h4.576l-3.168 8.832h-3.072Zm39.367-17.504v-9.536h3.104v9.536h-3.104Zm14.323 10.752v-3.456l9.12-5.28v-.192l-9.12-5.28v-3.456l12.8 7.52v2.624l-12.8 7.52Zm24.052-10.752v-9.536h3.104v9.536h-3.104Zm18.195 17.504 1.664-8.832h4.576l-3.168 8.832h-3.072Zm34.023-4.128v-3.2h5.44v-15.2l-4.992 3.648v-3.776l5.984-4.384h2.432v19.712h5.152v3.2h-14.016Zm26.068.192a2.634 2.634 0 0 1-1.888-.768 2.615 2.615 0 0 1-.8-1.92c0-.725.266-1.354.8-1.888.533-.533 1.162-.8 1.888-.8.725 0 1.354.267 1.888.8.533.534.8 1.163.8 1.888 0 .747-.267 1.387-.8 1.92a2.638 2.638 0 0 1-1.888.768Zm19.187.32c-1.813 0-3.36-.501-4.64-1.504-1.258-1.002-2.218-2.4-2.88-4.192-.64-1.813-.96-3.904-.96-6.272 0-2.368.32-4.448.96-6.24.662-1.792 1.622-3.189 2.88-4.192 1.28-1.024 2.827-1.536 4.64-1.536 1.814 0 3.35.512 4.608 1.536 1.28 1.003 2.24 2.4 2.88 4.192.662 1.792.992 3.872.992 6.24 0 2.368-.33 4.459-.992 6.272-.64 1.792-1.6 3.19-2.88 4.192-1.258 1.003-2.794 1.504-4.608 1.504Zm-5.024-11.968c0 1.792.182 3.318.544 4.576l7.392-12.128c-.789-.789-1.76-1.184-2.912-1.184-1.642 0-2.89.768-3.744 2.304-.853 1.515-1.28 3.659-1.28 6.432Zm5.024 8.736c1.622 0 2.859-.757 3.712-2.272.875-1.536 1.312-3.69 1.312-6.464 0-1.749-.17-3.264-.512-4.544l-7.424 12.128c.79.768 1.76 1.152 2.912 1.152Zm19.188 3.232c-1.814 0-3.36-.501-4.64-1.504-1.259-1.002-2.219-2.4-2.88-4.192-.64-1.813-.96-3.904-.96-6.272 0-2.368.32-4.448.96-6.24.661-1.792 1.621-3.189 2.88-4.192 1.28-1.024 2.826-1.536 4.64-1.536 1.813 0 3.349.512 4.608 1.536 1.28 1.003 2.24 2.4 2.88 4.192.661 1.792.992 3.872.992 6.24 0 2.368-.331 4.459-.992 6.272-.64 1.792-1.6 3.19-2.88 4.192-1.259 1.003-2.795 1.504-4.608 1.504Zm-5.024-11.968c0 1.792.181 3.318.544 4.576l7.392-12.128c-.79-.789-1.76-1.184-2.912-1.184-1.643 0-2.891.768-3.744 2.304-.854 1.515-1.28 3.659-1.28 6.432Zm5.024 8.736c1.621 0 2.858-.757 3.712-2.272.874-1.536 1.312-3.69 1.312-6.464 0-1.749-.171-3.264-.512-4.544l-7.424 12.128c.789.768 1.76 1.152 2.912 1.152Zm15.731 7.808-2.24-2.656a19.755 19.755 0 0 0 3.203-3.328c.94-1.237 1.67-2.634 2.21-4.192.55-1.557.83-3.296.83-5.216 0-1.92-.28-3.658-.83-5.216-.54-1.557-1.27-2.954-2.21-4.192a19.83 19.83 0 0 0-3.203-3.328l2.24-2.656c1.233 1.024 2.423 2.262 3.553 3.712 1.15 1.43 2.09 3.115 2.82 5.056.72 1.92 1.08 4.128 1.08 6.624 0 2.496-.36 4.715-1.08 6.656-.73 1.92-1.67 3.595-2.82 5.024-1.13 1.451-2.32 2.688-3.553 3.712ZM555.251 652.025l-2.784-16.32h3.2l1.664 11.072h.128l2.56-11.072h3.264l2.592 11.072h.128l1.632-11.072h3.136l-2.784 16.32h-3.712l-2.432-10.368-.192-1.312h-.128l-.192 1.312-2.4 10.368h-3.68Zm18.291 0v-22.912h3.392v6.304l-.192 2.496h.192c.427-.768 1.099-1.408 2.016-1.92a6.117 6.117 0 0 1 3.072-.8c2.07 0 3.595.587 4.576 1.76 1.003 1.174 1.504 2.72 1.504 4.64v10.432h-3.392v-10.016c0-1.173-.32-2.069-.96-2.688-.618-.64-1.482-.96-2.592-.96-.832 0-1.568.214-2.208.64-.618.427-1.109 1.014-1.472 1.76-.362.726-.544 1.536-.544 2.432v8.832h-3.392Zm26.708.512c-1.643 0-3.062-.362-4.256-1.088-1.174-.725-2.091-1.738-2.752-3.04-.64-1.301-.96-2.805-.96-4.512 0-1.728.33-3.242.992-4.544.682-1.322 1.621-2.346 2.816-3.072 1.216-.725 2.602-1.088 4.16-1.088 2.453 0 4.32.704 5.6 2.112 1.28 1.387 1.92 3.275 1.92 5.664 0 .576-.032 1.12-.096 1.632H595.61c.106 1.579.586 2.784 1.44 3.616.874.832 1.984 1.248 3.328 1.248 1.088 0 1.952-.245 2.592-.736a4.302 4.302 0 0 0 1.376-1.888l2.976.8c-.448 1.472-1.27 2.656-2.464 3.552-1.174.896-2.71 1.344-4.608 1.344Zm0-14.464c-1.131 0-2.091.331-2.88.992-.79.662-1.323 1.654-1.6 2.976h8.64c-.064-1.194-.448-2.154-1.152-2.88-.704-.725-1.707-1.088-3.008-1.088Zm13.619 13.952v-16.32h3.232v2.752h.192c.47-1.024 1.152-1.824 2.048-2.4.918-.576 2.006-.864 3.264-.864.619 0 1.195.054 1.728.16.555.086 1.003.235 1.344.448v3.584a7.911 7.911 0 0 0-1.728-.672 7.711 7.711 0 0 0-2.048-.256c-1.45 0-2.581.502-3.392 1.504-.81.982-1.216 2.219-1.216 3.712v8.352h-3.424Zm24.756.512c-1.643 0-3.062-.362-4.256-1.088-1.174-.725-2.091-1.738-2.752-3.04-.64-1.301-.96-2.805-.96-4.512 0-1.728.33-3.242.992-4.544.682-1.322 1.621-2.346 2.816-3.072 1.216-.725 2.602-1.088 4.16-1.088 2.453 0 4.32.704 5.6 2.112 1.28 1.387 1.92 3.275 1.92 5.664 0 .576-.032 1.12-.096 1.632h-12.064c.106 1.579.586 2.784 1.44 3.616.874.832 1.984 1.248 3.328 1.248 1.088 0 1.952-.245 2.592-.736a4.302 4.302 0 0 0 1.376-1.888l2.976.8c-.448 1.472-1.27 2.656-2.464 3.552-1.174.896-2.71 1.344-4.608 1.344Zm0-14.464c-1.131 0-2.091.331-2.88.992-.79.662-1.323 1.654-1.6 2.976h8.64c-.064-1.194-.448-2.154-1.152-2.88-.704-.725-1.707-1.088-3.008-1.088Zm22.419 19.04c-1.237-1.024-2.432-2.261-3.584-3.712-1.13-1.429-2.058-3.104-2.784-5.024-.725-1.941-1.088-4.16-1.088-6.656 0-2.496.363-4.704 1.088-6.624.726-1.941 1.654-3.626 2.784-5.056 1.152-1.45 2.347-2.688 3.584-3.712l2.24 2.656a19.774 19.774 0 0 0-3.2 3.328 15.514 15.514 0 0 0-2.24 4.192c-.533 1.558-.8 3.296-.8 5.216 0 1.92.267 3.659.8 5.216a15.484 15.484 0 0 0 2.24 4.192 19.699 19.699 0 0 0 3.2 3.328l-2.24 2.656Zm14.196-18.464v-9.536h3.104v9.536h-3.104Zm20.979 13.888c-1.557 0-2.933-.352-4.128-1.056-1.194-.725-2.122-1.738-2.784-3.04-.661-1.301-.992-2.826-.992-4.576 0-1.749.342-3.274 1.024-4.576.683-1.301 1.622-2.304 2.816-3.008 1.216-.725 2.614-1.088 4.192-1.088 1.963 0 3.595.48 4.896 1.44 1.323.96 2.134 2.304 2.432 4.032l-3.328.544a3.468 3.468 0 0 0-1.408-2.08c-.704-.533-1.589-.8-2.656-.8-1.28 0-2.368.48-3.264 1.44-.874.96-1.312 2.326-1.312 4.096 0 1.771.438 3.136 1.312 4.096.875.939 1.963 1.408 3.264 1.408 1.088 0 1.963-.256 2.624-.768.662-.533 1.152-1.29 1.472-2.272l3.2.768c-.384 1.6-1.194 2.912-2.432 3.936-1.237 1.003-2.88 1.504-4.928 1.504Zm18.932 0c-1.664 0-3.115-.362-4.352-1.088a7.523 7.523 0 0 1-2.816-3.072c-.662-1.322-.992-2.826-.992-4.512 0-1.706.33-3.21.992-4.512.661-1.301 1.6-2.314 2.816-3.04 1.237-.746 2.688-1.12 4.352-1.12 1.664 0 3.104.374 4.32 1.12a7.27 7.27 0 0 1 2.848 3.04c.661 1.302.992 2.806.992 4.512 0 1.707-.331 3.211-.992 4.512a7.465 7.465 0 0 1-2.848 3.072c-1.216.726-2.656 1.088-4.32 1.088Zm0-3.168c1.386 0 2.528-.469 3.424-1.408.896-.96 1.344-2.325 1.344-4.096 0-1.77-.448-3.125-1.344-4.064-.896-.96-2.038-1.44-3.424-1.44-1.387 0-2.528.48-3.424 1.44-.896.939-1.344 2.294-1.344 4.064 0 1.771.448 3.136 1.344 4.096.896.939 2.037 1.408 3.424 1.408Zm19.251 3.168c-2.133 0-3.776-.469-4.928-1.408-1.152-.938-1.898-2.176-2.24-3.712l3.296-.608c.192.79.598 1.44 1.216 1.952.64.491 1.526.736 2.656.736.96 0 1.771-.17 2.432-.512.683-.362 1.024-.885 1.024-1.568 0-.661-.288-1.173-.864-1.536-.554-.362-1.376-.65-2.464-.864l-1.984-.352c-1.365-.234-2.485-.736-3.36-1.504-.874-.768-1.312-1.824-1.312-3.168 0-.938.278-1.76.832-2.464.555-.725 1.302-1.29 2.24-1.696.96-.426 2.048-.64 3.264-.64 1.792 0 3.254.363 4.384 1.088 1.152.726 1.878 1.867 2.176 3.424l-3.04.544c-.256-.81-.693-1.376-1.312-1.696-.618-.341-1.344-.512-2.176-.512-.853 0-1.578.182-2.176.544-.597.342-.896.779-.896 1.312 0 .576.235 1.035.704 1.376.491.32 1.195.566 2.112.736l2.368.416c1.6.278 2.816.79 3.648 1.536.832.726 1.248 1.846 1.248 3.36 0 1.046-.298 1.963-.896 2.752-.597.79-1.418 1.398-2.464 1.824-1.045.427-2.208.64-3.488.64Zm22.068-.032c-1.686 0-3.04-.49-4.064-1.472-1.024-1.002-1.536-2.432-1.536-4.288v-8.064h-3.744v-2.976h3.744v-4.48h3.424v4.48h5.984v2.976h-5.984v7.744c0 .918.234 1.632.704 2.144.469.491 1.173.736 2.112.736.81 0 1.6-.213 2.368-.64l.992 2.88a6.694 6.694 0 0 1-1.728.704c-.576.171-1.334.256-2.272.256Zm14.707-13.856v-9.536h3.104v9.536h-3.104Zm18.196 17.504 1.664-8.832h4.576l-3.168 8.832h-3.072Zm39.367-17.504v-9.536h3.104v9.536h-3.104Zm27.123 10.752-12.8-7.52v-2.624l12.8-7.52v3.456l-9.12 5.28v.192l9.12 5.28v3.456Zm11.252-10.752v-9.536h3.104v9.536h-3.104Zm18.195 17.504 1.664-8.832h4.576l-3.168 8.832h-3.072Zm34.023-4.128v-3.2h5.44v-15.2l-4.992 3.648v-3.776l5.984-4.384h2.432v19.712h5.152v3.2h-14.016Zm26.068.192a2.634 2.634 0 0 1-1.888-.768 2.615 2.615 0 0 1-.8-1.92c0-.725.266-1.354.8-1.888.533-.533 1.162-.8 1.888-.8.725 0 1.354.267 1.888.8.533.534.8 1.163.8 1.888 0 .747-.267 1.387-.8 1.92a2.638 2.638 0 0 1-1.888.768Zm12.307-.192v-3.328c1.92-1.45 3.563-2.762 4.928-3.936 1.387-1.173 2.518-2.272 3.392-3.296.832-.96 1.451-1.909 1.856-2.848.406-.938.608-1.93.608-2.976 0-1.258-.341-2.208-1.024-2.848-.682-.64-1.621-.96-2.816-.96-1.13 0-2.048.342-2.752 1.024-.682.662-1.088 1.568-1.216 2.72l-3.264-.32c.086-1.216.416-2.325.992-3.328a6.589 6.589 0 0 1 2.464-2.432c1.067-.597 2.336-.896 3.808-.896 2.283 0 4.064.598 5.344 1.792 1.302 1.174 1.952 2.816 1.952 4.928 0 1.536-.32 2.966-.96 4.288a17.156 17.156 0 0 1-2.432 3.776 27.829 27.829 0 0 1-2.88 2.848 42.203 42.203 0 0 1-3.36 2.592l.064.096h10.08v3.104h-14.784Zm26.068.512c-1.814 0-3.36-.501-4.64-1.504-1.259-1.002-2.219-2.4-2.88-4.192-.64-1.813-.96-3.904-.96-6.272 0-2.368.32-4.448.96-6.24.661-1.792 1.621-3.189 2.88-4.192 1.28-1.024 2.826-1.536 4.64-1.536 1.813 0 3.349.512 4.608 1.536 1.28 1.003 2.24 2.4 2.88 4.192.661 1.792.992 3.872.992 6.24 0 2.368-.331 4.459-.992 6.272-.64 1.792-1.6 3.19-2.88 4.192-1.259 1.003-2.795 1.504-4.608 1.504Zm-5.024-11.968c0 1.792.181 3.318.544 4.576l7.392-12.128c-.79-.789-1.76-1.184-2.912-1.184-1.643 0-2.891.768-3.744 2.304-.854 1.515-1.28 3.659-1.28 6.432Zm5.024 8.736c1.621 0 2.858-.757 3.712-2.272.874-1.536 1.312-3.69 1.312-6.464 0-1.749-.171-3.264-.512-4.544l-7.424 12.128c.789.768 1.76 1.152 2.912 1.152Zm15.731 7.808-2.24-2.656a19.755 19.755 0 0 0 3.203-3.328c.94-1.237 1.67-2.634 2.21-4.192.55-1.557.83-3.296.83-5.216 0-1.92-.28-3.658-.83-5.216-.54-1.557-1.27-2.954-2.21-4.192a19.83 19.83 0 0 0-3.203-3.328l2.24-2.656c1.233 1.024 2.423 2.262 3.553 3.712 1.15 1.43 2.09 3.115 2.82 5.056.72 1.92 1.08 4.128 1.08 6.624 0 2.496-.36 4.715-1.08 6.656-.73 1.92-1.67 3.595-2.82 5.024-1.13 1.451-2.32 2.688-3.553 3.712Z" fill="#BDBDBD"/></svg>