<svg width="829" height="247" viewBox="0 0 829 247" fill="none" xmlns="http://www.w3.org/2000/svg">
<rect x="346.098" y="61.1655" width="482.531" height="184.969" rx="6" fill="#B8B8B8"/>
<rect x="10.8906" y="89.1895" width="132" height="132" rx="12" fill="white"/>
<path d="M53.9102 195.862C52.9822 195.862 52.1929 195.622 51.5422 195.142C50.8915 194.652 50.3902 193.958 50.0382 193.062C49.6969 192.166 49.5262 191.105 49.5262 189.878C49.5262 188.641 49.7022 187.58 50.0542 186.694C50.4062 185.798 50.9129 185.11 51.5742 184.63C52.2355 184.14 53.0302 183.894 53.9582 183.894C54.6835 183.894 55.3449 184.038 55.9422 184.326C56.5502 184.614 57.0462 185.041 57.4302 185.606C57.8249 186.172 58.0595 186.881 58.1342 187.734L56.0062 188.102C55.9209 187.43 55.7075 186.902 55.3662 186.518C55.0355 186.124 54.5662 185.926 53.9582 185.926C53.3075 185.926 52.7635 186.268 52.3262 186.95C51.8995 187.633 51.6862 188.609 51.6862 189.878C51.6862 191.148 51.8995 192.124 52.3262 192.806C52.7529 193.478 53.2969 193.814 53.9582 193.814C54.5022 193.814 54.9555 193.622 55.3182 193.238C55.6915 192.854 55.9315 192.326 56.0382 191.654L58.1822 191.926C58.0755 192.694 57.8462 193.377 57.4942 193.974C57.1529 194.561 56.6835 195.025 56.0862 195.366C55.4889 195.697 54.7635 195.862 53.9102 195.862ZM59.744 195.606V193.718H62.496V186.038H60.224V184.15H64.592V193.718H67.36V195.606H59.744ZM73.1457 186.166C72.719 186.166 72.3564 186.022 72.0577 185.734C71.7697 185.436 71.6257 185.073 71.6257 184.646C71.6257 184.22 71.7697 183.862 72.0577 183.574C72.3564 183.276 72.719 183.126 73.1457 183.126C73.5724 183.126 73.9297 183.276 74.2177 183.574C74.5164 183.862 74.6657 184.22 74.6657 184.646C74.6657 185.073 74.5164 185.436 74.2177 185.734C73.9297 186.022 73.5724 186.166 73.1457 186.166ZM69.3377 195.606V193.718H72.0897V189.334H69.8177V187.446H74.1857V193.718H76.9537V195.606H69.3377ZM82.8355 195.862C82.0141 195.862 81.2995 195.686 80.6915 195.334C80.0941 194.982 79.6301 194.481 79.2995 193.83C78.9688 193.18 78.8035 192.412 78.8035 191.526C78.8035 190.641 78.9795 189.873 79.3315 189.222C79.6835 188.572 80.1635 188.07 80.7715 187.718C81.3795 187.366 82.0728 187.19 82.8515 187.19C84.1528 187.19 85.1128 187.542 85.7315 188.246C86.3608 188.95 86.6755 189.905 86.6755 191.11C86.6755 191.249 86.6701 191.398 86.6595 191.558C86.6595 191.718 86.6488 191.868 86.6275 192.006H80.8035C80.8781 192.668 81.1075 193.169 81.4915 193.51C81.8861 193.852 82.3608 194.022 82.9155 194.022C83.3741 194.022 83.7475 193.91 84.0355 193.686C84.3341 193.452 84.5475 193.169 84.6755 192.838L86.4835 193.334C86.2275 194.102 85.7955 194.716 85.1875 195.174C84.5901 195.633 83.8061 195.862 82.8355 195.862ZM82.8675 188.87C82.3981 188.87 81.9875 189.009 81.6355 189.286C81.2941 189.564 81.0541 189.98 80.9155 190.534H84.6915C84.6488 190.033 84.4728 189.633 84.1635 189.334C83.8541 189.025 83.4221 188.87 82.8675 188.87ZM88.7492 195.606V187.446H90.7012V188.438H90.8292C91.0639 188.054 91.3945 187.75 91.8212 187.526C92.2479 187.302 92.7225 187.19 93.2452 187.19C94.1839 187.19 94.8932 187.478 95.3732 188.054C95.8639 188.62 96.1092 189.409 96.1092 190.422V195.606H94.0292V190.71C94.0292 190.209 93.9065 189.82 93.6612 189.542C93.4265 189.265 93.0799 189.126 92.6212 189.126C92.0665 189.126 91.6292 189.334 91.3092 189.75C90.9892 190.166 90.8292 190.678 90.8292 191.286V195.606H88.7492ZM103.319 195.862C102.444 195.862 101.74 195.59 101.207 195.046C100.684 194.492 100.423 193.713 100.423 192.71V189.222H98.615V187.446H100.423V185.206H102.503V187.446H105.447V189.222H102.503V192.55C102.503 192.988 102.61 193.324 102.823 193.558C103.036 193.793 103.34 193.91 103.735 193.91C103.948 193.91 104.146 193.884 104.327 193.83C104.519 193.777 104.722 193.686 104.935 193.558L105.559 195.318C105.228 195.521 104.903 195.66 104.583 195.734C104.274 195.82 103.852 195.862 103.319 195.862Z" fill="#212121"/>
<circle cx="76.8915" cy="140.655" r="27.7333" fill="#4C8DF6"/>
<rect x="68.3848" y="125.004" width="17.0118" height="31.3004" rx="2" fill="#444444"/>
<rect x="368.771" y="87.6499" width="132" height="132" rx="12" fill="white"/>
<path d="M397.796 194.067V182.611H400.996C402.116 182.611 403.066 182.84 403.844 183.299C404.623 183.758 405.215 184.414 405.62 185.267C406.036 186.12 406.244 187.144 406.244 188.339C406.244 189.523 406.036 190.547 405.62 191.411C405.215 192.264 404.623 192.92 403.844 193.379C403.066 193.838 402.116 194.067 400.996 194.067H397.796ZM399.94 192.019H400.932C401.903 192.019 402.671 191.715 403.236 191.107C403.802 190.488 404.084 189.566 404.084 188.339C404.084 187.112 403.802 186.195 403.236 185.587C402.671 184.968 401.903 184.659 400.932 184.659H399.94V192.019ZM410.99 194.323C410.329 194.323 409.721 194.158 409.166 193.827C408.622 193.496 408.185 193.011 407.854 192.371C407.534 191.72 407.374 190.926 407.374 189.987C407.374 189.038 407.539 188.243 407.87 187.603C408.211 186.952 408.654 186.467 409.198 186.147C409.753 185.816 410.355 185.651 411.006 185.651C411.614 185.651 412.121 185.763 412.526 185.987C412.931 186.211 413.235 186.499 413.438 186.851H413.566V185.907H415.518V194.067H413.566V193.139H413.438C413.214 193.459 412.899 193.736 412.494 193.971C412.089 194.206 411.587 194.323 410.99 194.323ZM411.502 192.371C412.089 192.371 412.579 192.174 412.974 191.779C413.369 191.384 413.566 190.787 413.566 189.987C413.566 189.187 413.369 188.59 412.974 188.195C412.579 187.79 412.089 187.587 411.502 187.587C410.926 187.587 410.441 187.79 410.046 188.195C409.651 188.59 409.454 189.187 409.454 189.987C409.454 190.787 409.651 191.384 410.046 191.779C410.441 192.174 410.926 192.371 411.502 192.371ZM422.536 194.323C421.661 194.323 420.957 194.051 420.424 193.507C419.901 192.952 419.64 192.174 419.64 191.171V187.683H417.832V185.907H419.64V183.667H421.72V185.907H424.664V187.683H421.72V191.011C421.72 191.448 421.826 191.784 422.04 192.019C422.253 192.254 422.557 192.371 422.952 192.371C423.165 192.371 423.362 192.344 423.544 192.291C423.736 192.238 423.938 192.147 424.152 192.019L424.776 193.779C424.445 193.982 424.12 194.12 423.8 194.195C423.49 194.28 423.069 194.323 422.536 194.323ZM430.178 194.323C429.516 194.323 428.908 194.158 428.354 193.827C427.81 193.496 427.372 193.011 427.042 192.371C426.722 191.72 426.562 190.926 426.562 189.987C426.562 189.038 426.727 188.243 427.058 187.603C427.399 186.952 427.842 186.467 428.386 186.147C428.94 185.816 429.543 185.651 430.194 185.651C430.802 185.651 431.308 185.763 431.714 185.987C432.119 186.211 432.423 186.499 432.626 186.851H432.754V185.907H434.706V194.067H432.754V193.139H432.626C432.402 193.459 432.087 193.736 431.682 193.971C431.276 194.206 430.775 194.323 430.178 194.323ZM430.69 192.371C431.276 192.371 431.767 192.174 432.162 191.779C432.556 191.384 432.754 190.787 432.754 189.987C432.754 189.187 432.556 188.59 432.162 188.195C431.767 187.79 431.276 187.587 430.69 187.587C430.114 187.587 429.628 187.79 429.234 188.195C428.839 188.59 428.642 189.187 428.642 189.987C428.642 190.787 428.839 191.384 429.234 191.779C429.628 192.174 430.114 192.371 430.69 192.371ZM440.827 194.323C440.219 194.323 439.718 194.211 439.323 193.987C438.929 193.752 438.619 193.47 438.395 193.139H438.267V194.067H436.315V182.611H438.395V185.635L438.267 186.851H438.395C438.577 186.542 438.875 186.264 439.291 186.019C439.707 185.774 440.219 185.651 440.827 185.651C441.51 185.651 442.123 185.822 442.667 186.163C443.222 186.494 443.659 186.984 443.979 187.635C444.299 188.275 444.459 189.059 444.459 189.987C444.459 190.915 444.299 191.704 443.979 192.355C443.659 192.995 443.222 193.486 442.667 193.827C442.123 194.158 441.51 194.323 440.827 194.323ZM440.315 192.371C440.891 192.371 441.377 192.168 441.771 191.763C442.177 191.347 442.379 190.755 442.379 189.987C442.379 189.219 442.182 188.627 441.787 188.211C441.393 187.795 440.902 187.587 440.315 187.587C439.739 187.587 439.254 187.795 438.859 188.211C438.465 188.627 438.267 189.219 438.267 189.987C438.267 190.755 438.465 191.347 438.859 191.763C439.254 192.168 439.739 192.371 440.315 192.371ZM449.365 194.323C448.704 194.323 448.096 194.158 447.541 193.827C446.997 193.496 446.56 193.011 446.229 192.371C445.909 191.72 445.749 190.926 445.749 189.987C445.749 189.038 445.914 188.243 446.245 187.603C446.586 186.952 447.029 186.467 447.573 186.147C448.128 185.816 448.73 185.651 449.381 185.651C449.989 185.651 450.496 185.763 450.901 185.987C451.306 186.211 451.61 186.499 451.813 186.851H451.941V185.907H453.893V194.067H451.941V193.139H451.813C451.589 193.459 451.274 193.736 450.869 193.971C450.464 194.206 449.962 194.323 449.365 194.323ZM449.877 192.371C450.464 192.371 450.954 192.174 451.349 191.779C451.744 191.384 451.941 190.787 451.941 189.987C451.941 189.187 451.744 188.59 451.349 188.195C450.954 187.79 450.464 187.587 449.877 187.587C449.301 187.587 448.816 187.79 448.421 188.195C448.026 188.59 447.829 189.187 447.829 189.987C447.829 190.787 448.026 191.384 448.421 191.779C448.816 192.174 449.301 192.371 449.877 192.371ZM459.519 194.323C458.377 194.323 457.508 194.078 456.911 193.587C456.324 193.086 455.967 192.451 455.839 191.683L457.823 191.347C457.908 191.678 458.079 191.95 458.335 192.163C458.591 192.376 458.985 192.483 459.519 192.483C459.956 192.483 460.308 192.414 460.575 192.275C460.852 192.136 460.991 191.928 460.991 191.651C460.991 191.384 460.852 191.171 460.575 191.011C460.308 190.851 459.924 190.728 459.423 190.643L458.495 190.483C457.844 190.366 457.3 190.115 456.863 189.731C456.425 189.336 456.207 188.803 456.207 188.131C456.207 187.64 456.345 187.214 456.623 186.851C456.9 186.478 457.279 186.184 457.759 185.971C458.249 185.758 458.804 185.651 459.423 185.651C460.436 185.651 461.22 185.854 461.775 186.259C462.34 186.654 462.692 187.224 462.831 187.971L461.007 188.259C460.889 187.918 460.692 187.678 460.415 187.539C460.148 187.39 459.828 187.315 459.455 187.315C459.06 187.315 458.745 187.39 458.511 187.539C458.276 187.688 458.159 187.864 458.159 188.067C458.159 188.28 458.249 188.456 458.431 188.595C458.623 188.734 458.932 188.846 459.359 188.931L460.511 189.139C461.353 189.288 461.988 189.544 462.415 189.907C462.852 190.27 463.071 190.84 463.071 191.619C463.071 192.174 462.916 192.654 462.607 193.059C462.308 193.464 461.892 193.779 461.359 194.003C460.825 194.216 460.212 194.323 459.519 194.323ZM469.209 194.323C468.387 194.323 467.673 194.147 467.065 193.795C466.467 193.443 466.003 192.942 465.673 192.291C465.342 191.64 465.177 190.872 465.177 189.987C465.177 189.102 465.353 188.334 465.705 187.683C466.057 187.032 466.537 186.531 467.145 186.179C467.753 185.827 468.446 185.651 469.225 185.651C470.526 185.651 471.486 186.003 472.105 186.707C472.734 187.411 473.049 188.366 473.049 189.571C473.049 189.71 473.043 189.859 473.033 190.019C473.033 190.179 473.022 190.328 473.001 190.467H467.177C467.251 191.128 467.481 191.63 467.865 191.971C468.259 192.312 468.734 192.483 469.289 192.483C469.747 192.483 470.121 192.371 470.409 192.147C470.707 191.912 470.921 191.63 471.049 191.299L472.857 191.795C472.601 192.563 472.169 193.176 471.561 193.635C470.963 194.094 470.179 194.323 469.209 194.323ZM469.241 187.331C468.771 187.331 468.361 187.47 468.009 187.747C467.667 188.024 467.427 188.44 467.289 188.995H471.065C471.022 188.494 470.846 188.094 470.537 187.795C470.227 187.486 469.795 187.331 469.241 187.331Z" fill="#212121"/>
<circle cx="434.772" cy="139.115" r="27.7333" fill="#4C8DF6"/>
<rect x="424.131" y="126.528" width="5.04013" height="5.04013" rx="1" fill="#444444"/>
<rect opacity="0.78" x="424.131" y="133.194" width="5.04013" height="5.04013" rx="1" fill="#444444"/>
<rect x="424.131" y="139.859" width="5.04013" height="5.04013" rx="1" fill="#444444"/>
<rect opacity="0.5" x="424.131" y="146.525" width="5.04013" height="5.04013" rx="1" fill="#444444"/>
<rect x="432.252" y="126.528" width="5.04013" height="5.04013" rx="1" fill="#444444"/>
<rect x="432.252" y="133.194" width="5.04013" height="5.04013" rx="1" fill="#444444"/>
<rect opacity="0.8" x="432.252" y="139.859" width="5.04013" height="5.04013" rx="1" fill="#444444"/>
<rect x="432.252" y="146.525" width="5.04013" height="5.04013" rx="1" fill="#444444"/>
<rect opacity="0.8" x="440.373" y="126.528" width="5.04013" height="5.04013" rx="1" fill="#444444"/>
<rect x="440.373" y="133.194" width="5.04013" height="5.04013" rx="1" fill="#444444"/>
<rect x="440.373" y="139.859" width="5.04013" height="5.04013" rx="1" fill="#444444"/>
<rect x="440.373" y="146.525" width="5.04013" height="5.04013" rx="1" fill="#444444"/>
<path d="M181.32 152.65C180.768 152.65 180.32 153.098 180.32 153.65C180.32 154.202 180.768 154.65 181.32 154.65V152.65ZM308.373 154.357C308.764 153.966 308.764 153.333 308.373 152.943L302.009 146.579C301.619 146.188 300.986 146.188 300.595 146.579C300.205 146.969 300.205 147.603 300.595 147.993L306.252 153.65L300.595 159.307C300.205 159.697 300.205 160.33 300.595 160.721C300.986 161.111 301.619 161.111 302.009 160.721L308.373 154.357ZM181.32 154.65H307.666V152.65H181.32V154.65Z" fill="white"/>
<path d="M185.88 142.896C185.091 142.896 184.387 142.672 183.768 142.224C183.16 141.765 182.68 141.093 182.328 140.208C181.976 139.312 181.8 138.213 181.8 136.912C181.8 135.611 181.992 134.517 182.376 133.632C182.76 132.736 183.278 132.064 183.928 131.616C184.579 131.157 185.31 130.928 186.12 130.928C187.262 130.928 188.168 131.221 188.84 131.808C189.523 132.395 189.96 133.195 190.152 134.208L188.52 134.656C188.371 134.027 188.099 133.525 187.704 133.152C187.31 132.779 186.792 132.592 186.152 132.592C185.683 132.592 185.251 132.741 184.856 133.04C184.472 133.328 184.158 133.792 183.912 134.432C183.678 135.061 183.56 135.888 183.56 136.912C183.56 138.405 183.8 139.499 184.28 140.192C184.76 140.885 185.358 141.232 186.072 141.232C186.638 141.232 187.102 141.093 187.464 140.816C187.827 140.539 188.104 140.176 188.296 139.728C188.499 139.269 188.627 138.768 188.68 138.224H186.12V136.688H190.376V142.64H188.776V141.168H188.68C188.424 141.712 188.067 142.139 187.608 142.448C187.16 142.747 186.584 142.896 185.88 142.896ZM192.226 142.64V131.184H199.57V132.848H193.97V135.872H199.074V137.536H193.97V140.976H199.57V142.64H192.226ZM204.444 142.64V132.848H201.068V131.184H209.548V132.848H206.188V142.64H204.444ZM220.815 142.64L226.463 131.184H228.175L222.527 142.64H220.815ZM233.385 142.896C232.457 142.896 231.742 142.619 231.241 142.064C230.74 141.499 230.489 140.736 230.489 139.776V134.48H232.201V139.552C232.201 140.149 232.356 140.592 232.665 140.88C232.974 141.168 233.374 141.312 233.865 141.312C234.462 141.312 234.937 141.099 235.289 140.672C235.652 140.235 235.833 139.707 235.833 139.088V134.48H237.529V142.64H235.929V141.6H235.833C235.62 141.984 235.289 142.299 234.841 142.544C234.404 142.779 233.918 142.896 233.385 142.896ZM243.715 142.896C242.648 142.896 241.827 142.661 241.251 142.192C240.675 141.723 240.301 141.104 240.131 140.336L241.779 140.032C241.875 140.427 242.077 140.752 242.387 141.008C242.707 141.253 243.149 141.376 243.715 141.376C244.195 141.376 244.6 141.291 244.931 141.12C245.272 140.939 245.443 140.677 245.443 140.336C245.443 140.005 245.299 139.749 245.011 139.568C244.733 139.387 244.323 139.243 243.779 139.136L242.787 138.96C242.104 138.843 241.544 138.592 241.107 138.208C240.669 137.824 240.451 137.296 240.451 136.624C240.451 136.155 240.589 135.744 240.867 135.392C241.144 135.029 241.517 134.747 241.987 134.544C242.467 134.331 243.011 134.224 243.619 134.224C244.515 134.224 245.245 134.405 245.811 134.768C246.387 135.131 246.749 135.701 246.899 136.48L245.379 136.752C245.251 136.347 245.032 136.064 244.723 135.904C244.413 135.733 244.051 135.648 243.635 135.648C243.208 135.648 242.845 135.739 242.547 135.92C242.248 136.091 242.099 136.309 242.099 136.576C242.099 136.864 242.216 137.093 242.451 137.264C242.696 137.424 243.048 137.547 243.507 137.632L244.691 137.84C245.491 137.979 246.099 138.235 246.515 138.608C246.931 138.971 247.139 139.531 247.139 140.288C247.139 140.811 246.989 141.269 246.691 141.664C246.392 142.059 245.981 142.363 245.459 142.576C244.936 142.789 244.355 142.896 243.715 142.896ZM253.389 142.896C252.567 142.896 251.858 142.715 251.261 142.352C250.674 141.989 250.215 141.483 249.885 140.832C249.565 140.181 249.405 139.429 249.405 138.576C249.405 137.712 249.57 136.955 249.901 136.304C250.242 135.643 250.711 135.131 251.309 134.768C251.917 134.405 252.61 134.224 253.389 134.224C254.615 134.224 255.549 134.576 256.189 135.28C256.829 135.973 257.149 136.917 257.149 138.112C257.149 138.4 257.133 138.672 257.101 138.928H251.069C251.122 139.717 251.362 140.32 251.789 140.736C252.226 141.152 252.781 141.36 253.453 141.36C253.997 141.36 254.429 141.237 254.749 140.992C255.069 140.736 255.298 140.421 255.437 140.048L256.925 140.448C256.701 141.184 256.29 141.776 255.693 142.224C255.106 142.672 254.338 142.896 253.389 142.896ZM253.389 135.664C252.823 135.664 252.343 135.829 251.949 136.16C251.554 136.491 251.287 136.987 251.149 137.648H255.469C255.437 137.051 255.245 136.571 254.893 136.208C254.541 135.845 254.039 135.664 253.389 135.664ZM260.198 142.64V134.48H261.814V135.856H261.91C262.145 135.344 262.486 134.944 262.934 134.656C263.393 134.368 263.937 134.224 264.566 134.224C264.876 134.224 265.164 134.251 265.43 134.304C265.708 134.347 265.932 134.421 266.102 134.528V136.32C265.846 136.181 265.558 136.069 265.238 135.984C264.929 135.899 264.588 135.856 264.214 135.856C263.489 135.856 262.924 136.107 262.518 136.608C262.113 137.099 261.91 137.717 261.91 138.464V142.64H260.198ZM272.496 142.896C271.429 142.896 270.608 142.661 270.032 142.192C269.456 141.723 269.083 141.104 268.912 140.336L270.56 140.032C270.656 140.427 270.859 140.752 271.168 141.008C271.488 141.253 271.931 141.376 272.496 141.376C272.976 141.376 273.381 141.291 273.712 141.12C274.053 140.939 274.224 140.677 274.224 140.336C274.224 140.005 274.08 139.749 273.792 139.568C273.515 139.387 273.104 139.243 272.56 139.136L271.568 138.96C270.885 138.843 270.325 138.592 269.888 138.208C269.451 137.824 269.232 137.296 269.232 136.624C269.232 136.155 269.371 135.744 269.648 135.392C269.925 135.029 270.299 134.747 270.768 134.544C271.248 134.331 271.792 134.224 272.4 134.224C273.296 134.224 274.027 134.405 274.592 134.768C275.168 135.131 275.531 135.701 275.68 136.48L274.16 136.752C274.032 136.347 273.813 136.064 273.504 135.904C273.195 135.733 272.832 135.648 272.416 135.648C271.989 135.648 271.627 135.739 271.328 135.92C271.029 136.091 270.88 136.309 270.88 136.576C270.88 136.864 270.997 137.093 271.232 137.264C271.477 137.424 271.829 137.547 272.288 137.632L273.472 137.84C274.272 137.979 274.88 138.235 275.296 138.608C275.712 138.971 275.92 139.531 275.92 140.288C275.92 140.811 275.771 141.269 275.472 141.664C275.173 142.059 274.763 142.363 274.24 142.576C273.717 142.789 273.136 142.896 272.496 142.896Z" fill="#FFD557"/>
<path d="M1.93414 21.9116V7.59162H11.3341V10.1516H4.61414V13.6316H10.7141V16.1916H4.61414V21.9116H1.93414ZM18.4863 10.1116C17.953 10.1116 17.4997 9.93162 17.1263 9.57162C16.7663 9.19829 16.5863 8.74495 16.5863 8.21162C16.5863 7.67829 16.7663 7.23162 17.1263 6.87162C17.4997 6.49829 17.953 6.31162 18.4863 6.31162C19.0197 6.31162 19.4663 6.49829 19.8263 6.87162C20.1997 7.23162 20.3863 7.67829 20.3863 8.21162C20.3863 8.74495 20.1997 9.19829 19.8263 9.57162C19.4663 9.93162 19.0197 10.1116 18.4863 10.1116ZM13.7263 21.9116V19.5516H17.1663V14.0716H14.3263V11.7116H19.7863V19.5516H23.2463V21.9116H13.7263ZM27.0385 21.9116V11.7116H29.4785V13.3516H29.6385C29.9718 12.7116 30.3985 12.225 30.9185 11.8916C31.4385 11.5583 32.0852 11.3916 32.8585 11.3916C33.5785 11.3916 34.1785 11.5116 34.6585 11.7516V14.4316C34.3252 14.245 33.9585 14.0983 33.5585 13.9916C33.1718 13.8716 32.7585 13.8116 32.3185 13.8116C31.5318 13.8116 30.8852 14.065 30.3785 14.5716C29.8852 15.0783 29.6385 15.7983 29.6385 16.7316V21.9116H27.0385ZM42.5907 22.2316C41.564 22.2316 40.6707 22.0116 39.9107 21.5716C39.164 21.1316 38.584 20.505 38.1707 19.6916C37.7574 18.8783 37.5507 17.9183 37.5507 16.8116C37.5507 15.705 37.7707 14.745 38.2107 13.9316C38.6507 13.1183 39.2507 12.4916 40.0107 12.0516C40.7707 11.6116 41.6374 11.3916 42.6107 11.3916C44.2374 11.3916 45.4374 11.8316 46.2107 12.7116C46.9974 13.5916 47.3907 14.785 47.3907 16.2916C47.3907 16.465 47.384 16.6516 47.3707 16.8516C47.3707 17.0516 47.3574 17.2383 47.3307 17.4116H40.0507C40.144 18.2383 40.4307 18.865 40.9107 19.2916C41.404 19.7183 41.9974 19.9316 42.6907 19.9316C43.264 19.9316 43.7307 19.7916 44.0907 19.5116C44.464 19.2183 44.7307 18.865 44.8907 18.4516L47.1507 19.0716C46.8307 20.0316 46.2907 20.7983 45.5307 21.3716C44.784 21.945 43.804 22.2316 42.5907 22.2316ZM42.6307 13.4916C42.044 13.4916 41.5307 13.665 41.0907 14.0116C40.664 14.3583 40.364 14.8783 40.1907 15.5716H44.9107C44.8574 14.945 44.6374 14.445 44.2507 14.0716C43.864 13.685 43.324 13.4916 42.6307 13.4916ZM55.0829 22.2316C54.3229 22.2316 53.6962 22.0916 53.2029 21.8116C52.7096 21.5183 52.3229 21.165 52.0429 20.7516H51.8829V21.9116H49.4429V7.59162H52.0429V11.3716L51.8829 12.8916H52.0429C52.2696 12.505 52.6429 12.1583 53.1629 11.8516C53.6829 11.545 54.3229 11.3916 55.0829 11.3916C55.9362 11.3916 56.7029 11.605 57.3829 12.0316C58.0762 12.445 58.6229 13.0583 59.0229 13.8716C59.4229 14.6716 59.6229 15.6516 59.6229 16.8116C59.6229 17.9716 59.4229 18.9583 59.0229 19.7716C58.6229 20.5716 58.0762 21.185 57.3829 21.6116C56.7029 22.025 55.9362 22.2316 55.0829 22.2316ZM54.4429 19.7916C55.1629 19.7916 55.7696 19.5383 56.2629 19.0316C56.7696 18.5116 57.0229 17.7716 57.0229 16.8116C57.0229 15.8516 56.7762 15.1116 56.2829 14.5916C55.7896 14.0716 55.1762 13.8116 54.4429 13.8116C53.7229 13.8116 53.1162 14.0716 52.6229 14.5916C52.1296 15.1116 51.8829 15.8516 51.8829 16.8116C51.8829 17.7716 52.1296 18.5116 52.6229 19.0316C53.1162 19.5383 53.7229 19.7916 54.4429 19.7916ZM65.7551 22.2316C64.9284 22.2316 64.1684 22.025 63.4751 21.6116C62.7951 21.1983 62.2484 20.5916 61.8351 19.7916C61.4351 18.9783 61.2351 17.985 61.2351 16.8116C61.2351 15.625 61.4417 14.6316 61.8551 13.8316C62.2817 13.0183 62.8351 12.4116 63.5151 12.0116C64.2084 11.5983 64.9617 11.3916 65.7751 11.3916C66.5351 11.3916 67.1684 11.5316 67.6751 11.8116C68.1817 12.0916 68.5617 12.4516 68.8151 12.8916H68.9751V11.7116H71.4151V21.9116H68.9751V20.7516H68.8151C68.5351 21.1516 68.1417 21.4983 67.6351 21.7916C67.1284 22.085 66.5017 22.2316 65.7551 22.2316ZM66.3951 19.7916C67.1284 19.7916 67.7417 19.545 68.2351 19.0516C68.7284 18.5583 68.9751 17.8116 68.9751 16.8116C68.9751 15.8116 68.7284 15.065 68.2351 14.5716C67.7417 14.065 67.1284 13.8116 66.3951 13.8116C65.6751 13.8116 65.0684 14.065 64.5751 14.5716C64.0817 15.065 63.8351 15.8116 63.8351 16.8116C63.8351 17.8116 64.0817 18.5583 64.5751 19.0516C65.0684 19.545 65.6751 19.7916 66.3951 19.7916ZM78.4473 22.2316C77.0206 22.2316 75.9339 21.925 75.1873 21.3116C74.4539 20.685 74.0073 19.8916 73.8473 18.9316L76.3273 18.5116C76.4339 18.925 76.6473 19.265 76.9673 19.5316C77.2873 19.7983 77.7806 19.9316 78.4473 19.9316C78.9939 19.9316 79.4339 19.845 79.7673 19.6716C80.1139 19.4983 80.2873 19.2383 80.2873 18.8916C80.2873 18.5583 80.1139 18.2916 79.7673 18.0916C79.4339 17.8916 78.9539 17.7383 78.3273 17.6316L77.1673 17.4316C76.3539 17.285 75.6739 16.9716 75.1273 16.4916C74.5806 15.9983 74.3073 15.3316 74.3073 14.4916C74.3073 13.8783 74.4806 13.345 74.8273 12.8916C75.1739 12.425 75.6473 12.0583 76.2473 11.7916C76.8606 11.525 77.5539 11.3916 78.3273 11.3916C79.5939 11.3916 80.5739 11.645 81.2673 12.1516C81.9739 12.645 82.4139 13.3583 82.5873 14.2916L80.3073 14.6516C80.1606 14.225 79.9139 13.925 79.5673 13.7516C79.2339 13.565 78.8339 13.4716 78.3673 13.4716C77.8739 13.4716 77.4806 13.565 77.1873 13.7516C76.8939 13.9383 76.7473 14.1583 76.7473 14.4116C76.7473 14.6783 76.8606 14.8983 77.0873 15.0716C77.3273 15.245 77.7139 15.385 78.2473 15.4916L79.6873 15.7516C80.7406 15.9383 81.5339 16.2583 82.0673 16.7116C82.6139 17.165 82.8873 17.8783 82.8873 18.8516C82.8873 19.545 82.6939 20.145 82.3073 20.6516C81.9339 21.1583 81.4139 21.5516 80.7473 21.8316C80.0806 22.0983 79.3139 22.2316 78.4473 22.2316ZM90.5595 22.2316C89.5328 22.2316 88.6395 22.0116 87.8795 21.5716C87.1328 21.1316 86.5528 20.505 86.1395 19.6916C85.7261 18.8783 85.5195 17.9183 85.5195 16.8116C85.5195 15.705 85.7395 14.745 86.1795 13.9316C86.6195 13.1183 87.2195 12.4916 87.9795 12.0516C88.7395 11.6116 89.6061 11.3916 90.5795 11.3916C92.2061 11.3916 93.4061 11.8316 94.1795 12.7116C94.9661 13.5916 95.3595 14.785 95.3595 16.2916C95.3595 16.465 95.3528 16.6516 95.3395 16.8516C95.3395 17.0516 95.3261 17.2383 95.2995 17.4116H88.0195C88.1128 18.2383 88.3995 18.865 88.8795 19.2916C89.3728 19.7183 89.9661 19.9316 90.6595 19.9316C91.2328 19.9316 91.6995 19.7916 92.0595 19.5116C92.4328 19.2183 92.6995 18.865 92.8595 18.4516L95.1195 19.0716C94.7995 20.0316 94.2595 20.7983 93.4995 21.3716C92.7528 21.945 91.7728 22.2316 90.5595 22.2316ZM90.5995 13.4916C90.0128 13.4916 89.4995 13.665 89.0595 14.0116C88.6328 14.3583 88.3328 14.8783 88.1595 15.5716H92.8795C92.8261 14.945 92.6061 14.445 92.2195 14.0716C91.8328 13.685 91.2928 13.4916 90.5995 13.4916ZM113.724 22.2316C112.897 22.2316 112.137 22.025 111.444 21.6116C110.764 21.1983 110.217 20.5916 109.804 19.7916C109.404 18.9783 109.204 17.985 109.204 16.8116C109.204 15.625 109.41 14.6316 109.824 13.8316C110.25 13.0183 110.804 12.4116 111.484 12.0116C112.177 11.5983 112.93 11.3916 113.744 11.3916C114.504 11.3916 115.137 11.5316 115.644 11.8116C116.15 12.0916 116.53 12.4516 116.784 12.8916H116.944V11.7116H119.384V21.9116H116.944V20.7516H116.784C116.504 21.1516 116.11 21.4983 115.604 21.7916C115.097 22.085 114.47 22.2316 113.724 22.2316ZM114.364 19.7916C115.097 19.7916 115.71 19.545 116.204 19.0516C116.697 18.5583 116.944 17.8116 116.944 16.8116C116.944 15.8116 116.697 15.065 116.204 14.5716C115.71 14.065 115.097 13.8116 114.364 13.8116C113.644 13.8116 113.037 14.065 112.544 14.5716C112.05 15.065 111.804 15.8116 111.804 16.8116C111.804 17.8116 112.05 18.5583 112.544 19.0516C113.037 19.545 113.644 19.7916 114.364 19.7916ZM122.976 21.9116V11.7116H125.416V13.3516H125.576C125.909 12.7116 126.336 12.225 126.856 11.8916C127.376 11.5583 128.023 11.3916 128.796 11.3916C129.516 11.3916 130.116 11.5116 130.596 11.7516V14.4316C130.263 14.245 129.896 14.0983 129.496 13.9916C129.109 13.8716 128.696 13.8116 128.256 13.8116C127.469 13.8116 126.823 14.065 126.316 14.5716C125.823 15.0783 125.576 15.7983 125.576 16.7316V21.9116H122.976ZM138.588 22.2316C137.588 22.2316 136.702 22.0116 135.928 21.5716C135.168 21.1183 134.568 20.485 134.128 19.6716C133.702 18.8583 133.488 17.905 133.488 16.8116C133.488 15.7183 133.708 14.765 134.148 13.9516C134.588 13.1383 135.195 12.5116 135.968 12.0716C136.755 11.6183 137.662 11.3916 138.688 11.3916C139.902 11.3916 140.935 11.685 141.788 12.2716C142.655 12.845 143.195 13.7183 143.408 14.8916L140.868 15.2916C140.735 14.785 140.462 14.4116 140.048 14.1716C139.648 13.9183 139.175 13.7916 138.628 13.7916C137.948 13.7916 137.355 14.0516 136.848 14.5716C136.342 15.0783 136.088 15.825 136.088 16.8116C136.088 17.785 136.335 18.5316 136.828 19.0516C137.335 19.5583 137.935 19.8116 138.628 19.8116C139.228 19.8116 139.708 19.665 140.068 19.3716C140.442 19.065 140.715 18.645 140.888 18.1116L143.388 18.6916C143.135 19.705 142.608 20.5516 141.808 21.2316C141.008 21.8983 139.935 22.2316 138.588 22.2316ZM145.68 21.9116V7.59162H148.28V11.3716L148.12 13.0716H148.28C148.547 12.565 148.967 12.1583 149.54 11.8516C150.114 11.545 150.734 11.3916 151.4 11.3916C152.68 11.3916 153.634 11.7583 154.26 12.4916C154.887 13.2116 155.2 14.1916 155.2 15.4316V21.9116H152.6V15.7916C152.6 15.1516 152.434 14.665 152.1 14.3316C151.767 13.985 151.294 13.8116 150.68 13.8116C149.96 13.8116 149.38 14.0783 148.94 14.6116C148.5 15.1316 148.28 15.805 148.28 16.6316V21.9116H145.68ZM162.393 10.1116C161.859 10.1116 161.406 9.93162 161.033 9.57162C160.673 9.19829 160.493 8.74495 160.493 8.21162C160.493 7.67829 160.673 7.23162 161.033 6.87162C161.406 6.49829 161.859 6.31162 162.393 6.31162C162.926 6.31162 163.373 6.49829 163.733 6.87162C164.106 7.23162 164.293 7.67829 164.293 8.21162C164.293 8.74495 164.106 9.19829 163.733 9.57162C163.373 9.93162 162.926 10.1116 162.393 10.1116ZM157.633 21.9116V19.5516H161.073V14.0716H158.233V11.7116H163.693V19.5516H167.153V21.9116H157.633ZM176.125 22.2316C175.031 22.2316 174.151 21.8916 173.485 21.2116C172.831 20.5183 172.505 19.545 172.505 18.2916V13.9316H170.245V11.7116H172.505V8.91162H175.105V11.7116H178.785V13.9316H175.105V18.0916C175.105 18.6383 175.238 19.0583 175.505 19.3516C175.771 19.645 176.151 19.7916 176.645 19.7916C176.911 19.7916 177.158 19.7583 177.385 19.6916C177.625 19.625 177.878 19.5116 178.145 19.3516L178.925 21.5516C178.511 21.805 178.105 21.9783 177.705 22.0716C177.318 22.1783 176.791 22.2316 176.125 22.2316ZM186.497 22.2316C185.47 22.2316 184.577 22.0116 183.817 21.5716C183.07 21.1316 182.49 20.505 182.077 19.6916C181.664 18.8783 181.457 17.9183 181.457 16.8116C181.457 15.705 181.677 14.745 182.117 13.9316C182.557 13.1183 183.157 12.4916 183.917 12.0516C184.677 11.6116 185.544 11.3916 186.517 11.3916C188.144 11.3916 189.344 11.8316 190.117 12.7116C190.904 13.5916 191.297 14.785 191.297 16.2916C191.297 16.465 191.29 16.6516 191.277 16.8516C191.277 17.0516 191.264 17.2383 191.237 17.4116H183.957C184.05 18.2383 184.337 18.865 184.817 19.2916C185.31 19.7183 185.904 19.9316 186.597 19.9316C187.17 19.9316 187.637 19.7916 187.997 19.5116C188.37 19.2183 188.637 18.865 188.797 18.4516L191.057 19.0716C190.737 20.0316 190.197 20.7983 189.437 21.3716C188.69 21.945 187.71 22.2316 186.497 22.2316ZM186.537 13.4916C185.95 13.4916 185.437 13.665 184.997 14.0116C184.57 14.3583 184.27 14.8783 184.097 15.5716H188.817C188.764 14.945 188.544 14.445 188.157 14.0716C187.77 13.685 187.23 13.4916 186.537 13.4916ZM198.549 22.2316C197.549 22.2316 196.662 22.0116 195.889 21.5716C195.129 21.1183 194.529 20.485 194.089 19.6716C193.662 18.8583 193.449 17.905 193.449 16.8116C193.449 15.7183 193.669 14.765 194.109 13.9516C194.549 13.1383 195.156 12.5116 195.929 12.0716C196.716 11.6183 197.622 11.3916 198.649 11.3916C199.862 11.3916 200.896 11.685 201.749 12.2716C202.616 12.845 203.156 13.7183 203.369 14.8916L200.829 15.2916C200.696 14.785 200.422 14.4116 200.009 14.1716C199.609 13.9183 199.136 13.7916 198.589 13.7916C197.909 13.7916 197.316 14.0516 196.809 14.5716C196.302 15.0783 196.049 15.825 196.049 16.8116C196.049 17.785 196.296 18.5316 196.789 19.0516C197.296 19.5583 197.896 19.8116 198.589 19.8116C199.189 19.8116 199.669 19.665 200.029 19.3716C200.402 19.065 200.676 18.645 200.849 18.1116L203.349 18.6916C203.096 19.705 202.569 20.5516 201.769 21.2316C200.969 21.8983 199.896 22.2316 198.549 22.2316ZM212.101 22.2316C211.008 22.2316 210.128 21.8916 209.461 21.2116C208.808 20.5183 208.481 19.545 208.481 18.2916V13.9316H206.221V11.7116H208.481V8.91162H211.081V11.7116H214.761V13.9316H211.081V18.0916C211.081 18.6383 211.215 19.0583 211.481 19.3516C211.748 19.645 212.128 19.7916 212.621 19.7916C212.888 19.7916 213.135 19.7583 213.361 19.6916C213.601 19.625 213.855 19.5116 214.121 19.3516L214.901 21.5516C214.488 21.805 214.081 21.9783 213.681 22.0716C213.295 22.1783 212.768 22.2316 212.101 22.2316ZM221.214 22.2316C220.04 22.2316 219.147 21.8716 218.534 21.1516C217.934 20.4316 217.634 19.445 217.634 18.1916V11.7116H220.234V17.8316C220.234 18.4583 220.387 18.945 220.694 19.2916C221 19.625 221.434 19.7916 221.994 19.7916C222.687 19.7916 223.234 19.5383 223.634 19.0316C224.034 18.525 224.234 17.885 224.234 17.1116V11.7116H226.834V21.9116H224.394V20.6716H224.234C223.94 21.1516 223.527 21.5316 222.994 21.8116C222.46 22.0916 221.867 22.2316 221.214 22.2316ZM230.906 21.9116V11.7116H233.346V13.3516H233.506C233.839 12.7116 234.266 12.225 234.786 11.8916C235.306 11.5583 235.952 11.3916 236.726 11.3916C237.446 11.3916 238.046 11.5116 238.526 11.7516V14.4316C238.192 14.245 237.826 14.0983 237.426 13.9916C237.039 13.8716 236.626 13.8116 236.186 13.8116C235.399 13.8116 234.752 14.065 234.246 14.5716C233.752 15.0783 233.506 15.7983 233.506 16.7316V21.9116H230.906ZM246.458 22.2316C245.431 22.2316 244.538 22.0116 243.778 21.5716C243.031 21.1316 242.451 20.505 242.038 19.6916C241.625 18.8783 241.418 17.9183 241.418 16.8116C241.418 15.705 241.638 14.745 242.078 13.9316C242.518 13.1183 243.118 12.4916 243.878 12.0516C244.638 11.6116 245.505 11.3916 246.478 11.3916C248.105 11.3916 249.305 11.8316 250.078 12.7116C250.865 13.5916 251.258 14.785 251.258 16.2916C251.258 16.465 251.251 16.6516 251.238 16.8516C251.238 17.0516 251.225 17.2383 251.198 17.4116H243.918C244.011 18.2383 244.298 18.865 244.778 19.2916C245.271 19.7183 245.865 19.9316 246.558 19.9316C247.131 19.9316 247.598 19.7916 247.958 19.5116C248.331 19.2183 248.598 18.865 248.758 18.4516L251.018 19.0716C250.698 20.0316 250.158 20.7983 249.398 21.3716C248.651 21.945 247.671 22.2316 246.458 22.2316ZM246.498 13.4916C245.911 13.4916 245.398 13.665 244.958 14.0116C244.531 14.3583 244.231 14.8783 244.058 15.5716H248.778C248.725 14.945 248.505 14.445 248.118 14.0716C247.731 13.685 247.191 13.4916 246.498 13.4916Z" fill="white"/>
</svg>
