<svg width="1689" height="749" fill="none" xmlns="http://www.w3.org/2000/svg"><path d="M179.592 180.498V47.183h50.273c13.53 0 24.205 3.724 32.025 11.171 7.944 7.324 11.916 17.627 11.916 30.909 0 9.185-2.606 17.067-7.82 23.646-5.089 6.455-11.668 10.986-19.736 13.592l-.186 1.304 28.487 51.203v1.49h-26.998l-28.301-50.087h-14.71v50.087h-24.95Zm24.95-73.175h25.136c5.71 0 10.303-1.551 13.779-4.655 3.475-3.227 5.213-7.82 5.213-13.778s-1.613-10.489-4.841-13.592c-3.227-3.228-7.882-4.841-13.964-4.841h-25.323v36.866Zm134.546 76.154c-9.558 0-17.875-2.048-24.95-6.145-6.951-4.096-12.351-9.93-16.199-17.502-3.848-7.572-5.772-16.509-5.772-26.812s2.048-19.24 6.144-26.812c4.097-7.572 9.682-13.406 16.758-17.502 7.075-4.096 15.144-6.144 24.205-6.144 15.144 0 26.315 4.096 33.515 12.288 7.324 8.193 10.985 19.302 10.985 33.329a78.71 78.71 0 0 1-.186 5.213c0 1.862-.124 3.6-.372 5.214h-67.775c.869 7.696 3.538 13.53 8.007 17.502 4.592 3.972 10.116 5.958 16.571 5.958 5.337 0 9.682-1.303 13.033-3.91 3.476-2.731 5.959-6.02 7.448-9.868l21.04 5.772c-2.979 8.937-8.006 16.075-15.082 21.412-6.951 5.338-16.074 8.007-27.37 8.007Zm.372-81.367c-5.461 0-10.24 1.614-14.337 4.841-3.972 3.227-6.765 8.068-8.378 14.523h43.941c-.496-5.834-2.544-10.489-6.144-13.965-3.6-3.599-8.627-5.399-15.082-5.399Zm103.638 81.367c-7.696 0-14.772-1.924-21.226-5.772-6.331-3.848-11.42-9.496-15.268-16.944-3.724-7.572-5.586-16.82-5.586-27.743 0-11.047 1.924-20.295 5.772-27.743 3.972-7.572 9.123-13.22 15.454-16.944 6.455-3.847 13.468-5.772 21.04-5.772 7.075 0 12.971 1.304 17.688 3.91 4.717 2.607 8.255 5.959 10.613 10.055h1.49V85.539h22.716v94.959h-22.716v-10.8h-1.49c-2.606 3.724-6.268 6.952-10.985 9.682-4.717 2.731-10.551 4.097-17.502 4.097Zm5.958-22.716c6.827 0 12.537-2.296 17.13-6.889 4.592-4.593 6.889-11.544 6.889-20.854 0-9.31-2.297-16.261-6.889-20.854-4.593-4.717-10.303-7.075-17.13-7.075-6.703 0-12.351 2.358-16.944 7.075-4.593 4.593-6.889 11.544-6.889 20.854 0 9.31 2.296 16.261 6.889 20.854s10.241 6.889 16.944 6.889Zm105.685 22.716c-7.696 0-14.771-1.924-21.226-5.772-6.33-3.848-11.42-9.496-15.268-16.944-3.724-7.572-5.586-16.82-5.586-27.743 0-11.047 1.924-20.295 5.772-27.743 3.973-7.572 9.124-13.22 15.455-16.944 6.454-3.847 13.468-5.772 21.04-5.772 7.075 0 12.971 1.304 17.688 3.91 4.717 2.607 8.255 5.959 10.613 10.055h1.49l-1.49-14.15V47.182h24.205v133.315h-22.715v-10.8h-1.49c-2.607 3.724-6.268 6.952-10.985 9.682-4.717 2.731-10.551 4.097-17.503 4.097Zm5.959-22.716c6.827 0 12.537-2.296 17.129-6.889 4.593-4.593 6.89-11.544 6.89-20.854 0-9.31-2.297-16.261-6.89-20.854-4.592-4.717-10.302-7.075-17.129-7.075-6.703 0-12.351 2.358-16.944 7.075-4.593 4.593-6.889 11.544-6.889 20.854 0 9.31 2.296 16.261 6.889 20.854s10.241 6.889 16.944 6.889Zm112.202 22.716c-13.282 0-23.399-2.855-30.35-8.565-6.827-5.834-10.985-13.22-12.475-22.157l23.088-3.91c.993 3.848 2.979 7.013 5.959 9.495 2.979 2.483 7.571 3.724 13.778 3.724 5.089 0 9.185-.806 12.289-2.42 3.227-1.614 4.841-4.034 4.841-7.262 0-3.103-1.614-5.586-4.841-7.448-3.104-1.861-7.572-3.289-13.406-4.282l-10.8-1.862c-7.571-1.365-13.902-4.282-18.991-8.751-5.09-4.593-7.634-10.799-7.634-18.619 0-5.71 1.613-10.676 4.841-14.896 3.227-4.344 7.634-7.758 13.22-10.24 5.709-2.483 12.164-3.725 19.364-3.725 11.792 0 20.916 2.359 27.37 7.076 6.579 4.593 10.675 11.234 12.289 19.923l-21.226 3.351c-1.366-3.972-3.662-6.765-6.889-8.379-3.103-1.737-6.827-2.606-11.172-2.606-4.593 0-8.255.869-10.985 2.606-2.731 1.738-4.097 3.786-4.097 6.145 0 2.482 1.055 4.53 3.166 6.144 2.234 1.614 5.834 2.917 10.799 3.91l13.406 2.421c9.806 1.738 17.192 4.717 22.157 8.937 5.089 4.22 7.634 10.861 7.634 19.923 0 6.455-1.8 12.04-5.4 16.757-3.475 4.717-8.316 8.379-14.523 10.986-6.206 2.482-13.344 3.724-21.412 3.724Z" fill="#FFD557"/><path d="M13.227 597.507.29 484.56H20.8l4.101 61.206.631 13.409h1.262l.947-13.409 9.465-45.431h21.138l9.465 45.431.946 13.409h1.262l.631-13.409 4.101-61.206h20.508L82.32 597.507H60.551L49.51 543.084l-1.105-12.462h-1.261l-1.105 12.462-11.042 54.423h-21.77Zm102.001 0v-80.451h19.245v12.935h1.262c2.629-5.048 5.995-8.886 10.096-11.515 4.101-2.629 9.202-3.944 15.302-3.944 5.679 0 10.411.946 14.197 2.839v21.139c-2.629-1.473-5.521-2.629-8.676-3.471-3.05-.946-6.31-1.42-9.781-1.42-6.204 0-11.305 1.999-15.301 5.995-3.891 3.996-5.837 9.675-5.837 17.037v40.856h-20.507Zm121.72-93.071c-4.207 0-7.783-1.42-10.727-4.259-2.84-2.945-4.259-6.52-4.259-10.727 0-4.207 1.419-7.73 4.259-10.569 2.944-2.945 6.52-4.417 10.727-4.417 4.206 0 7.729 1.472 10.569 4.417 2.944 2.839 4.417 6.362 4.417 10.569 0 4.207-1.473 7.782-4.417 10.727-2.84 2.839-6.363 4.259-10.569 4.259Zm-37.544 93.071v-18.614h27.132V535.67h-22.4v-18.614h43.065v61.837h27.291v18.614h-75.088Zm145.855 2.524c-8.624 0-15.565-2.681-20.823-8.045-5.153-5.468-7.73-13.145-7.73-23.031v-34.389h-17.825v-17.51h17.825v-22.085h20.508v22.085h29.025v17.51h-29.025v32.811c0 4.312 1.051 7.625 3.155 9.939 2.103 2.313 5.1 3.47 8.991 3.47 2.103 0 4.049-.263 5.837-.789 1.893-.526 3.891-1.419 5.994-2.681l6.152 17.352c-3.26 1.998-6.467 3.365-9.622 4.101-3.05.842-7.204 1.262-12.462 1.262Zm81.809 0c-8.098 0-15.144-1.735-21.138-5.205-5.889-3.471-10.464-8.414-13.724-14.829-3.26-6.415-4.89-13.987-4.89-22.715 0-8.729 1.735-16.301 5.205-22.716 3.471-6.415 8.203-11.358 14.198-14.828 5.994-3.471 12.83-5.206 20.507-5.206 12.83 0 22.295 3.47 28.395 10.411 6.204 6.941 9.307 16.354 9.307 28.237 0 1.367-.053 2.84-.158 4.417 0 1.578-.105 3.05-.316 4.417h-57.42c.736 6.52 2.997 11.463 6.783 14.828 3.892 3.366 8.571 5.048 14.04 5.048 4.522 0 8.203-1.104 11.042-3.312 2.945-2.314 5.048-5.101 6.31-8.361l17.826 4.89c-2.524 7.572-6.783 13.619-12.778 18.141-5.889 4.522-13.619 6.783-23.189 6.783Zm.316-68.935c-4.628 0-8.676 1.367-12.147 4.101-3.365 2.734-5.731 6.836-7.099 12.304h37.229c-.421-4.942-2.156-8.886-5.206-11.831-3.05-3.05-7.309-4.574-12.777-4.574Zm93.325 68.935c-11.253 0-19.824-2.419-25.713-7.256-5.784-4.943-9.307-11.2-10.569-18.772l19.56-3.313c.842 3.26 2.524 5.942 5.048 8.045 2.524 2.104 6.416 3.155 11.674 3.155 4.312 0 7.782-.683 10.411-2.05 2.734-1.368 4.102-3.418 4.102-6.153 0-2.629-1.368-4.732-4.102-6.31-2.629-1.577-6.415-2.786-11.358-3.628l-9.149-1.577c-6.415-1.157-11.779-3.628-16.09-7.414-4.312-3.891-6.468-9.15-6.468-15.775 0-4.838 1.367-9.044 4.101-12.62 2.735-3.681 6.468-6.573 11.201-8.676 4.837-2.103 10.306-3.155 16.405-3.155 9.991 0 17.721 1.998 23.189 5.994 5.574 3.892 9.044 9.518 10.412 16.879l-17.984 2.84c-1.157-3.365-3.102-5.732-5.836-7.099-2.629-1.472-5.784-2.208-9.465-2.208-3.891 0-6.994.736-9.307 2.208-2.314 1.473-3.471 3.208-3.471 5.206 0 2.103.894 3.838 2.682 5.206 1.893 1.367 4.943 2.471 9.149 3.312l11.358 2.051c8.308 1.472 14.566 3.996 18.772 7.572 4.312 3.576 6.468 9.202 6.468 16.879 0 5.469-1.525 10.201-4.575 14.197-2.945 3.996-7.046 7.099-12.304 9.307-5.259 2.104-11.305 3.155-18.141 3.155Z" fill="#E9E9E9"/><path d="M601.995 588.275c0 7.364 5.969 13.334 13.333 13.334s13.333-5.97 13.333-13.334c0-7.363-5.969-13.333-13.333-13.333s-13.333 5.97-13.333 13.333Zm594.725 117.614c0 7.363 5.97 13.333 13.33 13.333s13.33-5.97 13.33-13.333c0-7.364-5.97-13.334-13.33-13.334s-13.33 5.97-13.33 13.334ZM614.46 590.62c37.228 13.789 64.872 31.222 92.551 48.934 27.669 17.705 55.393 35.704 92.536 50.303 74.33 29.215 185.99 44.682 410.793 18.515l-.58-4.967c-224.481 26.13-335.177 10.572-408.384-18.202-36.626-14.396-63.965-32.133-91.67-49.861-27.693-17.721-55.732-35.418-93.51-49.411l-1.736 4.689Z" fill="#4C8DF6"/><path d="M361.449 374.075c-5.241 0-9.794-1.114-13.659-3.341-3.8-2.293-6.748-5.438-8.844-9.434-2.097-4.062-3.145-8.681-3.145-13.856 0-5.241 1.048-9.86 3.145-13.856 2.096-3.996 5.044-7.108 8.844-9.336 3.865-2.293 8.418-3.439 13.659-3.439 5.242 0 9.762 1.146 13.562 3.439 3.865 2.228 6.846 5.34 8.942 9.336 2.097 3.996 3.145 8.615 3.145 13.856 0 5.175-1.048 9.794-3.145 13.856-2.096 3.996-5.077 7.141-8.942 9.434-3.8 2.227-8.32 3.341-13.562 3.341Zm0-11.989c3.8 0 6.879-1.245 9.238-3.734 2.424-2.49 3.636-6.126 3.636-10.908 0-4.848-1.212-8.484-3.636-10.908-2.359-2.49-5.438-3.734-9.238-3.734-3.799 0-6.911 1.244-9.335 3.734-2.359 2.424-3.538 6.06-3.538 10.908 0 4.782 1.179 8.418 3.538 10.908 2.424 2.489 5.536 3.734 9.335 3.734Zm52.438 10.416-21.03-50.117h14.446l12.676 32.331h.787l12.676-32.331h14.249l-21.226 50.117h-12.578Zm65.998 1.573c-5.044 0-9.434-1.081-13.168-3.243-3.669-2.162-6.518-5.241-8.549-9.237-2.031-3.997-3.047-8.714-3.047-14.151 0-5.438 1.081-10.155 3.243-14.151 2.162-3.996 5.11-7.075 8.845-9.237 3.734-2.162 7.992-3.243 12.775-3.243 7.992 0 13.888 2.162 17.688 6.486 3.865 4.323 5.798 10.187 5.798 17.59 0 .851-.033 1.769-.098 2.751 0 .983-.066 1.9-.197 2.752h-35.77c.459 4.062 1.867 7.141 4.226 9.237 2.424 2.097 5.339 3.145 8.746 3.145 2.817 0 5.11-.688 6.878-2.064 1.835-1.441 3.145-3.177 3.931-5.208l11.105 3.046c-1.573 4.717-4.226 8.484-7.96 11.301-3.669 2.817-8.484 4.226-14.446 4.226Zm.197-42.944c-2.883 0-5.405.852-7.567 2.555-2.096 1.703-3.57 4.258-4.422 7.665h23.191c-.262-3.079-1.343-5.536-3.242-7.37-1.9-1.9-4.554-2.85-7.96-2.85Zm41.234 41.371v-50.117h11.989v8.058h.786c1.638-3.144 3.735-5.536 6.29-7.173 2.555-1.638 5.732-2.457 9.532-2.457 3.537 0 6.485.59 8.844 1.769v13.168c-1.638-.917-3.439-1.638-5.405-2.162-1.9-.59-3.931-.885-6.093-.885-3.865 0-7.042 1.245-9.532 3.735-2.424 2.489-3.636 6.027-3.636 10.613v25.451h-12.775Z" fill="#BDBDBD"/><path d="m1176.27 116.998 33.89-68.736h10.27l-33.88 68.736h-10.28Zm80.32 1.536c-4.93 0-9.18-1.088-12.77-3.264-3.52-2.176-6.27-5.216-8.25-9.12-1.92-3.904-2.88-8.416-2.88-13.536 0-5.184.99-9.728 2.97-13.632 2.05-3.968 4.87-7.04 8.45-9.216 3.65-2.176 7.81-3.264 12.48-3.264 7.36 0 12.96 2.112 16.8 6.336 3.84 4.16 5.76 9.824 5.76 16.992 0 1.728-.1 3.36-.29 4.896h-36.19c.32 4.736 1.76 8.352 4.32 10.848 2.62 2.496 5.95 3.744 9.98 3.744 3.27 0 5.86-.736 7.78-2.208 1.92-1.536 3.3-3.424 4.13-5.664l8.93 2.4c-1.35 4.416-3.81 7.968-7.4 10.656-3.52 2.688-8.12 4.032-13.82 4.032Zm0-43.392c-3.39 0-6.27.992-8.64 2.976-2.37 1.984-3.97 4.96-4.8 8.928h25.92c-.19-3.584-1.34-6.464-3.46-8.64-2.11-2.176-5.12-3.264-9.02-3.264Zm33.08 41.856 17.67-24.864-17.57-24.096h12l11.61 16.224h.29l11.14-16.224h12.38l-17.85 24.096 17.85 24.864h-11.9l-11.81-16.8h-.19l-11.81 16.8h-11.81Zm58.52 20.736V68.038h9.6v6.336h.58c1.28-2.112 3.2-3.936 5.76-5.472 2.62-1.6 5.73-2.4 9.31-2.4 4.23 0 7.97 1.056 11.23 3.168 3.33 2.048 5.92 5.024 7.78 8.928 1.86 3.84 2.78 8.48 2.78 13.92 0 5.376-.92 10.016-2.78 13.92-1.86 3.904-4.45 6.912-7.78 9.024-3.26 2.048-7 3.072-11.23 3.072-3.71 0-6.85-.768-9.41-2.304-2.56-1.536-4.44-3.328-5.66-5.376h-.58l.58 7.008v19.872h-10.18Zm23.24-28.704c3.9 0 7.13-1.376 9.69-4.128 2.63-2.816 3.94-6.944 3.94-12.384s-1.31-9.536-3.94-12.288c-2.56-2.816-5.79-4.224-9.69-4.224-3.91 0-7.17 1.408-9.8 4.224-2.56 2.752-3.84 6.848-3.84 12.288s1.28 9.568 3.84 12.384c2.63 2.752 5.89 4.128 9.8 4.128Zm57.85 9.504c-4.93 0-9.19-1.088-12.77-3.264-3.52-2.176-6.27-5.216-8.26-9.12-1.92-3.904-2.88-8.416-2.88-13.536 0-5.184.99-9.728 2.98-13.632 2.05-3.968 4.86-7.04 8.45-9.216 3.64-2.176 7.8-3.264 12.48-3.264 7.36 0 12.96 2.112 16.8 6.336 3.84 4.16 5.76 9.824 5.76 16.992 0 1.728-.1 3.36-.29 4.896h-36.19c.32 4.736 1.76 8.352 4.32 10.848 2.62 2.496 5.95 3.744 9.98 3.744 3.26 0 5.86-.736 7.78-2.208 1.92-1.536 3.29-3.424 4.12-5.664l8.93 2.4c-1.34 4.416-3.81 7.968-7.39 10.656-3.52 2.688-8.13 4.032-13.82 4.032Zm0-43.392c-3.4 0-6.28.992-8.64 2.976-2.37 1.984-3.97 4.96-4.8 8.928h25.92c-.2-3.584-1.35-6.464-3.46-8.64s-5.12-3.264-9.02-3.264Zm36.25 41.856v-48.96h9.69v6.144h.58c1.28-2.304 3.23-4.16 5.86-5.568 2.68-1.408 5.63-2.112 8.83-2.112 5.5 0 9.76 1.664 12.77 4.992 3 3.328 4.51 7.904 4.51 13.728v31.776h-10.18V86.566c0-3.584-.93-6.24-2.78-7.968-1.86-1.728-4.26-2.592-7.2-2.592-3.59 0-6.47 1.312-8.64 3.936-2.11 2.624-3.17 5.76-3.17 9.408v27.648h-10.27Zm78.39 1.536c-6.4 0-11.33-1.408-14.78-4.224-3.46-2.816-5.7-6.528-6.72-11.136l9.89-1.824c.57 2.368 1.79 4.32 3.64 5.856 1.92 1.472 4.58 2.208 7.97 2.208 2.88 0 5.31-.512 7.3-1.536 2.05-1.088 3.07-2.656 3.07-4.704 0-1.984-.86-3.52-2.59-4.608-1.67-1.088-4.13-1.952-7.39-2.592l-5.96-1.056c-4.09-.704-7.45-2.208-10.08-4.512-2.62-2.304-3.93-5.472-3.93-9.504 0-2.816.83-5.28 2.49-7.392 1.67-2.176 3.91-3.872 6.72-5.088 2.88-1.28 6.15-1.92 9.8-1.92 5.37 0 9.76 1.088 13.15 3.264 3.45 2.176 5.63 5.6 6.53 10.272l-9.12 1.632c-.77-2.432-2.08-4.128-3.94-5.088-1.86-1.024-4.03-1.536-6.53-1.536-2.56 0-4.73.544-6.53 1.632-1.79 1.024-2.68 2.336-2.68 3.936 0 1.728.7 3.104 2.11 4.128 1.47.96 3.58 1.696 6.33 2.208l7.11 1.248c4.8.832 8.45 2.368 10.94 4.608 2.5 2.176 3.75 5.536 3.75 10.08 0 3.136-.9 5.888-2.69 8.256-1.79 2.368-4.26 4.192-7.39 5.472-3.14 1.28-6.63 1.92-10.47 1.92Zm58.04 0c-4.92 0-9.18-1.088-12.76-3.264-3.52-2.176-6.28-5.216-8.26-9.12-1.92-3.904-2.88-8.416-2.88-13.536 0-5.184.99-9.728 2.98-13.632 2.04-3.968 4.86-7.04 8.44-9.216 3.65-2.176 7.81-3.264 12.48-3.264 7.36 0 12.96 2.112 16.8 6.336 3.84 4.16 5.76 9.824 5.76 16.992 0 1.728-.09 3.36-.28 4.896h-36.2c.32 4.736 1.76 8.352 4.32 10.848 2.63 2.496 5.96 3.744 9.99 3.744 3.26 0 5.85-.736 7.77-2.208 1.92-1.536 3.3-3.424 4.13-5.664l8.93 2.4c-1.34 4.416-3.81 7.968-7.39 10.656-3.52 2.688-8.13 4.032-13.83 4.032Zm0-43.392c-3.39 0-6.27.992-8.64 2.976-2.36 1.984-3.96 4.96-4.8 8.928h25.92c-.19-3.584-1.34-6.464-3.45-8.64-2.11-2.176-5.12-3.264-9.03-3.264Zm57.09 43.392c-6.4 0-11.33-1.408-14.79-4.224-3.45-2.816-5.69-6.528-6.72-11.136l9.89-1.824c.58 2.368 1.79 4.32 3.65 5.856 1.92 1.472 4.57 2.208 7.97 2.208 2.88 0 5.31-.512 7.29-1.536 2.05-1.088 3.07-2.656 3.07-4.704 0-1.984-.86-3.52-2.59-4.608-1.66-1.088-4.13-1.952-7.39-2.592l-5.95-1.056c-4.1-.704-7.46-2.208-10.08-4.512-2.63-2.304-3.94-5.472-3.94-9.504 0-2.816.83-5.28 2.5-7.392 1.66-2.176 3.9-3.872 6.72-5.088 2.88-1.28 6.14-1.92 9.79-1.92 5.38 0 9.76 1.088 13.15 3.264 3.46 2.176 5.63 5.6 6.53 10.272l-9.12 1.632c-.77-2.432-2.08-4.128-3.94-5.088-1.85-1.024-4.03-1.536-6.52-1.536-2.56 0-4.74.544-6.53 1.632-1.79 1.024-2.69 2.336-2.69 3.936 0 1.728.7 3.104 2.11 4.128 1.47.96 3.59 1.696 6.34 2.208l7.1 1.248c4.8.832 8.45 2.368 10.95 4.608 2.49 2.176 3.74 5.536 3.74 10.08 0 3.136-.9 5.888-2.69 8.256-1.79 2.368-4.25 4.192-7.39 5.472-3.14 1.28-6.62 1.92-10.46 1.92Z" fill="#F0F0F0"/><path d="M1270.2 274.438c-3.5 0-6.21-.981-8.13-2.944-1.92-1.962-2.88-4.65-2.88-8.064v-10.304c0-1.92-.51-3.242-1.54-3.968-1.02-.768-2.2-1.152-3.52-1.152h-1.53v-5.76h1.53c1.32 0 2.5-.362 3.52-1.088 1.03-.768 1.54-2.112 1.54-4.032v-10.304c0-3.413.96-6.101 2.88-8.064 1.92-1.962 4.63-2.944 8.13-2.944h5.24v5.696h-4.8c-1.36 0-2.51.47-3.45 1.408-.94.939-1.41 2.283-1.41 4.032v10.624c0 4.011-1.69 6.464-5.06 7.36v.384c1.71.47 2.97 1.302 3.78 2.496.85 1.152 1.28 2.774 1.28 4.864v10.624c0 1.75.47 3.094 1.41 4.032.94.939 2.09 1.408 3.45 1.408h4.8v5.696h-5.24Zm70.92-46.72c-1.49 0-2.75-.512-3.77-1.536-1.03-1.024-1.54-2.282-1.54-3.776 0-1.45.51-2.688 1.54-3.712 1.02-1.024 2.28-1.536 3.77-1.536 1.5 0 2.75.512 3.78 1.536 1.02 1.024 1.53 2.262 1.53 3.712 0 1.494-.51 2.752-1.53 3.776-1.03 1.024-2.28 1.536-3.78 1.536Zm-14.65 38.784v-6.208h11.2V240.07h-9.28v-6.208h16.12v26.432h11.27v6.208h-29.31Zm51.55 1.024c-2.81 0-5.31-.682-7.48-2.048-2.18-1.408-3.91-3.413-5.19-6.016-1.23-2.602-1.85-5.696-1.85-9.28 0-3.626.64-6.72 1.92-9.28 1.28-2.602 3.03-4.586 5.24-5.952 2.22-1.408 4.72-2.112 7.49-2.112 2.48 0 4.55.491 6.21 1.472 1.66.939 2.9 2.155 3.71 3.648h.39l-.39-4.672v-12.608h6.79v45.824h-6.4v-4.096h-.39c-.89 1.323-2.17 2.518-3.84 3.584-1.62 1.024-3.69 1.536-6.21 1.536Zm1.35-6.336c2.6 0 4.76-.938 6.46-2.816 1.75-1.877 2.63-4.608 2.63-8.192 0-3.584-.88-6.314-2.63-8.192-1.7-1.877-3.86-2.816-6.46-2.816s-4.78.939-6.53 2.816c-1.71 1.878-2.56 4.608-2.56 8.192 0 3.584.85 6.315 2.56 8.192 1.75 1.878 3.93 2.816 6.53 2.816Zm38.5 5.696c-1.45 0-2.71-.512-3.77-1.536-1.07-1.066-1.6-2.346-1.6-3.84 0-1.45.53-2.709 1.6-3.776 1.06-1.066 2.32-1.6 3.77-1.6 1.45 0 2.71.534 3.78 1.6 1.06 1.067 1.6 2.326 1.6 3.776 0 1.494-.54 2.774-1.6 3.84-1.07 1.024-2.33 1.536-3.78 1.536Zm0-23.808c-1.45 0-2.71-.512-3.77-1.536-1.07-1.066-1.6-2.346-1.6-3.84 0-1.45.53-2.709 1.6-3.776 1.06-1.066 2.32-1.6 3.77-1.6 1.45 0 2.71.534 3.78 1.6 1.06 1.067 1.6 2.326 1.6 3.776 0 1.494-.54 2.774-1.6 3.84-1.07 1.024-2.33 1.536-3.78 1.536Zm76.75 23.808c-1.45 0-2.71-.512-3.77-1.536-1.07-1.066-1.6-2.346-1.6-3.84 0-1.45.53-2.709 1.6-3.776 1.06-1.066 2.32-1.6 3.77-1.6 1.45 0 2.71.534 3.78 1.6 1.06 1.067 1.6 2.326 1.6 3.776 0 1.494-.54 2.774-1.6 3.84-1.07 1.024-2.33 1.536-3.78 1.536Zm38.38 0c-1.45 0-2.71-.512-3.78-1.536-1.07-1.066-1.6-2.346-1.6-3.84 0-1.45.53-2.709 1.6-3.776 1.07-1.066 2.33-1.6 3.78-1.6 1.45 0 2.71.534 3.77 1.6 1.07 1.067 1.6 2.326 1.6 3.776 0 1.494-.53 2.774-1.6 3.84-1.06 1.024-2.32 1.536-3.77 1.536Zm38.37 0c-1.45 0-2.71-.512-3.77-1.536-1.07-1.066-1.6-2.346-1.6-3.84 0-1.45.53-2.709 1.6-3.776 1.06-1.066 2.32-1.6 3.77-1.6 1.45 0 2.71.534 3.78 1.6 1.06 1.067 1.6 2.326 1.6 3.776 0 1.494-.54 2.774-1.6 3.84-1.07 1.024-2.33 1.536-3.78 1.536Zm65.68 7.552v-5.696h4.8c1.37 0 2.52-.469 3.46-1.408.93-.938 1.4-2.282 1.4-4.032v-10.624c0-2.09.41-3.712 1.22-4.864.85-1.194 2.13-2.026 3.84-2.496v-.384c-3.37-.896-5.06-3.349-5.06-7.36V226.95c0-1.749-.47-3.093-1.4-4.032-.94-.938-2.09-1.408-3.46-1.408h-4.8v-5.696h5.25c3.5 0 6.21.982 8.13 2.944 1.92 1.963 2.88 4.651 2.88 8.064v10.304c0 1.92.51 3.264 1.53 4.032 1.03.726 2.2 1.088 3.52 1.088h1.54v5.76h-1.54c-1.32 0-2.49.384-3.52 1.152-1.02.726-1.53 2.048-1.53 3.968v10.304c0 3.414-.96 6.102-2.88 8.064-1.92 1.963-4.63 2.944-8.13 2.944h-5.25Z" fill="#FFEAAC"/><path d="M1270.2 738.438c-3.5 0-6.21-.981-8.13-2.944-1.92-1.962-2.88-4.65-2.88-8.064v-10.304c0-1.92-.51-3.242-1.54-3.968-1.02-.768-2.2-1.152-3.52-1.152h-1.53v-5.76h1.53c1.32 0 2.5-.362 3.52-1.088 1.03-.768 1.54-2.112 1.54-4.032v-10.304c0-3.413.96-6.101 2.88-8.064 1.92-1.962 4.63-2.944 8.13-2.944h5.24v5.696h-4.8c-1.36 0-2.51.47-3.45 1.408-.94.939-1.41 2.283-1.41 4.032v10.624c0 4.011-1.69 6.464-5.06 7.36v.384c1.71.47 2.97 1.302 3.78 2.496.85 1.152 1.28 2.774 1.28 4.864v10.624c0 1.75.47 3.094 1.41 4.032.94.939 2.09 1.408 3.45 1.408h4.8v5.696h-5.24Zm70.92-46.72c-1.49 0-2.75-.512-3.77-1.536-1.03-1.024-1.54-2.282-1.54-3.776 0-1.45.51-2.688 1.54-3.712 1.02-1.024 2.28-1.536 3.77-1.536 1.5 0 2.75.512 3.78 1.536 1.02 1.024 1.53 2.262 1.53 3.712 0 1.494-.51 2.752-1.53 3.776-1.03 1.024-2.28 1.536-3.78 1.536Zm-14.65 38.784v-6.208h11.2V704.07h-9.28v-6.208h16.12v26.432h11.27v6.208h-29.31Zm51.55 1.024c-2.81 0-5.31-.682-7.48-2.048-2.18-1.408-3.91-3.413-5.19-6.016-1.23-2.602-1.85-5.696-1.85-9.28 0-3.626.64-6.72 1.92-9.28 1.28-2.602 3.03-4.586 5.24-5.952 2.22-1.408 4.72-2.112 7.49-2.112 2.48 0 4.55.491 6.21 1.472 1.66.939 2.9 2.155 3.71 3.648h.39l-.39-4.672v-12.608h6.79v45.824h-6.4v-4.096h-.39c-.89 1.323-2.17 2.518-3.84 3.584-1.62 1.024-3.69 1.536-6.21 1.536Zm1.35-6.336c2.6 0 4.76-.938 6.46-2.816 1.75-1.877 2.63-4.608 2.63-8.192 0-3.584-.88-6.314-2.63-8.192-1.7-1.877-3.86-2.816-6.46-2.816s-4.78.939-6.53 2.816c-1.71 1.878-2.56 4.608-2.56 8.192 0 3.584.85 6.315 2.56 8.192 1.75 1.878 3.93 2.816 6.53 2.816Zm38.5 5.696c-1.45 0-2.71-.512-3.77-1.536-1.07-1.066-1.6-2.346-1.6-3.84 0-1.45.53-2.709 1.6-3.776 1.06-1.066 2.32-1.6 3.77-1.6 1.45 0 2.71.534 3.78 1.6 1.06 1.067 1.6 2.326 1.6 3.776 0 1.494-.54 2.774-1.6 3.84-1.07 1.024-2.33 1.536-3.78 1.536Zm0-23.808c-1.45 0-2.71-.512-3.77-1.536-1.07-1.066-1.6-2.346-1.6-3.84 0-1.45.53-2.709 1.6-3.776 1.06-1.066 2.32-1.6 3.77-1.6 1.45 0 2.71.534 3.78 1.6 1.06 1.067 1.6 2.326 1.6 3.776 0 1.494-.54 2.774-1.6 3.84-1.07 1.024-2.33 1.536-3.78 1.536Zm76.75 23.808c-1.45 0-2.71-.512-3.77-1.536-1.07-1.066-1.6-2.346-1.6-3.84 0-1.45.53-2.709 1.6-3.776 1.06-1.066 2.32-1.6 3.77-1.6 1.45 0 2.71.534 3.78 1.6 1.06 1.067 1.6 2.326 1.6 3.776 0 1.494-.54 2.774-1.6 3.84-1.07 1.024-2.33 1.536-3.78 1.536Zm38.38 0c-1.45 0-2.71-.512-3.78-1.536-1.07-1.066-1.6-2.346-1.6-3.84 0-1.45.53-2.709 1.6-3.776 1.07-1.066 2.33-1.6 3.78-1.6 1.45 0 2.71.534 3.77 1.6 1.07 1.067 1.6 2.326 1.6 3.776 0 1.494-.53 2.774-1.6 3.84-1.06 1.024-2.32 1.536-3.77 1.536Zm38.37 0c-1.45 0-2.71-.512-3.77-1.536-1.07-1.066-1.6-2.346-1.6-3.84 0-1.45.53-2.709 1.6-3.776 1.06-1.066 2.32-1.6 3.77-1.6 1.45 0 2.71.534 3.78 1.6 1.06 1.067 1.6 2.326 1.6 3.776 0 1.494-.54 2.774-1.6 3.84-1.07 1.024-2.33 1.536-3.78 1.536Zm65.68 7.552v-5.696h4.8c1.37 0 2.52-.469 3.46-1.408.93-.938 1.4-2.282 1.4-4.032v-10.624c0-2.09.41-3.712 1.22-4.864.85-1.194 2.13-2.026 3.84-2.496v-.384c-3.37-.896-5.06-3.349-5.06-7.36V690.95c0-1.749-.47-3.093-1.4-4.032-.94-.938-2.09-1.408-3.46-1.408h-4.8v-5.696h5.25c3.5 0 6.21.982 8.13 2.944 1.92 1.963 2.88 4.651 2.88 8.064v10.304c0 1.92.51 3.264 1.53 4.032 1.03.726 2.2 1.088 3.52 1.088h1.54v5.76h-1.54c-1.32 0-2.49.384-3.52 1.152-1.02.726-1.53 2.048-1.53 3.968v10.304c0 3.414-.96 6.102-2.88 8.064-1.92 1.963-4.63 2.944-8.13 2.944h-5.25Z" fill="#699FF6"/><path d="M1270.2 506.438c-3.5 0-6.21-.981-8.13-2.944-1.92-1.962-2.88-4.65-2.88-8.064v-10.304c0-1.92-.51-3.242-1.54-3.968-1.02-.768-2.2-1.152-3.52-1.152h-1.53v-5.76h1.53c1.32 0 2.5-.362 3.52-1.088 1.03-.768 1.54-2.112 1.54-4.032v-10.304c0-3.413.96-6.101 2.88-8.064 1.92-1.962 4.63-2.944 8.13-2.944h5.24v5.696h-4.8c-1.36 0-2.51.47-3.45 1.408-.94.939-1.41 2.283-1.41 4.032v10.624c0 4.011-1.69 6.464-5.06 7.36v.384c1.71.47 2.97 1.302 3.78 2.496.85 1.152 1.28 2.774 1.28 4.864v10.624c0 1.75.47 3.094 1.41 4.032.94.939 2.09 1.408 3.45 1.408h4.8v5.696h-5.24Zm70.92-46.72c-1.49 0-2.75-.512-3.77-1.536-1.03-1.024-1.54-2.282-1.54-3.776 0-1.45.51-2.688 1.54-3.712 1.02-1.024 2.28-1.536 3.77-1.536 1.5 0 2.75.512 3.78 1.536 1.02 1.024 1.53 2.262 1.53 3.712 0 1.494-.51 2.752-1.53 3.776-1.03 1.024-2.28 1.536-3.78 1.536Zm-14.65 38.784v-6.208h11.2V472.07h-9.28v-6.208h16.12v26.432h11.27v6.208h-29.31Zm51.55 1.024c-2.81 0-5.31-.682-7.48-2.048-2.18-1.408-3.91-3.413-5.19-6.016-1.23-2.602-1.85-5.696-1.85-9.28 0-3.626.64-6.72 1.92-9.28 1.28-2.602 3.03-4.586 5.24-5.952 2.22-1.408 4.72-2.112 7.49-2.112 2.48 0 4.55.491 6.21 1.472 1.66.939 2.9 2.155 3.71 3.648h.39l-.39-4.672v-12.608h6.79v45.824h-6.4v-4.096h-.39c-.89 1.323-2.17 2.518-3.84 3.584-1.62 1.024-3.69 1.536-6.21 1.536Zm1.35-6.336c2.6 0 4.76-.938 6.46-2.816 1.75-1.877 2.63-4.608 2.63-8.192 0-3.584-.88-6.314-2.63-8.192-1.7-1.877-3.86-2.816-6.46-2.816s-4.78.939-6.53 2.816c-1.71 1.878-2.56 4.608-2.56 8.192 0 3.584.85 6.315 2.56 8.192 1.75 1.878 3.93 2.816 6.53 2.816Zm38.5 5.696c-1.45 0-2.71-.512-3.77-1.536-1.07-1.066-1.6-2.346-1.6-3.84 0-1.45.53-2.709 1.6-3.776 1.06-1.066 2.32-1.6 3.77-1.6 1.45 0 2.71.534 3.78 1.6 1.06 1.067 1.6 2.326 1.6 3.776 0 1.494-.54 2.774-1.6 3.84-1.07 1.024-2.33 1.536-3.78 1.536Zm0-23.808c-1.45 0-2.71-.512-3.77-1.536-1.07-1.066-1.6-2.346-1.6-3.84 0-1.45.53-2.709 1.6-3.776 1.06-1.066 2.32-1.6 3.77-1.6 1.45 0 2.71.534 3.78 1.6 1.06 1.067 1.6 2.326 1.6 3.776 0 1.494-.54 2.774-1.6 3.84-1.07 1.024-2.33 1.536-3.78 1.536Zm76.75 23.808c-1.45 0-2.71-.512-3.77-1.536-1.07-1.066-1.6-2.346-1.6-3.84 0-1.45.53-2.709 1.6-3.776 1.06-1.066 2.32-1.6 3.77-1.6 1.45 0 2.71.534 3.78 1.6 1.06 1.067 1.6 2.326 1.6 3.776 0 1.494-.54 2.774-1.6 3.84-1.07 1.024-2.33 1.536-3.78 1.536Zm38.38 0c-1.45 0-2.71-.512-3.78-1.536-1.07-1.066-1.6-2.346-1.6-3.84 0-1.45.53-2.709 1.6-3.776 1.07-1.066 2.33-1.6 3.78-1.6 1.45 0 2.71.534 3.77 1.6 1.07 1.067 1.6 2.326 1.6 3.776 0 1.494-.53 2.774-1.6 3.84-1.06 1.024-2.32 1.536-3.77 1.536Zm38.37 0c-1.45 0-2.71-.512-3.77-1.536-1.07-1.066-1.6-2.346-1.6-3.84 0-1.45.53-2.709 1.6-3.776 1.06-1.066 2.32-1.6 3.77-1.6 1.45 0 2.71.534 3.78 1.6 1.06 1.067 1.6 2.326 1.6 3.776 0 1.494-.54 2.774-1.6 3.84-1.07 1.024-2.33 1.536-3.78 1.536Zm65.68 7.552v-5.696h4.8c1.37 0 2.52-.469 3.46-1.408.93-.938 1.4-2.282 1.4-4.032v-10.624c0-2.09.41-3.712 1.22-4.864.85-1.194 2.13-2.026 3.84-2.496v-.384c-3.37-.896-5.06-3.349-5.06-7.36V458.95c0-1.749-.47-3.093-1.4-4.032-.94-.938-2.09-1.408-3.46-1.408h-4.8v-5.696h5.25c3.5 0 6.21.982 8.13 2.944 1.92 1.963 2.88 4.651 2.88 8.064v10.304c0 1.92.51 3.264 1.53 4.032 1.03.726 2.2 1.088 3.52 1.088h1.54v5.76h-1.54c-1.32 0-2.49.384-3.52 1.152-1.02.726-1.53 2.048-1.53 3.968v10.304c0 3.414-.96 6.102-2.88 8.064-1.92 1.963-4.63 2.944-8.13 2.944h-5.25ZM1270.2 390.438c-3.5 0-6.21-.981-8.13-2.944-1.92-1.962-2.88-4.65-2.88-8.064v-10.304c0-1.92-.51-3.242-1.54-3.968-1.02-.768-2.2-1.152-3.52-1.152h-1.53v-5.76h1.53c1.32 0 2.5-.362 3.52-1.088 1.03-.768 1.54-2.112 1.54-4.032v-10.304c0-3.413.96-6.101 2.88-8.064 1.92-1.962 4.63-2.944 8.13-2.944h5.24v5.696h-4.8c-1.36 0-2.51.47-3.45 1.408-.94.939-1.41 2.283-1.41 4.032v10.624c0 4.011-1.69 6.464-5.06 7.36v.384c1.71.47 2.97 1.302 3.78 2.496.85 1.152 1.28 2.774 1.28 4.864v10.624c0 1.75.47 3.094 1.41 4.032.94.939 2.09 1.408 3.45 1.408h4.8v5.696h-5.24Zm70.92-46.72c-1.49 0-2.75-.512-3.77-1.536-1.03-1.024-1.54-2.282-1.54-3.776 0-1.45.51-2.688 1.54-3.712 1.02-1.024 2.28-1.536 3.77-1.536 1.5 0 2.75.512 3.78 1.536 1.02 1.024 1.53 2.262 1.53 3.712 0 1.494-.51 2.752-1.53 3.776-1.03 1.024-2.28 1.536-3.78 1.536Zm-14.65 38.784v-6.208h11.2V356.07h-9.28v-6.208h16.12v26.432h11.27v6.208h-29.31Zm51.55 1.024c-2.81 0-5.31-.682-7.48-2.048-2.18-1.408-3.91-3.413-5.19-6.016-1.23-2.602-1.85-5.696-1.85-9.28 0-3.626.64-6.72 1.92-9.28 1.28-2.602 3.03-4.586 5.24-5.952 2.22-1.408 4.72-2.112 7.49-2.112 2.48 0 4.55.491 6.21 1.472 1.66.939 2.9 2.155 3.71 3.648h.39l-.39-4.672v-12.608h6.79v45.824h-6.4v-4.096h-.39c-.89 1.323-2.17 2.518-3.84 3.584-1.62 1.024-3.69 1.536-6.21 1.536Zm1.35-6.336c2.6 0 4.76-.938 6.46-2.816 1.75-1.877 2.63-4.608 2.63-8.192 0-3.584-.88-6.314-2.63-8.192-1.7-1.877-3.86-2.816-6.46-2.816s-4.78.939-6.53 2.816c-1.71 1.878-2.56 4.608-2.56 8.192 0 3.584.85 6.315 2.56 8.192 1.75 1.878 3.93 2.816 6.53 2.816Zm38.5 5.696c-1.45 0-2.71-.512-3.77-1.536-1.07-1.066-1.6-2.346-1.6-3.84 0-1.45.53-2.709 1.6-3.776 1.06-1.066 2.32-1.6 3.77-1.6 1.45 0 2.71.534 3.78 1.6 1.06 1.067 1.6 2.326 1.6 3.776 0 1.494-.54 2.774-1.6 3.84-1.07 1.024-2.33 1.536-3.78 1.536Zm0-23.808c-1.45 0-2.71-.512-3.77-1.536-1.07-1.066-1.6-2.346-1.6-3.84 0-1.45.53-2.709 1.6-3.776 1.06-1.066 2.32-1.6 3.77-1.6 1.45 0 2.71.534 3.78 1.6 1.06 1.067 1.6 2.326 1.6 3.776 0 1.494-.54 2.774-1.6 3.84-1.07 1.024-2.33 1.536-3.78 1.536Zm76.75 23.808c-1.45 0-2.71-.512-3.77-1.536-1.07-1.066-1.6-2.346-1.6-3.84 0-1.45.53-2.709 1.6-3.776 1.06-1.066 2.32-1.6 3.77-1.6 1.45 0 2.71.534 3.78 1.6 1.06 1.067 1.6 2.326 1.6 3.776 0 1.494-.54 2.774-1.6 3.84-1.07 1.024-2.33 1.536-3.78 1.536Zm38.38 0c-1.45 0-2.71-.512-3.78-1.536-1.07-1.066-1.6-2.346-1.6-3.84 0-1.45.53-2.709 1.6-3.776 1.07-1.066 2.33-1.6 3.78-1.6 1.45 0 2.71.534 3.77 1.6 1.07 1.067 1.6 2.326 1.6 3.776 0 1.494-.53 2.774-1.6 3.84-1.06 1.024-2.32 1.536-3.77 1.536Zm38.37 0c-1.45 0-2.71-.512-3.77-1.536-1.07-1.066-1.6-2.346-1.6-3.84 0-1.45.53-2.709 1.6-3.776 1.06-1.066 2.32-1.6 3.77-1.6 1.45 0 2.71.534 3.78 1.6 1.06 1.067 1.6 2.326 1.6 3.776 0 1.494-.54 2.774-1.6 3.84-1.07 1.024-2.33 1.536-3.78 1.536Zm65.68 7.552v-5.696h4.8c1.37 0 2.52-.469 3.46-1.408.93-.938 1.4-2.282 1.4-4.032v-10.624c0-2.09.41-3.712 1.22-4.864.85-1.194 2.13-2.026 3.84-2.496v-.384c-3.37-.896-5.06-3.349-5.06-7.36V342.95c0-1.749-.47-3.093-1.4-4.032-.94-.938-2.09-1.408-3.46-1.408h-4.8v-5.696h5.25c3.5 0 6.21.982 8.13 2.944 1.92 1.963 2.88 4.651 2.88 8.064v10.304c0 1.92.51 3.264 1.53 4.032 1.03.726 2.2 1.088 3.52 1.088h1.54v5.76h-1.54c-1.32 0-2.49.384-3.52 1.152-1.02.726-1.53 2.048-1.53 3.968v10.304c0 3.414-.96 6.102-2.88 8.064-1.92 1.963-4.63 2.944-8.13 2.944h-5.25ZM1270.2 622.438c-3.5 0-6.21-.981-8.13-2.944-1.92-1.962-2.88-4.65-2.88-8.064v-10.304c0-1.92-.51-3.242-1.54-3.968-1.02-.768-2.2-1.152-3.52-1.152h-1.53v-5.76h1.53c1.32 0 2.5-.362 3.52-1.088 1.03-.768 1.54-2.112 1.54-4.032v-10.304c0-3.413.96-6.101 2.88-8.064 1.92-1.962 4.63-2.944 8.13-2.944h5.24v5.696h-4.8c-1.36 0-2.51.47-3.45 1.408-.94.939-1.41 2.283-1.41 4.032v10.624c0 4.011-1.69 6.464-5.06 7.36v.384c1.71.47 2.97 1.302 3.78 2.496.85 1.152 1.28 2.774 1.28 4.864v10.624c0 1.75.47 3.094 1.41 4.032.94.939 2.09 1.408 3.45 1.408h4.8v5.696h-5.24Zm70.92-46.72c-1.49 0-2.75-.512-3.77-1.536-1.03-1.024-1.54-2.282-1.54-3.776 0-1.45.51-2.688 1.54-3.712 1.02-1.024 2.28-1.536 3.77-1.536 1.5 0 2.75.512 3.78 1.536 1.02 1.024 1.53 2.262 1.53 3.712 0 1.494-.51 2.752-1.53 3.776-1.03 1.024-2.28 1.536-3.78 1.536Zm-14.65 38.784v-6.208h11.2V588.07h-9.28v-6.208h16.12v26.432h11.27v6.208h-29.31Zm51.55 1.024c-2.81 0-5.31-.682-7.48-2.048-2.18-1.408-3.91-3.413-5.19-6.016-1.23-2.602-1.85-5.696-1.85-9.28 0-3.626.64-6.72 1.92-9.28 1.28-2.602 3.03-4.586 5.24-5.952 2.22-1.408 4.72-2.112 7.49-2.112 2.48 0 4.55.491 6.21 1.472 1.66.939 2.9 2.155 3.71 3.648h.39l-.39-4.672v-12.608h6.79v45.824h-6.4v-4.096h-.39c-.89 1.323-2.17 2.518-3.84 3.584-1.62 1.024-3.69 1.536-6.21 1.536Zm1.35-6.336c2.6 0 4.76-.938 6.46-2.816 1.75-1.877 2.63-4.608 2.63-8.192 0-3.584-.88-6.314-2.63-8.192-1.7-1.877-3.86-2.816-6.46-2.816s-4.78.939-6.53 2.816c-1.71 1.878-2.56 4.608-2.56 8.192 0 3.584.85 6.315 2.56 8.192 1.75 1.878 3.93 2.816 6.53 2.816Zm38.5 5.696c-1.45 0-2.71-.512-3.77-1.536-1.07-1.066-1.6-2.346-1.6-3.84 0-1.45.53-2.709 1.6-3.776 1.06-1.066 2.32-1.6 3.77-1.6 1.45 0 2.71.534 3.78 1.6 1.06 1.067 1.6 2.326 1.6 3.776 0 1.494-.54 2.774-1.6 3.84-1.07 1.024-2.33 1.536-3.78 1.536Zm0-23.808c-1.45 0-2.71-.512-3.77-1.536-1.07-1.066-1.6-2.346-1.6-3.84 0-1.45.53-2.709 1.6-3.776 1.06-1.066 2.32-1.6 3.77-1.6 1.45 0 2.71.534 3.78 1.6 1.06 1.067 1.6 2.326 1.6 3.776 0 1.494-.54 2.774-1.6 3.84-1.07 1.024-2.33 1.536-3.78 1.536Zm76.75 23.808c-1.45 0-2.71-.512-3.77-1.536-1.07-1.066-1.6-2.346-1.6-3.84 0-1.45.53-2.709 1.6-3.776 1.06-1.066 2.32-1.6 3.77-1.6 1.45 0 2.71.534 3.78 1.6 1.06 1.067 1.6 2.326 1.6 3.776 0 1.494-.54 2.774-1.6 3.84-1.07 1.024-2.33 1.536-3.78 1.536Zm38.38 0c-1.45 0-2.71-.512-3.78-1.536-1.07-1.066-1.6-2.346-1.6-3.84 0-1.45.53-2.709 1.6-3.776 1.07-1.066 2.33-1.6 3.78-1.6 1.45 0 2.71.534 3.77 1.6 1.07 1.067 1.6 2.326 1.6 3.776 0 1.494-.53 2.774-1.6 3.84-1.06 1.024-2.32 1.536-3.77 1.536Zm38.37 0c-1.45 0-2.71-.512-3.77-1.536-1.07-1.066-1.6-2.346-1.6-3.84 0-1.45.53-2.709 1.6-3.776 1.06-1.066 2.32-1.6 3.77-1.6 1.45 0 2.71.534 3.78 1.6 1.06 1.067 1.6 2.326 1.6 3.776 0 1.494-.54 2.774-1.6 3.84-1.07 1.024-2.33 1.536-3.78 1.536Zm65.68 7.552v-5.696h4.8c1.37 0 2.52-.469 3.46-1.408.93-.938 1.4-2.282 1.4-4.032v-10.624c0-2.09.41-3.712 1.22-4.864.85-1.194 2.13-2.026 3.84-2.496v-.384c-3.37-.896-5.06-3.349-5.06-7.36V574.95c0-1.749-.47-3.093-1.4-4.032-.94-.938-2.09-1.408-3.46-1.408h-4.8v-5.696h5.25c3.5 0 6.21.982 8.13 2.944 1.92 1.963 2.88 4.651 2.88 8.064v10.304c0 1.92.51 3.264 1.53 4.032 1.03.726 2.2 1.088 3.52 1.088h1.54v5.76h-1.54c-1.32 0-2.49.384-3.52 1.152-1.02.726-1.53 2.048-1.53 3.968v10.304c0 3.414-.96 6.102-2.88 8.064-1.92 1.963-4.63 2.944-8.13 2.944h-5.25Z" fill="#FFEAAC"/><path d="M792.932 148.767c0 7.364 5.97 13.334 13.334 13.334 7.363 0 13.333-5.97 13.333-13.334s-5.97-13.333-13.333-13.333c-7.364 0-13.334 5.969-13.334 13.333Zm384.198 102.25c0 7.364 5.97 13.333 13.34 13.333 7.36 0 13.33-5.969 13.33-13.333s-5.97-13.334-13.33-13.334c-7.37 0-13.34 5.97-13.34 13.334Zm0 121.881c0 7.364 5.97 13.333 13.34 13.333 7.36 0 13.33-5.969 13.33-13.333s-5.97-13.333-13.33-13.333c-7.37 0-13.34 5.969-13.34 13.333Zm33 110.955c0 7.364 5.97 13.334 13.33 13.334s13.33-5.97 13.33-13.334c0-7.363-5.97-13.333-13.33-13.333s-13.33 5.97-13.33 13.333Zm-13.32 108.737c0 7.364 5.97 13.333 13.33 13.333 7.37 0 13.34-5.969 13.34-13.333s-5.97-13.333-13.34-13.333c-7.36 0-13.33 5.969-13.33 13.333ZM806.756 151.219c27.8-5.561 74.388-5.569 119.832 16.288 45.337 21.806 89.762 65.479 113.252 147.719l4.81-1.373c-23.86-83.533-69.197-128.392-115.895-150.852-46.592-22.409-94.316-22.418-122.98-16.685l.981 4.903Zm233.084 164.007c9.03 31.614 21.22 48.868 35.59 54.901 14.54 6.102 30.16.293 44.83-11.198 14.74-11.547 29.14-29.291 41.69-48.556 12.56-19.294 23.36-40.265 30.83-58.404l-4.63-1.904c-7.35 17.857-18 38.552-30.39 57.579-12.41 19.055-26.46 36.286-40.58 47.349-14.19 11.118-27.82 15.556-39.81 10.523-12.16-5.102-23.78-20.363-32.72-51.663l-4.81 1.373Zm-.09-.587c.73 18.325 3.4 39.251 8.78 58.346 5.36 19.038 13.49 36.555 25.35 47.751 5.95 5.627 12.88 9.68 20.86 11.479 7.98 1.799 16.86 1.309 26.67-1.911 19.54-6.41 42.93-23.686 70.94-55.762l-3.77-3.288c-27.79 31.834-50.47 48.307-68.73 54.299-9.09 2.982-17.04 3.356-24.01 1.784-6.97-1.571-13.12-5.125-18.53-10.236-10.89-10.283-18.7-26.777-23.97-45.471-5.25-18.635-7.88-39.16-8.6-57.191l-4.99.2Zm.06-.645c-4.73 21.135-7.65 46.527-6.37 71.721 1.29 25.174 6.77 50.32 19 70.822 12.28 20.577 31.31 36.386 59.37 42.795 27.98 6.388 64.73 3.392 112.47-13.116l-1.64-4.725c-47.24 16.334-82.97 19.072-109.71 12.966-26.65-6.084-44.57-20.995-56.19-40.482-11.67-19.561-17.05-43.822-18.3-68.514-1.26-24.673 1.6-49.608 6.25-70.376l-4.88-1.091Zm.04-.157c-15.35 52.465-25.45 129.66-5.39 190.359 10.06 30.424 27.74 56.83 56.25 73.779 28.48 16.939 67.46 24.245 119.77 17.092l-.67-4.954c-51.55 7.049-89.3-.235-116.55-16.436-27.23-16.192-44.27-41.477-54.05-71.051-19.6-59.298-9.79-135.33 5.44-187.385l-4.8-1.404Z" fill="#FFC929"/></svg>