<svg width="1851" height="857" fill="none" xmlns="http://www.w3.org/2000/svg"><path d="m4.373 379.741 19.768-40.096h5.992l-19.768 40.096H4.373Zm50.658-33.992c-1.306 0-2.408-.448-3.304-1.344-.858-.896-1.288-1.979-1.288-3.248 0-1.27.43-2.352 1.288-3.248.896-.896 1.998-1.344 3.304-1.344 1.27 0 2.352.448 3.248 1.344.896.896 1.344 1.978 1.344 3.248 0 1.269-.448 2.352-1.344 3.248-.896.896-1.978 1.344-3.248 1.344Zm-7.224 46.648c-2.016 0-3.733-.187-5.152-.56-1.381-.336-2.594-.803-3.64-1.4l2.24-5.264c.747.448 1.643.84 2.688 1.176a9.594 9.594 0 0 0 3.248.56c1.755 0 2.987-.542 3.696-1.624.747-1.046 1.12-2.352 1.12-3.92v-24.808H41.423v-5.376H58v30.016c0 3.584-.933 6.346-2.8 8.288-1.83 1.941-4.293 2.912-7.392 2.912Zm23.834-12.656v-40.096h5.936v11.032l-.336 4.368h.336c.747-1.344 1.923-2.464 3.528-3.36 1.643-.934 3.435-1.4 5.376-1.4 3.622 0 6.291 1.026 8.008 3.08 1.755 2.053 2.632 4.76 2.632 8.12v18.256h-5.936v-17.528c0-2.054-.56-3.622-1.68-4.704-1.082-1.12-2.594-1.68-4.536-1.68-1.456 0-2.744.373-3.864 1.12-1.082.746-1.941 1.773-2.576 3.08-.634 1.269-.952 2.688-.952 4.256v15.456h-5.936Zm51.499.84c-2.95 0-5.32-.859-7.112-2.576-1.792-1.755-2.688-4.256-2.688-7.504v-14.112h-6.552v-5.208h6.552v-7.84h5.992v7.84h10.472v5.208h-10.472v13.552c0 1.605.41 2.856 1.232 3.752.821.858 2.053 1.288 3.696 1.288 1.418 0 2.8-.374 4.144-1.12l1.736 5.04c-.971.56-1.979.97-3.024 1.232-1.008.298-2.334.448-3.976.448Zm16.386-.84v-5.824c3.36-2.539 6.234-4.835 8.624-6.888 2.426-2.054 4.405-3.976 5.936-5.768 1.456-1.68 2.538-3.342 3.248-4.984a13.006 13.006 0 0 0 1.064-5.208c0-2.203-.598-3.864-1.792-4.984-1.195-1.12-2.838-1.68-4.928-1.68-1.979 0-3.584.597-4.816 1.792-1.195 1.157-1.904 2.744-2.128 4.76l-5.712-.56c.149-2.128.728-4.07 1.736-5.824 1.045-1.792 2.482-3.211 4.312-4.256 1.866-1.046 4.088-1.568 6.664-1.568 3.994 0 7.112 1.045 9.352 3.136 2.277 2.053 3.416 4.928 3.416 8.624 0 2.688-.56 5.189-1.68 7.504-1.083 2.314-2.502 4.517-4.256 6.608a49.23 49.23 0 0 1-5.04 4.984 74.311 74.311 0 0 1-5.88 4.536l.112.168h17.64v5.432h-25.872Zm49.034 0v-8.064h-18.032v-4.704l17.584-27.328h6.384v26.376h5.208v5.656h-5.208v8.064h-5.936Zm-11.256-13.72h11.256v-16.912h-.336l-10.92 16.912Zm32.066 26.264c-1.083 0-2.035-.094-2.856-.28-.821-.15-1.531-.336-2.128-.56v-5.712c.448.224 1.101.466 1.96.728a9.59 9.59 0 0 0 2.8.392c1.232 0 2.24-.355 3.024-1.064.784-.71 1.531-1.904 2.24-3.584l1.288-3.08-11.48-27.944h6.608l7.84 20.16h.28l8.232-20.16h6.552l-14.224 33.432c-.709 1.68-1.493 3.08-2.352 4.2-.821 1.157-1.848 2.016-3.08 2.576-1.232.597-2.8.896-4.704.896Zm30.162-12.544v-40.096h5.936v11.032l-.336 4.368h.336c.747-1.344 1.923-2.464 3.528-3.36 1.643-.934 3.435-1.4 5.376-1.4 3.621 0 6.291 1.026 8.008 3.08 1.755 2.053 2.632 4.76 2.632 8.12v18.256h-5.936v-17.528c0-2.054-.56-3.622-1.68-4.704-1.083-1.12-2.595-1.68-4.536-1.68-1.456 0-2.744.373-3.864 1.12-1.083.746-1.941 1.773-2.576 3.08-.635 1.269-.952 2.688-.952 4.256v15.456h-5.936Zm46.01 12.992c-3.659 0-6.571-.896-8.736-2.688-2.165-1.755-3.509-3.939-4.032-6.552l5.824-1.288c.448 1.493 1.232 2.725 2.352 3.696 1.157 1.008 2.688 1.512 4.592 1.512 2.576 0 4.555-.822 5.936-2.464 1.381-1.606 2.072-3.827 2.072-6.664v-3.136h-.336c-.971 1.418-2.184 2.501-3.64 3.248-1.419.746-3.192 1.12-5.32 1.12-2.24 0-4.293-.579-6.16-1.736-1.829-1.158-3.304-2.819-4.424-4.984-1.12-2.166-1.68-4.798-1.68-7.896 0-3.099.56-5.731 1.68-7.896 1.12-2.166 2.613-3.827 4.48-4.984 1.904-1.158 3.995-1.736 6.272-1.736 1.904 0 3.621.373 5.152 1.12 1.531.746 2.744 1.792 3.64 3.136h.336v-3.36h5.656v26.992c0 4.704-1.251 8.306-3.752 10.808-2.501 2.501-5.805 3.752-9.912 3.752Zm.168-18.704c2.128 0 3.957-.747 5.488-2.24 1.568-1.531 2.352-3.827 2.352-6.888 0-3.062-.784-5.339-2.352-6.832-1.531-1.531-3.36-2.296-5.488-2.296a7.755 7.755 0 0 0-3.864 1.008c-1.195.672-2.147 1.698-2.856 3.08-.709 1.344-1.064 3.024-1.064 5.04 0 3.061.765 5.357 2.296 6.888 1.568 1.493 3.397 2.24 5.488 2.24Zm37.946-28.28c-1.306 0-2.408-.448-3.304-1.344-.858-.896-1.288-1.979-1.288-3.248 0-1.27.43-2.352 1.288-3.248.896-.896 1.998-1.344 3.304-1.344 1.27 0 2.352.448 3.248 1.344.896.896 1.344 1.978 1.344 3.248 0 1.269-.448 2.352-1.344 3.248-.896.896-1.978 1.344-3.248 1.344Zm-7.224 46.648c-2.016 0-3.733-.187-5.152-.56-1.381-.336-2.594-.803-3.64-1.4l2.24-5.264c.747.448 1.643.84 2.688 1.176a9.597 9.597 0 0 0 3.248.56c1.755 0 2.987-.542 3.696-1.624.747-1.046 1.12-2.352 1.12-3.92v-24.808h-10.584v-5.376h16.576v30.016c0 3.584-.933 6.346-2.8 8.288-1.829 1.941-4.293 2.912-7.392 2.912Zm35.314-11.76c-2.464 0-4.648-.598-6.552-1.792-1.904-1.232-3.416-2.987-4.536-5.264-1.082-2.278-1.624-4.984-1.624-8.12 0-3.174.56-5.88 1.68-8.12 1.12-2.278 2.651-4.014 4.592-5.208 1.942-1.232 4.126-1.848 6.552-1.848 2.166 0 3.976.429 5.432 1.288 1.456.821 2.539 1.885 3.248 3.192h.336v-3.584h5.6v28.56h-5.6v-3.584h-.336c-.784 1.157-1.904 2.202-3.36 3.136-1.418.896-3.229 1.344-5.432 1.344Zm1.176-5.544c2.278 0 4.163-.822 5.656-2.464 1.531-1.643 2.296-4.032 2.296-7.168s-.765-5.526-2.296-7.168c-1.493-1.643-3.378-2.464-5.656-2.464-2.277 0-4.181.821-5.712 2.464-1.493 1.642-2.24 4.032-2.24 7.168s.747 5.525 2.24 7.168c1.531 1.642 3.435 2.464 5.712 2.464Zm33.803 5.544c-3.734 0-6.608-.822-8.624-2.464-2.016-1.643-3.323-3.808-3.92-6.496l5.768-1.064a6.23 6.23 0 0 0 2.128 3.416c1.12.858 2.669 1.288 4.648 1.288 1.68 0 3.098-.299 4.256-.896 1.194-.635 1.792-1.55 1.792-2.744 0-1.158-.504-2.054-1.512-2.688-.971-.635-2.408-1.139-4.312-1.512l-3.472-.616c-2.39-.411-4.35-1.288-5.88-2.632-1.531-1.344-2.296-3.192-2.296-5.544 0-1.643.485-3.08 1.456-4.312.97-1.27 2.277-2.259 3.92-2.968 1.68-.747 3.584-1.12 5.712-1.12 3.136 0 5.693.634 7.672 1.904 2.016 1.269 3.285 3.266 3.808 5.992l-5.32.952c-.448-1.419-1.214-2.408-2.296-2.968-1.083-.598-2.352-.896-3.808-.896-1.494 0-2.763.317-3.808.952-1.046.597-1.568 1.362-1.568 2.296 0 1.008.41 1.81 1.232 2.408.858.56 2.09.989 3.696 1.288l4.144.728c2.8.485 4.928 1.381 6.384 2.688 1.456 1.269 2.184 3.229 2.184 5.88 0 1.829-.523 3.434-1.568 4.816-1.046 1.381-2.483 2.445-4.312 3.192-1.83.746-3.864 1.12-6.104 1.12Zm33.13 0c-2.278 0-4.368-.448-6.272-1.344a12.833 12.833 0 0 1-4.76-3.808c-1.232-1.68-1.979-3.696-2.24-6.048l5.88-1.344c.298 2.053 1.101 3.696 2.408 4.928 1.306 1.232 2.968 1.848 4.984 1.848 2.165 0 3.92-.616 5.264-1.848 1.344-1.27 2.016-2.912 2.016-4.928 0-2.128-.691-3.771-2.072-4.928-1.344-1.158-3.192-1.736-5.544-1.736h-3.136v-5.432h2.912c1.866 0 3.453-.504 4.76-1.512 1.344-1.046 2.016-2.52 2.016-4.424 0-1.718-.579-3.099-1.736-4.144-1.12-1.083-2.651-1.624-4.592-1.624-1.755 0-3.211.504-4.368 1.512-1.158.97-1.886 2.258-2.184 3.864l-5.712-.728c.261-1.942.933-3.678 2.016-5.208a12.162 12.162 0 0 1 4.256-3.64c1.754-.896 3.77-1.344 6.048-1.344 2.426 0 4.554.466 6.384 1.4 1.866.933 3.304 2.202 4.312 3.808 1.008 1.605 1.512 3.397 1.512 5.376 0 1.605-.262 2.968-.784 4.088-.523 1.12-1.195 2.053-2.016 2.8a14.615 14.615 0 0 1-2.464 1.904v.336c1.904.784 3.453 1.978 4.648 3.584 1.194 1.605 1.792 3.733 1.792 6.384 0 2.314-.56 4.386-1.68 6.216-1.12 1.829-2.688 3.285-4.704 4.368-2.016 1.082-4.331 1.624-6.944 1.624Zm24.562-.896v-28.56h5.656v4.816h.336c.821-1.792 2.016-3.192 3.584-4.2 1.605-1.008 3.509-1.512 5.712-1.512 1.082 0 2.09.093 3.024.28.97.149 1.754.41 2.352.784v6.272a13.72 13.72 0 0 0-3.024-1.176c-1.083-.299-2.278-.448-3.584-.448-2.539 0-4.518.877-5.936 2.632-1.419 1.717-2.128 3.882-2.128 6.496v14.616h-5.992Zm41.642.896c-2.464 0-4.648-.598-6.552-1.792-1.904-1.232-3.416-2.987-4.536-5.264-1.083-2.278-1.624-4.984-1.624-8.12 0-3.174.56-5.88 1.68-8.12 1.12-2.278 2.651-4.014 4.592-5.208 1.941-1.232 4.125-1.848 6.552-1.848 2.165 0 3.976.429 5.432 1.288 1.456.821 2.539 1.885 3.248 3.192h.336v-3.584h5.6v28.56h-5.6v-3.584h-.336c-.784 1.157-1.904 2.202-3.36 3.136-1.419.896-3.229 1.344-5.432 1.344Zm1.176-5.544c2.277 0 4.163-.822 5.656-2.464 1.531-1.643 2.296-4.032 2.296-7.168s-.765-5.526-2.296-7.168c-1.493-1.643-3.379-2.464-5.656-2.464-2.277 0-4.181.821-5.712 2.464-1.493 1.642-2.24 4.032-2.24 7.168s.747 5.525 2.24 7.168c1.531 1.642 3.435 2.464 5.712 2.464Z" fill="#FFEAAC"/><path d="M129.154 497.768c-3.062 0-5.432-.859-7.112-2.576-1.68-1.718-2.52-4.07-2.52-7.056v-9.016c0-1.68-.448-2.838-1.344-3.472-.896-.672-1.923-1.008-3.08-1.008h-1.344v-5.04h1.344c1.157 0 2.184-.318 3.08-.952.896-.672 1.344-1.848 1.344-3.528v-9.016c0-2.987.84-5.339 2.52-7.056 1.68-1.718 4.05-2.576 7.112-2.576h4.592v4.984h-4.2c-1.195 0-2.203.41-3.024 1.232-.822.821-1.232 1.997-1.232 3.528v9.296c0 3.509-1.475 5.656-4.424 6.44v.336c1.493.41 2.594 1.138 3.304 2.184.746 1.008 1.12 2.426 1.12 4.256v9.296c0 1.53.41 2.706 1.232 3.528.821.821 1.829 1.232 3.024 1.232h4.2v4.984h-4.592Zm196.373 63.392c-1.27 0-2.371-.448-3.304-1.344-.934-.934-1.4-2.054-1.4-3.36 0-1.27.466-2.371 1.4-3.304.933-.934 2.034-1.4 3.304-1.4 1.269 0 2.37.466 3.304 1.4.933.933 1.4 2.034 1.4 3.304 0 1.306-.467 2.426-1.4 3.36-.934.896-2.035 1.344-3.304 1.344Zm0-20.832c-1.27 0-2.371-.448-3.304-1.344-.934-.934-1.4-2.054-1.4-3.36 0-1.27.466-2.371 1.4-3.304.933-.934 2.034-1.4 3.304-1.4 1.269 0 2.37.466 3.304 1.4.933.933 1.4 2.034 1.4 3.304 0 1.306-.467 2.426-1.4 3.36-.934.896-2.035 1.344-3.304 1.344Zm55.116 20.496v-5.6h9.52v-26.6l-8.736 6.384V528.4l10.472-7.672h4.256v34.496h9.016v5.6h-24.528Zm33.578 0V555c3.36-2.539 6.235-4.835 8.624-6.888 2.427-2.054 4.405-3.976 5.936-5.768 1.456-1.68 2.539-3.342 3.248-4.984a13.006 13.006 0 0 0 1.064-5.208c0-2.203-.597-3.864-1.792-4.984s-2.837-1.68-4.928-1.68c-1.979 0-3.584.597-4.816 1.792-1.195 1.157-1.904 2.744-2.128 4.76l-5.712-.56c.149-2.128.728-4.07 1.736-5.824 1.045-1.792 2.483-3.211 4.312-4.256 1.867-1.046 4.088-1.568 6.664-1.568 3.995 0 7.112 1.045 9.352 3.136 2.277 2.053 3.416 4.928 3.416 8.624 0 2.688-.56 5.189-1.68 7.504-1.083 2.314-2.501 4.517-4.256 6.608a49.027 49.027 0 0 1-5.04 4.984 73.946 73.946 0 0 1-5.88 4.536l.112.168h17.64v5.432h-25.872Zm49.034 0v-8.064h-18.032v-4.704l17.584-27.328h6.384v26.376h5.208v5.656h-5.208v8.064h-5.936Zm-11.256-13.72h11.256v-16.912h-.336l-10.92 16.912Zm41.418 14.056c-1.269 0-2.37-.448-3.304-1.344-.933-.934-1.4-2.054-1.4-3.36 0-1.27.467-2.371 1.4-3.304.934-.934 2.035-1.4 3.304-1.4 1.27 0 2.371.466 3.304 1.4.934.933 1.4 2.034 1.4 3.304 0 1.306-.466 2.426-1.4 3.36-.933.896-2.034 1.344-3.304 1.344Zm21.538-.336v-5.6h9.52v-26.6l-8.736 6.384V528.4l10.472-7.672h4.256v34.496h9.016v5.6h-24.528Zm33.578 0V555c3.36-2.539 6.235-4.835 8.624-6.888 2.427-2.054 4.406-3.976 5.936-5.768 1.456-1.68 2.539-3.342 3.248-4.984a12.989 12.989 0 0 0 1.064-5.208c0-2.203-.597-3.864-1.792-4.984-1.194-1.12-2.837-1.68-4.928-1.68-1.978 0-3.584.597-4.816 1.792-1.194 1.157-1.904 2.744-2.128 4.76l-5.712-.56c.15-2.128.728-4.07 1.736-5.824a11.514 11.514 0 0 1 4.312-4.256c1.867-1.046 4.088-1.568 6.664-1.568 3.995 0 7.112 1.045 9.352 3.136 2.278 2.053 3.416 4.928 3.416 8.624 0 2.688-.56 5.189-1.68 7.504-1.082 2.314-2.501 4.517-4.256 6.608a49.027 49.027 0 0 1-5.04 4.984 73.946 73.946 0 0 1-5.88 4.536l.112.168h17.64v5.432h-25.872Zm41.195 7.224 2.912-15.456h8.008l-5.544 15.456h-5.376Zm-297.78 63.112c-1.269 0-2.37-.448-3.304-1.344-.933-.934-1.4-2.054-1.4-3.36 0-1.27.467-2.371 1.4-3.304.934-.934 2.035-1.4 3.304-1.4 1.27 0 2.371.466 3.304 1.4.934.933 1.4 2.034 1.4 3.304 0 1.306-.466 2.426-1.4 3.36-.933.896-2.034 1.344-3.304 1.344Zm0-20.832c-1.269 0-2.37-.448-3.304-1.344-.933-.934-1.4-2.054-1.4-3.36 0-1.27.467-2.371 1.4-3.304.934-.934 2.035-1.4 3.304-1.4 1.27 0 2.371.466 3.304 1.4.934.933 1.4 2.034 1.4 3.304 0 1.306-.466 2.426-1.4 3.36-.933.896-2.034 1.344-3.304 1.344Zm58.533-2.912v-16.688h5.432v16.688h-5.432Zm11.816 0v-16.688h5.432v16.688h-5.432Zm29.098 24.304c-2.464 0-4.648-.598-6.552-1.792-1.904-1.232-3.416-2.987-4.536-5.264-1.083-2.278-1.624-4.984-1.624-8.12 0-3.174.56-5.88 1.68-8.12 1.12-2.278 2.65-4.014 4.592-5.208 1.941-1.232 4.125-1.848 6.552-1.848 2.165 0 3.976.429 5.432 1.288 1.456.821 2.538 1.885 3.248 3.192h.336l-.336-4.088v-11.032h5.936v40.096h-5.6v-3.584h-.336c-.784 1.157-1.904 2.202-3.36 3.136-1.419.896-3.23 1.344-5.432 1.344Zm1.176-5.544c2.277 0 4.162-.822 5.656-2.464 1.53-1.643 2.296-4.032 2.296-7.168s-.766-5.526-2.296-7.168c-1.494-1.643-3.379-2.464-5.656-2.464-2.278 0-4.182.821-5.712 2.464-1.494 1.642-2.24 4.032-2.24 7.168s.746 5.525 2.24 7.168c1.53 1.642 3.434 2.464 5.712 2.464Zm32.402 5.544c-2.464 0-4.648-.598-6.552-1.792-1.904-1.232-3.416-2.987-4.536-5.264-1.083-2.278-1.624-4.984-1.624-8.12 0-3.174.56-5.88 1.68-8.12 1.12-2.278 2.651-4.014 4.592-5.208 1.941-1.232 4.125-1.848 6.552-1.848 2.165 0 3.976.429 5.432 1.288 1.456.821 2.539 1.885 3.248 3.192h.336v-3.584h5.6v28.56h-5.6v-3.584h-.336c-.784 1.157-1.904 2.202-3.36 3.136-1.419.896-3.229 1.344-5.432 1.344Zm1.176-5.544c2.277 0 4.163-.822 5.656-2.464 1.531-1.643 2.296-4.032 2.296-7.168s-.765-5.526-2.296-7.168c-1.493-1.643-3.379-2.464-5.656-2.464-2.277 0-4.181.821-5.712 2.464-1.493 1.642-2.24 4.032-2.24 7.168s.747 5.525 2.24 7.168c1.531 1.642 3.435 2.464 5.712 2.464Zm30.61 4.648-11.984-28.56h6.552l8.4 20.888h.28l8.4-20.888h6.44l-12.096 28.56h-5.992Zm36.658-33.936c-1.306 0-2.408-.448-3.304-1.344-.896-.896-1.344-1.998-1.344-3.304 0-1.27.448-2.352 1.344-3.248.896-.896 1.998-1.344 3.304-1.344 1.307 0 2.408.448 3.304 1.344.896.896 1.344 1.978 1.344 3.248 0 1.306-.448 2.408-1.344 3.304-.896.896-1.997 1.344-3.304 1.344Zm-12.824 33.936v-5.432h9.8v-17.696h-8.12v-5.432h14.112v23.128h9.856v5.432h-25.648Zm45.114.896c-2.464 0-4.648-.598-6.552-1.792-1.904-1.232-3.416-2.987-4.536-5.264-1.082-2.278-1.624-4.984-1.624-8.12 0-3.174.56-5.88 1.68-8.12 1.12-2.278 2.651-4.014 4.592-5.208 1.942-1.232 4.126-1.848 6.552-1.848 2.166 0 3.976.429 5.432 1.288 1.456.821 2.539 1.885 3.248 3.192h.336l-.336-4.088v-11.032h5.936v40.096h-5.6v-3.584h-.336c-.784 1.157-1.904 2.202-3.36 3.136-1.418.896-3.229 1.344-5.432 1.344Zm1.176-5.544c2.278 0 4.163-.822 5.656-2.464 1.531-1.643 2.296-4.032 2.296-7.168s-.765-5.526-2.296-7.168c-1.493-1.643-3.378-2.464-5.656-2.464-2.277 0-4.181.821-5.712 2.464-1.493 1.642-2.24 4.032-2.24 7.168s.747 5.525 2.24 7.168c1.531 1.642 3.435 2.464 5.712 2.464Zm22.546 16.744v-5.208h22.288v5.208h-22.288Zm32.683-12.096v-5.6h9.52v-26.6l-8.736 6.384V598.4l10.472-7.672h4.256v34.496h9.016v5.6h-24.528Zm33.578 0V625c3.36-2.539 6.234-4.835 8.624-6.888 2.426-2.054 4.405-3.976 5.936-5.768 1.456-1.68 2.538-3.342 3.248-4.984a13.006 13.006 0 0 0 1.064-5.208c0-2.203-.598-3.864-1.792-4.984-1.195-1.12-2.838-1.68-4.928-1.68-1.979 0-3.584.597-4.816 1.792-1.195 1.157-1.904 2.744-2.128 4.76l-5.712-.56c.149-2.128.728-4.07 1.736-5.824 1.045-1.792 2.482-3.211 4.312-4.256 1.866-1.046 4.088-1.568 6.664-1.568 3.994 0 7.112 1.045 9.352 3.136 2.277 2.053 3.416 4.928 3.416 8.624 0 2.688-.56 5.189-1.68 7.504-1.083 2.314-2.502 4.517-4.256 6.608a49.23 49.23 0 0 1-5.04 4.984 74.311 74.311 0 0 1-5.88 4.536l.112.168h17.64v5.432H615.69Zm45.282.896c-2.278 0-4.368-.448-6.272-1.344a12.833 12.833 0 0 1-4.76-3.808c-1.232-1.68-1.979-3.696-2.24-6.048l5.88-1.344c.298 2.053 1.101 3.696 2.408 4.928 1.306 1.232 2.968 1.848 4.984 1.848 2.165 0 3.92-.616 5.264-1.848 1.344-1.27 2.016-2.912 2.016-4.928 0-2.128-.691-3.771-2.072-4.928-1.344-1.158-3.192-1.736-5.544-1.736H657.5v-5.432h2.912c1.866 0 3.453-.504 4.76-1.512 1.344-1.046 2.016-2.52 2.016-4.424 0-1.718-.579-3.099-1.736-4.144-1.12-1.083-2.651-1.624-4.592-1.624-1.755 0-3.211.504-4.368 1.512-1.158.97-1.886 2.258-2.184 3.864l-5.712-.728c.261-1.942.933-3.678 2.016-5.208a12.162 12.162 0 0 1 4.256-3.64c1.754-.896 3.77-1.344 6.048-1.344 2.426 0 4.554.466 6.384 1.4 1.866.933 3.304 2.202 4.312 3.808 1.008 1.605 1.512 3.397 1.512 5.376 0 1.605-.262 2.968-.784 4.088-.523 1.12-1.195 2.053-2.016 2.8a14.615 14.615 0 0 1-2.464 1.904v.336c1.904.784 3.453 1.978 4.648 3.584 1.194 1.605 1.792 3.733 1.792 6.384 0 2.314-.56 4.386-1.68 6.216-1.12 1.829-2.688 3.285-4.704 4.368-2.016 1.082-4.331 1.624-6.944 1.624Zm25.29-24.304v-16.688h5.432v16.688h-5.432Zm11.816 0v-16.688h5.432v16.688h-5.432Zm25.962 30.632 2.912-15.456h8.008l-5.544 15.456h-5.376ZM459.839 701.16c-1.269 0-2.371-.448-3.304-1.344-.933-.934-1.4-2.054-1.4-3.36 0-1.27.467-2.371 1.4-3.304.933-.934 2.035-1.4 3.304-1.4 1.269 0 2.371.466 3.304 1.4.933.933 1.4 2.034 1.4 3.304 0 1.306-.467 2.426-1.4 3.36-.933.896-2.035 1.344-3.304 1.344Zm0-20.832c-1.269 0-2.371-.448-3.304-1.344-.933-.934-1.4-2.054-1.4-3.36 0-1.27.467-2.371 1.4-3.304.933-.934 2.035-1.4 3.304-1.4 1.269 0 2.371.466 3.304 1.4.933.933 1.4 2.034 1.4 3.304 0 1.306-.467 2.426-1.4 3.36-.933.896-2.035 1.344-3.304 1.344Zm58.532-2.912v-16.688h5.432v16.688h-5.432Zm11.816 0v-16.688h5.432v16.688h-5.432Zm25.514 23.408v-23.352h-7.56v-5.208h7.56v-1.792c0-3.622 1.027-6.422 3.08-8.4 2.091-2.016 4.798-3.024 8.12-3.024 1.718 0 3.211.205 4.48.616 1.307.373 2.39.877 3.248 1.512l-2.296 5.04c-1.53-1.083-3.248-1.624-5.152-1.624-1.754 0-3.117.504-4.088 1.512-.97 1.008-1.456 2.482-1.456 4.424v1.736h9.968v5.208h-9.968v23.352h-5.936Zm38.451.896c-2.912 0-5.451-.635-7.616-1.904-2.128-1.307-3.771-3.099-4.928-5.376-1.158-2.315-1.736-4.947-1.736-7.896 0-2.987.578-5.619 1.736-7.896 1.157-2.278 2.8-4.051 4.928-5.32 2.165-1.307 4.704-1.96 7.616-1.96s5.432.653 7.56 1.96c2.165 1.269 3.826 3.042 4.984 5.32 1.157 2.277 1.736 4.909 1.736 7.896 0 2.986-.579 5.618-1.736 7.896-1.158 2.277-2.819 4.069-4.984 5.376-2.128 1.269-4.648 1.904-7.56 1.904Zm0-5.544c2.426 0 4.424-.822 5.992-2.464 1.568-1.68 2.352-4.07 2.352-7.168 0-3.099-.784-5.47-2.352-7.112-1.568-1.68-3.566-2.52-5.992-2.52-2.427 0-4.424.84-5.992 2.52-1.568 1.642-2.352 4.013-2.352 7.112 0 3.098.784 5.488 2.352 7.168 1.568 1.642 3.565 2.464 5.992 2.464Zm33.578 5.544c-2.912 0-5.451-.635-7.616-1.904-2.128-1.307-3.771-3.099-4.928-5.376-1.158-2.315-1.736-4.947-1.736-7.896 0-2.987.578-5.619 1.736-7.896 1.157-2.278 2.8-4.051 4.928-5.32 2.165-1.307 4.704-1.96 7.616-1.96s5.432.653 7.56 1.96c2.165 1.269 3.826 3.042 4.984 5.32 1.157 2.277 1.736 4.909 1.736 7.896 0 2.986-.579 5.618-1.736 7.896-1.158 2.277-2.819 4.069-4.984 5.376-2.128 1.269-4.648 1.904-7.56 1.904Zm0-5.544c2.426 0 4.424-.822 5.992-2.464 1.568-1.68 2.352-4.07 2.352-7.168 0-3.099-.784-5.47-2.352-7.112-1.568-1.68-3.566-2.52-5.992-2.52-2.427 0-4.424.84-5.992 2.52-1.568 1.642-2.352 4.013-2.352 7.112 0 3.098.784 5.488 2.352 7.168 1.568 1.642 3.565 2.464 5.992 2.464Zm32.29 5.544c-2.464 0-4.648-.598-6.552-1.792-1.904-1.232-3.416-2.987-4.536-5.264-1.083-2.278-1.624-4.984-1.624-8.12 0-3.174.56-5.88 1.68-8.12 1.12-2.278 2.65-4.014 4.592-5.208 1.941-1.232 4.125-1.848 6.552-1.848 2.165 0 3.976.429 5.432 1.288 1.456.821 2.538 1.885 3.248 3.192h.336l-.336-4.088v-11.032h5.936v40.096h-5.6v-3.584h-.336c-.784 1.157-1.904 2.202-3.36 3.136-1.419.896-3.23 1.344-5.432 1.344Zm1.176-5.544c2.277 0 4.162-.822 5.656-2.464 1.53-1.643 2.296-4.032 2.296-7.168s-.766-5.526-2.296-7.168c-1.494-1.643-3.379-2.464-5.656-2.464-2.278 0-4.182.821-5.712 2.464-1.494 1.642-2.24 4.032-2.24 7.168s.746 5.525 2.24 7.168c1.53 1.642 3.434 2.464 5.712 2.464Zm25.066-18.76v-16.688h5.432v16.688h-5.432Zm11.816 0v-16.688h5.432v16.688h-5.432Zm25.962 30.632 2.912-15.456h8.008l-5.544 15.456h-5.376ZM325.527 771.16c-1.27 0-2.371-.448-3.304-1.344-.934-.934-1.4-2.054-1.4-3.36 0-1.27.466-2.371 1.4-3.304.933-.934 2.034-1.4 3.304-1.4 1.269 0 2.37.466 3.304 1.4.933.933 1.4 2.034 1.4 3.304 0 1.306-.467 2.426-1.4 3.36-.934.896-2.035 1.344-3.304 1.344Zm0-20.832c-1.27 0-2.371-.448-3.304-1.344-.934-.934-1.4-2.054-1.4-3.36 0-1.27.466-2.371 1.4-3.304.933-.934 2.034-1.4 3.304-1.4 1.269 0 2.37.466 3.304 1.4.933.933 1.4 2.034 1.4 3.304 0 1.306-.467 2.426-1.4 3.36-.934.896-2.035 1.344-3.304 1.344Zm72.252 27.44c-3.062 0-5.432-.859-7.112-2.576-1.68-1.718-2.52-4.07-2.52-7.056v-9.016c0-1.68-.448-2.838-1.344-3.472-.896-.672-1.923-1.008-3.08-1.008h-1.344v-5.04h1.344c1.157 0 2.184-.318 3.08-.952.896-.672 1.344-1.848 1.344-3.528v-9.016c0-2.987.84-5.339 2.52-7.056 1.68-1.718 4.05-2.576 7.112-2.576h4.592v4.984h-4.2c-1.195 0-2.203.41-3.024 1.232-.822.821-1.232 1.997-1.232 3.528v9.296c0 3.509-1.475 5.656-4.424 6.44v.336c1.493.41 2.594 1.138 3.304 2.184.746 1.008 1.12 2.426 1.12 4.256v9.296c0 1.53.41 2.706 1.232 3.528.821.821 1.829 1.232 3.024 1.232h4.2v4.984h-4.592Zm52.372 0v-4.984h4.2c1.195 0 2.203-.411 3.024-1.232.821-.822 1.232-1.998 1.232-3.528v-9.296c0-1.83.355-3.248 1.064-4.256.747-1.046 1.867-1.774 3.36-2.184v-.336c-2.949-.784-4.424-2.931-4.424-6.44v-9.296c0-1.531-.411-2.707-1.232-3.528-.821-.822-1.829-1.232-3.024-1.232h-4.2v-4.984h4.592c3.061 0 5.432.858 7.112 2.576 1.68 1.717 2.52 4.069 2.52 7.056v9.016c0 1.68.448 2.856 1.344 3.528.896.634 1.923.952 3.08.952h1.344v5.04h-1.344c-1.157 0-2.184.336-3.08 1.008-.896.634-1.344 1.792-1.344 3.472v9.016c0 2.986-.84 5.338-2.52 7.056-1.68 1.717-4.051 2.576-7.112 2.576h-4.592Zm-335.781 70v-4.984h4.2c1.194 0 2.202-.411 3.024-1.232.821-.822 1.232-1.998 1.232-3.528v-9.296c0-1.83.354-3.248 1.064-4.256.746-1.046 1.866-1.774 3.36-2.184v-.336c-2.95-.784-4.424-2.931-4.424-6.44v-9.296c0-1.531-.411-2.707-1.232-3.528-.822-.822-1.83-1.232-3.024-1.232h-4.2v-4.984h4.592c3.061 0 5.432.858 7.112 2.576 1.68 1.717 2.52 4.069 2.52 7.056v9.016c0 1.68.448 2.856 1.344 3.528.896.634 1.922.952 3.08.952h1.344v5.04h-1.344c-1.158 0-2.184.336-3.08 1.008-.896.634-1.344 1.792-1.344 3.472v9.016c0 2.986-.84 5.338-2.52 7.056-1.68 1.717-4.051 2.576-7.112 2.576h-4.592Z" fill="#F5F5F5"/><path d="M191.662 561.72c-2.725 0-5.133-.616-7.224-1.848-2.091-1.27-3.715-3.043-4.872-5.32-1.157-2.278-1.736-4.947-1.736-8.008 0-3.062.597-5.731 1.792-8.008 1.195-2.278 2.837-4.032 4.928-5.264 2.128-1.27 4.573-1.904 7.336-1.904 3.435 0 6.291.84 8.568 2.52 2.315 1.68 3.733 4.032 4.256 7.056l-5.824.952c-.373-1.531-1.195-2.744-2.464-3.64-1.232-.934-2.781-1.4-4.648-1.4-2.24 0-4.144.84-5.712 2.52-1.531 1.68-2.296 4.069-2.296 7.168 0 3.098.765 5.488 2.296 7.168 1.531 1.642 3.435 2.464 5.712 2.464 1.904 0 3.435-.448 4.592-1.344 1.157-.934 2.016-2.259 2.576-3.976l5.6 1.344c-.672 2.8-2.091 5.096-4.256 6.888-2.165 1.754-5.04 2.632-8.624 2.632Zm33.13 0c-2.912 0-5.45-.635-7.616-1.904-2.128-1.307-3.77-3.099-4.928-5.376-1.157-2.315-1.736-4.947-1.736-7.896 0-2.987.579-5.619 1.736-7.896 1.158-2.278 2.8-4.051 4.928-5.32 2.166-1.307 4.704-1.96 7.616-1.96s5.432.653 7.56 1.96c2.166 1.269 3.827 3.042 4.984 5.32 1.158 2.277 1.736 4.909 1.736 7.896 0 2.986-.578 5.618-1.736 7.896-1.157 2.277-2.818 4.069-4.984 5.376-2.128 1.269-4.648 1.904-7.56 1.904Zm0-5.544c2.427 0 4.424-.822 5.992-2.464 1.568-1.68 2.352-4.07 2.352-7.168 0-3.099-.784-5.47-2.352-7.112-1.568-1.68-3.565-2.52-5.992-2.52-2.426 0-4.424.84-5.992 2.52-1.568 1.642-2.352 4.013-2.352 7.112 0 3.098.784 5.488 2.352 7.168 1.568 1.642 3.566 2.464 5.992 2.464Zm33.69 5.544c-3.733 0-6.608-.822-8.624-2.464-2.016-1.643-3.322-3.808-3.92-6.496l5.768-1.064a6.236 6.236 0 0 0 2.128 3.416c1.12.858 2.67 1.288 4.648 1.288 1.68 0 3.099-.299 4.256-.896 1.195-.635 1.792-1.55 1.792-2.744 0-1.158-.504-2.054-1.512-2.688-.97-.635-2.408-1.139-4.312-1.512l-3.472-.616c-2.389-.411-4.349-1.288-5.88-2.632-1.53-1.344-2.296-3.192-2.296-5.544 0-1.643.486-3.08 1.456-4.312.971-1.27 2.278-2.259 3.92-2.968 1.68-.747 3.584-1.12 5.712-1.12 3.136 0 5.694.634 7.672 1.904 2.016 1.269 3.286 3.266 3.808 5.992l-5.32.952c-.448-1.419-1.213-2.408-2.296-2.968-1.082-.598-2.352-.896-3.808-.896-1.493 0-2.762.317-3.808.952-1.045.597-1.568 1.362-1.568 2.296 0 1.008.411 1.81 1.232 2.408.859.56 2.091.989 3.696 1.288l4.144.728c2.8.485 4.928 1.381 6.384 2.688 1.456 1.269 2.184 3.229 2.184 5.88 0 1.829-.522 3.434-1.568 4.816-1.045 1.381-2.482 2.445-4.312 3.192-1.829.746-3.864 1.12-6.104 1.12Zm38.618-.056c-2.949 0-5.32-.859-7.112-2.576-1.792-1.755-2.688-4.256-2.688-7.504v-14.112h-6.552v-5.208h6.552v-7.84h5.992v7.84h10.472v5.208h-10.472v13.552c0 1.605.411 2.856 1.232 3.752.822.858 2.054 1.288 3.696 1.288 1.419 0 2.8-.374 4.144-1.12l1.736 5.04c-.97.56-1.978.97-3.024 1.232-1.008.298-2.333.448-3.976.448ZM191.662 701.72c-2.725 0-5.133-.616-7.224-1.848-2.091-1.27-3.715-3.043-4.872-5.32-1.157-2.278-1.736-4.947-1.736-8.008 0-3.062.597-5.731 1.792-8.008 1.195-2.278 2.837-4.032 4.928-5.264 2.128-1.27 4.573-1.904 7.336-1.904 3.435 0 6.291.84 8.568 2.52 2.315 1.68 3.733 4.032 4.256 7.056l-5.824.952c-.373-1.531-1.195-2.744-2.464-3.64-1.232-.934-2.781-1.4-4.648-1.4-2.24 0-4.144.84-5.712 2.52-1.531 1.68-2.296 4.069-2.296 7.168 0 3.098.765 5.488 2.296 7.168 1.531 1.642 3.435 2.464 5.712 2.464 1.904 0 3.435-.448 4.592-1.344 1.157-.934 2.016-2.259 2.576-3.976l5.6 1.344c-.672 2.8-2.091 5.096-4.256 6.888-2.165 1.754-5.04 2.632-8.624 2.632Zm31.842 0c-2.464 0-4.648-.598-6.552-1.792-1.904-1.232-3.416-2.987-4.536-5.264-1.082-2.278-1.624-4.984-1.624-8.12 0-3.174.56-5.88 1.68-8.12 1.12-2.278 2.651-4.014 4.592-5.208 1.942-1.232 4.126-1.848 6.552-1.848 2.166 0 3.976.429 5.432 1.288 1.456.821 2.539 1.885 3.248 3.192h.336v-3.584h5.6v28.56h-5.6v-3.584h-.336c-.784 1.157-1.904 2.202-3.36 3.136-1.418.896-3.229 1.344-5.432 1.344Zm1.176-5.544c2.278 0 4.163-.822 5.656-2.464 1.531-1.643 2.296-4.032 2.296-7.168s-.765-5.526-2.296-7.168c-1.493-1.643-3.378-2.464-5.656-2.464-2.277 0-4.181.821-5.712 2.464-1.493 1.642-2.24 4.032-2.24 7.168s.747 5.525 2.24 7.168c1.531 1.642 3.435 2.464 5.712 2.464Zm38.842 5.488c-2.949 0-5.32-.859-7.112-2.576-1.792-1.755-2.688-4.256-2.688-7.504v-14.112h-6.552v-5.208h6.552v-7.84h5.992v7.84h10.472v5.208h-10.472v13.552c0 1.605.411 2.856 1.232 3.752.822.858 2.054 1.288 3.696 1.288 1.419 0 2.8-.374 4.144-1.12l1.736 5.04c-.97.56-1.978.97-3.024 1.232-1.008.298-2.333.448-3.976.448Zm28.818.056c-2.874 0-5.357-.635-7.448-1.904-2.053-1.27-3.658-3.043-4.816-5.32-1.12-2.278-1.68-4.91-1.68-7.896 0-3.024.579-5.675 1.736-7.952 1.195-2.315 2.838-4.107 4.928-5.376 2.128-1.27 4.555-1.904 7.28-1.904 4.294 0 7.56 1.232 9.8 3.696 2.24 2.426 3.36 5.73 3.36 9.912 0 1.008-.056 1.96-.168 2.856H284.22c.187 2.762 1.027 4.872 2.52 6.328 1.531 1.456 3.472 2.184 5.824 2.184 1.904 0 3.416-.43 4.536-1.288 1.12-.896 1.923-1.998 2.408-3.304l5.208 1.4c-.784 2.576-2.221 4.648-4.312 6.216-2.053 1.568-4.741 2.352-8.064 2.352Zm0-25.312c-1.978 0-3.658.578-5.04 1.736-1.381 1.157-2.314 2.893-2.8 5.208h15.12c-.112-2.091-.784-3.771-2.016-5.04-1.232-1.27-2.986-1.904-5.264-1.904Zm32.851 37.408c-3.659 0-6.571-.896-8.736-2.688-2.166-1.755-3.51-3.939-4.032-6.552l5.824-1.288c.448 1.493 1.232 2.725 2.352 3.696 1.157 1.008 2.688 1.512 4.592 1.512 2.576 0 4.554-.822 5.936-2.464 1.381-1.606 2.072-3.827 2.072-6.664v-3.136h-.336c-.971 1.418-2.184 2.501-3.64 3.248-1.419.746-3.192 1.12-5.32 1.12-2.24 0-4.294-.579-6.16-1.736-1.83-1.158-3.304-2.819-4.424-4.984-1.12-2.166-1.68-4.798-1.68-7.896 0-3.099.56-5.731 1.68-7.896 1.12-2.166 2.613-3.827 4.48-4.984 1.904-1.158 3.994-1.736 6.272-1.736 1.904 0 3.621.373 5.152 1.12 1.53.746 2.744 1.792 3.64 3.136h.336v-3.36h5.656v26.992c0 4.704-1.251 8.306-3.752 10.808-2.502 2.501-5.806 3.752-9.912 3.752Zm.168-18.704c2.128 0 3.957-.747 5.488-2.24 1.568-1.531 2.352-3.827 2.352-6.888 0-3.062-.784-5.339-2.352-6.832-1.531-1.531-3.36-2.296-5.488-2.296a7.75 7.75 0 0 0-3.864 1.008c-1.195.672-2.147 1.698-2.856 3.08-.71 1.344-1.064 3.024-1.064 5.04 0 3.061.765 5.357 2.296 6.888 1.568 1.493 3.397 2.24 5.488 2.24Zm33.746 6.608c-2.912 0-5.451-.635-7.616-1.904-2.128-1.307-3.771-3.099-4.928-5.376-1.158-2.315-1.736-4.947-1.736-7.896 0-2.987.578-5.619 1.736-7.896 1.157-2.278 2.8-4.051 4.928-5.32 2.165-1.307 4.704-1.96 7.616-1.96s5.432.653 7.56 1.96c2.165 1.269 3.826 3.042 4.984 5.32 1.157 2.277 1.736 4.909 1.736 7.896 0 2.986-.579 5.618-1.736 7.896-1.158 2.277-2.819 4.069-4.984 5.376-2.128 1.269-4.648 1.904-7.56 1.904Zm0-5.544c2.426 0 4.424-.822 5.992-2.464 1.568-1.68 2.352-4.07 2.352-7.168 0-3.099-.784-5.47-2.352-7.112-1.568-1.68-3.566-2.52-5.992-2.52-2.427 0-4.424.84-5.992 2.52-1.568 1.642-2.352 4.013-2.352 7.112 0 3.098.784 5.488 2.352 7.168 1.568 1.642 3.565 2.464 5.992 2.464Zm24.226 4.648v-28.56h5.656v4.816h.336c.821-1.792 2.016-3.192 3.584-4.2 1.605-1.008 3.509-1.512 5.712-1.512 1.082 0 2.09.093 3.024.28.97.149 1.754.41 2.352.784v6.272a13.72 13.72 0 0 0-3.024-1.176c-1.083-.299-2.278-.448-3.584-.448-2.539 0-4.518.877-5.936 2.632-1.419 1.717-2.128 3.882-2.128 6.496v14.616h-5.992Zm33.578 12.544c-1.083 0-2.035-.094-2.856-.28-.821-.15-1.531-.336-2.128-.56v-5.712c.448.224 1.101.466 1.96.728a9.59 9.59 0 0 0 2.8.392c1.232 0 2.24-.355 3.024-1.064.784-.71 1.531-1.904 2.24-3.584l1.288-3.08-11.48-27.944h6.608l7.84 20.16h.28l8.232-20.16h6.552l-14.224 33.432c-.709 1.68-1.493 3.08-2.352 4.2-.821 1.157-1.848 2.016-3.08 2.576-1.232.597-2.8.896-4.704.896ZM189.926 771.72c-2.464 0-4.648-.598-6.552-1.792-1.904-1.232-3.416-2.987-4.536-5.264-1.083-2.278-1.624-4.984-1.624-8.12 0-3.174.56-5.88 1.68-8.12 1.12-2.278 2.651-4.014 4.592-5.208 1.941-1.232 4.125-1.848 6.552-1.848 2.165 0 3.976.429 5.432 1.288 1.456.821 2.539 1.885 3.248 3.192h.336l-.336-4.088v-11.032h5.936v40.096h-5.6v-3.584h-.336c-.784 1.157-1.904 2.202-3.36 3.136-1.419.896-3.229 1.344-5.432 1.344Zm1.176-5.544c2.277 0 4.163-.822 5.656-2.464 1.531-1.643 2.296-4.032 2.296-7.168s-.765-5.526-2.296-7.168c-1.493-1.643-3.379-2.464-5.656-2.464-2.277 0-4.181.821-5.712 2.464-1.493 1.642-2.24 4.032-2.24 7.168s.747 5.525 2.24 7.168c1.531 1.642 3.435 2.464 5.712 2.464Zm32.402 5.544c-2.464 0-4.648-.598-6.552-1.792-1.904-1.232-3.416-2.987-4.536-5.264-1.082-2.278-1.624-4.984-1.624-8.12 0-3.174.56-5.88 1.68-8.12 1.12-2.278 2.651-4.014 4.592-5.208 1.942-1.232 4.126-1.848 6.552-1.848 2.166 0 3.976.429 5.432 1.288 1.456.821 2.539 1.885 3.248 3.192h.336v-3.584h5.6v28.56h-5.6v-3.584h-.336c-.784 1.157-1.904 2.202-3.36 3.136-1.418.896-3.229 1.344-5.432 1.344Zm1.176-5.544c2.278 0 4.163-.822 5.656-2.464 1.531-1.643 2.296-4.032 2.296-7.168s-.765-5.526-2.296-7.168c-1.493-1.643-3.378-2.464-5.656-2.464-2.277 0-4.181.821-5.712 2.464-1.493 1.642-2.24 4.032-2.24 7.168s.747 5.525 2.24 7.168c1.531 1.642 3.435 2.464 5.712 2.464Zm38.842 5.488c-2.949 0-5.32-.859-7.112-2.576-1.792-1.755-2.688-4.256-2.688-7.504v-14.112h-6.552v-5.208h6.552v-7.84h5.992v7.84h10.472v5.208h-10.472v13.552c0 1.605.411 2.856 1.232 3.752.822.858 2.054 1.288 3.696 1.288 1.419 0 2.8-.374 4.144-1.12l1.736 5.04c-.97.56-1.978.97-3.024 1.232-1.008.298-2.333.448-3.976.448Zm28.818.056c-2.874 0-5.357-.635-7.448-1.904-2.053-1.27-3.658-3.043-4.816-5.32-1.12-2.278-1.68-4.91-1.68-7.896 0-3.024.579-5.675 1.736-7.952 1.195-2.315 2.838-4.107 4.928-5.376 2.128-1.27 4.555-1.904 7.28-1.904 4.294 0 7.56 1.232 9.8 3.696 2.24 2.426 3.36 5.73 3.36 9.912 0 1.008-.056 1.96-.168 2.856H284.22c.187 2.762 1.027 4.872 2.52 6.328 1.531 1.456 3.472 2.184 5.824 2.184 1.904 0 3.416-.43 4.536-1.288 1.12-.896 1.923-1.998 2.408-3.304l5.208 1.4c-.784 2.576-2.221 4.648-4.312 6.216-2.053 1.568-4.741 2.352-8.064 2.352Zm0-25.312c-1.978 0-3.658.578-5.04 1.736-1.381 1.157-2.314 2.893-2.8 5.208h15.12c-.112-2.091-.784-3.771-2.016-5.04-1.232-1.27-2.986-1.904-5.264-1.904Z" fill="#FE6F6F"/><path d="M188.75 631.72c-3.248 0-5.749-.971-7.504-2.912-1.755-1.979-2.632-4.648-2.632-8.008v-18.536h5.992v17.752c0 2.09.541 3.64 1.624 4.648 1.083 1.008 2.483 1.512 4.2 1.512 2.091 0 3.752-.747 4.984-2.24 1.269-1.531 1.904-3.379 1.904-5.544v-16.128h5.936v28.56h-5.6v-3.64h-.336c-.747 1.344-1.904 2.445-3.472 3.304-1.531.821-3.229 1.232-5.096 1.232Zm36.042-34.832c-1.306 0-2.408-.448-3.304-1.344-.896-.896-1.344-1.998-1.344-3.304 0-1.27.448-2.352 1.344-3.248.896-.896 1.998-1.344 3.304-1.344 1.307 0 2.408.448 3.304 1.344.896.896 1.344 1.978 1.344 3.248 0 1.306-.448 2.408-1.344 3.304-.896.896-1.997 1.344-3.304 1.344Zm-12.824 33.936v-5.432h9.8v-17.696h-8.12v-5.432h14.112v23.128h9.856v5.432h-25.648Zm45.114.896c-2.464 0-4.648-.598-6.552-1.792-1.904-1.232-3.416-2.987-4.536-5.264-1.082-2.278-1.624-4.984-1.624-8.12 0-3.174.56-5.88 1.68-8.12 1.12-2.278 2.651-4.014 4.592-5.208 1.942-1.232 4.126-1.848 6.552-1.848 2.166 0 3.976.429 5.432 1.288 1.456.821 2.539 1.885 3.248 3.192h.336l-.336-4.088v-11.032h5.936v40.096h-5.6v-3.584h-.336c-.784 1.157-1.904 2.202-3.36 3.136-1.418.896-3.229 1.344-5.432 1.344Zm1.176-5.544c2.278 0 4.163-.822 5.656-2.464 1.531-1.643 2.296-4.032 2.296-7.168s-.765-5.526-2.296-7.168c-1.493-1.643-3.378-2.464-5.656-2.464-2.277 0-4.181.821-5.712 2.464-1.493 1.642-2.24 4.032-2.24 7.168s.747 5.525 2.24 7.168c1.531 1.642 3.435 2.464 5.712 2.464Z" fill="#FF6584"/><mask id="a" style="mask-type:alpha" maskUnits="userSpaceOnUse" x="0" y="0" width="1851" height="205"><path fill="#D9D9D9" d="M.453.176h1850.1v204.611H.453z"/></mask><g mask="url(#a)"><path fill="#F5F5F5" d="M4.602 1.863h1845.95v810.388H4.602z"/><path fill="#F5F5F5" d="M4.602 3.863h1845.95v821.07H4.602z"/><path stroke="#1F2023" stroke-width="3" d="M4.602 104.895H1850.55M4.602 203.666H1850.55"/><path fill="#9CC0FA" d="M4.551 1.863h1846v101.448h-1846z"/><path d="M44.746 63.587v-3.84h5.28V44.515h-4.96v-3.84h14.208v3.84h-4.96v15.232h5.28v3.84H44.746Zm18.292 0V40.675h6.4c2.24 0 4.138.459 5.696 1.376 1.557.917 2.741 2.23 3.552 3.936.832 1.707 1.248 3.755 1.248 6.144 0 2.368-.416 4.416-1.248 6.144-.81 1.707-1.995 3.019-3.552 3.936-1.558.917-3.456 1.376-5.696 1.376h-6.4Zm4.288-4.096h1.984c1.941 0 3.477-.608 4.608-1.824 1.13-1.237 1.696-3.083 1.696-5.536 0-2.453-.566-4.288-1.696-5.504-1.13-1.237-2.667-1.856-4.608-1.856h-1.984v14.72ZM347.121 64.099c-1.856 0-3.434-.48-4.736-1.44-1.301-.981-2.304-2.368-3.008-4.16-.682-1.792-1.024-3.915-1.024-6.368 0-2.475.352-4.597 1.056-6.368.704-1.792 1.718-3.168 3.04-4.128 1.323-.981 2.912-1.472 4.768-1.472 1.451 0 2.774.288 3.968.864a7.341 7.341 0 0 1 2.976 2.56c.79 1.13 1.259 2.55 1.408 4.256l-4.256.736c-.17-1.344-.597-2.4-1.28-3.168-.661-.79-1.6-1.184-2.816-1.184-1.301 0-2.389.683-3.264 2.048-.853 1.365-1.28 3.317-1.28 5.856 0 2.539.427 4.49 1.28 5.856.854 1.344 1.942 2.016 3.264 2.016 1.088 0 1.995-.384 2.72-1.152.747-.768 1.227-1.824 1.44-3.168l4.288.544c-.213 1.536-.672 2.901-1.376 4.096a7.5 7.5 0 0 1-2.816 2.784c-1.194.661-2.645.992-4.352.992Zm19.284 0c-1.899 0-3.52-.49-4.864-1.472-1.323-1.003-2.336-2.4-3.04-4.192-.704-1.813-1.056-3.915-1.056-6.304 0-2.41.352-4.512 1.056-6.304.704-1.792 1.717-3.179 3.04-4.16 1.344-1.003 2.965-1.504 4.864-1.504 1.898 0 3.509.501 4.832 1.504 1.344.981 2.368 2.368 3.072 4.16.704 1.792 1.056 3.893 1.056 6.304 0 2.39-.352 4.49-1.056 6.304-.704 1.792-1.728 3.19-3.072 4.192-1.323.981-2.934 1.472-4.832 1.472Zm0-4.096c1.45 0 2.581-.661 3.392-1.984.81-1.323 1.216-3.285 1.216-5.888 0-2.603-.406-4.565-1.216-5.888-.811-1.323-1.942-1.984-3.392-1.984-1.451 0-2.582.661-3.392 1.984-.811 1.323-1.216 3.285-1.216 5.888 0 2.603.405 4.565 1.216 5.888.81 1.323 1.941 1.984 3.392 1.984Zm19.283 4.096c-2.538 0-4.544-.65-6.016-1.952-1.472-1.323-2.378-3.05-2.72-5.184l4.32-.96c.171 1.13.619 2.08 1.344 2.848.747.768 1.782 1.152 3.104 1.152 1.195 0 2.134-.256 2.816-.768.704-.512 1.056-1.195 1.056-2.048 0-.896-.33-1.6-.992-2.112-.64-.533-1.749-1.035-3.328-1.504l-1.984-.608a10.709 10.709 0 0 1-2.56-1.184 6.521 6.521 0 0 1-1.952-2.08c-.512-.853-.768-1.91-.768-3.168 0-1.195.288-2.272.864-3.232.598-.96 1.451-1.717 2.56-2.272 1.11-.576 2.454-.864 4.032-.864 2.39 0 4.235.565 5.536 1.696 1.302 1.11 2.091 2.656 2.368 4.64l-4.096.608c-.213-.939-.629-1.664-1.248-2.176-.618-.533-1.45-.8-2.496-.8-.938 0-1.728.213-2.368.64-.64.427-.96.992-.96 1.696 0 .725.299 1.333.896 1.824.598.49 1.547.928 2.848 1.312l1.728.512c1.28.384 2.379.864 3.296 1.44.939.555 1.654 1.28 2.144 2.176.512.896.768 2.016.768 3.36 0 1.557-.384 2.859-1.152 3.904-.746 1.024-1.738 1.803-2.976 2.336-1.237.512-2.592.768-4.064.768Zm16.948-.512V44.77h-6.592v-4.096h17.472v4.096h-6.592v18.816h-4.288ZM661.051 64.099c-1.856 0-3.435-.48-4.736-1.44-1.301-.981-2.304-2.368-3.008-4.16-.683-1.792-1.024-3.915-1.024-6.368 0-2.475.352-4.597 1.056-6.368.704-1.792 1.717-3.168 3.04-4.128 1.323-.981 2.912-1.472 4.768-1.472 1.451 0 2.773.288 3.968.864a7.341 7.341 0 0 1 2.976 2.56c.789 1.13 1.259 2.55 1.408 4.256l-4.256.736c-.171-1.344-.597-2.4-1.28-3.168-.661-.79-1.6-1.184-2.816-1.184-1.301 0-2.389.683-3.264 2.048-.853 1.365-1.28 3.317-1.28 5.856 0 2.539.427 4.49 1.28 5.856.853 1.344 1.941 2.016 3.264 2.016 1.088 0 1.995-.384 2.72-1.152.747-.768 1.227-1.824 1.44-3.168l4.288.544c-.213 1.536-.672 2.901-1.376 4.096a7.507 7.507 0 0 1-2.816 2.784c-1.195.661-2.645.992-4.352.992Zm9.811-.512 6.656-22.912h5.632l6.656 22.912h-4.768l-1.408-5.152h-6.592l-1.408 5.152h-4.768Zm8.736-14.528-1.472 5.408h4.416l-1.472-5.408-.608-2.688h-.256l-.608 2.688Zm17.78 14.528V44.77h-6.592v-4.096h17.472v4.096h-6.592v18.816h-4.288Zm13.971 0V40.675h15.296v4.096h-11.008v4.864h10.016v4.096h-10.016v5.76h11.008v4.096h-15.296Zm25.812.512c-1.6 0-3.008-.49-4.224-1.472-1.216-1.003-2.165-2.4-2.848-4.192-.661-1.792-.992-3.893-.992-6.304 0-2.41.352-4.512 1.056-6.304.725-1.792 1.739-3.179 3.04-4.16 1.323-1.003 2.869-1.504 4.64-1.504 2.411 0 4.299.587 5.664 1.76 1.365 1.152 2.219 2.784 2.56 4.896l-4 1.12c-.256-1.173-.725-2.08-1.408-2.72-.683-.64-1.589-.96-2.72-.96-1.259 0-2.325.672-3.2 2.016-.875 1.344-1.312 3.296-1.312 5.856s.395 4.512 1.184 5.856c.789 1.344 1.888 2.016 3.296 2.016 1.259 0 2.261-.448 3.008-1.344.747-.917 1.227-2.165 1.44-3.744h-4.832v-3.648h9.056v12.32h-3.968v-2.592h-.256c-.469 1.024-1.131 1.803-1.984 2.336-.832.512-1.899.768-3.2.768Zm19.923 0c-1.898 0-3.52-.49-4.864-1.472-1.322-1.003-2.336-2.4-3.04-4.192-.704-1.813-1.056-3.915-1.056-6.304 0-2.41.352-4.512 1.056-6.304.704-1.792 1.718-3.179 3.04-4.16 1.344-1.003 2.966-1.504 4.864-1.504 1.899 0 3.51.501 4.832 1.504 1.344.981 2.368 2.368 3.072 4.16.704 1.792 1.056 3.893 1.056 6.304 0 2.39-.352 4.49-1.056 6.304-.704 1.792-1.728 3.19-3.072 4.192-1.322.981-2.933 1.472-4.832 1.472Zm0-4.096c1.451 0 2.582-.661 3.392-1.984.811-1.323 1.216-3.285 1.216-5.888 0-2.603-.405-4.565-1.216-5.888-.81-1.323-1.941-1.984-3.392-1.984-1.45 0-2.581.661-3.392 1.984-.81 1.323-1.216 3.285-1.216 5.888 0 2.603.406 4.565 1.216 5.888.811 1.323 1.942 1.984 3.392 1.984Zm11.156 3.584V40.675h8.64c2.325 0 4.16.64 5.504 1.92 1.365 1.259 2.048 3.03 2.048 5.312 0 1.579-.448 2.933-1.344 4.064-.875 1.11-2.005 1.888-3.392 2.336l-.032.224 4.896 8.8v.256h-4.64l-4.864-8.608h-2.528v8.608h-4.288Zm4.288-12.576h4.32c.981 0 1.771-.267 2.368-.8.597-.555.896-1.344.896-2.368 0-1.024-.277-1.803-.832-2.336-.555-.555-1.355-.832-2.4-.832h-4.352v6.336Zm20.851 12.576V53.443l-7.232-12.768h4.96l4.288 7.84h.256l4.064-7.84h5.056l-7.104 12.768v10.144h-4.288ZM1258.72 64.099c-2.65 0-4.73-.81-6.24-2.432-1.52-1.621-2.27-3.883-2.27-6.784V40.675h4.25V55.17c0 1.536.39 2.73 1.15 3.584.77.832 1.81 1.248 3.11 1.248 1.3 0 2.33-.416 3.1-1.248.77-.853 1.15-2.048 1.15-3.584V40.675h4.26v14.208c0 1.856-.34 3.477-1.02 4.864-.69 1.365-1.67 2.432-2.95 3.2-1.26.768-2.77 1.152-4.54 1.152Zm11.76-.512v-3.84h5.28V44.515h-4.96v-3.84h14.21v3.84h-4.96v15.232h5.28v3.84h-14.85Zm18.29 0V40.675h6.4c2.24 0 4.14.459 5.7 1.376 1.56.917 2.74 2.23 3.55 3.936.83 1.707 1.25 3.755 1.25 6.144 0 2.368-.42 4.416-1.25 6.144-.81 1.707-1.99 3.019-3.55 3.936-1.56.917-3.46 1.376-5.7 1.376h-6.4Zm4.29-4.096h1.98c1.95 0 3.48-.608 4.61-1.824 1.13-1.237 1.7-3.083 1.7-5.536 0-2.453-.57-4.288-1.7-5.504-1.13-1.237-2.66-1.856-4.61-1.856h-1.98v14.72ZM1524.21 63.587l6.66-22.912h5.63l6.65 22.912h-4.76l-1.41-5.152h-6.59l-1.41 5.152h-4.77Zm8.74-14.528-1.48 5.408h4.42l-1.47-5.408-.61-2.688h-.26l-.6 2.688Zm12.27 14.528V40.675h7.43c1.62 0 3.04.267 4.25.8a5.964 5.964 0 0 1 2.85 2.432c.7 1.088 1.06 2.485 1.06 4.192 0 1.707-.36 3.115-1.06 4.224-.68 1.088-1.63 1.899-2.85 2.432-1.21.512-2.63.768-4.25.768h-3.14v8.064h-4.29Zm4.29-12.16h3.3c1.17 0 2.09-.267 2.75-.8.66-.555.99-1.397.99-2.528 0-1.13-.33-1.963-.99-2.496-.66-.555-1.58-.832-2.75-.832h-3.3v6.656Zm14.9 12.16V40.675h7.42c1.62 0 3.04.267 4.26.8a6.01 6.01 0 0 1 2.85 2.432c.7 1.088 1.05 2.485 1.05 4.192 0 1.707-.35 3.115-1.05 4.224a6.252 6.252 0 0 1-2.85 2.432c-1.22.512-2.64.768-4.26.768h-3.13v8.064h-4.29Zm4.29-12.16h3.29c1.18 0 2.09-.267 2.76-.8.66-.555.99-1.397.99-2.528 0-1.13-.33-1.963-.99-2.496-.67-.555-1.58-.832-2.76-.832h-3.29v6.656Zm14.51 12.16V40.675h8.64c2.33 0 4.16.64 5.51 1.92 1.36 1.259 2.04 3.03 2.04 5.312 0 1.579-.44 2.933-1.34 4.064-.87 1.11-2 1.888-3.39 2.336l-.03.224 4.89 8.8v.256h-4.64l-4.86-8.608h-2.53v8.608h-4.29Zm4.29-12.576h4.32c.98 0 1.77-.267 2.37-.8.6-.555.89-1.344.89-2.368 0-1.024-.27-1.803-.83-2.336-.55-.555-1.35-.832-2.4-.832h-4.35v6.336Zm22.93 13.088c-1.9 0-3.52-.49-4.86-1.472-1.32-1.003-2.34-2.4-3.04-4.192-.71-1.813-1.06-3.915-1.06-6.304 0-2.41.35-4.512 1.06-6.304.7-1.792 1.72-3.179 3.04-4.16 1.34-1.003 2.96-1.504 4.86-1.504 1.9 0 3.51.501 4.83 1.504 1.35.981 2.37 2.368 3.08 4.16.7 1.792 1.05 3.893 1.05 6.304 0 2.39-.35 4.49-1.05 6.304-.71 1.792-1.73 3.19-3.08 4.192-1.32.981-2.93 1.472-4.83 1.472Zm0-4.096c1.45 0 2.58-.661 3.39-1.984s1.22-3.285 1.22-5.888c0-2.603-.41-4.565-1.22-5.888-.81-1.323-1.94-1.984-3.39-1.984-1.45 0-2.58.661-3.39 1.984s-1.22 3.285-1.22 5.888c0 2.603.41 4.565 1.22 5.888.81 1.323 1.94 1.984 3.39 1.984Zm16.5 3.584-6.59-22.912h4.83l3.55 13.44.64 2.656h.26l.67-2.656 3.75-13.44h4.86l-6.88 22.912h-5.09Zm12.41 0 6.65-22.912h5.63l6.66 22.912h-4.77l-1.41-5.152h-6.59l-1.41 5.152h-4.76Zm8.73-14.528-1.47 5.408h4.42l-1.48-5.408-.6-2.688h-.26l-.61 2.688Zm12.56 14.528V40.675h4.29V59.49h11.27v4.096h-15.56ZM966.843 63.587V40.675h6.4c2.24 0 4.138.459 5.696 1.376 1.557.917 2.741 2.23 3.552 3.936.832 1.707 1.248 3.755 1.248 6.144 0 2.368-.416 4.416-1.248 6.144-.811 1.707-1.995 3.019-3.552 3.936-1.558.917-3.456 1.376-5.696 1.376h-6.4Zm4.288-4.096h1.984c1.941 0 3.477-.608 4.608-1.824 1.13-1.237 1.696-3.083 1.696-5.536 0-2.453-.566-4.288-1.696-5.504-1.131-1.237-2.667-1.856-4.608-1.856h-1.984v14.72Zm22.099 4.608a6.992 6.992 0 0 1-3.648-.992c-1.088-.661-1.963-1.632-2.624-2.912-.64-1.301-.96-2.89-.96-4.768 0-1.899.331-3.488.992-4.768.683-1.301 1.568-2.272 2.656-2.912a6.936 6.936 0 0 1 3.616-.992c1.216 0 2.229.224 3.04.672.811.448 1.419 1.024 1.824 1.728h.256v-1.888h3.908v16.32h-3.908V61.73h-.256c-.448.64-1.077 1.195-1.888 1.664-.811.47-1.813.704-3.008.704Zm1.024-3.904c1.173 0 2.155-.395 2.944-1.184.789-.79 1.184-1.984 1.184-3.584s-.395-2.795-1.184-3.584c-.789-.81-1.771-1.216-2.944-1.216-1.152 0-2.123.405-2.912 1.216-.789.79-1.184 1.984-1.184 3.584s.395 2.795 1.184 3.584c.789.79 1.76 1.184 2.912 1.184Zm22.066 3.904c-1.75 0-3.16-.544-4.22-1.632-1.05-1.11-1.57-2.667-1.57-4.672v-6.976h-3.62v-3.552h3.62v-4.48h4.16v4.48h5.89v3.552h-5.89v6.656c0 .875.21 1.547.64 2.016.43.47 1.03.704 1.82.704.43 0 .82-.053 1.19-.16.38-.107.79-.288 1.21-.544l1.25 3.52c-.66.405-1.31.683-1.95.832-.62.17-1.46.256-2.53.256Zm16.6 0c-1.65 0-3.07-.352-4.29-1.056-1.2-.704-2.12-1.707-2.78-3.008-.67-1.301-1-2.837-1-4.608 0-1.77.36-3.307 1.06-4.608.7-1.301 1.66-2.304 2.88-3.008 1.22-.704 2.6-1.056 4.16-1.056 2.6 0 4.52.704 5.76 2.112 1.26 1.408 1.89 3.317 1.89 5.728 0 .277-.01.576-.03.896 0 .32-.03.619-.07.896h-11.65c.15 1.323.61 2.325 1.38 3.008.79.683 1.74 1.024 2.85 1.024.91 0 1.66-.224 2.24-.672a4.04 4.04 0 0 0 1.28-1.696l3.61.992c-.51 1.536-1.37 2.763-2.59 3.68-1.19.917-2.76 1.376-4.7 1.376Zm.06-13.984c-.94 0-1.76.277-2.46.832-.69.555-1.17 1.387-1.44 2.496h7.55c-.09-1.003-.44-1.803-1.06-2.4-.62-.619-1.48-.928-2.59-.928Z" fill="#000"/><path d="M54.57 147.167c-.746 0-1.376-.256-1.888-.768a2.584 2.584 0 0 1-.736-1.856c0-.725.246-1.344.736-1.856.512-.512 1.142-.768 1.888-.768.726 0 1.344.256 1.856.768a2.53 2.53 0 0 1 .768 1.856c0 .726-.256 1.344-.768 1.856a2.529 2.529 0 0 1-1.856.768Zm-4.128 26.656c-1.152 0-2.133-.106-2.944-.32-.789-.192-1.482-.458-2.08-.8l1.28-3.008c.427.256.939.48 1.536.672.598.214 1.216.32 1.856.32 1.003 0 1.707-.309 2.112-.928.427-.597.64-1.344.64-2.24v-14.176h-6.048v-3.072h9.472v17.152c0 2.048-.533 3.627-1.6 4.736-1.045 1.11-2.453 1.664-4.224 1.664Zm13.62-7.232v-22.912h3.392v6.304l-.192 2.496h.192c.427-.768 1.099-1.408 2.016-1.92a6.116 6.116 0 0 1 3.072-.8c2.07 0 3.594.587 4.576 1.76 1.003 1.174 1.504 2.72 1.504 4.64v10.432H75.23v-10.016c0-1.173-.32-2.069-.96-2.688-.619-.64-1.483-.96-2.592-.96-.832 0-1.568.214-2.208.64-.619.427-1.11 1.014-1.472 1.76-.363.726-.544 1.536-.544 2.432v8.832h-3.392Zm29.427.48c-1.685 0-3.04-.49-4.064-1.472-1.024-1.002-1.536-2.432-1.536-4.288v-8.064h-3.744v-2.976h3.744v-4.48h3.424v4.48h5.984v2.976h-5.984v7.744c0 .918.235 1.632.704 2.144.47.491 1.174.736 2.112.736.811 0 1.6-.213 2.368-.64l.992 2.88c-.554.32-1.13.555-1.728.704-.576.171-1.333.256-2.272.256Zm9.364-.48v-3.328c1.92-1.45 3.562-2.762 4.928-3.936 1.386-1.173 2.517-2.272 3.392-3.296.832-.96 1.45-1.909 1.856-2.848.405-.938.608-1.93.608-2.976 0-1.258-.342-2.208-1.024-2.848-.683-.64-1.622-.96-2.816-.96-1.131 0-2.048.342-2.752 1.024-.683.662-1.088 1.568-1.216 2.72l-3.264-.32a7.663 7.663 0 0 1 .992-3.328 6.575 6.575 0 0 1 2.464-2.432c1.066-.597 2.336-.896 3.808-.896 2.282 0 4.064.598 5.344 1.792 1.301 1.174 1.952 2.816 1.952 4.928 0 1.536-.32 2.966-.96 4.288a17.23 17.23 0 0 1-2.432 3.776 28.029 28.029 0 0 1-2.88 2.848 42.569 42.569 0 0 1-3.36 2.592l.064.096h10.08v3.104h-14.784Zm28.019 0v-4.608h-10.304v-2.688l10.048-15.616h3.648v15.072h2.976v3.232h-2.976v4.608h-3.392Zm-6.432-7.84h6.432v-9.664h-.192l-6.24 9.664Zm18.324 15.008a7.393 7.393 0 0 1-1.632-.16 7.064 7.064 0 0 1-1.216-.32v-3.264c.256.128.629.267 1.12.416.49.15 1.024.224 1.6.224.704 0 1.28-.202 1.728-.608.448-.405.874-1.088 1.28-2.048l.736-1.76-6.56-15.968h3.776l4.48 11.52h.16l4.704-11.52h3.744l-8.128 19.104c-.406.96-.854 1.76-1.344 2.4a4.331 4.331 0 0 1-1.76 1.472c-.704.342-1.6.512-2.688.512Zm24.531-6.976a2.638 2.638 0 0 1-1.888-.768 2.619 2.619 0 0 1-.8-1.92c0-.725.267-1.354.8-1.888.534-.533 1.163-.8 1.888-.8.726 0 1.355.267 1.888.8.534.534.8 1.163.8 1.888 0 .747-.266 1.387-.8 1.92a2.634 2.634 0 0 1-1.888.768Zm19.188 0a2.634 2.634 0 0 1-1.888-.768 2.615 2.615 0 0 1-.8-1.92c0-.725.266-1.354.8-1.888.533-.533 1.162-.8 1.888-.8.725 0 1.354.267 1.888.8.533.534.8 1.163.8 1.888 0 .747-.267 1.387-.8 1.92a2.638 2.638 0 0 1-1.888.768Zm19.187 0a2.638 2.638 0 0 1-1.888-.768 2.619 2.619 0 0 1-.8-1.92c0-.725.267-1.354.8-1.888.534-.533 1.163-.8 1.888-.8.726 0 1.355.267 1.888.8.534.534.8 1.163.8 1.888 0 .747-.266 1.387-.8 1.92a2.634 2.634 0 0 1-1.888.768ZM340.337 166.591v-3.2h5.44v-15.2l-4.992 3.648v-3.776l5.984-4.384h2.432v19.712h5.152v3.2h-14.016Zm19.188 0v-3.328c1.92-1.45 3.562-2.762 4.928-3.936 1.386-1.173 2.517-2.272 3.392-3.296.832-.96 1.45-1.909 1.856-2.848.405-.938.608-1.93.608-2.976 0-1.258-.342-2.208-1.024-2.848-.683-.64-1.622-.96-2.816-.96-1.131 0-2.048.342-2.752 1.024-.683.662-1.088 1.568-1.216 2.72l-3.264-.32a7.663 7.663 0 0 1 .992-3.328 6.575 6.575 0 0 1 2.464-2.432c1.066-.597 2.336-.896 3.808-.896 2.282 0 4.064.598 5.344 1.792 1.301 1.174 1.952 2.816 1.952 4.928 0 1.536-.32 2.966-.96 4.288a17.23 17.23 0 0 1-2.432 3.776 28.029 28.029 0 0 1-2.88 2.848 42.569 42.569 0 0 1-3.36 2.592l.064.096h10.08v3.104h-14.784Zm28.019 0v-4.608H377.24v-2.688l10.048-15.616h3.648v15.072h2.976v3.232h-2.976v4.608h-3.392Zm-6.432-7.84h6.432v-9.664h-.192l-6.24 9.664Zm23.668 8.032a2.634 2.634 0 0 1-1.888-.768 2.615 2.615 0 0 1-.8-1.92c0-.725.266-1.354.8-1.888.533-.533 1.162-.8 1.888-.8.725 0 1.354.267 1.888.8.533.534.8 1.163.8 1.888 0 .747-.267 1.387-.8 1.92a2.638 2.638 0 0 1-1.888.768Zm12.307-.192v-3.2h5.44v-15.2l-4.992 3.648v-3.776l5.984-4.384h2.432v19.712h5.152v3.2h-14.016Zm19.188 0v-3.328c1.92-1.45 3.562-2.762 4.928-3.936 1.386-1.173 2.517-2.272 3.392-3.296.832-.96 1.45-1.909 1.856-2.848.405-.938.608-1.93.608-2.976 0-1.258-.342-2.208-1.024-2.848-.683-.64-1.622-.96-2.816-.96-1.131 0-2.048.342-2.752 1.024-.683.662-1.088 1.568-1.216 2.72l-3.264-.32a7.663 7.663 0 0 1 .992-3.328 6.575 6.575 0 0 1 2.464-2.432c1.066-.597 2.336-.896 3.808-.896 2.282 0 4.064.598 5.344 1.792 1.301 1.174 1.952 2.816 1.952 4.928 0 1.536-.32 2.966-.96 4.288a17.23 17.23 0 0 1-2.432 3.776 28.029 28.029 0 0 1-2.88 2.848 42.569 42.569 0 0 1-3.36 2.592l.064.096h10.08v3.104h-14.784ZM654.015 166.591v-22.912h14.752v3.328h-11.264v6.4h10.272v3.328h-10.272v9.856h-3.488Zm26.323.512c-1.834 0-3.413-.501-4.736-1.504-1.301-1.002-2.293-2.4-2.976-4.192-.682-1.792-1.024-3.882-1.024-6.272 0-2.389.342-4.48 1.024-6.272.683-1.792 1.675-3.189 2.976-4.192 1.323-1.002 2.902-1.504 4.736-1.504 1.835 0 3.403.502 4.704 1.504 1.323 1.003 2.326 2.4 3.008 4.192.683 1.792 1.024 3.883 1.024 6.272 0 2.39-.341 4.48-1.024 6.272-.682 1.792-1.685 3.19-3.008 4.192-1.301 1.003-2.869 1.504-4.704 1.504Zm0-3.328c1.643 0 2.912-.736 3.808-2.208.918-1.472 1.376-3.616 1.376-6.432 0-2.816-.458-4.96-1.376-6.432-.896-1.472-2.165-2.208-3.808-2.208-1.642 0-2.922.736-3.84 2.208-.896 1.472-1.344 3.616-1.344 6.432 0 2.816.448 4.96 1.344 6.432.918 1.472 2.198 2.208 3.84 2.208Zm19.188 3.328c-1.835 0-3.414-.501-4.736-1.504-1.302-1.002-2.294-2.4-2.976-4.192-.683-1.792-1.024-3.882-1.024-6.272 0-2.389.341-4.48 1.024-6.272.682-1.792 1.674-3.189 2.976-4.192 1.322-1.002 2.901-1.504 4.736-1.504 1.834 0 3.402.502 4.704 1.504 1.322 1.003 2.325 2.4 3.008 4.192.682 1.792 1.024 3.883 1.024 6.272 0 2.39-.342 4.48-1.024 6.272-.683 1.792-1.686 3.19-3.008 4.192-1.302 1.003-2.87 1.504-4.704 1.504Zm0-3.328c1.642 0 2.912-.736 3.808-2.208.917-1.472 1.376-3.616 1.376-6.432 0-2.816-.459-4.96-1.376-6.432-.896-1.472-2.166-2.208-3.808-2.208-1.643 0-2.923.736-3.84 2.208-.896 1.472-1.344 3.616-1.344 6.432 0 2.816.448 4.96 1.344 6.432.917 1.472 2.197 2.208 3.84 2.208Zm11.187 2.816v-22.912h6.016c3.286 0 5.824 1.014 7.616 3.04 1.814 2.027 2.72 4.832 2.72 8.416 0 3.584-.906 6.39-2.72 8.416-1.792 2.027-4.33 3.04-7.616 3.04h-6.016Zm3.488-3.328h2.464c2.134 0 3.808-.661 5.024-1.984 1.238-1.322 1.856-3.37 1.856-6.144 0-2.773-.618-4.821-1.856-6.144-1.216-1.322-2.89-1.984-5.024-1.984h-2.464v16.256ZM975.355 167.103c-1.323 0-2.55-.256-3.68-.768a6.782 6.782 0 0 1-2.72-2.24c-.704-1.002-1.12-2.229-1.248-3.68l3.36-.448c.17 1.152.608 2.102 1.312 2.848.725.726 1.717 1.088 2.976 1.088 1.322 0 2.368-.416 3.136-1.248.789-.853 1.184-1.984 1.184-3.392 0-1.386-.384-2.496-1.152-3.328-.768-.853-1.814-1.28-3.136-1.28-.747 0-1.451.171-2.112.512-.64.32-1.163.747-1.568 1.28l-3.36-1.472 1.376-11.296h12.32v3.104h-9.536l-.864 6.144.192.064c.448-.405 1.024-.736 1.727-.992.705-.277 1.494-.416 2.369-.416 1.386 0 2.624.31 3.712.928 1.088.619 1.941 1.504 2.56 2.656.618 1.152.928 2.518.928 4.096 0 1.515-.331 2.87-.992 4.064a7.335 7.335 0 0 1-2.752 2.784c-1.152.662-2.496.992-4.032.992Zm11.635-.512 11.296-22.912h3.424l-11.296 22.912h-3.424Zm19.67 0v-3.2h5.44v-15.2l-4.99 3.648v-3.776l5.98-4.384h2.43v19.712h5.15v3.2h-14.01Zm25.87.512c-1.3 0-2.49-.256-3.58-.768a7.27 7.27 0 0 1-2.72-2.176c-.7-.96-1.13-2.112-1.28-3.456l3.36-.768c.17 1.174.63 2.112 1.38 2.816.74.704 1.69 1.056 2.84 1.056 1.24 0 2.24-.352 3.01-1.056.77-.725 1.15-1.664 1.15-2.816 0-1.216-.39-2.154-1.18-2.816-.77-.661-1.82-.992-3.17-.992h-1.79v-3.104h1.66c1.07 0 1.98-.288 2.72-.864.77-.597 1.16-1.44 1.16-2.528 0-.981-.34-1.77-1-2.368-.64-.618-1.51-.928-2.62-.928-1 0-1.84.288-2.5.864-.66.555-1.07 1.291-1.24 2.208l-3.27-.416c.15-1.109.53-2.101 1.15-2.976a6.913 6.913 0 0 1 2.44-2.08c1-.512 2.15-.768 3.45-.768 1.39 0 2.6.267 3.65.8 1.07.534 1.89 1.259 2.46 2.176.58.918.87 1.942.87 3.072 0 .918-.15 1.696-.45 2.336-.3.64-.68 1.174-1.15 1.6-.45.427-.92.79-1.41 1.088v.192a6.13 6.13 0 0 1 2.65 2.048c.69.918 1.03 2.134 1.03 3.648 0 1.323-.32 2.507-.96 3.552-.64 1.046-1.54 1.878-2.69 2.496-1.15.619-2.47.928-3.97.928Zm12.02-.512 11.3-22.912h3.42l-11.29 22.912h-3.43Zm19.67 0v-3.328c1.92-1.45 3.56-2.762 4.93-3.936 1.38-1.173 2.52-2.272 3.39-3.296.83-.96 1.45-1.909 1.86-2.848.4-.938.6-1.93.6-2.976 0-1.258-.34-2.208-1.02-2.848-.68-.64-1.62-.96-2.82-.96-1.13 0-2.04.342-2.75 1.024-.68.662-1.09 1.568-1.21 2.72l-3.27-.32c.09-1.216.42-2.325.99-3.328a6.583 6.583 0 0 1 2.47-2.432c1.06-.597 2.33-.896 3.81-.896 2.28 0 4.06.598 5.34 1.792 1.3 1.174 1.95 2.816 1.95 4.928 0 1.536-.32 2.966-.96 4.288a17.33 17.33 0 0 1-2.43 3.776c-.85.982-1.81 1.931-2.88 2.848-1.05.896-2.17 1.76-3.36 2.592l.06.096H1079v3.104h-14.78Zm26.07.512c-1.82 0-3.36-.501-4.64-1.504-1.26-1.002-2.22-2.4-2.88-4.192-.64-1.813-.96-3.904-.96-6.272 0-2.368.32-4.448.96-6.24.66-1.792 1.62-3.189 2.88-4.192 1.28-1.024 2.82-1.536 4.64-1.536 1.81 0 3.35.512 4.61 1.536 1.28 1.003 2.24 2.4 2.88 4.192.66 1.792.99 3.872.99 6.24 0 2.368-.33 4.459-.99 6.272-.64 1.792-1.6 3.19-2.88 4.192-1.26 1.003-2.8 1.504-4.61 1.504Zm-5.03-11.968c0 1.792.18 3.318.55 4.576l7.39-12.128c-.79-.789-1.76-1.184-2.91-1.184-1.65 0-2.89.768-3.75 2.304-.85 1.515-1.28 3.659-1.28 6.432Zm5.03 8.736c1.62 0 2.86-.757 3.71-2.272.87-1.536 1.31-3.69 1.31-6.464 0-1.749-.17-3.264-.51-4.544l-7.42 12.128c.78.768 1.76 1.152 2.91 1.152Zm12.31 2.72v-3.328c1.92-1.45 3.56-2.762 4.92-3.936 1.39-1.173 2.52-2.272 3.4-3.296.83-.96 1.45-1.909 1.85-2.848.41-.938.61-1.93.61-2.976 0-1.258-.34-2.208-1.02-2.848-.69-.64-1.63-.96-2.82-.96-1.13 0-2.05.342-2.75 1.024-.69.662-1.09 1.568-1.22 2.72l-3.26-.32c.08-1.216.41-2.325.99-3.328a6.63 6.63 0 0 1 2.46-2.432c1.07-.597 2.34-.896 3.81-.896 2.28 0 4.07.598 5.35 1.792 1.3 1.174 1.95 2.816 1.95 4.928 0 1.536-.32 2.966-.96 4.288a17.33 17.33 0 0 1-2.43 3.776c-.86.982-1.82 1.931-2.88 2.848-1.05.896-2.17 1.76-3.36 2.592l.06.096h10.08v3.104h-14.78Zm19.18 0v-3.328c1.92-1.45 3.57-2.762 4.93-3.936 1.39-1.173 2.52-2.272 3.39-3.296.83-.96 1.45-1.909 1.86-2.848.4-.938.61-1.93.61-2.976 0-1.258-.34-2.208-1.03-2.848-.68-.64-1.62-.96-2.81-.96-1.13 0-2.05.342-2.76 1.024-.68.662-1.08 1.568-1.21 2.72l-3.27-.32c.09-1.216.42-2.325 1-3.328a6.557 6.557 0 0 1 2.46-2.432c1.07-.597 2.34-.896 3.81-.896 2.28 0 4.06.598 5.34 1.792 1.3 1.174 1.95 2.816 1.95 4.928 0 1.536-.32 2.966-.96 4.288a16.618 16.618 0 0 1-2.43 3.776c-.85.982-1.81 1.931-2.88 2.848-1.04.896-2.16 1.76-3.36 2.592l.07.096h10.08v3.104h-14.79ZM1257.98 167.103c-1.41 0-2.65-.341-3.74-1.024-1.09-.704-1.95-1.706-2.59-3.008-.62-1.301-.93-2.848-.93-4.64 0-1.813.32-3.36.96-4.64.64-1.301 1.51-2.293 2.62-2.976 1.11-.704 2.36-1.056 3.75-1.056 1.23 0 2.27.246 3.1.736.83.47 1.45 1.078 1.86 1.824h.19l-.19-2.336v-6.304h3.39v22.912h-3.2v-2.048h-.19c-.45.662-1.09 1.259-1.92 1.792-.82.512-1.85.768-3.11.768Zm.67-3.168c1.3 0 2.38-.469 3.24-1.408.87-.938 1.31-2.304 1.31-4.096 0-1.792-.44-3.157-1.31-4.096-.86-.938-1.94-1.408-3.24-1.408-1.3 0-2.39.47-3.26 1.408-.85.939-1.28 2.304-1.28 4.096 0 1.792.43 3.158 1.28 4.096.87.939 1.96 1.408 3.26 1.408Zm18.52 3.168c-1.41 0-2.66-.341-3.75-1.024-1.08-.704-1.95-1.706-2.59-3.008-.62-1.301-.93-2.848-.93-4.64 0-1.813.32-3.36.96-4.64.64-1.301 1.52-2.293 2.63-2.976 1.11-.704 2.36-1.056 3.74-1.056 1.24 0 2.27.246 3.11.736.83.47 1.45 1.078 1.85 1.824h.19v-2.048h3.2v16.32h-3.2v-2.048h-.19c-.45.662-1.09 1.259-1.92 1.792-.81.512-1.84.768-3.1.768Zm.67-3.168c1.3 0 2.38-.469 3.23-1.408.88-.938 1.31-2.304 1.31-4.096 0-1.792-.43-3.157-1.31-4.096-.85-.938-1.93-1.408-3.23-1.408s-2.39.47-3.26 1.408c-.86.939-1.28 2.304-1.28 4.096 0 1.792.42 3.158 1.28 4.096.87.939 1.96 1.408 3.26 1.408Zm17.49 2.656-6.85-16.32h3.75l4.8 11.936h.16l4.8-11.936h3.68l-6.91 16.32h-3.43Zm20.95-19.392c-.75 0-1.38-.256-1.89-.768s-.77-1.141-.77-1.888c0-.725.26-1.344.77-1.856s1.14-.768 1.89-.768 1.38.256 1.89.768.77 1.131.77 1.856c0 .747-.26 1.376-.77 1.888s-1.14.768-1.89.768Zm-7.33 19.392v-3.104h5.6v-10.112h-4.64v-3.104h8.07v13.216h5.63v3.104h-14.66Zm25.78.512c-1.41 0-2.65-.341-3.74-1.024-1.09-.704-1.95-1.706-2.59-3.008-.62-1.301-.93-2.848-.93-4.64 0-1.813.32-3.36.96-4.64.64-1.301 1.51-2.293 2.62-2.976 1.11-.704 2.36-1.056 3.75-1.056 1.23 0 2.27.246 3.1.736.83.47 1.45 1.078 1.86 1.824h.19l-.19-2.336v-6.304h3.39v22.912h-3.2v-2.048h-.19c-.45.662-1.09 1.259-1.92 1.792-.82.512-1.85.768-3.11.768Zm.67-3.168c1.3 0 2.38-.469 3.24-1.408.87-.938 1.31-2.304 1.31-4.096 0-1.792-.44-3.157-1.31-4.096-.86-.938-1.94-1.408-3.24-1.408-1.3 0-2.39.47-3.26 1.408-.85.939-1.28 2.304-1.28 4.096 0 1.792.43 3.158 1.28 4.096.87.939 1.96 1.408 3.26 1.408Zm12.89 9.568v-2.976h12.73v2.976h-12.73Zm18.67-6.912v-3.2h5.44v-15.2l-4.99 3.648v-3.776l5.98-4.384h2.44v19.712h5.15v3.2h-14.02Zm19.19 0v-3.328c1.92-1.45 3.56-2.762 4.93-3.936 1.38-1.173 2.52-2.272 3.39-3.296.83-.96 1.45-1.909 1.86-2.848.4-.938.6-1.93.6-2.976 0-1.258-.34-2.208-1.02-2.848-.68-.64-1.62-.96-2.82-.96-1.13 0-2.04.342-2.75 1.024-.68.662-1.09 1.568-1.21 2.72l-3.27-.32c.09-1.216.42-2.325.99-3.328a6.583 6.583 0 0 1 2.47-2.432c1.06-.597 2.33-.896 3.81-.896 2.28 0 4.06.598 5.34 1.792 1.3 1.174 1.95 2.816 1.95 4.928 0 1.536-.32 2.966-.96 4.288a17.33 17.33 0 0 1-2.43 3.776c-.85.982-1.81 1.931-2.88 2.848-1.05.896-2.17 1.76-3.36 2.592l.06.096h10.08v3.104h-14.78Zm25.88.512c-1.31 0-2.5-.256-3.59-.768a7.349 7.349 0 0 1-2.72-2.176c-.7-.96-1.13-2.112-1.28-3.456l3.36-.768c.17 1.174.63 2.112 1.38 2.816.74.704 1.69 1.056 2.85 1.056 1.23 0 2.24-.352 3-1.056.77-.725 1.16-1.664 1.16-2.816 0-1.216-.4-2.154-1.19-2.816-.77-.661-1.82-.992-3.17-.992h-1.79v-3.104h1.67c1.06 0 1.97-.288 2.72-.864.76-.597 1.15-1.44 1.15-2.528 0-.981-.33-1.77-.99-2.368-.64-.618-1.52-.928-2.63-.928-1 0-1.83.288-2.49.864-.67.555-1.08 1.291-1.25 2.208l-3.27-.416a6.601 6.601 0 0 1 1.16-2.976 6.967 6.967 0 0 1 2.43-2.08c1-.512 2.15-.768 3.45-.768 1.39 0 2.61.267 3.65.8 1.07.534 1.89 1.259 2.47 2.176.57.918.86 1.942.86 3.072 0 .918-.15 1.696-.45 2.336-.3.64-.68 1.174-1.15 1.6-.45.427-.92.79-1.41 1.088v.192a6.217 6.217 0 0 1 2.66 2.048c.68.918 1.02 2.134 1.02 3.648 0 1.323-.32 2.507-.96 3.552-.64 1.046-1.53 1.878-2.69 2.496-1.15.619-2.47.928-3.96.928ZM1545.22 167.071c-1.69 0-3.04-.49-4.07-1.472-1.02-1.002-1.53-2.432-1.53-4.288v-8.064h-3.75v-2.976h3.75v-4.48h3.42v4.48h5.98v2.976h-5.98v7.744c0 .918.23 1.632.7 2.144.47.491 1.18.736 2.12.736.81 0 1.6-.213 2.36-.64l1 2.88c-.56.32-1.13.555-1.73.704-.58.171-1.34.256-2.27.256Zm10.9-.48v-16.32h3.23v2.752h.19c.47-1.024 1.15-1.824 2.05-2.4.91-.576 2-.864 3.26-.864.62 0 1.2.054 1.73.16.55.086 1 .235 1.34.448v3.584a7.802 7.802 0 0 0-1.72-.672 7.775 7.775 0 0 0-2.05-.256c-1.45 0-2.58.502-3.39 1.504-.82.982-1.22 2.219-1.22 3.712v8.352h-3.42Zm23.12.512c-1.86 0-3.29-.554-4.29-1.664-1-1.13-1.5-2.656-1.5-4.576v-10.592h3.42v10.144c0 1.195.31 2.08.93 2.656.62.576 1.42.864 2.4.864 1.19 0 2.14-.426 2.85-1.28.72-.874 1.08-1.93 1.08-3.168v-9.216h3.4v16.32h-3.2v-2.08h-.2c-.42.768-1.08 1.398-1.98 1.888-.87.47-1.84.704-2.91.704Zm20.82 0c-1.64 0-3.06-.362-4.26-1.088-1.17-.725-2.09-1.738-2.75-3.04-.64-1.301-.96-2.805-.96-4.512 0-1.728.33-3.242.99-4.544.69-1.322 1.62-2.346 2.82-3.072 1.21-.725 2.6-1.088 4.16-1.088 2.45 0 4.32.704 5.6 2.112 1.28 1.387 1.92 3.275 1.92 5.664 0 .576-.03 1.12-.1 1.632h-12.06c.11 1.579.59 2.784 1.44 3.616.87.832 1.98 1.248 3.33 1.248 1.08 0 1.95-.245 2.59-.736a4.228 4.228 0 0 0 1.37-1.888l2.98.8c-.45 1.472-1.27 2.656-2.46 3.552-1.18.896-2.71 1.344-4.61 1.344Zm0-14.464c-1.13 0-2.09.331-2.88.992-.79.662-1.32 1.654-1.6 2.976h8.64c-.07-1.194-.45-2.154-1.15-2.88-.71-.725-1.71-1.088-3.01-1.088Z" fill="#212121"/><path stroke="#000" d="M299.102 103.625v-.316"/><path stroke="#1F2023" stroke-width="3" d="M259.703-1.416v823.163M615.035 1.863v823.163M929.047 1.863v823.163M1209.25 3.863v823.163M1501.37 3.863v823.163"/></g></svg>