<svg width="1615" height="804" fill="none" xmlns="http://www.w3.org/2000/svg"><path d="m186.764 547.215 19.768-40.096h5.992l-19.768 40.096h-5.992Zm46.85.896c-2.875 0-5.357-.634-7.448-1.904-2.053-1.269-3.659-3.042-4.816-5.32-1.12-2.277-1.68-4.909-1.68-7.896 0-3.024.579-5.674 1.736-7.952 1.195-2.314 2.837-4.106 4.928-5.376 2.128-1.269 4.555-1.904 7.28-1.904 4.293 0 7.56 1.232 9.8 3.696 2.24 2.427 3.36 5.731 3.36 9.912 0 1.008-.056 1.96-.168 2.856h-21.112c.187 2.763 1.027 4.872 2.52 6.328 1.531 1.456 3.472 2.184 5.824 2.184 1.904 0 3.416-.429 4.536-1.288 1.12-.896 1.923-1.997 2.408-3.304l5.208 1.4c-.784 2.576-2.221 4.648-4.312 6.216-2.053 1.568-4.741 2.352-8.064 2.352Zm0-25.312c-1.979 0-3.659.579-5.04 1.736-1.381 1.158-2.315 2.894-2.8 5.208h15.12c-.112-2.09-.784-3.77-2.016-5.04-1.232-1.269-2.987-1.904-5.264-1.904Zm19.298 24.416 10.304-14.504-10.248-14.056h7l6.776 9.464h.168l6.496-9.464h7.224l-10.416 14.056 10.416 14.504h-6.944l-6.888-9.8h-.112l-6.888 9.8h-6.888Zm34.138 12.096v-40.656h5.6v3.696h.336c.747-1.232 1.867-2.296 3.36-3.192 1.531-.933 3.341-1.4 5.432-1.4 2.464 0 4.648.616 6.552 1.848 1.941 1.195 3.453 2.931 4.536 5.208 1.083 2.24 1.624 4.947 1.624 8.12 0 3.136-.541 5.843-1.624 8.12-1.083 2.278-2.595 4.032-4.536 5.264-1.904 1.195-4.088 1.792-6.552 1.792-2.165 0-3.995-.448-5.488-1.344-1.493-.896-2.595-1.941-3.304-3.136h-.336l.336 4.088v11.592h-5.936Zm13.552-16.744c2.277 0 4.163-.802 5.656-2.408 1.531-1.642 2.296-4.05 2.296-7.224 0-3.173-.765-5.562-2.296-7.168-1.493-1.642-3.379-2.464-5.656-2.464-2.277 0-4.181.822-5.712 2.464-1.493 1.606-2.24 3.995-2.24 7.168 0 3.174.747 5.582 2.24 7.224 1.531 1.606 3.435 2.408 5.712 2.408Zm33.746 5.544c-2.874 0-5.357-.634-7.448-1.904-2.053-1.269-3.658-3.042-4.816-5.32-1.12-2.277-1.68-4.909-1.68-7.896 0-3.024.579-5.674 1.736-7.952 1.195-2.314 2.838-4.106 4.928-5.376 2.128-1.269 4.555-1.904 7.28-1.904 4.294 0 7.56 1.232 9.8 3.696 2.24 2.427 3.36 5.731 3.36 9.912 0 1.008-.056 1.96-.168 2.856h-21.112c.187 2.763 1.027 4.872 2.52 6.328 1.531 1.456 3.472 2.184 5.824 2.184 1.904 0 3.416-.429 4.536-1.288 1.12-.896 1.923-1.997 2.408-3.304l5.208 1.4c-.784 2.576-2.221 4.648-4.312 6.216-2.053 1.568-4.741 2.352-8.064 2.352Zm0-25.312c-1.978 0-3.658.579-5.04 1.736-1.381 1.158-2.314 2.894-2.8 5.208h15.12c-.112-2.09-.784-3.77-2.016-5.04-1.232-1.269-2.986-1.904-5.264-1.904Zm21.146 24.416v-28.56h5.656v3.584h.336c.747-1.344 1.886-2.426 3.416-3.248 1.568-.821 3.286-1.232 5.152-1.232 3.211 0 5.694.971 7.448 2.912 1.755 1.942 2.632 4.611 2.632 8.008v18.536h-5.936v-17.752c0-2.09-.541-3.64-1.624-4.648-1.082-1.008-2.482-1.512-4.2-1.512-2.09 0-3.77.766-5.04 2.296-1.232 1.531-1.848 3.36-1.848 5.488v16.128h-5.992Zm45.731.896c-3.734 0-6.608-.821-8.624-2.464-2.016-1.642-3.323-3.808-3.92-6.496l5.768-1.064a6.227 6.227 0 0 0 2.128 3.416c1.12.859 2.669 1.288 4.648 1.288 1.68 0 3.098-.298 4.256-.896 1.194-.634 1.792-1.549 1.792-2.744 0-1.157-.504-2.053-1.512-2.688-.971-.634-2.408-1.138-4.312-1.512l-3.472-.616c-2.39-.41-4.35-1.288-5.88-2.632-1.531-1.344-2.296-3.192-2.296-5.544 0-1.642.485-3.08 1.456-4.312.97-1.269 2.277-2.258 3.92-2.968 1.68-.746 3.584-1.12 5.712-1.12 3.136 0 5.693.635 7.672 1.904 2.016 1.27 3.285 3.267 3.808 5.992l-5.32.952c-.448-1.418-1.214-2.408-2.296-2.968-1.083-.597-2.352-.896-3.808-.896-1.494 0-2.763.318-3.808.952-1.046.598-1.568 1.363-1.568 2.296 0 1.008.41 1.811 1.232 2.408.858.56 2.09.99 3.696 1.288l4.144.728c2.8.486 4.928 1.382 6.384 2.688 1.456 1.27 2.184 3.23 2.184 5.88 0 1.83-.523 3.435-1.568 4.816-1.046 1.382-2.483 2.446-4.312 3.192-1.83.747-3.864 1.12-6.104 1.12Zm33.858 0c-2.875 0-5.358-.634-7.448-1.904-2.054-1.269-3.659-3.042-4.816-5.32-1.12-2.277-1.68-4.909-1.68-7.896 0-3.024.578-5.674 1.736-7.952 1.194-2.314 2.837-4.106 4.928-5.376 2.128-1.269 4.554-1.904 7.28-1.904 4.293 0 7.56 1.232 9.8 3.696 2.24 2.427 3.36 5.731 3.36 9.912 0 1.008-.056 1.96-.168 2.856h-21.112c.186 2.763 1.026 4.872 2.52 6.328 1.53 1.456 3.472 2.184 5.824 2.184 1.904 0 3.416-.429 4.536-1.288 1.12-.896 1.922-1.997 2.408-3.304l5.208 1.4c-.784 2.576-2.222 4.648-4.312 6.216-2.054 1.568-4.742 2.352-8.064 2.352Zm0-25.312c-1.979 0-3.659.579-5.04 1.736-1.382 1.158-2.315 2.894-2.8 5.208h15.12c-.112-2.09-.784-3.77-2.016-5.04-1.232-1.269-2.987-1.904-5.264-1.904Zm33.298 25.312c-3.734 0-6.608-.821-8.624-2.464-2.016-1.642-3.323-3.808-3.92-6.496l5.768-1.064a6.227 6.227 0 0 0 2.128 3.416c1.12.859 2.669 1.288 4.648 1.288 1.68 0 3.098-.298 4.256-.896 1.194-.634 1.792-1.549 1.792-2.744 0-1.157-.504-2.053-1.512-2.688-.971-.634-2.408-1.138-4.312-1.512l-3.472-.616c-2.39-.41-4.35-1.288-5.88-2.632-1.531-1.344-2.296-3.192-2.296-5.544 0-1.642.485-3.08 1.456-4.312.97-1.269 2.277-2.258 3.92-2.968 1.68-.746 3.584-1.12 5.712-1.12 3.136 0 5.693.635 7.672 1.904 2.016 1.27 3.285 3.267 3.808 5.992l-5.32.952c-.448-1.418-1.214-2.408-2.296-2.968-1.083-.597-2.352-.896-3.808-.896-1.494 0-2.763.318-3.808.952-1.046.598-1.568 1.363-1.568 2.296 0 1.008.41 1.811 1.232 2.408.858.56 2.09.99 3.696 1.288l4.144.728c2.8.486 4.928 1.382 6.384 2.688 1.456 1.27 2.184 3.23 2.184 5.88 0 1.83-.523 3.435-1.568 4.816-1.046 1.382-2.483 2.446-4.312 3.192-1.83.747-3.864 1.12-6.104 1.12Z" fill="#F0F0F0"/><path d="m247.959 676.044 19.768-40.096h5.992l-19.768 40.096h-5.992Zm50.658-33.992c-1.306 0-2.408-.448-3.304-1.344-.858-.896-1.288-1.979-1.288-3.248 0-1.269.43-2.352 1.288-3.248.896-.896 1.998-1.344 3.304-1.344 1.27 0 2.352.448 3.248 1.344.896.896 1.344 1.979 1.344 3.248 0 1.269-.448 2.352-1.344 3.248-.896.896-1.978 1.344-3.248 1.344Zm-7.224 46.648c-2.016 0-3.733-.187-5.152-.56-1.381-.336-2.594-.803-3.64-1.4l2.24-5.264c.747.448 1.643.84 2.688 1.176a9.597 9.597 0 0 0 3.248.56c1.755 0 2.987-.541 3.696-1.624.747-1.045 1.12-2.352 1.12-3.92V652.86h-10.584v-5.376h16.576V677.5c0 3.584-.933 6.347-2.8 8.288-1.829 1.941-4.293 2.912-7.392 2.912Zm23.834-12.656v-40.096h5.936v11.032l-.336 4.368h.336c.747-1.344 1.923-2.464 3.528-3.36 1.643-.933 3.435-1.4 5.376-1.4 3.622 0 6.291 1.027 8.008 3.08 1.755 2.053 2.632 4.76 2.632 8.12v18.256h-5.936v-17.528c0-2.053-.56-3.621-1.68-4.704-1.082-1.12-2.594-1.68-4.536-1.68-1.456 0-2.744.373-3.864 1.12-1.082.747-1.941 1.773-2.576 3.08-.634 1.269-.952 2.688-.952 4.256v15.456h-5.936Zm51.498.84c-2.949 0-5.32-.859-7.112-2.576-1.792-1.755-2.688-4.256-2.688-7.504v-14.112h-6.552v-5.208h6.552v-7.84h5.992v7.84h10.472v5.208h-10.472v13.552c0 1.605.411 2.856 1.232 3.752.822.859 2.054 1.288 3.696 1.288 1.419 0 2.8-.373 4.144-1.12l1.736 5.04c-.97.56-1.978.971-3.024 1.232-1.008.299-2.333.448-3.976.448Zm16.387-.84v-5.824c3.36-2.539 6.234-4.835 8.624-6.888 2.426-2.053 4.405-3.976 5.936-5.768 1.456-1.68 2.538-3.341 3.248-4.984a13.006 13.006 0 0 0 1.064-5.208c0-2.203-.598-3.864-1.792-4.984-1.195-1.12-2.838-1.68-4.928-1.68-1.979 0-3.584.597-4.816 1.792-1.195 1.157-1.904 2.744-2.128 4.76l-5.712-.56c.149-2.128.728-4.069 1.736-5.824 1.045-1.792 2.482-3.211 4.312-4.256 1.866-1.045 4.088-1.568 6.664-1.568 3.994 0 7.112 1.045 9.352 3.136 2.277 2.053 3.416 4.928 3.416 8.624 0 2.688-.56 5.189-1.68 7.504-1.083 2.315-2.502 4.517-4.256 6.608a49.128 49.128 0 0 1-5.04 4.984 74.311 74.311 0 0 1-5.88 4.536l.112.168h17.64v5.432h-25.872Zm49.034 0v-8.064h-18.032v-4.704l17.584-27.328h6.384v26.376h5.208v5.656h-5.208v8.064h-5.936Zm-11.256-13.72h11.256v-16.912h-.336l-10.92 16.912Zm32.066 26.264c-1.083 0-2.035-.093-2.856-.28a12.403 12.403 0 0 1-2.128-.56v-5.712c.448.224 1.101.467 1.96.728a9.585 9.585 0 0 0 2.8.392c1.232 0 2.24-.355 3.024-1.064.784-.709 1.53-1.904 2.24-3.584l1.288-3.08-11.48-27.944h6.608l7.84 20.16h.28l8.232-20.16h6.552l-14.224 33.432c-.71 1.68-1.494 3.08-2.352 4.2-.822 1.157-1.848 2.016-3.08 2.576-1.232.597-2.8.896-4.704.896Zm30.162-12.544v-40.096h5.936v11.032l-.336 4.368h.336c.747-1.344 1.923-2.464 3.528-3.36 1.643-.933 3.435-1.4 5.376-1.4 3.621 0 6.291 1.027 8.008 3.08 1.755 2.053 2.632 4.76 2.632 8.12v18.256h-5.936v-17.528c0-2.053-.56-3.621-1.68-4.704-1.083-1.12-2.595-1.68-4.536-1.68-1.456 0-2.744.373-3.864 1.12-1.083.747-1.941 1.773-2.576 3.08-.635 1.269-.952 2.688-.952 4.256v15.456h-5.936Zm46.01 12.992c-3.659 0-6.571-.896-8.736-2.688-2.165-1.755-3.509-3.939-4.032-6.552l5.824-1.288c.448 1.493 1.232 2.725 2.352 3.696 1.157 1.008 2.688 1.512 4.592 1.512 2.576 0 4.555-.821 5.936-2.464 1.381-1.605 2.072-3.827 2.072-6.664v-3.136h-.336c-.971 1.419-2.184 2.501-3.64 3.248-1.419.747-3.192 1.12-5.32 1.12-2.24 0-4.293-.579-6.16-1.736-1.829-1.157-3.304-2.819-4.424-4.984-1.12-2.165-1.68-4.797-1.68-7.896s.56-5.731 1.68-7.896c1.12-2.165 2.613-3.827 4.48-4.984 1.904-1.157 3.995-1.736 6.272-1.736 1.904 0 3.621.373 5.152 1.12 1.531.747 2.744 1.792 3.64 3.136h.336v-3.36h5.656v26.992c0 4.704-1.251 8.307-3.752 10.808-2.501 2.501-5.805 3.752-9.912 3.752Zm.168-18.704c2.128 0 3.957-.747 5.488-2.24 1.568-1.531 2.352-3.827 2.352-6.888s-.784-5.339-2.352-6.832c-1.531-1.531-3.36-2.296-5.488-2.296a7.755 7.755 0 0 0-3.864 1.008c-1.195.672-2.147 1.699-2.856 3.08-.709 1.344-1.064 3.024-1.064 5.04 0 3.061.765 5.357 2.296 6.888 1.568 1.493 3.397 2.24 5.488 2.24Zm37.946-28.28c-1.306 0-2.408-.448-3.304-1.344-.858-.896-1.288-1.979-1.288-3.248 0-1.269.43-2.352 1.288-3.248.896-.896 1.998-1.344 3.304-1.344 1.27 0 2.352.448 3.248 1.344.896.896 1.344 1.979 1.344 3.248 0 1.269-.448 2.352-1.344 3.248-.896.896-1.978 1.344-3.248 1.344Zm-7.224 46.648c-2.016 0-3.733-.187-5.152-.56-1.381-.336-2.594-.803-3.64-1.4l2.24-5.264c.747.448 1.643.84 2.688 1.176a9.597 9.597 0 0 0 3.248.56c1.755 0 2.987-.541 3.696-1.624.747-1.045 1.12-2.352 1.12-3.92V652.86h-10.584v-5.376h16.576V677.5c0 3.584-.933 6.347-2.8 8.288-1.829 1.941-4.293 2.912-7.392 2.912Zm35.314-11.76c-2.464 0-4.648-.597-6.552-1.792-1.904-1.232-3.416-2.987-4.536-5.264-1.082-2.277-1.624-4.984-1.624-8.12 0-3.173.56-5.88 1.68-8.12 1.12-2.277 2.651-4.013 4.592-5.208 1.942-1.232 4.126-1.848 6.552-1.848 2.166 0 3.976.429 5.432 1.288 1.456.821 2.539 1.885 3.248 3.192h.336v-3.584h5.6v28.56h-5.6v-3.584h-.336c-.784 1.157-1.904 2.203-3.36 3.136-1.418.896-3.229 1.344-5.432 1.344Zm1.176-5.544c2.278 0 4.163-.821 5.656-2.464 1.531-1.643 2.296-4.032 2.296-7.168s-.765-5.525-2.296-7.168c-1.493-1.643-3.378-2.464-5.656-2.464-2.277 0-4.181.821-5.712 2.464-1.493 1.643-2.24 4.032-2.24 7.168s.747 5.525 2.24 7.168c1.531 1.643 3.435 2.464 5.712 2.464Zm33.802 5.544c-3.733 0-6.608-.821-8.624-2.464-2.016-1.643-3.322-3.808-3.92-6.496l5.768-1.064a6.236 6.236 0 0 0 2.128 3.416c1.12.859 2.67 1.288 4.648 1.288 1.68 0 3.099-.299 4.256-.896 1.195-.635 1.792-1.549 1.792-2.744 0-1.157-.504-2.053-1.512-2.688-.97-.635-2.408-1.139-4.312-1.512l-3.472-.616c-2.389-.411-4.349-1.288-5.88-2.632-1.53-1.344-2.296-3.192-2.296-5.544 0-1.643.486-3.08 1.456-4.312.971-1.269 2.278-2.259 3.92-2.968 1.68-.747 3.584-1.12 5.712-1.12 3.136 0 5.694.635 7.672 1.904 2.016 1.269 3.286 3.267 3.808 5.992l-5.32.952c-.448-1.419-1.213-2.408-2.296-2.968-1.082-.597-2.352-.896-3.808-.896-1.493 0-2.762.317-3.808.952-1.045.597-1.568 1.363-1.568 2.296 0 1.008.411 1.811 1.232 2.408.859.56 2.091.989 3.696 1.288l4.144.728c2.8.485 4.928 1.381 6.384 2.688 1.456 1.269 2.184 3.229 2.184 5.88 0 1.829-.522 3.435-1.568 4.816-1.045 1.381-2.482 2.445-4.312 3.192-1.829.747-3.864 1.12-6.104 1.12Zm33.131 0c-2.278 0-4.368-.448-6.272-1.344a12.823 12.823 0 0 1-4.76-3.808c-1.232-1.68-1.979-3.696-2.24-6.048l5.88-1.344c.298 2.053 1.101 3.696 2.408 4.928 1.306 1.232 2.968 1.848 4.984 1.848 2.165 0 3.92-.616 5.264-1.848 1.344-1.269 2.016-2.912 2.016-4.928 0-2.128-.691-3.771-2.072-4.928-1.344-1.157-3.192-1.736-5.544-1.736h-3.136V652.3h2.912c1.866 0 3.453-.504 4.76-1.512 1.344-1.045 2.016-2.52 2.016-4.424 0-1.717-.579-3.099-1.736-4.144-1.12-1.083-2.651-1.624-4.592-1.624-1.755 0-3.211.504-4.368 1.512-1.158.971-1.886 2.259-2.184 3.864l-5.712-.728c.261-1.941.933-3.677 2.016-5.208a12.162 12.162 0 0 1 4.256-3.64c1.754-.896 3.77-1.344 6.048-1.344 2.426 0 4.554.467 6.384 1.4 1.866.933 3.304 2.203 4.312 3.808 1.008 1.605 1.512 3.397 1.512 5.376 0 1.605-.262 2.968-.784 4.088-.523 1.12-1.195 2.053-2.016 2.8a14.564 14.564 0 0 1-2.464 1.904v.336c1.904.784 3.453 1.979 4.648 3.584 1.194 1.605 1.792 3.733 1.792 6.384 0 2.315-.56 4.387-1.68 6.216-1.12 1.829-2.688 3.285-4.704 4.368-2.016 1.083-4.331 1.624-6.944 1.624Zm24.562-.896v-28.56h5.656v4.816h.336c.821-1.792 2.016-3.192 3.584-4.2 1.605-1.008 3.509-1.512 5.712-1.512 1.082 0 2.09.093 3.024.28.97.149 1.754.411 2.352.784v6.272a13.82 13.82 0 0 0-3.024-1.176c-1.083-.299-2.278-.448-3.584-.448-2.539 0-4.518.877-5.936 2.632-1.419 1.717-2.128 3.883-2.128 6.496v14.616h-5.992Zm41.642.896c-2.464 0-4.648-.597-6.552-1.792-1.904-1.232-3.416-2.987-4.536-5.264-1.083-2.277-1.624-4.984-1.624-8.12 0-3.173.56-5.88 1.68-8.12 1.12-2.277 2.65-4.013 4.592-5.208 1.941-1.232 4.125-1.848 6.552-1.848 2.165 0 3.976.429 5.432 1.288 1.456.821 2.538 1.885 3.248 3.192h.336v-3.584h5.6v28.56h-5.6v-3.584h-.336c-.784 1.157-1.904 2.203-3.36 3.136-1.419.896-3.23 1.344-5.432 1.344Zm1.176-5.544c2.277 0 4.162-.821 5.656-2.464 1.53-1.643 2.296-4.032 2.296-7.168s-.766-5.525-2.296-7.168c-1.494-1.643-3.379-2.464-5.656-2.464-2.278 0-4.182.821-5.712 2.464-1.494 1.643-2.24 4.032-2.24 7.168s.746 5.525 2.24 7.168c1.53 1.643 3.434 2.464 5.712 2.464Z" fill="#FFEAAC"/><path d="M372.74 794.071c-3.062 0-5.432-.859-7.112-2.576-1.68-1.717-2.52-4.069-2.52-7.056v-9.016c0-1.68-.448-2.837-1.344-3.472-.896-.672-1.923-1.008-3.08-1.008h-1.344v-5.04h1.344c1.157 0 2.184-.317 3.08-.952.896-.672 1.344-1.848 1.344-3.528v-9.016c0-2.987.84-5.339 2.52-7.056 1.68-1.717 4.05-2.576 7.112-2.576h4.592v4.984h-4.2c-1.195 0-2.203.411-3.024 1.232-.822.821-1.232 1.997-1.232 3.528v9.296c0 3.509-1.475 5.656-4.424 6.44v.336c1.493.411 2.594 1.139 3.304 2.184.746 1.008 1.12 2.427 1.12 4.256v9.296c0 1.531.41 2.707 1.232 3.528.821.821 1.829 1.232 3.024 1.232h4.2v4.984h-4.592Zm62.06-6.608c-1.269 0-2.371-.448-3.304-1.344-.933-.933-1.4-2.053-1.4-3.36 0-1.269.467-2.371 1.4-3.304.933-.933 2.035-1.4 3.304-1.4 1.269 0 2.371.467 3.304 1.4.933.933 1.4 2.035 1.4 3.304 0 1.307-.467 2.427-1.4 3.36-.933.896-2.035 1.344-3.304 1.344Zm33.578 0c-1.269 0-2.371-.448-3.304-1.344-.933-.933-1.4-2.053-1.4-3.36 0-1.269.467-2.371 1.4-3.304.933-.933 2.035-1.4 3.304-1.4 1.269 0 2.371.467 3.304 1.4.933.933 1.4 2.035 1.4 3.304 0 1.307-.467 2.427-1.4 3.36-.933.896-2.035 1.344-3.304 1.344Zm33.578 0c-1.269 0-2.37-.448-3.304-1.344-.933-.933-1.4-2.053-1.4-3.36 0-1.269.467-2.371 1.4-3.304.934-.933 2.035-1.4 3.304-1.4 1.27 0 2.371.467 3.304 1.4.934.933 1.4 2.035 1.4 3.304 0 1.307-.466 2.427-1.4 3.36-.933.896-2.034 1.344-3.304 1.344Zm57.469 6.608v-4.984h4.2c1.194 0 2.202-.411 3.024-1.232.821-.821 1.232-1.997 1.232-3.528v-9.296c0-1.829.354-3.248 1.064-4.256.746-1.045 1.866-1.773 3.36-2.184v-.336c-2.95-.784-4.424-2.931-4.424-6.44v-9.296c0-1.531-.411-2.707-1.232-3.528-.822-.821-1.83-1.232-3.024-1.232h-4.2v-4.984h4.592c3.061 0 5.432.859 7.112 2.576 1.68 1.717 2.52 4.069 2.52 7.056v9.016c0 1.68.448 2.856 1.344 3.528.896.635 1.922.952 3.08.952h1.344v5.04h-1.344c-1.158 0-2.184.336-3.08 1.008-.896.635-1.344 1.792-1.344 3.472v9.016c0 2.987-.84 5.339-2.52 7.056-1.68 1.717-4.051 2.576-7.112 2.576h-4.592Z" fill="#F5F5F5"/><path d="m6.022 172.167 28.24-57.28h8.56l-28.24 57.28h-8.56Zm62.849 1.28c-4.64 0-8.214-1.386-10.72-4.16-2.507-2.826-3.76-6.64-3.76-11.44v-26.48h8.56v25.36c0 2.987.773 5.2 2.32 6.64 1.546 1.44 3.546 2.16 6 2.16 2.986 0 5.36-1.066 7.12-3.2 1.813-2.186 2.72-4.826 2.72-7.92v-23.04h8.48v40.8h-8v-5.2h-.48c-1.067 1.92-2.72 3.494-4.96 4.72-2.187 1.174-4.614 1.76-7.28 1.76Zm51.648 0c-5.333 0-9.44-1.173-12.32-3.52-2.88-2.346-4.746-5.44-5.6-9.28l8.24-1.52c.48 1.974 1.494 3.6 3.04 4.88 1.6 1.227 3.814 1.84 6.64 1.84 2.4 0 4.427-.426 6.08-1.28 1.707-.906 2.56-2.213 2.56-3.92 0-1.653-.72-2.933-2.16-3.84-1.386-.906-3.44-1.626-6.16-2.16l-4.96-.88c-3.413-.586-6.213-1.84-8.4-3.76-2.186-1.92-3.28-4.56-3.28-7.92 0-2.346.694-4.4 2.08-6.16 1.387-1.813 3.254-3.226 5.6-4.24 2.4-1.066 5.12-1.6 8.16-1.6 4.48 0 8.134.907 10.96 2.72 2.88 1.814 4.694 4.667 5.44 8.56l-7.6 1.36c-.64-2.026-1.733-3.44-3.28-4.24-1.546-.853-3.36-1.28-5.44-1.28-2.133 0-3.946.454-5.44 1.36-1.493.854-2.24 1.947-2.24 3.28 0 1.44.587 2.587 1.76 3.44 1.227.8 2.987 1.414 5.28 1.84l5.92 1.04c4 .694 7.04 1.974 9.12 3.84 2.08 1.814 3.12 4.614 3.12 8.4 0 2.614-.746 4.907-2.24 6.88-1.493 1.974-3.546 3.494-6.16 4.56-2.613 1.067-5.52 1.6-8.72 1.6Zm48.369 0c-4.107 0-7.653-.906-10.64-2.72-2.933-1.813-5.227-4.346-6.88-7.6-1.6-3.253-2.4-7.013-2.4-11.28 0-4.32.827-8.106 2.48-11.36 1.707-3.306 4.053-5.866 7.04-7.68 3.04-1.813 6.507-2.72 10.4-2.72 6.133 0 10.8 1.76 14 5.28 3.2 3.467 4.8 8.187 4.8 14.16 0 1.44-.08 2.8-.24 4.08h-30.16c.267 3.947 1.467 6.96 3.6 9.04 2.187 2.08 4.96 3.12 8.32 3.12 2.72 0 4.88-.613 6.48-1.84 1.6-1.28 2.747-2.853 3.44-4.72l7.44 2c-1.12 3.68-3.173 6.64-6.16 8.88-2.933 2.24-6.773 3.36-11.52 3.36Zm0-36.16c-2.827 0-5.227.827-7.2 2.48-1.973 1.654-3.307 4.134-4 7.44h21.6c-.16-2.986-1.12-5.386-2.88-7.2-1.76-1.813-4.267-2.72-7.52-2.72Zm34.049 34.88v-40.8h8.08v6.88h.48c1.173-2.56 2.88-4.56 5.12-6 2.293-1.44 5.013-2.16 8.16-2.16 1.547 0 2.987.134 4.32.4 1.387.214 2.507.587 3.36 1.12v8.96c-1.28-.693-2.72-1.253-4.32-1.68-1.547-.426-3.253-.64-5.12-.64-3.627 0-6.453 1.254-8.48 3.76-2.027 2.454-3.04 5.547-3.04 9.28v20.88h-8.56Zm61.489 1.28c-5.334 0-9.44-1.173-12.32-3.52-2.88-2.346-4.747-5.44-5.6-9.28l8.24-1.52c.48 1.974 1.493 3.6 3.04 4.88 1.6 1.227 3.813 1.84 6.64 1.84 2.4 0 4.426-.426 6.08-1.28 1.706-.906 2.56-2.213 2.56-3.92 0-1.653-.72-2.933-2.16-3.84-1.387-.906-3.44-1.626-6.16-2.16l-4.96-.88c-3.414-.586-6.214-1.84-8.4-3.76-2.187-1.92-3.28-4.56-3.28-7.92 0-2.346.693-4.4 2.08-6.16 1.386-1.813 3.253-3.226 5.6-4.24 2.4-1.066 5.12-1.6 8.16-1.6 4.48 0 8.133.907 10.96 2.72 2.88 1.814 4.693 4.667 5.44 8.56l-7.6 1.36c-.64-2.026-1.734-3.44-3.28-4.24-1.547-.853-3.36-1.28-5.44-1.28-2.134 0-3.947.454-5.44 1.36-1.494.854-2.24 1.947-2.24 3.28 0 1.44.586 2.587 1.76 3.44 1.226.8 2.986 1.414 5.28 1.84l5.92 1.04c4 .694 7.04 1.974 9.12 3.84 2.08 1.814 3.12 4.614 3.12 8.4 0 2.614-.747 4.907-2.24 6.88-1.494 1.974-3.547 3.494-6.16 4.56-2.614 1.067-5.52 1.6-8.72 1.6Z" fill="#F0F0F0"/><path d="m79.96 285.25 19.767-40.096h5.992L85.951 285.25H79.96Zm45.169.896c-2.464 0-4.648-.597-6.552-1.792-1.904-1.232-3.416-2.987-4.536-5.264-1.082-2.277-1.624-4.984-1.624-8.12 0-3.173.56-5.88 1.68-8.12 1.12-2.277 2.651-4.013 4.592-5.208 1.942-1.232 4.126-1.848 6.552-1.848 2.166 0 3.976.429 5.432 1.288 1.456.821 2.539 1.885 3.248 3.192h.336l-.336-4.088v-11.032h5.936v40.096h-5.6v-3.584h-.336c-.784 1.157-1.904 2.203-3.36 3.136-1.418.896-3.229 1.344-5.432 1.344Zm1.176-5.544c2.278 0 4.163-.821 5.656-2.464 1.531-1.643 2.296-4.032 2.296-7.168s-.765-5.525-2.296-7.168c-1.493-1.643-3.378-2.464-5.656-2.464-2.277 0-4.181.821-5.712 2.464-1.493 1.643-2.24 4.032-2.24 7.168s.747 5.525 2.24 7.168c1.531 1.643 3.435 2.464 5.712 2.464Zm32.402 5.544c-2.464 0-4.648-.597-6.552-1.792-1.904-1.232-3.416-2.987-4.536-5.264-1.082-2.277-1.624-4.984-1.624-8.12 0-3.173.56-5.88 1.68-8.12 1.12-2.277 2.651-4.013 4.592-5.208 1.942-1.232 4.126-1.848 6.552-1.848 2.166 0 3.976.429 5.432 1.288 1.456.821 2.539 1.885 3.248 3.192h.336v-3.584h5.6v28.56h-5.6v-3.584h-.336c-.784 1.157-1.904 2.203-3.36 3.136-1.418.896-3.229 1.344-5.432 1.344Zm1.176-5.544c2.278 0 4.163-.821 5.656-2.464 1.531-1.643 2.296-4.032 2.296-7.168s-.765-5.525-2.296-7.168c-1.493-1.643-3.378-2.464-5.656-2.464-2.277 0-4.181.821-5.712 2.464-1.493 1.643-2.24 4.032-2.24 7.168s.747 5.525 2.24 7.168c1.531 1.643 3.435 2.464 5.712 2.464Zm30.61 4.648-11.984-28.56h6.552l8.4 20.888h.28l8.4-20.888h6.44l-12.096 28.56h-5.992Zm36.659-33.936c-1.307 0-2.408-.448-3.304-1.344-.896-.896-1.344-1.997-1.344-3.304 0-1.269.448-2.352 1.344-3.248.896-.896 1.997-1.344 3.304-1.344 1.306 0 2.408.448 3.304 1.344.896.896 1.344 1.979 1.344 3.248 0 1.307-.448 2.408-1.344 3.304-.896.896-1.998 1.344-3.304 1.344Zm-12.824 33.936v-5.432h9.8v-17.696h-8.12v-5.432h14.112v23.128h9.856v5.432h-25.648Zm45.114.896c-2.464 0-4.648-.597-6.552-1.792-1.904-1.232-3.416-2.987-4.536-5.264-1.083-2.277-1.624-4.984-1.624-8.12 0-3.173.56-5.88 1.68-8.12 1.12-2.277 2.65-4.013 4.592-5.208 1.941-1.232 4.125-1.848 6.552-1.848 2.165 0 3.976.429 5.432 1.288 1.456.821 2.538 1.885 3.248 3.192h.336l-.336-4.088v-11.032h5.936v40.096h-5.6v-3.584h-.336c-.784 1.157-1.904 2.203-3.36 3.136-1.419.896-3.23 1.344-5.432 1.344Zm1.176-5.544c2.277 0 4.162-.821 5.656-2.464 1.53-1.643 2.296-4.032 2.296-7.168s-.766-5.525-2.296-7.168c-1.494-1.643-3.379-2.464-5.656-2.464-2.278 0-4.182.821-5.712 2.464-1.494 1.643-2.24 4.032-2.24 7.168s.746 5.525 2.24 7.168c1.53 1.643 3.434 2.464 5.712 2.464Zm22.546 16.744v-5.208h22.288v5.208h-22.288Zm32.682-12.096v-5.6h9.52v-26.6l-8.736 6.384v-6.608l10.472-7.672h4.256v34.496h9.016v5.6h-24.528Zm33.578 0v-5.824c3.36-2.539 6.235-4.835 8.624-6.888 2.427-2.053 4.405-3.976 5.936-5.768 1.456-1.68 2.539-3.341 3.248-4.984a13.006 13.006 0 0 0 1.064-5.208c0-2.203-.597-3.864-1.792-4.984s-2.837-1.68-4.928-1.68c-1.979 0-3.584.597-4.816 1.792-1.195 1.157-1.904 2.744-2.128 4.76l-5.712-.56c.149-2.128.728-4.069 1.736-5.824 1.045-1.792 2.483-3.211 4.312-4.256 1.867-1.045 4.088-1.568 6.664-1.568 3.995 0 7.112 1.045 9.352 3.136 2.277 2.053 3.416 4.928 3.416 8.624 0 2.688-.56 5.189-1.68 7.504-1.083 2.315-2.501 4.517-4.256 6.608a48.926 48.926 0 0 1-5.04 4.984 73.946 73.946 0 0 1-5.88 4.536l.112.168h17.64v5.432h-25.872Zm45.282.896c-2.277 0-4.368-.448-6.272-1.344a12.83 12.83 0 0 1-4.76-3.808c-1.232-1.68-1.978-3.696-2.24-6.048l5.88-1.344c.299 2.053 1.102 3.696 2.408 4.928 1.307 1.232 2.968 1.848 4.984 1.848 2.166 0 3.92-.616 5.264-1.848 1.344-1.269 2.016-2.912 2.016-4.928 0-2.128-.69-3.771-2.072-4.928-1.344-1.157-3.192-1.736-5.544-1.736h-3.136v-5.432h2.912c1.867 0 3.454-.504 4.76-1.512 1.344-1.045 2.016-2.52 2.016-4.424 0-1.717-.578-3.099-1.736-4.144-1.12-1.083-2.65-1.624-4.592-1.624-1.754 0-3.21.504-4.368 1.512-1.157.971-1.885 2.259-2.184 3.864l-5.712-.728c.262-1.941.934-3.677 2.016-5.208a12.171 12.171 0 0 1 4.256-3.64c1.755-.896 3.771-1.344 6.048-1.344 2.427 0 4.555.467 6.384 1.4 1.867.933 3.304 2.203 4.312 3.808 1.008 1.605 1.512 3.397 1.512 5.376 0 1.605-.261 2.968-.784 4.088-.522 1.12-1.194 2.053-2.016 2.8a14.524 14.524 0 0 1-2.464 1.904v.336c1.904.784 3.454 1.979 4.648 3.584 1.195 1.605 1.792 3.733 1.792 6.384 0 2.315-.56 4.387-1.68 6.216-1.12 1.829-2.688 3.285-4.704 4.368-2.016 1.083-4.33 1.624-6.944 1.624Z" fill="#FFEAAC"/><path d="M204.74 403.277c-3.062 0-5.432-.859-7.112-2.576-1.68-1.717-2.52-4.069-2.52-7.056v-9.016c0-1.68-.448-2.837-1.344-3.472-.896-.672-1.923-1.008-3.08-1.008h-1.344v-5.04h1.344c1.157 0 2.184-.317 3.08-.952.896-.672 1.344-1.848 1.344-3.528v-9.016c0-2.987.84-5.339 2.52-7.056 1.68-1.717 4.05-2.576 7.112-2.576h4.592v4.984h-4.2c-1.195 0-2.203.411-3.024 1.232-.822.821-1.232 1.997-1.232 3.528v9.296c0 3.509-1.475 5.656-4.424 6.44v.336c1.493.411 2.594 1.139 3.304 2.184.746 1.008 1.12 2.427 1.12 4.256v9.296c0 1.531.41 2.707 1.232 3.528.821.821 1.829 1.232 3.024 1.232h4.2v4.984h-4.592Zm62.06-6.608c-1.269 0-2.371-.448-3.304-1.344-.933-.933-1.4-2.053-1.4-3.36 0-1.269.467-2.371 1.4-3.304.933-.933 2.035-1.4 3.304-1.4 1.269 0 2.371.467 3.304 1.4.933.933 1.4 2.035 1.4 3.304 0 1.307-.467 2.427-1.4 3.36-.933.896-2.035 1.344-3.304 1.344Zm33.578 0c-1.269 0-2.371-.448-3.304-1.344-.933-.933-1.4-2.053-1.4-3.36 0-1.269.467-2.371 1.4-3.304.933-.933 2.035-1.4 3.304-1.4 1.269 0 2.371.467 3.304 1.4.933.933 1.4 2.035 1.4 3.304 0 1.307-.467 2.427-1.4 3.36-.933.896-2.035 1.344-3.304 1.344Zm33.578 0c-1.269 0-2.37-.448-3.304-1.344-.933-.933-1.4-2.053-1.4-3.36 0-1.269.467-2.371 1.4-3.304.934-.933 2.035-1.4 3.304-1.4 1.27 0 2.371.467 3.304 1.4.934.933 1.4 2.035 1.4 3.304 0 1.307-.466 2.427-1.4 3.36-.933.896-2.034 1.344-3.304 1.344Zm57.469 6.608v-4.984h4.2c1.194 0 2.202-.411 3.024-1.232.821-.821 1.232-1.997 1.232-3.528v-9.296c0-1.829.354-3.248 1.064-4.256.746-1.045 1.866-1.773 3.36-2.184v-.336c-2.95-.784-4.424-2.931-4.424-6.44v-9.296c0-1.531-.411-2.707-1.232-3.528-.822-.821-1.83-1.232-3.024-1.232h-4.2v-4.984h4.592c3.061 0 5.432.859 7.112 2.576 1.68 1.717 2.52 4.069 2.52 7.056v9.016c0 1.68.448 2.856 1.344 3.528.896.635 1.922.952 3.08.952h1.344v5.04h-1.344c-1.158 0-2.184.336-3.08 1.008-.896.635-1.344 1.792-1.344 3.472v9.016c0 2.987-.84 5.339-2.52 7.056-1.68 1.717-4.051 2.576-7.112 2.576h-4.592Z" fill="#F5F5F5"/><path d="M15.8 214.298v577.39" stroke="#7E7E7E" stroke-width="4" stroke-dasharray="25 25"/><path d="M525.957 526.998c0 8.836 7.163 16 16 16s16-7.164 16-16c0-8.837-7.163-16-16-16s-16 7.163-16 16Zm501.403-244.957a3.004 3.004 0 0 0 3.69 2.101l26.04-7.135a2.996 2.996 0 0 0 2.1-3.686 3.004 3.004 0 0 0-3.69-2.101l-23.14 6.342-6.35-23.147a2.989 2.989 0 0 0-3.68-2.1 2.996 2.996 0 0 0-2.1 3.686l7.13 26.04ZM542.366 529.97c52.276-7.196 130.607-31.482 195.948-81.045 65.432-49.633 117.913-124.701 117.913-233.196h-6c0 106.243-51.276 179.669-115.54 228.415-64.355 48.817-141.658 72.796-193.139 79.882l.818 5.944Zm313.861-314.241c0-133.767 49.253-195.133 96.639-206.753 23.728-5.819 47.434.624 65.264 17.035 17.84 16.419 29.95 42.979 29.95 77.559h6c0-35.99-12.63-64.25-31.89-81.974-19.26-17.733-45.018-24.758-70.753-18.447-51.538 12.638-101.21 77.923-101.21 212.58h6ZM1048.08 103.57c0 70.432-5.2 114.653-10.36 141.195-2.58 13.269-5.15 22.108-7.05 27.587-.94 2.739-1.73 4.637-2.26 5.827-.26.596-.47 1.014-.6 1.273-.06.129-.11.218-.14.269-.01.026-.02.042-.02.049l-.01.003.01-.003v-.003c0-.002 0-.004 2.61 1.481 2.6 1.486 2.6 1.484 2.61 1.481v-.005c0-.004 0-.009.01-.014 0-.01.01-.022.02-.037a.617.617 0 0 1 .06-.116l.21-.401c.17-.346.42-.85.72-1.53.61-1.358 1.45-3.418 2.45-6.309 2.01-5.782 4.65-14.899 7.27-28.407 5.25-27.011 10.47-71.629 10.47-142.34h-6Z" fill="#4C8DF6"/><path d="M914.114 400.037c-2.17 0-4.106-.616-5.808-1.848-1.672-1.261-2.992-3.109-3.96-5.544-.968-2.464-1.452-5.485-1.452-9.064 0-3.579.528-6.585 1.584-9.02 1.056-2.464 2.479-4.312 4.268-5.544 1.79-1.261 3.799-1.892 6.028-1.892 3.139 0 5.632.807 7.48 2.42 1.878 1.613 3.08 3.813 3.608 6.6l-4.488 1.232c-.41-1.731-1.158-3.109-2.244-4.136-1.085-1.027-2.508-1.54-4.268-1.54-1.29 0-2.478.411-3.564 1.232-1.056.792-1.921 2.068-2.596 3.828-.645 1.731-.968 4.004-.968 6.82 0 4.107.66 7.113 1.98 9.02 1.32 1.907 2.963 2.86 4.928 2.86 1.555 0 2.831-.381 3.828-1.144.998-.763 1.76-1.76 2.288-2.992.558-1.261.91-2.64 1.056-4.136h-7.04v-4.224h11.704v16.368h-4.4v-4.048h-.264c-.704 1.496-1.686 2.669-2.948 3.52-1.232.821-2.816 1.232-4.752 1.232Zm27.351 0c-2.259 0-4.209-.499-5.852-1.496-1.613-.997-2.875-2.391-3.784-4.18-.88-1.789-1.32-3.857-1.32-6.204 0-2.376.455-4.459 1.364-6.248.939-1.819 2.229-3.227 3.872-4.224 1.672-.997 3.579-1.496 5.72-1.496 3.373 0 5.94.968 7.7 2.904 1.76 1.907 2.64 4.503 2.64 7.788 0 .792-.044 1.54-.132 2.244h-16.588c.147 2.171.807 3.828 1.98 4.972 1.203 1.144 2.728 1.716 4.576 1.716 1.496 0 2.684-.337 3.564-1.012a5.906 5.906 0 0 0 1.892-2.596l4.092 1.1c-.616 2.024-1.745 3.652-3.388 4.884-1.613 1.232-3.725 1.848-6.336 1.848Zm0-19.888c-1.555 0-2.875.455-3.96 1.364s-1.819 2.273-2.2 4.092h11.88c-.088-1.643-.616-2.963-1.584-3.96-.968-.997-2.347-1.496-4.136-1.496Zm30.123 19.844c-2.317 0-4.18-.675-5.588-2.024-1.408-1.379-2.112-3.344-2.112-5.896v-11.088h-5.148v-4.092h5.148v-6.16h4.708v6.16h8.228v4.092h-8.228v10.648c0 1.261.323 2.244.968 2.948.645.675 1.613 1.012 2.904 1.012 1.115 0 2.2-.293 3.256-.88l1.364 3.96a9.205 9.205 0 0 1-2.376.968c-.792.235-1.833.352-3.124.352Zm49.022.044c-2.26 0-4.21-.499-5.85-1.496-1.61-.997-2.87-2.391-3.78-4.18-.88-1.789-1.32-3.857-1.32-6.204 0-2.376.45-4.459 1.36-6.248.94-1.819 2.23-3.227 3.87-4.224 1.68-.997 3.58-1.496 5.72-1.496 3.38 0 5.94.968 7.7 2.904 1.76 1.907 2.64 4.503 2.64 7.788 0 .792-.04 1.54-.13 2.244h-16.59c.15 2.171.81 3.828 1.98 4.972 1.21 1.144 2.73 1.716 4.58 1.716 1.5 0 2.68-.337 3.56-1.012a5.995 5.995 0 0 0 1.9-2.596l4.09 1.1c-.62 2.024-1.75 3.652-3.39 4.884-1.61 1.232-3.73 1.848-6.34 1.848Zm0-19.888c-1.55 0-2.87.455-3.96 1.364-1.08.909-1.82 2.273-2.2 4.092h11.88c-.08-1.643-.61-2.963-1.58-3.96-.97-.997-2.35-1.496-4.14-1.496Zm15.17 19.184 8.09-11.396-8.05-11.044h5.5l5.32 7.436h.14l5.1-7.436h5.68l-8.19 11.044 8.19 11.396h-5.46l-5.41-7.7h-.09l-5.41 7.7h-5.41Zm26.82 9.504v-31.944h4.4v2.904h.26c.59-.968 1.47-1.804 2.64-2.508 1.21-.733 2.63-1.1 4.27-1.1 1.94 0 3.65.484 5.15 1.452 1.52.939 2.71 2.303 3.56 4.092.85 1.76 1.28 3.887 1.28 6.38 0 2.464-.43 4.591-1.28 6.38-.85 1.789-2.04 3.168-3.56 4.136-1.5.939-3.21 1.408-5.15 1.408-1.7 0-3.14-.352-4.31-1.056-1.17-.704-2.04-1.525-2.6-2.464h-.26l.26 3.212v9.108h-4.66Zm10.65-13.156c1.79 0 3.27-.631 4.44-1.892 1.2-1.291 1.81-3.183 1.81-5.676 0-2.493-.61-4.371-1.81-5.632-1.17-1.291-2.65-1.936-4.44-1.936-1.79 0-3.29.645-4.49 1.936-1.17 1.261-1.76 3.139-1.76 5.632s.59 4.385 1.76 5.676c1.2 1.261 2.7 1.892 4.49 1.892Zm26.51 4.356c-2.26 0-4.21-.499-5.85-1.496-1.61-.997-2.87-2.391-3.78-4.18-.88-1.789-1.32-3.857-1.32-6.204 0-2.376.45-4.459 1.36-6.248.94-1.819 2.23-3.227 3.87-4.224 1.67-.997 3.58-1.496 5.72-1.496 3.38 0 5.94.968 7.7 2.904 1.76 1.907 2.64 4.503 2.64 7.788 0 .792-.04 1.54-.13 2.244h-16.59c.15 2.171.81 3.828 1.98 4.972 1.2 1.144 2.73 1.716 4.58 1.716 1.49 0 2.68-.337 3.56-1.012a5.894 5.894 0 0 0 1.89-2.596l4.1 1.1c-.62 2.024-1.75 3.652-3.39 4.884-1.62 1.232-3.73 1.848-6.34 1.848Zm0-19.888c-1.55 0-2.87.455-3.96 1.364-1.08.909-1.82 2.273-2.2 4.092h11.88c-.09-1.643-.61-2.963-1.58-3.96-.97-.997-2.35-1.496-4.14-1.496Zm16.62 19.184v-22.44h4.44v2.816h.26c.59-1.056 1.49-1.907 2.69-2.552 1.23-.645 2.58-.968 4.05-.968 2.52 0 4.47.763 5.85 2.288s2.07 3.623 2.07 6.292v14.564h-4.67v-13.948c0-1.643-.42-2.86-1.27-3.652-.85-.792-1.95-1.188-3.3-1.188-1.65 0-2.97.601-3.96 1.804-.97 1.203-1.46 2.64-1.46 4.312v12.672h-4.7Zm35.93.704c-2.94 0-5.19-.645-6.78-1.936-1.58-1.291-2.61-2.992-3.08-5.104l4.53-.836c.27 1.085.82 1.98 1.68 2.684.88.675 2.09 1.012 3.65 1.012 1.32 0 2.43-.235 3.34-.704.94-.499 1.41-1.217 1.41-2.156 0-.909-.4-1.613-1.19-2.112-.76-.499-1.89-.895-3.39-1.188l-2.72-.484c-1.88-.323-3.42-1.012-4.62-2.068-1.21-1.056-1.81-2.508-1.81-4.356 0-1.291.38-2.42 1.15-3.388.76-.997 1.78-1.775 3.08-2.332 1.32-.587 2.81-.88 4.48-.88 2.47 0 4.48.499 6.03 1.496 1.59.997 2.58 2.567 2.99 4.708l-4.18.748c-.35-1.115-.95-1.892-1.8-2.332-.85-.469-1.85-.704-2.99-.704-1.18 0-2.17.249-2.99.748-.83.469-1.24 1.071-1.24 1.804 0 .792.33 1.423.97 1.892.68.44 1.64.777 2.91 1.012l3.25.572c2.2.381 3.87 1.085 5.02 2.112 1.14.997 1.71 2.537 1.71 4.62 0 1.437-.41 2.699-1.23 3.784-.82 1.085-1.95 1.921-3.39 2.508-1.43.587-3.03.88-4.79.88Zm26.6 0c-2.26 0-4.21-.499-5.85-1.496-1.61-.997-2.88-2.391-3.79-4.18-.88-1.789-1.32-3.857-1.32-6.204 0-2.376.46-4.459 1.37-6.248.94-1.819 2.23-3.227 3.87-4.224 1.67-.997 3.58-1.496 5.72-1.496 3.37 0 5.94.968 7.7 2.904 1.76 1.907 2.64 4.503 2.64 7.788 0 .792-.04 1.54-.13 2.244h-16.59c.15 2.171.81 3.828 1.98 4.972 1.2 1.144 2.73 1.716 4.58 1.716 1.49 0 2.68-.337 3.56-1.012a5.894 5.894 0 0 0 1.89-2.596l4.09 1.1c-.61 2.024-1.74 3.652-3.38 4.884-1.62 1.232-3.73 1.848-6.34 1.848Zm0-19.888c-1.55 0-2.87.455-3.96 1.364-1.08.909-1.82 2.273-2.2 4.092h11.88c-.09-1.643-.62-2.963-1.58-3.96-.97-.997-2.35-1.496-4.14-1.496Zm26.16 19.888c-2.93 0-5.19-.645-6.77-1.936-1.59-1.291-2.61-2.992-3.08-5.104l4.53-.836c.26 1.085.82 1.98 1.67 2.684.88.675 2.1 1.012 3.65 1.012 1.32 0 2.44-.235 3.35-.704.94-.499 1.41-1.217 1.41-2.156 0-.909-.4-1.613-1.19-2.112-.77-.499-1.89-.895-3.39-1.188l-2.73-.484c-1.88-.323-3.42-1.012-4.62-2.068-1.2-1.056-1.8-2.508-1.8-4.356 0-1.291.38-2.42 1.14-3.388.76-.997 1.79-1.775 3.08-2.332 1.32-.587 2.82-.88 4.49-.88 2.46 0 4.47.499 6.03 1.496 1.58.997 2.58 2.567 2.99 4.708l-4.18.748c-.35-1.115-.95-1.892-1.8-2.332-.86-.469-1.85-.704-3-.704-1.17 0-2.17.249-2.99.748-.82.469-1.23 1.071-1.23 1.804 0 .792.32 1.423.97 1.892.67.44 1.64.777 2.9 1.012l3.26.572c2.2.381 3.87 1.085 5.01 2.112 1.15.997 1.72 2.537 1.72 4.62 0 1.437-.41 2.699-1.23 3.784-.82 1.085-1.95 1.921-3.39 2.508-1.44.587-3.04.88-4.8.88Zm48.85-.704v-18.348h-5.94v-4.092h5.94v-1.408c0-2.845.81-5.045 2.42-6.6 1.65-1.584 3.77-2.376 6.38-2.376 1.35 0 2.53.161 3.52.484 1.03.293 1.88.689 2.55 1.188l-1.8 3.96c-1.2-.851-2.55-1.276-4.05-1.276-1.38 0-2.45.396-3.21 1.188-.76.792-1.14 1.951-1.14 3.476v1.364h7.83v4.092h-7.83v18.348h-4.67Zm30.21.704c-2.28 0-4.28-.499-5.98-1.496-1.67-1.027-2.96-2.435-3.87-4.224-.91-1.819-1.37-3.887-1.37-6.204 0-2.347.46-4.415 1.37-6.204.91-1.789 2.2-3.183 3.87-4.18 1.7-1.027 3.7-1.54 5.98-1.54 2.29 0 4.27.513 5.94 1.54 1.7.997 3.01 2.391 3.92 4.18.91 1.789 1.36 3.857 1.36 6.204 0 2.347-.45 4.415-1.36 6.204a10.293 10.293 0 0 1-3.92 4.224c-1.67.997-3.65 1.496-5.94 1.496Zm0-4.356c1.91 0 3.48-.645 4.71-1.936 1.23-1.32 1.85-3.197 1.85-5.632 0-2.435-.62-4.297-1.85-5.588-1.23-1.32-2.8-1.98-4.71-1.98-1.9 0-3.47.66-4.7 1.98-1.24 1.291-1.85 3.153-1.85 5.588s.61 4.312 1.85 5.632c1.23 1.291 2.8 1.936 4.7 1.936Zm19.04 3.652v-22.44h4.44v3.784h.27c.64-1.408 1.58-2.508 2.81-3.3 1.26-.792 2.76-1.188 4.49-1.188.85 0 1.64.073 2.38.22.76.117 1.38.323 1.84.616v4.928c-.7-.381-1.49-.689-2.37-.924-.85-.235-1.79-.352-2.82-.352-1.99 0-3.55.689-4.66 2.068-1.12 1.349-1.67 3.051-1.67 5.104v11.484h-4.71Zm59.1.704c-1.94 0-3.65-.469-5.15-1.408-1.49-.968-2.68-2.347-3.56-4.136-.85-1.789-1.28-3.916-1.28-6.38 0-2.493.44-4.62 1.32-6.38.88-1.789 2.08-3.153 3.61-4.092 1.53-.968 3.24-1.452 5.15-1.452 1.7 0 3.12.337 4.27 1.012 1.14.645 1.99 1.481 2.55 2.508h.26v-2.816h4.4v22.44h-4.4v-2.816h-.26c-.62.909-1.5 1.731-2.64 2.464-1.12.704-2.54 1.056-4.27 1.056Zm.92-4.356c1.79 0 3.27-.645 4.45-1.936 1.2-1.291 1.8-3.168 1.8-5.632 0-2.464-.6-4.341-1.8-5.632-1.18-1.291-2.66-1.936-4.45-1.936s-3.28.645-4.48 1.936c-1.18 1.291-1.76 3.168-1.76 5.632 0 2.464.58 4.341 1.76 5.632 1.2 1.291 2.69 1.936 4.48 1.936Zm50.92 4.356c-2.55 0-4.52-.763-5.89-2.288-1.38-1.555-2.07-3.652-2.07-6.292v-14.564h4.71v13.948c0 1.643.42 2.86 1.27 3.652.85.792 1.95 1.188 3.3 1.188 1.64 0 2.95-.587 3.92-1.76.99-1.203 1.49-2.655 1.49-4.356v-12.672h4.67v22.44h-4.4v-2.86h-.27c-.58 1.056-1.49 1.921-2.72 2.596-1.21.645-2.54.968-4.01.968Zm28.41 0c-2.93 0-5.19-.645-6.78-1.936-1.58-1.291-2.61-2.992-3.08-5.104l4.53-.836c.27 1.085.83 1.98 1.68 2.684.88.675 2.09 1.012 3.65 1.012 1.32 0 2.43-.235 3.34-.704.94-.499 1.41-1.217 1.41-2.156 0-.909-.4-1.613-1.19-2.112-.76-.499-1.89-.895-3.39-1.188l-2.72-.484c-1.88-.323-3.42-1.012-4.62-2.068-1.21-1.056-1.81-2.508-1.81-4.356 0-1.291.38-2.42 1.15-3.388.76-.997 1.79-1.775 3.08-2.332 1.32-.587 2.81-.88 4.48-.88 2.47 0 4.48.499 6.03 1.496 1.59.997 2.58 2.567 2.99 4.708l-4.18.748c-.35-1.115-.95-1.892-1.8-2.332-.85-.469-1.85-.704-2.99-.704-1.17 0-2.17.249-2.99.748-.82.469-1.24 1.071-1.24 1.804 0 .792.33 1.423.97 1.892.68.44 1.65.777 2.91 1.012l3.25.572c2.2.381 3.87 1.085 5.02 2.112 1.14.997 1.71 2.537 1.71 4.62 0 1.437-.41 2.699-1.23 3.784-.82 1.085-1.95 1.921-3.39 2.508-1.43.587-3.03.88-4.79.88Zm26.6 0c-2.26 0-4.21-.499-5.85-1.496-1.61-.997-2.88-2.391-3.78-4.18-.88-1.789-1.32-3.857-1.32-6.204 0-2.376.45-4.459 1.36-6.248.94-1.819 2.23-3.227 3.87-4.224 1.67-.997 3.58-1.496 5.72-1.496 3.37 0 5.94.968 7.7 2.904 1.76 1.907 2.64 4.503 2.64 7.788 0 .792-.04 1.54-.13 2.244h-16.59c.15 2.171.81 3.828 1.98 4.972 1.2 1.144 2.73 1.716 4.58 1.716 1.49 0 2.68-.337 3.56-1.012a5.894 5.894 0 0 0 1.89-2.596l4.1 1.1c-.62 2.024-1.75 3.652-3.39 4.884-1.62 1.232-3.73 1.848-6.34 1.848Zm0-19.888c-1.55 0-2.87.455-3.96 1.364-1.08.909-1.82 2.273-2.2 4.092h11.88c-.09-1.643-.61-2.963-1.58-3.96-.97-.997-2.35-1.496-4.14-1.496Zm18.73 19.184v-22.44h4.44v3.784h.27c.64-1.408 1.58-2.508 2.81-3.3 1.26-.792 2.76-1.188 4.49-1.188.85 0 1.64.073 2.38.22.76.117 1.37.323 1.84.616v4.928c-.7-.381-1.49-.689-2.37-.924-.85-.235-1.79-.352-2.82-.352-1.99 0-3.55.689-4.66 2.068-1.12 1.349-1.67 3.051-1.67 5.104v11.484h-4.71Zm-581.876 55-3.828-22.44h4.4l2.288 15.224h.176l3.52-15.224h4.488l3.564 15.224h.176l2.244-15.224h4.312l-3.828 22.44h-5.104l-3.344-14.256-.264-1.804h-.176l-.264 1.804-3.3 14.256h-5.06Zm35.183-26.664c-1.027 0-1.892-.352-2.596-1.056-.704-.704-1.056-1.569-1.056-2.596 0-.997.352-1.848 1.056-2.552.704-.704 1.569-1.056 2.596-1.056 1.027 0 1.892.352 2.596 1.056a3.477 3.477 0 0 1 1.056 2.552c0 1.027-.352 1.892-1.056 2.596-.704.704-1.569 1.056-2.596 1.056Zm-10.076 26.664v-4.268h7.7v-13.904h-6.38v-4.268h11.088v18.172h7.744v4.268h-20.152Zm40.507.66c-2.317 0-4.18-.675-5.588-2.024-1.408-1.379-2.112-3.344-2.112-5.896v-11.088h-5.148v-4.092h5.148v-6.16h4.708v6.16h8.228v4.092h-8.228v10.648c0 1.261.323 2.244.968 2.948.645.675 1.613 1.012 2.904 1.012 1.115 0 2.2-.293 3.256-.88l1.364 3.96a9.205 9.205 0 0 1-2.376.968c-.792.235-1.833.352-3.124.352Zm12.303-.66v-31.504h4.664v8.668l-.264 3.432h.264c.586-1.056 1.51-1.936 2.772-2.64a8.404 8.404 0 0 1 4.224-1.1c2.845 0 4.939.807 6.289 2.42 1.38 1.613 2.07 3.74 2.07 6.38v14.344h-4.663v-13.772c0-1.613-.44-2.845-1.32-3.696-.851-.88-2.039-1.32-3.564-1.32-1.144 0-2.156.293-3.036.88-.851.587-1.526 1.393-2.024 2.42-.499.997-.748 2.112-.748 3.344v12.144h-4.664Zm36.419.704c-2.29 0-4.29-.499-5.99-1.496-1.67-1.027-2.96-2.435-3.87-4.224-.91-1.819-1.36-3.887-1.36-6.204 0-2.347.45-4.415 1.36-6.204.91-1.789 2.2-3.183 3.87-4.18 1.7-1.027 3.7-1.54 5.99-1.54 2.28 0 4.26.513 5.94 1.54 1.7.997 3 2.391 3.91 4.18.91 1.789 1.37 3.857 1.37 6.204 0 2.347-.46 4.415-1.37 6.204-.91 1.789-2.21 3.197-3.91 4.224-1.68.997-3.66 1.496-5.94 1.496Zm0-4.356c1.9 0 3.47-.645 4.7-1.936 1.24-1.32 1.85-3.197 1.85-5.632 0-2.435-.61-4.297-1.85-5.588-1.23-1.32-2.8-1.98-4.7-1.98-1.91 0-3.48.66-4.71 1.98-1.23 1.291-1.85 3.153-1.85 5.588s.62 4.312 1.85 5.632c1.23 1.291 2.8 1.936 4.71 1.936Zm24.44 4.356c-2.55 0-4.52-.763-5.89-2.288-1.38-1.555-2.07-3.652-2.07-6.292v-14.564h4.71v13.948c0 1.643.42 2.86 1.27 3.652.85.792 1.95 1.188 3.3 1.188 1.64 0 2.95-.587 3.92-1.76 1-1.203 1.49-2.655 1.49-4.356v-12.672h4.67v22.44h-4.4v-2.86h-.27c-.58 1.056-1.49 1.921-2.72 2.596-1.21.645-2.54.968-4.01.968Zm32.37-.044c-2.32 0-4.18-.675-5.59-2.024-1.41-1.379-2.11-3.344-2.11-5.896v-11.088h-5.15v-4.092h5.15v-6.16h4.71v6.16h8.23v4.092h-8.23v10.648c0 1.261.32 2.244.97 2.948.64.675 1.61 1.012 2.9 1.012 1.11 0 2.2-.293 3.26-.88l1.36 3.96c-.76.44-1.56.763-2.38.968-.79.235-1.83.352-3.12.352Zm47.7.044c-1.93 0-3.65-.469-5.14-1.408-1.5-.968-2.69-2.347-3.57-4.136-.85-1.789-1.27-3.916-1.27-6.38 0-2.493.44-4.62 1.32-6.38.88-1.789 2.08-3.153 3.6-4.092 1.53-.968 3.25-1.452 5.15-1.452 1.7 0 3.13.337 4.27 1.012 1.14.645 2 1.481 2.55 2.508h.27v-2.816h4.4v22.44h-4.4v-2.816h-.27c-.61.909-1.49 1.731-2.64 2.464-1.11.704-2.53 1.056-4.27 1.056Zm.93-4.356c1.79 0 3.27-.645 4.44-1.936 1.21-1.291 1.81-3.168 1.81-5.632 0-2.464-.6-4.341-1.81-5.632-1.17-1.291-2.65-1.936-4.44-1.936-1.79 0-3.29.645-4.49 1.936-1.17 1.291-1.76 3.168-1.76 5.632 0 2.464.59 4.341 1.76 5.632 1.2 1.291 2.7 1.936 4.49 1.936Zm45.5 3.652v-22.44h4.45v3.784h.26c.65-1.408 1.59-2.508 2.82-3.3 1.26-.792 2.76-1.188 4.49-1.188.85 0 1.64.073 2.37.22.77.117 1.38.323 1.85.616v4.928c-.7-.381-1.5-.689-2.38-.924-.85-.235-1.78-.352-2.81-.352-2 0-3.55.689-4.67 2.068-1.11 1.349-1.67 3.051-1.67 5.104v11.484h-4.71Zm34.04.704c-2.26 0-4.21-.499-5.85-1.496-1.61-.997-2.87-2.391-3.78-4.18-.88-1.789-1.32-3.857-1.32-6.204 0-2.376.45-4.459 1.36-6.248.94-1.819 2.23-3.227 3.87-4.224 1.68-.997 3.58-1.496 5.72-1.496 3.38 0 5.94.968 7.7 2.904 1.76 1.907 2.64 4.503 2.64 7.788 0 .792-.04 1.54-.13 2.244h-16.59c.15 2.171.81 3.828 1.98 4.972 1.21 1.144 2.73 1.716 4.58 1.716 1.5 0 2.68-.337 3.56-1.012a5.995 5.995 0 0 0 1.9-2.596l4.09 1.1c-.62 2.024-1.75 3.652-3.39 4.884-1.61 1.232-3.73 1.848-6.34 1.848Zm0-19.888c-1.55 0-2.87.455-3.96 1.364-1.08.909-1.82 2.273-2.2 4.092h11.88c-.08-1.643-.61-2.963-1.58-3.96-.97-.997-2.35-1.496-4.14-1.496Zm26.17 19.888c-2.94 0-5.2-.645-6.78-1.936s-2.61-2.992-3.08-5.104l4.53-.836c.27 1.085.82 1.98 1.67 2.684.88.675 2.1 1.012 3.66 1.012 1.32 0 2.43-.235 3.34-.704.94-.499 1.41-1.217 1.41-2.156 0-.909-.4-1.613-1.19-2.112-.76-.499-1.89-.895-3.39-1.188l-2.73-.484c-1.87-.323-3.41-1.012-4.62-2.068-1.2-1.056-1.8-2.508-1.8-4.356 0-1.291.38-2.42 1.14-3.388.77-.997 1.79-1.775 3.08-2.332 1.32-.587 2.82-.88 4.49-.88 2.47 0 4.48.499 6.03 1.496 1.58.997 2.58 2.567 2.99 4.708l-4.18.748c-.35-1.115-.95-1.892-1.8-2.332-.85-.469-1.85-.704-2.99-.704-1.18 0-2.17.249-3 .748-.82.469-1.23 1.071-1.23 1.804 0 .792.32 1.423.97 1.892.67.44 1.64.777 2.9 1.012l3.26.572c2.2.381 3.87 1.085 5.02 2.112 1.14.997 1.71 2.537 1.71 4.62 0 1.437-.41 2.699-1.23 3.784-.82 1.085-1.95 1.921-3.39 2.508-1.44.587-3.03.88-4.79.88Zm30.34-.044c-2.32 0-4.18-.675-5.59-2.024-1.41-1.379-2.11-3.344-2.11-5.896v-11.088h-5.15v-4.092h5.15v-6.16h4.71v6.16h8.22v4.092h-8.22v10.648c0 1.261.32 2.244.96 2.948.65.675 1.62 1.012 2.91 1.012 1.11 0 2.2-.293 3.25-.88l1.37 3.96c-.76.44-1.56.763-2.38.968-.79.235-1.83.352-3.12.352Zm14.99-.66v-22.44h4.44v3.784h.26c.65-1.408 1.59-2.508 2.82-3.3 1.26-.792 2.76-1.188 4.49-1.188.85 0 1.64.073 2.37.22.77.117 1.38.323 1.85.616v4.928c-.7-.381-1.49-.689-2.37-.924-.86-.235-1.79-.352-2.82-.352-2 0-3.55.689-4.66 2.068-1.12 1.349-1.68 3.051-1.68 5.104v11.484h-4.7Zm33.73-26.664c-1.03 0-1.9-.352-2.6-1.056-.7-.704-1.06-1.569-1.06-2.596 0-.997.36-1.848 1.06-2.552.7-.704 1.57-1.056 2.6-1.056 1.02 0 1.89.352 2.59 1.056.71.704 1.06 1.555 1.06 2.552 0 1.027-.35 1.892-1.06 2.596-.7.704-1.57 1.056-2.59 1.056Zm-10.08 26.664v-4.268h7.7v-13.904h-6.38v-4.268h11.09v18.172h7.74v4.268h-20.15Zm36.81.704c-2.14 0-4.03-.484-5.67-1.452-1.65-.997-2.92-2.391-3.83-4.18-.91-1.789-1.37-3.887-1.37-6.292s.47-4.503 1.41-6.292c.94-1.789 2.23-3.168 3.87-4.136 1.68-.997 3.6-1.496 5.77-1.496 2.7 0 4.94.66 6.73 1.98 1.82 1.32 2.93 3.168 3.34 5.544l-4.57.748c-.3-1.203-.94-2.156-1.94-2.86-.97-.733-2.18-1.1-3.65-1.1-1.76 0-3.26.66-4.49 1.98-1.2 1.32-1.8 3.197-1.8 5.632 0 2.435.6 4.312 1.8 5.632 1.2 1.291 2.7 1.936 4.49 1.936 1.5 0 2.7-.352 3.61-1.056.91-.733 1.58-1.775 2.02-3.124l4.4 1.056c-.53 2.2-1.64 4.004-3.34 5.412-1.7 1.379-3.96 2.068-6.78 2.068Zm30.08-.044c-2.32 0-4.18-.675-5.59-2.024-1.41-1.379-2.11-3.344-2.11-5.896v-11.088h-5.15v-4.092h5.15v-6.16h4.71v6.16h8.23v4.092h-8.23v10.648c0 1.261.32 2.244.97 2.948.64.675 1.61 1.012 2.9 1.012 1.11 0 2.2-.293 3.26-.88l1.36 3.96c-.76.44-1.55.763-2.38.968-.79.235-1.83.352-3.12.352Zm22.33-27.324c-1.02 0-1.89-.352-2.59-1.056-.71-.704-1.06-1.569-1.06-2.596 0-.997.35-1.848 1.06-2.552.7-.704 1.57-1.056 2.59-1.056 1.03 0 1.9.352 2.6 1.056.7.704 1.06 1.555 1.06 2.552 0 1.027-.36 1.892-1.06 2.596-.7.704-1.57 1.056-2.6 1.056Zm-10.07 26.664v-4.268h7.7v-13.904h-6.38v-4.268H1392v18.172h7.74v4.268h-20.15Zm34.04 0-9.42-22.44h5.15l6.6 16.412h.22l6.6-16.412h5.06l-9.5 22.44h-4.71Zm29.11.704c-2.26 0-4.21-.499-5.85-1.496-1.62-.997-2.88-2.391-3.79-4.18-.88-1.789-1.32-3.857-1.32-6.204 0-2.376.46-4.459 1.37-6.248.94-1.819 2.23-3.227 3.87-4.224 1.67-.997 3.58-1.496 5.72-1.496 3.37 0 5.94.968 7.7 2.904 1.76 1.907 2.64 4.503 2.64 7.788 0 .792-.05 1.54-.13 2.244h-16.59c.15 2.171.81 3.828 1.98 4.972 1.2 1.144 2.73 1.716 4.57 1.716 1.5 0 2.69-.337 3.57-1.012a5.894 5.894 0 0 0 1.89-2.596l4.09 1.1c-.61 2.024-1.74 3.652-3.39 4.884-1.61 1.232-3.72 1.848-6.33 1.848Zm0-19.888c-1.56 0-2.88.455-3.96 1.364-1.09.909-1.82 2.273-2.2 4.092h11.88c-.09-1.643-.62-2.963-1.59-3.96-.96-.997-2.34-1.496-4.13-1.496Zm58.31 28.688v-9.108l.26-3.256h-.26c-.56.968-1.44 1.804-2.64 2.508-1.2.704-2.64 1.056-4.31 1.056-1.94 0-3.66-.469-5.15-1.408-1.5-.968-2.67-2.347-3.52-4.136-.85-1.789-1.28-3.916-1.28-6.38 0-2.493.43-4.62 1.28-6.38.85-1.789 2.02-3.153 3.52-4.092 1.52-.968 3.25-1.452 5.19-1.452 1.64 0 3.05.352 4.22 1.056 1.21.704 2.1 1.555 2.69 2.552h.26v-2.904h4.4v31.944h-4.66Zm-6.03-13.156c1.82 0 3.31-.631 4.49-1.892 1.2-1.291 1.8-3.183 1.8-5.676 0-2.493-.6-4.371-1.8-5.632-1.18-1.291-2.67-1.936-4.49-1.936-1.79 0-3.27.645-4.44 1.936-1.18 1.261-1.76 3.139-1.76 5.632s.58 4.385 1.76 5.676c1.17 1.261 2.65 1.892 4.44 1.892Zm24.62 4.356c-2.55 0-4.51-.763-5.89-2.288-1.38-1.555-2.07-3.652-2.07-6.292v-14.564h4.71v13.948c0 1.643.42 2.86 1.27 3.652.85.792 1.95 1.188 3.3 1.188 1.65 0 2.95-.587 3.92-1.76 1-1.203 1.49-2.655 1.49-4.356v-12.672h4.67v22.44h-4.4v-2.86h-.27c-.58 1.056-1.49 1.921-2.72 2.596-1.21.645-2.54.968-4.01.968Zm28.63 0c-2.26 0-4.21-.499-5.85-1.496-1.62-.997-2.88-2.391-3.79-4.18-.88-1.789-1.32-3.857-1.32-6.204 0-2.376.46-4.459 1.37-6.248.94-1.819 2.23-3.227 3.87-4.224 1.67-.997 3.58-1.496 5.72-1.496 3.37 0 5.94.968 7.7 2.904 1.76 1.907 2.64 4.503 2.64 7.788 0 .792-.04 1.54-.13 2.244h-16.59c.15 2.171.81 3.828 1.98 4.972 1.2 1.144 2.73 1.716 4.58 1.716 1.49 0 2.68-.337 3.56-1.012a5.894 5.894 0 0 0 1.89-2.596l4.09 1.1c-.61 2.024-1.74 3.652-3.38 4.884-1.62 1.232-3.73 1.848-6.34 1.848Zm0-19.888c-1.55 0-2.87.455-3.96 1.364-1.09.909-1.82 2.273-2.2 4.092h11.88c-.09-1.643-.62-2.963-1.58-3.96-.97-.997-2.35-1.496-4.14-1.496Zm18.73 19.184v-22.44h4.44v3.784h.26c.65-1.408 1.59-2.508 2.82-3.3 1.26-.792 2.76-1.188 4.49-1.188.85 0 1.64.073 2.37.22.77.117 1.38.323 1.85.616v4.928c-.7-.381-1.49-.689-2.37-.924-.85-.235-1.79-.352-2.82-.352-1.99 0-3.55.689-4.66 2.068-1.12 1.349-1.68 3.051-1.68 5.104v11.484h-4.7Zm26.38 9.856c-.85 0-1.6-.073-2.24-.22a9.764 9.764 0 0 1-1.68-.44v-4.488c.36.176.87.367 1.54.572.68.205 1.41.308 2.2.308.97 0 1.76-.279 2.38-.836.62-.557 1.2-1.496 1.76-2.816l1.01-2.42-9.02-21.956h5.19l6.16 15.84h.22l6.47-15.84h5.15l-11.18 26.268c-.55 1.32-1.17 2.42-1.84 3.3-.65.909-1.46 1.584-2.42 2.024-.97.469-2.2.704-3.7.704Z" fill="#BDBDBD"/></svg>