<svg width="829" height="247" viewBox="0 0 829 247" fill="none" xmlns="http://www.w3.org/2000/svg">
<rect x="346.098" y="61.2466" width="482.531" height="184.969" rx="6" fill="#B8B8B8"/>
<rect x="10.8906" y="89.2705" width="132" height="132" rx="12" fill="white"/>
<path d="M53.9102 195.944C52.9822 195.944 52.1929 195.704 51.5422 195.223C50.8915 194.733 50.3902 194.039 50.0382 193.143C49.6969 192.247 49.5262 191.186 49.5262 189.959C49.5262 188.722 49.7022 187.661 50.0542 186.775C50.4062 185.879 50.9129 185.191 51.5742 184.711C52.2355 184.221 53.0302 183.975 53.9582 183.975C54.6835 183.975 55.3449 184.119 55.9422 184.407C56.5502 184.695 57.0462 185.122 57.4302 185.688C57.8249 186.253 58.0595 186.962 58.1342 187.815L56.0062 188.183C55.9209 187.511 55.7075 186.983 55.3662 186.599C55.0355 186.205 54.5662 186.007 53.9582 186.007C53.3075 186.007 52.7635 186.349 52.3262 187.031C51.8995 187.714 51.6862 188.69 51.6862 189.959C51.6862 191.229 51.8995 192.205 52.3262 192.887C52.7529 193.559 53.2969 193.895 53.9582 193.895C54.5022 193.895 54.9555 193.703 55.3182 193.319C55.6915 192.935 55.9315 192.407 56.0382 191.735L58.1822 192.007C58.0755 192.775 57.8462 193.458 57.4942 194.055C57.1529 194.642 56.6835 195.106 56.0862 195.447C55.4889 195.778 54.7635 195.944 53.9102 195.944ZM59.744 195.688V193.799H62.496V186.119H60.224V184.231H64.592V193.799H67.36V195.688H59.744ZM73.1457 186.247C72.719 186.247 72.3564 186.103 72.0577 185.815C71.7697 185.517 71.6257 185.154 71.6257 184.727C71.6257 184.301 71.7697 183.943 72.0577 183.655C72.3564 183.357 72.719 183.207 73.1457 183.207C73.5724 183.207 73.9297 183.357 74.2177 183.655C74.5164 183.943 74.6657 184.301 74.6657 184.727C74.6657 185.154 74.5164 185.517 74.2177 185.815C73.9297 186.103 73.5724 186.247 73.1457 186.247ZM69.3377 195.688V193.799H72.0897V189.415H69.8177V187.527H74.1857V193.799H76.9537V195.688H69.3377ZM82.8355 195.944C82.0141 195.944 81.2995 195.768 80.6915 195.415C80.0941 195.063 79.6301 194.562 79.2995 193.911C78.9688 193.261 78.8035 192.493 78.8035 191.607C78.8035 190.722 78.9795 189.954 79.3315 189.303C79.6835 188.653 80.1635 188.151 80.7715 187.799C81.3795 187.447 82.0728 187.271 82.8515 187.271C84.1528 187.271 85.1128 187.623 85.7315 188.327C86.3608 189.031 86.6755 189.986 86.6755 191.191C86.6755 191.33 86.6701 191.479 86.6595 191.639C86.6595 191.799 86.6488 191.949 86.6275 192.087H80.8035C80.8781 192.749 81.1075 193.25 81.4915 193.591C81.8861 193.933 82.3608 194.103 82.9155 194.103C83.3741 194.103 83.7475 193.991 84.0355 193.767C84.3341 193.533 84.5475 193.25 84.6755 192.919L86.4835 193.415C86.2275 194.183 85.7955 194.797 85.1875 195.255C84.5901 195.714 83.8061 195.944 82.8355 195.944ZM82.8675 188.951C82.3981 188.951 81.9875 189.09 81.6355 189.367C81.2941 189.645 81.0541 190.061 80.9155 190.615H84.6915C84.6488 190.114 84.4728 189.714 84.1635 189.415C83.8541 189.106 83.4221 188.951 82.8675 188.951ZM88.7492 195.688V187.527H90.7012V188.519H90.8292C91.0639 188.135 91.3945 187.831 91.8212 187.608C92.2479 187.383 92.7225 187.271 93.2452 187.271C94.1839 187.271 94.8932 187.559 95.3732 188.135C95.8639 188.701 96.1092 189.49 96.1092 190.503V195.688H94.0292V190.791C94.0292 190.29 93.9065 189.901 93.6612 189.623C93.4265 189.346 93.0799 189.207 92.6212 189.207C92.0665 189.207 91.6292 189.415 91.3092 189.831C90.9892 190.247 90.8292 190.759 90.8292 191.367V195.688H88.7492ZM103.319 195.944C102.444 195.944 101.74 195.672 101.207 195.127C100.684 194.573 100.423 193.794 100.423 192.791V189.303H98.615V187.527H100.423V185.287H102.503V187.527H105.447V189.303H102.503V192.631C102.503 193.069 102.61 193.405 102.823 193.639C103.036 193.874 103.34 193.991 103.735 193.991C103.948 193.991 104.146 193.965 104.327 193.911C104.519 193.858 104.722 193.767 104.935 193.639L105.559 195.399C105.228 195.602 104.903 195.741 104.583 195.816C104.274 195.901 103.852 195.944 103.319 195.944Z" fill="#212121"/>
<circle cx="76.8915" cy="140.736" r="27.7333" fill="#4C8DF6"/>
<rect x="68.3848" y="125.085" width="17.0118" height="31.3004" rx="2" fill="#444444"/>
<rect x="370" y="87.731" width="132" height="132" rx="12" fill="white"/>
<path d="M413.116 194.404C411.846 194.404 410.844 194.079 410.108 193.428C409.372 192.767 408.918 191.903 408.748 190.836L410.908 190.356C410.993 190.921 411.217 191.396 411.58 191.78C411.953 192.164 412.47 192.356 413.132 192.356C413.729 192.356 414.198 192.228 414.54 191.972C414.892 191.716 415.068 191.375 415.068 190.948C415.068 190.5 414.902 190.148 414.572 189.892C414.252 189.625 413.697 189.375 412.908 189.14L411.916 188.836C411.468 188.697 411.041 188.5 410.636 188.244C410.241 187.977 409.916 187.631 409.66 187.204C409.404 186.777 409.276 186.249 409.276 185.62C409.276 185.023 409.42 184.484 409.708 184.004C410.006 183.524 410.433 183.145 410.988 182.868C411.542 182.58 412.214 182.436 413.004 182.436C414.198 182.436 415.121 182.719 415.772 183.284C416.422 183.839 416.817 184.612 416.956 185.604L414.908 185.908C414.801 185.439 414.593 185.076 414.284 184.82C413.974 184.553 413.558 184.42 413.036 184.42C412.566 184.42 412.172 184.527 411.852 184.74C411.532 184.953 411.372 185.236 411.372 185.588C411.372 185.951 411.521 186.255 411.82 186.5C412.118 186.745 412.593 186.964 413.244 187.156L414.108 187.412C414.748 187.604 415.297 187.844 415.756 188.132C416.225 188.409 416.582 188.772 416.828 189.22C417.084 189.668 417.212 190.228 417.212 190.9C417.212 191.679 417.02 192.329 416.636 192.852C416.262 193.364 415.766 193.753 415.148 194.02C414.529 194.276 413.852 194.404 413.116 194.404ZM422.757 194.404C421.936 194.404 421.221 194.228 420.613 193.876C420.016 193.524 419.552 193.023 419.221 192.372C418.891 191.721 418.725 190.953 418.725 190.068C418.725 189.183 418.901 188.415 419.253 187.764C419.605 187.113 420.085 186.612 420.693 186.26C421.301 185.908 421.995 185.732 422.773 185.732C424.075 185.732 425.035 186.084 425.653 186.788C426.283 187.492 426.597 188.447 426.597 189.652C426.597 189.791 426.592 189.94 426.581 190.1C426.581 190.26 426.571 190.409 426.549 190.548H420.725C420.8 191.209 421.029 191.711 421.413 192.052C421.808 192.393 422.283 192.564 422.837 192.564C423.296 192.564 423.669 192.452 423.957 192.228C424.256 191.993 424.469 191.711 424.597 191.38L426.405 191.876C426.149 192.644 425.717 193.257 425.109 193.716C424.512 194.175 423.728 194.404 422.757 194.404ZM422.789 187.412C422.32 187.412 421.909 187.551 421.557 187.828C421.216 188.105 420.976 188.521 420.837 189.076H424.613C424.571 188.575 424.395 188.175 424.085 187.876C423.776 187.567 423.344 187.412 422.789 187.412ZM429.503 194.148V185.988H431.455V187.3H431.583C431.85 186.788 432.191 186.399 432.607 186.132C433.023 185.865 433.54 185.732 434.159 185.732C434.735 185.732 435.215 185.828 435.599 186.02V188.164C435.332 188.015 435.039 187.897 434.719 187.812C434.41 187.716 434.079 187.668 433.727 187.668C433.098 187.668 432.58 187.871 432.175 188.276C431.78 188.681 431.583 189.257 431.583 190.004V194.148H429.503ZM440.793 194.148L437.369 185.988H439.721L441.785 191.252H441.913L443.977 185.988H446.297L442.841 194.148H440.793ZM451.539 194.404C450.717 194.404 450.003 194.228 449.395 193.876C448.797 193.524 448.333 193.023 448.003 192.372C447.672 191.721 447.507 190.953 447.507 190.068C447.507 189.183 447.683 188.415 448.035 187.764C448.387 187.113 448.867 186.612 449.475 186.26C450.083 185.908 450.776 185.732 451.555 185.732C452.856 185.732 453.816 186.084 454.435 186.788C455.064 187.492 455.379 188.447 455.379 189.652C455.379 189.791 455.373 189.94 455.363 190.1C455.363 190.26 455.352 190.409 455.331 190.548H449.507C449.581 191.209 449.811 191.711 450.195 192.052C450.589 192.393 451.064 192.564 451.619 192.564C452.077 192.564 452.451 192.452 452.739 192.228C453.037 191.993 453.251 191.711 453.379 191.38L455.187 191.876C454.931 192.644 454.499 193.257 453.891 193.716C453.293 194.175 452.509 194.404 451.539 194.404ZM451.571 187.412C451.101 187.412 450.691 187.551 450.339 187.828C449.997 188.105 449.757 188.521 449.619 189.076H453.395C453.352 188.575 453.176 188.175 452.867 187.876C452.557 187.567 452.125 187.412 451.571 187.412ZM458.284 194.148V185.988H460.236V187.3H460.364C460.631 186.788 460.972 186.399 461.388 186.132C461.804 185.865 462.322 185.732 462.94 185.732C463.516 185.732 463.996 185.828 464.38 186.02V188.164C464.114 188.015 463.82 187.897 463.5 187.812C463.191 187.716 462.86 187.668 462.508 187.668C461.879 187.668 461.362 187.871 460.956 188.276C460.562 188.681 460.364 189.257 460.364 190.004V194.148H458.284Z" fill="#212121"/>
<circle cx="436.001" cy="139.196" r="27.7333" fill="#4C8DF6"/>
<rect x="424.537" y="129.566" width="18.4401" height="19.4771" transform="rotate(-23.6047 424.537 129.566)" fill="#444444"/>
<path d="M423.078 133.61L430.877 151.457L446.466 144.645" stroke="#444444" stroke-width="2"/>
<rect x="672.727" y="87.731" width="132" height="132" rx="12" fill="white"/>
<path d="M701.753 194.148V182.692H704.953C706.073 182.692 707.023 182.921 707.801 183.38C708.58 183.839 709.172 184.495 709.577 185.348C709.993 186.201 710.201 187.225 710.201 188.42C710.201 189.604 709.993 190.628 709.577 191.492C709.172 192.345 708.58 193.001 707.801 193.46C707.023 193.919 706.073 194.148 704.953 194.148H701.753ZM703.897 192.1H704.889C705.86 192.1 706.628 191.796 707.193 191.188C707.759 190.569 708.041 189.647 708.041 188.42C708.041 187.193 707.759 186.276 707.193 185.668C706.628 185.049 705.86 184.74 704.889 184.74H703.897V192.1ZM714.947 194.404C714.286 194.404 713.678 194.239 713.123 193.908C712.579 193.577 712.142 193.092 711.811 192.452C711.491 191.801 711.331 191.007 711.331 190.068C711.331 189.119 711.496 188.324 711.827 187.684C712.168 187.033 712.611 186.548 713.155 186.228C713.71 185.897 714.312 185.732 714.963 185.732C715.571 185.732 716.078 185.844 716.483 186.068C716.888 186.292 717.192 186.58 717.395 186.932H717.523V185.988H719.475V194.148H717.523V193.22H717.395C717.171 193.54 716.856 193.817 716.451 194.052C716.046 194.287 715.544 194.404 714.947 194.404ZM715.459 192.452C716.046 192.452 716.536 192.255 716.931 191.86C717.326 191.465 717.523 190.868 717.523 190.068C717.523 189.268 717.326 188.671 716.931 188.276C716.536 187.871 716.046 187.668 715.459 187.668C714.883 187.668 714.398 187.871 714.003 188.276C713.608 188.671 713.411 189.268 713.411 190.068C713.411 190.868 713.608 191.465 714.003 191.86C714.398 192.255 714.883 192.452 715.459 192.452ZM726.493 194.404C725.618 194.404 724.914 194.132 724.381 193.588C723.858 193.033 723.597 192.255 723.597 191.252V187.764H721.789V185.988H723.597V183.748H725.677V185.988H728.621V187.764H725.677V191.092C725.677 191.529 725.783 191.865 725.997 192.1C726.21 192.335 726.514 192.452 726.909 192.452C727.122 192.452 727.319 192.425 727.501 192.372C727.693 192.319 727.895 192.228 728.109 192.1L728.733 193.86C728.402 194.063 728.077 194.201 727.757 194.276C727.447 194.361 727.026 194.404 726.493 194.404ZM734.135 194.404C733.473 194.404 732.865 194.239 732.311 193.908C731.767 193.577 731.329 193.092 730.999 192.452C730.679 191.801 730.519 191.007 730.519 190.068C730.519 189.119 730.684 188.324 731.015 187.684C731.356 187.033 731.799 186.548 732.343 186.228C732.897 185.897 733.5 185.732 734.151 185.732C734.759 185.732 735.265 185.844 735.671 186.068C736.076 186.292 736.38 186.58 736.583 186.932H736.711V185.988H738.663V194.148H736.711V193.22H736.583C736.359 193.54 736.044 193.817 735.639 194.052C735.233 194.287 734.732 194.404 734.135 194.404ZM734.647 192.452C735.233 192.452 735.724 192.255 736.119 191.86C736.513 191.465 736.711 190.868 736.711 190.068C736.711 189.268 736.513 188.671 736.119 188.276C735.724 187.871 735.233 187.668 734.647 187.668C734.071 187.668 733.585 187.871 733.191 188.276C732.796 188.671 732.599 189.268 732.599 190.068C732.599 190.868 732.796 191.465 733.191 191.86C733.585 192.255 734.071 192.452 734.647 192.452ZM744.784 194.404C744.176 194.404 743.675 194.292 743.28 194.068C742.886 193.833 742.576 193.551 742.352 193.22H742.224V194.148H740.272V182.692H742.352V185.716L742.224 186.932H742.352C742.534 186.623 742.832 186.345 743.248 186.1C743.664 185.855 744.176 185.732 744.784 185.732C745.467 185.732 746.08 185.903 746.624 186.244C747.179 186.575 747.616 187.065 747.936 187.716C748.256 188.356 748.416 189.14 748.416 190.068C748.416 190.996 748.256 191.785 747.936 192.436C747.616 193.076 747.179 193.567 746.624 193.908C746.08 194.239 745.467 194.404 744.784 194.404ZM744.272 192.452C744.848 192.452 745.334 192.249 745.728 191.844C746.134 191.428 746.336 190.836 746.336 190.068C746.336 189.3 746.139 188.708 745.744 188.292C745.35 187.876 744.859 187.668 744.272 187.668C743.696 187.668 743.211 187.876 742.816 188.292C742.422 188.708 742.224 189.3 742.224 190.068C742.224 190.836 742.422 191.428 742.816 191.844C743.211 192.249 743.696 192.452 744.272 192.452ZM753.322 194.404C752.661 194.404 752.053 194.239 751.498 193.908C750.954 193.577 750.517 193.092 750.186 192.452C749.866 191.801 749.706 191.007 749.706 190.068C749.706 189.119 749.871 188.324 750.202 187.684C750.543 187.033 750.986 186.548 751.53 186.228C752.085 185.897 752.687 185.732 753.338 185.732C753.946 185.732 754.453 185.844 754.858 186.068C755.263 186.292 755.567 186.58 755.77 186.932H755.898V185.988H757.85V194.148H755.898V193.22H755.77C755.546 193.54 755.231 193.817 754.826 194.052C754.421 194.287 753.919 194.404 753.322 194.404ZM753.834 192.452C754.421 192.452 754.911 192.255 755.306 191.86C755.701 191.465 755.898 190.868 755.898 190.068C755.898 189.268 755.701 188.671 755.306 188.276C754.911 187.871 754.421 187.668 753.834 187.668C753.258 187.668 752.773 187.871 752.378 188.276C751.983 188.671 751.786 189.268 751.786 190.068C751.786 190.868 751.983 191.465 752.378 191.86C752.773 192.255 753.258 192.452 753.834 192.452ZM763.476 194.404C762.334 194.404 761.465 194.159 760.868 193.668C760.281 193.167 759.924 192.532 759.796 191.764L761.78 191.428C761.865 191.759 762.036 192.031 762.292 192.244C762.548 192.457 762.942 192.564 763.476 192.564C763.913 192.564 764.265 192.495 764.532 192.356C764.809 192.217 764.948 192.009 764.948 191.732C764.948 191.465 764.809 191.252 764.532 191.092C764.265 190.932 763.881 190.809 763.38 190.724L762.452 190.564C761.801 190.447 761.257 190.196 760.82 189.812C760.382 189.417 760.164 188.884 760.164 188.212C760.164 187.721 760.302 187.295 760.58 186.932C760.857 186.559 761.236 186.265 761.716 186.052C762.206 185.839 762.761 185.732 763.38 185.732C764.393 185.732 765.177 185.935 765.732 186.34C766.297 186.735 766.649 187.305 766.788 188.052L764.964 188.34C764.846 187.999 764.649 187.759 764.372 187.62C764.105 187.471 763.785 187.396 763.412 187.396C763.017 187.396 762.702 187.471 762.468 187.62C762.233 187.769 762.116 187.945 762.116 188.148C762.116 188.361 762.206 188.537 762.388 188.676C762.58 188.815 762.889 188.927 763.316 189.012L764.468 189.22C765.31 189.369 765.945 189.625 766.372 189.988C766.809 190.351 767.028 190.921 767.028 191.7C767.028 192.255 766.873 192.735 766.564 193.14C766.265 193.545 765.849 193.86 765.316 194.084C764.782 194.297 764.169 194.404 763.476 194.404ZM773.166 194.404C772.344 194.404 771.63 194.228 771.022 193.876C770.424 193.524 769.96 193.023 769.63 192.372C769.299 191.721 769.134 190.953 769.134 190.068C769.134 189.183 769.31 188.415 769.662 187.764C770.014 187.113 770.494 186.612 771.102 186.26C771.71 185.908 772.403 185.732 773.182 185.732C774.483 185.732 775.443 186.084 776.062 186.788C776.691 187.492 777.006 188.447 777.006 189.652C777.006 189.791 777 189.94 776.99 190.1C776.99 190.26 776.979 190.409 776.958 190.548H771.134C771.208 191.209 771.438 191.711 771.822 192.052C772.216 192.393 772.691 192.564 773.246 192.564C773.704 192.564 774.078 192.452 774.366 192.228C774.664 191.993 774.878 191.711 775.006 191.38L776.814 191.876C776.558 192.644 776.126 193.257 775.518 193.716C774.92 194.175 774.136 194.404 773.166 194.404ZM773.198 187.412C772.728 187.412 772.318 187.551 771.966 187.828C771.624 188.105 771.384 188.521 771.246 189.076H775.022C774.979 188.575 774.803 188.175 774.494 187.876C774.184 187.567 773.752 187.412 773.198 187.412Z" fill="#212121"/>
<circle cx="738.727" cy="139.196" r="27.7333" fill="#4C8DF6"/>
<rect x="728.086" y="126.609" width="5.04013" height="5.04013" rx="1" fill="#444444"/>
<rect opacity="0.78" x="728.086" y="133.275" width="5.04013" height="5.04013" rx="1" fill="#444444"/>
<rect x="728.086" y="139.94" width="5.04013" height="5.04013" rx="1" fill="#444444"/>
<rect opacity="0.5" x="728.086" y="146.606" width="5.04013" height="5.04013" rx="1" fill="#444444"/>
<rect x="736.207" y="126.609" width="5.04013" height="5.04013" rx="1" fill="#444444"/>
<rect x="736.207" y="133.275" width="5.04013" height="5.04013" rx="1" fill="#444444"/>
<rect opacity="0.8" x="736.207" y="139.94" width="5.04013" height="5.04013" rx="1" fill="#444444"/>
<rect x="736.207" y="146.606" width="5.04013" height="5.04013" rx="1" fill="#444444"/>
<rect opacity="0.8" x="744.328" y="126.609" width="5.04013" height="5.04013" rx="1" fill="#444444"/>
<rect x="744.328" y="133.275" width="5.04013" height="5.04013" rx="1" fill="#444444"/>
<rect x="744.328" y="139.94" width="5.04013" height="5.04013" rx="1" fill="#444444"/>
<rect x="744.328" y="146.606" width="5.04013" height="5.04013" rx="1" fill="#444444"/>
<path d="M181.32 152.731C180.768 152.731 180.32 153.179 180.32 153.731C180.32 154.283 180.768 154.731 181.32 154.731V152.731ZM308.373 154.438C308.764 154.048 308.764 153.414 308.373 153.024L302.009 146.66C301.619 146.269 300.986 146.269 300.595 146.66C300.205 147.05 300.205 147.684 300.595 148.074L306.252 153.731L300.595 159.388C300.205 159.778 300.205 160.412 300.595 160.802C300.986 161.193 301.619 161.193 302.009 160.802L308.373 154.438ZM181.32 154.731H307.666V152.731H181.32V154.731Z" fill="white"/>
<path d="M524.191 151.192C523.639 151.192 523.191 151.64 523.191 152.192C523.191 152.744 523.639 153.192 524.191 153.192V151.192ZM651.245 152.899C651.635 152.508 651.635 151.875 651.245 151.485L644.881 145.121C644.49 144.73 643.857 144.73 643.466 145.121C643.076 145.511 643.076 146.145 643.466 146.535L649.123 152.192L643.466 157.849C643.076 158.239 643.076 158.872 643.466 159.263C643.857 159.653 644.49 159.653 644.881 159.263L651.245 152.899ZM524.191 153.192H650.537V151.192H524.191V153.192Z" fill="#212121"/>
<path d="M185.88 142.977C185.091 142.977 184.387 142.753 183.768 142.305C183.16 141.847 182.68 141.175 182.328 140.289C181.976 139.393 181.8 138.295 181.8 136.993C181.8 135.692 181.992 134.599 182.376 133.713C182.76 132.817 183.278 132.145 183.928 131.697C184.579 131.239 185.31 131.009 186.12 131.009C187.262 131.009 188.168 131.303 188.84 131.889C189.523 132.476 189.96 133.276 190.152 134.289L188.52 134.737C188.371 134.108 188.099 133.607 187.704 133.233C187.31 132.86 186.792 132.673 186.152 132.673C185.683 132.673 185.251 132.823 184.856 133.121C184.472 133.409 184.158 133.873 183.912 134.513C183.678 135.143 183.56 135.969 183.56 136.993C183.56 138.487 183.8 139.58 184.28 140.273C184.76 140.967 185.358 141.313 186.072 141.313C186.638 141.313 187.102 141.175 187.464 140.897C187.827 140.62 188.104 140.257 188.296 139.809C188.499 139.351 188.627 138.849 188.68 138.305H186.12V136.769H190.376V142.721H188.776V141.249H188.68C188.424 141.793 188.067 142.22 187.608 142.529C187.16 142.828 186.584 142.977 185.88 142.977ZM192.226 142.721V131.265H199.57V132.929H193.97V135.953H199.074V137.617H193.97V141.057H199.57V142.721H192.226ZM204.444 142.721V132.929H201.068V131.265H209.548V132.929H206.188V142.721H204.444ZM220.815 142.721L226.463 131.265H228.175L222.527 142.721H220.815ZM233.385 142.977C232.457 142.977 231.742 142.7 231.241 142.145C230.74 141.58 230.489 140.817 230.489 139.857V134.561H232.201V139.633C232.201 140.231 232.356 140.673 232.665 140.961C232.974 141.249 233.374 141.393 233.865 141.393C234.462 141.393 234.937 141.18 235.289 140.753C235.652 140.316 235.833 139.788 235.833 139.169V134.561H237.529V142.721H235.929V141.681H235.833C235.62 142.065 235.289 142.38 234.841 142.625C234.404 142.86 233.918 142.977 233.385 142.977ZM243.715 142.977C242.648 142.977 241.827 142.743 241.251 142.273C240.675 141.804 240.301 141.185 240.131 140.417L241.779 140.113C241.875 140.508 242.077 140.833 242.387 141.089C242.707 141.335 243.149 141.457 243.715 141.457C244.195 141.457 244.6 141.372 244.931 141.201C245.272 141.02 245.443 140.759 245.443 140.417C245.443 140.087 245.299 139.831 245.011 139.649C244.733 139.468 244.323 139.324 243.779 139.217L242.787 139.041C242.104 138.924 241.544 138.673 241.107 138.289C240.669 137.905 240.451 137.377 240.451 136.705C240.451 136.236 240.589 135.825 240.867 135.473C241.144 135.111 241.517 134.828 241.987 134.625C242.467 134.412 243.011 134.305 243.619 134.305C244.515 134.305 245.245 134.487 245.811 134.849C246.387 135.212 246.749 135.783 246.899 136.561L245.379 136.833C245.251 136.428 245.032 136.145 244.723 135.985C244.413 135.815 244.051 135.729 243.635 135.729C243.208 135.729 242.845 135.82 242.547 136.001C242.248 136.172 242.099 136.391 242.099 136.657C242.099 136.945 242.216 137.175 242.451 137.345C242.696 137.505 243.048 137.628 243.507 137.713L244.691 137.921C245.491 138.06 246.099 138.316 246.515 138.689C246.931 139.052 247.139 139.612 247.139 140.369C247.139 140.892 246.989 141.351 246.691 141.745C246.392 142.14 245.981 142.444 245.459 142.657C244.936 142.871 244.355 142.977 243.715 142.977ZM253.389 142.977C252.567 142.977 251.858 142.796 251.261 142.433C250.674 142.071 250.215 141.564 249.885 140.913C249.565 140.263 249.405 139.511 249.405 138.657C249.405 137.793 249.57 137.036 249.901 136.385C250.242 135.724 250.711 135.212 251.309 134.849C251.917 134.487 252.61 134.305 253.389 134.305C254.615 134.305 255.549 134.657 256.189 135.361C256.829 136.055 257.149 136.999 257.149 138.193C257.149 138.481 257.133 138.753 257.101 139.009H251.069C251.122 139.799 251.362 140.401 251.789 140.817C252.226 141.233 252.781 141.441 253.453 141.441C253.997 141.441 254.429 141.319 254.749 141.073C255.069 140.817 255.298 140.503 255.437 140.129L256.925 140.529C256.701 141.265 256.29 141.857 255.693 142.305C255.106 142.753 254.338 142.977 253.389 142.977ZM253.389 135.745C252.823 135.745 252.343 135.911 251.949 136.241C251.554 136.572 251.287 137.068 251.149 137.729H255.469C255.437 137.132 255.245 136.652 254.893 136.289C254.541 135.927 254.039 135.745 253.389 135.745ZM260.198 142.721V134.561H261.814V135.937H261.91C262.145 135.425 262.486 135.025 262.934 134.737C263.393 134.449 263.937 134.305 264.566 134.305C264.876 134.305 265.164 134.332 265.43 134.385C265.708 134.428 265.932 134.503 266.102 134.609V136.401C265.846 136.263 265.558 136.151 265.238 136.065C264.929 135.98 264.588 135.937 264.214 135.937C263.489 135.937 262.924 136.188 262.518 136.689C262.113 137.18 261.91 137.799 261.91 138.545V142.721H260.198ZM272.496 142.977C271.429 142.977 270.608 142.743 270.032 142.273C269.456 141.804 269.083 141.185 268.912 140.417L270.56 140.113C270.656 140.508 270.859 140.833 271.168 141.089C271.488 141.335 271.931 141.457 272.496 141.457C272.976 141.457 273.381 141.372 273.712 141.201C274.053 141.02 274.224 140.759 274.224 140.417C274.224 140.087 274.08 139.831 273.792 139.649C273.515 139.468 273.104 139.324 272.56 139.217L271.568 139.041C270.885 138.924 270.325 138.673 269.888 138.289C269.451 137.905 269.232 137.377 269.232 136.705C269.232 136.236 269.371 135.825 269.648 135.473C269.925 135.111 270.299 134.828 270.768 134.625C271.248 134.412 271.792 134.305 272.4 134.305C273.296 134.305 274.027 134.487 274.592 134.849C275.168 135.212 275.531 135.783 275.68 136.561L274.16 136.833C274.032 136.428 273.813 136.145 273.504 135.985C273.195 135.815 272.832 135.729 272.416 135.729C271.989 135.729 271.627 135.82 271.328 136.001C271.029 136.172 270.88 136.391 270.88 136.657C270.88 136.945 270.997 137.175 271.232 137.345C271.477 137.505 271.829 137.628 272.288 137.713L273.472 137.921C274.272 138.06 274.88 138.316 275.296 138.689C275.712 139.052 275.92 139.612 275.92 140.369C275.92 140.892 275.771 141.351 275.472 141.745C275.173 142.14 274.763 142.444 274.24 142.657C273.717 142.871 273.136 142.977 272.496 142.977Z" fill="#FFD557"/>
<path d="M5.15414 21.9927V10.2327H1.03414V7.67268H11.9541V10.2327H7.83414V21.9927H5.15414ZM15.0463 21.9927V11.7927H17.4863V13.4327H17.6463C17.9797 12.7927 18.4063 12.306 18.9263 11.9727C19.4463 11.6393 20.093 11.4727 20.8663 11.4727C21.5863 11.4727 22.1863 11.5927 22.6663 11.8327V14.5127C22.333 14.326 21.9663 14.1793 21.5663 14.0727C21.1797 13.9527 20.7663 13.8927 20.3263 13.8927C19.5397 13.8927 18.893 14.146 18.3863 14.6527C17.893 15.1593 17.6463 15.8793 17.6463 16.8127V21.9927H15.0463ZM29.7785 22.3127C28.9518 22.3127 28.1918 22.106 27.4985 21.6927C26.8185 21.2793 26.2718 20.6727 25.8585 19.8727C25.4585 19.0593 25.2585 18.066 25.2585 16.8927C25.2585 15.706 25.4652 14.7127 25.8785 13.9127C26.3052 13.0993 26.8585 12.4927 27.5385 12.0927C28.2318 11.6793 28.9852 11.4727 29.7985 11.4727C30.5585 11.4727 31.1918 11.6127 31.6985 11.8927C32.2052 12.1727 32.5852 12.5327 32.8385 12.9727H32.9985V11.7927H35.4385V21.9927H32.9985V20.8327H32.8385C32.5585 21.2327 32.1652 21.5793 31.6585 21.8727C31.1518 22.166 30.5252 22.3127 29.7785 22.3127ZM30.4185 19.8727C31.1518 19.8727 31.7652 19.626 32.2585 19.1327C32.7518 18.6393 32.9985 17.8927 32.9985 16.8927C32.9985 15.8927 32.7518 15.146 32.2585 14.6527C31.7652 14.146 31.1518 13.8927 30.4185 13.8927C29.6985 13.8927 29.0918 14.146 28.5985 14.6527C28.1052 15.146 27.8585 15.8927 27.8585 16.8927C27.8585 17.8927 28.1052 18.6393 28.5985 19.1327C29.0918 19.626 29.6985 19.8727 30.4185 19.8727ZM41.7707 22.3127C40.944 22.3127 40.184 22.106 39.4907 21.6927C38.8107 21.2793 38.264 20.6727 37.8507 19.8727C37.4507 19.0593 37.2507 18.066 37.2507 16.8927C37.2507 15.706 37.4574 14.7127 37.8707 13.9127C38.2974 13.0993 38.8507 12.4927 39.5307 12.0927C40.224 11.6793 40.9774 11.4727 41.7907 11.4727C42.5507 11.4727 43.184 11.6127 43.6907 11.8927C44.1974 12.1727 44.5774 12.5327 44.8307 12.9727H44.9907L44.8307 11.4527V7.67268H47.4307V21.9927H44.9907V20.8327H44.8307C44.5507 21.2327 44.1574 21.5793 43.6507 21.8727C43.144 22.166 42.5174 22.3127 41.7707 22.3127ZM42.4107 19.8727C43.144 19.8727 43.7574 19.626 44.2507 19.1327C44.744 18.6393 44.9907 17.8927 44.9907 16.8927C44.9907 15.8927 44.744 15.146 44.2507 14.6527C43.7574 14.146 43.144 13.8927 42.4107 13.8927C41.6907 13.8927 41.084 14.146 40.5907 14.6527C40.0974 15.146 39.8507 15.8927 39.8507 16.8927C39.8507 17.8927 40.0974 18.6393 40.5907 19.1327C41.084 19.626 41.6907 19.8727 42.4107 19.8727ZM54.4629 10.1927C53.9296 10.1927 53.4762 10.0127 53.1029 9.65267C52.7429 9.27934 52.5629 8.82601 52.5629 8.29267C52.5629 7.75934 52.7429 7.31268 53.1029 6.95268C53.4762 6.57934 53.9296 6.39268 54.4629 6.39268C54.9962 6.39268 55.4429 6.57934 55.8029 6.95268C56.1762 7.31268 56.3629 7.75934 56.3629 8.29267C56.3629 8.82601 56.1762 9.27934 55.8029 9.65267C55.4429 10.0127 54.9962 10.1927 54.4629 10.1927ZM49.7029 21.9927V19.6327H53.1429V14.1527H50.3029V11.7927H55.7629V19.6327H59.2229V21.9927H49.7029ZM68.1951 22.3127C67.1017 22.3127 66.2217 21.9727 65.5551 21.2927C64.9017 20.5993 64.5751 19.626 64.5751 18.3727V14.0127H62.3151V11.7927H64.5751V8.99268H67.1751V11.7927H70.8551V14.0127H67.1751V18.1727C67.1751 18.7193 67.3084 19.1393 67.5751 19.4327C67.8417 19.726 68.2217 19.8727 68.7151 19.8727C68.9817 19.8727 69.2284 19.8393 69.4551 19.7727C69.6951 19.706 69.9484 19.5927 70.2151 19.4327L70.9951 21.6327C70.5817 21.886 70.1751 22.0593 69.7751 22.1527C69.3884 22.2593 68.8617 22.3127 68.1951 22.3127ZM78.4473 10.1927C77.9139 10.1927 77.4606 10.0127 77.0873 9.65267C76.7273 9.27934 76.5473 8.82601 76.5473 8.29267C76.5473 7.75934 76.7273 7.31268 77.0873 6.95268C77.4606 6.57934 77.9139 6.39268 78.4473 6.39268C78.9806 6.39268 79.4273 6.57934 79.7873 6.95268C80.1606 7.31268 80.3473 7.75934 80.3473 8.29267C80.3473 8.82601 80.1606 9.27934 79.7873 9.65267C79.4273 10.0127 78.9806 10.1927 78.4473 10.1927ZM73.6873 21.9927V19.6327H77.1273V14.1527H74.2873V11.7927H79.7473V19.6327H83.2073V21.9927H73.6873ZM90.4395 22.3127C89.3728 22.3127 88.4461 22.086 87.6595 21.6327C86.8861 21.166 86.2861 20.526 85.8595 19.7127C85.4328 18.886 85.2195 17.946 85.2195 16.8927C85.2195 15.826 85.4328 14.886 85.8595 14.0727C86.2861 13.2593 86.8861 12.626 87.6595 12.1727C88.4461 11.706 89.3728 11.4727 90.4395 11.4727C91.5061 11.4727 92.4261 11.706 93.1995 12.1727C93.9861 12.626 94.5928 13.2593 95.0195 14.0727C95.4461 14.886 95.6595 15.826 95.6595 16.8927C95.6595 17.946 95.4461 18.886 95.0195 19.7127C94.5928 20.526 93.9861 21.166 93.1995 21.6327C92.4261 22.086 91.5061 22.3127 90.4395 22.3127ZM90.4395 19.8727C91.2128 19.8727 91.8395 19.6193 92.3195 19.1127C92.8128 18.606 93.0595 17.866 93.0595 16.8927C93.0595 15.906 92.8128 15.166 92.3195 14.6727C91.8395 14.166 91.2128 13.9127 90.4395 13.9127C89.6661 13.9127 89.0328 14.166 88.5395 14.6727C88.0595 15.166 87.8195 15.906 87.8195 16.8927C87.8195 17.866 88.0595 18.606 88.5395 19.1127C89.0328 19.6193 89.6661 19.8727 90.4395 19.8727ZM97.9516 21.9927V11.7927H100.392V13.0327H100.552C100.845 12.5527 101.258 12.1727 101.792 11.8927C102.325 11.6127 102.918 11.4727 103.572 11.4727C104.745 11.4727 105.632 11.8327 106.232 12.5527C106.845 13.2593 107.152 14.246 107.152 15.5127V21.9927H104.552V15.8727C104.552 15.246 104.398 14.7593 104.092 14.4127C103.798 14.066 103.365 13.8927 102.792 13.8927C102.098 13.8927 101.552 14.1527 101.152 14.6727C100.752 15.1927 100.552 15.8327 100.552 16.5927V21.9927H97.9516ZM113.724 22.3127C112.897 22.3127 112.137 22.106 111.444 21.6927C110.764 21.2793 110.217 20.6727 109.804 19.8727C109.404 19.0593 109.204 18.066 109.204 16.8927C109.204 15.706 109.41 14.7127 109.824 13.9127C110.25 13.0993 110.804 12.4927 111.484 12.0927C112.177 11.6793 112.93 11.4727 113.744 11.4727C114.504 11.4727 115.137 11.6127 115.644 11.8927C116.15 12.1727 116.53 12.5327 116.784 12.9727H116.944V11.7927H119.384V21.9927H116.944V20.8327H116.784C116.504 21.2327 116.11 21.5793 115.604 21.8727C115.097 22.166 114.47 22.3127 113.724 22.3127ZM114.364 19.8727C115.097 19.8727 115.71 19.626 116.204 19.1327C116.697 18.6393 116.944 17.8927 116.944 16.8927C116.944 15.8927 116.697 15.146 116.204 14.6527C115.71 14.146 115.097 13.8927 114.364 13.8927C113.644 13.8927 113.037 14.146 112.544 14.6527C112.05 15.146 111.804 15.8927 111.804 16.8927C111.804 17.8927 112.05 18.6393 112.544 19.1327C113.037 19.626 113.644 19.8727 114.364 19.8727ZM121.656 21.9927V19.6327H125.096V10.0327H122.256V7.67268H127.716V19.6327H131.176V21.9927H121.656ZM149.7 22.3127C148.874 22.3127 148.114 22.106 147.42 21.6927C146.74 21.2793 146.194 20.6727 145.78 19.8727C145.38 19.0593 145.18 18.066 145.18 16.8927C145.18 15.706 145.387 14.7127 145.8 13.9127C146.227 13.0993 146.78 12.4927 147.46 12.0927C148.154 11.6793 148.907 11.4727 149.72 11.4727C150.48 11.4727 151.114 11.6127 151.62 11.8927C152.127 12.1727 152.507 12.5327 152.76 12.9727H152.92V11.7927H155.36V21.9927H152.92V20.8327H152.76C152.48 21.2327 152.087 21.5793 151.58 21.8727C151.074 22.166 150.447 22.3127 149.7 22.3127ZM150.34 19.8727C151.074 19.8727 151.687 19.626 152.18 19.1327C152.674 18.6393 152.92 17.8927 152.92 16.8927C152.92 15.8927 152.674 15.146 152.18 14.6527C151.687 14.146 151.074 13.8927 150.34 13.8927C149.62 13.8927 149.014 14.146 148.52 14.6527C148.027 15.146 147.78 15.8927 147.78 16.8927C147.78 17.8927 148.027 18.6393 148.52 19.1327C149.014 19.626 149.62 19.8727 150.34 19.8727ZM158.953 21.9927V11.7927H161.393V13.4327H161.553C161.886 12.7927 162.313 12.306 162.833 11.9727C163.353 11.6393 163.999 11.4727 164.773 11.4727C165.493 11.4727 166.093 11.5927 166.573 11.8327V14.5127C166.239 14.326 165.873 14.1793 165.473 14.0727C165.086 13.9527 164.673 13.8927 164.233 13.8927C163.446 13.8927 162.799 14.146 162.293 14.6527C161.799 15.1593 161.553 15.8793 161.553 16.8127V21.9927H158.953ZM174.565 22.3127C173.565 22.3127 172.678 22.0927 171.905 21.6527C171.145 21.1993 170.545 20.566 170.105 19.7527C169.678 18.9393 169.465 17.986 169.465 16.8927C169.465 15.7993 169.685 14.846 170.125 14.0327C170.565 13.2193 171.171 12.5927 171.945 12.1527C172.731 11.6993 173.638 11.4727 174.665 11.4727C175.878 11.4727 176.911 11.766 177.765 12.3527C178.631 12.926 179.171 13.7993 179.385 14.9727L176.845 15.3727C176.711 14.866 176.438 14.4927 176.025 14.2527C175.625 13.9993 175.151 13.8727 174.605 13.8727C173.925 13.8727 173.331 14.1327 172.825 14.6527C172.318 15.1593 172.065 15.906 172.065 16.8927C172.065 17.866 172.311 18.6127 172.805 19.1327C173.311 19.6393 173.911 19.8927 174.605 19.8927C175.205 19.8927 175.685 19.746 176.045 19.4527C176.418 19.146 176.691 18.726 176.865 18.1927L179.365 18.7727C179.111 19.786 178.585 20.6327 177.785 21.3127C176.985 21.9793 175.911 22.3127 174.565 22.3127ZM181.657 21.9927V7.67268H184.257V11.4527L184.097 13.1527H184.257C184.524 12.646 184.944 12.2393 185.517 11.9327C186.09 11.626 186.71 11.4727 187.377 11.4727C188.657 11.4727 189.61 11.8393 190.237 12.5727C190.864 13.2927 191.177 14.2727 191.177 15.5127V21.9927H188.577V15.8727C188.577 15.2327 188.41 14.746 188.077 14.4127C187.744 14.066 187.27 13.8927 186.657 13.8927C185.937 13.8927 185.357 14.1593 184.917 14.6927C184.477 15.2127 184.257 15.886 184.257 16.7127V21.9927H181.657ZM198.369 10.1927C197.836 10.1927 197.382 10.0127 197.009 9.65267C196.649 9.27934 196.469 8.82601 196.469 8.29267C196.469 7.75934 196.649 7.31268 197.009 6.95268C197.382 6.57934 197.836 6.39268 198.369 6.39268C198.902 6.39268 199.349 6.57934 199.709 6.95268C200.082 7.31268 200.269 7.75934 200.269 8.29267C200.269 8.82601 200.082 9.27934 199.709 9.65267C199.349 10.0127 198.902 10.1927 198.369 10.1927ZM193.609 21.9927V19.6327H197.049V14.1527H194.209V11.7927H199.669V19.6327H203.129V21.9927H193.609ZM212.101 22.3127C211.008 22.3127 210.128 21.9727 209.461 21.2927C208.808 20.5993 208.481 19.626 208.481 18.3727V14.0127H206.221V11.7927H208.481V8.99268H211.081V11.7927H214.761V14.0127H211.081V18.1727C211.081 18.7193 211.215 19.1393 211.481 19.4327C211.748 19.726 212.128 19.8727 212.621 19.8727C212.888 19.8727 213.135 19.8393 213.361 19.7727C213.601 19.706 213.855 19.5927 214.121 19.4327L214.901 21.6327C214.488 21.886 214.081 22.0593 213.681 22.1527C213.295 22.2593 212.768 22.3127 212.101 22.3127ZM222.474 22.3127C221.447 22.3127 220.554 22.0927 219.794 21.6527C219.047 21.2127 218.467 20.586 218.054 19.7727C217.64 18.9593 217.434 17.9993 217.434 16.8927C217.434 15.786 217.654 14.826 218.094 14.0127C218.534 13.1993 219.134 12.5727 219.894 12.1327C220.654 11.6927 221.52 11.4727 222.494 11.4727C224.12 11.4727 225.32 11.9127 226.094 12.7927C226.88 13.6727 227.274 14.866 227.274 16.3727C227.274 16.546 227.267 16.7327 227.254 16.9327C227.254 17.1327 227.24 17.3193 227.214 17.4927H219.934C220.027 18.3193 220.314 18.946 220.794 19.3727C221.287 19.7993 221.88 20.0127 222.574 20.0127C223.147 20.0127 223.614 19.8727 223.974 19.5927C224.347 19.2993 224.614 18.946 224.774 18.5327L227.034 19.1527C226.714 20.1127 226.174 20.8793 225.414 21.4527C224.667 22.026 223.687 22.3127 222.474 22.3127ZM222.514 13.5727C221.927 13.5727 221.414 13.746 220.974 14.0927C220.547 14.4393 220.247 14.9593 220.074 15.6527H224.794C224.74 15.026 224.52 14.526 224.134 14.1527C223.747 13.766 223.207 13.5727 222.514 13.5727ZM234.526 22.3127C233.526 22.3127 232.639 22.0927 231.866 21.6527C231.106 21.1993 230.506 20.566 230.066 19.7527C229.639 18.9393 229.426 17.986 229.426 16.8927C229.426 15.7993 229.646 14.846 230.086 14.0327C230.526 13.2193 231.132 12.5927 231.906 12.1527C232.692 11.6993 233.599 11.4727 234.626 11.4727C235.839 11.4727 236.872 11.766 237.726 12.3527C238.592 12.926 239.132 13.7993 239.346 14.9727L236.806 15.3727C236.672 14.866 236.399 14.4927 235.986 14.2527C235.586 13.9993 235.112 13.8727 234.566 13.8727C233.886 13.8727 233.292 14.1327 232.786 14.6527C232.279 15.1593 232.026 15.906 232.026 16.8927C232.026 17.866 232.272 18.6127 232.766 19.1327C233.272 19.6393 233.872 19.8927 234.566 19.8927C235.166 19.8927 235.646 19.746 236.006 19.4527C236.379 19.146 236.652 18.726 236.826 18.1927L239.326 18.7727C239.072 19.786 238.546 20.6327 237.746 21.3127C236.946 21.9793 235.872 22.3127 234.526 22.3127ZM248.078 22.3127C246.985 22.3127 246.105 21.9727 245.438 21.2927C244.785 20.5993 244.458 19.626 244.458 18.3727V14.0127H242.198V11.7927H244.458V8.99268H247.058V11.7927H250.738V14.0127H247.058V18.1727C247.058 18.7193 247.191 19.1393 247.458 19.4327C247.725 19.726 248.105 19.8727 248.598 19.8727C248.865 19.8727 249.111 19.8393 249.338 19.7727C249.578 19.706 249.831 19.5927 250.098 19.4327L250.878 21.6327C250.465 21.886 250.058 22.0593 249.658 22.1527C249.271 22.2593 248.745 22.3127 248.078 22.3127ZM257.19 22.3127C256.017 22.3127 255.123 21.9527 254.51 21.2327C253.91 20.5127 253.61 19.526 253.61 18.2727V11.7927H256.21V17.9127C256.21 18.5393 256.363 19.026 256.67 19.3727C256.977 19.706 257.41 19.8727 257.97 19.8727C258.663 19.8727 259.21 19.6193 259.61 19.1127C260.01 18.606 260.21 17.966 260.21 17.1927V11.7927H262.81V21.9927H260.37V20.7527H260.21C259.917 21.2327 259.503 21.6127 258.97 21.8927C258.437 22.1727 257.843 22.3127 257.19 22.3127ZM266.882 21.9927V11.7927H269.322V13.4327H269.482C269.816 12.7927 270.242 12.306 270.762 11.9727C271.282 11.6393 271.929 11.4727 272.702 11.4727C273.422 11.4727 274.022 11.5927 274.502 11.8327V14.5127C274.169 14.326 273.802 14.1793 273.402 14.0727C273.016 13.9527 272.602 13.8927 272.162 13.8927C271.376 13.8927 270.729 14.146 270.222 14.6527C269.729 15.1593 269.482 15.8793 269.482 16.8127V21.9927H266.882ZM282.434 22.3127C281.408 22.3127 280.514 22.0927 279.754 21.6527C279.008 21.2127 278.428 20.586 278.014 19.7727C277.601 18.9593 277.394 17.9993 277.394 16.8927C277.394 15.786 277.614 14.826 278.054 14.0127C278.494 13.1993 279.094 12.5727 279.854 12.1327C280.614 11.6927 281.481 11.4727 282.454 11.4727C284.081 11.4727 285.281 11.9127 286.054 12.7927C286.841 13.6727 287.234 14.866 287.234 16.3727C287.234 16.546 287.228 16.7327 287.214 16.9327C287.214 17.1327 287.201 17.3193 287.174 17.4927H279.894C279.988 18.3193 280.274 18.946 280.754 19.3727C281.248 19.7993 281.841 20.0127 282.534 20.0127C283.108 20.0127 283.574 19.8727 283.934 19.5927C284.308 19.2993 284.574 18.946 284.734 18.5327L286.994 19.1527C286.674 20.1127 286.134 20.8793 285.374 21.4527C284.628 22.026 283.648 22.3127 282.434 22.3127ZM282.474 13.5727C281.888 13.5727 281.374 13.746 280.934 14.0927C280.508 14.4393 280.208 14.9593 280.034 15.6527H284.754C284.701 15.026 284.481 14.526 284.094 14.1527C283.708 13.766 283.168 13.5727 282.474 13.5727Z" fill="white"/>
</svg>
